<?xml version="1.0" encoding="UTF-8"?>
<!-- Generator: visioncortex VTracer 0.6.12 -->
<svg version="1.1" xmlns="http://www.w3.org/2000/svg" width="466" height="639">
<path d="M0,0 L466,0 L466,639 L0,639 Z M106,169 L102,172 L102,181 L105,187 L104,195 L100,208 L91,223 L90,226 L88,226 L82,233 L80,234 L80,236 L75,238 L63,245 L59,247 L59,249 L52,251 L42,259 L37,264 L30,272 L26,278 L23,286 L23,290 L21,290 L17,308 L17,314 L27,322 L34,326 L41,332 L49,339 L58,351 L63,356 L72,364 L80,369 L85,369 L87,354 L92,342 L96,336 L103,329 L112,325 L130,319 L140,316 L151,311 L159,305 L167,295 L170,286 L171,275 L176,280 L178,287 L178,292 L183,297 L187,304 L191,308 L201,322 L207,330 L209,335 L211,335 L211,337 L215,341 L221,349 L220,353 L217,358 L212,363 L204,374 L195,387 L185,400 L172,418 L163,430 L156,440 L153,445 L153,447 L150,448 L144,456 L141,462 L140,469 L132,480 L122,494 L119,498 L117,503 L116,504 L116,509 L120,512 L125,512 L129,507 L129,505 L131,505 L136,497 L139,495 L141,490 L149,480 L153,476 L158,475 L158,473 L160,473 L169,459 L172,456 L184,439 L198,420 L206,409 L215,397 L225,383 L234,371 L238,371 L240,375 L241,378 L243,378 L245,382 L258,400 L270,416 L277,427 L279,427 L281,431 L291,445 L294,451 L297,452 L298,456 L300,456 L302,462 L304,462 L306,466 L312,474 L320,477 L327,487 L329,491 L333,495 L339,505 L345,513 L351,513 L355,509 L355,503 L345,489 L342,485 L340,485 L338,480 L330,469 L329,460 L322,451 L317,441 L312,437 L308,432 L304,425 L297,417 L294,412 L280,393 L274,385 L266,373 L258,363 L250,352 L251,348 L253,343 L255,343 L261,334 L272,319 L282,305 L286,301 L292,291 L292,284 L298,276 L300,275 L301,285 L306,297 L315,308 L330,316 L361,325 L366,327 L366,329 L374,335 L378,340 L380,345 L384,354 L385,366 L386,369 L392,368 L400,364 L405,359 L415,348 L423,338 L435,327 L442,322 L450,319 L450,316 L454,314 L454,307 L450,290 L446,282 L442,274 L440,271 L438,271 L436,266 L425,256 L415,250 L413,250 L413,248 L399,241 L387,232 L377,219 L371,207 L369,204 L367,197 L366,195 L366,181 L369,181 L369,172 L364,169 L359,170 L354,174 L349,179 L339,193 L339,195 L337,195 L331,205 L326,210 L314,227 L312,232 L310,232 L304,241 L295,253 L288,263 L288,269 L286,269 L282,275 L282,277 L275,277 L268,287 L260,298 L255,305 L252,310 L245,318 L237,330 L237,332 L234,332 L232,328 L226,319 L218,308 L207,293 L200,283 L196,277 L189,277 L187,272 L185,269 L183,269 L183,263 L175,252 L169,244 L161,233 L156,226 L154,226 L153,222 L143,208 L141,205 L139,205 L137,200 L129,189 L121,177 L114,171 L113,169 Z " fill="#FDFDFD" transform="translate(0,0)"/>
<path d="M0,0 L4,4 L7,9 L12,16 L12,18 L14,18 L20,26 L23,31 L30,41 L38,51 L39,54 L44,59 L48,67 L51,69 L51,71 L53,71 L54,77 L51,77 L51,79 L44,82 L43,86 L35,90 L17,94 L-3,94 L-10,92 L-13,89 L-20,88 L-24,86 L-40,86 L-55,89 L-60,89 L-60,91 L-65,93 L-70,95 L-70,97 L-65,96 L-69,100 L-71,100 L-71,102 L-76,105 L-81,106 L-82,108 L-83,106 L-87,110 L-90,109 L-89,100 L-91,103 L-90,96 L-88,96 L-87,91 L-84,83 L-77,73 L-72,67 L-59,57 L-52,55 L-51,52 L-39,46 L-33,42 L-31,42 L-31,40 L-24,34 L-23,32 L-21,32 L-19,27 L-13,17 L-9,9 L-5,10 L-4,6 Z " fill="#2A5838" transform="translate(111,194)"/>
<path d="M0,0 L2,0 L4,4 L7,7 L9,15 L15,25 L19,32 L26,41 L40,51 L45,54 L52,57 L49,58 L50,60 L55,63 L55,65 L60,66 L66,70 L66,72 L70,74 L72,78 L74,78 L73,74 L76,76 L74,81 L76,81 L81,89 L81,93 L83,93 L86,100 L85,104 L83,104 L82,109 L76,108 L63,100 L55,95 L44,93 L44,91 L17,91 L7,92 L-2,94 L-21,95 L-10,96 L-10,97 L-22,97 L-33,94 L-49,86 L-53,83 L-53,81 L-55,80 L-54,75 L-50,69 L-48,68 L-47,65 L-43,61 L-40,55 L-34,47 L-29,40 L-26,37 L-19,26 L-7,10 L-4,5 L-1,2 Z " fill="#2A5739" transform="translate(361,191)"/>
<path d="M0,0 L3,1 L3,8 L-1,20 L-7,30 L-15,37 L-24,41 L-34,44 L-56,51 L-66,57 L-74,66 L-77,72 L-81,82 L-83,94 L-88,94 L-99,86 L-110,74 L-114,68 L-124,58 L-138,48 L-139,46 L-146,43 L-145,38 L-138,31 L-136,31 L-136,29 L-131,27 L-129,25 L-126,25 L-126,23 L-121,20 L-120,18 L-106,13 L-100,12 L-81,12 L-58,16 L-38,16 L-17,11 L-12,9 L-12,7 L-2,2 Z " fill="#F8F8F8" transform="translate(166,271)"/>
<path d="M0,0 L4,1 L20,9 L30,13 L37,15 L60,15 L75,13 L80,11 L103,11 L114,13 L122,18 L137,27 L140,30 L140,32 L144,33 L148,37 L149,41 L134,51 L127,57 L125,57 L125,59 L119,64 L113,73 L108,78 L101,85 L99,85 L99,87 L89,94 L86,94 L83,78 L79,69 L73,60 L63,53 L50,47 L38,44 L30,41 L20,38 L20,36 L16,35 L10,30 L4,21 L0,7 Z " fill="#F8F7F7" transform="translate(302,272)"/>
<path d="M0,0 L4,1 L8,5 L14,8 L14,10 L17,9 L17,11 L14,12 L12,11 L10,15 L2,26 L-9,41 L-14,48 L-16,48 L-17,52 L-21,57 L-24,62 L-26,62 L-28,67 L-38,80 L-46,92 L-52,99 L-62,113 L-68,122 L-70,122 L-71,126 L-75,132 L-77,132 L-79,137 L-81,137 L-83,142 L-89,150 L-97,161 L-102,169 L-110,168 L-115,162 L-115,157 L-111,152 L-109,152 L-108,147 L-103,140 L-105,140 L-103,136 L-99,135 L-97,132 L-94,132 L-94,129 L-92,129 L-90,123 L-77,105 L-63,86 L-63,84 L-63,81 L-59,77 L-60,81 L-58,81 L-56,76 L-49,67 L-47,67 L-46,63 L-36,49 L-23,31 L-20,31 L-18,27 L-15,20 L-8,11 L-6,11 L-5,7 Z " fill="#AA906E" transform="translate(267,293)"/>
<path d="M0,0 L4,2 L4,5 L7,6 L13,14 L13,18 L17,20 L21,25 L21,28 L25,30 L27,34 L27,38 L31,39 L45,58 L50,65 L50,67 L52,67 L58,76 L66,87 L71,94 L71,96 L73,96 L73,101 L68,106 L66,107 L60,107 L54,99 L52,98 L51,100 L51,98 L47,96 L48,94 L51,96 L50,92 L48,92 L41,81 L30,67 L23,58 L19,51 L12,42 L12,40 L10,40 L4,31 L-8,15 L-8,10 L-5,8 L-2,2 Z " fill="#AB906F" transform="translate(246,354)"/>
<path d="M0,0 L5,0 L2,4 L2,6 L4,7 L4,9 L11,9 L14,10 L13,15 L11,15 L10,12 L6,17 L0,25 L-2,25 L-3,30 L-7,34 L-11,41 L-19,51 L-32,70 L-36,75 L-40,81 L-42,81 L-44,86 L-47,91 L-48,94 L-42,98 L-46,99 L-51,98 L-58,97 L-62,95 L-66,96 L-66,94 L-64,94 L-64,88 L-56,77 L-48,66 L-42,57 L-40,57 L-38,52 L-25,34 L-20,28 L-15,20 L-13,20 L-11,15 L-1,1 Z " fill="#2E523A" transform="translate(352,175)"/>
<path d="M0,0 L4,4 L12,16 L20,27 L20,29 L22,29 L30,40 L35,47 L35,50 L37,50 L46,62 L50,68 L52,75 L57,80 L59,82 L61,89 L60,95 L58,95 L58,97 L54,97 L54,99 L52,99 L50,94 L46,88 L41,82 L37,75 L33,71 L31,66 L29,65 L27,61 L24,58 L18,50 L13,42 L10,40 L6,32 L1,27 L-3,20 L-9,13 L-9,9 L-4,7 L1,3 Z " fill="#2D5239" transform="translate(119,176)"/>
<path d="M0,0 L3,0 L8,7 L10,13 L14,15 L18,21 L22,28 L27,33 L32,40 L32,44 L30,44 L29,48 L27,48 L25,53 L24,55 L21,54 L13,43 L12,40 L10,40 L10,42 L8,42 L7,38 L7,35 L-3,21 L-11,10 L-10,7 L-6,7 L-6,5 L-4,5 L-4,3 Z " fill="#A98F6F" transform="translate(201,293)"/>
<path d="M0,0 L3,0 L2,9 L7,13 L13,15 L9,17 L3,26 L-3,33 L-5,38 L-10,43 L-12,47 L-14,47 L-16,52 L-18,54 L-25,53 L-27,51 L-27,46 L-25,44 L-22,37 L-13,25 L-3,11 L-1,1 Z " fill="#272727" transform="translate(143,458)"/>
<path d="M0,0 L4,1 L13,14 L13,16 L17,18 L23,27 L28,34 L28,40 L24,44 L18,44 L12,36 L6,26 L1,20 L-6,9 L-8,5 L-6,3 L-1,1 Z " fill="#252525" transform="translate(327,469)"/>
<path d="M0,0 L4,1 L5,2 L12,3 L12,5 L9,5 L7,9 L3,15 L3,22 L-1,23 L-8,20 L-13,14 L-16,13 L-14,8 L-7,8 L-5,3 Z " fill="#222323" transform="translate(289,269)"/>
<path d="M0,0 L2,1 L2,9 L6,10 L9,12 L9,15 L15,15 L15,19 L13,19 L12,23 L8,24 L7,27 L3,27 L3,29 L-1,28 L-1,21 L-7,13 L-7,10 L-3,10 L-3,8 L-1,8 Z " fill="#1F201E" transform="translate(180,263)"/>
<path d="M0,0 L7,0 L11,5 L13,6 L15,11 L9,15 L4,16 L4,22 L2,22 L0,17 L-2,16 L-4,12 L-4,3 Z " fill="#2B2D2B" transform="translate(106,169)"/>
<path d="M0,0 L1,4 L3,4 L3,11 L1,9 L1,5 L-1,5 L-3,10 L-5,10 L-7,15 L-21,34 L-28,45 L-33,50 L-39,59 L-42,63 L-44,67 L-46,64 L-44,60 L-31,42 L-23,31 L-19,26 L-16,21 L-13,17 L-12,14 L-7,9 L-3,3 L-1,3 Z " fill="#173521" transform="translate(362,186)"/>
<path d="M0,0 L2,0 L7,6 L16,18 L16,27 L12,30 L7,32 L2,33 L-2,31 L-8,23 L-9,20 L-11,20 L-13,14 L-15,14 L-15,10 L-12,11 L-7,18 L-1,18 L4,16 L6,8 L4,8 Z M8,14 L4,20 L-4,22 L-2,27 L1,30 L8,30 L11,28 L11,26 L13,26 L13,19 L10,14 Z " fill="#433D37" transform="translate(313,442)"/>
<path d="M0,0 L0,3 L-1,5 L3,4 L3,7 L8,9 L14,12 L13,16 L12,18 L14,19 L13,21 L11,21 L11,23 L4,25 L6,21 L0,18 L-3,15 L-2,8 L-1,6 L-3,6 L-1,1 Z " fill="#5F5F5F" transform="translate(147,452)"/>
<path d="M0,0 L1,3 L7,8 L8,10 L17,13 L11,23 L10,20 L1,17 L1,14 L-3,13 L-4,9 L-7,11 L-5,7 Z " fill="#595857" transform="translate(274,279)"/>
<path d="M0,0 L2,1 L-9,16 L-22,34 L-27,42 L-30,45 L-36,54 L-39,54 L-37,48 L-42,47 L-47,42 L-46,40 L-41,44 L-33,46 L-31,41 L-21,27 L-13,16 L-12,14 L-10,14 L-8,9 L-6,9 L-4,4 Z " fill="#473C32" transform="translate(198,416)"/>
<path d="M0,0 L7,1 L9,3 L9,12 L6,12 L6,16 L-2,16 L-4,15 L-4,13 L-7,12 L-5,7 L-6,5 Z " fill="#272826" transform="translate(360,169)"/>
<path d="M0,0 L1,4 L3,4 L4,2 L13,13 L16,18 L22,26 L22,29 L26,31 L29,35 L32,40 L36,45 L36,51 L32,47 L26,38 L19,28 L18,25 L16,25 L10,16 L4,7 L4,5 L1,5 L0,7 Z " fill="#163620" transform="translate(107,187)"/>
<path d="M0,0 L2,3 L-6,14 L-7,16 L-9,16 L-11,21 L-12,25 L-10,28 L-11,31 L-14,28 L-18,30 L-21,36 L-23,37 L-23,42 L-19,47 L-20,50 L-25,44 L-25,41 L-27,41 L-26,35 L-21,28 L-18,26 L-14,19 L-11,14 L-9,14 L-7,10 Z " fill="#504131" transform="translate(262,327)"/>
<path d="M0,0 L6,1 L16,7 L23,13 L29,23 L33,37 L33,45 L39,43 L40,45 L34,48 L31,48 L30,45 L29,33 L25,24 L22,18 L16,11 L11,8 L11,6 L6,4 L0,1 Z " fill="#575657" transform="translate(355,321)"/>
<path d="M0,0 L4,2 L5,5 L5,12 L3,12 L3,14 L0,16 L-7,16 L-11,12 L-12,8 L-4,6 Z " fill="#606060" transform="translate(321,456)"/>
<path d="M0,0 L1,3 L3,3 L2,6 L-2,8 L-9,18 L-20,33 L-28,44 L-33,51 L-37,52 L-37,50 L-35,50 L-33,45 L-23,32 L-16,22 L-9,13 L-5,7 Z " fill="#53473B" transform="translate(234,365)"/>
<path d="M0,0 L4,2 L14,16 L20,24 L27,33 L30,38 L35,44 L37,45 L38,50 L35,48 L35,46 L31,45 L23,34 L18,27 L18,25 L16,25 L7,12 L0,3 Z " fill="#5A5044" transform="translate(280,396)"/>
<path d="M0,0 L3,4 L7,19 L8,24 L8,31 L6,31 L3,26 L-1,22 L-4,21 L-6,17 L-3,17 L-3,15 L-6,14 L-2,14 L-2,12 L2,11 L3,15 L2,8 L0,4 Z " fill="#3F4F45" transform="translate(446,283)"/>
<path d="M0,0 L2,1 L-13,15 L-24,29 L-31,35 L-36,40 L-39,39 L-37,35 L-32,33 L-32,31 L-24,24 L-20,19 L-18,19 L-16,14 L-8,5 L-6,5 L-6,3 Z " fill="#626161" transform="translate(433,326)"/>
<path d="M0,0 L4,4 L14,17 L22,29 L29,38 L28,41 L25,39 L25,37 L21,36 L18,28 L15,26 L11,19 L7,16 L5,11 L0,4 L-2,3 L-1,1 Z " fill="#5E5244" transform="translate(252,356)"/>
<path d="M0,0 L4,2 L13,11 L17,17 L27,28 L36,34 L41,35 L40,39 L35,37 L25,30 L17,23 L13,17 L6,8 L0,2 Z " fill="#5B5A5B" transform="translate(42,330)"/>
<path d="M0,0 L4,1 L2,3 L0,5 L-16,10 L-26,15 L-33,22 L-36,21 L-29,13 L-22,8 L-11,4 Z " fill="#747374" transform="translate(128,315)"/>
<path d="M0,0 L5,5 L15,19 L24,31 L27,35 L25,39 L22,34 L17,29 L11,19 L6,14 L2,7 L1,4 L-2,3 L0,2 Z " fill="#605447" transform="translate(203,289)"/>
<path d="M0,0 L2,1 L2,8 L5,9 L5,7 L11,7 L11,5 L16,6 L21,5 L20,10 L17,13 L14,13 L14,15 L9,15 L0,9 Z " fill="#616161" transform="translate(178,283)"/>
<path d="M0,0 L5,4 L5,6 L10,5 L6,12 L-4,25 L-8,23 L-16,12 L-18,11 L-18,7 L-16,7 L-6,21 L-4,22 L-2,17 L-1,15 L1,15 L2,11 L4,11 L1,4 Z " fill="#4C3E2D" transform="translate(229,326)"/>
<path d="M0,0 L1,0 L5,17 L10,26 L15,31 L18,34 L21,35 L21,37 L26,38 L29,41 L23,40 L14,35 L5,24 L0,12 L-1,2 L-3,1 Z " fill="#515050" transform="translate(301,273)"/>
<path d="M0,0 L20,0 L20,2 L1,3 L-6,5 L-22,11 L-25,11 L-25,9 L-19,5 L-15,5 L-15,3 Z " fill="#233B2D" transform="translate(66,280)"/>
<path d="M0,0 L2,2 L1,13 L-3,23 L-11,33 L-16,37 L-19,36 L-17,36 L-17,33 L-10,27 L-3,13 Z " fill="#5B5B5B" transform="translate(169,273)"/>
<path d="M0,0 L4,1 L15,16 L15,18 L17,18 L25,29 L29,36 L27,38 L17,24 L3,5 L2,2 L0,2 Z " fill="#524639" transform="translate(241,376)"/>
<path d="M0,0 L4,2 L12,13 L23,28 L25,33 L27,33 L29,38 L25,36 L11,17 L10,14 L8,14 L1,3 Z " fill="#4B3F32" transform="translate(269,413)"/>
<path d="M0,0 L1,2 L-5,11 L-6,14 L-11,19 L-11,24 L-11,27 L-12,28 L-14,28 L-14,25 L-18,26 L-16,20 L-13,16 L-11,16 L-9,11 L-5,5 Z " fill="#4E4339" transform="translate(164,431)"/>
<path d="M0,0 L1,3 L-12,20 L-20,31 L-22,32 L-19,23 L-9,11 L-3,2 Z " fill="#574B40" transform="translate(205,375)"/>
<path d="M0,0 L2,0 L2,2 L6,4 L6,7 L9,8 L12,14 L18,21 L19,25 L17,28 L13,21 L10,16 L7,14 L3,7 L0,2 Z " fill="#173721" transform="translate(142,234)"/>
<path d="M0,0 L0,3 L-1,7 L-6,14 L-9,20 L-11,20 L-11,23 L-14,24 L-18,28 L-17,23 L-4,5 Z " fill="#61564B" transform="translate(184,402)"/>
<path d="M0,0 L7,0 L14,10 L13,12 L10,14 L6,12 L4,13 L4,11 L0,11 L0,13 L-2,12 L-1,10 L3,8 L4,5 L6,5 L6,1 L0,1 Z " fill="#545454" transform="translate(189,277)"/>
<path d="M0,0 L12,3 L19,6 L27,8 L29,10 L29,12 L17,9 L1,4 Z " fill="#737272" transform="translate(327,311)"/>
<path d="M0,0 L5,1 L16,8 L24,15 L25,20 L23,20 L19,15 L17,14 L17,12 L12,10 L10,8 L6,7 L4,4 L0,2 Z " fill="#2A3F31" transform="translate(410,249)"/>
<path d="M0,0 L16,0 L20,2 L32,4 L30,7 L14,5 L-4,4 L-4,3 L15,3 L15,1 L0,1 Z " fill="#3D5345" transform="translate(71,279)"/>
<path d="M0,0 L27,1 L27,2 L4,3 L-1,5 L-11,6 L-16,5 L-13,3 Z " fill="#415248" transform="translate(378,281)"/>
<path d="M0,0 L4,5 L14,18 L21,28 L20,31 L14,24 L1,6 L-2,3 L-1,1 Z " fill="#493F32" transform="translate(189,301)"/>
<path d="M0,0 L1,3 L8,5 L9,8 L14,10 L24,18 L22,21 L11,12 L6,9 L-1,4 Z " fill="#696968" transform="translate(19,311)"/>
<path d="M0,0 L1,3 L0,10 L4,8 L7,6 L6,10 L-2,18 L-3,21 L-5,21 L-4,9 L-1,1 Z " fill="#2E3731" transform="translate(22,293)"/>
<path d="M0,0 L2,1 L3,5 L0,6 L0,9 L-9,13 L-13,16 L-20,18 L-15,13 L-4,5 L0,2 Z " fill="#777675" transform="translate(450,310)"/>
<path d="M0,0 L2,0 L2,2 L4,2 L8,8 L12,20 L14,25 L14,30 L12,29 L8,17 L8,15 L6,15 L3,7 L1,3 L-1,3 Z " fill="#293C2F" transform="translate(436,269)"/>
<path d="M0,0 L3,3 L0,4 L-2,8 L-4,8 L-4,10 L-6,10 L-6,12 L-12,13 L-13,15 L-17,11 L-19,7 L-15,8 L-9,10 L-9,8 L-4,5 Z " fill="#373028" transform="translate(201,288)"/>
<path d="M0,0 L4,2 L-1,3 L1,5 L-4,6 L-15,6 L-26,5 L-27,3 L-7,2 Z " fill="#2A4336" transform="translate(366,282)"/>
<path d="M0,0 L3,1 L8,7 L11,12 L10,16 L8,13 L4,15 L-4,19 L-7,17 L2,14 L1,11 L5,12 L4,6 L2,6 L0,3 Z " fill="#1A3222" transform="translate(160,259)"/>
<path d="M0,0 L3,2 L-1,7 L-2,10 L-4,10 L-6,14 L-13,24 L-15,24 L-13,18 L-7,9 L-5,8 L-2,3 Z " fill="#5C4F44" transform="translate(222,350)"/>
<path d="M0,0 L3,1 L-2,11 L-5,21 L-6,32 L-10,31 L-8,30 L-8,21 L-6,12 L-3,6 Z " fill="#424041" transform="translate(91,337)"/>
<path d="M0,0 L5,4 L9,10 L14,17 L14,23 L16,23 L18,28 L12,27 L12,18 L9,18 L7,11 L2,7 L0,4 Z " fill="#47514B" transform="translate(169,246)"/>
<path d="M0,0 L2,0 L1,4 L-7,15 L-14,24 L-16,25 L-15,20 L-8,11 Z " fill="#4B3E31" transform="translate(279,304)"/>
<path d="M0,0 L1,2 L4,3 L1,3 L-1,7 L-5,14 L-10,19 L-15,26 L-16,24 L-13,19 L-6,8 Z " fill="#524638" transform="translate(266,290)"/>
<path d="M0,0 L1,2 L-1,7 L-3,7 L-4,11 L-8,15 L-11,21 L-14,20 L-11,13 L-7,7 L-5,7 L-3,3 Z " fill="#13331C" transform="translate(317,249)"/>
<path d="M0,0 L0,3 L-1,5 L-13,10 L-24,11 L-21,9 L-19,9 L-19,7 L-6,3 Z " fill="#6A6A6A" transform="translate(151,307)"/>
<path d="M0,0 L1,2 L-1,9 L-3,12 L-6,12 L-8,16 L-10,19 L-13,18 L-2,2 Z " fill="#655A4E" transform="translate(250,312)"/>
<path d="M0,0 L2,1 L3,7 L6,7 L5,11 L1,19 L-1,19 L-2,22 L-2,13 L0,7 Z " fill="#45564A" transform="translate(105,185)"/>
<path d="M0,0 L1,0 L2,5 L5,6 L5,9 L14,12 L13,16 L11,16 L11,14 L5,12 L0,7 L0,5 L-3,5 L-1,1 Z " fill="#362D25" transform="translate(270,287)"/>
</svg>
