<?xml version="1.0" encoding="UTF-8"?>
<!-- Generator: visioncortex VTracer 0.6.12 -->
<svg version="1.1" xmlns="http://www.w3.org/2000/svg" width="466" height="639">
<path d="M0,0 L466,0 L466,639 L0,639 Z " fill="#FEFEFE" transform="translate(0,0)"/>
<path d="M0,0 L7,0 L11,5 L16,9 L25,23 L33,34 L33,36 L35,36 L43,47 L48,54 L48,57 L50,57 L59,69 L66,79 L77,94 L77,100 L79,100 L83,106 L83,108 L90,108 L101,124 L112,139 L121,151 L127,160 L128,163 L131,163 L133,158 L143,144 L148,139 L153,130 L160,121 L169,108 L176,108 L178,103 L180,100 L182,100 L182,94 L190,83 L198,72 L204,63 L206,63 L208,58 L221,40 L226,34 L231,26 L233,26 L235,21 L245,7 L253,1 L258,0 L263,3 L263,12 L260,12 L260,26 L262,29 L264,37 L270,47 L274,54 L281,63 L295,73 L300,76 L307,79 L307,81 L313,83 L322,90 L331,98 L332,102 L334,102 L338,108 L340,113 L344,121 L348,138 L348,145 L344,147 L344,150 L335,154 L326,161 L316,170 L302,187 L296,192 L291,197 L283,200 L280,200 L279,197 L278,185 L274,176 L271,170 L265,163 L260,160 L260,158 L255,156 L224,147 L209,139 L200,128 L195,116 L194,106 L189,110 L186,115 L186,122 L178,135 L174,139 L166,150 L152,169 L149,174 L147,174 L145,179 L144,183 L153,195 L162,207 L169,217 L180,232 L189,244 L193,250 L201,260 L204,265 L209,271 L211,272 L216,282 L223,291 L224,300 L234,314 L234,316 L238,318 L244,327 L249,334 L249,340 L245,344 L239,344 L233,336 L227,326 L222,320 L215,309 L213,307 L205,304 L199,296 L198,293 L196,293 L194,287 L192,287 L191,283 L187,281 L185,276 L173,260 L173,258 L171,258 L164,247 L152,231 L138,212 L137,209 L135,209 L132,204 L132,202 L127,203 L119,214 L108,229 L100,240 L86,259 L72,278 L65,289 L62,292 L54,304 L52,304 L52,306 L46,308 L43,311 L34,322 L32,327 L27,332 L25,336 L23,336 L21,341 L19,343 L12,342 L10,340 L10,335 L12,333 L15,326 L24,314 L34,300 L36,290 L42,282 L45,278 L47,278 L49,273 L53,267 L63,253 L75,237 L82,227 L95,210 L101,201 L109,190 L111,189 L114,184 L115,180 L107,169 L105,168 L105,166 L103,166 L100,160 L87,142 L83,136 L80,133 L75,125 L72,123 L72,116 L70,111 L65,106 L64,117 L60,127 L52,137 L44,143 L32,148 L24,150 L13,154 L6,156 L-4,161 L-12,169 L-17,179 L-20,189 L-21,200 L-28,199 L-39,191 L-47,184 L-51,178 L-58,169 L-66,162 L-76,154 L-81,151 L-89,145 L-88,133 L-85,121 L-83,121 L-82,116 L-79,108 L-72,98 L-67,92 L-54,82 L-47,80 L-46,77 L-34,71 L-28,67 L-26,67 L-26,65 L-19,59 L-18,57 L-16,57 L-14,52 L-8,42 L-4,34 L-1,23 L-2,16 L-4,12 L-4,3 Z " fill="#2A5838" transform="translate(106,169)"/>
<path d="M0,0 L7,1 L9,3 L9,12 L6,12 L6,26 L8,29 L10,37 L16,47 L20,54 L27,63 L41,73 L46,76 L53,79 L53,81 L59,83 L68,90 L77,98 L78,102 L80,102 L84,108 L86,113 L90,121 L94,138 L94,145 L90,147 L90,150 L81,154 L72,161 L62,170 L48,187 L42,192 L37,197 L29,200 L26,200 L25,197 L24,185 L20,176 L17,170 L11,163 L6,160 L6,158 L1,156 L-30,147 L-45,139 L-54,128 L-59,116 L-60,106 L-65,110 L-68,115 L-68,122 L-72,123 L-79,120 L-84,114 L-87,113 L-85,108 L-78,108 L-76,103 L-74,100 L-72,100 L-72,94 L-64,83 L-56,72 L-50,63 L-48,63 L-46,58 L-33,40 L-28,34 L-23,26 L-21,26 L-19,21 L-9,7 L-1,1 Z " fill="#2A5839" transform="translate(360,169)"/>
<path d="M0,0 L7,0 L18,16 L29,31 L38,43 L44,52 L45,55 L48,55 L50,50 L60,36 L65,31 L70,22 L77,13 L85,2 L86,5 L92,10 L93,12 L102,15 L95,27 L91,31 L83,42 L69,61 L66,66 L64,66 L62,71 L61,75 L70,87 L79,99 L86,109 L97,124 L106,136 L110,142 L118,152 L121,157 L126,163 L128,164 L133,174 L140,183 L141,192 L151,206 L151,208 L155,210 L161,219 L166,226 L166,232 L162,236 L156,236 L150,228 L144,218 L139,212 L132,201 L130,199 L122,196 L116,188 L115,185 L113,185 L111,179 L109,179 L108,175 L104,173 L102,168 L90,152 L90,150 L88,150 L81,139 L69,123 L55,104 L54,101 L52,101 L49,96 L49,94 L44,95 L36,106 L25,121 L17,132 L3,151 L-11,170 L-18,181 L-21,184 L-29,196 L-31,196 L-31,198 L-37,200 L-40,203 L-49,214 L-51,219 L-56,224 L-58,228 L-60,228 L-62,233 L-64,235 L-71,234 L-73,232 L-73,227 L-71,225 L-68,218 L-59,206 L-49,192 L-47,182 L-41,174 L-38,170 L-36,170 L-34,165 L-30,159 L-20,145 L-8,129 L-1,119 L12,102 L18,93 L26,82 L28,81 L31,76 L32,72 L24,61 L22,60 L22,58 L20,58 L17,52 L4,34 L0,28 L-3,25 L-8,17 L-11,15 L-11,6 L-9,7 L-9,14 L-6,15 L-6,13 L-2,12 L-1,10 L3,8 L4,5 L6,5 L6,1 L0,1 Z " fill="#AE9170" transform="translate(189,277)"/>
<path d="M0,0 L3,1 L3,8 L-1,20 L-7,30 L-15,37 L-24,41 L-34,44 L-56,51 L-66,57 L-74,66 L-77,72 L-81,82 L-83,94 L-88,94 L-99,86 L-110,74 L-114,68 L-124,58 L-138,48 L-139,46 L-146,43 L-145,38 L-138,31 L-136,31 L-136,29 L-131,27 L-129,25 L-126,25 L-126,23 L-121,20 L-120,18 L-106,13 L-100,12 L-81,12 L-58,16 L-38,16 L-17,11 L-12,9 L-12,7 L-2,2 Z " fill="#F9F9F9" transform="translate(166,271)"/>
<path d="M0,0 L4,1 L20,9 L30,13 L37,15 L60,15 L75,13 L80,11 L103,11 L114,13 L122,18 L137,27 L140,30 L140,32 L144,33 L148,37 L149,41 L134,51 L127,57 L125,57 L125,59 L119,64 L113,73 L108,78 L101,85 L99,85 L99,87 L89,94 L86,94 L83,78 L79,69 L73,60 L63,53 L50,47 L38,44 L30,41 L20,38 L20,36 L16,35 L10,30 L4,21 L0,7 Z " fill="#F9F8F8" transform="translate(302,272)"/>
<path d="M0,0 L2,0 L1,4 L-7,15 L-21,34 L-24,39 L-26,39 L-28,44 L-29,48 L-20,60 L-11,72 L-4,82 L7,97 L16,109 L20,115 L28,125 L31,130 L36,136 L38,137 L43,147 L50,156 L51,165 L61,179 L61,181 L65,183 L71,192 L76,199 L76,205 L72,209 L66,209 L60,201 L54,191 L49,185 L42,174 L40,172 L32,169 L26,161 L25,158 L23,158 L21,152 L19,152 L18,148 L14,146 L12,141 L0,125 L0,123 L-2,123 L-9,112 L-21,96 L-35,77 L-36,74 L-38,74 L-41,69 L-41,67 L-46,68 L-54,79 L-65,94 L-73,105 L-87,124 L-101,143 L-108,154 L-111,157 L-119,169 L-121,169 L-121,171 L-127,173 L-130,176 L-139,187 L-141,192 L-146,197 L-148,201 L-150,201 L-152,206 L-154,208 L-161,207 L-163,205 L-163,200 L-161,198 L-158,191 L-149,179 L-139,165 L-137,155 L-131,147 L-128,143 L-126,143 L-124,138 L-120,132 L-115,127 L-114,129 L-120,138 L-121,141 L-126,146 L-126,151 L-122,156 L-114,158 L-112,153 L-102,139 L-94,128 L-93,126 L-91,126 L-89,121 L-87,121 L-85,116 L-82,111 L-80,111 L-78,106 L-68,93 L-61,83 L-54,74 L-50,68 L-38,51 L-35,49 L-31,42 L-28,37 L-26,37 L-24,33 L-14,19 L-8,11 Z " fill="#AD9170" transform="translate(279,304)"/>
<path d="M0,0 L7,0 L11,5 L16,9 L25,23 L33,34 L33,36 L35,36 L43,47 L48,54 L48,57 L50,57 L59,69 L66,79 L77,94 L77,100 L79,100 L83,106 L83,109 L89,109 L89,113 L87,113 L86,117 L82,118 L81,121 L77,121 L77,123 L73,122 L73,115 L67,107 L64,106 L62,103 L58,105 L50,109 L47,107 L56,104 L55,101 L59,102 L58,96 L56,96 L50,89 L46,81 L43,79 L39,72 L33,65 L27,56 L20,46 L19,43 L17,43 L11,34 L5,25 L5,23 L2,23 L1,25 L0,17 L-2,16 L-4,12 L-4,3 Z " fill="#2B5338" transform="translate(106,169)"/>
<path d="M0,0 L7,1 L9,3 L9,12 L6,12 L5,28 L3,26 L3,22 L1,22 L-1,27 L-3,27 L-5,32 L-19,51 L-26,62 L-31,67 L-37,76 L-40,80 L-44,87 L-46,87 L-47,91 L-51,95 L-54,102 L-50,104 L-54,105 L-58,104 L-62,105 L-64,109 L-68,115 L-68,122 L-72,123 L-79,120 L-84,114 L-87,113 L-85,108 L-78,108 L-76,103 L-74,100 L-72,100 L-72,94 L-64,83 L-56,72 L-50,63 L-48,63 L-46,58 L-33,40 L-28,34 L-23,26 L-21,26 L-19,21 L-9,7 L-1,1 Z " fill="#2C5539" transform="translate(360,169)"/>
<path d="M0,0 L2,0 L1,4 L-7,15 L-21,34 L-24,39 L-26,39 L-28,44 L-29,48 L-20,60 L-11,72 L-4,82 L7,97 L16,109 L20,115 L28,125 L31,130 L31,134 L27,130 L21,122 L19,117 L17,117 L8,104 L-2,91 L-2,89 L-6,88 L-9,80 L-12,78 L-16,71 L-20,68 L-22,63 L-27,56 L-29,55 L-31,51 L-35,53 L-38,59 L-40,60 L-40,65 L-27,82 L-23,88 L-23,90 L-21,90 L-13,101 L-7,110 L5,126 L13,137 L15,142 L17,142 L19,147 L15,145 L1,126 L0,123 L-2,123 L-9,112 L-21,96 L-35,77 L-36,74 L-38,74 L-41,69 L-41,67 L-46,68 L-54,79 L-65,94 L-73,105 L-87,124 L-101,143 L-108,154 L-111,157 L-119,169 L-121,169 L-121,171 L-127,173 L-130,176 L-139,187 L-141,192 L-146,197 L-148,201 L-150,201 L-152,206 L-154,208 L-161,207 L-163,205 L-163,200 L-161,198 L-158,191 L-149,179 L-139,165 L-137,155 L-131,147 L-128,143 L-126,143 L-124,138 L-120,132 L-115,127 L-114,129 L-120,138 L-121,141 L-126,146 L-126,151 L-122,156 L-114,158 L-112,153 L-102,139 L-94,128 L-93,126 L-91,126 L-89,121 L-87,121 L-85,116 L-82,111 L-80,111 L-78,106 L-68,93 L-61,83 L-54,74 L-50,68 L-38,51 L-35,49 L-31,42 L-28,37 L-26,37 L-24,33 L-14,19 L-8,11 Z " fill="#52473A" transform="translate(279,304)"/>
<path d="M0,0 L7,0 L18,16 L29,31 L38,43 L44,52 L45,55 L48,55 L50,50 L60,36 L65,31 L70,22 L77,13 L85,2 L86,5 L92,10 L93,12 L102,15 L96,25 L92,26 L92,24 L86,22 L81,17 L78,16 L76,20 L72,27 L67,32 L62,39 L60,44 L58,47 L55,47 L53,51 L40,69 L32,80 L31,83 L29,83 L27,87 L20,97 L18,97 L20,91 L26,82 L28,81 L31,76 L32,72 L24,61 L22,60 L22,58 L20,58 L17,52 L4,34 L0,28 L-3,25 L-8,17 L-11,15 L-11,6 L-9,7 L-9,14 L-6,15 L-6,13 L-2,12 L-1,10 L3,8 L4,5 L6,5 L6,1 L0,1 Z " fill="#4B3D2C" transform="translate(189,277)"/>
<path d="M0,0 L2,0 L7,6 L16,18 L17,27 L27,41 L27,43 L31,45 L37,54 L42,61 L42,67 L38,71 L32,71 L26,63 L20,53 L15,47 L8,36 L6,34 L-2,31 L-8,23 L-9,20 L-11,20 L-13,14 L-15,14 L-15,10 L-12,11 L-7,18 L-1,18 L4,16 L6,8 L4,8 Z " fill="#242424" transform="translate(313,442)"/>
<path d="M0,0 L3,0 L8,7 L10,13 L14,15 L18,21 L22,28 L27,33 L32,40 L32,44 L30,44 L29,48 L27,48 L25,53 L24,55 L21,54 L13,43 L12,40 L10,40 L10,42 L8,42 L7,38 L7,35 L-3,21 L-11,10 L-10,7 L-6,7 L-6,5 L-4,5 L-4,3 Z " fill="#AC9070" transform="translate(201,293)"/>
<path d="M0,0 L2,0 L1,4 L-7,15 L-21,34 L-24,39 L-26,39 L-28,44 L-29,48 L-20,60 L-11,72 L-4,82 L7,97 L16,109 L20,115 L28,125 L31,130 L31,134 L27,130 L21,122 L19,117 L17,117 L8,104 L-2,91 L-2,89 L-6,88 L-9,80 L-12,78 L-16,71 L-20,68 L-22,63 L-27,56 L-29,55 L-31,51 L-35,53 L-38,59 L-40,60 L-40,65 L-27,82 L-23,88 L-23,90 L-21,90 L-13,101 L-7,110 L5,126 L13,137 L15,142 L17,142 L19,147 L15,145 L1,126 L0,123 L-2,123 L-9,112 L-21,96 L-35,77 L-36,74 L-38,74 L-42,67 L-42,64 L-44,64 L-43,58 L-38,51 L-35,49 L-31,42 L-28,37 L-26,37 L-24,33 L-14,19 L-8,11 Z " fill="#4F4335" transform="translate(279,304)"/>
<path d="M0,0 L3,0 L2,9 L7,13 L13,15 L9,17 L3,26 L-3,33 L-5,38 L-10,43 L-12,47 L-14,47 L-16,52 L-18,54 L-25,53 L-27,51 L-27,46 L-25,44 L-22,37 L-13,25 L-3,11 L-1,1 Z " fill="#212121" transform="translate(143,458)"/>
<path d="M0,0 L2,2 L1,13 L-3,23 L-11,33 L-19,39 L-31,44 L-39,46 L-50,50 L-57,52 L-67,57 L-75,65 L-80,75 L-83,85 L-84,96 L-91,95 L-102,87 L-110,80 L-114,74 L-121,65 L-129,58 L-139,50 L-144,47 L-151,42 L-149,38 L-149,41 L-142,43 L-141,46 L-136,48 L-123,59 L-114,68 L-110,74 L-100,85 L-91,91 L-86,92 L-86,85 L-84,76 L-81,70 L-75,60 L-65,51 L-55,47 L-37,41 L-24,37 L-15,32 L-8,24 L-3,13 Z " fill="#6A696A" transform="translate(169,273)"/>
<path d="M0,0 L1,0 L5,17 L10,26 L15,31 L18,34 L21,35 L21,37 L31,39 L39,42 L53,46 L69,54 L77,61 L83,71 L87,85 L87,93 L94,89 L98,86 L100,86 L100,84 L108,77 L112,72 L114,72 L116,67 L124,58 L126,58 L126,56 L139,46 L149,40 L150,37 L152,42 L149,43 L149,46 L140,50 L131,57 L121,66 L107,83 L101,88 L96,93 L88,96 L85,96 L84,93 L83,81 L79,72 L76,66 L70,59 L65,56 L65,54 L60,52 L29,43 L14,35 L5,24 L0,12 L-1,2 L-3,1 Z " fill="#5D5C5C" transform="translate(301,273)"/>
<path d="M0,0 L7,0 L11,5 L13,6 L15,11 L9,15 L4,16 L6,21 L14,31 L17,36 L23,44 L23,47 L27,49 L30,53 L33,58 L38,65 L38,67 L42,69 L42,72 L45,73 L48,79 L54,86 L58,93 L62,97 L65,102 L64,106 L62,103 L58,105 L50,109 L47,107 L56,104 L55,101 L59,102 L58,96 L56,96 L50,89 L46,81 L43,79 L39,72 L33,65 L27,56 L20,46 L19,43 L17,43 L11,34 L5,25 L5,23 L2,23 L1,25 L0,17 L-2,16 L-4,12 L-4,3 Z " fill="#173721" transform="translate(106,169)"/>
<path d="M0,0 L2,0 L7,6 L16,18 L16,27 L12,30 L7,32 L2,33 L-2,31 L-8,23 L-9,20 L-11,20 L-13,14 L-15,14 L-15,10 L-12,11 L-7,18 L-1,18 L4,16 L6,8 L4,8 Z " fill="#403D38" transform="translate(313,442)"/>
<path d="M0,0 L4,1 L5,2 L12,3 L12,5 L9,5 L7,9 L3,15 L3,22 L-1,23 L-8,20 L-13,14 L-16,13 L-14,8 L-7,8 L-5,3 Z " fill="#222323" transform="translate(289,269)"/>
<path d="M0,0 L1,4 L3,4 L3,11 L1,9 L1,5 L-1,5 L-3,10 L-5,10 L-7,15 L-21,34 L-28,45 L-33,50 L-39,59 L-42,63 L-46,70 L-48,70 L-49,74 L-53,78 L-56,84 L-59,83 L-56,76 L-52,70 L-50,70 L-48,66 L-44,60 L-31,42 L-23,31 L-19,26 L-16,21 L-13,17 L-12,14 L-7,9 L-3,3 L-1,3 Z " fill="#173620" transform="translate(362,186)"/>
<path d="M0,0 L2,2 L1,13 L-3,23 L-11,33 L-19,39 L-31,44 L-39,46 L-50,50 L-57,52 L-67,57 L-72,61 L-74,59 L-65,51 L-55,47 L-37,41 L-24,37 L-15,32 L-8,24 L-3,13 Z " fill="#757575" transform="translate(169,273)"/>
<path d="M0,0 L2,1 L2,9 L6,10 L9,12 L9,15 L15,15 L15,19 L13,19 L12,23 L8,24 L7,27 L3,27 L3,29 L-1,28 L-1,21 L-7,13 L-7,10 L-3,10 L-3,8 L-1,8 Z M0,10 L1,12 Z " fill="#1F1F1E" transform="translate(180,263)"/>
<path d="M0,0 L4,4 L14,17 L22,29 L29,38 L37,49 L44,58 L47,63 L55,73 L58,78 L58,82 L54,78 L48,70 L46,65 L44,65 L35,52 L25,39 L25,37 L21,36 L18,28 L15,26 L11,19 L7,16 L5,11 L0,4 L-2,3 L-1,1 Z " fill="#5A4F43" transform="translate(252,356)"/>
<path d="M0,0 L7,0 L11,5 L13,6 L15,11 L9,15 L4,16 L4,22 L2,22 L0,17 L-2,16 L-4,12 L-4,3 Z " fill="#2B2D2B" transform="translate(106,169)"/>
<path d="M0,0 L2,1 L3,5 L0,6 L0,9 L-9,13 L-18,20 L-28,29 L-42,46 L-48,51 L-53,56 L-56,55 L-54,51 L-49,49 L-49,47 L-41,40 L-37,35 L-35,35 L-33,30 L-25,21 L-23,21 L-23,19 L-10,9 L0,3 Z " fill="#5B5A5B" transform="translate(450,310)"/>
<path d="M0,0 L7,0 L14,10 L13,12 L8,17 L6,19 L3,19 L3,21 L-2,21 L-11,15 L-11,6 L-9,7 L-9,14 L-6,15 L-6,13 L-2,12 L-1,10 L3,8 L4,5 L6,5 L6,1 L0,1 Z " fill="#616161" transform="translate(189,277)"/>
<path d="M0,0 L0,3 L-1,5 L3,4 L3,7 L8,9 L14,12 L13,16 L12,18 L14,19 L13,21 L11,21 L11,23 L4,25 L6,21 L0,18 L-3,15 L-2,8 L-1,6 L-3,6 L-1,1 Z " fill="#616161" transform="translate(147,452)"/>
<path d="M0,0 L1,3 L7,8 L8,10 L17,13 L11,23 L10,20 L1,17 L1,14 L-3,13 L-4,9 L-7,11 L-5,7 Z " fill="#5C5C5B" transform="translate(274,279)"/>
<path d="M0,0 L7,1 L9,3 L9,12 L6,12 L6,16 L-2,16 L-4,15 L-4,13 L-7,12 L-5,7 L-6,5 Z " fill="#272826" transform="translate(360,169)"/>
<path d="M0,0 L1,3 L-12,20 L-22,34 L-27,41 L-30,47 L-32,47 L-32,50 L-35,51 L-39,55 L-38,50 L-25,32 L-17,21 L-4,4 Z " fill="#5A4E44" transform="translate(205,375)"/>
<path d="M0,0 L2,1 L1,5 L-9,10 L-15,17 L-19,19 L-23,21 L-27,25 L-30,32 L-32,34 L-33,31 L-35,32 L-33,27 L-24,16 L-11,6 L-4,4 L-3,1 Z " fill="#263F30" transform="translate(63,245)"/>
<path d="M0,0 L4,2 L5,5 L5,12 L3,12 L3,14 L0,16 L-7,16 L-11,12 L-12,8 L-4,6 Z " fill="#606060" transform="translate(321,456)"/>
<path d="M0,0 L3,3 L0,4 L-2,8 L-4,8 L-4,10 L-6,10 L-6,12 L-10,13 L-8,18 L2,31 L9,41 L8,44 L2,37 L-11,19 L-15,14 L-19,7 L-15,8 L-9,10 L-9,8 L-4,5 Z " fill="#4C4034" transform="translate(201,288)"/>
<path d="M0,0 L3,4 L7,19 L8,24 L8,31 L6,31 L3,26 L-1,22 L-4,21 L-6,17 L-3,17 L-3,15 L-6,14 L-2,14 L-2,12 L2,11 L3,15 L2,8 L0,4 Z " fill="#485E51" transform="translate(446,283)"/>
<path d="M0,0 L5,5 L15,19 L24,31 L27,35 L25,39 L22,34 L17,29 L11,19 L6,14 L2,7 L1,4 L-2,3 L0,2 Z " fill="#574B3F" transform="translate(203,289)"/>
<path d="M0,0 L1,0 L5,17 L10,26 L15,31 L18,34 L21,35 L21,37 L26,38 L29,41 L23,40 L14,35 L5,24 L0,12 L-1,2 L-3,1 Z " fill="#474545" transform="translate(301,273)"/>
<path d="M0,0 L20,0 L20,2 L1,3 L-6,5 L-22,11 L-25,11 L-25,9 L-19,5 L-15,5 L-15,3 Z " fill="#243C2E" transform="translate(66,280)"/>
<path d="M0,0 L2,2 L1,13 L-3,23 L-11,33 L-16,37 L-19,36 L-17,36 L-17,33 L-10,27 L-3,13 Z " fill="#545454" transform="translate(169,273)"/>
<path d="M0,0 L0,3 L-1,7 L-6,14 L-9,20 L-11,20 L-11,23 L-14,24 L-18,28 L-17,23 L-4,5 Z " fill="#6A5E51" transform="translate(184,402)"/>
<path d="M0,0 L3,0 L1,4 L-4,13 L-8,25 L-9,36 L-13,35 L-11,34 L-11,25 L-9,16 L-6,10 Z " fill="#494748" transform="translate(94,333)"/>
<path d="M0,0 L7,0 L14,10 L13,12 L10,14 L6,12 L4,13 L4,11 L0,11 L0,13 L-2,12 L-1,10 L3,8 L4,5 L6,5 L6,1 L0,1 Z " fill="#575757" transform="translate(189,277)"/>
<path d="M0,0 L12,3 L19,6 L27,8 L29,10 L29,12 L17,9 L1,4 Z " fill="#737272" transform="translate(327,311)"/>
<path d="M0,0 L5,1 L16,8 L24,15 L25,20 L23,20 L19,15 L17,14 L17,12 L12,10 L10,8 L6,7 L4,4 L0,2 Z " fill="#2B4032" transform="translate(410,249)"/>
<path d="M0,0 L16,0 L20,2 L32,4 L30,7 L14,5 L-4,4 L-4,3 L15,3 L15,1 L0,1 Z " fill="#3D5345" transform="translate(71,279)"/>
<path d="M0,0 L27,1 L27,2 L4,3 L-1,5 L-11,6 L-16,5 L-13,3 Z " fill="#415248" transform="translate(378,281)"/>
<path d="M0,0 L1,3 L8,5 L9,8 L14,10 L24,18 L22,21 L11,12 L6,9 L-1,4 Z " fill="#6A6A6A" transform="translate(19,311)"/>
<path d="M0,0 L1,3 L0,10 L4,8 L7,6 L6,10 L-2,18 L-3,21 L-5,21 L-4,9 L-1,1 Z " fill="#353C36" transform="translate(22,293)"/>
<path d="M0,0 L2,1 L3,5 L0,6 L0,9 L-9,13 L-13,16 L-20,18 L-15,13 L-4,5 L0,2 Z " fill="#656463" transform="translate(450,310)"/>
<path d="M0,0 L2,0 L2,2 L4,2 L8,8 L12,20 L14,25 L14,30 L12,29 L8,17 L8,15 L6,15 L3,7 L1,3 L-1,3 Z " fill="#2A3C30" transform="translate(436,269)"/>
<path d="M0,0 L3,3 L0,4 L-2,8 L-4,8 L-4,10 L-6,10 L-6,12 L-12,13 L-13,15 L-17,11 L-19,7 L-15,8 L-9,10 L-9,8 L-4,5 Z " fill="#2D261E" transform="translate(201,288)"/>
<path d="M0,0 L3,2 L-1,7 L-2,10 L-4,10 L-6,14 L-13,24 L-15,24 L-13,18 L-7,9 L-5,8 L-2,3 Z " fill="#5D5045" transform="translate(222,350)"/>
<path d="M0,0 L5,4 L9,10 L14,17 L14,23 L16,23 L18,28 L12,27 L12,18 L9,18 L7,11 L2,7 L0,4 Z M11,27 Z " fill="#4A534E" transform="translate(169,246)"/>
<path d="M0,0 L0,3 L-1,5 L-13,10 L-24,11 L-21,9 L-19,9 L-19,7 L-6,3 Z " fill="#6A6A6A" transform="translate(151,307)"/>
<path d="M0,0 L1,2 L-1,9 L-3,12 L-6,12 L-8,16 L-10,19 L-13,18 L-2,2 Z " fill="#574D45" transform="translate(250,312)"/>
<path d="M0,0 L2,1 L3,7 L6,7 L5,11 L1,19 L-1,19 L-2,22 L-2,13 L0,7 Z " fill="#45564A" transform="translate(105,185)"/>
<path d="M0,0 L1,0 L2,5 L5,6 L5,9 L14,12 L13,16 L11,16 L11,14 L5,12 L0,7 L0,5 L-3,5 L-1,1 Z " fill="#46392F" transform="translate(270,287)"/>
<path d="M0,0 L4,1 L15,16 L15,18 L17,18 L18,21 L16,23 L6,9 L2,4 L2,2 L0,2 Z " fill="#504437" transform="translate(241,376)"/>
<path d="M0,0 L2,0 L1,3 L-4,3 L-1,8 L-1,10 L8,11 L6,14 L-1,13 L-7,5 L-8,1 Z " fill="#2D2927" transform="translate(313,461)"/>
<path d="M0,0 L5,3 L9,9 L11,12 L11,16 L9,16 L9,14 L6,15 L3,7 L0,4 Z " fill="#294231" transform="translate(123,184)"/>
<path d="M0,0 L9,5 L14,6 L14,4 L16,4 L15,8 L11,14 L8,14 L10,8 L5,7 L0,2 Z " fill="#382E25" transform="translate(151,456)"/>
<path d="M0,0 L5,0 L4,2 L-4,4 L-16,4 L-20,3 L-20,1 Z " fill="#283E33" transform="translate(132,284)"/>
<path d="M0,0 L3,1 L8,8 L14,8 L19,6 L20,10 L17,11 L17,9 L8,11 L7,13 L6,10 L4,10 L2,4 L0,4 Z " fill="#594C40" transform="translate(298,452)"/>
<path d="M0,0 L6,2 L19,10 L19,12 L14,11 L8,7 L0,3 Z " fill="#2A3E31" transform="translate(390,237)"/>
<path d="M0,0 L2,1 L1,5 L-9,10 L-14,11 L-16,10 L-11,6 L-4,4 L-3,1 Z " fill="#44564A" transform="translate(63,245)"/>
<path d="M0,0 L1,2 L-4,10 L-5,14 L-11,20 L-13,20 L-12,16 Z " fill="#9C886D" transform="translate(191,397)"/>
<path d="M0,0 L1,2 L3,2 L4,7 L4,14 L2,14 L-1,9 L-6,4 L-6,2 L-2,4 L-1,5 Z " fill="#393D39" transform="translate(450,300)"/>
<path d="M0,0 L4,2 L13,11 L16,16 L15,19 L6,8 L0,2 Z " fill="#505050" transform="translate(42,330)"/>
<path d="M0,0 L2,0 L5,8 L8,9 L3,14 L0,13 L1,4 L-1,7 Z " fill="#3D5346" transform="translate(21,290)"/>
<path d="M0,0 L0,3 L-2,7 L-10,14 L-13,13 L-11,9 L-6,7 L-6,5 Z " fill="#737373" transform="translate(407,352)"/>
<path d="M0,0 L2,2 L1,13 L-3,21 L-5,22 L-1,6 Z " fill="#4D4D4E" transform="translate(169,273)"/>
<path d="M0,0 L3,1 L3,3 L0,5 L-3,12 L-5,14 L-6,11 L-8,12 L-6,7 Z " fill="#354D40" transform="translate(36,265)"/>
<path d="M0,0 L1,2 L-1,5 L-1,10 L3,15 L2,18 L-3,12 L-3,9 L-5,9 L-4,3 Z " fill="#4B3828" transform="translate(240,359)"/>
<path d="M0,0 L2,0 L12,14 L10,16 L2,5 L0,4 Z " fill="#524538" transform="translate(211,333)"/>
<path d="M0,0 L2,1 L-11,13 L-13,12 L-11,8 L-8,5 L-6,5 L-6,3 Z " fill="#636162" transform="translate(433,326)"/>
<path d="M0,0 L1,2 L0,4 L2,4 L3,1 L5,4 L2,7 L-1,12 L-5,13 L-2,8 L-3,7 L-3,4 Z " fill="#9E886E" transform="translate(207,370)"/>
<path d="M0,0 L4,1 L2,3 L0,5 L-11,8 L-11,5 L-8,3 Z " fill="#878686" transform="translate(128,315)"/>
<path d="M0,0 L9,2 L11,3 L14,9 L6,7 L3,5 L3,2 L0,2 Z " fill="#223B2B" transform="translate(423,287)"/>
<path d="M0,0 L2,0 L1,4 L-8,16 L-9,13 L-5,7 Z " fill="#493C2E" transform="translate(279,304)"/>
<path d="M0,0 L4,1 L2,4 L-1,6 L0,8 L-5,12 L-8,13 L-6,8 Z " fill="#49594F" transform="translate(329,206)"/>
<path d="M0,0 L1,4 L-1,19 L-5,18 L-3,17 L-3,8 L-1,1 Z " fill="#434142" transform="translate(86,350)"/>
<path d="M0,0 L7,4 L7,6 L12,7 L15,10 L9,9 L0,4 L-2,1 Z " fill="#626262" transform="translate(315,304)"/>
<path d="M0,0 L3,0 L3,8 L9,6 L10,8 L4,11 L1,11 L0,8 Z " fill="#636162" transform="translate(385,358)"/>
<path d="M0,0 L5,0 L1,6 L-4,10 L-7,11 L-5,6 Z " fill="#3F4C43" transform="translate(352,175)"/>
<path d="M0,0 L0,3 L0,8 L-7,14 L-9,14 L-7,9 Z " fill="#D7D1CC" transform="translate(200,416)"/>
<path d="M0,0 L4,4 L8,11 L10,15 L3,12 L2,8 L1,8 Z " fill="#43544A" transform="translate(372,212)"/>
<path d="M0,0 L1,2 L-1,9 L-5,15 L-8,15 L-6,10 Z " fill="#515F54" transform="translate(100,208)"/>
<path d="M0,0 L5,5 L7,10 L4,10 L3,7 L-1,6 Z " fill="#584C41" transform="translate(274,386)"/>
<path d="M0,0 L6,5 L11,12 L7,11 L1,6 Z " fill="#585858" transform="translate(58,347)"/>
<path d="M0,0 L1,0 L1,5 L3,5 L3,11 L0,14 L-2,14 L-2,12 L-6,12 L-5,10 L0,11 Z " fill="#DBDADB" transform="translate(85,358)"/>
<path d="M0,0 L4,2 L4,5 L7,6 L6,8 L3,7 L1,5 L-4,6 L-1,1 Z " fill="#9C876E" transform="translate(246,354)"/>
<path d="M0,0 L3,1 L3,8 L2,6 L-2,5 L-7,6 L-4,3 Z " fill="#B7BFBB" transform="translate(166,271)"/>
<path d="M0,0 L1,2 L0,4 L2,4 L0,10 L-3,10 L-6,10 L-4,5 L-2,5 Z " fill="#3B4F42" transform="translate(341,190)"/>
<path d="M0,0 L1,2 L-2,7 L-6,15 L-9,14 L-7,9 Z " fill="#4A4A4A" transform="translate(128,486)"/>
<path d="M0,0 L1,3 L-7,11 L-9,10 L-9,5 L-7,6 Z " fill="#2A3932" transform="translate(28,299)"/>
<path d="M0,0 L1,4 L-3,10 L-8,12 L-6,8 Z " fill="#4D5F55" transform="translate(297,251)"/>
<path d="M0,0 L4,1 L7,6 L7,8 L5,8 L4,11 L2,6 L0,5 Z " fill="#384D41" transform="translate(365,203)"/>
<path d="M0,0 L3,3 L5,8 L5,19 L4,19 L0,3 Z " fill="#383637" transform="translate(382,345)"/>
<path d="M0,0 L2,0 L2,2 L-4,6 L-8,9 L-10,7 L-3,1 Z " fill="#656465" transform="translate(105,325)"/>
<path d="M0,0 L1,2 L4,3 L1,3 L-1,7 L-5,11 L-7,11 L-5,7 Z " fill="#514637" transform="translate(266,290)"/>
<path d="M0,0 L1,2 L-1,9 L-3,9 L-4,13 L-6,12 L-6,10 L-5,6 L-3,6 L-1,1 Z " fill="#3E5144" transform="translate(315,226)"/>
<path d="M0,0 L8,2 L4,4 L-1,12 L-2,10 L-1,5 L2,5 Z " fill="#303030" transform="translate(148,471)"/>
<path d="M0,0 L8,0 L4,4 L2,4 L2,6 L-3,9 L-6,9 L0,4 Z " fill="#768279" transform="translate(38,290)"/>
<path d="M0,0 L1,4 L-2,7 L-4,6 L-5,11 L-7,10 L-7,8 L-7,5 L-4,3 L-2,3 Z " fill="#7D6F62" transform="translate(170,425)"/>
<path d="M0,0 L1,3 L-3,8 L-6,8 L-5,2 Z " fill="#2C4335" transform="translate(95,222)"/>
<path d="M0,0 L1,2 L-1,9 L-3,12 L-5,11 L-4,8 L-4,5 Z " fill="#776B5A" transform="translate(250,312)"/>
<path d="M0,0 L0,3 L-5,8 L-4,13 L-8,12 L-7,7 Z " fill="#BDC3C1" transform="translate(28,302)"/>
<path d="M0,0 L0,3 L-1,7 L-5,11 L-7,11 L-5,6 Z " fill="#6A5F56" transform="translate(184,402)"/>
<path d="M0,0 L1,2 L2,10 L-1,11 L-4,11 L-1,1 Z " fill="#354B3E" transform="translate(27,277)"/>
<path d="M0,0 L1,0 L3,9 L2,13 L0,12 L-1,2 L-3,1 Z " fill="#525353" transform="translate(301,273)"/>
<path d="M0,0 L2,1 L-2,8 L-6,7 L-6,9 L-8,8 L-3,3 Z " fill="#48564F" transform="translate(45,256)"/>
<path d="M0,0 L2,1 L-5,11 L-7,11 L-5,5 Z " fill="#45372B" transform="translate(198,416)"/>
<path d="M0,0 L4,2 L1,5 L-6,8 L-8,6 L1,3 Z " fill="#223429" transform="translate(161,270)"/>
<path d="M0,0 L3,1 L2,3 L0,3 L0,5 L-7,7 L-5,2 Z " fill="#585858" transform="translate(158,470)"/>
<path d="M0,0 L4,2 L7,4 L8,9 L5,7 L5,5 L1,4 L-1,1 Z " fill="#736C60" transform="translate(310,437)"/>
<path d="M0,0 L3,1 L4,4 L2,9 L1,7 L-3,5 L-2,3 L1,5 Z " fill="#978472" transform="translate(296,445)"/>
<path d="M0,0 L2,1 L3,5 L0,6 L0,9 L-6,11 L-2,7 L-2,4 L0,2 Z " fill="#8E8D8B" transform="translate(450,310)"/>
<path d="M0,0 L6,1 L2,8 L-1,7 L2,1 Z " fill="#424041" transform="translate(285,291)"/>
<path d="M0,0 L4,4 L7,8 L6,10 L1,7 L0,4 Z " fill="#4B584E" transform="translate(119,176)"/>
<path d="M0,0 L9,1 L7,4 L0,3 Z " fill="#404040" transform="translate(312,471)"/>
<path d="M0,0 L1,4 L-1,8 L-4,8 L-4,10 L-6,10 L-4,6 Z " fill="#D2D0CC" transform="translate(178,446)"/>
<path d="M0,0 L1,2 L-2,9 L-4,10 L-5,6 Z " fill="#A48F72" transform="translate(266,295)"/>
<path d="M0,0 L2,0 L1,4 L-2,6 L-6,4 Z " fill="#48564E" transform="translate(78,236)"/>
<path d="M0,0 L1,2 L-5,10 L-6,8 L-3,2 Z " fill="#493D30" transform="translate(164,431)"/>
<path d="M0,0 L0,3 L0,5 L1,5 L1,10 L-3,7 L-4,3 L-2,1 Z " fill="#EBE8E2" transform="translate(310,425)"/>
<path d="M0,0 L1,3 L-4,9 L-6,7 L-3,2 Z " fill="#564B3F" transform="translate(205,375)"/>
<path d="M0,0 L2,3 L1,5 L-1,5 L-1,8 L-5,9 L-3,4 Z " fill="#9A846B" transform="translate(228,346)"/>
<path d="M0,0 L5,2 L5,4 L8,3 L8,5 L5,6 L3,5 L2,7 Z " fill="#8C7B6C" transform="translate(276,299)"/>
<path d="M0,0 L2,0 L1,4 L-5,8 L-7,6 L-2,2 L0,2 Z " fill="#233B2B" transform="translate(37,291)"/>
<path d="M0,0 L4,1 L0,5 L-5,5 Z " fill="#515E54" transform="translate(52,251)"/>
<path d="M0,0 L2,0 L3,8 L-2,3 L-2,1 Z M3,4 Z " fill="#9D8871" transform="translate(275,414)"/>
<path d="M0,0 L2,0 L0,5 L-5,9 L-3,3 Z " fill="#3E3C3D" transform="translate(419,338)"/>
<path d="M0,0 L5,4 L5,6 L8,7 L5,7 L4,10 L1,4 Z " fill="#56483A" transform="translate(229,326)"/>
<path d="M0,0 L2,3 L-3,8 L-5,8 L-3,3 Z " fill="#D7D4D2" transform="translate(267,325)"/>
<path d="M0,0 L6,1 L4,3 L-3,3 L-6,1 Z " fill="#3F5247" transform="translate(411,282)"/>
<path d="M0,0 L2,0 L2,3 L8,7 L4,8 L3,5 L0,5 Z " fill="#283B30" transform="translate(302,266)"/>
<path d="M0,0 L1,2 L-3,9 L-5,9 L-3,2 Z " fill="#293F32" transform="translate(302,246)"/>
<path d="M0,0 L2,4 L-2,8 L-4,8 L-3,3 Z " fill="#44362B" transform="translate(321,452)"/>
<path d="M0,0 L3,2 L3,4 L5,4 L7,9 L3,7 L0,3 Z " fill="#4A3B2E" transform="translate(291,442)"/>
<path d="M0,0 L1,3 L-4,10 L-5,6 Z " fill="#493E31" transform="translate(223,381)"/>
<path d="M0,0 L1,2 L-1,7 L1,7 L0,11 L-3,7 L-2,3 Z " fill="#D6D3CD" transform="translate(252,345)"/>
<path d="M0,0 L4,1 L0,6 L-1,8 L-3,8 L-2,4 Z " fill="#E8E9E8" transform="translate(30,300)"/>
<path d="M0,0 L1,0 L3,8 L0,7 L0,5 L-3,5 L-1,1 Z " fill="#27221B" transform="translate(270,287)"/>
<path d="M0,0 L2,0 L1,3 L-4,5 L-7,5 L-7,3 Z " fill="#223A2C" transform="translate(48,286)"/>
<path d="M0,0 L2,1 L0,6 L-3,8 L-3,3 Z " fill="#EDF0ED" transform="translate(316,220)"/>
<path d="M0,0 L1,0 L1,10 L-3,9 L-1,8 Z " fill="#373536" transform="translate(84,359)"/>
<path d="M0,0 L1,2 L3,3 L-2,6 L-6,8 L-2,2 Z " fill="#DBDADB" transform="translate(423,337)"/>
<path d="M0,0 L5,5 L4,9 L1,6 Z " fill="#9A846A" transform="translate(228,328)"/>
<path d="M0,0 L2,1 L0,5 L-7,7 L-2,2 Z " fill="#7A7879" transform="translate(437,321)"/>
<path d="M0,0 L1,4 L-3,6 L-4,10 L-6,9 L-2,3 Z " fill="#C7C2BE" transform="translate(276,312)"/>
<path d="M0,0 L7,2 L10,5 L4,4 L0,2 Z " fill="#525252" transform="translate(320,309)"/>
<path d="M0,0 L4,2 L7,2 L6,7 L0,2 Z " fill="#26302A" transform="translate(444,302)"/>
<path d="M0,0 L4,1 L8,4 L4,7 Z " fill="#3D3C3C" transform="translate(182,295)"/>
<path d="M0,0 L5,5 L5,8 L1,6 L1,4 L-2,3 L0,2 Z " fill="#655E54" transform="translate(203,289)"/>
<path d="M0,0 L2,0 L2,2 L6,3 L-2,3 L-8,2 L-8,1 Z " fill="#43534B" transform="translate(110,285)"/>
<path d="M0,0 L6,1 L6,3 L9,4 L7,5 L1,3 Z " fill="#223528" transform="translate(311,274)"/>
<path d="M0,0 L5,4 L4,8 L2,5 L-2,4 Z " fill="#13281A" transform="translate(166,267)"/>
<path d="M0,0 L1,4 L-4,8 L-4,5 Z " fill="#5A5A5A" transform="translate(134,478)"/>
<path d="M0,0 L2,0 L2,5 L-1,5 L-1,7 L-3,7 L-1,1 Z " fill="#342F2C" transform="translate(149,450)"/>
<path d="M0,0 L4,2 L-1,7 L-1,1 Z " fill="#EEEDE8" transform="translate(181,400)"/>
<path d="M0,0 L4,2 L6,5 L6,8 L4,8 L0,2 Z " fill="#483B31" transform="translate(268,380)"/>
<path d="M0,0 L3,0 L1,7 L-1,8 L-2,3 Z " fill="#604830" transform="translate(241,355)"/>
<path d="M0,0 L2,1 L-3,8 L-5,8 L-3,2 L0,2 Z " fill="#3B2918" transform="translate(237,331)"/>
<path d="M0,0 L1,2 L-1,7 L-5,8 L-3,4 Z " fill="#947E67" transform="translate(240,330)"/>
<path d="M0,0 L1,2 L5,2 L4,6 L3,3 L1,3 L1,5 L-1,5 L-2,1 Z " fill="#867866" transform="translate(210,330)"/>
<path d="M0,0 L2,0 L1,3 L-4,5 L-8,4 Z " fill="#1C3323" transform="translate(149,278)"/>
<path d="M0,0 L5,5 L5,8 L1,6 Z " fill="#4D5B51" transform="translate(146,214)"/>
<path d="M0,0 L4,1 L3,6 L1,6 L-1,3 L-4,1 Z " fill="#474E4B" transform="translate(362,184)"/>
<path d="M0,0 L1,4 L0,8 L-4,6 Z " fill="#6A5F52" transform="translate(158,437)"/>
<path d="M0,0 L2,1 L2,4 L6,6 L5,8 L3,6 L1,7 L-1,5 Z " fill="#948166" transform="translate(265,378)"/>
<path d="M0,0 L5,1 L1,5 L-2,4 Z " fill="#878586" transform="translate(396,361)"/>
<path d="M0,0 L1,2 L0,8 L-1,6 L-3,6 L-3,8 L-5,7 Z " fill="#998265" transform="translate(234,338)"/>
<path d="M0,0 L1,4 L-3,8 L-5,8 L-5,6 L-3,6 L-1,1 Z " fill="#D3CECA" transform="translate(258,337)"/>
<path d="M0,0 L5,1 L6,7 L1,2 Z " fill="#9A856D" transform="translate(205,323)"/>
<path d="M0,0 L3,2 L2,5 L2,8 L-2,3 L-1,1 Z " fill="#756657" transform="translate(221,314)"/>
<path d="M0,0 L1,0 L3,6 L6,9 L1,9 L0,8 Z " fill="#DCDBD9" transform="translate(16,309)"/>
<path d="M0,0 L3,4 L2,7 L-2,8 L-2,6 L0,6 Z " fill="#3C4640" transform="translate(288,263)"/>
<path d="M0,0 L4,2 L4,5 L3,4 L2,6 L-1,5 Z " fill="#43554B" transform="translate(161,236)"/>
<path d="M0,0 L7,4 L7,6 L3,5 L0,2 Z " fill="#223629" transform="translate(383,230)"/>
<path d="M0,0 L4,1 L-2,6 L-1,1 Z " fill="#E7E9E6" transform="translate(83,228)"/>
<path d="M0,0 L2,1 L2,4 L-1,7 L-4,6 Z " fill="#BABABA" transform="translate(129,505)"/>
<path d="M0,0 L3,1 L1,6 L-2,6 Z " fill="#393739" transform="translate(161,464)"/>
<path d="M0,0 L1,4 L-2,7 L-4,7 L-2,2 L0,2 Z " fill="#D5D0CB" transform="translate(171,456)"/>
<path d="M0,0 L5,1 L10,3 L10,4 L2,3 Z " fill="#8B7865" transform="translate(155,458)"/>
<path d="M0,0 L0,3 L0,8 L-3,8 L-1,1 Z M-4,8 Z " fill="#E2DEDC" transform="translate(200,416)"/>
<path d="M0,0 L1,2 L-4,7 L-3,2 Z " fill="#53493D" transform="translate(178,412)"/>
<path d="M0,0 L1,0 L1,5 L-2,8 L-3,4 Z " fill="#5F5142" transform="translate(217,388)"/>
<path d="M0,0 L1,2 L0,6 L-5,8 L-3,4 Z " fill="#938069" transform="translate(199,386)"/>
<path d="M0,0 L1,3 L3,3 L2,6 L-3,5 Z " fill="#64584D" transform="translate(234,365)"/>
<path d="M0,0 L2,0 L2,2 L4,3 L3,5 L0,5 L-2,1 Z " fill="#D5CEC9" transform="translate(234,327)"/>
<path d="M0,0 L4,1 L-3,4 L-7,3 Z " fill="#D4D2D3" transform="translate(132,317)"/>
<path d="M0,0 L5,5 L2,7 L-1,2 Z " fill="#524938" transform="translate(198,314)"/>
<path d="M0,0 L2,1 L3,5 L-1,7 Z " fill="#E3E4E1" transform="translate(448,308)"/>
<path d="M0,0 L1,2 L-4,9 L-5,7 L-2,2 Z " fill="#45392B" transform="translate(255,307)"/>
<path d="M0,0 L5,5 L4,8 L0,3 Z " fill="#3F372A" transform="translate(193,308)"/>
<path d="M0,0 L2,3 L-2,6 L-5,5 L-3,5 L-3,2 Z " fill="#5E5E5E" transform="translate(155,304)"/>
<path d="M0,0 L5,3 L4,7 L0,3 Z " fill="#534636" transform="translate(206,295)"/>
<path d="M0,0 L6,0 L7,3 L2,3 Z " fill="#263D30" transform="translate(415,284)"/>
<path d="M0,0 L9,2 L6,4 L1,3 Z " fill="#2B3D31" transform="translate(321,279)"/>
<path d="M0,0 L2,2 L1,7 L-3,3 L-2,1 L0,2 Z " fill="#DFDFDE" transform="translate(447,278)"/>
<path d="M0,0 L2,0 L2,7 L1,5 L-2,4 Z " fill="#D5D7D9" transform="translate(167,272)"/>
<path d="M0,0 L1,2 L-2,7 L-5,7 Z " fill="#575757" transform="translate(128,486)"/>
<path d="M0,0 L5,5 L4,7 L1,5 L1,3 L-1,2 Z " fill="#454544" transform="translate(322,452)"/>
<path d="M0,0 L5,5 L5,8 L0,3 Z " fill="#94816C" transform="translate(283,403)"/>
<path d="M0,0 L3,2 L2,7 L-1,6 Z " fill="#7A6B5A" transform="translate(274,386)"/>
<path d="M0,0 L2,4 L-1,5 L-2,7 L-4,7 L-2,2 Z " fill="#CFCFCB" transform="translate(233,371)"/>
<path d="M0,0 L1,2 L-2,7 L-4,7 L-2,1 Z " fill="#4E4337" transform="translate(211,367)"/>
<path d="M0,0 L1,4 L-1,4 L-2,6 L-5,6 L-4,3 Z " fill="#695B50" transform="translate(219,356)"/>
<path d="M0,0 L1,2 L-4,8 L-5,6 Z " fill="#D2D2D2" transform="translate(97,334)"/>
<path d="M0,0 L3,3 L-1,5 L-2,7 L-3,4 L-1,4 Z " fill="#F1EFEE" transform="translate(226,311)"/>
<path d="M0,0 L1,4 L0,6 L-4,6 L-3,3 L-1,3 Z " fill="#E4E0E0" transform="translate(285,301)"/>
<path d="M0,0 L4,1 L-1,3 L-2,5 L-2,1 Z " fill="#2D261D" transform="translate(190,298)"/>
<path d="M0,0 L1,3 L3,2 L1,6 L-1,7 L-2,3 Z " fill="#898989" transform="translate(164,291)"/>
<path d="M0,0 L7,0 L5,1 L5,3 L0,2 Z " fill="#394D40" transform="translate(327,282)"/>
<path d="M0,0 L1,3 L0,7 L-1,10 L-3,7 Z " fill="#213C2A" transform="translate(317,225)"/>
<path d="M0,0 L4,0 L6,7 L1,2 Z " fill="#E7E9E8" transform="translate(378,221)"/>
<path d="M0,0 L5,0 L2,4 L-2,4 Z " fill="#3A3A39" transform="translate(352,175)"/>
<path d="M0,0 L3,0 L4,2 L8,4 L2,4 Z " fill="#6A6A6A" transform="translate(343,509)"/>
<path d="M0,0 L3,0 L1,6 L-1,7 L-1,1 Z " fill="#39393B" transform="translate(147,476)"/>
<path d="M0,0 L5,5 L4,7 L0,4 Z " fill="#958068" transform="translate(289,411)"/>
<path d="M0,0 L1,4 L-1,7 L-4,7 L-2,3 Z " fill="#81776C" transform="translate(207,370)"/>
<path d="M0,0 L2,1 L-3,5 L-5,4 L-3,1 Z " fill="#595959" transform="translate(402,358)"/>
<path d="M0,0 L2,4 L0,6 L-3,6 L-3,4 L-1,4 Z " fill="#544025" transform="translate(231,337)"/>
<path d="M0,0 L4,1 L4,4 L1,6 Z " fill="#4B494A" transform="translate(198,285)"/>
<path d="M0,0 L2,1 L2,4 L-1,5 L-5,3 Z " fill="#536359" transform="translate(70,241)"/>
<path d="M0,0 L5,2 L6,6 L2,4 Z " fill="#D0D7D4" transform="translate(384,228)"/>
<path d="M0,0 L0,3 L0,7 L-4,7 L-2,2 Z " fill="#57615A" transform="translate(320,219)"/>
<path d="M0,0 L5,5 L5,7 L1,6 Z " fill="#46574C" transform="translate(141,207)"/>
<path d="M0,0 L2,3 L-4,7 L-2,2 Z " fill="#CCCACC" transform="translate(166,463)"/>
<path d="M0,0 L2,0 L1,3 L-6,2 L-6,1 Z " fill="#3D332A" transform="translate(313,461)"/>
<path d="M0,0 L1,4 L-2,7 L-2,3 Z " fill="#967F68" transform="translate(170,425)"/>
<path d="M0,0 L6,0 L4,4 Z " fill="#EFECE8" transform="translate(273,384)"/>
<path d="M0,0 L3,0 L2,4 L-2,4 L-2,2 L0,2 Z " fill="#594C3D" transform="translate(253,339)"/>
<path d="M0,0 L3,2 L1,6 L-2,3 L-1,1 Z " fill="#756758" transform="translate(211,300)"/>
<path d="M0,0 L1,2 L1,8 L-2,7 Z " fill="#4B5A50" transform="translate(27,277)"/>
<path d="M0,0 L1,2 L-1,7 L-3,7 L-2,2 Z " fill="#1B3024" transform="translate(30,275)"/>
<path d="M0,0 L3,1 L2,6 L0,5 Z " fill="#3D4D42" transform="translate(178,259)"/>
<path d="M0,0 L3,3 L2,5 L-2,4 L-2,2 L0,2 Z " fill="#415449" transform="translate(166,241)"/>
<path d="M0,0 L0,3 L-1,6 L-5,6 L-5,4 Z " fill="#48584C" transform="translate(85,230)"/>
<path d="M0,0 L4,4 L4,6 L2,6 L1,8 Z " fill="#5E6D65" transform="translate(372,212)"/>
<path d="M0,0 L4,2 L6,6 L4,6 L3,4 L0,3 Z " fill="#38453B" transform="translate(128,191)"/>
<path d="M0,0 L1,4 L-3,6 L-1,1 Z " fill="#575757" transform="translate(138,472)"/>
<path d="M0,0 L1,2 L-3,6 L-2,1 Z " fill="#4E4137" transform="translate(169,424)"/>
<path d="M0,0 L4,3 L4,6 L2,6 L0,3 Z " fill="#4A3C30" transform="translate(294,415)"/>
<path d="M0,0 L1,4 L-3,6 L-1,1 Z " fill="#D5CFD0" transform="translate(219,390)"/>
<path d="M0,0 Z M-2,1 L1,2 L2,7 L-2,3 Z " fill="#9E876C" transform="translate(219,337)"/>
<path d="M0,0 L3,0 L1,4 L-2,3 Z " fill="#5C5B5B" transform="translate(94,333)"/>
<path d="M0,0 L5,0 L6,2 L4,4 Z " fill="#747374" transform="translate(37,328)"/>
<path d="M0,0 L1,3 L4,4 L4,6 L-1,4 Z " fill="#5C5B59" transform="translate(19,311)"/>
<path d="M0,0 L2,0 L4,5 L0,4 Z " fill="#DEDCDB" transform="translate(20,310)"/>
<path d="M0,0 L6,1 L7,4 L2,2 Z " fill="#647068" transform="translate(426,291)"/>
<path d="M0,0 L2,3 L0,5 L-3,6 L-1,1 Z " fill="#535E56" transform="translate(31,271)"/>
<path d="M0,0 L1,3 L-2,7 L-3,3 Z " fill="#1E3125" transform="translate(292,260)"/>
<path d="M0,0 L6,0 L6,4 L1,2 Z " fill="#C7CEC8" transform="translate(419,252)"/>
<path d="M0,0 L5,1 L4,4 L0,2 Z " fill="#263B2C" transform="translate(410,249)"/>
<path d="M0,0 L3,2 L-2,5 L-4,5 L-4,3 L-1,3 Z " fill="#E7E8E7" transform="translate(69,239)"/>
<path d="M0,0 L1,3 L-4,7 L-2,2 Z " fill="#1F3124" transform="translate(323,217)"/>
<path d="M0,0 L1,2 L-3,6 L-2,1 Z " fill="#283B2F" transform="translate(336,199)"/>
<path d="M0,0 L3,0 L3,2 L1,2 L0,5 L-2,1 Z " fill="#DFE6E2" transform="translate(336,193)"/>
<path d="M0,0 L1,2 L-3,6 L-2,1 Z " fill="#443B2C" transform="translate(179,442)"/>
<path d="M0,0 L4,3 L3,5 L0,4 Z " fill="#63584D" transform="translate(292,411)"/>
<path d="M0,0 L2,0 L0,5 L-2,5 L-1,1 Z " fill="#4A3B30" transform="translate(206,404)"/>
<path d="M0,0 L4,4 L2,4 L1,6 Z " fill="#6B696A" transform="translate(58,347)"/>
<path d="M0,0 L1,3 L0,6 L-3,6 L-1,2 Z " fill="#917F67" transform="translate(244,324)"/>
<path d="M0,0 L1,2 L3,2 L2,6 L0,5 Z " fill="#1F231F" transform="translate(19,304)"/>
<path d="M0,0 L5,1 L4,4 L2,4 Z " fill="#48594E" transform="translate(440,300)"/>
<path d="M0,0 L4,0 L3,4 L1,4 Z " fill="#2A231F" transform="translate(280,299)"/>
<path d="M0,0 L1,4 L-3,5 L-1,1 Z " fill="#655B4F" transform="translate(262,296)"/>
<path d="M0,0 L2,0 L1,4 L-2,5 Z " fill="#AE9B7E" transform="translate(201,294)"/>
<path d="M0,0 L1,2 L-3,6 L-2,1 Z " fill="#0F3117" transform="translate(317,249)"/>
<path d="M0,0 L2,1 L2,4 L-1,5 L-2,3 Z " fill="#23412D" transform="translate(167,245)"/>
<path d="M0,0 L4,1 L3,3 L-1,3 Z " fill="#233B2A" transform="translate(65,245)"/>
<path d="M0,0 L2,4 L1,6 L-2,3 L-2,1 Z " fill="#D9E0DD" transform="translate(171,243)"/>
<path d="M0,0 L2,4 L1,6 L-1,6 Z " fill="#244333" transform="translate(374,218)"/>
<path d="M0,0 L4,4 L3,6 L-1,4 Z " fill="#3F4E43" transform="translate(134,197)"/>
<path d="M0,0 L3,2 L3,6 L1,6 Z " fill="#213526" transform="translate(123,184)"/>
<path d="M0,0 L3,1 L3,6 L1,5 Z " fill="#4C4234" transform="translate(303,459)"/>
<path d="M0,0 L4,1 L3,5 L3,3 L1,3 Z " fill="#98836A" transform="translate(255,391)"/>
<path d="M0,0 L4,2 L3,5 L0,2 Z " fill="#42362A" transform="translate(239,372)"/>
<path d="M0,0 L3,2 L2,6 L0,2 Z " fill="#CDC5C5" transform="translate(219,347)"/>
<path d="M0,0 L5,2 L4,4 L0,2 Z " fill="#757575" transform="translate(379,342)"/>
<path d="M0,0 L3,0 L1,4 L-1,3 Z " fill="#5E5C5D" transform="translate(421,335)"/>
<path d="M0,0 L2,1 L-1,4 L-4,3 Z " fill="#535353" transform="translate(441,320)"/>
<path d="M0,0 L1,2 L0,5 L-3,5 L-1,1 Z " fill="#948168" transform="translate(266,295)"/>
<path d="M0,0 L5,1 L3,2 L3,4 L1,3 Z " fill="#4B3E30" transform="translate(192,296)"/>
<path d="M0,0 L0,3 L-1,5 L-3,5 L-2,1 Z " fill="#213328" transform="translate(310,235)"/>
<path d="M0,0 L4,0 L4,2 L-1,3 Z " fill="#223E2A" transform="translate(81,235)"/>
<path d="M0,0 L2,4 L-1,5 L-1,1 Z " fill="#2E2922" transform="translate(321,452)"/>
<path d="M0,0 L3,0 L1,5 L0,5 Z " fill="#9B8871" transform="translate(187,425)"/>
<path d="M0,0 L4,2 L1,4 Z " fill="#57493A" transform="translate(263,404)"/>
<path d="M0,0 L2,0 L0,5 L-1,1 Z " fill="#9C896E" transform="translate(215,364)"/>
<path d="M0,0 L4,4 L1,4 Z " fill="#493C2B" transform="translate(229,326)"/>
<path d="M0,0 L3,1 L1,3 L-3,2 Z " fill="#777878" transform="translate(442,318)"/>
<path d="M0,0 L1,4 L-2,6 L-1,2 Z " fill="#DFD9D8" transform="translate(276,312)"/>
<path d="M0,0 L1,2 L4,3 L1,3 L0,5 L-1,1 Z " fill="#625C4F" transform="translate(266,290)"/>
<path d="M0,0 L2,0 L1,3 L-4,3 Z " fill="#DEE3DF" transform="translate(150,281)"/>
<path d="M0,0 L2,3 L0,5 L0,3 L-2,2 Z " fill="#EEEEEE" transform="translate(126,484)"/>
<path d="M0,0 L3,1 L3,5 L1,5 Z " fill="#615B51" transform="translate(301,457)"/>
<path d="M0,0 L3,0 L2,3 L-1,3 Z " fill="#5C4F40" transform="translate(179,440)"/>
<path d="M0,0 L3,2 L0,4 Z " fill="#9E886B" transform="translate(201,383)"/>
<path d="M0,0 L1,3 L-2,5 L-1,1 Z " fill="#433522" transform="translate(205,375)"/>
<path d="M0,0 L2,1 L1,4 L-2,3 L-1,1 Z " fill="#6A5E4E" transform="translate(252,356)"/>
<path d="M0,0 L3,2 L2,5 L0,3 Z " fill="#403F40" transform="translate(55,344)"/>
<path d="M0,0 L3,1 L3,3 L0,3 Z M-1,3 Z " fill="#DAD5D3" transform="translate(211,337)"/>
<path d="M0,0 L3,3 L0,4 L-1,2 Z " fill="#DDDAD6" transform="translate(195,314)"/>
<path d="M0,0 L2,0 L1,4 L-1,4 Z " fill="#46382F" transform="translate(279,304)"/>
<path d="M0,0 L2,3 L-2,4 Z " fill="#656565" transform="translate(162,296)"/>
<path d="M0,0 L2,3 L-2,4 Z " fill="#3A3022" transform="translate(197,293)"/>
<path d="M0,0 L4,2 L3,4 L1,4 Z " fill="#293E32" transform="translate(161,270)"/>
<path d="M0,0 L1,2 L3,2 L2,4 L-1,4 Z " fill="#3A4A3E" transform="translate(138,203)"/>
<path d="M0,0 L2,0 L1,4 L-1,3 Z " fill="#F2F7F2" transform="translate(103,192)"/>
<path d="M0,0 L2,0 L0,4 L-1,1 Z " fill="#483B33" transform="translate(185,433)"/>
<path d="M0,0 L2,4 L0,5 L-1,2 Z " fill="#5F5347" transform="translate(203,407)"/>
<path d="M0,0 L3,1 L2,4 Z " fill="#3C3123" transform="translate(268,380)"/>
<path d="M0,0 L4,1 L2,4 L2,2 L0,2 Z " fill="#655B53" transform="translate(241,376)"/>
<path d="M0,0 L2,0 L0,4 L-1,1 Z " fill="#3F3423" transform="translate(231,370)"/>
<path d="M0,0 L2,0 L0,4 L-1,1 Z " fill="#44392D" transform="translate(251,343)"/>
<path d="M0,0 L2,0 L3,3 L0,3 Z " fill="#4D4D4D" transform="translate(377,336)"/>
<path d="M0,0 L3,1 L2,4 Z " fill="#42362B" transform="translate(207,328)"/>
<path d="M0,0 L2,0 L1,3 L-2,2 Z " fill="#E9E4E2" transform="translate(234,327)"/>
<path d="M0,0 L2,0 L0,4 L-1,1 Z " fill="#44382E" transform="translate(264,325)"/>
<path d="M0,0 L2,1 L0,5 L-1,2 Z " fill="#665C4E" transform="translate(228,323)"/>
<path d="M0,0 L3,1 L3,3 L0,3 Z " fill="#D2CDC9" transform="translate(187,304)"/>
<path d="M0,0 L2,3 L0,4 L-2,3 L-1,1 Z " fill="#564F46" transform="translate(189,301)"/>
<path d="M0,0 L3,1 L3,3 L0,3 Z " fill="#565455" transform="translate(306,294)"/>
<path d="M0,0 L2,1 L2,3 L-1,3 Z " fill="#9B8771" transform="translate(153,449)"/>
<path d="M0,0 L2,1 L1,4 L-1,2 Z " fill="#584C42" transform="translate(280,426)"/>
<path d="M0,0 L2,2 L-2,3 L-2,1 Z " fill="#64574F" transform="translate(187,399)"/>
<path d="M0,0 L3,1 L3,3 L0,2 Z " fill="#8E806A" transform="translate(222,345)"/>
<path d="M0,0 L2,3 L-1,3 Z " fill="#626061" transform="translate(417,340)"/>
<path d="M0,0 L2,3 L-1,3 Z " fill="#56493C" transform="translate(273,312)"/>
<path d="M0,0 L4,2 L1,3 Z " fill="#E0DDD9" transform="translate(218,308)"/>
<path d="M0,0 L2,0 L1,3 L-1,3 Z " fill="#283F2E" transform="translate(436,269)"/>
<path d="M0,0 L2,2 L0,4 Z " fill="#E2E5E4" transform="translate(153,219)"/>
<path d="M0,0 L3,1 L1,3 Z " fill="#3E3325" transform="translate(272,417)"/>
<path d="M0,0 L2,0 L1,3 L-1,1 Z " fill="#A18C75" transform="translate(232,365)"/>
<path d="M0,0 L3,1 L1,3 Z " fill="#42372B" transform="translate(201,320)"/>
</svg>
