<?xml version="1.0" encoding="UTF-8"?>
<!-- Generator: visioncortex VTracer 0.6.12 -->
<svg version="1.1" xmlns="http://www.w3.org/2000/svg" width="366" height="351">
<path d="M0,0 L366,0 L366,351 L0,351 Z " fill="#FCFCFC" transform="translate(0,0)"/>
<path d="M0,0 L35,0 L38,3 L41,4 L42,7 L41,8 L30,9 L29,14 L48,14 L50,16 L50,49 L49,50 L30,51 L30,55 L48,56 L49,57 L49,70 L48,71 L29,72 L29,77 L48,78 L49,79 L50,107 L60,110 L66,110 L66,1 L67,0 L99,0 L100,8 L104,10 L104,71 L103,72 L76,72 L77,76 L104,77 L105,112 L117,116 L122,119 L123,121 L123,127 L170,127 L173,118 L176,114 L180,114 L180,112 L194,109 L195,79 L196,78 L222,77 L222,71 L196,71 L195,70 L195,9 L197,7 L199,0 L233,0 L234,109 L240,107 L249,107 L249,78 L250,77 L270,76 L270,72 L251,71 L250,70 L250,57 L251,56 L270,55 L270,51 L250,50 L249,49 L249,14 L250,13 L270,12 L270,8 L258,7 L260,3 L263,0 L302,0 L303,1 L304,104 L313,108 L321,115 L326,122 L326,135 L322,146 L321,147 L312,147 L311,153 L308,157 L306,157 L306,159 L304,160 L288,160 L287,159 L276,158 L274,156 L258,158 L239,159 L228,159 L227,158 L218,158 L202,160 L197,163 L186,163 L181,158 L176,148 L176,146 L122,147 L113,161 L109,165 L100,166 L93,163 L80,161 L76,159 L68,159 L65,160 L53,160 L37,158 L20,156 L19,157 L4,159 L-6,159 L-13,156 L-17,149 L-17,146 L-25,146 L-28,142 L-30,134 L-30,121 L-26,115 L-18,107 L-12,104 L-2,104 L-1,1 Z " fill="#3A784D" transform="translate(36,133)"/>
<path d="M0,0 L24,0 L26,1 L26,3 L30,4 L39,8 L40,20 L244,20 L245,7 L259,0 L283,0 L285,2 L289,20 L291,32 L293,42 L293,49 L295,49 L304,84 L305,91 L304,92 L296,93 L294,98 L-11,98 L-13,93 L-22,92 L-23,87 L-20,77 L-18,77 L-16,66 L-13,56 L-10,48 L-7,30 L-4,20 L-2,4 Z " fill="#8A8A8A" transform="translate(46,26)"/>
<path d="M0,0 L34,0 L35,109 L41,107 L50,107 L50,78 L51,77 L71,76 L71,72 L52,71 L51,70 L51,57 L52,56 L71,55 L71,51 L51,50 L50,49 L50,14 L51,13 L71,12 L71,8 L59,7 L61,3 L64,0 L103,0 L104,1 L105,104 L114,108 L122,115 L126,120 L125,122 L122,128 L114,137 L110,139 L108,142 L101,143 L101,145 L80,145 L77,143 L74,134 L72,134 L69,141 L64,146 L60,148 L51,148 L45,146 L39,141 L38,138 L32,138 L21,143 L-7,143 L-14,140 L-18,137 L-21,132 L-25,126 L-25,121 L-27,120 L-23,114 L-19,114 L-19,112 L-5,109 L-4,79 L-3,78 L23,77 L23,71 L-3,71 L-4,70 L-4,9 L-2,7 Z " fill="#3A774D" transform="translate(235,133)"/>
<path d="M0,0 L3,0 L5,11 L11,19 L17,22 L23,26 L42,26 L49,19 L51,14 L54,15 L55,25 L59,30 L70,30 L78,23 L83,20 L89,20 L95,23 L103,26 L130,26 L135,24 L139,24 L139,22 L143,21 L145,16 L148,11 L149,10 L197,9 L199,3 L201,3 L203,9 L207,15 L209,19 L215,23 L219,24 L247,24 L258,19 L264,19 L268,25 L272,28 L277,29 L286,29 L291,26 L294,25 L297,16 L301,16 L304,25 L306,26 L321,26 L327,27 L327,25 L334,23 L338,19 L345,13 L348,9 L350,3 L353,4 L353,17 L349,28 L348,29 L339,29 L338,35 L335,39 L333,39 L333,41 L331,42 L315,42 L314,41 L303,40 L301,38 L285,40 L266,41 L255,41 L254,40 L245,40 L229,42 L224,45 L213,45 L208,40 L203,30 L203,28 L149,29 L140,43 L136,47 L127,48 L120,45 L107,43 L103,41 L95,41 L92,42 L80,42 L64,40 L47,38 L46,39 L31,41 L21,41 L14,38 L10,31 L10,28 L2,28 L-1,24 L-3,16 L-3,3 Z " fill="#1A3824" transform="translate(9,251)"/>
<path d="M0,0 L39,0 L40,1 L41,105 L35,107 L24,109 L23,110 L18,110 L17,109 L16,78 L8,78 L4,79 L3,111 L-5,110 L-9,109 L-23,108 L-23,107 L-14,107 L-14,78 L-13,77 L7,76 L7,72 L-12,71 L-13,70 L-13,57 L-12,56 L7,55 L7,51 L-13,50 L-14,49 L-14,14 L-13,13 L7,12 L7,8 L-5,7 L-3,3 Z " fill="#A97C66" transform="translate(299,133)"/>
<path d="M0,0 L35,0 L38,3 L41,4 L42,7 L41,8 L30,9 L29,14 L48,14 L50,16 L50,49 L49,50 L30,51 L30,55 L48,56 L49,57 L49,70 L48,71 L29,72 L28,77 L21,78 L20,109 L15,110 L14,109 L-3,106 L-2,104 L-1,1 Z " fill="#A97E68" transform="translate(36,133)"/>
<path d="M0,0 L32,0 L33,8 L37,10 L37,71 L8,71 L9,77 L15,79 L15,108 L14,109 L0,110 L-1,109 L-1,1 Z " fill="#353635" transform="translate(103,133)"/>
<path d="M0,0 L32,0 L33,1 L33,109 L19,107 L18,106 L18,79 L22,77 L23,71 L-3,71 L-4,70 L-4,9 L-2,7 Z " fill="#343434" transform="translate(235,133)"/>
<path d="M0,0 L57,0 L58,1 L59,34 L60,36 L56,36 L54,40 L50,50 L13,50 L3,49 L1,41 L-8,37 L-8,36 L-1,37 L-1,1 Z " fill="#AB836F" transform="translate(156,211)"/>
<path d="M0,0 L3,0 L5,11 L11,19 L17,22 L23,26 L42,26 L49,19 L51,14 L54,15 L55,25 L59,30 L70,30 L78,23 L83,20 L89,20 L95,23 L103,26 L130,26 L135,24 L139,24 L139,22 L143,21 L145,16 L146,13 L150,12 L152,17 L152,24 L140,43 L136,47 L127,48 L120,45 L107,43 L103,41 L95,41 L92,42 L80,42 L64,40 L47,38 L46,39 L31,41 L21,41 L14,38 L10,31 L10,28 L2,28 L-1,24 L-3,16 L-3,3 Z " fill="#193623" transform="translate(9,251)"/>
<path d="M0,0 L24,0 L26,2 L30,20 L32,32 L35,49 L34,54 L3,55 L-2,52 L-7,47 L-12,43 L-14,40 L-14,21 L-13,8 L-11,5 Z " fill="#A77D68" transform="translate(305,26)"/>
<path d="M0,0 L24,0 L26,1 L26,3 L30,4 L38,8 L39,21 L39,41 L29,50 L25,54 L17,54 L14,53 L4,54 L-6,55 L-11,54 L-9,41 L-5,23 L-3,13 L-1,1 Z " fill="#A87D68" transform="translate(46,26)"/>
<path d="M0,0 L49,0 L52,8 L53,10 L53,37 L52,38 L-3,38 L-4,37 L-4,10 L-1,7 Z " fill="#353435" transform="translate(160,133)"/>
<path d="M0,0 L303,0 L304,5 L303,6 L0,6 L-1,1 Z " fill="#3B3B3B" transform="translate(36,117)"/>
<path d="M0,0 L30,0 L31,1 L31,36 L-1,36 L-1,1 Z " fill="#F9F5F5" transform="translate(170,225)"/>
<path d="M0,0 L28,0 L28,1 L1,1 L2,5 L29,6 L30,41 L33,43 L28,42 L11,39 L7,37 L6,8 L0,6 Z " fill="#8B8C8C" transform="translate(111,204)"/>
<path d="M0,0 L2,0 L3,5 L-2,8 L-2,43 L-20,43 L-21,42 L-21,7 L-20,6 L0,5 Z " fill="#8D8B8C" transform="translate(306,140)"/>
<path d="M0,0 L4,1 L1,2 L0,29 L-1,30 L-21,33 L-22,34 L-28,34 L-28,33 L-23,32 L-22,2 L-21,1 Z " fill="#868887" transform="translate(253,210)"/>
<path d="M0,0 L6,1 L15,6 L16,19 L16,39 L6,48 L3,50 L0,50 Z " fill="#3B3737" transform="translate(69,28)"/>
<path d="M0,0 L16,0 L18,2 L18,35 L17,36 L-3,36 L0,34 Z " fill="#8D8D8D" transform="translate(68,147)"/>
<path d="M0,0 L3,1 L5,2 L5,48 L1,47 L-8,40 L-10,37 L-10,18 L-9,5 L-7,2 Z " fill="#383536" transform="translate(301,29)"/>
<path d="M0,0 L17,0 L16,34 L8,33 L4,32 L-10,31 L-10,30 L-1,30 L-1,1 Z " fill="#8A8C8A" transform="translate(286,210)"/>
<path d="M0,0 L35,0 L35,8 L39,10 L40,112 L45,112 L46,115 L39,114 L38,113 L38,78 L11,78 L10,73 L37,72 L37,11 L33,9 L33,1 L1,2 L0,111 L-6,112 L-16,109 L-17,108 L-18,80 L-37,79 L-38,78 L-38,73 L-37,72 L-18,71 L-18,58 L-36,57 L-37,52 L-35,55 L-17,56 L-16,57 L-16,72 L-17,73 L-36,74 L-36,77 L-17,78 L-16,79 L-15,107 L-1,110 L-1,1 Z " fill="#D4D3D1" transform="translate(102,132)"/>
<path d="M0,0 L42,0 L44,4 L44,7 L47,8 L48,11 L-5,11 L-2,6 Z " fill="#898A89" transform="translate(163,268)"/>
<path d="M0,0 L16,0 L17,1 L18,29 L23,30 L23,31 L6,32 L2,33 L1,32 Z " fill="#868886" transform="translate(68,211)"/>
<path d="M0,0 L8,0 L9,1 L9,36 L8,37 L-3,37 L-4,36 L-4,2 Z " fill="#3E3735" transform="translate(307,146)"/>
<path d="M0,0 L8,0 L12,2 L12,35 L8,37 L0,37 L-1,36 L-1,1 Z " fill="#3E3735" transform="translate(57,146)"/>
<path d="M0,0 L8,0 L12,2 L12,35 L9,36 L-1,35 L-1,1 Z " fill="#373332" transform="translate(57,210)"/>
<path d="M0,0 L8,0 L9,1 L9,31 L7,34 L-3,35 L-4,34 L-4,1 Z " fill="#393633" transform="translate(307,210)"/>
<path d="M0,0 L1,2 L2,15 L0,12 L-1,9 L-43,9 L-44,14 L-45,14 L-47,5 L-50,3 L-48,1 Z " fill="#383937" transform="translate(206,260)"/>
<path d="M0,0 L11,0 L11,23 L1,23 L0,22 Z " fill="#3F3F3F" transform="translate(203,180)"/>
<path d="M0,0 L10,0 L10,22 L9,23 L0,23 L-1,22 L-1,1 Z " fill="#393939" transform="translate(173,180)"/>
<path d="M0,0 L9,0 L10,1 L10,22 L9,23 L0,23 L-1,22 L-1,1 Z " fill="#373636" transform="translate(157,180)"/>
<path d="M0,0 L8,0 L9,1 L9,22 L8,23 L-1,23 L-1,1 Z " fill="#363636" transform="translate(189,180)"/>
<path d="M0,0 L12,1 L13,2 L13,25 L12,26 L-14,26 L-15,25 L-15,2 L-14,1 L-4,1 L-4,2 L-13,3 L-13,24 L-4,24 L-3,6 L-1,6 Z M3,2 L2,3 L2,25 L11,25 L12,24 L12,3 L11,2 Z " fill="#C8C8C8" transform="translate(186,178)"/>
<path d="M0,0 L40,0 L41,1 L42,104 L50,105 L49,108 L40,105 L39,2 L0,1 Z " fill="#E7DCD2" transform="translate(299,132)"/>
<path d="M0,0 L26,0 L27,4 L26,5 L1,5 Z " fill="#FAFAFA" transform="translate(112,205)"/>
<path d="M0,0 L13,0 L14,1 L14,104 L13,104 L12,5 L9,2 L0,2 Z " fill="#A38A7E" transform="translate(325,133)"/>
<path d="M0,0 L2,0 L3,109 L8,108 L6,112 L4,113 L1,111 Z " fill="#8D928F" transform="translate(267,133)"/>
<path d="M0,0 L2,0 L2,29 L11,28 L16,26 L20,25 L22,20 L23,20 L23,27 L25,28 L19,30 L8,32 L7,33 L2,33 L1,32 Z " fill="#907F67" transform="translate(315,210)"/>
<path d="M0,0 L5,0 L6,9 L6,29 L3,32 L3,4 L0,5 L0,3 L-4,2 Z " fill="#846C61" transform="translate(303,27)"/>
<path d="M0,0 L8,0 L8,1 L1,2 L1,33 L11,33 L11,2 L12,2 L12,35 L9,36 L-1,35 L-1,1 Z " fill="#4F4C41" transform="translate(57,210)"/>
<path d="M0,0 L1,0 L1,29 L-4,30 L-5,29 L-17,27 L-17,26 L-9,25 L-9,27 L-2,26 Z " fill="#96816B" transform="translate(55,213)"/>
<path d="M0,0 L2,1 L1,2 L1,35 L3,41 L3,48 L2,48 L0,40 L-4,38 L-1,37 L-1,1 Z " fill="#9D8574" transform="translate(157,212)"/>
<path d="M0,0 L53,0 L56,9 L53,8 L52,2 L3,1 L3,8 L2,8 Z " fill="#D8D8D8" transform="translate(157,132)"/>
<path d="M0,0 L1,0 L1,34 L-3,33 L-2,31 L-1,1 Z " fill="#9E8170" transform="translate(168,226)"/>
<path d="M0,0 L3,0 L3,7 L1,11 L-1,19 L-3,16 L-3,3 Z " fill="#243D2E" transform="translate(9,251)"/>
</svg>
