<?xml version="1.0" encoding="UTF-8"?>
<!-- Generator: visioncortex VTracer 0.6.12 -->
<svg version="1.1" xmlns="http://www.w3.org/2000/svg" width="394" height="853">
<path d="M0,0 L394,0 L394,853 L0,853 Z " fill="#FEFEFE" transform="translate(0,0)"/>
<path d="M0,0 L8,0 L8,16 L4,21 L-5,24 L-7,28 L-7,33 L-5,35 L12,36 L12,41 L9,41 L7,49 L15,50 L25,50 L33,49 L33,42 L38,43 L43,47 L43,61 L42,65 L38,65 L35,60 L10,59 L5,63 L6,72 L10,74 L22,73 L25,72 L34,72 L36,78 L56,77 L60,75 L59,80 L61,80 L64,85 L72,95 L74,96 L77,105 L80,113 L84,125 L91,138 L94,145 L96,150 L99,153 L100,159 L102,159 L107,171 L109,184 L112,191 L113,198 L114,201 L116,201 L116,211 L115,219 L113,222 L108,221 L107,206 L104,201 L101,200 L91,200 L90,210 L84,220 L84,227 L85,231 L93,229 L99,229 L100,225 L103,223 L108,223 L109,224 L109,230 L120,231 L125,234 L126,240 L124,243 L115,243 L113,242 L113,240 L100,241 L97,244 L91,243 L91,241 L86,240 L77,232 L77,230 L75,230 L75,222 L76,219 L77,207 L80,205 L80,189 L76,179 L76,177 L73,176 L69,163 L66,157 L66,154 L61,155 L57,162 L53,164 L51,167 L51,173 L55,179 L58,182 L58,184 L61,185 L64,193 L64,209 L60,215 L56,219 L54,219 L59,228 L59,232 L62,233 L68,242 L69,243 L69,249 L72,250 L75,255 L84,257 L83,265 L82,266 L81,284 L84,289 L87,291 L95,292 L99,294 L99,297 L96,298 L96,301 L103,304 L113,306 L123,307 L129,311 L131,316 L131,323 L124,339 L121,347 L112,362 L108,365 L103,365 L103,367 L98,369 L87,370 L66,370 L66,366 L75,364 L83,364 L85,345 L87,339 L90,318 L90,313 L87,310 L77,306 L70,305 L62,300 L54,298 L31,298 L26,299 L19,299 L11,293 L8,289 L6,284 L4,281 L4,278 L1,277 L-1,272 L-7,265 L-9,246 L-15,241 L-22,241 L-26,242 L-28,240 L-39,238 L-38,233 L-35,231 L-29,232 L-27,233 L-16,233 L-16,227 L-18,224 L-18,221 L-27,221 L-32,219 L-42,218 L-44,226 L-46,226 L-46,235 L-49,240 L-51,249 L-48,249 L-47,255 L-55,256 L-56,263 L-36,265 L-35,266 L-26,266 L-23,263 L-19,263 L-19,274 L-22,276 L-36,277 L-36,273 L-49,272 L-50,271 L-58,271 L-60,273 L-61,287 L-53,288 L-53,290 L-36,290 L-30,292 L-30,294 L-20,293 L-14,289 L-10,284 L-2,284 L2,285 L2,288 L-6,291 L-11,299 L-21,302 L-22,309 L-29,318 L-38,335 L-37,340 L-37,351 L-39,359 L-44,367 L-55,367 L-55,365 L-58,364 L-58,360 L-51,359 L-47,357 L-48,347 L-54,343 L-63,342 L-63,345 L-59,347 L-59,353 L-60,354 L-61,362 L-68,361 L-73,358 L-75,355 L-77,347 L-80,345 L-95,344 L-94,340 L-88,336 L-63,331 L-55,328 L-49,317 L-47,310 L-46,298 L-57,298 L-65,295 L-68,293 L-68,271 L-65,259 L-61,251 L-59,245 L-58,237 L-74,237 L-77,236 L-96,235 L-96,233 L-135,233 L-140,230 L-140,225 L-132,225 L-131,226 L-126,226 L-123,220 L-122,215 L-118,212 L-117,207 L-115,207 L-114,199 L-113,190 L-111,188 L-106,188 L-110,183 L-118,180 L-128,179 L-126,182 L-126,186 L-133,186 L-133,194 L-134,197 L-126,196 L-125,195 L-124,184 L-116,184 L-117,197 L-124,207 L-130,217 L-134,221 L-142,220 L-148,220 L-150,218 L-149,205 L-163,206 L-165,212 L-171,221 L-173,221 L-173,223 L-179,223 L-183,219 L-182,210 L-180,207 L-178,207 L-176,203 L-175,199 L-180,199 L-180,194 L-171,194 L-165,196 L-149,196 L-145,194 L-142,182 L-153,179 L-161,177 L-178,174 L-184,168 L-185,164 L-185,151 L-183,147 L-179,144 L-166,144 L-163,145 L-163,147 L-158,149 L-157,151 L-157,157 L-160,161 L-160,166 L-156,166 L-153,160 L-151,158 L-145,158 L-144,159 L-145,173 L-141,174 L-134,174 L-128,172 L-115,172 L-106,178 L-101,182 L-90,182 L-88,177 L-84,172 L-82,172 L-81,165 L-77,164 L-63,164 L-62,169 L-69,170 L-73,172 L-75,176 L-80,178 L-81,182 L-67,182 L-66,183 L-66,190 L-74,193 L-78,193 L-77,198 L-71,198 L-68,196 L-64,196 L-65,201 L-71,204 L-75,204 L-75,206 L-81,206 L-87,201 L-89,196 L-89,192 L-93,192 L-95,196 L-99,198 L-103,198 L-103,191 L-105,191 L-105,207 L-109,214 L-117,224 L-118,226 L-98,226 L-85,227 L-57,227 L-55,226 L-55,217 L-57,215 L-57,184 L-53,174 L-50,136 L-44,126 L-41,121 L-36,116 L-34,116 L-34,110 L-28,102 L-26,102 L-24,97 L-17,88 L-13,86 L-13,84 L-6,81 L0,79 L0,74 L-2,74 L-2,46 L-7,45 L-13,41 L-16,35 L-16,26 L-11,18 L-8,16 L-2,14 L0,13 Z " fill="#1D3326" transform="translate(197,279)"/>
<path d="M0,0 L8,0 L8,16 L4,21 L-5,24 L-7,28 L-7,33 L-5,35 L12,36 L12,41 L9,41 L7,49 L15,50 L25,50 L33,49 L33,42 L38,43 L43,47 L43,61 L42,65 L38,65 L35,60 L10,59 L5,63 L6,72 L10,74 L22,73 L25,72 L34,72 L36,78 L56,77 L60,75 L59,80 L61,80 L60,82 L54,80 L45,80 L40,82 L33,90 L31,96 L38,93 L42,91 L42,93 L40,93 L40,96 L36,97 L36,101 L33,102 L36,103 L37,105 L38,122 L27,128 L14,135 L9,140 L2,146 L-3,147 L-2,140 L4,132 L7,131 L7,129 L18,122 L20,122 L20,120 L23,120 L22,115 L23,112 L21,112 L20,114 L14,116 L9,120 L7,120 L7,122 L-7,126 L-11,125 L-14,117 L-14,111 L-10,106 L-4,105 L-2,109 L7,109 L8,106 L-1,105 L0,99 L2,99 L4,93 L4,91 L2,90 L-9,90 L-12,95 L-16,104 L-22,108 L-24,112 L-24,117 L-25,118 L-25,128 L-15,129 L-15,131 L-13,131 L-11,135 L-11,140 L-13,142 L-21,143 L-21,139 L-32,138 L-34,143 L-36,143 L-37,148 L-41,156 L-43,162 L-46,182 L-48,201 L-49,207 L-47,207 L-46,202 L-45,201 L-39,201 L-38,202 L-38,211 L-31,213 L-33,216 L-38,218 L-42,218 L-44,226 L-46,226 L-46,235 L-49,240 L-51,249 L-48,249 L-47,255 L-55,256 L-56,263 L-36,265 L-35,266 L-26,266 L-23,263 L-19,263 L-19,274 L-22,276 L-36,277 L-36,273 L-49,272 L-50,271 L-58,271 L-60,273 L-61,287 L-53,288 L-53,290 L-36,290 L-30,292 L-30,294 L-20,293 L-14,289 L-10,284 L-2,284 L2,285 L2,288 L-6,291 L-11,299 L-21,302 L-22,309 L-29,318 L-38,335 L-37,340 L-37,351 L-39,359 L-44,367 L-55,367 L-55,365 L-58,364 L-58,360 L-51,359 L-47,357 L-48,347 L-54,343 L-63,342 L-63,345 L-59,347 L-59,353 L-60,354 L-61,362 L-68,361 L-73,358 L-75,355 L-77,347 L-80,345 L-95,344 L-94,340 L-88,336 L-63,331 L-55,328 L-49,317 L-47,310 L-46,298 L-57,298 L-65,295 L-68,293 L-68,271 L-65,259 L-61,251 L-59,245 L-58,237 L-74,237 L-77,236 L-96,235 L-96,233 L-135,233 L-140,230 L-140,225 L-132,225 L-131,226 L-126,226 L-123,220 L-122,215 L-118,212 L-117,207 L-115,207 L-114,199 L-113,190 L-111,188 L-106,188 L-110,183 L-118,180 L-128,179 L-126,182 L-126,186 L-133,186 L-133,194 L-134,197 L-126,196 L-125,195 L-124,184 L-116,184 L-117,197 L-124,207 L-130,217 L-134,221 L-142,220 L-148,220 L-150,218 L-149,205 L-163,206 L-165,212 L-171,221 L-173,221 L-173,223 L-179,223 L-183,219 L-182,210 L-180,207 L-178,207 L-176,203 L-175,199 L-180,199 L-180,194 L-171,194 L-165,196 L-149,196 L-145,194 L-142,182 L-153,179 L-161,177 L-178,174 L-184,168 L-185,164 L-185,151 L-183,147 L-179,144 L-166,144 L-163,145 L-163,147 L-158,149 L-157,151 L-157,157 L-160,161 L-160,166 L-156,166 L-153,160 L-151,158 L-145,158 L-144,159 L-145,173 L-141,174 L-134,174 L-128,172 L-115,172 L-106,178 L-101,182 L-90,182 L-88,177 L-84,172 L-82,172 L-81,165 L-77,164 L-63,164 L-62,169 L-69,170 L-73,172 L-75,176 L-80,178 L-81,182 L-67,182 L-66,183 L-66,190 L-74,193 L-78,193 L-77,198 L-71,198 L-68,196 L-64,196 L-65,201 L-71,204 L-75,204 L-75,206 L-81,206 L-87,201 L-89,196 L-89,192 L-93,192 L-95,196 L-99,198 L-103,198 L-103,191 L-105,191 L-105,207 L-109,214 L-117,224 L-118,226 L-98,226 L-85,227 L-57,227 L-55,226 L-55,217 L-57,215 L-57,184 L-53,174 L-50,136 L-44,126 L-41,121 L-36,116 L-34,116 L-34,110 L-28,102 L-26,102 L-24,97 L-17,88 L-13,86 L-13,84 L-6,81 L0,79 L0,74 L-2,74 L-2,46 L-7,45 L-13,41 L-16,35 L-16,26 L-11,18 L-8,16 L-2,14 L0,13 Z " fill="#203728" transform="translate(197,279)"/>
<path d="M0,0 L17,0 L32,3 L34,4 L42,4 L44,2 L55,2 L68,10 L70,14 L85,20 L94,26 L104,35 L112,43 L117,52 L117,66 L111,77 L103,84 L89,91 L86,91 L86,93 L84,93 L82,103 L75,114 L66,120 L58,126 L53,131 L46,131 L45,128 L48,123 L60,113 L66,109 L69,102 L60,103 L60,97 L62,94 L62,89 L57,86 L53,83 L48,83 L44,87 L34,86 L34,81 L42,73 L44,73 L44,71 L15,73 L13,75 L3,75 L0,71 L0,65 L2,61 L1,57 L-6,49 L-16,42 L-22,40 L-29,39 L-41,39 L-39,46 L-31,54 L-31,57 L-38,57 L-49,49 L-54,45 L-56,40 L-58,40 L-58,31 L-51,25 L-49,24 L-35,23 L-33,17 L-25,9 L-15,4 L-6,1 Z " fill="#1A3323" transform="translate(225,232)"/>
<path d="M0,0 L8,0 L16,6 L21,13 L21,17 L23,17 L24,26 L28,30 L31,40 L34,48 L34,52 L36,52 L39,57 L39,59 L41,59 L45,65 L49,77 L49,80 L51,80 L54,86 L56,98 L58,102 L58,105 L42,105 L40,94 L36,86 L32,75 L32,73 L30,73 L24,58 L20,52 L16,47 L14,36 L8,29 L3,29 L2,30 L1,41 L-3,42 L-5,46 L-9,49 L-9,67 L-7,69 L-8,73 L-13,76 L-14,78 L-16,78 L-15,82 L-8,83 L-9,93 L-16,96 L-20,97 L-21,92 L-26,92 L-27,97 L-25,101 L-23,108 L-18,108 L-10,101 L-3,101 L-1,96 L3,97 L10,106 L10,120 L8,123 L5,124 L-4,124 L-7,122 L-12,121 L-13,127 L-15,130 L-23,132 L-24,133 L-34,135 L-40,136 L-44,128 L-49,123 L-50,114 L-52,114 L-52,109 L-45,107 L-44,103 L-54,101 L-54,91 L-55,85 L-55,72 L-54,63 L-64,61 L-78,61 L-77,64 L-65,65 L-62,68 L-64,70 L-76,71 L-82,71 L-82,78 L-79,82 L-62,83 L-61,89 L-61,98 L-62,104 L-69,103 L-81,100 L-80,106 L-76,108 L-60,111 L-58,116 L-58,121 L-65,126 L-77,126 L-84,124 L-85,119 L-85,114 L-91,114 L-93,119 L-95,119 L-94,107 L-92,88 L-90,74 L-85,62 L-82,55 L-80,55 L-79,49 L-67,51 L-66,54 L-59,53 L-58,52 L-58,47 L-59,43 L-61,43 L-61,41 L-72,41 L-72,30 L-71,27 L-70,21 L-64,16 L-62,16 L-59,7 L-56,2 L-55,1 L-44,1 L-41,3 L-42,8 L-44,11 L-46,11 L-47,17 L-38,17 L-37,19 L-39,19 L-39,21 L-41,22 L-48,22 L-50,18 L-56,19 L-59,23 L-59,29 L-56,37 L-47,35 L-39,34 L-39,32 L-31,26 L-25,24 L-22,23 L-23,27 L-22,29 L-23,32 L-26,32 L-26,34 L-37,41 L-39,41 L-39,43 L-44,47 L-48,54 L-49,59 L-41,55 L-36,49 L-25,42 L-17,38 L-9,34 L-10,15 L-14,14 L-11,13 L-12,11 L-10,11 L-10,9 L-6,8 L-6,5 L-4,5 L-4,3 Z " fill="#F6F8F7" transform="translate(243,367)"/>
<path d="M0,0 L3,1 L7,9 L9,13 L18,13 L19,12 L31,7 L37,6 L39,9 L39,12 L37,12 L37,17 L40,17 L42,30 L41,34 L49,34 L53,44 L56,51 L57,53 L61,54 L60,45 L66,42 L67,38 L59,39 L55,36 L55,32 L57,32 L58,26 L49,27 L47,25 L46,14 L49,13 L49,10 L44,8 L45,3 L52,2 L60,8 L61,9 L61,15 L60,19 L68,24 L70,26 L71,36 L79,38 L82,42 L82,51 L84,51 L85,54 L88,54 L89,63 L93,70 L96,72 L104,73 L108,75 L108,78 L105,79 L105,82 L112,85 L122,87 L132,88 L138,92 L140,97 L140,104 L133,120 L130,128 L121,143 L117,146 L112,146 L112,148 L107,150 L96,151 L75,151 L75,147 L84,145 L92,145 L94,126 L96,120 L99,99 L99,94 L96,91 L86,87 L79,86 L71,81 L63,79 L40,79 L35,80 L28,80 L20,74 L17,70 L15,65 L13,62 L13,59 L10,58 L8,53 L2,46 L0,27 L-1,22 L1,11 L-1,11 L-2,2 Z " fill="#183221" transform="translate(188,498)"/>
<path d="M0,0 L13,0 L16,1 L16,3 L21,5 L22,7 L22,13 L19,17 L19,22 L23,22 L26,16 L28,14 L34,14 L35,15 L34,29 L38,30 L45,30 L51,28 L64,28 L73,34 L78,38 L89,38 L91,33 L95,28 L97,28 L98,21 L102,20 L116,20 L117,25 L110,26 L106,28 L104,32 L99,34 L98,38 L112,38 L113,39 L113,46 L105,49 L101,49 L102,54 L108,54 L111,52 L115,52 L114,57 L108,60 L104,60 L104,62 L98,62 L92,57 L90,52 L90,48 L86,48 L84,52 L80,54 L76,54 L76,47 L74,47 L74,63 L70,70 L62,80 L61,82 L81,82 L94,83 L112,83 L123,85 L122,90 L125,91 L116,92 L83,91 L83,89 L44,89 L39,86 L39,81 L47,81 L48,82 L53,82 L56,76 L57,71 L61,68 L62,63 L64,63 L65,55 L66,46 L68,44 L73,44 L69,39 L61,36 L51,35 L53,38 L53,42 L46,42 L46,50 L45,53 L53,52 L54,51 L55,40 L63,40 L62,53 L55,63 L49,73 L45,77 L37,76 L31,76 L29,74 L30,61 L16,62 L14,68 L8,77 L6,77 L6,79 L0,79 L-4,75 L-3,66 L-1,63 L1,63 L3,59 L4,55 L-1,55 L-1,50 L8,50 L14,52 L30,52 L34,50 L37,38 L26,35 L18,33 L1,30 L-5,24 L-6,20 L-6,7 L-4,3 Z " fill="#263C2E" transform="translate(18,423)"/>
<path d="M0,0 L29,0 L43,2 L47,8 L55,12 L65,12 L71,11 L81,15 L89,19 L97,23 L102,28 L109,35 L111,39 L111,50 L102,61 L90,64 L86,65 L86,67 L84,67 L83,70 L81,71 L69,70 L62,62 L56,55 L48,48 L43,43 L40,42 L36,37 L32,35 L32,33 L28,32 L9,22 L-7,17 L-14,15 L-23,14 L-21,9 L-12,3 Z " fill="#F3F5F4" transform="translate(223,242)"/>
<path d="M0,0 L7,0 L3,2 L9,3 L9,4 L3,5 L1,13 L21,15 L22,16 L31,16 L34,13 L38,13 L38,24 L35,26 L21,27 L21,23 L8,22 L7,21 L-1,21 L-3,23 L-4,37 L4,38 L4,40 L21,40 L27,42 L27,44 L37,43 L43,39 L47,34 L55,34 L59,35 L59,38 L51,41 L46,49 L36,52 L35,59 L28,68 L19,85 L20,90 L20,101 L18,109 L13,117 L2,117 L2,115 L-1,114 L-1,110 L6,109 L10,107 L9,97 L3,93 L-6,92 L-6,95 L-2,97 L-2,103 L-3,104 L-4,112 L-11,111 L-16,108 L-18,105 L-20,97 L-23,95 L-38,94 L-37,90 L-31,86 L-6,81 L2,78 L8,67 L10,60 L11,48 L0,48 L-8,45 L-11,43 L-11,21 L-8,9 L-4,1 Z " fill="#193121" transform="translate(140,529)"/>
<path d="M0,0 L10,1 L15,3 L24,4 L27,10 L27,16 L26,17 L15,17 L11,15 L4,16 L3,21 L14,22 L16,24 L20,23 L27,23 L34,29 L36,48 L43,56 L44,60 L46,61 L49,67 L50,70 L46,72 L40,72 L44,71 L44,68 L32,68 L26,75 L22,77 L12,77 L12,75 L6,74 L-11,73 L-11,71 L-19,70 L-19,56 L-16,53 L-8,53 L-7,54 L4,55 L6,56 L6,60 L20,58 L23,57 L23,46 L18,48 L16,50 L7,50 L6,49 L-10,47 L-14,46 L-13,39 L-11,38 L-5,38 L-6,32 L-9,32 L-8,23 L-5,18 L-4,9 L-2,9 L-1,1 Z " fill="#F5F7F6" transform="translate(155,496)"/>
<path d="M0,0 L6,1 L13,7 L13,13 L12,17 L20,22 L22,24 L23,34 L31,36 L34,40 L34,51 L33,52 L26,53 L24,55 L21,55 L20,59 L5,63 L-3,66 L-12,68 L-17,68 L-24,61 L-24,59 L-26,59 L-27,56 L-32,53 L-37,38 L-40,33 L-40,26 L-34,23 L-28,23 L-25,26 L-22,36 L-21,42 L-26,45 L-27,48 L-16,46 L-14,49 L-14,57 L-16,58 L-16,62 L-11,61 L-2,59 L-2,53 L-9,53 L-11,49 L-11,43 L-9,43 L-10,37 L-15,37 L-21,26 L-23,23 L-22,19 L-18,19 L-18,13 L-23,15 L-27,15 L-27,10 L-15,4 L-10,5 L-9,10 L-11,10 L-11,15 L-8,15 L-6,28 L-7,32 L1,32 L5,42 L8,49 L9,51 L13,52 L12,43 L18,40 L19,36 L11,37 L7,34 L7,30 L9,30 L10,24 L1,25 L-1,23 L-2,12 L1,11 L1,8 L-4,6 L-3,1 Z " fill="#EFF2F1" transform="translate(236,500)"/>
<path d="M0,0 L4,3 L23,2 L27,0 L26,5 L28,5 L27,7 L21,5 L12,5 L7,7 L0,15 L-2,21 L5,18 L9,16 L9,18 L7,18 L7,21 L3,22 L3,26 L0,27 L3,28 L4,30 L5,47 L-6,53 L-19,60 L-24,65 L-31,71 L-36,72 L-35,65 L-29,57 L-26,56 L-26,54 L-15,47 L-13,47 L-13,45 L-10,45 L-11,40 L-10,37 L-12,37 L-13,39 L-19,41 L-24,45 L-26,45 L-26,47 L-40,51 L-44,50 L-47,42 L-47,36 L-43,31 L-37,30 L-35,34 L-26,34 L-25,31 L-34,30 L-33,24 L-31,24 L-29,18 L-29,16 L-31,15 L-40,14 L-40,13 L-26,12 L-21,9 L-19,9 L-19,7 L-4,6 Z " fill="#F5F8F6" transform="translate(230,354)"/>
<path d="M0,0 L6,2 L6,0 L8,0 L8,33 L10,35 L10,44 L7,46 L-21,46 L-54,44 L-52,39 L-45,31 L-42,25 L-41,9 L-39,9 L-39,16 L-31,13 L-29,10 L-25,10 L-22,19 L-17,23 L-11,24 L-11,22 L-2,19 L0,14 L-7,17 L-13,17 L-14,16 L-14,11 L-2,8 L-2,2 L0,2 Z " fill="#F3F6F5" transform="translate(133,461)"/>
<path d="M0,0 L5,0 L12,8 L14,19 L18,24 L19,33 L19,40 L17,40 L17,38 L12,39 L8,46 L1,50 L1,58 L1,61 L0,66 L2,67 L1,69 L-4,68 L-5,73 L-9,74 L-14,75 L-21,81 L-26,81 L-28,79 L-30,71 L-31,65 L-29,63 L-24,63 L-23,64 L-23,69 L-18,66 L-12,65 L-11,55 L-18,55 L-19,50 L-17,50 L-16,47 L-11,44 L-12,40 L-13,39 L-13,21 L-7,16 L-4,13 L-2,13 L-2,2 Z " fill="#1A3322" transform="translate(246,395)"/>
<path d="M0,0 L12,2 L13,5 L20,5 L20,6 L15,6 L15,8 L13,9 L19,9 L22,11 L22,13 L15,12 L1,12 L2,15 L14,16 L17,19 L15,21 L3,22 L-3,22 L-3,29 L0,33 L17,34 L18,40 L18,49 L17,55 L10,54 L-2,51 L-1,57 L3,59 L19,62 L21,67 L21,72 L14,77 L2,77 L-5,75 L-6,70 L-6,65 L-12,65 L-14,70 L-16,70 L-15,58 L-13,39 L-11,25 L-6,13 L-3,6 L-1,6 Z " fill="#F2F5F3" transform="translate(164,416)"/>
<path d="M0,0 L8,0 L8,16 L4,21 L-5,24 L-7,28 L-7,33 L-5,35 L12,36 L12,41 L9,41 L7,49 L15,50 L25,50 L33,49 L33,42 L38,43 L43,47 L43,61 L42,65 L38,65 L35,60 L10,59 L0,66 L-1,66 L-1,45 L-11,43 L-14,39 L-16,35 L-16,26 L-11,18 L-8,16 L-2,14 L0,13 Z " fill="#1A3223" transform="translate(197,279)"/>
<path d="M0,0 L6,0 L6,16 L4,24 L-5,35 L-6,37 L14,37 L27,38 L45,38 L56,40 L55,45 L58,46 L49,47 L16,46 L16,44 L-23,44 L-28,41 L-28,36 L-20,36 L-19,37 L-14,37 L-11,31 L-10,26 L-6,23 L-5,18 L-3,18 L-2,10 L-1,1 Z " fill="#1C3125" transform="translate(85,468)"/>
<path d="M0,0 L3,1 L7,9 L9,13 L18,13 L19,12 L21,12 L21,17 L26,15 L30,15 L30,21 L26,22 L27,26 L32,35 L33,39 L38,39 L39,45 L37,45 L39,55 L46,55 L47,61 L40,63 L36,65 L31,64 L32,59 L34,59 L32,49 L21,50 L22,46 L27,44 L23,33 L21,27 L20,26 L14,26 L8,28 L8,35 L6,34 L6,28 L3,28 L3,46 L2,46 L0,27 L-1,22 L1,11 L-1,11 L-2,2 Z " fill="#152B1B" transform="translate(188,498)"/>
<path d="M0,0 L14,0 L15,5 L8,6 L4,8 L2,12 L-3,14 L-4,18 L10,18 L11,19 L11,26 L3,29 L-1,29 L0,34 L6,34 L9,32 L13,32 L12,37 L6,40 L2,40 L2,42 L-4,42 L-10,37 L-12,32 L-12,28 L-16,28 L-18,32 L-22,34 L-26,34 L-28,24 L-29,20 L-27,20 L-27,22 L-25,22 L-25,20 L-13,20 L-12,15 L-7,8 L-5,8 L-4,1 Z " fill="#1E3525" transform="translate(120,443)"/>
<path d="M0,0 L13,0 L16,1 L16,3 L21,5 L22,7 L22,13 L19,17 L19,24 L25,23 L23,29 L21,32 L12,32 L1,30 L-5,24 L-6,20 L-6,7 L-4,3 Z " fill="#183120" transform="translate(18,423)"/>
<path d="M0,0 L11,0 L21,2 L22,3 L21,12 L21,25 L22,36 L21,41 L28,42 L31,43 L30,48 L23,49 L24,46 L22,46 L22,48 L20,48 L22,44 L20,43 L20,27 L17,28 L15,38 L14,38 L13,23 L-4,23 L-8,18 L-8,11 L-7,10 L5,10 L12,8 L12,6 L-2,5 L-3,1 Z " fill="#1C3425" transform="translate(168,427)"/>
<path d="M0,0 L9,0 L16,3 L24,12 L29,17 L32,26 L35,34 L38,46 L36,49 L33,49 L32,53 L29,41 L28,37 L24,35 L24,26 L22,26 L20,21 L14,13 L9,10 L1,10 L-4,13 L-10,17 L-14,17 L-12,10 L-5,2 Z " fill="#26392D" transform="translate(242,358)"/>
<path d="M0,0 L10,0 L15,3 L17,7 L18,22 L22,23 L23,21 L23,24 L12,25 L9,26 L8,30 L0,32 L-6,32 L-8,28 L-8,21 L-2,11 L-1,1 Z " fill="#F4F7F5" transform="translate(288,478)"/>
<path d="M0,0 L11,0 L11,2 L17,3 L27,9 L36,16 L43,24 L49,32 L49,41 L45,42 L40,36 L35,30 L35,27 L30,25 L23,16 L20,14 L11,13 L0,3 Z " fill="#1F3528" transform="translate(256,263)"/>
<path d="M0,0 L10,0 L19,4 L22,7 L22,9 L16,11 L14,23 L13,28 L11,28 L11,33 L8,36 L6,36 L6,41 L2,48 L-3,48 L-4,47 L-12,46 L-13,44 L-10,41 L-5,40 L0,34 L5,25 L10,18 L12,5 L4,5 L4,16 L2,18 L-6,18 L-5,7 L2,7 Z " fill="#CAD5CF" transform="translate(69,458)"/>
<path d="M0,0 L6,0 L7,1 L6,15 L10,16 L17,16 L23,14 L36,14 L45,20 L50,24 L61,24 L61,26 L49,26 L49,28 L47,28 L48,33 L46,33 L46,49 L44,52 L45,31 L40,31 L40,30 L45,30 L41,25 L33,22 L23,21 L22,23 L17,22 L17,20 L19,19 L9,19 L5,21 L0,20 L-2,21 L-10,19 L-6,15 L-4,10 L-9,10 L-5,8 L-2,2 Z " fill="#293F32" transform="translate(46,437)"/>
<path d="M0,0 L6,1 L13,7 L13,13 L12,17 L20,22 L22,24 L23,35 L22,37 L20,37 L19,40 L19,36 L11,37 L7,34 L7,30 L9,30 L10,24 L1,25 L-1,23 L-2,12 L1,11 L1,8 L-4,6 L-3,1 Z " fill="#F2F3F3" transform="translate(236,500)"/>
<path d="M0,0 L17,0 L32,3 L34,4 L43,4 L43,6 L37,7 L38,12 L27,11 L-2,11 L-15,14 L-15,12 L-17,12 L-19,8 L-14,3 Z " fill="#283C30" transform="translate(225,232)"/>
<path d="M0,0 L9,0 L16,3 L33,4 L34,9 L32,11 L17,11 L16,16 L9,27 L7,27 L7,29 L1,29 L-3,25 L-2,16 L0,13 L2,13 L4,9 L5,5 L0,5 Z " fill="#152E1D" transform="translate(17,473)"/>
<path d="M0,0 L6,1 L7,18 L-4,24 L-17,31 L-22,36 L-29,42 L-34,43 L-33,36 L-27,28 L-24,27 L-24,25 L-13,18 L-5,16 L-4,11 L-5,6 L-1,5 Z " fill="#1C3325" transform="translate(228,383)"/>
<path d="M0,0 L4,2 L10,14 L13,21 L15,26 L18,29 L19,35 L21,35 L23,43 L24,48 L25,50 L24,59 L22,63 L22,61 L20,61 L17,48 L16,44 L14,44 L9,29 L6,25 L6,23 L4,23 L1,18 L1,16 L-1,16 L-3,9 L-3,4 L0,4 Z " fill="#1E3427" transform="translate(278,403)"/>
<path d="M0,0 L4,1 L1,2 L1,6 L6,8 L5,12 L2,12 L4,23 L5,24 L14,24 L13,30 L11,30 L11,34 L15,36 L23,36 L22,41 L19,43 L16,43 L17,52 L12,51 L9,46 L5,33 L-3,32 L-3,25 L-4,22 L-4,15 L-7,15 L-7,10 L-5,10 L-6,6 L-4,6 L-3,8 Z " fill="#324438" transform="translate(232,500)"/>
<path d="M0,0 L4,1 L5,7 L9,11 L12,19 L16,29 L20,31 L20,34 L22,34 L29,42 L34,43 L34,45 L27,44 L26,50 L33,52 L33,53 L26,53 L18,47 L15,43 L13,38 L11,35 L11,32 L8,31 L6,26 L1,20 Z " fill="#2B3F32" transform="translate(190,525)"/>
<path d="M0,0 L10,1 L15,3 L24,4 L27,10 L27,16 L26,17 L15,17 L11,15 L4,16 L3,21 L14,22 L14,23 L2,23 L1,17 L-4,18 L-4,9 L-2,9 L-1,1 Z " fill="#E7EBE9" transform="translate(155,496)"/>
<path d="M0,0 L8,0 L8,16 L4,21 L-5,24 L-7,28 L-7,33 L-5,35 L3,36 L3,37 L-5,37 L-7,44 L-12,42 L-16,35 L-16,26 L-11,18 L-8,16 L-2,14 L0,13 Z " fill="#1E3428" transform="translate(197,279)"/>
<path d="M0,0 L2,1 L1,2 L1,8 L5,14 L8,17 L8,19 L11,20 L14,28 L14,44 L10,50 L6,54 L4,54 L5,58 L2,57 L1,49 L-9,49 L-8,47 L4,46 L5,43 L5,29 L-2,20 L1,18 L-2,17 L0,10 L-1,9 L-1,1 Z " fill="#23392B" transform="translate(247,444)"/>
<path d="M0,0 L12,2 L13,5 L20,5 L20,6 L15,6 L15,8 L13,9 L19,9 L22,11 L22,13 L15,12 L1,12 L2,15 L14,16 L17,19 L15,21 L3,22 L-3,22 L-6,28 L-8,27 L-10,33 L-11,44 L-13,45 L-12,32 L-10,23 L-6,13 L-3,6 L-1,6 Z " fill="#F0F4F1" transform="translate(164,416)"/>
<path d="M0,0 L2,1 L7,12 L9,20 L11,20 L18,38 L21,44 L20,54 L17,57 L16,57 L15,65 L13,64 L13,48 L9,38 L9,36 L6,35 L2,22 L-1,15 L1,15 L0,6 Z " fill="#2B3F33" transform="translate(264,420)"/>
<path d="M0,0 L9,0 L20,4 L19,8 L16,13 L8,19 L2,23 L-5,23 L-4,10 L-1,2 Z " fill="#E8EBE9" transform="translate(291,619)"/>
<path d="M0,0 L1,4 L4,4 L5,1 L5,3 L9,2 L9,7 L7,7 L6,11 L5,13 L12,12 L13,13 L13,18 L10,21 L7,26 L7,28 L10,30 L2,29 L-4,29 L-6,27 L-5,14 L-19,15 L-16,13 L-4,13 L-3,8 L-20,7 L-20,6 L-5,5 L-1,3 Z " fill="#263E2E" transform="translate(53,470)"/>
<path d="M0,0 L2,1 L3,5 L8,14 L9,18 L14,18 L15,24 L13,24 L15,34 L22,34 L23,40 L16,42 L12,44 L7,43 L8,38 L10,38 L8,28 L-3,29 L-2,25 L3,23 L-1,12 L-3,6 L-4,4 L-2,4 Z " fill="#24392C" transform="translate(212,519)"/>
<path d="M0,0 L5,1 L6,8 L19,8 L21,2 L23,0 L27,0 L26,5 L22,11 L17,15 L15,15 L15,17 L1,21 L-3,20 L-6,12 L-6,6 L-2,1 Z " fill="#24392C" transform="translate(189,384)"/>
<path d="M0,0 L8,0 L14,4 L16,9 L16,16 L9,32 L8,32 L7,25 L10,26 L10,23 L8,23 L8,21 L-1,19 L-4,16 L-3,11 L0,6 L2,6 L2,1 Z " fill="#23382B" transform="translate(312,586)"/>
<path d="M0,0 L5,1 L10,5 L10,19 L9,23 L5,23 L2,18 L-22,16 L-17,11 L-16,9 L0,7 Z " fill="#1A3224" transform="translate(230,321)"/>
<path d="M0,0 L4,1 L7,3 L16,3 L19,0 L23,0 L24,10 L33,13 L42,17 L45,18 L44,22 L34,21 L22,16 L13,11 L1,8 L1,6 L-1,6 L-1,1 Z " fill="#24392D" transform="translate(75,618)"/>
<path d="M0,0 L3,0 L5,5 L5,16 L3,24 L-2,32 L-13,32 L-13,30 L-16,29 L-16,25 L-9,24 L-5,22 L-6,12 L-10,8 L-7,8 L-8,6 L0,5 Z " fill="#203728" transform="translate(155,614)"/>
<path d="M0,0 L6,0 L9,3 L12,13 L13,19 L6,23 L3,27 L1,27 L-3,15 L-6,10 L-6,3 Z " fill="#F7F8F7" transform="translate(202,523)"/>
<path d="M0,0 L3,4 L-1,6 L2,10 L-1,15 L-5,18 L-10,18 L-10,20 L-15,22 L-26,23 L-47,23 L-47,19 L-38,17 L-28,17 L-28,19 L-30,20 L-26,21 L-27,18 L-23,16 L-16,14 L-5,7 L-2,4 Z " fill="#1C3124" transform="translate(310,626)"/>
<path d="M0,0 L7,4 L19,15 L26,22 L31,31 L31,45 L29,42 L29,40 L23,43 L22,39 L22,28 L18,22 L9,14 L6,11 L1,9 L1,6 L-1,4 L1,3 Z " fill="#24352C" transform="translate(311,253)"/>
<path d="M0,0 L9,0 L8,4 L4,10 L-11,10 L-11,12 L-16,15 L-28,15 L-28,13 L-26,12 L-25,9 L-23,8 L-23,4 L-17,5 L-17,3 Z " fill="#182E20" transform="translate(222,351)"/>
<path d="M0,0 L1,2 L1,7 L0,8 L0,18 L10,19 L10,21 L12,21 L14,25 L14,30 L12,32 L4,33 L4,29 L-7,28 L-9,33 L-10,29 L-9,22 L-7,20 L-3,19 L-3,4 Z " fill="#D5DDD9" transform="translate(172,389)"/>
<path d="M0,0 L9,0 L12,2 L11,7 L9,10 L7,10 L6,16 L15,16 L16,18 L14,18 L14,20 L12,21 L5,21 L3,17 L-3,18 L-5,19 L-5,16 L-8,16 L-6,12 L-2,13 L-2,11 L-5,11 L-4,5 L-2,5 L-1,1 Z " fill="#F6F8F7" transform="translate(190,368)"/>
<path d="M0,0 L1,3 L12,1 L14,4 L14,12 L12,13 L12,17 L17,16 L26,15 L26,16 L20,18 L17,20 L21,22 L11,23 L4,16 L4,14 L2,14 L1,11 L-4,8 L-3,2 Z " fill="#EEF1F0" transform="translate(208,545)"/>
<path d="M0,0 L2,2 L1,5 L16,5 L21,10 L23,18 L25,21 L18,24 L11,23 L10,21 L18,21 L19,18 L10,16 L6,13 L-2,10 L-3,6 L0,5 Z " fill="#EDF1EF" transform="translate(101,618)"/>
<path d="M0,0 L2,0 L2,4 L4,4 L4,12 L2,18 L-3,15 L-10,15 L-14,16 L-16,14 L-27,12 L-26,7 L-23,5 L-17,6 L-15,7 L-4,7 L-1,1 Z " fill="#193020" transform="translate(185,505)"/>
<path d="M0,0 L9,0 L16,5 L16,15 L12,18 L5,18 L5,22 L-4,22 L-7,18 L2,20 L2,12 L3,11 L3,5 L0,3 Z " fill="#EFF3F1" transform="translate(134,621)"/>
<path d="M0,0 L11,0 L11,2 L17,3 L27,9 L30,12 L28,16 L24,17 L20,14 L11,13 L0,3 Z " fill="#172E20" transform="translate(256,263)"/>
<path d="M0,0 L13,0 L22,6 L27,10 L38,10 L38,12 L26,12 L26,14 L24,14 L25,19 L23,19 L23,35 L21,38 L22,17 L17,17 L17,16 L22,16 L18,11 L6,7 L-4,7 L-1,4 L-3,3 L-3,1 Z " fill="#23382C" transform="translate(69,451)"/>
<path d="M0,0 L5,3 L8,12 L11,20 L14,32 L12,35 L9,35 L8,39 L5,27 L4,23 L0,21 L0,12 L-2,12 L0,8 L3,7 L0,2 Z " fill="#34473B" transform="translate(266,372)"/>
<path d="M0,0 L4,0 L4,11 L1,13 L-13,14 L-13,10 L-26,9 L-25,6 L-19,6 L-17,7 L-18,4 L-24,3 L-24,2 L-13,2 L-12,3 L-3,3 Z " fill="#21362A" transform="translate(174,542)"/>
<path d="M0,0 L6,1 L7,21 L11,19 L13,28 L17,31 L15,31 L15,33 L9,32 L10,36 L7,38 L7,41 L4,41 L4,43 L14,43 L14,44 L0,45 L-4,47 L-7,44 L-11,46 L-8,42 L-6,42 L-6,40 L1,37 L7,35 L7,30 L5,30 L5,2 L0,1 Z " fill="#304237" transform="translate(190,323)"/>
<path d="M0,0 L2,4 L6,5 L6,7 L3,7 L3,19 L-3,28 L-5,28 L-7,24 L-8,29 L-9,29 L-9,16 L-5,15 L-5,7 L-4,2 L-1,2 Z M-10,29 Z " fill="#162D1E" transform="translate(284,470)"/>
<path d="M0,0 L6,2 L6,0 L8,0 L7,15 L2,17 L0,20 L-2,19 L0,14 L-7,17 L-13,17 L-14,16 L-14,11 L-2,8 L-2,2 L0,2 Z " fill="#ECF0EE" transform="translate(133,461)"/>
<path d="M0,0 L5,0 L6,1 L6,6 L13,5 L13,8 L18,6 L20,6 L21,11 L16,11 L8,18 L3,18 L1,16 L-1,8 L-2,2 Z " fill="#22362A" transform="translate(217,458)"/>
<path d="M0,0 L8,1 L16,2 L15,7 L18,8 L9,9 L-1,9 L-5,8 L-19,7 L-15,4 L-17,2 L-1,1 Z " fill="#152C1E" transform="translate(125,506)"/>
<path d="M0,0 L1,0 L2,9 L6,7 L5,21 L3,26 L2,36 L-2,38 L-3,42 L-5,42 L-6,37 L-5,31 L-3,22 L-2,20 Z " fill="#172D1F" transform="translate(147,434)"/>
<path d="M0,0 L1,3 L5,5 L5,11 L4,12 L3,20 L-4,19 L-9,16 L-11,13 L-12,5 L-10,6 L-9,12 L-6,2 L-4,2 L-4,4 L0,5 L-1,1 Z " fill="#22382C" transform="translate(133,621)"/>
<path d="M0,0 L3,1 L6,4 L11,15 L10,25 L7,28 L6,28 L5,36 L3,35 L3,19 L-1,9 L-2,3 Z " fill="#213729" transform="translate(274,449)"/>
<path d="M0,0 L1,0 L1,11 L9,12 L9,14 L26,14 L28,16 L15,16 L13,15 L13,18 L15,19 L14,22 L5,22 L-3,19 L-6,17 L-6,15 L-4,15 L-3,11 L0,11 Z M15,17 Z " fill="#2D4335" transform="translate(135,555)"/>
<path d="M0,0 L14,0 L15,5 L8,6 L4,8 L2,12 L-5,14 L-9,14 L-8,9 L-5,8 L-4,1 Z " fill="#21362A" transform="translate(120,443)"/>
<path d="M0,0 L1,4 L0,6 L-2,6 L-2,10 L2,12 L10,12 L9,17 L6,19 L3,19 L4,28 L-1,27 L-4,22 L-7,10 L-3,9 L-3,2 L0,2 Z " fill="#152C1F" transform="translate(245,524)"/>
<path d="M0,0 L11,0 L21,2 L22,3 L21,12 L20,23 L19,23 L18,13 L16,10 L15,5 L13,5 L14,10 L12,12 L-1,12 L-1,11 L11,9 L12,6 L-2,5 L-3,1 Z M15,10 Z " fill="#334339" transform="translate(168,427)"/>
<path d="M0,0 L3,1 L7,9 L9,13 L14,14 L16,17 L16,20 L6,22 L2,18 L1,11 L-1,11 L-2,2 Z " fill="#E5EBE8" transform="translate(188,498)"/>
<path d="M0,0 L4,1 L5,5 L-1,14 L-3,14 L-3,16 L-9,16 L-13,12 L-12,3 L-10,2 L-10,6 L-5,1 Z " fill="#193221" transform="translate(27,486)"/>
<path d="M0,0 L17,0 L17,4 L5,11 L-2,11 L-5,8 L-4,1 Z " fill="#1D3225" transform="translate(258,332)"/>
<path d="M0,0 L8,0 L7,5 L6,10 L-3,12 L-4,15 L-11,15 L-10,8 L-2,1 Z " fill="#223529" transform="translate(209,368)"/>
<path d="M0,0 L11,0 L13,5 L12,11 L6,20 L4,22 L-1,21 L1,17 L4,12 L5,11 L5,6 L-2,6 Z " fill="#1E3325" transform="translate(60,477)"/>
<path d="M0,0 L8,0 L7,13 L1,21 L-1,19 L-2,15 L-11,14 L-12,4 L-11,2 L-9,2 L-9,10 L-10,13 L-2,12 L-1,11 Z " fill="#293E31" transform="translate(73,463)"/>
<path d="M0,0 L8,0 L12,1 L12,4 L4,7 L-1,15 L-3,16 L-11,16 L-12,11 L-6,10 L-5,6 Z " fill="#162D20" transform="translate(187,563)"/>
<path d="M0,0 L1,2 L-1,2 L-1,5 L-3,5 L-2,9 L-8,16 L-12,18 L-16,18 L-18,8 L-19,4 L-17,4 L-17,6 L-15,6 L-15,4 L-3,4 L-2,1 Z " fill="#142E1E" transform="translate(110,459)"/>
<path d="M0,0 L1,0 L3,7 L3,12 L2,13 L-8,12 L-15,10 L-19,8 L-19,2 L-10,3 L0,6 Z " fill="#293C2F" transform="translate(181,465)"/>
<path d="M0,0 L4,1 L5,7 L9,11 L12,19 L11,23 L3,23 L1,20 Z " fill="#1B3223" transform="translate(190,525)"/>
<path d="M0,0 L3,1 L3,3 L5,3 L7,7 L13,9 L15,13 L12,15 L11,18 L10,16 L1,15 L-3,9 L-2,1 Z " fill="#18311F" transform="translate(196,496)"/>
<path d="M0,0 L9,0 L9,1 L1,2 L3,4 L1,4 L1,7 L10,8 L11,10 L1,10 L-4,13 L-10,17 L-14,17 L-12,10 L-5,2 Z " fill="#415448" transform="translate(242,358)"/>
<path d="M0,0 L1,2 L1,5 L5,5 L6,2 L8,4 L4,6 L4,11 L0,18 L-5,18 L-6,17 L-14,16 L-15,14 L-12,11 L-7,10 L-2,4 Z " fill="#F3F7F5" transform="translate(71,488)"/>
<path d="M0,0 L1,2 L1,7 L-1,7 L0,13 L-1,20 L1,20 L2,13 L3,15 L5,14 L6,4 L8,3 L6,24 L5,30 L7,30 L8,27 L8,31 L3,30 L1,26 L-2,30 L-3,22 L-3,7 Z " fill="#273A2F" transform="translate(143,456)"/>
<path d="M0,0 L3,3 L4,9 L7,10 L10,15 L9,17 L6,18 L4,21 L-1,18 L-5,15 L-3,5 L-1,4 Z " fill="#2C4135" transform="translate(252,502)"/>
<path d="M0,0 L5,1 L7,6 L7,12 L5,15 L-3,14 L-6,11 L-5,6 L-2,1 Z " fill="#E0E6E3" transform="translate(314,591)"/>
<path d="M0,0 L1,0 L1,6 L-1,9 L1,11 L-4,13 L-7,19 L-11,20 L-20,20 L-21,15 L-11,15 L-10,12 L-19,11 L-18,5 L-17,5 L-17,10 L-10,9 L-9,7 L0,5 Z " fill="#D5DED8" transform="translate(215,373)"/>
<path d="M0,0 L1,0 L2,7 L5,10 L5,12 L7,13 L7,20 L8,23 L5,25 L12,33 L9,33 L0,25 L0,23 L-2,23 L-2,15 L-1,12 Z M0,13 L1,15 Z " fill="#2A3D31" transform="translate(274,486)"/>
<path d="M0,0 L3,0 L3,16 L6,17 L3,21 L5,21 L5,19 L7,19 L5,27 L-2,25 L-2,18 L-3,17 L-2,4 Z " fill="#142D1D" transform="translate(185,454)"/>
<path d="M0,0 L5,3 L6,4 L6,10 L9,11 L8,17 L-1,17 L-2,16 L-3,2 Z " fill="#1F3327" transform="translate(260,518)"/>
<path d="M0,0 L2,1 L2,3 L4,3 L5,11 L7,14 L6,23 L4,27 L4,25 L2,25 L-1,12 L-3,8 L-4,2 Z " fill="#193022" transform="translate(296,439)"/>
<path d="M0,0 L7,4 L19,15 L21,18 L18,22 L9,14 L6,11 L1,9 L1,6 L-1,4 L1,3 Z " fill="#1D2F25" transform="translate(311,253)"/>
<path d="M0,0 L4,2 L6,0 L6,10 L5,18 L3,21 L-2,20 L-3,3 L-1,3 Z " fill="#1F3327" transform="translate(307,480)"/>
<path d="M0,0 L1,0 L2,12 L4,9 L5,12 L8,11 L6,17 L0,23 L-2,23 L-1,27 L-4,26 L-5,18 L-15,18 L-14,16 L-2,15 L-1,12 Z " fill="#394C41" transform="translate(253,475)"/>
<path d="M0,0 L1,2 L21,2 L34,3 L47,3 L46,5 L33,6 L31,9 L42,10 L42,11 L23,11 L23,9 L26,9 L21,7 L20,5 L17,4 L2,4 L-1,4 Z " fill="#2F4237" transform="translate(78,503)"/>
<path d="M0,0 L8,0 L8,16 L6,18 L6,13 L2,16 L-1,15 L-2,18 L-11,19 L-8,16 L-2,14 L0,13 Z " fill="#35463B" transform="translate(197,279)"/>
<path d="M0,0 L3,4 L3,6 L15,5 L11,7 L9,7 L9,10 L13,11 L7,13 L7,20 L5,19 L5,13 L2,13 L2,31 L1,31 L-1,12 L-2,7 Z " fill="#324639" transform="translate(189,513)"/>
<path d="M0,0 L4,1 L5,3 L4,6 L-5,8 L-11,11 L-14,10 L-16,7 L-21,6 L-17,4 L-13,2 L-1,1 Z " fill="#163020" transform="translate(224,498)"/>
<path d="M0,0 L11,1 L12,3 L12,9 L15,10 L14,15 L10,14 L3,9 L-1,7 L1,6 L-1,4 Z M1,4 Z " fill="#1F3626" transform="translate(237,492)"/>
<path d="M0,0 L6,1 L8,5 L8,10 L6,12 L0,12 L-1,8 L-7,8 L-6,3 L-4,1 Z " fill="#283C30" transform="translate(178,409)"/>
<path d="M0,0 L20,1 L20,8 L25,6 L26,6 L26,14 L29,14 L30,20 L22,21 L22,18 L23,16 L20,15 L19,18 L17,18 L17,12 L19,2 L3,2 Z " fill="#405348" transform="translate(120,514)"/>
<path d="M0,0 L4,0 L4,2 L2,3 L2,7 L-24,7 L-24,3 L-15,1 L-5,1 L-5,3 L-7,4 L-3,5 L-4,2 Z " fill="#1E2F25" transform="translate(287,642)"/>
<path d="M0,0 L4,1 L1,5 L3,5 L3,8 L8,7 L30,7 L30,8 L9,9 L-4,12 L-4,10 L-6,10 L-8,6 L-3,1 Z " fill="#43564A" transform="translate(214,234)"/>
<path d="M0,0 L5,5 L8,9 L8,18 L4,19 L-1,13 L-4,8 L-1,8 L0,5 L2,5 Z " fill="#31463B" transform="translate(297,286)"/>
<path d="M0,0 L11,0 L16,3 L15,7 L9,8 L-2,7 L0,6 L-1,1 Z " fill="#1B3022" transform="translate(243,359)"/>
<path d="M0,0 L2,0 L0,10 L-11,10 L-11,8 L-14,7 L-14,3 L-2,2 Z " fill="#1B3021" transform="translate(153,636)"/>
<path d="M0,0 L3,2 L2,5 L0,6 L0,9 L-3,9 L-3,11 L7,11 L7,12 L-7,13 L-11,15 L-14,12 L-18,14 L-15,10 L-13,10 L-13,8 L-6,5 L0,3 Z " fill="#34453A" transform="translate(197,355)"/>
<path d="M0,0 L2,0 L3,7 L-2,16 L-7,17 L-6,10 L-4,10 L-5,6 L-8,7 L-6,3 L-4,1 L-1,1 Z " fill="#132C1D" transform="translate(338,293)"/>
<path d="M0,0 L4,1 L7,3 L16,3 L19,0 L23,0 L24,10 L21,8 L20,2 L16,6 L8,7 L7,9 L1,8 L1,6 L-1,6 L-1,1 Z " fill="#526158" transform="translate(75,618)"/>
<path d="M0,0 L3,3 L3,5 L4,6 L6,11 L5,17 L7,16 L7,20 L2,19 L1,16 L-1,16 L-3,9 L-3,4 L0,4 Z " fill="#192F21" transform="translate(278,403)"/>
<path d="M0,0 L9,0 L8,4 L4,10 L-8,10 L-4,9 L-3,3 L-1,3 L-3,1 Z " fill="#263A2E" transform="translate(222,351)"/>
<path d="M0,0 L6,1 L8,2 L19,3 L17,6 L10,4 L9,10 L-4,7 L-3,2 Z " fill="#2D4033" transform="translate(162,510)"/>
<path d="M0,0 L6,4 L17,4 L17,6 L5,6 L5,8 L3,8 L4,13 L2,13 L2,29 L0,32 L1,11 L-4,11 L-4,10 L1,10 L-3,5 L-10,3 L-10,2 L0,2 Z " fill="#3A4A40" transform="translate(90,457)"/>
<path d="M0,0 L3,3 L4,6 L4,16 L0,18 L-3,18 L-3,3 Z " fill="#12291B" transform="translate(257,470)"/>
<path d="M0,0 L1,0 L3,6 L11,14 L11,17 L4,17 L-4,11 L0,10 L-1,6 L-2,3 L0,3 Z " fill="#2E4036" transform="translate(183,272)"/>
<path d="M0,0 L2,1 L-1,5 L-2,12 L0,13 L-3,15 L-5,20 L-8,17 L-7,13 L-3,13 L-3,7 L-8,9 L-12,9 L-12,4 L-8,2 Z " fill="#F5FBF8" transform="translate(221,506)"/>
<path d="M0,0 L1,0 L1,7 L6,9 L2,11 L-1,17 L-3,16 L-5,22 L-6,33 L-8,34 L-7,21 L-5,12 L-1,2 Z " fill="#CED6D2" transform="translate(159,427)"/>
<path d="M0,0 L2,4 L6,5 L6,7 L3,7 L2,18 L1,18 L1,13 L-2,14 L-5,17 L-7,17 L-7,15 L-5,15 L-5,7 L-4,2 L-1,2 Z " fill="#122A1B" transform="translate(284,470)"/>
<path d="M0,0 L1,4 L3,4 L2,10 L0,10 L1,16 L-1,19 L-1,14 L-8,14 L-9,9 L-7,9 L-6,6 L-1,3 Z M2,8 Z " fill="#24392C" transform="translate(236,436)"/>
<path d="M0,0 L9,0 L11,2 L9,2 L9,5 L6,6 L5,12 L7,13 L5,13 L5,15 L3,15 L3,19 L5,19 L5,22 L-4,22 L-7,18 L2,20 L2,12 L3,11 L3,5 L0,3 Z " fill="#E0E8E4" transform="translate(134,621)"/>
<path d="M0,0 L2,3 L4,8 L6,21 L9,28 L10,35 L10,38 L7,36 L7,29 L4,26 L4,24 L2,24 L1,27 L-2,23 L1,20 L2,11 L2,9 L0,8 Z " fill="#24372C" transform="translate(300,442)"/>
<path d="M0,0 L1,0 L1,8 L0,13 L-3,13 L-4,15 L-9,16 L-8,8 L-4,3 Z " fill="#D0D2CF" transform="translate(80,478)"/>
<path d="M0,0 L15,5 L14,9 L4,8 L-2,6 L-3,2 Z " fill="#29392F" transform="translate(105,631)"/>
<path d="M0,0 L3,3 L6,2 L5,15 L3,15 L1,19 L-1,19 L-1,3 Z " fill="#192D20" transform="translate(130,551)"/>
<path d="M0,0 L2,3 L7,4 L1,12 L-2,11 L-3,15 L-3,17 L-5,17 L-6,15 L-8,14 L-5,8 L-4,3 Z M3,4 Z " fill="#233629" transform="translate(79,491)"/>
<path d="M0,0 L1,4 L-1,8 L1,8 L2,6 L2,11 L-3,9 L-14,9 L-14,7 L-12,5 L-15,4 L-15,2 L0,2 Z " fill="#2E4136" transform="translate(301,470)"/>
<path d="M0,0 L1,0 L2,8 L0,9 L2,12 L-5,15 L-11,15 L-12,14 L-12,9 L0,6 Z " fill="#C1CDC7" transform="translate(131,463)"/>
<path d="M0,0 L13,0 L14,5 L12,7 L-1,7 L-2,2 Z " fill="#152A1F" transform="translate(37,477)"/>
<path d="M0,0 L4,1 L5,5 L7,5 L6,8 L0,12 L-2,8 L-1,4 L-4,7 L-5,10 L-9,11 L-11,12 L-9,8 Z M-4,6 Z " fill="#213728" transform="translate(203,239)"/>
<path d="M0,0 L2,0 L5,3 L8,0 L10,0 L10,2 L13,3 L10,3 L11,6 L8,7 L7,12 L18,13 L18,14 L6,14 L5,8 L0,9 Z " fill="#DFE3E0" transform="translate(151,505)"/>
<path d="M0,0 L9,0 L9,1 L2,3 L1,5 L-2,5 L0,12 L1,15 L6,16 L6,17 L-3,16 L-6,11 L-6,5 Z " fill="#CAD4D0" transform="translate(207,337)"/>
<path d="M0,0 L5,3 L8,12 L10,16 L9,20 L6,13 L3,14 L1,21 L0,21 L0,12 L-2,12 L0,8 L3,7 L0,2 Z " fill="#47594E" transform="translate(266,372)"/>
<path d="M0,0 L1,2 L1,7 L3,9 L11,10 L11,11 L3,11 L1,18 L-4,16 L-6,13 L-6,10 L-2,7 Z " fill="#334639" transform="translate(189,305)"/>
<path d="M0,0 L1,0 L2,11 L1,16 L8,17 L11,18 L10,23 L3,24 L4,21 L2,21 L2,23 L0,23 L2,19 L0,18 Z " fill="#3E4E45" transform="translate(188,452)"/>
<path d="M0,0 L2,2 L3,8 L5,8 L6,12 L4,12 L2,10 L-2,11 L-2,13 L0,14 L-2,17 L-6,6 L-5,1 L-1,3 Z " fill="#334539" transform="translate(294,430)"/>
<path d="M0,0 L2,0 L2,4 L0,4 L1,7 L3,8 L3,5 L8,6 L10,11 L8,11 L7,15 L2,13 L2,10 L-2,8 L-3,4 Z " fill="#1F3527" transform="translate(289,280)"/>
<path d="M0,0 L14,0 L15,5 L8,6 L4,8 L4,2 L-4,3 L-4,1 Z " fill="#44534B" transform="translate(120,443)"/>
<path d="M0,0 L4,0 L3,5 L-1,11 L-5,14 L-8,14 L-7,9 L-4,8 L-2,2 Z " fill="#192E22" transform="translate(212,384)"/>
<path d="M0,0 L5,1 L9,4 L4,9 L-3,9 L-4,6 L-1,1 Z " fill="#1C3024" transform="translate(274,354)"/>
<path d="M0,0 L3,2 L9,4 L11,8 L8,10 L7,13 L6,11 L-1,10 L0,5 L1,4 L-1,2 Z " fill="#132B1C" transform="translate(200,501)"/>
<path d="M0,0 L2,1 L3,4 L3,18 L1,15 L1,13 L-5,16 L-6,12 L-5,4 L-3,7 L1,7 Z " fill="#2A3E31" transform="translate(339,280)"/>
<path d="M0,0 L2,3 L4,10 L10,17 L11,22 L9,21 L9,18 L7,18 L6,16 L2,16 L1,23 L-1,21 L-2,18 L-4,16 L-1,16 L1,10 Z " fill="#3C4F43" transform="translate(192,481)"/>
<path d="M0,0 L9,0 L15,2 L11,4 L10,3 L8,7 L3,14 L0,15 L0,13 L2,13 L4,9 L5,5 L0,5 Z " fill="#3C4F43" transform="translate(17,473)"/>
<path d="M0,0 L7,0 L7,9 L6,10 L-2,10 Z " fill="#EAF0ED" transform="translate(65,466)"/>
<path d="M0,0 L2,1 L3,7 L-4,12 L-8,12 L-6,5 L-4,2 Z " fill="#1A2E24" transform="translate(236,363)"/>
<path d="M0,0 L8,0 L12,1 L12,4 L4,7 L2,8 L0,7 L1,3 L-1,3 L-2,7 L-6,8 Z " fill="#34443B" transform="translate(187,563)"/>
<path d="M0,0 L2,0 L2,2 L4,2 L4,11 L3,12 L-3,12 L-4,11 L-4,4 L0,1 Z " fill="#162C1D" transform="translate(52,487)"/>
<path d="M0,0 L3,2 L6,1 L9,2 L10,6 L4,7 L3,10 L-4,10 L-3,3 Z M0,3 L-2,5 L0,7 L2,3 Z " fill="#25382C" transform="translate(202,373)"/>
<path d="M0,0 L6,1 L13,7 L13,13 L10,9 L9,7 L2,6 L1,2 L-1,2 L-2,6 L1,7 L-4,6 L-3,1 Z M5,4 Z " fill="#E1E8E3" transform="translate(236,500)"/>
<path d="M0,0 L2,0 L1,6 L-5,13 L-10,12 L-8,8 L-6,4 L-3,3 Z " fill="#1B2E24" transform="translate(69,486)"/>
<path d="M0,0 L1,4 L1,9 L1,12 L-3,16 L-5,16 L-4,12 L-7,13 L-7,9 L-6,7 L-4,7 L-2,2 Z M1,6 Z " fill="#1A3022" transform="translate(175,374)"/>
<path d="M0,0 L4,0 L4,3 L2,3 L2,5 L4,5 L4,11 L0,9 L0,15 L-3,14 L-5,4 L-1,3 Z " fill="#162C1F" transform="translate(228,385)"/>
<path d="M0,0 L3,3 L3,15 L4,17 L1,19 L1,21 L-7,21 L-3,19 L-1,19 L-1,17 L-3,17 Z " fill="#1A2F23" transform="translate(283,626)"/>
<path d="M0,0 L3,0 L3,2 L1,3 L0,9 L-2,9 L-3,11 L-6,8 L-12,7 L-12,5 L-7,3 Z " fill="#182E22" transform="translate(242,524)"/>
<path d="M0,0 L6,0 L7,1 L6,10 L5,21 L4,21 L3,11 L1,8 L0,1 Z M0,8 Z " fill="#3C4D43" transform="translate(183,429)"/>
<path d="M0,0 L2,0 L2,6 L-3,8 L-9,7 L-13,10 L-15,9 L-15,6 L-10,4 L-6,4 L-5,2 L-1,1 Z " fill="#152C1F" transform="translate(201,292)"/>
<path d="M0,0 L10,1 L10,4 L9,6 L12,7 L11,10 L7,9 L0,3 Z " fill="#162B1D" transform="translate(260,265)"/>
<path d="M0,0 L4,1 L7,10 L3,8 L1,10 L0,8 L-4,10 L-10,12 L-8,9 L-5,8 L-2,2 Z " fill="#D2D9D4" transform="translate(259,432)"/>
<path d="M0,0 L1,4 L0,5 L-1,18 L1,21 L2,19 L4,25 L4,27 L12,29 L12,30 L4,30 L0,27 L-3,22 L-2,4 Z " fill="#CDD6D3" transform="translate(280,541)"/>
<path d="M0,0 L2,0 L5,6 L6,9 L2,11 L-4,11 L0,10 L0,7 L-10,6 L-10,5 L-4,3 L-1,2 Z " fill="#CFD5D1" transform="translate(199,557)"/>
<path d="M0,0 L7,6 L12,7 L12,9 L5,8 L4,14 L11,16 L11,17 L4,17 L-1,12 L1,12 L1,8 L2,5 L0,4 Z " fill="#415348" transform="translate(212,561)"/>
<path d="M0,0 L1,0 L2,7 L-1,14 L-3,13 L-4,14 L-8,13 L-6,12 L-7,3 L-1,3 Z " fill="#263C2D" transform="translate(190,476)"/>
<path d="M0,0 L4,1 L4,6 L-1,10 L-6,9 L-6,5 L-3,2 L0,1 Z " fill="#112819" transform="translate(285,347)"/>
<path d="M0,0 L1,2 L2,6 L5,5 L4,9 L-2,13 L-5,13 L-4,6 Z " fill="#314138" transform="translate(199,413)"/>
<path d="M0,0 L2,1 L1,5 L3,5 L2,7 L-4,5 L-13,5 L-18,7 L-24,12 L-25,8 L-22,5 L-18,5 L-17,3 L-2,2 Z " fill="#E2E9E4" transform="translate(255,354)"/>
<path d="M0,0 L3,1 L1,2 L2,9 L-1,12 L-5,11 L-7,10 L-6,14 L-8,14 L-9,9 L-6,6 L-3,6 L-1,1 Z M-3,3 Z " fill="#162C1F" transform="translate(201,242)"/>
<path d="M0,0 L7,0 L11,2 L12,4 L16,4 L16,6 L-3,5 L0,3 L-3,1 Z " fill="#13271B" transform="translate(88,506)"/>
<path d="M0,0 L5,1 L5,6 L1,8 L0,11 L-3,12 L-3,3 Z " fill="#DCE7DF" transform="translate(61,482)"/>
<path d="M0,0 L3,1 L3,14 L1,14 L1,12 L-2,11 L-2,9 L-5,8 L-3,8 L-2,1 Z " fill="#173120" transform="translate(262,421)"/>
<path d="M0,0 L2,1 L4,8 L2,12 L0,12 L0,10 L-4,9 L-3,2 Z " fill="#172D1F" transform="translate(271,384)"/>
<path d="M0,0 L2,1 L1,3 L11,3 L10,6 L10,4 L0,6 L-5,9 L-6,6 L-8,5 L-17,4 L-17,3 L-3,2 Z " fill="#CAD4CC" transform="translate(207,364)"/>
<path d="M0,0 L1,0 L3,8 L0,10 L7,18 L4,18 L-5,10 L-4,6 L-1,5 Z " fill="#2E4135" transform="translate(279,501)"/>
<path d="M0,0 L8,0 L8,3 L7,6 L16,7 L16,8 L5,8 L0,5 Z " fill="#38473E" transform="translate(57,504)"/>
<path d="M0,0 L1,0 L1,13 L0,23 L-5,25 L-7,27 L-10,26 L-4,18 L-1,12 Z " fill="#C3CDC6" transform="translate(342,286)"/>
<path d="M0,0 L8,0 L14,4 L10,6 L9,11 L7,7 L2,5 L2,1 Z " fill="#233429" transform="translate(312,586)"/>
<path d="M0,0 L1,2 L0,7 L2,7 L3,10 L6,10 L7,7 L9,9 L8,14 L2,14 L-2,10 L-1,1 Z " fill="#2E3D34" transform="translate(16,488)"/>
<path d="M0,0 L8,0 L8,4 L3,4 L3,15 L2,15 L2,7 L-5,7 L-5,13 L-6,13 L-6,6 L1,6 Z " fill="#CDD8D2" transform="translate(70,459)"/>
<path d="M0,0 L4,3 L4,9 L1,12 L-3,11 L-3,4 L-2,2 L0,2 Z M-2,8 Z " fill="#142B1D" transform="translate(178,372)"/>
<path d="M0,0 L2,0 L2,3 L0,3 L0,5 L-2,6 L-3,9 L-12,9 L-9,8 L-10,5 L-7,5 L-7,3 Z " fill="#1B3023" transform="translate(298,639)"/>
<path d="M0,0 L1,0 L1,12 L-2,16 L-9,15 L-9,17 L-13,16 L-18,15 L-18,10 L-17,14 L-3,12 L0,11 Z " fill="#B9C4BD" transform="translate(178,542)"/>
<path d="M0,0 L6,0 L5,8 L0,8 L-2,13 L-3,9 L-2,2 Z " fill="#D5DCD8" transform="translate(165,409)"/>
<path d="M0,0 L1,3 L4,2 L3,16 L2,21 L1,21 L1,13 L-2,12 L-2,4 Z " fill="#324137" transform="translate(284,620)"/>
<path d="M0,0 L1,3 L1,5 L9,6 L9,7 L0,7 L-10,6 L-9,1 Z " fill="#13281B" transform="translate(73,505)"/>
<path d="M0,0 L3,1 L3,3 L-2,4 L-2,7 L2,8 L-1,9 L0,13 L-3,12 L-4,4 L-14,4 L-13,2 Z " fill="#44574B" transform="translate(252,489)"/>
<path d="M0,0 L13,1 L13,13 L10,21 L9,19 L11,9 L9,8 L10,2 L1,2 Z " fill="#D2DCD8" transform="translate(138,576)"/>
<path d="M0,0 L11,0 L13,4 L10,6 L9,8 L-2,7 L-1,4 L5,4 L7,5 L6,2 L0,1 Z " fill="#2B3D33" transform="translate(150,544)"/>
<path d="M0,0 L4,4 L7,4 L9,2 L8,12 L10,12 L11,9 L11,13 L6,12 L4,8 L1,12 Z " fill="#607066" transform="translate(140,474)"/>
<path d="M0,0 L6,1 L10,0 L10,2 L7,4 L3,6 L1,6 L1,8 L3,8 L2,11 L0,10 L0,7 L-2,7 L-2,5 L-4,4 L-2,1 Z " fill="#E5EBE8" transform="translate(184,403)"/>
<path d="M0,0 L11,0 L11,2 L17,3 L19,5 L15,6 L14,4 L4,2 L7,7 L9,10 L5,8 L0,3 Z " fill="#4F5D54" transform="translate(256,263)"/>
<path d="M0,0 L1,2 L9,2 L10,8 L1,8 Z M-1,4 Z " fill="#152A1C" transform="translate(224,552)"/>
<path d="M0,0 L2,1 L4,2 L5,11 L0,10 L-3,5 L-2,1 L0,2 Z " fill="#2C3E34" transform="translate(244,541)"/>
<path d="M0,0 L7,0 L3,2 L9,3 L9,4 L2,6 L0,11 L-4,10 L-4,4 L0,3 Z " fill="#142C1D" transform="translate(140,529)"/>
<path d="M0,0 L1,0 L3,7 L3,12 L2,13 L-4,13 L-7,10 L-4,7 L0,7 Z " fill="#213527" transform="translate(181,465)"/>
<path d="M0,0 L2,1 L2,10 L-5,11 L-4,4 Z " fill="#122A1A" transform="translate(59,463)"/>
<path d="M0,0 L5,0 L6,1 L6,6 L9,6 L9,8 L5,9 L5,7 L3,7 L3,5 L0,5 L-1,8 L-2,2 Z " fill="#38473E" transform="translate(217,458)"/>
<path d="M0,0 L8,0 L8,6 L3,6 L3,14 L2,14 L1,6 L0,5 Z " fill="#1E3025" transform="translate(197,279)"/>
<path d="M0,0 L3,0 L2,7 L0,11 L-2,8 L-4,12 L-4,1 Z " fill="#14271B" transform="translate(78,463)"/>
<path d="M0,0 L2,1 L5,11 L6,17 L0,20 L0,14 L1,13 Z " fill="#DAE0DC" transform="translate(209,525)"/>
<path d="M0,0 L1,2 L1,5 L5,5 L6,2 L8,4 L4,6 L4,11 L2,12 L0,9 L-7,11 L-2,4 Z " fill="#BAC3BE" transform="translate(71,488)"/>
<path d="M0,0 L4,1 L1,2 L1,6 L6,8 L5,12 L1,13 L1,9 L-2,9 L-1,1 Z M-6,6 L-4,6 L-2,10 L-5,10 Z " fill="#2E3F34" transform="translate(232,500)"/>
<path d="M0,0 L3,1 L6,4 L7,9 L4,7 L2,10 L-1,9 L-2,3 Z " fill="#21362A" transform="translate(274,449)"/>
<path d="M0,0 L2,2 L4,1 L2,6 L-3,5 L-10,8 L-11,13 L-13,16 L-14,15 L-13,7 L-9,4 L-2,2 Z M-1,3 L0,5 Z " fill="#CDD5D1" transform="translate(203,297)"/>
<path d="M0,0 L1,4 L4,5 L-1,10 L-4,8 L-20,7 L-20,6 L-5,5 L-1,3 Z " fill="#3D5145" transform="translate(53,470)"/>
<path d="M0,0 L2,0 L3,7 L0,13 L-2,10 L-1,8 L-3,8 L-4,3 Z " fill="#182F21" transform="translate(338,293)"/>
<path d="M0,0 L3,3 L4,5 L4,8 L6,10 L4,10 L3,14 L0,11 L0,9 L-3,8 L-3,5 L0,5 Z " fill="#132919" transform="translate(210,560)"/>
<path d="M0,0 L10,0 L10,1 L5,1 L5,3 L10,3 L10,4 L2,5 L0,13 L-2,13 L-1,1 Z " fill="#CCD7D1" transform="translate(288,478)"/>
<path d="M0,0 L10,0 L12,1 L12,4 L0,5 L0,2 Z M9,1 Z " fill="#F0F8F5" transform="translate(167,433)"/>
<path d="M0,0 L9,0 L9,1 L2,1 L2,3 L-3,7 L-7,8 L-8,16 L-9,16 L-9,7 L-2,1 Z " fill="#59685F" transform="translate(176,256)"/>
<path d="M0,0 L1,0 L1,9 L3,9 L3,7 L5,7 L4,11 L0,21 L-1,21 L-2,14 L1,15 L1,12 L-1,12 L-2,7 Z " fill="#324539" transform="translate(321,597)"/>
<path d="M0,0 L2,0 L3,6 L5,6 L5,14 L1,19 L-2,20 L0,14 L1,12 L1,5 Z " fill="#DFE8E5" transform="translate(326,590)"/>
<path d="M0,0 L6,0 L6,1 L0,3 L-3,5 L1,7 L-9,8 L-11,5 L-8,5 L-8,2 L-3,1 Z " fill="#D2DBD5" transform="translate(228,560)"/>
<path d="M0,0 L4,1 L5,7 L7,8 L6,12 L1,10 L0,8 Z " fill="#172D1F" transform="translate(190,525)"/>
<path d="M0,0 L2,1 L1,6 L4,5 L4,8 L2,7 L2,13 L0,15 L-1,10 L-10,10 L-10,9 L-2,9 L-1,6 L-2,2 Z " fill="#1A3423" transform="translate(180,490)"/>
<path d="M0,0 L5,0 L8,3 L8,5 L2,7 L-1,10 L-2,7 Z " fill="#EEF7F2" transform="translate(83,462)"/>
<path d="M0,0 L2,1 L-1,8 L4,9 L4,10 L-8,10 L-7,5 L-2,3 Z " fill="#C8D1CA" transform="translate(124,451)"/>
<path d="M0,0 L7,6 L5,11 L-3,5 L-5,2 L0,3 Z " fill="#303F38" transform="translate(325,264)"/>
<path d="M0,0 L3,3 L3,11 L1,12 L-5,12 L-4,8 L1,6 Z " fill="#404F45" transform="translate(214,536)"/>
<path d="M0,0 L2,0 L2,5 L7,3 L11,3 L11,9 L9,8 L10,4 L5,7 L3,10 L1,8 L-1,7 L-1,3 L-3,3 L-4,5 L-5,2 L-1,1 Z " fill="#43554B" transform="translate(207,510)"/>
<path d="M0,0 L1,2 L3,2 L4,7 L0,9 L-1,11 L-4,5 L-6,2 L-3,1 L0,2 Z " fill="#253A2E" transform="translate(200,546)"/>
<path d="M0,0 L3,1 L6,7 L5,9 L1,7 L1,11 L-1,11 L-2,2 Z " fill="#B9C6BF" transform="translate(188,498)"/>
<path d="M0,0 L2,0 L3,2 L3,8 L6,9 L5,14 L1,13 L1,6 L-1,6 Z " fill="#193024" transform="translate(246,493)"/>
<path d="M0,0 L2,1 L-7,4 L-8,7 L-13,8 L-13,9 L-19,9 L-14,4 L-13,2 Z " fill="#2F4337" transform="translate(227,328)"/>
<path d="M0,0 L3,1 L3,5 L8,9 L6,10 L0,10 L-2,7 L-2,4 L0,4 Z " fill="#152D1E" transform="translate(290,243)"/>
<path d="M0,0 L8,0 L9,2 L5,3 L-1,4 L-1,17 L-3,17 L-3,3 Z " fill="#B8C4BD" transform="translate(139,549)"/>
<path d="M0,0 L2,1 L5,9 L7,12 L7,18 L5,18 L4,20 L4,10 L2,10 L0,7 Z M5,7 Z " fill="#D3DDD9" transform="translate(309,470)"/>
<path d="M0,0 L5,0 L6,2 L4,3 L5,5 L3,5 L2,7 L-8,3 L-9,1 L-2,2 Z " fill="#182C1F" transform="translate(54,455)"/>
<path d="M0,0 L12,0 L11,2 L8,3 L10,5 L-1,6 L2,3 L0,2 Z " fill="#172C1F" transform="translate(66,452)"/>
<path d="M0,0 L2,0 L3,7 L-2,12 L-4,12 L-5,9 L-1,6 L-1,2 Z " fill="#172D20" transform="translate(313,623)"/>
<path d="M0,0 L2,3 L3,18 L7,19 L8,17 L8,20 L-3,21 L-5,22 L-5,18 L1,18 Z " fill="#A7B1AA" transform="translate(303,482)"/>
<path d="M0,0 L2,0 L3,10 L2,17 L1,17 L0,2 L-17,2 L-17,1 Z " fill="#32443B" transform="translate(181,448)"/>
<path d="M0,0 L9,0 L10,2 L8,2 L8,4 L6,5 L-1,5 Z " fill="#F6F8F7" transform="translate(196,384)"/>
<path d="M0,0 L5,0 L5,3 L13,4 L16,6 L-2,6 L-3,4 L2,3 Z " fill="#11281A" transform="translate(216,331)"/>
<path d="M0,0 L4,3 L4,17 L1,13 L1,8 L-1,8 L-1,2 Z " fill="#2C4035" transform="translate(236,323)"/>
<path d="M0,0 L5,0 L6,6 L15,4 L14,7 L3,7 L3,5 L0,4 Z " fill="#616C65" transform="translate(139,639)"/>
<path d="M0,0 L1,4 L-1,11 L-11,12 L-10,10 L-7,10 L-5,6 L-2,5 Z " fill="#C3CDC7" transform="translate(281,632)"/>
<path d="M0,0 L8,1 L9,5 L6,6 L-1,6 L-2,2 Z " fill="#152B1E" transform="translate(148,544)"/>
<path d="M0,0 L3,1 L3,3 L6,3 L8,6 L7,10 L3,8 L-2,2 Z " fill="#172F20" transform="translate(280,509)"/>
<path d="M0,0 L4,1 L1,3 L-2,8 L-7,10 L-13,9 L-13,8 L-7,6 Z " fill="#CDD7D1" transform="translate(233,468)"/>
<path d="M0,0 L4,4 L4,9 L0,10 L-3,2 Z " fill="#192C21" transform="translate(336,278)"/>
<path d="M0,0 L1,0 L2,5 L3,9 L6,10 L2,12 L-3,11 L-2,6 L0,6 Z " fill="#3B4A42" transform="translate(222,551)"/>
<path d="M0,0 L7,0 L7,1 L2,2 L3,4 L0,4 L0,6 L4,6 L4,8 L0,9 L-3,5 L-8,4 L-4,2 Z " fill="#3A4E41" transform="translate(211,500)"/>
<path d="M0,0 L3,1 L3,3 L9,3 L5,7 L-1,8 L-1,1 Z " fill="#2F4137" transform="translate(95,469)"/>
<path d="M0,0 L2,1 L1,2 L1,8 L5,14 L8,17 L7,19 L3,18 L0,13 L-1,9 L-1,1 Z " fill="#425249" transform="translate(247,444)"/>
<path d="M0,0 L5,0 L7,6 L9,7 L8,11 L6,16 L4,16 L4,2 Z " fill="#D6DEDA" transform="translate(48,436)"/>
<path d="M0,0 L1,0 L2,5 L2,13 L1,9 L-2,9 L-7,2 L-1,2 Z " fill="#C5D0CA" transform="translate(196,279)"/>
<path d="M0,0 L1,0 L3,8 L5,11 L-2,14 L-9,13 L-10,11 L-2,11 Z " fill="#C9D3CE" transform="translate(121,628)"/>
<path d="M0,0 L2,1 L2,12 L1,13 L-6,14 L-9,16 L-7,12 L-6,11 L0,11 Z " fill="#A9B5AE" transform="translate(268,539)"/>
<path d="M0,0 L10,0 L18,3 L14,4 L13,11 L11,12 L12,5 L9,4 L9,2 L0,2 Z " fill="#A6B1AB" transform="translate(69,458)"/>
<path d="M0,0 L1,4 L-1,4 L-1,6 L-4,6 L-5,8 L-13,8 L-12,5 L-4,4 Z " fill="#1A2F23" transform="translate(95,619)"/>
<path d="M0,0 L3,1 L3,5 L-7,5 L-6,1 Z " fill="#1C2B22" transform="translate(165,512)"/>
<path d="M0,0 L2,0 L4,2 L2,20 L-1,21 L0,17 Z " fill="#CCD5CF" transform="translate(260,471)"/>
<path d="M0,0 L6,0 L10,3 L8,5 L10,7 L5,7 L2,4 L2,2 L0,2 Z " fill="#192B20" transform="translate(163,468)"/>
<path d="M0,0 L4,1 L9,7 L8,9 L3,8 L4,4 L-1,7 L-5,6 L-1,4 Z " fill="#C2CCC5" transform="translate(242,463)"/>
<path d="M0,0 L0,3 L-1,7 L-6,11 L-19,12 L-17,10 L-7,8 Z " fill="#4B5B51" transform="translate(332,294)"/>
<path d="M0,0 L15,3 L16,5 L9,6 L5,4 L1,2 L1,4 L-1,4 Z " fill="#D1DAD3" transform="translate(76,626)"/>
<path d="M0,0 L2,0 L3,8 L2,10 L20,12 L20,13 L8,13 L1,11 L0,6 Z " fill="#A3B0A9" transform="translate(158,480)"/>
<path d="M0,0 L1,0 L1,8 L-4,11 L-6,9 L-2,2 Z " fill="#F5F8F6" transform="translate(80,478)"/>
<path d="M0,0 L2,0 L0,4 L-7,7 L-13,11 L-15,9 L-6,3 Z " fill="#CED8D1" transform="translate(224,406)"/>
<path d="M0,0 L4,0 L4,2 L2,3 L2,7 L-9,6 L-9,5 L-3,5 L-4,2 Z " fill="#263C2F" transform="translate(287,642)"/>
<path d="M0,0 L5,3 L5,6 L12,6 L13,12 L12,10 L10,9 L11,7 L3,7 L1,9 Z " fill="#324138" transform="translate(222,547)"/>
<path d="M0,0 L2,1 L3,9 L1,12 L-5,13 L-5,11 L-2,11 L-2,6 L0,6 Z " fill="#BCC6C0" transform="translate(222,388)"/>
<path d="M0,0 L3,0 L6,4 L6,7 L1,10 L-1,5 L1,5 Z " fill="#172E21" transform="translate(263,372)"/>
<path d="M0,0 L2,1 L-3,7 L-6,10 L-16,10 L-17,5 L-15,4 L-15,8 L-8,8 Z " fill="#AEB7B2" transform="translate(286,354)"/>
<path d="M0,0 L4,1 L9,4 L10,7 L4,7 L4,5 L-1,3 Z M3,3 Z " fill="#203329" transform="translate(184,281)"/>
<path d="M0,0 L5,1 L5,3 L7,4 L6,8 L2,7 L2,5 L-1,5 Z " fill="#192D21" transform="translate(306,252)"/>
<path d="M0,0 L2,3 L14,4 L17,7 L15,8 L15,6 L5,6 L1,9 L1,6 L-2,4 Z M12,6 Z " fill="#E3E9E7" transform="translate(164,428)"/>
<path d="M0,0 L19,0 L19,6 L17,8 L13,7 L18,5 L18,1 L-3,2 Z " fill="#ACB6B1" transform="translate(257,331)"/>
<path d="M0,0 L2,0 L0,4 L1,6 L-2,7 L-11,6 L-7,3 Z " fill="#BCC7C1" transform="translate(322,318)"/>
<path d="M0,0 L13,0 L14,3 L-3,3 L-4,1 Z " fill="#CBD3CE" transform="translate(195,312)"/>
<path d="M0,0 L3,1 L4,3 L7,3 L8,5 L11,6 L11,11 L3,5 L-1,1 Z M3,0 L5,1 Z " fill="#C1CCC7" transform="translate(315,253)"/>
<path d="M0,0 L6,0 L6,3 L8,4 L7,5 L-2,5 Z " fill="#E6ECE9" transform="translate(202,251)"/>
<path d="M0,0 L3,2 L3,5 L8,5 L9,11 L7,10 L4,10 L4,7 L1,8 Z " fill="#505E55" transform="translate(218,532)"/>
<path d="M0,0 L3,1 L2,4 L4,4 L4,6 L12,6 L12,11 L11,7 L2,8 L0,6 Z " fill="#B5BDB8" transform="translate(235,517)"/>
<path d="M0,0 L1,0 L2,7 L4,7 L5,3 L7,4 L3,10 L3,12 L6,14 L1,13 L-1,12 Z " fill="#798980" transform="translate(57,486)"/>
<path d="M0,0 L15,0 L15,4 L10,6 L8,2 L0,1 Z " fill="#38473F" transform="translate(260,332)"/>
<path d="M0,0 L1,2 L-1,7 L-6,11 L-9,18 L-11,18 L-9,12 Z " fill="#99A69E" transform="translate(174,588)"/>
<path d="M0,0 L4,0 L4,2 L14,1 L18,0 L18,2 L11,5 L6,5 L0,1 Z " fill="#687A6F" transform="translate(163,571)"/>
<path d="M0,0 L6,1 L4,6 L3,7 L-2,7 Z " fill="#122E1B" transform="translate(217,569)"/>
<path d="M0,0 L1,4 L0,6 L-2,6 L-2,12 L-5,12 L-4,18 L-6,15 L-7,10 L-3,9 L-3,2 L0,2 Z " fill="#38473D" transform="translate(245,524)"/>
<path d="M0,0 L5,2 L1,4 L-3,6 L-5,6 L-5,8 L1,8 L1,9 L-6,9 L-5,2 L-2,3 L-1,1 Z " fill="#36493E" transform="translate(235,523)"/>
<path d="M0,0 L5,0 L1,2 L-1,2 L-1,5 L3,6 L-3,8 L-3,4 L-6,4 L-7,1 Z " fill="#4B5E52" transform="translate(199,518)"/>
<path d="M0,0 L1,0 L1,8 L-1,11 L-6,10 L-6,5 L-3,2 L-3,6 L-1,6 Z " fill="#314138" transform="translate(311,490)"/>
<path d="M0,0 L2,0 L2,4 L0,4 L0,6 L-7,5 L-12,6 L-9,3 L-1,1 Z " fill="#1A3325" transform="translate(231,494)"/>
<path d="M0,0 L4,2 L-1,6 L-5,13 L-6,11 L-4,5 Z " fill="#D6DED9" transform="translate(156,396)"/>
<path d="M0,0 L8,0 L8,3 L8,5 L1,6 L1,3 L-1,1 Z M0,6 Z " fill="#162D20" transform="translate(262,333)"/>
<path d="M0,0 L9,3 L6,4 L4,5 L4,8 L-2,6 L0,4 Z " fill="#3E4F45" transform="translate(99,628)"/>
<path d="M0,0 L2,2 L1,5 L16,5 L16,6 L1,7 L0,10 L-2,10 L-3,6 L0,5 Z " fill="#D2DCD6" transform="translate(101,618)"/>
<path d="M0,0 L2,1 L3,12 L2,14 L0,14 L-1,17 L-2,13 L-4,11 L0,10 Z " fill="#CFD6D2" transform="translate(256,523)"/>
<path d="M0,0 L2,1 L2,3 L-1,4 L0,7 L-9,8 L-7,5 L-5,5 L-5,3 Z " fill="#314338" transform="translate(209,405)"/>
<path d="M0,0 L1,2 L6,2 L6,10 L2,13 L0,12 L4,7 L5,3 L-4,4 Z " fill="#44554A" transform="translate(289,331)"/>
<path d="M0,0 L2,1 L0,6 L-2,6 L-3,11 L-11,12 L-8,10 L-4,6 L-1,1 Z " fill="#B6C0B9" transform="translate(192,568)"/>
<path d="M0,0 L1,3 L4,3 L5,9 L-3,10 L-3,7 L0,4 Z " fill="#435249" transform="translate(145,525)"/>
<path d="M0,0 L2,0 L1,5 L-3,5 L-4,8 L-7,9 L-6,3 L-1,1 Z " fill="#112817" transform="translate(215,514)"/>
<path d="M0,0 L1,0 L1,6 L12,7 L16,9 L16,10 L11,10 L10,9 L-2,7 L-2,4 L0,4 Z " fill="#57645C" transform="translate(305,503)"/>
<path d="M0,0 L2,2 L3,11 L0,18 L-1,18 L-2,10 L0,9 L2,10 L0,4 Z " fill="#36493D" transform="translate(282,459)"/>
<path d="M0,0 L3,3 L1,4 L1,20 L-1,23 L0,2 L-5,2 L-5,1 Z " fill="#88978E" transform="translate(91,466)"/>
<path d="M0,0 L4,1 L6,2 L6,4 L-1,3 L-14,3 L-13,1 Z " fill="#CFD8D3" transform="translate(180,425)"/>
<path d="M0,0 L2,3 L0,7 L-1,5 L-8,6 L-17,5 L-17,4 L-2,3 Z " fill="#B2BAB4" transform="translate(228,357)"/>
<path d="M0,0 L1,0 L1,7 L5,8 L7,9 L7,11 L4,12 L7,12 L6,15 L1,10 L0,8 Z " fill="#293A2E" transform="translate(168,264)"/>
<path d="M0,0 L3,2 L4,5 L7,7 L15,8 L15,9 L4,10 L2,9 Z " fill="#44554B" transform="translate(277,563)"/>
<path d="M0,0 L2,0 L2,2 L0,4 L-1,7 L-7,6 L-7,2 Z " fill="#1A3022" transform="translate(218,500)"/>
<path d="M0,0 L2,0 L1,4 L-1,6 L-6,6 L-7,3 L-4,1 Z " fill="#27382E" transform="translate(256,490)"/>
<path d="M0,0 L1,2 L1,7 L0,8 L-1,18 L-2,18 L-3,4 Z " fill="#B1BFB7" transform="translate(172,389)"/>
<path d="M0,0 L2,1 L0,5 L-2,5 L-3,11 L0,11 L0,13 L-5,14 L-7,15 L-4,6 L-1,1 Z " fill="#D1D8D4" transform="translate(188,368)"/>
<path d="M0,0 L2,1 L-1,6 L4,7 L4,9 L-3,9 L-4,6 L-1,1 Z " fill="#344139" transform="translate(274,354)"/>
<path d="M0,0 L6,1 L6,2 L0,4 L-3,7 L-9,7 L-6,6 L-5,3 L-2,3 L-2,1 Z " fill="#283B2E" transform="translate(272,312)"/>
<path d="M0,0 L8,3 L8,4 L-2,5 L-2,1 Z " fill="#13261B" transform="translate(105,631)"/>
<path d="M0,0 L3,0 L2,6 L8,5 L6,6 L6,8 L-2,8 L0,7 L-1,2 Z " fill="#122A1A" transform="translate(76,501)"/>
<path d="M0,0 L7,1 L8,3 L3,4 L-1,8 L-2,6 Z " fill="#223129" transform="translate(231,488)"/>
<path d="M0,0 L2,1 L2,4 L0,4 L0,15 L1,22 L-1,21 L-2,17 L-2,4 Z " fill="#55625B" transform="translate(14,426)"/>
<path d="M0,0 L3,2 L3,8 L-1,7 L-3,2 Z " fill="#1C2E25" transform="translate(301,297)"/>
<path d="M0,0 L1,0 L1,12 L-1,21 L-3,22 L-3,15 L-1,11 Z " fill="#9FABA5" transform="translate(285,602)"/>
<path d="M0,0 L2,1 L3,3 L2,8 L-1,10 L-2,8 L-2,1 Z " fill="#DDE6E0" transform="translate(198,525)"/>
<path d="M0,0 L2,0 L2,4 L4,4 L3,8 L2,6 L-4,8 L-1,1 Z " fill="#293E30" transform="translate(185,505)"/>
<path d="M0,0 L2,0 L2,8 L1,11 L7,11 L7,12 L0,12 L-1,2 Z " fill="#45594D" transform="translate(62,465)"/>
<path d="M0,0 L3,3 L1,11 L0,9 L-2,9 L-2,1 Z " fill="#152B1E" transform="translate(300,455)"/>
<path d="M0,0 L2,0 L1,5 L-2,9 L-2,12 L-5,12 L-4,6 L-3,4 L0,4 Z " fill="#DBE2DF" transform="translate(209,316)"/>
<path d="M0,0 L5,0 L9,3 L13,5 L11,6 L6,4 L5,6 L3,2 L-2,4 Z M2,2 Z M1,3 Z " fill="#BBC5C0" transform="translate(273,314)"/>
<path d="M0,0 L4,1 L4,3 L2,3 L1,7 L-2,6 L-3,1 Z " fill="#152C1C" transform="translate(295,288)"/>
<path d="M0,0 L9,0 L9,1 L1,2 L1,6 L-1,6 L-2,8 L-3,7 L-3,1 Z " fill="#D2DDD6" transform="translate(187,270)"/>
<path d="M0,0 L7,4 L4,5 L4,10 L0,8 L1,6 L-1,4 L1,3 Z " fill="#32453A" transform="translate(311,253)"/>
<path d="M0,0 L3,3 L2,14 L-1,14 L-1,6 Z " fill="#0F1E15" transform="translate(283,626)"/>
<path d="M0,0 L3,3 L2,11 L0,8 L-2,5 L-2,2 L0,2 Z " fill="#172B20" transform="translate(216,531)"/>
<path d="M0,0 L1,4 L3,5 L0,7 L-2,12 L-5,9 L-4,5 L0,5 Z " fill="#CAD4CE" transform="translate(218,514)"/>
<path d="M0,0 L6,0 L9,2 L9,4 L1,4 L1,6 L-1,6 L-2,3 L0,3 Z " fill="#13291B" transform="translate(172,514)"/>
<path d="M0,0 L2,3 L0,5 L-3,9 L-5,9 L-6,14 L-7,14 L-6,7 L-3,6 L-1,2 Z " fill="#14281B" transform="translate(23,481)"/>
<path d="M0,0 L1,0 L1,9 L-1,11 L-1,9 L-3,9 L-5,2 L-1,3 Z " fill="#233B2D" transform="translate(286,480)"/>
<path d="M0,0 L4,0 L1,9 L0,6 L-2,6 L-2,1 Z " fill="#C9D4CE" transform="translate(193,475)"/>
<path d="M0,0 L1,0 L1,14 L4,13 L5,16 L1,15 L1,17 L3,17 L2,20 L0,18 Z " fill="#5F6D65" transform="translate(233,416)"/>
<path d="M0,0 L0,3 L3,7 L-2,8 L-4,4 L-3,1 Z " fill="#FAFAFA" transform="translate(163,428)"/>
<path d="M0,0 L5,1 L4,8 L0,7 Z " fill="#D2DBD5" transform="translate(234,394)"/>
<path d="M0,0 L2,1 L3,7 L0,8 L-3,4 L-5,5 L-4,2 Z " fill="#23372B" transform="translate(236,363)"/>
<path d="M0,0 L5,5 L7,8 L2,7 L2,10 L-1,9 L-1,6 L1,6 Z " fill="#2E4334" transform="translate(290,278)"/>
<path d="M0,0 L4,2 L6,4 L5,14 L4,14 L4,6 L2,6 Z M2,3 Z " fill="#C9D2CD" transform="translate(282,588)"/>
<path d="M0,0 L4,1 L-1,2 L-2,9 L-5,12 L-5,6 L-3,6 L-2,1 Z " fill="#3F5046" transform="translate(177,579)"/>
<path d="M0,0 L3,1 L3,4 L5,4 L3,11 L0,9 L0,6 L2,6 L1,4 L-1,3 Z " fill="#2B4133" transform="translate(207,555)"/>
<path d="M0,0 L7,2 L4,10 L2,8 L0,3 Z " fill="#1E2F23" transform="translate(199,552)"/>
<path d="M0,0 L8,1 L6,6 L6,7 L-1,7 L2,6 L2,2 Z " fill="#35473D" transform="translate(141,542)"/>
<path d="M0,0 L3,1 L2,3 L0,3 L0,12 L-1,12 L-1,5 L-4,5 L-3,1 Z " fill="#11261B" transform="translate(230,509)"/>
<path d="M0,0 L3,0 L4,3 L8,4 L4,6 L0,6 L-1,2 Z " fill="#E2EBE7" transform="translate(203,497)"/>
<path d="M0,0 L6,2 L5,6 L0,5 L-3,6 L-1,1 Z " fill="#284032" transform="translate(110,455)"/>
<path d="M0,0 L1,3 L10,3 L9,10 L8,10 L8,5 L1,5 Z " fill="#6B776F" transform="translate(227,445)"/>
<path d="M0,0 L10,0 L10,2 L8,3 L-1,3 Z " fill="#16251C" transform="translate(168,428)"/>
<path d="M0,0 L5,0 L5,6 L3,7 L3,5 L-1,6 L-2,2 Z " fill="#24392D" transform="translate(166,386)"/>
<path d="M0,0 L1,2 L-1,2 L-1,5 L-5,6 L-6,8 L-6,6 L-11,6 L-10,1 L-9,3 L-10,5 L-3,2 Z " fill="#B6C0BB" transform="translate(238,370)"/>
<path d="M0,0 L4,1 L1,2 L0,4 L-9,4 L-9,2 Z " fill="#58675F" transform="translate(272,643)"/>
<path d="M0,0 L2,2 L2,6 L-1,8 L-3,14 L-4,10 Z M2,1 Z " fill="#C3CEC7" transform="translate(323,611)"/>
<path d="M0,0 L3,1 L14,1 L11,4 L9,4 L8,6 L8,4 L3,4 L0,2 Z " fill="#DCE2E0" transform="translate(213,576)"/>
<path d="M0,0 L1,4 L15,4 L16,6 L9,5 L9,7 L5,6 L0,5 Z " fill="#D4DBD8" transform="translate(160,552)"/>
<path d="M0,0 L2,4 L3,6 L5,7 L5,9 L-1,9 L-2,5 Z " fill="#1C3124" transform="translate(250,510)"/>
<path d="M0,0 L2,0 L5,3 L6,5 L4,5 L3,8 L0,9 Z " fill="#D2D8D5" transform="translate(151,505)"/>
<path d="M0,0 L3,1 L1,1 L1,5 L4,5 L4,7 L8,5 L11,6 L10,8 L3,8 L0,7 Z " fill="#E3ECE8" transform="translate(306,502)"/>
<path d="M0,0 L2,3 L7,4 L2,9 L0,3 L-2,2 Z M3,4 Z " fill="#2E4235" transform="translate(79,491)"/>
<path d="M0,0 L5,1 L4,5 L-4,4 L-5,2 Z " fill="#152A1D" transform="translate(165,493)"/>
<path d="M0,0 L6,0 L6,2 L9,3 L8,4 L1,4 Z " fill="#DFE6E2" transform="translate(120,473)"/>
<path d="M0,0 L2,1 L1,5 L0,6 L-13,6 L-13,5 L-1,3 Z " fill="#5B6D63" transform="translate(180,433)"/>
<path d="M0,0 L4,2 L5,7 L0,5 L-2,5 L-1,1 Z " fill="#142B1D" transform="translate(289,427)"/>
<path d="M0,0 L2,1 L0,3 L2,7 L-4,9 L-3,3 Z " fill="#2F4236" transform="translate(157,399)"/>
<path d="M0,0 L5,1 L5,3 L0,6 L-3,5 L-2,1 Z " fill="#172B1E" transform="translate(224,401)"/>
<path d="M0,0 L2,4 L0,10 L-2,10 L-3,3 L0,2 Z " fill="#162D1F" transform="translate(276,396)"/>
<path d="M0,0 L2,1 L1,5 L3,5 L2,7 L-4,5 L-11,4 L-11,3 L-2,2 Z " fill="#C1C7C6" transform="translate(255,354)"/>
<path d="M0,0 L2,4 L3,8 L1,11 L0,9 L-2,9 L-3,4 L-1,5 Z " fill="#1D3225" transform="translate(287,614)"/>
<path d="M0,0 L8,0 L10,2 L4,3 L7,6 L2,5 L2,1 Z " fill="#3B4940" transform="translate(312,586)"/>
<path d="M0,0 L4,1 L1,3 L2,7 L-3,7 L-1,1 Z " fill="#132B1C" transform="translate(260,554)"/>
<path d="M0,0 L1,2 L-1,5 L-6,5 L-7,4 L-14,3 L-14,2 L-4,2 Z " fill="#B5C0B9" transform="translate(72,501)"/>
<path d="M0,0 L1,0 L1,9 L-5,10 L-3,3 L-2,6 L0,6 Z " fill="#183322" transform="translate(60,464)"/>
<path d="M0,0 L2,3 L4,8 L5,19 L3,17 L2,9 L0,8 Z " fill="#64756B" transform="translate(300,442)"/>
<path d="M0,0 L8,0 L7,5 L6,10 L4,6 L5,1 L0,1 Z " fill="#35423B" transform="translate(209,368)"/>
<path d="M0,0 L10,1 L12,1 L12,4 L3,4 Z " fill="#BFC7C2" transform="translate(127,639)"/>
<path d="M0,0 L1,2 L-2,9 L-4,10 L-5,13 L-7,13 L-5,8 Z " fill="#AAB5AE" transform="translate(318,625)"/>
<path d="M0,0 L1,0 L1,9 L-4,7 L-3,3 L0,3 Z " fill="#BDC8C2" transform="translate(296,573)"/>
<path d="M0,0 L7,0 L6,3 L-6,3 L-6,2 L0,2 Z " fill="#14281B" transform="translate(241,572)"/>
<path d="M0,0 L1,0 L1,9 L-1,9 L-3,13 L-4,13 L-4,7 L-2,7 Z " fill="#0F261A" transform="translate(134,557)"/>
<path d="M0,0 L5,0 L0,4 L-5,4 L-10,5 L-6,2 Z " fill="#58675F" transform="translate(247,560)"/>
<path d="M0,0 L2,2 L4,13 L4,16 L1,14 L1,7 Z " fill="#31443A" transform="translate(306,464)"/>
<path d="M0,0 L2,2 L2,5 L-14,5 L-13,1 L-13,4 L-1,3 Z " fill="#B1BDB5" transform="translate(299,467)"/>
<path d="M0,0 L1,0 L1,9 L-2,12 L-4,15 L-3,8 L-1,6 Z " fill="#B5BEB9" transform="translate(40,430)"/>
<path d="M0,0 L1,3 L3,3 L2,6 L-3,8 L-4,4 L0,2 Z " fill="#1A3221" transform="translate(252,435)"/>
<path d="M0,0 L3,1 L1,2 L3,3 L3,5 L-5,6 L-6,4 L-3,2 Z " fill="#102818" transform="translate(213,404)"/>
<path d="M0,0 L3,2 L0,7 L-2,7 L-2,4 L-5,3 Z " fill="#173120" transform="translate(218,403)"/>
<path d="M0,0 L2,1 L-1,5 L-2,8 L-6,9 L-8,10 L-6,6 Z M-1,4 Z " fill="#495B51" transform="translate(200,241)"/>
<path d="M0,0 L2,2 L2,6 L-4,9 L-4,5 L-1,2 Z " fill="#E6EFE9" transform="translate(213,536)"/>
<path d="M0,0 L3,2 L11,2 L10,7 L8,5 L1,3 Z " fill="#4E5C55" transform="translate(244,534)"/>
<path d="M0,0 L7,0 L9,6 L6,6 L3,3 L3,1 Z " fill="#D1DBD7" transform="translate(230,532)"/>
<path d="M0,0 L8,2 L11,6 L3,5 Z " fill="#C8D4CE" transform="translate(269,530)"/>
<path d="M0,0 L2,1 L0,4 L0,7 L-4,7 L-4,2 Z " fill="#C8D7CE" transform="translate(213,508)"/>
<path d="M0,0 L1,0 L1,10 L-2,10 L-2,3 Z " fill="#1A2F22" transform="translate(260,476)"/>
<path d="M0,0 L5,0 L1,1 L1,3 L3,3 L7,9 L1,7 L0,6 Z " fill="#556259" transform="translate(162,467)"/>
<path d="M0,0 L1,2 L3,2 L6,5 L5,7 L-2,5 L-3,7 L-2,3 Z M3,1 Z " fill="#112B1A" transform="translate(242,457)"/>
<path d="M0,0 L3,3 L6,9 L5,11 L2,9 L2,5 L-1,6 L-1,4 L1,4 Z " fill="#54655A" transform="translate(280,404)"/>
<path d="M0,0 L4,1 L5,4 L-2,7 L-4,6 L0,5 Z " fill="#E6ECE7" transform="translate(193,354)"/>
<path d="M0,0 L1,0 L1,7 L-2,10 L-5,9 L-3,4 L-1,3 Z " fill="#142D1F" transform="translate(187,305)"/>
<path d="M0,0 L6,1 L10,0 L13,3 L12,5 L11,4 L2,3 Z " fill="#4E5C53" transform="translate(265,273)"/>
<path d="M0,0 L3,1 L2,3 L6,4 L-2,4 L-2,2 L-7,2 L-7,1 Z " fill="#C4CEC6" transform="translate(146,565)"/>
<path d="M0,0 L4,0 L4,2 L7,2 L7,5 L2,5 Z " fill="#1F3126" transform="translate(227,555)"/>
<path d="M0,0 L13,1 L14,6 L12,5 L12,2 L2,3 Z " fill="#D2DBD6" transform="translate(166,499)"/>
<path d="M0,0 L1,2 L1,7 L-1,7 L0,11 L-3,13 L-3,7 Z " fill="#3E5046" transform="translate(143,456)"/>
<path d="M0,0 L2,1 L1,3 L11,3 L10,6 L10,4 L-2,5 Z " fill="#B8C0BB" transform="translate(207,364)"/>
<path d="M0,0 L2,1 L2,4 L0,4 L-1,6 L-1,4 L-7,9 L-9,8 Z " fill="#65756B" transform="translate(285,345)"/>
<path d="M0,0 L9,0 L9,1 L2,3 L0,5 L-4,3 Z " fill="#BECCC3" transform="translate(207,337)"/>
<path d="M0,0 L5,3 L6,5 L3,5 L2,8 L-1,4 Z " fill="#20372A" transform="translate(279,270)"/>
<path d="M0,0 L3,0 L3,3 L0,6 L-4,5 Z " fill="#162C1D" transform="translate(295,641)"/>
<path d="M0,0 L4,3 L5,8 L1,7 L1,3 L-1,3 Z " fill="#172B1F" transform="translate(95,625)"/>
<path d="M0,0 L9,3 L9,8 L6,7 L6,4 L3,4 L3,2 L0,1 Z " fill="#2A3C31" transform="translate(305,584)"/>
<path d="M0,0 L4,0 L3,6 L-1,5 Z " fill="#17271D" transform="translate(301,503)"/>
<path d="M0,0 L2,1 L2,3 L4,3 L3,8 L0,9 Z " fill="#E2EDE7" transform="translate(58,485)"/>
<path d="M0,0 L2,2 L1,9 L-2,8 L-2,2 Z " fill="#13291D" transform="translate(310,488)"/>
<path d="M0,0 L1,0 L1,7 L4,6 L3,10 L-1,10 Z " fill="#DFE7E3" transform="translate(190,458)"/>
<path d="M0,0 L4,2 L5,5 L-1,6 Z " fill="#D9E4DF" transform="translate(86,462)"/>
<path d="M0,0 L3,3 L2,8 L-1,7 Z " fill="#152D1F" transform="translate(270,442)"/>
<path d="M0,0 L3,1 L4,5 L1,7 L0,6 L-2,8 L-1,3 Z " fill="#243A2D" transform="translate(284,414)"/>
<path d="M0,0 L6,1 L6,12 L5,12 L4,3 L2,4 L2,2 L0,2 Z " fill="#5F6D64" transform="translate(228,383)"/>
<path d="M0,0 L4,1 L5,3 L2,6 L-2,5 L1,2 Z " fill="#1A3022" transform="translate(177,378)"/>
<path d="M0,0 L2,0 L2,4 L-3,7 L-3,5 L-6,5 L-5,3 L-3,4 L-3,2 Z " fill="#1C3324" transform="translate(286,350)"/>
<path d="M0,0 L3,1 L2,5 L-5,4 L-4,2 Z " fill="#13281B" transform="translate(302,250)"/>
<path d="M0,0 L1,0 L1,8 L-1,12 L-5,13 L-1,6 Z " fill="#CAD4CD" transform="translate(159,630)"/>
<path d="M0,0 L9,0 L5,1 L3,5 L0,3 Z " fill="#BACAC2" transform="translate(134,621)"/>
<path d="M0,0 L4,1 L5,5 L3,5 L2,3 L-8,3 L-8,2 Z " fill="#A1ACA5" transform="translate(217,546)"/>
<path d="M0,0 L9,0 L9,1 L2,3 L0,8 L-1,8 L-1,2 Z " fill="#132619" transform="translate(140,532)"/>
<path d="M0,0 L2,0 L0,7 L-3,10 L-4,6 L-2,6 L-2,2 L0,2 Z " fill="#D8E0D9" transform="translate(135,528)"/>
<path d="M0,0 L1,0 L1,5 L3,5 L3,11 L2,9 L-1,9 Z " fill="#DDE4DF" transform="translate(147,519)"/>
<path d="M0,0 L2,1 L2,7 L-3,6 L-4,4 L-2,4 Z " fill="#2A3F31" transform="translate(212,519)"/>
<path d="M0,0 L3,0 L2,5 L5,6 L-4,6 L0,2 Z " fill="#0F2818" transform="translate(138,508)"/>
<path d="M0,0 L5,2 L3,7 L0,4 Z " fill="#F7FAF9" transform="translate(189,505)"/>
<path d="M0,0 L4,1 L-1,2 L-2,6 L1,7 L-4,6 L-3,1 Z " fill="#C4CDC5" transform="translate(236,500)"/>
<path d="M0,0 L2,0 L3,5 L1,7 L0,2 L-9,2 L-9,1 Z " fill="#445349" transform="translate(179,498)"/>
<path d="M0,0 L0,3 L-4,9 L-8,11 L-6,7 Z " fill="#B9C3BD" transform="translate(88,492)"/>
<path d="M0,0 L7,0 L7,1 L2,1 L1,7 L-1,9 Z " fill="#B4BEB8" transform="translate(229,487)"/>
<path d="M0,0 L3,0 L3,4 L-4,3 L-7,1 L0,2 Z " fill="#BECCC2" transform="translate(178,467)"/>
<path d="M0,0 L7,1 L7,3 L-2,4 L-2,2 L0,2 Z " fill="#13281C" transform="translate(113,453)"/>
<path d="M0,0 L7,0 L7,6 L4,5 L3,1 Z " fill="#ECF2EE" transform="translate(228,450)"/>
<path d="M0,0 L3,1 L0,4 L-7,5 L-3,1 Z " fill="#4F5F58" transform="translate(218,400)"/>
<path d="M0,0 L2,1 L2,4 L5,4 L4,12 L2,9 Z " fill="#DAE1DC" transform="translate(276,390)"/>
<path d="M0,0 L1,2 L-2,6 L-9,7 L-4,3 Z " fill="#B4BEB6" transform="translate(300,345)"/>
<path d="M0,0 L1,0 L2,11 L-2,12 L-4,11 L0,9 Z " fill="#47584D" transform="translate(150,627)"/>
<path d="M0,0 L4,0 L2,4 L0,5 L-7,5 L-7,4 L-1,4 Z " fill="#213228" transform="translate(184,574)"/>
<path d="M0,0 L10,1 L9,3 L2,3 L-2,4 Z " fill="#2B3F34" transform="translate(173,517)"/>
<path d="M0,0 L1,4 L1,6 L-5,8 L-5,6 L-3,6 L-1,1 Z " fill="#C6D0CB" transform="translate(29,494)"/>
<path d="M0,0 L2,0 L3,2 L3,8 L1,8 L1,6 L-1,6 Z " fill="#142C1C" transform="translate(246,493)"/>
<path d="M0,0 L3,0 L4,0 L4,6 L2,8 L2,5 L0,5 L-1,1 Z " fill="#3B4B41" transform="translate(76,470)"/>
<path d="M0,0 L2,0 L4,4 L2,7 L0,7 L-1,2 Z " fill="#172C1F" transform="translate(302,466)"/>
<path d="M0,0 L2,3 L0,3 L0,6 L-2,6 L-2,3 L-6,4 L-4,1 Z " fill="#354A3E" transform="translate(232,460)"/>
<path d="M0,0 L1,0 L1,5 L8,3 L8,7 L0,6 Z " fill="#C5CCC7" transform="translate(193,421)"/>
<path d="M0,0 L2,1 L1,5 L-4,8 L-6,7 Z " fill="#C9D1CB" transform="translate(207,416)"/>
<path d="M0,0 L3,3 L3,5 L0,6 L-1,8 L-3,8 L-3,4 L0,4 Z " fill="#152C1F" transform="translate(278,403)"/>
<path d="M0,0 L2,1 L2,6 L2,9 L0,10 L-1,1 Z " fill="#152C1E" transform="translate(246,397)"/>
<path d="M0,0 L4,2 L2,2 L3,8 L-1,9 L0,5 L0,2 Z " fill="#22372A" transform="translate(220,400)"/>
<path d="M0,0 L4,0 L3,4 L-3,5 Z " fill="#525E55" transform="translate(212,384)"/>
<path d="M0,0 L9,0 L9,1 L2,2 L-1,5 L-3,5 L-2,1 Z " fill="#E2EEE7" transform="translate(211,362)"/>
<path d="M0,0 L1,2 L-2,12 L-3,9 L-4,5 L-1,4 Z " fill="#4A5A51" transform="translate(308,325)"/>
<path d="M0,0 L1,0 L1,8 L-2,9 L-2,3 Z " fill="#E1E7E5" transform="translate(180,306)"/>
<path d="M0,0 L6,5 L5,7 L-2,4 L0,3 Z " fill="#CBD4CE" transform="translate(220,282)"/>
<path d="M0,0 L5,1 L7,2 L7,4 L13,4 L13,5 L6,5 L0,1 Z " fill="#77837C" transform="translate(181,284)"/>
<path d="M0,0 L7,1 L6,5 L4,8 L3,3 L0,2 Z " fill="#D2DDD6" transform="translate(304,622)"/>
<path d="M0,0 L2,3 L1,8 L-2,7 L-1,2 Z " fill="#EDF4F0" transform="translate(310,595)"/>
<path d="M0,0 L5,0 L5,2 L9,1 L9,3 L1,3 Z " fill="#14251C" transform="translate(189,564)"/>
<path d="M0,0 L4,1 L3,5 L-1,4 L-1,1 Z " fill="#152B1F" transform="translate(265,530)"/>
<path d="M0,0 L2,4 L-1,4 L-2,6 L0,7 L-2,10 L-3,2 Z " fill="#3A4941" transform="translate(214,524)"/>
<path d="M0,0 L4,2 L8,8 L4,6 L0,3 Z " fill="#495A4F" transform="translate(278,512)"/>
<path d="M0,0 L6,1 L8,3 L-3,3 Z " fill="#515E56" transform="translate(162,510)"/>
<path d="M0,0 L2,1 L1,7 L-2,6 L-2,4 L-5,3 L0,3 Z " fill="#183021" transform="translate(49,477)"/>
<path d="M0,0 L5,0 L4,3 L1,5 L-1,9 Z " fill="#0F2718" transform="translate(183,462)"/>
<path d="M0,0 L3,1 L0,7 L-2,7 L-1,2 Z " fill="#162D20" transform="translate(274,449)"/>
<path d="M0,0 L2,1 L5,10 L0,7 Z " fill="#57665E" transform="translate(264,420)"/>
<path d="M0,0 L5,1 L3,2 L3,4 L-3,5 Z " fill="#FAFCFB" transform="translate(201,384)"/>
<path d="M0,0 L1,0 L1,5 L3,5 L2,8 L-3,8 Z " fill="#35463D" transform="translate(288,322)"/>
<path d="M0,0 L3,0 L2,9 L0,9 Z " fill="#2C3D36" transform="translate(181,305)"/>
<path d="M0,0 L1,2 L3,2 L4,4 L6,2 L6,6 L2,7 L0,3 Z " fill="#11251A" transform="translate(334,281)"/>
<path d="M0,0 L4,0 L4,2 L7,3 L8,8 L1,2 Z " fill="#D3DCD6" transform="translate(288,276)"/>
<path d="M0,0 L7,0 L2,4 L-1,4 Z " fill="#ECF4EC" transform="translate(294,636)"/>
<path d="M0,0 L3,4 L-2,7 L-5,7 L-2,4 Z " fill="#3F4E45" transform="translate(310,626)"/>
<path d="M0,0 L4,2 L3,4 L-4,4 Z " fill="#F6FBF8" transform="translate(228,562)"/>
<path d="M0,0 L1,2 L-5,5 L-8,2 L-7,1 Z " fill="#23352A" transform="translate(269,551)"/>
<path d="M0,0 L4,3 L4,10 L1,6 L0,2 Z " fill="#BDC7C1" transform="translate(185,522)"/>
<path d="M0,0 L2,0 L2,2 L8,3 L8,4 L-2,4 L-2,1 Z " fill="#2A3D31" transform="translate(200,519)"/>
<path d="M0,0 L5,0 L7,3 L-4,2 Z " fill="#E6F0EB" transform="translate(105,503)"/>
<path d="M0,0 L7,0 L4,4 L0,4 Z " fill="#25322B" transform="translate(17,474)"/>
<path d="M0,0 L6,2 L9,3 L9,5 L3,4 Z " fill="#DCE5DE" transform="translate(91,457)"/>
<path d="M0,0 L2,4 L1,9 L-1,10 L-1,3 Z " fill="#E9EFEC" transform="translate(189,436)"/>
<path d="M0,0 L2,0 L0,4 L-8,5 L-6,3 Z " fill="#ABB4AB" transform="translate(224,406)"/>
<path d="M0,0 L1,0 L1,6 L-2,8 L-9,8 L-6,6 L0,5 Z " fill="#B6C0B9" transform="translate(215,373)"/>
<path d="M0,0 L5,1 L3,5 L2,4 L0,6 Z " fill="#42504A" transform="translate(230,321)"/>
<path d="M0,0 L4,1 L6,5 L5,8 Z " fill="#DDE8E4" transform="translate(335,273)"/>
<path d="M0,0 L7,0 L8,5 L3,3 Z " fill="#BCC5BF" transform="translate(284,236)"/>
<path d="M0,0 L1,2 L-1,7 L-5,9 L-3,4 Z " fill="#B2BDB8" transform="translate(174,588)"/>
<path d="M0,0 L2,1 L4,10 L2,9 L0,4 L-2,1 Z " fill="#374A3F" transform="translate(196,547)"/>
<path d="M0,0 L2,1 L0,6 L-3,5 L-2,1 L0,2 Z " fill="#263B2F" transform="translate(244,541)"/>
<path d="M0,0 L1,0 L1,5 L-3,6 L-4,2 L-1,2 Z " fill="#132719" transform="translate(234,520)"/>
<path d="M0,0 L2,0 L2,4 L0,4 L-1,6 L-7,5 L-7,4 L-1,4 Z " fill="#48594F" transform="translate(297,504)"/>
<path d="M0,0 L4,0 L3,5 L1,6 L1,2 L-1,1 Z " fill="#434E49" transform="translate(129,475)"/>
<path d="M0,0 L3,1 L1,3 L3,5 L-2,5 L-3,3 Z " fill="#14281C" transform="translate(170,470)"/>
<path d="M0,0 L2,0 L2,2 L5,2 L4,7 L1,4 Z " fill="#1A3223" transform="translate(91,463)"/>
<path d="M0,0 L5,5 L6,8 L1,8 L3,7 L0,2 Z " fill="#BBC4BD" transform="translate(255,370)"/>
<path d="M0,0 L2,3 L2,7 L-2,7 Z M2,1 Z " fill="#2A3830" transform="translate(230,368)"/>
<path d="M0,0 L3,1 L-1,8 L-2,8 L-3,2 Z " fill="#DFE7E2" transform="translate(228,367)"/>
<path d="M0,0 L4,3 L7,3 L7,5 L2,6 L1,3 L-1,3 Z " fill="#ECEDEB" transform="translate(230,354)"/>
<path d="M0,0 L6,1 L6,3 L-3,3 Z " fill="#DBE2DE" transform="translate(225,348)"/>
<path d="M0,0 L1,3 L2,0 L7,1 L4,2 L4,4 L0,5 Z " fill="#293B2F" transform="translate(307,321)"/>
<path d="M0,0 L2,1 L-1,4 L-9,5 L-6,2 Z " fill="#758079" transform="translate(195,293)"/>
<path d="M0,0 L2,0 L2,4 L0,4 L-2,8 L-3,4 Z " fill="#172D1E" transform="translate(289,280)"/>
<path d="M0,0 L5,1 L8,4 L2,4 Z " fill="#213429" transform="translate(315,258)"/>
<path d="M0,0 L3,1 L4,3 L7,3 L6,6 L-1,2 Z M3,0 L5,1 Z " fill="#D5DFDB" transform="translate(315,253)"/>
<path d="M0,0 L5,1 L6,6 L3,6 L1,2 L-1,1 Z " fill="#142A1C" transform="translate(260,238)"/>
<path d="M0,0 L9,1 L9,3 L3,3 L3,1 Z " fill="#1D2D23" transform="translate(110,637)"/>
<path d="M0,0 L3,1 L2,3 L5,4 L-1,3 L-5,1 Z " fill="#35453B" transform="translate(108,635)"/>
<path d="M0,0 L3,0 L2,5 L-1,5 L-2,2 Z " fill="#15271D" transform="translate(310,630)"/>
<path d="M0,0 L6,2 L2,4 L-2,3 L-3,1 Z " fill="#E6EEEA" transform="translate(248,533)"/>
<path d="M0,0 L6,2 L7,4 L2,5 Z " fill="#CBD5CF" transform="translate(249,519)"/>
<path d="M0,0 L3,0 L2,4 L-4,3 L-3,1 Z " fill="#E9F2ED" transform="translate(294,504)"/>
<path d="M0,0 L5,1 L4,4 L-1,5 L-2,3 Z " fill="#E8EFED" transform="translate(58,499)"/>
<path d="M0,0 L3,3 L2,6 L-1,7 Z " fill="#13291B" transform="translate(143,481)"/>
<path d="M0,0 L1,2 L5,1 L3,9 L1,5 Z " fill="#C5D0CC" transform="translate(160,386)"/>
<path d="M0,0 L2,3 L2,7 L-2,7 Z " fill="#2E3B32" transform="translate(237,337)"/>
<path d="M0,0 L3,1 L-2,7 L-3,3 Z " fill="#EAF0EC" transform="translate(311,324)"/>
<path d="M0,0 L3,1 L0,7 L-1,4 L-3,3 L-1,1 Z " fill="#D4DED9" transform="translate(182,298)"/>
<path d="M0,0 L4,0 L2,4 L-2,5 Z " fill="#13291D" transform="translate(282,275)"/>
<path d="M0,0 L2,0 L0,4 L-6,5 L-3,2 Z " fill="#5D6B61" transform="translate(302,635)"/>
<path d="M0,0 L4,1 L-2,4 L-6,3 Z " fill="#728178" transform="translate(112,614)"/>
<path d="M0,0 L1,2 L3,3 L-3,5 L-4,2 Z " fill="#F0F8F3" transform="translate(109,612)"/>
<path d="M0,0 L2,0 L3,3 L-6,2 L-6,1 Z " fill="#C3CBC8" transform="translate(303,581)"/>
<path d="M0,0 L3,2 L-2,5 L-5,4 Z " fill="#E0E9E4" transform="translate(179,568)"/>
<path d="M0,0 L2,0 L1,4 L3,4 L3,6 L-1,7 Z " fill="#12271B" transform="translate(186,566)"/>
<path d="M0,0 L3,3 L4,9 L0,4 Z " fill="#5E6E65" transform="translate(197,535)"/>
<path d="M0,0 L1,4 L0,6 L-2,6 L-3,8 L-3,2 L0,2 Z " fill="#5E6B65" transform="translate(245,524)"/>
<path d="M0,0 L2,0 L3,7 L0,6 Z " fill="#182E21" transform="translate(204,513)"/>
<path d="M0,0 L2,0 L2,2 L-1,2 L-2,6 L-5,5 L-5,3 L-2,3 L-2,1 Z " fill="#173122" transform="translate(207,505)"/>
<path d="M0,0 L2,1 L0,2 Z M-2,2 L2,4 L-1,6 L-4,5 Z " fill="#152A1C" transform="translate(220,500)"/>
<path d="M0,0 L4,1 L3,5 L0,4 Z " fill="#F2F8F6" transform="translate(155,498)"/>
<path d="M0,0 L3,1 L3,8 L0,6 L-1,1 Z " fill="#0E2618" transform="translate(309,479)"/>
<path d="M0,0 L2,0 L3,4 L-1,6 Z " fill="#1D3226" transform="translate(302,459)"/>
<path d="M0,0 L1,2 L3,2 L2,4 L0,3 L-1,5 L-3,6 L-2,2 Z M-4,6 Z " fill="#1B2C23" transform="translate(47,438)"/>
<path d="M0,0 L4,2 L0,7 L-1,1 Z " fill="#2C4035" transform="translate(255,431)"/>
<path d="M0,0 L1,2 L-1,4 L-2,1 Z M-3,4 L-1,4 L-3,8 L-5,5 Z " fill="#12281B" transform="translate(205,372)"/>
<path d="M0,0 L4,3 L4,8 L1,6 Z " fill="#12271A" transform="translate(178,372)"/>
<path d="M0,0 L2,1 L3,5 L-2,4 Z " fill="#152B1F" transform="translate(183,366)"/>
<path d="M0,0 L2,1 L-1,4 L-3,4 L-4,6 L-4,1 Z " fill="#192B21" transform="translate(258,332)"/>
<path d="M0,0 L1,4 L-2,7 L-5,6 Z " fill="#CED6D0" transform="translate(337,306)"/>
<path d="M0,0 L4,4 L-1,5 L-1,2 Z " fill="#24392D" transform="translate(282,301)"/>
<path d="M0,0 L4,1 L4,5 L-1,3 Z " fill="#14271C" transform="translate(184,281)"/>
<path d="M0,0 L2,1 L3,4 L5,6 L3,8 L0,6 Z " fill="#34463A" transform="translate(292,242)"/>
<path d="M0,0 L3,0 L5,1 L5,4 L0,4 Z " fill="#EEF4F0" transform="translate(287,637)"/>
<path d="M0,0 L4,0 L5,3 L-1,3 Z " fill="#162A1D" transform="translate(83,624)"/>
<path d="M0,0 L2,4 L-2,8 L-2,5 Z " fill="#C6CFC8" transform="translate(327,602)"/>
<path d="M0,0 L4,2 L3,5 L0,7 Z " fill="#132A1D" transform="translate(287,601)"/>
<path d="M0,0 L4,0 L3,2 L1,1 L0,5 L-2,5 L-1,1 Z " fill="#192A20" transform="translate(173,543)"/>
<path d="M0,0 L3,3 L3,6 L0,6 L-1,3 Z " fill="#BECAC3" transform="translate(201,512)"/>
<path d="M0,0 L3,3 L3,5 L-1,5 L-2,2 Z " fill="#15281D" transform="translate(251,491)"/>
<path d="M0,0 L1,2 L4,2 L3,8 L1,6 Z " fill="#CDD6D2" transform="translate(279,450)"/>
<path d="M0,0 L2,0 L1,4 L-2,6 L-1,1 Z " fill="#25382D" transform="translate(122,450)"/>
<path d="M0,0 L3,0 L3,2 L5,3 L0,4 Z " fill="#E3EDE7" transform="translate(37,442)"/>
<path d="M0,0 L2,1 L2,4 L0,4 L-2,8 L-1,2 Z " fill="#626E67" transform="translate(14,426)"/>
<path d="M0,0 L2,0 L3,2 L3,8 L2,4 L-1,3 Z " fill="#3B493F" transform="translate(37,428)"/>
<path d="M0,0 L3,0 L4,4 L-1,5 Z " fill="#1B3023" transform="translate(288,424)"/>
<path d="M0,0 L3,3 L3,5 L5,5 L4,7 L0,6 Z " fill="#C3CEC7" transform="translate(279,421)"/>
<path d="M0,0 L2,0 L1,4 L-2,6 L-1,1 Z " fill="#293C31" transform="translate(202,418)"/>
<path d="M0,0 L2,0 L0,5 L-3,5 L-2,1 Z " fill="#142A1D" transform="translate(202,412)"/>
<path d="M0,0 L3,0 L2,6 L0,5 Z " fill="#2F4035" transform="translate(274,392)"/>
<path d="M0,0 L2,0 L2,5 L-1,6 L-1,2 Z " fill="#485B4E" transform="translate(169,381)"/>
<path d="M0,0 L1,4 L-3,7 L-3,4 Z " fill="#617168" transform="translate(175,374)"/>
<path d="M0,0 L5,0 L4,4 L0,4 Z " fill="#142119" transform="translate(285,330)"/>
<path d="M0,0 L3,1 L2,4 L-4,4 L-1,3 Z " fill="#314137" transform="translate(267,315)"/>
<path d="M0,0 L1,3 L-2,6 L-5,6 L-5,4 L0,2 Z " fill="#15291D" transform="translate(308,310)"/>
<path d="M0,0 L5,3 L5,5 L-1,3 L-2,1 Z " fill="#ECF0EE" transform="translate(188,277)"/>
<path d="M0,0 L4,2 L7,4 L1,5 Z " fill="#3B4B41" transform="translate(248,272)"/>
<path d="M0,0 L4,1 L4,4 L-1,3 Z " fill="#16281E" transform="translate(321,263)"/>
<path d="M0,0 L4,1 L2,4 L-1,4 Z " fill="#3E463F" transform="translate(104,618)"/>
<path d="M0,0 L1,4 L-1,7 L-3,7 L-1,1 Z " fill="#31443A" transform="translate(148,596)"/>
<path d="M0,0 L2,4 L0,8 L-1,3 Z " fill="#2D4135" transform="translate(150,589)"/>
<path d="M0,0 L3,0 L4,5 L2,5 L2,3 L0,3 Z " fill="#D7E2DB" transform="translate(223,505)"/>
<path d="M0,0 L2,0 L2,5 L0,6 L-2,2 L0,2 Z " fill="#C1C9C4" transform="translate(73,494)"/>
<path d="M0,0 L2,4 L2,6 L-2,8 Z M2,3 Z " fill="#293A30" transform="translate(231,488)"/>
<path d="M0,0 L4,0 L3,5 L0,5 L0,3 L3,3 L3,1 Z " fill="#C9D5CF" transform="translate(18,478)"/>
<path d="M0,0 L2,1 L0,5 L-3,4 L-3,1 Z " fill="#173123" transform="translate(258,473)"/>
<path d="M0,0 L1,0 L1,5 L-3,7 L-4,4 L-1,3 Z " fill="#D4DBD8" transform="translate(114,446)"/>
<path d="M0,0 L2,0 L2,2 L5,2 L3,6 L3,4 L1,4 Z " fill="#CFD6D1" transform="translate(296,434)"/>
<path d="M0,0 L3,2 L2,6 L-2,5 Z " fill="#C7CFCB" transform="translate(186,415)"/>
<path d="M0,0 L2,0 L0,4 L-4,5 L-2,1 Z " fill="#55645B" transform="translate(242,408)"/>
<path d="M0,0 L2,3 L1,7 L-2,4 L-2,2 L0,2 Z " fill="#D4DCDA" transform="translate(282,295)"/>
<path d="M0,0 L5,1 L4,5 Z " fill="#26392C" transform="translate(219,280)"/>
<path d="M0,0 L6,0 L7,3 L1,2 Z " fill="#D7DFD8" transform="translate(79,619)"/>
<path d="M0,0 L4,0 L4,7 L2,3 Z " fill="#334339" transform="translate(285,589)"/>
<path d="M0,0 L1,4 L-4,6 Z " fill="#5D6D65" transform="translate(185,565)"/>
<path d="M0,0 L3,0 L2,4 L-1,4 Z " fill="#FBFDFC" transform="translate(251,549)"/>
<path d="M0,0 L4,1 L4,3 L-2,3 L-2,1 Z " fill="#13251C" transform="translate(232,528)"/>
<path d="M0,0 L6,0 L4,1 L4,3 L-1,2 Z " fill="#D3DDD6" transform="translate(202,523)"/>
<path d="M0,0 L1,0 L0,7 L-1,5 L-3,5 L-3,3 L0,3 Z " fill="#142C1C" transform="translate(278,501)"/>
<path d="M0,0 L1,3 L-5,4 L-8,2 L-4,1 L0,2 Z " fill="#AFB8B3" transform="translate(310,499)"/>
<path d="M0,0 L5,0 L1,3 L-3,2 Z " fill="#616D65" transform="translate(222,497)"/>
<path d="M0,0 L2,0 L3,5 L0,5 Z " fill="#172D1F" transform="translate(77,494)"/>
<path d="M0,0 L3,0 L3,3 L-2,4 Z " fill="#F9FBF9" transform="translate(73,490)"/>
<path d="M0,0 L2,0 L3,4 L-3,4 L0,3 Z " fill="#12271B" transform="translate(67,460)"/>
<path d="M0,0 L2,3 L-3,6 L-1,1 Z " fill="#4B5E53" transform="translate(110,455)"/>
<path d="M0,0 L3,1 L1,4 L-2,4 L-2,1 Z " fill="#1D2C23" transform="translate(230,444)"/>
<path d="M0,0 L3,1 L1,6 L-1,3 Z " fill="#213026" transform="translate(224,388)"/>
<path d="M0,0 L7,0 L6,5 L4,2 Z " fill="#E9EBE9" transform="translate(189,383)"/>
<path d="M0,0 L5,0 L6,2 L1,3 Z " fill="#14291C" transform="translate(204,258)"/>
<path d="M0,0 L2,0 L2,3 L-3,4 L-2,1 Z " fill="#2D3D32" transform="translate(298,643)"/>
<path d="M0,0 L2,0 L2,3 L-5,3 L-4,1 Z " fill="#213627" transform="translate(298,639)"/>
<path d="M0,0 L4,2 L2,4 L-1,4 L-2,1 Z " fill="#1D3226" transform="translate(105,631)"/>
<path d="M0,0 L3,0 L4,4 L-1,2 Z " fill="#42524A" transform="translate(93,629)"/>
<path d="M0,0 L3,0 L3,4 L0,4 Z " fill="#18281F" transform="translate(75,620)"/>
<path d="M0,0 L2,1 Z M-2,1 L0,2 L0,4 L-4,5 Z " fill="#15251B" transform="translate(110,617)"/>
<path d="M0,0 L4,1 L0,4 L0,2 L-4,1 Z " fill="#3D4A44" transform="translate(128,611)"/>
<path d="M0,0 L4,1 L-2,4 L-2,1 Z " fill="#DDE7E1" transform="translate(178,580)"/>
<path d="M0,0 L6,1 L5,4 L5,2 L1,3 Z " fill="#39443E" transform="translate(290,572)"/>
<path d="M0,0 L4,0 L4,2 L6,3 L2,3 Z " fill="#13291B" transform="translate(282,515)"/>
<path d="M0,0 L1,0 L1,7 L-2,7 Z " fill="#14271C" transform="translate(250,510)"/>
<path d="M0,0 L6,0 L1,4 Z " fill="#112F1D" transform="translate(127,510)"/>
<path d="M0,0 L2,0 L3,5 L-1,4 Z " fill="#F7FBF7" transform="translate(235,502)"/>
<path d="M0,0 L6,1 L5,3 L1,2 Z " fill="#DBE4DE" transform="translate(166,499)"/>
<path d="M0,0 L1,2 L3,2 L2,4 L-2,5 Z " fill="#C5CEC9" transform="translate(285,491)"/>
<path d="M0,0 L2,1 L1,5 L-2,4 Z " fill="#F0F7F1" transform="translate(297,466)"/>
<path d="M0,0 L2,0 L2,5 L0,5 L-1,1 Z " fill="#202F26" transform="translate(129,464)"/>
<path d="M0,0 L2,0 L1,4 L-2,4 L-2,1 Z " fill="#DFEEE4" transform="translate(118,457)"/>
<path d="M0,0 L2,0 L1,7 L-1,4 Z " fill="#24342A" transform="translate(154,432)"/>
<path d="M0,0 L3,0 L3,2 L5,4 L0,3 Z " fill="#57605D" transform="translate(165,428)"/>
<path d="M0,0 L2,2 L2,6 L-1,5 Z " fill="#122C19" transform="translate(226,394)"/>
<path d="M0,0 L4,0 L4,3 L0,4 Z " fill="#11251A" transform="translate(228,385)"/>
<path d="M0,0 L2,1 L0,5 L-3,5 L-1,1 Z " fill="#A1AFA7" transform="translate(188,368)"/>
<path d="M0,0 L3,2 L2,5 L-2,4 L0,2 Z " fill="#7F9185" transform="translate(197,355)"/>
<path d="M0,0 L2,1 L2,4 L0,4 L-1,6 L-2,2 Z " fill="#425249" transform="translate(285,345)"/>
<path d="M0,0 L5,0 L2,3 L-2,1 Z " fill="#25382D" transform="translate(265,338)"/>
<path d="M0,0 L0,3 L-5,4 L-2,1 Z " fill="#CDD6D1" transform="translate(275,335)"/>
<path d="M0,0 L2,3 L2,6 L-1,6 Z " fill="#B9C6BF" transform="translate(205,322)"/>
<path d="M0,0 L7,0 L7,3 L0,1 Z " fill="#CCD4D3" transform="translate(230,320)"/>
<path d="M0,0 L1,0 L2,6 L-2,5 L-2,3 L0,3 Z " fill="#27392F" transform="translate(183,272)"/>
<path d="M0,0 L4,2 L2,4 L-1,3 Z " fill="#E5ECE9" transform="translate(93,632)"/>
<path d="M0,0 L3,2 L3,4 L-1,4 Z " fill="#E2EAE4" transform="translate(118,624)"/>
<path d="M0,0 L4,2 L-1,3 L-2,1 Z " fill="#314338" transform="translate(249,540)"/>
<path d="M0,0 L1,4 L-1,7 L-2,2 L0,2 Z " fill="#15271B" transform="translate(218,535)"/>
<path d="M0,0 L2,0 L2,2 L4,3 L0,4 Z " fill="#D6E4DB" transform="translate(237,521)"/>
<path d="M0,0 L3,0 L2,4 L0,4 Z " fill="#E9F2EE" transform="translate(235,513)"/>
<path d="M0,0 L3,1 L3,3 L1,3 L1,5 L-1,4 Z " fill="#122B1B" transform="translate(182,497)"/>
<path d="M0,0 L4,4 L0,5 Z " fill="#BCC6BE" transform="translate(223,459)"/>
<path d="M0,0 L2,0 L1,3 L-3,4 L-2,1 Z " fill="#5F6C65" transform="translate(232,441)"/>
<path d="M0,0 L1,0 L1,5 L-2,6 Z " fill="#C5D0CA" transform="translate(159,427)"/>
<path d="M0,0 L5,0 L2,1 L2,3 L-1,3 Z " fill="#15281D" transform="translate(19,424)"/>
<path d="M0,0 L3,1 L-1,5 Z " fill="#D7E2DA" transform="translate(197,412)"/>
<path d="M0,0 L2,0 L0,6 L-1,6 L-1,1 Z " fill="#C2CBC5" transform="translate(148,409)"/>
<path d="M0,0 L4,0 L4,2 L0,4 Z " fill="#233929" transform="translate(212,409)"/>
<path d="M0,0 L3,0 L2,4 L-1,3 Z " fill="#A8B6AF" transform="translate(225,384)"/>
<path d="M0,0 L2,1 L1,5 L-1,5 Z " fill="#43544A" transform="translate(271,380)"/>
<path d="M0,0 L2,3 L-3,5 L-1,1 Z " fill="#506257" transform="translate(202,373)"/>
<path d="M0,0 L1,2 L3,2 L2,4 L-2,5 Z " fill="#C4CDC9" transform="translate(305,337)"/>
<path d="M0,0 L2,1 L2,3 L4,4 L0,5 Z " fill="#33453A" transform="translate(290,309)"/>
<path d="M0,0 L0,3 L-4,4 L-3,1 Z " fill="#D1D5D4" transform="translate(304,304)"/>
<path d="M0,0 L2,0 L3,6 L-1,2 Z " fill="#304338" transform="translate(284,282)"/>
<path d="M0,0 L3,1 L2,3 L-1,4 Z " fill="#D3DCD7" transform="translate(310,638)"/>
<path d="M0,0 L2,0 L1,6 L-1,2 Z " fill="#233329" transform="translate(288,619)"/>
<path d="M0,0 L5,0 L4,3 L0,1 Z " fill="#283C2F" transform="translate(211,573)"/>
<path d="M0,0 L2,1 L2,4 L-2,3 Z " fill="#182B20" transform="translate(215,543)"/>
<path d="M0,0 L0,3 L-2,5 L-3,1 Z " fill="#C3CEC6" transform="translate(134,533)"/>
<path d="M0,0 L2,0 L1,5 L-1,1 Z " fill="#212E26" transform="translate(215,514)"/>
<path d="M0,0 L4,1 L4,3 L0,2 Z " fill="#F2F3F3" transform="translate(283,505)"/>
<path d="M0,0 L4,3 L0,4 L-1,1 Z " fill="#112C1B" transform="translate(181,492)"/>
<path d="M0,0 L4,1 L3,3 L0,3 Z " fill="#F0FBF5" transform="translate(120,473)"/>
<path d="M0,0 L2,0 L2,4 L-1,4 Z " fill="#D2D9D2" transform="translate(160,467)"/>
<path d="M0,0 L4,1 L1,3 L-2,2 Z " fill="#0F2819" transform="translate(103,469)"/>
<path d="M0,0 L2,0 L1,6 L-1,3 Z " fill="#213227" transform="translate(78,468)"/>
<path d="M0,0 L2,0 L1,4 L-1,4 Z " fill="#223227" transform="translate(78,463)"/>
<path d="M0,0 L5,2 L3,5 Z " fill="#2C3D31" transform="translate(245,463)"/>
<path d="M0,0 L2,0 L2,3 L-2,4 Z " fill="#D0DCD6" transform="translate(232,457)"/>
<path d="M0,0 L6,1 L2,3 L2,1 Z " fill="#314339" transform="translate(80,452)"/>
<path d="M0,0 L2,1 L1,5 L-1,1 Z " fill="#1C2E23" transform="translate(292,429)"/>
<path d="M0,0 L3,0 L4,4 L0,2 Z " fill="#435349" transform="translate(282,411)"/>
<path d="M0,0 L1,4 L-2,5 Z " fill="#A6B4AC" transform="translate(215,388)"/>
<path d="M0,0 L2,0 L3,4 L0,5 L-1,3 Z " fill="#D7DFD9" transform="translate(204,366)"/>
<path d="M0,0 L3,4 L-1,3 L-2,1 Z " fill="#122A1A" transform="translate(285,315)"/>
<path d="M0,0 L4,4 L0,4 Z " fill="#36473C" transform="translate(286,305)"/>
<path d="M0,0 L3,1 L-1,5 Z " fill="#D6E1DC" transform="translate(191,303)"/>
<path d="M0,0 L3,0 L1,4 L-1,3 Z " fill="#C4CFCA" transform="translate(324,299)"/>
<path d="M0,0 L5,0 L5,3 L0,1 Z " fill="#4B5A51" transform="translate(207,272)"/>
<path d="M0,0 L2,0 L2,2 L4,3 L-1,3 Z " fill="#13271C" transform="translate(309,253)"/>
<path d="M0,0 L2,1 L1,4 L-1,4 Z " fill="#F3F9F8" transform="translate(329,601)"/>
<path d="M0,0 L3,1 L2,3 L-1,2 Z M-2,3 Z " fill="#314135" transform="translate(215,565)"/>
<path d="M0,0 L4,2 L0,4 Z " fill="#D5DAD8" transform="translate(209,541)"/>
<path d="M0,0 L4,2 L1,3 L-1,1 Z " fill="#F1F7F6" transform="translate(270,528)"/>
<path d="M0,0 L2,1 L1,5 L1,3 L-1,3 Z " fill="#182B21" transform="translate(213,527)"/>
<path d="M0,0 L3,0 L3,3 L-1,1 Z " fill="#152A1D" transform="translate(212,516)"/>
<path d="M0,0 L2,0 L3,3 L0,4 Z " fill="#F3FAF7" transform="translate(307,503)"/>
<path d="M0,0 L3,3 L-2,2 Z " fill="#DBE5E0" transform="translate(109,503)"/>
<path d="M0,0 L2,0 L2,4 L0,4 L-1,1 Z " fill="#15281D" transform="translate(28,489)"/>
<path d="M0,0 L1,4 L-2,4 Z " fill="#DFECE5" transform="translate(79,487)"/>
<path d="M0,0 L2,0 L2,3 L-2,3 L-2,1 Z " fill="#132C1E" transform="translate(69,486)"/>
<path d="M0,0 L4,0 L3,3 L0,2 Z " fill="#B7C0BC" transform="translate(122,483)"/>
<path d="M0,0 L2,1 L2,3 L0,3 L-1,5 Z " fill="#EDF6F4" transform="translate(181,479)"/>
<path d="M0,0 L4,1 L0,3 Z " fill="#34483D" transform="translate(100,472)"/>
<path d="M0,0 L3,0 L1,4 Z " fill="#17271D" transform="translate(162,438)"/>
<path d="M0,0 L4,0 L3,3 L1,3 Z " fill="#516156" transform="translate(251,438)"/>
<path d="M0,0 L2,0 L2,3 L-2,2 Z " fill="#E6F4EE" transform="translate(177,434)"/>
<path d="M0,0 L3,1 L2,5 Z " fill="#12251A" transform="translate(262,421)"/>
<path d="M0,0 L2,0 L0,4 L-2,3 Z " fill="#CCD1CD" transform="translate(224,406)"/>
<path d="M0,0 L3,3 L-1,4 Z " fill="#2C3C32" transform="translate(332,271)"/>
<path d="M0,0 L5,1 L5,3 L0,1 Z " fill="#12261A" transform="translate(244,272)"/>
<path d="M0,0 L3,3 L-1,3 Z " fill="#CAD8D4" transform="translate(123,636)"/>
<path d="M0,0 L3,2 L-1,3 Z " fill="#D9DED8" transform="translate(294,637)"/>
<path d="M0,0 L2,0 L0,4 L-1,1 Z " fill="#42544A" transform="translate(302,635)"/>
<path d="M0,0 L3,1 L2,3 L-1,3 Z " fill="#162A1F" transform="translate(211,523)"/>
<path d="M0,0 L2,1 L-1,4 L-1,1 Z " fill="#49594F" transform="translate(180,490)"/>
<path d="M0,0 L3,2 L0,4 L-1,1 Z " fill="#2B3F33" transform="translate(57,482)"/>
<path d="M0,0 L3,1 L-1,3 Z " fill="#394C43" transform="translate(48,475)"/>
<path d="M0,0 L2,0 L1,3 L-2,2 Z " fill="#152A1D" transform="translate(22,475)"/>
<path d="M0,0 L4,1 L1,3 Z " fill="#203328" transform="translate(86,455)"/>
<path d="M0,0 L2,0 L0,4 L-1,1 Z " fill="#203125" transform="translate(250,439)"/>
<path d="M0,0 L1,3 L-2,4 Z " fill="#1F2F25" transform="translate(199,421)"/>
<path d="M0,0 L3,1 L2,4 L0,3 Z " fill="#E6EDE9" transform="translate(184,410)"/>
<path d="M0,0 L1,3 L-2,4 Z " fill="#1F2F27" transform="translate(209,393)"/>
<path d="M0,0 L2,1 L2,3 L-1,4 Z " fill="#122B1D" transform="translate(271,384)"/>
<path d="M0,0 L2,0 L1,3 L-2,2 Z " fill="#162B1E" transform="translate(314,319)"/>
<path d="M0,0 L3,1 L3,3 L-1,1 Z " fill="#1A2D23" transform="translate(235,304)"/>
<path d="M0,0 L2,1 L-1,4 L-1,1 Z " fill="#526559" transform="translate(195,293)"/>
<path d="M0,0 L2,0 L0,4 L-1,1 Z " fill="#11291A" transform="translate(289,280)"/>
<path d="M0,0 L2,0 L0,4 L-1,1 Z " fill="#324137" transform="translate(88,488)"/>
<path d="M0,0 L2,3 L-1,3 Z " fill="#1F3327" transform="translate(276,485)"/>
<path d="M0,0 L3,1 L3,3 L0,2 Z " fill="#ECF2EE" transform="translate(263,441)"/>
<path d="M0,0 L2,0 L0,4 L-1,1 Z " fill="#2E3E34" transform="translate(228,353)"/>
<path d="M0,0 L2,0 L1,3 L-1,1 Z " fill="#DDE7E3" transform="translate(15,486)"/>
<path d="M0,0 L2,1 L2,3 L-1,2 Z " fill="#17281E" transform="translate(203,280)"/>
<path d="M0,0 L3,1 L1,3 Z " fill="#132A19" transform="translate(263,269)"/>
<path d="M0,0 L2,2 L-1,2 Z " fill="#10281A" transform="translate(278,274)"/>
</svg>
