<?xml version="1.0" encoding="UTF-8"?>
<!-- Generator: visioncortex VTracer 0.6.12 -->
<svg version="1.1" xmlns="http://www.w3.org/2000/svg" width="394" height="853">
<path d="M0,0 L394,0 L394,853 L0,853 Z M225,232 L211,235 L207,238 L200,241 L192,249 L190,255 L176,256 L170,260 L167,263 L167,272 L169,272 L171,277 L184,287 L187,289 L194,289 L193,285 L185,277 L184,271 L196,271 L207,273 L218,280 L225,287 L227,290 L226,295 L225,297 L225,303 L228,307 L238,307 L240,305 L269,303 L269,305 L265,307 L259,313 L259,318 L269,319 L273,315 L278,315 L282,318 L287,321 L286,328 L285,329 L285,335 L294,334 L291,341 L279,350 L271,357 L270,362 L271,363 L278,363 L286,355 L299,347 L306,337 L309,327 L309,325 L311,325 L311,323 L315,322 L329,315 L336,309 L342,298 L342,284 L337,275 L322,260 L312,253 L303,249 L295,246 L292,241 L280,234 L269,234 L267,236 L259,236 L248,233 L242,232 Z M197,279 L197,292 L194,294 L187,296 L183,301 L181,305 L181,314 L186,322 L192,325 L195,325 L195,353 L197,353 L197,358 L187,361 L184,363 L184,365 L180,367 L176,372 L171,379 L171,381 L169,381 L163,389 L163,395 L161,395 L156,400 L150,409 L147,415 L144,453 L142,457 L142,461 L139,461 L139,463 L133,461 L133,463 L130,461 L116,461 L117,457 L122,455 L124,451 L128,449 L135,448 L134,443 L120,443 L116,444 L115,451 L111,453 L107,459 L107,461 L96,461 L86,453 L82,451 L69,451 L63,453 L56,453 L52,452 L53,438 L52,437 L46,437 L42,442 L41,445 L37,445 L38,438 L40,436 L40,430 L36,426 L34,426 L34,424 L31,423 L18,423 L13,428 L12,430 L12,443 L14,448 L19,453 L36,456 L48,459 L55,461 L52,473 L48,475 L32,475 L26,473 L17,473 L17,478 L22,478 L20,483 L19,486 L17,486 L14,492 L14,498 L18,502 L24,502 L24,500 L26,500 L34,487 L34,485 L48,484 L47,497 L49,499 L58,498 L56,503 L58,510 L62,512 L101,512 L101,514 L120,515 L123,516 L139,516 L137,526 L133,536 L130,546 L129,550 L129,572 L133,575 L140,577 L151,577 L150,589 L147,597 L142,607 L134,610 L109,615 L104,618 L101,618 L101,623 L99,623 L98,618 L93,619 L91,621 L82,621 L78,618 L74,619 L74,624 L76,624 L76,626 L91,630 L99,635 L111,640 L116,642 L120,641 L127,640 L130,643 L137,643 L142,644 L142,646 L153,646 L159,636 L160,630 L160,619 L159,614 L168,597 L175,588 L176,581 L186,578 L189,574 L192,569 L201,568 L205,566 L207,570 L212,575 L216,578 L223,578 L228,577 L251,577 L261,580 L267,584 L277,586 L285,590 L287,592 L286,602 L284,618 L282,624 L280,643 L272,643 L263,645 L263,649 L289,649 L296,647 L300,646 L300,644 L305,644 L310,639 L319,625 L323,613 L328,602 L328,595 L326,590 L320,586 L307,584 L297,582 L293,580 L293,577 L296,576 L296,573 L293,572 L292,570 L284,568 L283,564 L281,560 L280,561 L279,558 L280,546 L281,545 L281,536 L272,534 L268,528 L266,528 L266,522 L262,517 L258,511 L256,511 L255,505 L251,498 L255,496 L260,490 L261,488 L261,472 L257,463 L255,463 L254,459 L250,455 L248,452 L248,446 L257,440 L259,440 L261,442 L262,440 L267,442 L270,455 L273,456 L276,467 L277,468 L277,484 L274,486 L273,498 L272,501 L272,509 L274,509 L276,513 L284,520 L288,520 L288,522 L294,523 L297,520 L310,519 L310,521 L312,522 L321,522 L323,519 L322,513 L317,510 L306,509 L306,502 L311,502 L313,490 L313,480 L311,480 L307,464 L305,458 L304,450 L299,438 L297,438 L295,430 L293,429 L289,421 L285,411 L279,399 L275,386 L272,380 L271,375 L266,370 L259,362 L258,359 L256,359 L257,354 L253,356 L237,357 L237,359 L232,360 L230,360 L230,355 L231,351 L222,351 L219,352 L208,352 L206,348 L205,342 L208,342 L210,339 L232,339 L235,344 L239,344 L240,340 L240,326 L234,321 L230,321 L230,328 L222,329 L212,329 L204,328 L206,320 L209,320 L209,315 L192,314 L190,312 L191,304 L194,302 L201,300 L205,295 L205,279 Z M258,332 L254,333 L253,340 L256,343 L263,343 L275,336 L275,332 Z " fill="#FDFDFD" transform="translate(0,0)"/>
<path d="M0,0 L2,1 L1,5 L3,5 L2,7 L-4,5 L-13,5 L-18,7 L-25,15 L-27,21 L-20,18 L-12,13 L-4,13 L4,19 L9,26 L9,30 L11,30 L12,39 L16,43 L19,53 L22,61 L22,65 L24,65 L27,70 L27,72 L29,72 L33,78 L37,90 L37,93 L39,93 L42,99 L44,111 L46,115 L46,118 L30,118 L28,107 L24,99 L20,88 L20,86 L18,86 L12,71 L8,65 L4,60 L2,49 L-4,42 L-9,42 L-10,43 L-11,54 L-15,55 L-17,59 L-21,62 L-21,80 L-19,82 L-20,86 L-25,89 L-26,91 L-28,91 L-27,95 L-20,96 L-21,106 L-28,109 L-32,110 L-33,105 L-38,105 L-39,110 L-37,114 L-35,121 L-30,121 L-22,114 L-15,114 L-13,109 L-9,110 L-2,119 L-2,133 L-4,136 L-7,137 L-16,137 L-19,135 L-24,134 L-25,140 L-27,143 L-35,145 L-36,146 L-46,148 L-52,149 L-56,141 L-61,136 L-62,127 L-64,127 L-64,122 L-57,120 L-56,116 L-66,114 L-66,104 L-67,98 L-67,85 L-66,76 L-69,75 L-69,73 L-78,72 L-80,70 L-76,70 L-76,68 L-71,68 L-70,60 L-71,56 L-73,56 L-73,54 L-84,54 L-84,43 L-83,40 L-82,34 L-76,29 L-74,29 L-71,20 L-68,15 L-65,13 L-51,12 L-46,9 L-44,9 L-44,7 L-29,6 L-26,3 L-24,7 L-22,5 L-18,5 L-17,3 L-2,2 Z M-46,14 L-52,18 L-56,22 L-56,24 L-58,24 L-59,30 L-50,31 L-51,34 L-60,34 L-62,30 L-68,31 L-72,36 L-72,42 L-69,50 L-65,51 L-51,47 L-51,45 L-46,43 L-41,37 L-39,34 L-39,29 L-41,28 L-39,25 L-38,14 Z M-27,29 L-28,34 L-32,35 L-31,43 L-32,45 L-41,48 L-51,54 L-51,56 L-55,58 L-61,67 L-61,72 L-56,71 L-49,65 L-44,60 L-29,52 L-20,47 L-21,30 Z " fill="#F1F4F2" transform="translate(255,354)"/>
<path d="M0,0 L3,1 L1,2 L2,9 L0,13 L10,15 L26,19 L42,27 L50,31 L54,33 L54,35 L59,37 L62,40 L62,42 L66,43 L76,53 L81,58 L91,68 L91,70 L103,70 L106,67 L108,67 L108,65 L114,62 L124,60 L131,52 L131,55 L130,57 L132,57 L133,61 L131,61 L131,67 L134,68 L125,75 L113,81 L110,81 L110,83 L108,83 L106,93 L99,104 L90,110 L82,115 L82,113 L79,113 L80,111 L82,112 L83,107 L77,112 L75,111 L84,103 L90,99 L93,92 L84,93 L84,87 L86,84 L86,79 L81,76 L77,73 L72,73 L68,77 L58,76 L58,71 L66,63 L68,63 L68,61 L39,63 L37,65 L27,65 L24,61 L24,55 L26,51 L25,47 L18,39 L8,32 L2,30 L-5,29 L-14,29 L-17,30 L-18,33 L-20,33 L-17,38 L-18,40 L-24,40 L-30,35 L-32,30 L-34,30 L-34,21 L-27,15 L-25,14 L-11,13 L-10,9 L-6,6 L-3,6 L-1,1 Z " fill="#1C3525" transform="translate(201,242)"/>
<path d="M0,0 L29,0 L43,2 L47,8 L55,12 L65,12 L71,11 L81,15 L89,19 L97,23 L102,28 L109,35 L111,39 L111,50 L102,61 L90,64 L86,65 L86,67 L84,67 L83,70 L81,71 L69,70 L62,62 L56,55 L48,48 L43,43 L40,42 L36,37 L32,35 L32,33 L28,32 L9,22 L-7,17 L-14,15 L-23,14 L-21,9 L-12,3 Z M33,21 L34,25 L44,34 L53,35 L58,40 L63,46 L68,48 L69,52 L73,57 L78,63 L82,62 L82,53 L75,44 L68,36 L57,28 L48,23 L44,23 L44,21 Z " fill="#F2F4F3" transform="translate(223,242)"/>
<path d="M0,0 L2,0 L3,3 L6,3 L7,12 L11,19 L14,21 L22,22 L26,24 L26,27 L23,28 L23,31 L30,34 L40,36 L44,38 L44,43 L41,45 L39,49 L39,55 L51,57 L50,60 L52,60 L52,63 L50,64 L50,72 L47,79 L42,86 L39,86 L38,83 L42,80 L41,79 L41,74 L30,71 L21,70 L18,80 L16,92 L15,92 L15,84 L12,83 L12,75 L14,69 L17,48 L17,43 L14,40 L4,36 L-3,35 L-11,30 L-19,28 L-42,28 L-47,29 L-54,29 L-59,25 L-60,20 L-63,19 L-63,16 L-60,16 L-60,11 L-55,14 L-51,18 L-41,17 L-30,14 L-23,11 L-14,9 L-13,6 L-8,3 L-1,2 Z " fill="#1A3223" transform="translate(270,549)"/>
<path d="M0,0 L3,0 L4,9 L17,9 L21,10 L22,9 L29,9 L36,15 L38,34 L45,42 L46,49 L41,52 L34,54 L28,61 L24,63 L14,63 L14,61 L8,60 L-9,59 L-9,57 L-17,56 L-17,42 L-14,39 L-6,39 L-5,40 L6,41 L8,42 L8,46 L22,44 L25,43 L25,32 L20,34 L18,36 L9,36 L8,35 L-8,33 L-12,32 L-11,25 L-9,24 L-3,24 L-4,18 L-7,18 L-6,9 L-3,4 L-1,3 Z " fill="#F1F3F2" transform="translate(153,510)"/>
<path d="M0,0 L19,1 L19,3 L29,2 L33,1 L33,3 L27,4 L27,6 L29,7 L28,9 L33,9 L30,11 L28,11 L27,18 L20,27 L11,44 L9,44 L8,47 L5,50 L0,51 L1,53 L-14,51 L-14,54 L-10,56 L-10,62 L-11,63 L-12,71 L-19,70 L-24,67 L-26,64 L-28,56 L-31,54 L-46,53 L-45,49 L-39,45 L-14,40 L-6,37 L0,26 L2,19 L3,7 L-3,6 L1,4 Z " fill="#1E3526" transform="translate(148,570)"/>
<path d="M0,0 L2,0 L2,7 L10,4 L12,1 L16,1 L19,10 L24,14 L30,15 L30,13 L41,10 L44,7 L48,6 L49,8 L49,24 L51,26 L51,35 L48,37 L20,37 L-13,35 L-11,30 L-4,22 L-1,16 Z " fill="#F1F4F3" transform="translate(92,470)"/>
<path d="M0,0 L5,0 L12,8 L14,19 L18,24 L19,33 L19,40 L17,40 L17,38 L12,39 L8,46 L1,50 L1,58 L1,61 L0,66 L2,67 L1,69 L-4,68 L-5,73 L-8,74 L-8,72 L-10,71 L-9,69 L-11,69 L-12,71 L-14,70 L-12,61 L-10,57 L-10,51 L-9,47 L-10,45 L-9,41 L-13,39 L-13,21 L-7,16 L-4,13 L-2,13 L-2,2 Z " fill="#1E3426" transform="translate(246,395)"/>
<path d="M0,0 L2,4 L5,8 L22,9 L23,15 L23,24 L22,30 L15,29 L3,26 L4,32 L8,34 L24,37 L26,42 L26,47 L19,52 L7,52 L0,50 L-1,45 L-1,40 L-7,40 L-9,45 L-11,45 L-10,33 L-9,20 L-7,19 L-6,8 L-3,1 Z " fill="#EDF1EF" transform="translate(159,441)"/>
<path d="M0,0 L3,1 L3,8 L6,8 L8,21 L7,25 L15,25 L19,35 L22,42 L23,44 L27,45 L26,36 L32,33 L34,33 L34,30 L36,30 L36,28 L43,28 L48,33 L48,44 L47,45 L40,46 L38,48 L35,48 L34,52 L19,56 L11,59 L2,59 L7,54 L12,54 L12,46 L5,46 L3,42 L3,36 L5,36 L4,30 L-1,30 L-6,21 L-5,14 L-3,11 L-3,3 Z " fill="#EDF0EE" transform="translate(222,507)"/>
<path d="M0,0 L13,0 L16,1 L16,3 L21,5 L22,7 L22,13 L19,17 L19,24 L25,23 L23,29 L21,32 L12,32 L1,30 L-5,24 L-6,20 L-6,7 L-4,3 Z " fill="#1B3323" transform="translate(18,423)"/>
<path d="M0,0 L5,0 L5,6 L4,7 L4,22 L-2,25 L-5,39 L-10,49 L-12,55 L-18,58 L-19,56 L-20,68 L-22,70 L-19,29 L-13,19 L-10,14 L-5,9 L-3,9 L-3,3 Z " fill="#203728" transform="translate(166,386)"/>
<path d="M0,0 L6,2 L6,6 L20,6 L21,7 L21,14 L13,17 L9,17 L10,22 L16,22 L19,20 L23,20 L22,25 L16,28 L12,28 L12,30 L6,30 L0,25 L-2,20 L-2,16 L-6,16 L-8,20 L-12,22 L-16,22 L-18,12 L-19,8 L-17,8 L-17,10 L-15,10 L-15,8 L-3,8 L-2,3 Z " fill="#23392B" transform="translate(110,455)"/>
<path d="M0,0 L11,0 L24,8 L26,12 L41,18 L42,21 L44,22 L43,26 L37,25 L31,22 L25,20 L19,21 L9,21 L1,17 L-2,14 L-3,11 L-6,10 L-8,6 L-10,5 L-9,4 L-1,4 Z " fill="#193122" transform="translate(269,234)"/>
<path d="M0,0 L7,1 L8,4 L17,5 L18,7 L18,13 L21,14 L20,19 L16,18 L9,13 L2,14 L2,18 L7,20 L6,24 L3,24 L5,35 L9,38 L4,40 L-1,41 L-1,43 L5,43 L5,44 L-2,44 L-2,37 L-3,34 L-3,27 L-6,27 L-6,22 L-4,22 L-6,17 L-12,18 L-18,21 L-21,20 L-23,17 L-28,16 L-24,14 L-20,12 L-12,11 L-9,9 L-3,8 Z " fill="#203628" transform="translate(231,488)"/>
<path d="M0,0 L10,0 L15,3 L17,7 L18,22 L22,23 L23,21 L23,24 L12,25 L9,26 L8,30 L0,32 L-6,32 L-8,28 L-8,21 L-2,11 L-1,1 Z " fill="#E9EEEB" transform="translate(288,478)"/>
<path d="M0,0 L6,0 L7,1 L7,10 L14,12 L12,15 L7,17 L3,17 L1,25 L-1,25 L-1,34 L-4,39 L-5,45 L-8,41 L-12,42 L-12,35 L-18,35 L-18,34 L-12,33 L-11,28 L-19,28 L-19,27 L-10,25 L-10,16 L-12,14 L-12,7 L-9,1 L-6,4 L-5,6 L-1,7 L-1,1 Z " fill="#1F3627" transform="translate(152,480)"/>
<path d="M0,0 L5,0 L6,1 L6,7 L17,8 L22,11 L23,17 L21,20 L12,20 L10,19 L10,17 L-3,18 L-6,21 L-12,20 L-12,18 L-16,16 L-20,11 L-22,9 L-18,7 L-12,7 L-10,6 L-4,6 L-3,2 Z " fill="#203628" transform="translate(300,502)"/>
<path d="M0,0 L2,0 L3,3 L8,4 L13,7 L13,15 L21,20 L23,22 L24,33 L23,35 L21,35 L20,38 L20,34 L12,35 L8,32 L8,28 L10,28 L11,22 L2,23 L0,21 L-1,10 L2,9 L2,4 L-1,4 Z " fill="#E7EBE9" transform="translate(235,502)"/>
<path d="M0,0 L17,0 L32,3 L34,4 L43,4 L43,6 L37,7 L38,12 L19,10 L-8,10 L-8,7 L-10,7 L-8,3 L-6,1 Z " fill="#283C30" transform="translate(225,232)"/>
<path d="M0,0 L9,0 L20,4 L19,8 L16,13 L8,19 L2,23 L-5,23 L-4,10 L-1,2 Z " fill="#E6EBE8" transform="translate(291,619)"/>
<path d="M0,0 L2,0 L4,5 L6,5 L7,22 L4,23 L2,33 L1,33 L0,18 L-17,18 L-21,13 L-21,6 L-20,5 L-14,5 L-14,7 L-1,6 L0,2 Z " fill="#1E3527" transform="translate(181,432)"/>
<path d="M0,0 L5,1 L6,8 L19,8 L21,2 L23,0 L27,0 L26,5 L22,11 L17,15 L15,15 L15,17 L1,21 L-3,20 L-6,12 L-6,6 L-2,1 Z " fill="#24392D" transform="translate(189,384)"/>
<path d="M0,0 L9,0 L9,5 L6,5 L4,13 L12,14 L14,15 L12,20 L3,26 L-4,30 L-4,9 L-11,7 L-8,1 Z " fill="#1A3223" transform="translate(200,315)"/>
<path d="M0,0 L5,1 L10,5 L10,19 L9,23 L5,23 L2,18 L-22,16 L-17,11 L-16,9 L0,7 Z " fill="#21372A" transform="translate(230,321)"/>
<path d="M0,0 L11,2 L10,4 L12,6 L10,7 L10,9 L8,9 L7,14 L0,25 L-2,25 L-2,27 L-8,27 L-12,23 L-11,14 L-6,12 L-4,8 L0,1 Z " fill="#1A3121" transform="translate(26,475)"/>
<path d="M0,0 L10,1 L15,3 L24,4 L27,10 L27,16 L26,17 L15,17 L6,14 L6,9 L4,9 L3,12 L0,13 L-2,12 L-2,5 Z " fill="#E5EBE7" transform="translate(155,496)"/>
<path d="M0,0 L6,0 L9,3 L12,13 L13,19 L6,23 L3,27 L1,27 L-3,15 L-6,10 L-6,3 Z " fill="#EAEEEB" transform="translate(202,523)"/>
<path d="M0,0 L5,3 L5,6 L10,6 L11,12 L9,12 L11,22 L18,22 L19,28 L12,30 L8,32 L3,31 L4,26 L6,26 L4,16 L-7,17 L-6,13 L-1,11 L-2,2 L0,2 Z " fill="#2D3F34" transform="translate(216,531)"/>
<path d="M0,0 L1,4 L4,4 L5,1 L5,3 L9,2 L9,7 L7,7 L6,11 L5,13 L12,12 L13,13 L13,18 L10,21 L7,26 L7,28 L10,30 L5,29 L3,28 L3,19 L1,19 L0,20 L-5,21 L-5,27 L-6,27 L-5,14 L-19,15 L-16,13 L-4,13 L-3,8 L-20,7 L-20,6 L-5,5 L-1,3 Z " fill="#586C5F" transform="translate(53,470)"/>
<path d="M0,0 L7,0 L3,2 L9,3 L9,4 L3,5 L1,13 L9,14 L17,17 L17,20 L14,21 L-1,21 L-7,26 L-9,24 L-11,25 L-10,17 L-7,7 L-4,1 Z " fill="#1A3123" transform="translate(140,529)"/>
<path d="M0,0 L12,0 L11,2 L8,3 L10,5 L9,6 L3,6 L5,9 L5,13 L-4,13 L-5,21 L-12,22 L-12,14 L-11,9 L-20,6 L-21,4 L-14,5 L-12,3 Z " fill="#1B3123" transform="translate(66,452)"/>
<path d="M0,0 L1,3 L12,1 L14,4 L14,12 L12,13 L12,17 L17,16 L26,15 L26,16 L20,18 L17,20 L21,22 L11,23 L4,16 L4,14 L2,14 L1,11 L-4,8 L-3,2 Z " fill="#E2E7E4" transform="translate(208,545)"/>
<path d="M0,0 L3,0 L2,6 L4,5 L19,5 L23,7 L24,9 L28,9 L28,11 L-14,11 L-19,8 L-19,3 L-11,3 L-10,4 L-2,4 L-2,7 L0,7 L-1,2 Z " fill="#1E3226" transform="translate(76,501)"/>
<path d="M0,0 L2,2 L1,5 L16,5 L21,10 L23,18 L25,21 L18,24 L11,23 L10,21 L18,21 L19,18 L10,16 L6,13 L-2,10 L-3,6 L0,5 Z " fill="#E2E8E5" transform="translate(101,618)"/>
<path d="M0,0 L5,3 L13,9 L18,15 L20,21 L18,21 L17,25 L12,23 L12,20 L7,18 L0,9 L-3,7 L-12,6 L-14,3 L-8,4 L-4,3 L0,6 L-1,3 Z " fill="#23382A" transform="translate(279,270)"/>
<path d="M0,0 L6,0 L7,1 L6,15 L13,17 L9,20 L5,21 L0,20 L-2,21 L-10,19 L-6,15 L-4,10 L-9,10 L-5,8 L-2,2 Z " fill="#213829" transform="translate(46,437)"/>
<path d="M0,0 L4,0 L4,11 L1,13 L-13,14 L-13,10 L-26,9 L-25,6 L-19,6 L-17,7 L-18,4 L-24,3 L-24,2 L-13,2 L-12,3 L-3,3 Z " fill="#22362B" transform="translate(174,542)"/>
<path d="M0,0 L5,0 L6,1 L6,6 L11,3 L16,2 L17,5 L16,6 L20,6 L21,11 L16,11 L8,18 L3,18 L1,16 L-1,8 L-2,2 Z " fill="#293B30" transform="translate(217,458)"/>
<path d="M0,0 L3,0 L5,5 L5,16 L3,24 L-1,28 L0,22 L-5,25 L-9,24 L-5,22 L-6,12 L-10,8 L-7,8 L-8,6 L0,5 Z " fill="#233A2B" transform="translate(155,614)"/>
<path d="M0,0 L6,0 L6,16 L4,24 L1,27 L-5,27 L-5,18 L-3,18 L-2,10 L-1,1 Z " fill="#1A3023" transform="translate(85,468)"/>
<path d="M0,0 L12,2 L13,5 L20,5 L20,6 L15,6 L15,8 L13,9 L19,9 L22,11 L22,13 L15,12 L0,12 L-1,16 L2,19 L-3,20 L-5,16 L-3,6 L-1,6 Z " fill="#ECF0ED" transform="translate(164,416)"/>
<path d="M0,0 L8,1 L16,2 L15,7 L18,8 L9,9 L-1,9 L-5,8 L-19,7 L-15,4 L-17,2 L-1,1 Z " fill="#142B1D" transform="translate(125,506)"/>
<path d="M0,0 L1,0 L2,9 L6,7 L5,21 L3,26 L2,36 L-2,38 L-3,42 L-5,42 L-6,37 L-5,31 L-3,22 L-2,20 Z " fill="#172D1F" transform="translate(147,434)"/>
<path d="M0,0 L2,1 L7,12 L9,20 L11,20 L15,30 L14,32 L12,32 L12,30 L10,29 L8,36 L5,33 L2,22 L-1,15 L1,15 L0,6 Z " fill="#2C4034" transform="translate(264,420)"/>
<path d="M0,0 L8,0 L9,2 L7,2 L5,7 L-2,8 L-2,10 L-7,13 L-19,13 L-19,11 L-17,10 L-16,7 L-14,6 L-14,2 L-8,3 L-8,1 Z " fill="#182E20" transform="translate(213,353)"/>
<path d="M0,0 L2,2 L3,9 L0,14 L-3,14 L-4,22 L-4,26 L-2,26 L-3,30 L-4,28 L-10,30 L-10,23 L-12,20 L-12,17 L-21,17 L-21,16 L-10,15 L-10,19 L-8,19 L-8,17 L-6,17 L-8,13 L-10,13 L-10,11 L-13,10 L-11,7 L-5,7 L-5,5 L-3,6 L-2,5 Z " fill="#24392B" transform="translate(191,483)"/>
<path d="M0,0 L3,1 L6,4 L11,15 L10,25 L7,28 L6,28 L5,36 L3,35 L3,19 L-1,9 L-2,3 Z " fill="#23382B" transform="translate(274,449)"/>
<path d="M0,0 L3,3 L12,5 L11,13 L10,14 L8,30 L7,30 L6,22 L2,21 L3,18 L1,18 L0,9 L-4,4 L0,2 Z " fill="#1C3324" transform="translate(269,531)"/>
<path d="M0,0 L3,1 L1,2 L3,3 L3,5 L-1,5 L-2,10 L-7,15 L-14,21 L-19,22 L-18,15 L-12,7 L-9,6 L-9,4 L-4,1 Z " fill="#22372A" transform="translate(213,404)"/>
<path d="M0,0 L1,0 L1,11 L9,12 L9,14 L26,14 L28,16 L15,16 L13,15 L13,18 L15,19 L14,22 L5,22 L-3,19 L-6,17 L-6,15 L-4,15 L-3,11 L0,11 Z " fill="#2D4335" transform="translate(135,555)"/>
<path d="M0,0 L8,0 L14,4 L16,9 L16,16 L9,32 L8,32 L7,25 L10,26 L10,23 L8,23 L7,18 L8,17 L7,7 L2,5 L2,1 Z " fill="#2A3D30" transform="translate(312,586)"/>
<path d="M0,0 L5,0 L8,3 L8,5 L2,7 L0,19 L-1,24 L-3,24 L-3,29 L-6,29 L-7,31 L-12,32 L-11,24 L-4,14 L-2,7 Z " fill="#E3E9E5" transform="translate(83,462)"/>
<path d="M0,0 L2,1 L2,3 L5,3 L8,11 L9,24 L4,27 L4,25 L2,25 L-1,12 L-3,8 L-4,2 Z " fill="#23392C" transform="translate(296,439)"/>
<path d="M0,0 L1,4 L0,6 L-2,6 L-2,10 L2,12 L10,12 L9,17 L6,19 L3,19 L4,28 L-1,27 L-4,22 L-7,10 L-3,9 L-3,2 L0,2 Z " fill="#2E4136" transform="translate(245,524)"/>
<path d="M0,0 L3,4 L-1,6 L2,10 L-1,15 L-5,18 L-10,18 L-10,20 L-15,22 L-24,22 L-21,21 L-22,18 L-19,18 L-19,16 L-5,7 L-2,4 Z " fill="#24382C" transform="translate(310,626)"/>
<path d="M0,0 L3,1 L7,9 L9,13 L14,14 L16,17 L16,20 L6,22 L2,18 L1,11 L-1,11 L-2,2 Z " fill="#D8E0DC" transform="translate(188,498)"/>
<path d="M0,0 L11,0 L21,2 L22,3 L21,12 L20,23 L19,23 L18,13 L16,10 L15,5 L13,5 L14,10 L12,12 L-1,12 L-1,11 L11,9 L12,6 L-2,5 L-3,1 Z " fill="#3A4A40" transform="translate(168,427)"/>
<path d="M0,0 L17,0 L17,4 L5,11 L-2,11 L-5,8 L-4,1 Z " fill="#213429" transform="translate(258,332)"/>
<path d="M0,0 L11,0 L13,5 L12,11 L6,20 L4,22 L-1,21 L1,17 L4,12 L5,11 L5,6 L-2,6 Z " fill="#1C3024" transform="translate(60,477)"/>
<path d="M0,0 L11,0 L11,2 L17,3 L23,7 L24,13 L21,13 L21,11 L12,12 L6,9 L0,3 Z " fill="#283C30" transform="translate(256,263)"/>
<path d="M0,0 L8,0 L7,13 L1,21 L-1,19 L-2,15 L-11,14 L-12,4 L-11,2 L-9,2 L-9,10 L-10,13 L-2,12 L-1,11 Z " fill="#2B3E32" transform="translate(73,463)"/>
<path d="M0,0 L2,1 L1,2 L1,8 L5,14 L8,17 L8,19 L11,20 L14,28 L13,32 L13,29 L10,28 L8,27 L6,31 L-2,20 L1,18 L-2,17 L0,10 L-1,9 L-1,1 Z " fill="#2B3F33" transform="translate(247,444)"/>
<path d="M0,0 L1,2 L3,2 L6,8 L10,10 L10,13 L12,13 L10,20 L7,19 L8,22 L11,25 L10,27 L5,22 L3,17 L1,14 L1,11 L-2,10 L-4,5 L-6,2 L-3,1 L0,2 Z " fill="#283C30" transform="translate(200,546)"/>
<path d="M0,0 L1,0 L3,7 L3,12 L2,13 L-8,12 L-15,10 L-19,8 L-19,2 L-10,3 L0,6 Z " fill="#283A2E" transform="translate(181,465)"/>
<path d="M0,0 L4,1 L5,7 L9,11 L12,19 L11,23 L3,23 L1,20 Z " fill="#203628" transform="translate(190,525)"/>
<path d="M0,0 L3,1 L3,3 L5,3 L7,7 L13,9 L15,13 L12,15 L11,18 L10,16 L1,15 L-3,9 L-2,1 Z " fill="#162F1E" transform="translate(196,496)"/>
<path d="M0,0 L2,1 L4,8 L6,8 L9,20 L7,23 L4,23 L3,27 L0,15 L-1,11 L-4,10 L-3,2 Z " fill="#22372A" transform="translate(271,384)"/>
<path d="M0,0 L1,2 L1,5 L5,5 L6,2 L8,4 L4,6 L4,11 L0,18 L-5,18 L-6,17 L-14,16 L-15,14 L-12,11 L-7,10 L-2,4 Z " fill="#CAD3CE" transform="translate(71,488)"/>
<path d="M0,0 L5,1 L7,3 L7,13 L3,16 L-6,17 L-6,13 L-4,13 L-4,4 L0,3 Z " fill="#EFF3F1" transform="translate(143,623)"/>
<path d="M0,0 L1,2 L1,7 L-1,7 L0,13 L-1,20 L1,20 L2,13 L3,15 L5,14 L6,4 L8,3 L6,24 L5,30 L7,30 L8,27 L8,31 L3,30 L1,26 L-2,30 L-3,22 L-3,7 Z " fill="#3F5146" transform="translate(143,456)"/>
<path d="M0,0 L3,3 L4,9 L7,10 L10,15 L9,17 L6,18 L4,21 L-1,18 L-5,15 L-3,5 L-1,4 Z " fill="#283D31" transform="translate(252,502)"/>
<path d="M0,0 L3,1 L5,7 L6,14 L8,17 L8,24 L5,22 L3,18 L2,20 L-1,19 L-2,15 L-4,15 L-4,13 L-6,11 L-2,11 L-5,4 L-6,1 L-3,2 Z " fill="#203629" transform="translate(304,463)"/>
<path d="M0,0 L1,0 L2,7 L5,10 L5,12 L7,13 L7,20 L8,23 L5,25 L12,33 L9,33 L0,25 L0,23 L-2,23 L-2,15 L-1,12 Z " fill="#2D4033" transform="translate(274,486)"/>
<path d="M0,0 L5,1 L7,6 L7,12 L5,15 L-3,14 L-6,11 L-5,6 L-2,1 Z " fill="#E1E7E4" transform="translate(314,591)"/>
<path d="M0,0 L1,0 L1,6 L-1,9 L1,11 L-4,13 L-7,19 L-11,20 L-20,20 L-21,15 L-11,15 L-10,12 L-19,11 L-18,5 L-17,5 L-17,10 L-10,9 L-9,7 L0,5 Z " fill="#D1DAD4" transform="translate(215,373)"/>
<path d="M0,0 L1,0 L2,7 L13,12 L10,13 L8,14 L8,17 L2,15 L-7,10 L-13,9 L-12,5 L-4,4 Z " fill="#273A2F" transform="translate(95,619)"/>
<path d="M0,0 L3,0 L3,16 L6,17 L3,21 L5,21 L5,19 L7,19 L5,27 L-2,25 L-2,18 L-3,17 L-2,4 Z " fill="#132C1D" transform="translate(185,454)"/>
<path d="M0,0 L5,3 L6,4 L6,10 L9,11 L8,17 L-1,17 L-2,16 L-3,2 Z " fill="#1B3123" transform="translate(260,518)"/>
<path d="M0,0 L1,2 L1,7 L0,8 L0,18 L10,19 L6,21 L1,23 L-1,28 L5,28 L6,32 L4,33 L4,29 L-7,28 L-9,33 L-10,29 L-9,22 L-7,20 L-3,19 L-3,4 Z " fill="#CCD5D0" transform="translate(172,389)"/>
<path d="M0,0 L2,0 L2,5 L7,3 L11,3 L11,9 L5,9 L4,12 L3,13 L-9,13 L-9,10 L-3,9 L-5,2 L-1,1 Z " fill="#283C2F" transform="translate(207,510)"/>
<path d="M0,0 L3,3 L8,13 L11,20 L14,26 L13,30 L9,28 L5,26 L4,22 L2,22 L1,19 L5,19 L4,16 L2,18 L3,10 L2,5 L-1,6 L-1,4 L1,4 Z " fill="#253A2D" transform="translate(280,404)"/>
<path d="M0,0 L7,4 L19,15 L21,18 L18,22 L9,14 L6,11 L1,9 L1,6 L-1,4 L1,3 Z " fill="#273A2F" transform="translate(311,253)"/>
<path d="M0,0 L4,2 L6,0 L6,10 L5,18 L3,21 L-2,20 L-3,3 L-1,3 Z " fill="#213529" transform="translate(307,480)"/>
<path d="M0,0 L6,1 L7,18 L-4,24 L-7,23 L-5,16 L-3,14 L0,17 L-1,11 L3,9 L4,7 L2,7 L2,5 L3,4 L2,2 L0,2 Z " fill="#253B2D" transform="translate(228,383)"/>
<path d="M0,0 L1,0 L2,12 L4,9 L5,12 L8,11 L6,17 L0,23 L-2,23 L-1,27 L-4,26 L-5,18 L-15,18 L-14,16 L-2,15 L-1,12 Z " fill="#37493E" transform="translate(253,475)"/>
<path d="M0,0 L1,2 L21,2 L34,3 L47,3 L46,5 L33,6 L31,9 L42,10 L42,11 L23,11 L23,9 L26,9 L21,7 L20,5 L17,4 L2,4 L-1,4 Z " fill="#2F4237" transform="translate(78,503)"/>
<path d="M0,0 L8,0 L8,16 L6,18 L6,13 L2,16 L-1,15 L-2,18 L-11,19 L-8,16 L-2,14 L0,13 Z " fill="#314237" transform="translate(197,279)"/>
<path d="M0,0 L3,4 L3,6 L15,5 L11,7 L9,7 L9,10 L13,11 L7,13 L7,20 L5,19 L5,13 L2,13 L2,31 L1,31 L-1,12 L-2,7 Z " fill="#384C3F" transform="translate(189,513)"/>
<path d="M0,0 L6,1 L8,5 L8,10 L6,12 L0,12 L-1,8 L-7,8 L-6,3 L-4,1 Z " fill="#283C30" transform="translate(178,409)"/>
<path d="M0,0 L20,1 L20,8 L25,6 L26,6 L26,14 L29,14 L30,20 L22,21 L22,18 L23,16 L20,15 L19,18 L17,18 L17,12 L19,2 L3,2 Z " fill="#405248" transform="translate(120,514)"/>
<path d="M0,0 L5,1 L6,6 L4,6 L4,4 L0,5 L-1,7 L-2,14 L0,15 L-3,17 L-5,22 L-8,19 L-7,15 L-3,15 L-3,9 L-8,11 L-12,11 L-12,6 Z " fill="#DEE6E1" transform="translate(221,504)"/>
<path d="M0,0 L6,2 L6,0 L8,0 L7,15 L2,17 L0,20 L-2,19 L-1,18 L-1,13 L-3,11 L-1,9 L-1,2 Z " fill="#ECF0EE" transform="translate(133,461)"/>
<path d="M0,0 L5,5 L7,7 L9,12 L10,16 L5,19 L-3,8 L-6,6 L-6,4 L-1,2 Z " fill="#213529" transform="translate(259,363)"/>
<path d="M0,0 L1,2 L3,3 L-6,6 L-9,9 L-11,16 L-13,18 L-17,17 L-17,8 L-13,1 L-12,4 L-8,3 L-7,1 L0,3 Z " fill="#1E3428" transform="translate(198,297)"/>
<path d="M0,0 L4,0 L4,2 L2,3 L2,7 L-24,7 L-24,3 L-15,1 L-5,1 L-5,3 L-7,4 L-3,5 L-4,2 Z " fill="#2E4035" transform="translate(287,642)"/>
<path d="M0,0 L14,0 L16,1 L16,3 L19,2 L20,7 L18,7 L18,9 L16,9 L16,5 L14,6 L2,6 L-5,3 L-1,1 Z " fill="#1A3223" transform="translate(165,493)"/>
<path d="M0,0 L1,0 L1,9 L-5,18 L-7,18 L-9,14 L-10,19 L-11,19 L-11,6 L-9,5 L-9,7 L-5,6 L-5,2 L-1,3 Z " fill="#193022" transform="translate(286,480)"/>
<path d="M0,0 L3,3 L2,12 L-1,12 L-4,10 L-11,10 L-15,11 L-16,7 L-14,7 L-14,4 L-8,4 L-6,4 L-3,3 L-2,1 L0,2 Z " fill="#1C3224" transform="translate(186,510)"/>
<path d="M0,0 L4,1 L1,5 L3,5 L3,8 L8,7 L30,7 L30,8 L9,9 L-4,12 L-4,10 L-6,10 L-8,6 L-3,1 Z " fill="#43564A" transform="translate(214,234)"/>
<path d="M0,0 L5,5 L8,9 L8,18 L4,19 L-1,13 L-4,8 L-1,8 L0,5 L2,5 Z " fill="#2B3F34" transform="translate(297,286)"/>
<path d="M0,0 L6,1 L7,21 L11,19 L13,28 L17,31 L15,31 L15,33 L8,33 L7,30 L5,30 L5,2 L0,1 Z " fill="#304237" transform="translate(190,323)"/>
<path d="M0,0 L4,0 L4,8 L1,11 L-9,12 L-8,7 L-5,6 L-5,1 Z " fill="#1E3327" transform="translate(120,445)"/>
<path d="M0,0 L11,0 L16,3 L15,7 L9,8 L-2,7 L0,6 L-1,1 Z " fill="#1B3022" transform="translate(243,359)"/>
<path d="M0,0 L2,0 L0,10 L-11,10 L-11,8 L-14,7 L-14,3 L-2,2 Z " fill="#37483C" transform="translate(153,636)"/>
<path d="M0,0 L3,2 L2,5 L0,6 L0,9 L-3,9 L-3,11 L7,11 L7,12 L-7,13 L-11,15 L-14,12 L-18,14 L-15,10 L-13,10 L-13,8 L-6,5 L0,3 Z " fill="#3C4D42" transform="translate(197,355)"/>
<path d="M0,0 L2,0 L3,7 L-2,16 L-7,17 L-6,10 L-4,10 L-5,6 L-8,7 L-6,3 L-4,1 L-1,1 Z " fill="#152D1F" transform="translate(338,293)"/>
<path d="M0,0 L2,0 L3,3 L1,3 L1,5 L-2,6 L1,6 L0,10 L-4,14 L-11,14 L-12,11 L-9,6 L-3,3 Z " fill="#203427" transform="translate(282,349)"/>
<path d="M0,0 L4,1 L7,3 L16,3 L19,0 L23,0 L24,10 L21,8 L20,2 L16,6 L8,7 L7,9 L1,8 L1,6 L-1,6 L-1,1 Z " fill="#4B5A51" transform="translate(75,618)"/>
<path d="M0,0 L10,0 L18,3 L14,4 L13,11 L11,12 L12,5 L4,5 L4,16 L3,16 L3,8 L-4,8 L-4,14 L-5,14 L-5,7 L2,7 Z " fill="#C4CDC8" transform="translate(69,458)"/>
<path d="M0,0 L3,3 L3,5 L4,6 L6,11 L5,17 L7,16 L7,20 L2,19 L1,16 L-1,16 L-3,9 L-3,4 L0,4 Z " fill="#182F20" transform="translate(278,403)"/>
<path d="M0,0 L9,0 L8,4 L4,10 L-8,10 L-4,9 L-3,3 L-1,3 L-3,1 Z " fill="#263A2E" transform="translate(222,351)"/>
<path d="M0,0 L6,1 L8,2 L19,3 L17,6 L10,4 L9,10 L-4,7 L-3,2 Z " fill="#2D3D33" transform="translate(162,510)"/>
<path d="M0,0 L6,4 L17,4 L17,6 L5,6 L5,8 L3,8 L4,13 L2,13 L2,29 L0,32 L1,11 L-4,11 L-4,10 L1,10 L-3,5 L-10,3 L-10,2 L0,2 Z " fill="#54645A" transform="translate(90,457)"/>
<path d="M0,0 L3,3 L4,6 L4,16 L0,18 L-3,18 L-3,3 Z " fill="#142B1D" transform="translate(257,470)"/>
<path d="M0,0 L1,0 L3,6 L11,14 L11,17 L4,17 L-4,11 L0,10 L-1,6 L-2,3 L0,3 Z " fill="#35463C" transform="translate(183,272)"/>
<path d="M0,0 L13,0 L21,5 L21,8 L10,8 L6,6 L4,3 L8,2 L0,1 Z " fill="#24382D" transform="translate(69,451)"/>
<path d="M0,0 L1,0 L1,7 L6,9 L2,11 L-1,17 L-3,16 L-5,22 L-6,33 L-8,34 L-7,21 L-5,12 L-1,2 Z " fill="#CCD5D1" transform="translate(159,427)"/>
<path d="M0,0 L1,4 L2,6 L2,4 L6,5 L7,7 L4,10 L-3,16 L-5,16 L-4,12 L-7,13 L-7,9 L-6,7 L-4,7 L-2,2 Z " fill="#2C4033" transform="translate(175,374)"/>
<path d="M0,0 L8,0 L7,5 L6,10 L3,11 L0,9 L2,9 L2,7 L-1,8 L-6,7 L-5,3 Z " fill="#26372D" transform="translate(209,368)"/>
<path d="M0,0 L2,1 L3,5 L0,14 L-4,13 L-6,15 L-8,15 L-7,6 L-5,3 Z " fill="#192F22" transform="translate(183,366)"/>
<path d="M0,0 L2,4 L6,5 L6,7 L3,7 L2,18 L1,18 L1,13 L-2,14 L-5,17 L-7,17 L-7,15 L-5,15 L-5,7 L-4,2 L-1,2 Z " fill="#122A1B" transform="translate(284,470)"/>
<path d="M0,0 L2,0 L1,4 L3,4 L2,10 L-2,13 L-10,13 L-11,8 L-5,7 L-5,5 L-1,3 Z " fill="#172D20" transform="translate(186,566)"/>
<path d="M0,0 L9,0 L11,2 L9,2 L9,5 L6,6 L5,12 L7,13 L5,13 L5,15 L3,15 L3,19 L5,19 L5,22 L-4,22 L-7,18 L2,20 L2,12 L3,11 L3,5 L0,3 Z " fill="#CDD7D2" transform="translate(134,621)"/>
<path d="M0,0 L1,4 L3,4 L2,10 L0,10 L1,16 L-1,19 L-1,14 L-8,14 L-9,9 L-7,9 L-6,6 L-1,3 Z " fill="#405046" transform="translate(236,436)"/>
<path d="M0,0 L15,5 L14,9 L4,8 L-2,6 L-3,2 Z " fill="#223329" transform="translate(105,631)"/>
<path d="M0,0 L2,3 L7,4 L1,12 L-2,11 L-3,15 L-3,17 L-5,17 L-6,15 L-8,14 L-5,8 L-4,3 Z " fill="#24382B" transform="translate(79,491)"/>
<path d="M0,0 L4,2 L8,7 L9,16 L5,17 L-1,5 Z " fill="#192E21" transform="translate(331,271)"/>
<path d="M0,0 L3,3 L6,2 L5,15 L3,15 L1,19 L-1,19 L-1,3 Z " fill="#162A1E" transform="translate(130,551)"/>
<path d="M0,0 L1,4 L-1,8 L1,8 L2,6 L2,11 L-3,9 L-14,9 L-14,7 L-12,5 L-15,4 L-15,2 L0,2 Z " fill="#2E4136" transform="translate(301,470)"/>
<path d="M0,0 L1,0 L2,8 L0,9 L2,12 L-5,15 L-11,15 L-12,14 L-12,9 L0,6 Z " fill="#CCD7D1" transform="translate(131,463)"/>
<path d="M0,0 L2,3 L14,4 L17,7 L15,9 L3,10 L1,9 L1,6 L-2,4 Z " fill="#E9F1EE" transform="translate(164,428)"/>
<path d="M0,0 L4,1 L5,5 L7,5 L6,8 L0,12 L-2,8 L-1,4 L-3,6 L-5,10 L-9,11 L-11,12 L-9,8 Z " fill="#2C4134" transform="translate(203,239)"/>
<path d="M0,0 L13,0 L14,5 L12,7 L-1,7 L-2,2 Z " fill="#162C1F" transform="translate(37,477)"/>
<path d="M0,0 L2,0 L5,3 L8,0 L10,0 L10,2 L13,3 L10,3 L11,6 L8,7 L7,12 L18,13 L18,14 L6,14 L5,8 L0,9 Z " fill="#DADFDC" transform="translate(151,505)"/>
<path d="M0,0 L3,2 L6,1 L9,2 L10,6 L4,7 L3,10 L-4,10 L-3,3 Z " fill="#283B2F" transform="translate(202,373)"/>
<path d="M0,0 L9,0 L9,1 L2,3 L1,5 L-2,5 L0,12 L1,15 L6,16 L6,17 L-3,16 L-6,11 L-6,5 Z " fill="#C6D1CC" transform="translate(207,337)"/>
<path d="M0,0 L5,3 L8,12 L10,16 L9,20 L6,13 L3,14 L1,21 L0,21 L0,12 L-2,12 L0,8 L3,7 L0,2 Z " fill="#46584D" transform="translate(266,372)"/>
<path d="M0,0 L1,2 L1,7 L3,9 L11,10 L11,11 L3,11 L1,18 L-4,16 L-6,13 L-6,10 L-2,7 Z " fill="#334639" transform="translate(189,305)"/>
<path d="M0,0 L1,0 L2,11 L1,16 L8,17 L11,18 L10,23 L3,24 L4,21 L2,21 L2,23 L0,23 L2,19 L0,18 Z " fill="#3E4E45" transform="translate(188,452)"/>
<path d="M0,0 L2,2 L3,8 L5,8 L6,12 L4,12 L2,10 L-2,11 L-2,13 L0,14 L-2,17 L-6,6 L-5,1 L-1,3 Z " fill="#334539" transform="translate(294,430)"/>
<path d="M0,0 L6,1 L4,2 L5,8 L-6,13 L-6,9 L-2,9 L-2,7 L-5,6 L-5,5 L-7,4 Z " fill="#2C4034" transform="translate(218,400)"/>
<path d="M0,0 L14,0 L15,5 L8,6 L4,8 L4,2 L-4,3 L-4,1 Z " fill="#44534B" transform="translate(120,443)"/>
<path d="M0,0 L9,0 L9,1 L1,2 L3,4 L1,4 L1,7 L10,8 L11,10 L1,10 L-3,12 L-5,6 L-9,7 L-4,1 Z " fill="#415448" transform="translate(242,358)"/>
<path d="M0,0 L2,1 L3,4 L3,18 L1,15 L1,13 L-5,16 L-6,12 L-5,4 L-3,7 L1,7 Z " fill="#2A3E31" transform="translate(339,280)"/>
<path d="M0,0 L2,3 L4,10 L10,17 L11,22 L9,21 L9,18 L7,18 L6,16 L2,16 L1,23 L-1,21 L-2,18 L-4,16 L-1,16 L1,10 Z " fill="#3C4F43" transform="translate(192,481)"/>
<path d="M0,0 L9,0 L15,2 L11,4 L10,3 L8,7 L3,14 L0,15 L0,13 L2,13 L4,9 L5,5 L0,5 Z " fill="#324339" transform="translate(17,473)"/>
<path d="M0,0 L7,0 L7,9 L6,10 L-2,10 Z " fill="#EAF0ED" transform="translate(65,466)"/>
<path d="M0,0 L2,1 L3,7 L-4,12 L-8,12 L-6,5 L-4,2 Z " fill="#213429" transform="translate(236,363)"/>
<path d="M0,0 L8,0 L12,1 L12,4 L4,7 L2,8 L0,7 L1,3 L-1,3 L-2,7 L-6,8 Z " fill="#32423A" transform="translate(187,563)"/>
<path d="M0,0 L2,0 L2,2 L4,2 L4,11 L3,12 L-3,12 L-4,11 L-4,4 L0,1 Z " fill="#162C1D" transform="translate(52,487)"/>
<path d="M0,0 L6,1 L13,7 L13,13 L10,9 L9,7 L2,6 L1,2 L-1,2 L-2,6 L1,7 L-4,6 L-3,1 Z " fill="#D8E0DA" transform="translate(236,500)"/>
<path d="M0,0 L4,0 L4,3 L2,3 L2,5 L4,5 L4,11 L0,9 L0,15 L-3,14 L-5,4 L-1,3 Z " fill="#162B1E" transform="translate(228,385)"/>
<path d="M0,0 L3,3 L3,15 L4,17 L1,19 L1,21 L-7,21 L-3,19 L-1,19 L-1,17 L-3,17 Z " fill="#15271D" transform="translate(283,626)"/>
<path d="M0,0 L3,0 L3,2 L1,3 L0,9 L-2,9 L-3,11 L-6,8 L-12,7 L-12,5 L-7,3 Z " fill="#172C20" transform="translate(242,524)"/>
<path d="M0,0 L2,0 L2,6 L-3,8 L-9,7 L-13,10 L-15,9 L-15,6 L-10,4 L-6,4 L-5,2 L-1,1 Z " fill="#152C1F" transform="translate(201,292)"/>
<path d="M0,0 L4,1 L7,10 L3,8 L1,10 L0,8 L-4,10 L-10,12 L-8,9 L-5,8 L-2,2 Z " fill="#D2D9D4" transform="translate(259,432)"/>
<path d="M0,0 L1,4 L0,5 L-1,18 L1,21 L2,19 L4,25 L4,27 L12,29 L12,30 L4,30 L0,27 L-3,22 L-2,4 Z " fill="#CDD6D3" transform="translate(280,541)"/>
<path d="M0,0 L2,0 L5,6 L6,9 L2,11 L-4,11 L0,10 L0,7 L-10,6 L-10,5 L-4,3 L-1,2 Z " fill="#CFD5D1" transform="translate(199,557)"/>
<path d="M0,0 L2,1 L3,5 L6,11 L5,13 L2,14 L1,17 L-2,7 L-4,4 L-2,4 Z " fill="#293C31" transform="translate(212,519)"/>
<path d="M0,0 L1,0 L2,7 L-1,14 L-3,13 L-4,14 L-8,13 L-6,12 L-7,3 L-1,3 Z " fill="#263C2D" transform="translate(190,476)"/>
</svg>
