<?xml version="1.0" encoding="UTF-8"?>
<!-- Generator: visioncortex VTracer 0.6.12 -->
<svg version="1.1" xmlns="http://www.w3.org/2000/svg" width="490" height="533">
<path d="M0,0 L490,0 L490,533 L0,533 Z " fill="#FEFEFE" transform="translate(0,0)"/>
<path d="M0,0 L6,1 L10,11 L11,18 L18,26 L20,31 L20,35 L22,35 L26,46 L28,53 L32,56 L42,60 L46,62 L42,52 L41,50 L41,40 L45,31 L52,23 L54,23 L54,21 L59,19 L59,17 L66,14 L78,12 L90,7 L102,3 L108,2 L121,2 L131,4 L132,11 L130,16 L121,21 L118,24 L109,29 L106,32 L100,34 L98,37 L96,37 L96,39 L94,39 L92,47 L93,57 L94,62 L96,63 L96,65 L100,67 L104,73 L104,79 L106,79 L107,83 L109,83 L110,91 L112,91 L114,99 L114,122 L112,132 L110,137 L109,144 L107,144 L106,149 L101,161 L99,161 L97,167 L96,169 L95,179 L94,181 L92,181 L91,187 L89,187 L87,192 L86,195 L91,197 L100,201 L112,203 L131,204 L137,207 L141,210 L143,233 L144,260 L146,266 L149,269 L153,278 L158,283 L158,285 L162,287 L168,291 L168,295 L171,296 L170,300 L166,304 L149,304 L148,302 L141,299 L138,297 L131,295 L126,294 L125,299 L128,307 L128,311 L123,313 L110,313 L95,311 L88,308 L80,307 L75,304 L67,304 L56,307 L42,309 L41,310 L34,310 L29,308 L21,303 L15,303 L5,308 L2,308 L2,311 L-13,315 L-24,316 L-50,316 L-57,313 L-57,296 L-68,298 L-69,301 L-73,301 L-73,303 L-81,306 L-88,307 L-120,307 L-126,304 L-129,301 L-129,296 L-124,291 L-122,291 L-122,289 L-114,284 L-113,281 L-109,277 L-106,270 L-104,264 L-103,259 L-103,211 L-96,207 L-90,206 L-90,204 L-70,198 L-55,197 L-50,196 L-42,196 L-42,191 L-34,191 L-36,130 L-42,129 L-42,120 L-46,120 L-49,115 L-49,104 L-46,101 L-42,101 L-42,87 L-36,78 L-35,75 L-33,75 L-33,71 L-26,71 L-25,75 L-25,87 L-28,92 L-31,92 L-31,99 L-24,96 L-18,89 L-13,81 L-12,75 L-16,73 L-19,68 L-22,67 L-26,62 L-30,60 L-48,56 L-48,54 L-50,54 L-52,47 L-54,47 L-54,39 L-52,35 L-43,28 L-41,27 L-41,25 L-38,25 L-36,21 L-32,17 L-24,15 L-15,15 L-14,12 L-10,11 L-10,9 L-6,7 L-4,3 L-2,3 L-2,1 Z " fill="#7C684D" transform="translate(192,119)"/>
<path d="M0,0 L1,0 L3,23 L4,50 L6,56 L9,59 L13,68 L18,73 L18,75 L22,77 L28,81 L28,85 L31,86 L30,90 L26,94 L9,94 L8,92 L1,89 L-2,87 L-9,85 L-14,84 L-15,89 L-12,97 L-12,101 L-17,103 L-30,103 L-45,101 L-52,98 L-60,97 L-65,94 L-73,94 L-84,97 L-98,99 L-99,100 L-106,100 L-111,98 L-119,93 L-125,93 L-135,98 L-138,98 L-138,101 L-153,105 L-164,106 L-190,106 L-197,103 L-197,86 L-208,88 L-209,91 L-213,91 L-213,93 L-221,96 L-228,97 L-260,97 L-266,94 L-269,91 L-269,86 L-264,81 L-262,81 L-262,79 L-254,74 L-253,71 L-249,67 L-246,60 L-244,54 L-243,49 L-243,1 L-242,1 L-242,6 L-240,6 L-240,9 L-235,10 L-227,13 L-226,36 L-222,36 L-222,25 L-221,14 L-201,15 L-181,18 L-181,36 L-178,35 L-176,19 L-167,19 L-158,20 L-82,22 L-76,41 L-76,45 L-73,45 L-73,19 L-66,17 L-44,14 L-19,14 L-16,19 L-12,38 L-12,43 L-9,43 L-9,9 L-8,7 L-1,4 Z " fill="#D3BFA1" transform="translate(332,329)"/>
<path d="M0,0 L6,1 L10,11 L11,18 L18,26 L20,31 L20,35 L22,35 L22,37 L20,37 L21,43 L21,60 L19,68 L30,66 L42,66 L52,71 L52,73 L57,75 L61,77 L65,83 L67,88 L70,92 L71,99 L73,99 L75,103 L78,129 L78,151 L76,161 L72,178 L69,205 L62,214 L57,214 L55,203 L53,198 L53,195 L51,195 L48,188 L43,183 L41,181 L36,180 L39,187 L44,199 L44,209 L43,216 L40,219 L38,219 L38,221 L33,223 L14,223 L-5,222 L-28,222 L-28,212 L-32,213 L-34,219 L-39,219 L-38,211 L-42,215 L-45,215 L-45,208 L-44,207 L16,207 L16,204 L8,203 L-2,199 L-4,196 L-4,184 L11,178 L15,174 L11,175 L2,175 L-2,173 L-2,168 L0,168 L1,164 L6,163 L7,159 L19,158 L29,158 L32,160 L29,146 L30,139 L31,135 L22,139 L16,139 L14,138 L13,134 L13,115 L18,107 L21,107 L23,99 L25,99 L26,91 L22,93 L18,98 L12,99 L11,105 L4,107 L-4,110 L-22,111 L-26,113 L-38,113 L-39,106 L-36,103 L-33,103 L-32,105 L-29,105 L-27,101 L-21,98 L-15,96 L-14,93 L-12,93 L-11,89 L-7,86 L-4,78 L-4,71 L-7,71 L-7,67 L-5,67 L-4,55 L-9,55 L-10,51 L-15,53 L-18,56 L-26,56 L-25,52 L-22,51 L-22,48 L-28,51 L-41,51 L-42,49 L-42,35 L-45,35 L-46,33 L-50,35 L-46,30 L-43,27 L-41,27 L-41,25 L-38,25 L-36,21 L-32,17 L-24,15 L-15,15 L-14,12 L-10,11 L-10,9 L-6,7 L-4,3 L-2,3 L-2,1 Z " fill="#D2BE9F" transform="translate(192,119)"/>
<path d="M0,0 L13,0 L23,2 L24,9 L22,14 L13,19 L10,22 L1,27 L-2,30 L-8,32 L-10,35 L-12,35 L-12,37 L-14,37 L-16,45 L-15,55 L-14,60 L-12,61 L-12,63 L-8,65 L-4,71 L-4,77 L-2,77 L-1,81 L1,81 L2,89 L4,89 L6,97 L6,120 L4,130 L2,135 L1,142 L-1,142 L-2,147 L-7,159 L-9,159 L-11,165 L-12,167 L-13,177 L-15,174 L-19,180 L-27,181 L-28,180 L-28,168 L-25,158 L-23,145 L-21,138 L-16,137 L-12,139 L-14,116 L-16,109 L-16,101 L-14,100 L-13,97 L-16,96 L-19,88 L-22,84 L-26,82 L-27,72 L-34,70 L-40,66 L-41,61 L-43,61 L-43,57 L-41,57 L-42,48 L-47,46 L-48,43 L-50,43 L-51,40 L-56,38 L-56,29 L-51,23 L-50,20 L-46,17 L-49,17 L-49,15 L-42,12 L-30,10 L-18,5 L-6,1 Z " fill="#D2BFA1" transform="translate(300,121)"/>
<path d="M0,0 L14,0 L22,5 L26,13 L26,22 L25,28 L23,28 L21,35 L16,40 L8,48 L0,53 L-9,53 L-8,48 L-2,44 L3,41 L6,40 L8,36 L11,31 L9,32 L-7,32 L-10,26 L-12,22 L-12,11 L-8,3 L-6,1 Z " fill="#7E6A4C" transform="translate(176,364)"/>
<path d="M0,0 L6,0 L6,6 L3,9 L-3,10 L-3,12 L-5,12 L-7,17 L-9,22 L-5,21 L4,21 L9,24 L11,28 L13,28 L14,32 L14,42 L12,42 L10,46 L7,49 L1,52 L-9,52 L-15,49 L-15,47 L-19,45 L-22,44 L-26,46 L-25,36 L-19,19 L-13,11 L-11,8 L-9,8 L-9,6 L-4,4 L-4,2 Z " fill="#806B4D" transform="translate(295,358)"/>
<path d="M0,0 L11,0 L16,21 L20,33 L22,41 L16,47 L13,58 L12,72 L0,72 Z " fill="#F9F6F2" transform="translate(163,241)"/>
<path d="M0,0 L28,0 L28,1 L22,1 L22,5 L20,5 L19,10 L14,17 L13,31 L11,30 L12,21 L-5,21 L-8,19 L-9,16 L-9,9 L-6,5 L-3,5 L-3,3 L-1,3 Z " fill="#D2C1A6" transform="translate(137,189)"/>
<path d="M0,0 L2,0 L2,9 L8,9 L9,10 L10,35 L10,71 L2,71 L2,76 L-11,78 L-19,78 L-19,77 L-10,75 L1,75 L1,13 Z " fill="#CFBDA4" transform="translate(148,239)"/>
<path d="M0,0 L2,0 L0,5 L-7,10 L-10,13 L-19,18 L-22,21 L-28,23 L-30,26 L-32,26 L-32,28 L-34,28 L-36,36 L-37,46 L-40,43 L-43,36 L-45,24 L-40,23 L-38,19 L-28,17 L-25,12 L-16,9 L-10,7 L-9,4 L-2,2 Z " fill="#807057" transform="translate(320,130)"/>
<path d="M0,0 L14,0 L13,5 L13,31 L15,33 L15,36 L0,36 L0,31 L3,31 L2,4 L0,4 Z " fill="#816D4E" transform="translate(226,366)"/>
<path d="M0,0 L16,1 L16,4 L14,4 L14,6 L12,6 L12,26 L14,33 L15,37 L14,38 L1,38 L1,33 L3,33 L4,5 L0,5 Z " fill="#806B4F" transform="translate(124,361)"/>
<path d="M0,0 L10,0 L14,2 L14,4 L16,4 L17,13 L13,17 L1,17 L-2,15 L-2,3 Z " fill="#D2BEA0" transform="translate(176,371)"/>
<path d="M0,0 L6,0 L11,5 L11,12 L6,14 L-9,14 L-10,13 L-10,7 L-6,3 Z " fill="#8B785A" transform="translate(174,145)"/>
<path d="M0,0 L6,1 L10,11 L11,19 L9,19 L9,17 L-1,15 L-13,15 L-12,11 L-10,11 L-10,9 L-6,7 L-4,3 L-2,3 L-2,1 Z " fill="#82725B" transform="translate(192,119)"/>
<path d="M0,0 L8,1 L9,3 L9,11 L7,14 L-4,14 L-7,12 L-7,5 L-4,1 Z " fill="#CDB99B" transform="translate(290,385)"/>
<path d="M0,0 L1,0 L1,39 L-1,49 L-4,53 L-7,60 L-10,61 L-11,65 L-14,65 L-10,59 L-8,59 L-5,49 L-2,48 L-1,36 Z " fill="#ECE6D7" transform="translate(89,339)"/>
<path d="M0,0 L6,0 L10,3 L9,5 L7,4 L6,9 L-3,9 L-1,4 L-6,5 L-6,3 Z " fill="#877456" transform="translate(174,145)"/>
<path d="M0,0 L8,1 L12,3 L27,5 L40,5 L45,4 L46,0 L47,4 L43,7 L22,7 L11,5 L0,1 Z " fill="#E7DFD1" transform="translate(275,426)"/>
<path d="M0,0 L1,2 L-2,7 L-5,10 L2,9 L0,12 L-9,15 L-11,16 L-13,19 L-14,13 L-7,9 L-2,3 Z " fill="#998D79" transform="translate(176,205)"/>
<path d="M0,0 L9,0 L9,1 L-5,4 L-10,7 L-17,15 L-22,16 L-19,12 L-17,12 L-17,10 L-14,10 L-12,6 L-8,2 Z " fill="#E2D7C4" transform="translate(168,134)"/>
<path d="M0,0 L13,0 L9,2 L8,7 L7,3 L3,7 L0,7 Z " fill="#BDA88A" transform="translate(147,327)"/>
<path d="M0,0 L4,1 L6,3 L10,4 L17,4 L24,2 L27,3 L17,7 L14,8 L4,4 L0,2 Z " fill="#E8E0D0" transform="translate(216,424)"/>
<path d="M0,0 L3,0 L6,11 L3,9 L2,23 L1,23 Z " fill="#91826A" transform="translate(212,156)"/>
<path d="M0,0 L6,2 L38,2 L35,4 L3,4 Z " fill="#E9E0D1" transform="translate(136,432)"/>
<path d="M0,0 L3,1 L3,7 L-3,9 L-9,9 L-8,7 L-2,5 Z " fill="#766444" transform="translate(181,149)"/>
<path d="M0,0 L18,2 L18,4 L29,4 L29,5 L16,5 L1,2 Z " fill="#C5BCAE" transform="translate(288,318)"/>
<path d="M0,0 L3,3 L2,7 L-11,7 L-11,2 L-9,5 L-4,4 L1,5 L1,3 L-1,2 Z " fill="#9A8669" transform="translate(136,392)"/>
<path d="M0,0 L7,0 L12,4 L7,3 L2,2 L1,7 L2,12 L0,12 L-1,8 L-1,1 Z " fill="#E6DDCA" transform="translate(316,411)"/>
<path d="M0,0 L3,1 L0,4 L-2,4 L-3,8 L-6,10 L-4,5 L-6,5 L-6,3 Z " fill="#92836F" transform="translate(252,137)"/>
<path d="M0,0 L10,0 L14,2 L13,4 L8,2 L3,2 L1,4 L-2,3 Z " fill="#AF9C7E" transform="translate(176,371)"/>
<path d="M0,0 L5,1 L5,4 L-3,4 L-2,1 Z " fill="#CBB89A" transform="translate(174,150)"/>
<path d="M0,0 L2,0 L0,5 L-2,6 L-10,6 L-9,4 L-2,2 Z " fill="#8D7F68" transform="translate(320,130)"/>
<path d="M0,0 L8,0 L8,2 L3,3 L0,6 Z " fill="#D5C0A2" transform="translate(148,327)"/>
<path d="M0,0 L15,0 L14,3 L11,4 L11,2 L1,2 Z " fill="#8D795A" transform="translate(192,293)"/>
<path d="M0,0 L2,1 L-1,5 L-2,14 L-3,14 L-3,3 Z " fill="#908679" transform="translate(146,220)"/>
<path d="M0,0 L5,1 L6,8 L4,6 L2,7 L3,2 L0,2 Z " fill="#D6CFBE" transform="translate(318,122)"/>
<path d="M0,0 L3,2 L3,5 L-6,4 L-6,3 L0,2 Z " fill="#8B7757" transform="translate(238,397)"/>
<path d="M0,0 L2,1 L0,5 L-4,9 L-6,8 L-2,2 L0,2 Z " fill="#BCA788" transform="translate(292,368)"/>
<path d="M0,0 L1,0 L1,6 L-1,6 L-1,8 L-3,8 L-2,2 Z " fill="#807762" transform="translate(285,294)"/>
<path d="M0,0 L1,2 L-2,6 L-5,5 Z " fill="#B6A182" transform="translate(189,406)"/>
<path d="M0,0 L1,2 L-1,6 L-5,7 Z " fill="#AD987B" transform="translate(195,399)"/>
<path d="M0,0 L5,0 L2,3 L-3,3 L-3,1 Z " fill="#ADA291" transform="translate(254,135)"/>
<path d="M0,0 L2,1 L0,2 Z M-3,2 L0,3 L-5,6 Z " fill="#DED5C2" transform="translate(134,192)"/>
<path d="M0,0 L5,1 L1,6 Z " fill="#B09D86" transform="translate(162,218)"/>
<path d="M0,0 L3,2 L2,5 L0,5 Z " fill="#6D5E46" transform="translate(214,164)"/>
<path d="M0,0 L4,1 L3,3 L-2,2 Z " fill="#BEB4A3" transform="translate(258,133)"/>
<path d="M0,0 L2,2 L2,5 L-2,3 L0,3 Z " fill="#A39078" transform="translate(238,178)"/>
<path d="M0,0 L2,2 L2,5 L-2,3 L0,3 Z " fill="#E8DBC6" transform="translate(236,176)"/>
<path d="M0,0 L3,2 L3,4 L0,3 Z " fill="#EAE2D4" transform="translate(285,178)"/>
</svg>
