<?xml version="1.0" encoding="UTF-8"?>
<!-- Generator: visioncortex VTracer 0.6.12 -->
<svg version="1.1" xmlns="http://www.w3.org/2000/svg" width="232" height="344">
<path d="M0,0 L232,0 L232,344 L0,344 Z M137,20 L135,21 L135,25 L132,24 L132,43 L130,55 L126,60 L118,64 L119,66 L116,66 L111,68 L98,76 L85,83 L66,95 L66,97 L63,97 L63,99 L57,99 L55,103 L50,105 L49,107 L44,110 L43,112 L40,115 L38,115 L39,124 L40,129 L41,129 L42,134 L38,135 L38,132 L36,132 L36,143 L35,149 L34,170 L32,182 L31,200 L31,212 L32,219 L30,219 L28,236 L27,239 L25,264 L24,268 L23,285 L22,291 L21,309 L20,319 L21,323 L37,324 L44,324 L46,325 L52,323 L59,322 L59,319 L62,320 L74,319 L73,317 L68,317 L74,314 L76,315 L78,312 L79,317 L88,316 L94,317 L103,315 L107,311 L111,308 L106,306 L101,307 L99,312 L94,309 L93,306 L91,306 L91,304 L93,304 L93,302 L102,303 L105,300 L101,301 L101,298 L104,298 L107,291 L99,289 L96,288 L96,294 L94,294 L91,299 L91,291 L94,289 L95,280 L97,277 L97,274 L102,275 L104,265 L104,262 L105,260 L105,252 L104,248 L94,246 L93,244 L91,244 L91,241 L93,240 L91,235 L88,235 L89,227 L91,218 L94,214 L100,214 L106,222 L111,217 L113,219 L115,213 L114,210 L116,208 L115,206 L107,205 L107,203 L115,202 L114,197 L122,197 L123,201 L125,199 L123,199 L124,196 L128,198 L134,200 L134,198 L138,197 L139,199 L142,198 L149,201 L145,211 L144,215 L141,215 L143,204 L138,206 L137,210 L129,208 L126,216 L123,216 L122,214 L119,215 L119,218 L117,218 L117,221 L115,221 L117,231 L119,231 L119,239 L123,242 L121,244 L119,245 L119,262 L118,265 L120,270 L117,270 L116,270 L115,281 L121,283 L122,289 L126,286 L127,283 L128,291 L134,292 L138,290 L138,280 L135,276 L137,276 L139,267 L140,264 L137,261 L137,258 L139,258 L139,253 L144,253 L143,270 L141,275 L139,292 L139,301 L138,305 L139,308 L137,308 L135,312 L133,308 L129,306 L127,309 L120,310 L116,308 L113,308 L110,313 L111,316 L114,316 L115,311 L118,313 L116,315 L125,315 L129,313 L138,316 L138,318 L136,318 L136,320 L144,320 L142,318 L152,313 L152,311 L154,311 L155,316 L152,320 L182,321 L194,318 L195,316 L201,317 L204,272 L205,247 L204,243 L205,238 L204,236 L204,212 L201,212 L201,206 L199,210 L197,209 L196,203 L195,201 L199,200 L200,198 L202,198 L203,203 L205,199 L207,193 L208,182 L206,182 L209,173 L209,153 L210,121 L209,114 L207,113 L208,110 L210,106 L213,103 L213,101 L205,99 L189,91 L174,83 L160,73 L149,65 L143,61 L141,61 L140,51 L143,42 L151,45 L173,44 L177,43 L176,27 L173,22 L167,23 L156,23 L146,20 Z " fill="#F9F9F9" transform="translate(0,0)"/>
<path d="M0,0 L2,1 L3,7 L-3,9 L-3,16 L-5,16 L-4,26 L-6,26 L-6,32 L2,32 L4,33 L3,37 L-4,36 L-5,40 L-6,45 L-3,48 L-6,49 L-6,51 L-8,51 L-8,60 L-7,66 L-5,67 L-4,71 L-8,71 L-9,73 L-6,75 L-9,76 L-6,78 L-10,81 L-10,85 L-4,84 L-2,80 L0,83 L-3,87 L-3,96 L-5,96 L-5,98 L-9,98 L-7,101 L-3,105 L-6,107 L-5,109 L2,110 L0,112 L2,114 L-6,116 L-8,120 L-8,123 L-12,125 L-9,127 L-11,132 L-12,133 L-10,129 L-6,126 L-4,126 L-3,122 L1,122 L2,124 L6,125 L7,129 L6,133 L4,134 L4,144 L0,145 L-1,144 L-7,144 L-7,147 L-11,146 L-8,149 L-5,149 L-1,147 L-1,151 L-4,153 L-4,155 L-8,156 L-10,160 L-13,160 L-14,164 L-17,164 L-18,187 L-19,194 L-19,215 L-22,231 L-25,232 L-27,231 L-28,225 L-32,221 L-33,214 L-32,207 L-35,208 L-35,191 L-37,185 L-36,180 L-34,177 L-36,174 L-36,155 L-33,153 L-34,152 L-44,152 L-42,147 L-41,150 L-38,147 L-38,145 L-34,144 L-32,139 L-37,141 L-40,140 L-36,137 L-37,135 L-34,134 L-41,134 L-43,132 L-43,123 L-41,122 L-42,113 L-42,109 L-41,105 L-40,91 L-36,88 L-32,87 L-29,85 L-29,83 L-36,83 L-35,81 L-29,82 L-31,80 L-31,73 L-29,68 L-29,67 L-33,63 L-31,63 L-31,54 L-29,54 L-28,52 L-26,48 L-31,48 L-28,46 L-24,44 L-23,41 L-36,41 L-37,37 L-33,36 L-34,32 L-31,29 L-37,29 L-36,25 L-33,21 L-30,20 L-26,16 L-24,16 L-22,12 L-16,12 L-16,10 L-13,10 L-13,8 Z M0,2 Z M-38,114 L-38,118 L-36,118 L-36,120 L-38,120 L-39,123 L-37,124 L-41,128 L-37,130 L-36,132 L-35,128 L-32,127 L-32,115 Z M-3,14 Z M-7,120 Z M8,129 Z M7,130 Z " fill="#E7E4E4" transform="translate(79,87)"/>
<path d="M0,0 L1,2 L9,1 L12,1 L12,11 L14,12 L15,13 L15,27 L16,27 L16,40 L13,50 L14,53 L14,69 L15,70 L15,77 L13,77 L12,89 L10,96 L9,107 L9,119 L2,119 L3,115 L2,111 L0,111 L-1,114 L-10,118 L-8,120 L-16,120 L-15,118 L-13,118 L-14,108 L-13,98 L-12,86 L-11,75 L-9,70 L-7,70 L-7,62 L-7,60 L-7,53 L-6,50 L-8,52 L-18,52 L-16,45 L-19,44 L-19,52 L-14,53 L-15,62 L-12,65 L-14,69 L-15,76 L-17,76 L-14,80 L-14,90 L-18,92 L-24,91 L-25,83 L-28,88 L-30,89 L-31,83 L-37,81 L-36,70 L-33,71 L-32,69 L-34,64 L-33,59 L-33,45 L-31,44 L-29,41 L-33,39 L-33,31 L-35,31 L-37,21 L-35,21 L-35,18 L-33,18 L-32,15 L-29,14 L-29,16 L-26,16 L-23,8 L-15,10 L-13,5 L-9,4 L-11,15 L-8,15 L-6,9 L-3,1 L-1,2 Z M5,16 L4,18 L6,19 L8,24 L5,25 L4,32 L6,30 L11,29 L11,23 L12,19 L10,16 Z " fill="#E3E0E0" transform="translate(152,200)"/>
<path d="M0,0 L5,1 L19,9 L17,16 L20,17 L20,67 L17,76 L19,76 L18,87 L15,97 L13,95 L13,92 L11,92 L8,95 L6,95 L8,99 L8,103 L10,104 L12,100 L12,106 L15,106 L15,121 L14,130 L13,130 L13,124 L11,125 L11,130 L10,126 L7,128 L9,132 L5,137 L0,130 L-5,136 L-7,142 L-12,144 L-13,148 L-14,180 L-15,180 L-16,172 L-15,151 L-16,147 L-14,138 L-14,107 L-8,107 L-9,105 L-7,105 L-8,100 L-16,101 L-17,100 L-17,95 L-15,96 L-14,94 L-12,94 L-11,82 L-10,78 L-12,75 L-12,66 L-11,65 L-10,42 L-9,37 L-7,37 L-5,24 L-3,4 L-2,1 Z " fill="#DFDBDB" transform="translate(189,106)"/>
<path d="M0,0 L10,3 L9,6 L10,8 L8,8 L12,13 L14,10 L11,9 L12,5 L18,7 L20,7 L25,4 L29,8 L31,15 L35,18 L34,25 L33,44 L31,51 L28,53 L30,55 L31,77 L30,81 L28,107 L27,112 L25,114 L26,116 L22,120 L20,121 L11,121 L9,123 L9,119 L3,118 L3,116 L6,116 L4,112 L5,111 L0,109 L-6,112 L-9,112 L-10,105 L-9,98 L-5,97 L-5,88 L-8,85 L-7,80 L-4,79 L-2,73 L4,74 L7,76 L9,71 L11,66 L14,64 L14,50 L11,44 L7,40 L4,34 L4,32 L1,33 L-3,30 L-3,26 L-1,26 L0,16 L0,12 L2,10 L0,7 Z M3,87 L1,90 L2,95 L4,95 L3,103 L10,100 L6,99 L11,96 L11,91 L7,94 L5,93 L4,90 L9,91 L10,89 Z " fill="#EEECEC" transform="translate(141,81)"/>
<path d="M0,0 L2,3 L2,8 L5,8 L7,14 L5,14 L5,17 L7,17 L10,20 L18,21 L19,25 L19,33 L17,37 L18,41 L16,48 L11,47 L10,52 L9,54 L8,62 L5,64 L5,72 L8,67 L10,67 L10,61 L15,63 L21,64 L18,71 L15,72 L15,74 L19,73 L16,76 L7,75 L7,77 L5,77 L5,79 L7,79 L10,84 L13,85 L15,80 L20,79 L25,81 L21,84 L17,88 L8,90 L-1,89 L-7,90 L-7,84 L-4,78 L-4,71 L-2,65 L-4,65 L-7,76 L-8,81 L-8,84 L-10,85 L-16,85 L-14,83 L-15,78 L-16,75 L-14,74 L-20,70 L-25,71 L-25,67 L-19,66 L-22,65 L-21,53 L-20,50 L-16,49 L-13,51 L-13,46 L-16,45 L-19,42 L-13,42 L-14,41 L-12,37 L-7,35 L-8,32 L-13,33 L-12,27 L-7,24 L-13,22 L-11,18 L-9,14 L-5,14 L-4,19 L-4,13 L-9,13 L-6,12 L-6,10 L-4,10 L-1,1 Z " fill="#E4E1E0" transform="translate(86,227)"/>
<path d="M0,0 L3,0 L3,6 L5,6 L6,10 L5,15 L6,21 L4,21 L2,57 L1,65 L0,86 L-4,86 L-7,89 L-17,91 L-22,91 L-22,89 L-25,89 L-27,75 L-28,73 L-27,63 L-27,55 L-24,56 L-24,22 L-22,19 L-17,18 L-16,11 L-9,5 L-5,12 L-2,7 L-4,3 L0,1 Z " fill="#E9E7E7" transform="translate(199,230)"/>
<path d="M0,0 L4,0 L4,2 L0,3 L1,7 L-2,9 L2,14 L0,18 L2,19 L3,24 L1,26 L-2,19 L-6,15 L-9,14 L-9,16 L-11,16 L-11,18 L-16,21 L-13,24 L-15,25 L-14,27 L-21,27 L-21,30 L-16,31 L-18,33 L-28,35 L-30,40 L-26,41 L-22,40 L-15,40 L-17,41 L-16,45 L-17,47 L-18,53 L-20,55 L-22,60 L-26,59 L-26,61 L-31,62 L-32,64 L-32,56 L-33,54 L-31,54 L-31,52 L-38,55 L-44,56 L-49,58 L-48,52 L-50,50 L-43,51 L-42,47 L-51,46 L-51,45 L-44,44 L-41,39 L-42,38 L-42,32 L-48,36 L-50,38 L-51,37 L-51,30 L-42,24 L-35,20 L-33,20 L-33,18 L-31,18 L-31,15 L-27,13 L-24,13 L-24,9 L-20,7 L-20,9 L-5,3 Z " fill="#D8D2D2" transform="translate(125,73)"/>
<path d="M0,0 L15,0 L11,2 L9,2 L8,10 L13,14 L19,17 L16,18 L6,17 L5,15 L0,13 L2,19 L-4,18 L-7,24 L0,25 L5,26 L5,31 L3,32 L3,34 L-12,35 L-15,40 L-17,47 L-13,49 L-13,53 L-11,54 L-11,57 L-17,57 L-18,59 L-19,58 L-19,62 L-29,61 L-31,57 L-28,55 L-27,51 L-22,51 L-23,48 L-21,43 L-20,36 L-15,34 L-19,32 L-19,30 L-15,28 L-15,25 L-18,24 L-17,27 L-22,28 L-21,25 L-24,24 L-24,23 L-27,22 L-27,20 L-31,18 L-29,18 L-31,11 L-26,13 L-24,18 L-22,20 L-16,19 L-16,17 L-18,16 L-18,14 L-16,14 L-14,8 L-11,7 L-10,5 L-5,5 L-5,4 L-3,1 Z M-13,52 Z " fill="#ECE9E9" transform="translate(103,136)"/>
<path d="M0,0 L8,0 L12,2 L13,7 L11,7 L11,20 L10,22 L10,38 L14,40 L16,40 L24,55 L25,58 L25,71 L21,71 L20,68 L21,60 L19,55 L17,53 L14,48 L6,44 L0,45 L0,43 L-3,43 L-3,40 L-5,44 L-11,46 L-14,44 L-9,41 L-7,41 L-7,39 L-4,39 L-4,37 L-2,37 L-2,33 L-2,31 L-5,31 L-6,35 L-12,34 L-17,35 L-12,31 L-5,29 L-4,28 L-6,26 L-2,23 L-4,16 L-3,13 L-7,9 L-4,7 L-4,3 L0,2 Z " fill="#F5F4F4" transform="translate(129,73)"/>
<path d="M0,0 L5,3 L10,11 L11,18 L10,24 L13,25 L13,12 L11,5 L15,9 L16,17 L16,26 L12,28 L9,27 L8,29 L5,29 L-3,33 L-10,31 L-11,33 L-11,31 L-15,30 L-16,27 L-21,25 L-22,21 L-20,20 L-19,16 L-22,15 L-16,8 L-11,7 L-2,6 L-1,6 Z " fill="#D4CECE" transform="translate(140,119)"/>
<path d="M0,0 L1,2 L3,2 L6,11 L3,12 L6,30 L7,36 L7,40 L9,40 L9,50 L7,50 L5,55 L5,58 L6,60 L8,61 L1,61 L-8,62 L-7,58 L-10,53 L-9,38 L-6,33 L-10,29 L-5,24 L2,23 L1,18 L-3,17 L-2,8 L-1,1 Z " fill="#E7E4E4" transform="translate(38,254)"/>
<path d="M0,0 L3,1 L-3,3 L-4,7 L-2,4 L0,9 L2,10 L2,16 L6,18 L5,19 L5,26 L2,29 L1,29 L0,36 L1,42 L6,43 L6,44 L-4,44 L-9,41 L-9,38 L-11,42 L-17,39 L-21,35 L-13,35 L-12,34 L-22,34 L-22,30 L-28,32 L-29,29 L-22,27 L-19,27 L-16,22 L-17,17 L-13,16 L-13,21 L-10,19 L-9,2 Z " fill="#E3DFDF" transform="translate(132,152)"/>
<path d="M0,0 L6,1 L15,4 L13,6 L12,8 L15,11 L21,10 L20,15 L25,15 L25,18 L16,18 L15,20 L5,20 L-6,15 L-6,13 L-8,12 L-7,16 L-5,16 L-6,26 L-7,30 L-7,38 L-12,37 L-14,35 L-14,24 L-13,20 L-13,2 L-10,3 L-9,1 L-5,2 L2,4 Z " fill="#ECE9E9" transform="translate(145,22)"/>
<path d="M0,0 L3,1 L7,3 L21,4 L31,5 L31,8 L33,9 L30,10 L30,6 L22,6 L23,11 L15,12 L15,14 L23,15 L24,18 L22,20 L23,24 L20,28 L19,26 L14,31 L8,23 L2,23 L-1,27 L-3,27 L-2,22 L-7,20 L-5,17 L-5,8 L-2,6 L-2,4 L-5,3 L-2,1 L0,2 Z " fill="#D7D1D1" transform="translate(92,191)"/>
<path d="M0,0 L6,0 L5,7 L4,15 L5,20 L4,46 L3,46 L3,57 L-1,64 L-4,67 L-4,70 L-7,70 L-8,73 L-10,64 L-8,52 L-7,49 L-6,37 L-4,34 L-5,29 L-5,11 L-6,9 L-3,5 L-3,23 L-1,23 L-1,26 L1,22 L-3,22 L-3,15 L-2,10 L-2,1 Z " fill="#E9E6E5" transform="translate(170,240)"/>
<path d="M0,0 L2,2 L3,12 L8,17 L16,22 L17,25 L12,25 L12,27 L14,27 L14,29 L17,30 L15,30 L16,33 L7,30 L5,29 L5,27 L3,27 L3,24 L-1,23 L-13,23 L-18,25 L-22,23 L-22,20 L-26,21 L-23,18 L-21,18 L-21,16 L-10,12 L-7,10 L0,10 L-1,8 L-1,1 Z " fill="#DEDADA" transform="translate(138,51)"/>
<path d="M0,0 L1,2 L-3,8 L-6,9 L-4,10 L-5,15 L-9,16 L-9,25 L-10,26 L-6,28 L-3,29 L-7,31 L-8,39 L-7,39 L-7,44 L-13,44 L-7,45 L-6,48 L-9,50 L-12,51 L-16,50 L-17,32 L-12,32 L-12,29 L-15,28 L-16,27 L-19,26 L-19,15 L-18,12 L-14,9 L-14,4 L-13,6 L-7,4 L-6,7 L-6,4 L-1,3 Z " fill="#F1F0F0" transform="translate(57,125)"/>
<path d="M0,0 L3,1 L2,6 L8,3 L13,3 L16,1 L19,1 L19,5 L19,11 L24,12 L21,14 L22,16 L17,17 L14,18 L12,23 L10,23 L10,25 L0,23 L0,21 L-3,21 L-3,15 L-1,15 L-2,12 L-2,9 L-3,6 Z " fill="#F1EFEF" transform="translate(75,124)"/>
<path d="M0,0 L1,0 L3,6 L11,6 L12,8 L8,9 L10,11 L9,12 L12,12 L10,19 L6,18 L7,21 L3,23 L3,18 L1,18 L-2,26 L0,27 L-1,32 L-3,36 L-2,40 L0,41 L-1,47 L-8,48 L-8,25 L-7,22 L-5,5 L-1,5 Z " fill="#C3BABA" transform="translate(35,214)"/>
<path d="M0,0 L2,2 L2,14 L3,14 L4,28 L2,29 L4,31 L3,33 L2,40 L0,41 L1,44 L4,45 L6,47 L6,49 L1,50 L1,61 L-1,62 L-2,60 L-4,65 L-5,65 L-5,50 L-6,48 L-4,48 L-5,41 L-8,44 L-8,39 L-5,34 L-8,33 L-7,29 L-5,29 L-5,26 L-3,26 L-3,17 L-1,15 Z " fill="#EBE8E8" transform="translate(173,162)"/>
<path d="M0,0 L2,4 L10,9 L15,11 L12,12 L12,29 L7,32 L8,26 L5,27 L4,31 L0,29 L-5,28 L-6,24 L-3,25 L-3,21 L-1,21 L-1,17 L-8,17 L-8,14 L-6,13 L-8,7 L-1,9 L1,10 L9,11 L1,6 L-1,2 Z " fill="#B2A6A6" transform="translate(111,142)"/>
<path d="M0,0 L1,0 L1,8 L0,11 L6,12 L2,13 L5,16 L6,32 L6,34 L4,35 L3,52 L1,56 L2,57 L3,67 L0,66 L0,62 L-3,60 L-1,58 L-3,58 L-4,63 L-5,63 L-4,39 L-2,27 L-1,6 Z " fill="#C5BCBC" transform="translate(36,143)"/>
<path d="M0,0 L4,2 L5,0 L5,2 L10,2 L11,7 L14,6 L14,4 L18,5 L17,7 L19,9 L13,10 L13,12 L17,13 L18,15 L12,16 L12,23 L10,30 L11,32 L5,32 L3,34 L1,33 L-1,35 L-1,29 L3,29 L3,27 L5,27 L4,18 L7,13 L5,13 L4,15 L-2,16 L-3,11 L-1,10 L-2,4 Z " fill="#CDC4C4" transform="translate(71,156)"/>
<path d="M0,0 L3,1 L0,4 L-6,5 L-8,7 L-4,6 L0,8 L1,4 L7,2 L6,4 L4,4 L4,6 L6,7 L4,10 L2,10 L2,12 L-1,12 L-1,14 L-6,17 L-3,18 L1,17 L3,12 L4,14 L3,16 L6,16 L5,18 L1,19 L-3,22 L-10,21 L-16,23 L-16,18 L-14,18 L-15,14 L-26,15 L-29,12 L-24,7 L-18,6 L-19,8 L-23,9 L-25,13 L-20,11 L-14,11 L-17,9 L-11,5 L-13,3 L-12,1 L-6,2 L0,2 Z " fill="#B2A6A6" transform="translate(123,100)"/>
<path d="M0,0 L4,1 L6,6 L5,10 L3,6 L2,6 L4,12 L4,14 L0,13 L-2,25 L-2,29 L1,30 L0,34 L-8,33 L-9,35 L-11,35 L-11,24 L-10,20 L-4,19 L-3,13 L-6,12 L-7,7 L-5,3 Z " fill="#F2F1F1" transform="translate(38,242)"/>
<path d="M0,0 L3,1 L3,4 L9,2 L10,5 L19,6 L18,8 L12,8 L17,12 L18,15 L5,16 L-5,14 L-11,10 L-9,7 L-1,8 L-6,6 L-5,3 L0,2 Z " fill="#E3DEDE" transform="translate(101,180)"/>
<path d="M0,0 L2,0 L2,5 L6,9 L4,9 L3,13 L2,28 L5,34 L4,36 L9,37 L5,40 L3,40 L3,38 L1,37 L0,36 L-2,35 L-3,27 L-4,27 L-4,6 L-2,6 L-1,1 Z " fill="#CEC7C7" transform="translate(27,279)"/>
<path d="M0,0 L6,0 L8,5 L7,12 L8,12 L7,22 L6,25 L4,25 L4,30 L2,30 L0,20 L-2,20 L-2,9 Z " fill="#F4F2F2" transform="translate(177,98)"/>
<path d="M0,0 L5,0 L7,2 L11,4 L7,12 L6,9 L-4,11 L-6,13 L-8,12 L-6,7 L-12,7 L-12,9 L-17,10 L-17,6 L-13,5 L-14,2 L-12,1 Z " fill="#DDD8D9" transform="translate(106,170)"/>
<path d="M0,0 L10,1 L6,4 L-5,7 L-7,7 L-9,11 L-17,14 L-16,10 L-21,15 L-26,16 L-30,13 L-9,1 L-7,2 Z M-31,14 Z " fill="#F4F3F3" transform="translate(110,75)"/>
<path d="M0,0 L2,1 L3,5 L4,20 L7,21 L-18,21 L-16,19 L-9,20 L-9,10 L-7,11 L-5,10 L-3,6 L-1,4 Z " fill="#ADA1A1" transform="translate(170,299)"/>
<path d="M0,0 L1,0 L3,6 L6,5 L7,11 L13,8 L25,8 L25,5 L27,4 L28,11 L26,14 L18,14 L9,15 L4,14 L0,13 Z " fill="#F9F9F9" transform="translate(23,308)"/>
<path d="M0,0 L5,3 L4,8 L5,11 L9,12 L11,14 L11,19 L4,18 L3,31 L1,31 L0,34 L-2,32 L-1,18 L0,14 Z " fill="#DEDADA" transform="translate(62,259)"/>
<path d="M0,0 L2,1 L1,10 L4,10 L4,25 L3,31 L2,31 L2,24 L0,24 L-2,42 L-3,46 L-5,48 L-4,22 L-2,11 L-1,10 Z " fill="#B7ACAB" transform="translate(174,140)"/>
<path d="M0,0 L5,1 L6,10 L4,14 L-4,15 L-5,14 L-9,15 L-8,11 L-7,6 L-6,3 Z " fill="#E7E4E3" transform="translate(113,120)"/>
<path d="M0,0 L3,1 L2,6 L1,9 L-8,10 L-11,8 L-9,13 L-15,16 L-12,18 L-15,19 L-24,20 L-22,15 L-15,12 L-19,10 L-18,7 L-12,6 L-13,4 L-6,5 L-3,5 L-3,2 L0,2 Z " fill="#E8E5E5" transform="translate(122,93)"/>
<path d="M0,0 L10,1 L26,10 L28,14 L23,12 L22,16 L22,14 L20,13 L21,10 L16,8 L8,4 L3,3 L3,4 L8,5 L7,9 L14,9 L13,12 L19,14 L17,16 L6,14 L3,11 L5,11 L4,6 L1,5 L-1,3 L-4,3 Z " fill="#8A7979" transform="translate(166,83)"/>
<path d="M0,0 L10,5 L10,9 L12,6 L18,10 L21,13 L20,16 L14,16 L9,13 L-2,7 L-4,7 L-3,2 L0,2 Z " fill="#EAE7E7" transform="translate(188,94)"/>
<path d="M0,0 L5,2 L6,5 L4,6 L6,11 L11,11 L11,13 L7,15 L13,15 L13,17 L1,18 L-3,16 L-3,8 L-1,1 Z " fill="#DEDAD9" transform="translate(61,302)"/>
<path d="M0,0 L6,1 L6,2 L-6,3 L-7,6 L-11,7 L-10,10 L-6,10 L-6,8 L0,8 L-2,13 L0,14 L-4,15 L-5,17 L0,18 L1,20 L-8,19 L-12,20 L-12,17 L-13,15 L-15,16 L-14,7 L-10,3 L-10,1 Z " fill="#9C8C8B" transform="translate(100,169)"/>
<path d="M0,0 L7,2 L7,7 L6,8 L-5,8 L-9,9 L-12,13 L-14,13 L-15,6 L-8,1 L-2,1 Z " fill="#EDEBEB" transform="translate(133,116)"/>
<path d="M0,0 L1,0 L1,21 L-2,66 L-6,65 L-4,65 L-4,44 L-2,21 L-1,2 Z " fill="#806D6D" transform="translate(203,251)"/>
<path d="M0,0 L4,2 L6,6 L9,2 L11,13 L8,12 L9,10 L-2,7 L-4,9 L-13,9 L-11,7 L-14,5 L-15,10 L-19,9 L-17,4 L-16,2 L-11,3 L-6,4 L-1,2 Z " fill="#FAFAFA" transform="translate(129,306)"/>
<path d="M0,0 L7,1 L6,5 L3,6 L3,13 L1,16 L-4,16 L-4,13 L-2,12 L-6,11 L-6,14 L-11,13 L-12,10 L-6,7 L-3,4 L-1,4 Z " fill="#F6F6F6" transform="translate(84,193)"/>
<path d="M0,0 L5,1 L4,3 L5,6 L10,8 L11,11 L19,12 L20,14 L11,16 L-1,10 L-3,8 L-3,4 L-1,3 Z " fill="#F6F6F6" transform="translate(115,138)"/>
<path d="M0,0 L2,1 L3,3 L0,5 L2,5 L3,8 L6,10 L1,11 L-4,10 L-12,12 L-15,12 L-31,21 L-33,20 L-22,13 L-6,4 Z " fill="#9A8A8A" transform="translate(114,66)"/>
<path d="M0,0 L3,1 L5,5 L6,21 L2,22 L-20,23 L-20,22 L-6,20 L4,20 L4,18 L-5,19 L-10,18 L-10,17 L-1,18 L-1,15 L-6,15 L-5,11 L0,11 L3,15 L2,16 L4,17 L2,5 L1,2 L-3,3 L-11,3 L-11,2 Z " fill="#8D7A7A" transform="translate(171,22)"/>
<path d="M0,0 L4,5 L4,7 L7,8 L7,14 L14,15 L14,18 L3,20 L0,21 L-1,20 L-8,19 L-4,17 L4,17 L5,10 L3,10 L4,13 L-9,12 L-6,10 L-1,10 L-4,7 Z " fill="#968685" transform="translate(45,304)"/>
<path d="M0,0 L9,6 L14,8 L16,10 L20,11 L21,14 L24,17 L24,33 L23,33 L23,24 L17,24 L20,22 L22,16 L17,14 L6,8 L-1,7 L-2,12 L-3,12 L-3,6 Z " fill="#938281" transform="translate(186,99)"/>
<path d="M0,0 L1,2 L-1,2 L-1,8 L2,8 L2,10 L4,10 L5,8 L5,10 L8,10 L10,8 L10,12 L12,12 L12,10 L16,7 L17,10 L14,13 L12,13 L12,15 L16,17 L15,19 L8,20 L4,16 L3,12 L-1,10 L1,16 L-1,16 L-3,9 L-2,1 Z " fill="#A49796" transform="translate(73,137)"/>
<path d="M0,0 L7,5 L4,6 L7,11 L6,15 L11,15 L9,19 L6,18 L1,18 L0,13 L-2,12 L1,11 L-3,7 L-3,5 L-5,5 L-5,3 L-3,3 L-3,1 Z " fill="#B6ACAD" transform="translate(66,296)"/>
<path d="M0,0 L3,2 L1,2 L3,5 L6,6 L10,6 L10,4 L19,0 L24,2 L25,6 L25,8 L18,9 L16,10 L16,8 L12,9 L11,11 L6,9 L-3,6 L-3,3 L-1,4 Z " fill="#8F7E7E" transform="translate(122,189)"/>
<path d="M0,0 L3,4 L3,10 L5,10 L5,5 L7,5 L6,2 L8,2 L7,12 L6,13 L6,21 L4,21 L4,30 L1,27 L3,27 L1,19 L-1,19 L-1,10 L0,7 Z " fill="#A89B9A" transform="translate(176,118)"/>
<path d="M0,0 L5,1 L4,3 L13,7 L19,7 L19,6 L38,6 L38,8 L20,10 L10,10 L6,8 L3,17 L1,14 L2,6 L3,4 L1,4 Z " fill="#AA9C9C" transform="translate(137,34)"/>
<path d="M0,0 L8,1 L8,7 L6,6 L7,2 L4,4 L-1,10 L7,11 L3,14 L0,17 L-2,19 L-3,16 L-6,15 L-5,9 L-8,10 L-8,8 L-5,8 L-4,4 L-1,2 L1,3 Z " fill="#A69999" transform="translate(74,239)"/>
<path d="M0,0 L1,2 L3,3 L1,5 L4,7 L4,15 L3,21 L3,26 L0,22 L-4,21 L-4,15 L-1,12 L-2,10 L0,10 L-2,6 L-5,5 L-5,10 L-6,10 L-6,3 L-1,2 Z M1,10 Z M0,11 Z " fill="#AC9F9F" transform="translate(86,206)"/>
<path d="M0,0 L2,4 L1,23 L0,26 L0,34 L2,38 L0,46 L-1,52 L-2,52 L-3,46 L-3,44 L-4,42 L-1,42 L-3,32 L-4,32 L-4,23 L-3,16 L-1,17 L-1,6 L0,2 L-2,1 Z " fill="#8B7878" transform="translate(178,148)"/>
<path d="M0,0 L2,3 L0,3 L1,8 L-1,8 L-1,10 L-17,19 L-18,19 L-18,13 L-16,11 L-12,11 L-11,9 L-13,8 L-11,6 L-7,7 L-2,5 Z " fill="#C6BCBB" transform="translate(93,83)"/>
<path d="M0,0 L1,0 L2,13 L3,13 L4,20 L11,21 L12,19 L14,19 L14,22 L5,25 L3,26 L3,24 L0,26 L-2,30 L-2,13 Z " fill="#9A8A8A" transform="translate(26,255)"/>
<path d="M0,0 L5,1 L8,4 L7,7 L4,9 L2,13 L-9,8 L-4,4 L-2,4 L-2,2 L0,2 Z " fill="#F0EEEE" transform="translate(116,87)"/>
<path d="M0,0 L11,1 L9,2 L9,5 L7,4 L4,4 L2,4 L2,8 L-3,10 L-3,24 L2,24 L1,26 L3,27 L3,30 L-2,30 L-3,32 L-4,29 L-2,28 L-6,27 L-6,5 L-4,5 L-4,8 L0,7 Z " fill="#8F7D7D" transform="translate(42,127)"/>
<path d="M0,0 L2,0 L2,6 L4,7 L1,12 L0,13 L-8,14 L-8,8 L-6,8 L-4,3 Z " fill="#FAFAFA" transform="translate(81,105)"/>
<path d="M0,0 L2,4 L0,8 L3,8 L4,6 L7,10 L-2,11 L-2,13 L-6,14 L-4,17 L-12,15 L-14,19 L-16,18 L-16,16 L-14,14 L-10,12 L-10,9 L-5,5 L-5,7 L-2,7 L-1,3 L-3,1 Z M7,8 Z " fill="#9D8B8A" transform="translate(105,126)"/>
<path d="M0,0 L2,0 L1,6 L5,7 L6,12 L12,10 L12,14 L4,16 L1,15 L-2,7 L-4,6 L-2,2 Z " fill="#E6E3E3" transform="translate(67,248)"/>
<path d="M0,0 L2,4 L0,25 L-1,25 L-1,32 L-2,40 L-1,42 L1,42 L-1,48 L-2,45 L-1,43 L-3,43 L-3,48 L-4,48 L-4,23 L-3,20 L-2,7 Z " fill="#7E6C6C" transform="translate(170,220)"/>
<path d="M0,0 L5,0 L3,4 L1,4 L0,9 L-2,7 L-13,8 L-13,12 L-11,13 L-15,15 L-17,11 L-17,14 L-20,13 L-18,8 L-8,4 Z " fill="#F7F6F6" transform="translate(147,146)"/>
<path d="M0,0 L13,0 L12,4 L10,4 L10,2 L0,4 L-2,4 L-7,9 L-8,11 L-6,12 L-6,16 L-12,15 L-13,19 L-15,19 L-15,15 L-13,14 L-15,12 L-10,11 L-8,6 L-5,3 L-5,1 L0,1 Z " fill="#8D7B7B" transform="translate(127,123)"/>
<path d="M0,0 L5,2 L15,10 L21,14 L17,16 L12,15 L9,12 L4,10 L1,2 Z " fill="#A49695" transform="translate(153,69)"/>
<path d="M0,0 L3,1 L1,29 L0,36 L-1,54 L-3,55 L-4,39 L-6,37 L-2,33 L-1,31 L-3,30 L-1,30 L0,9 L1,2 Z " fill="#847171" transform="translate(174,97)"/>
<path d="M0,0 L2,4 L2,16 L1,18 L0,33 L3,31 L3,33 L5,33 L6,31 L6,34 L0,35 L0,39 L2,40 L0,40 L0,42 L2,43 L-2,46 L-2,22 Z " fill="#857272" transform="translate(61,259)"/>
<path d="M0,0 L1,0 L2,6 L3,6 L3,22 L1,25 L3,26 L1,26 L2,30 L8,30 L15,32 L15,33 L-1,32 L-2,25 L-1,18 Z " fill="#857272" transform="translate(22,291)"/>
<path d="M0,0 L6,2 L15,7 L21,8 L20,12 L16,13 L13,13 L8,8 L8,10 L6,10 L6,6 L2,5 L-1,1 Z " fill="#9A8A89" transform="translate(192,93)"/>
<path d="M0,0 L9,0 L13,3 L3,8 L-3,7 L-3,5 L-5,3 L-4,1 Z " fill="#C3B9B8" transform="translate(160,26)"/>
<path d="M0,0 L6,1 L6,13 L3,14 L1,18 L1,16 L-3,14 L1,10 L-1,8 L0,6 L2,6 L2,4 L0,4 Z " fill="#BFB4B3" transform="translate(41,201)"/>
<path d="M0,0 L1,2 L7,1 L10,2 L5,5 L5,8 L12,9 L12,10 L1,10 L0,15 L-1,15 L-3,5 L-3,1 Z " fill="#A99B9B" transform="translate(41,114)"/>
<path d="M0,0 L2,1 L1,3 L4,4 L7,12 L9,13 L10,9 L11,12 L14,12 L10,17 L12,17 L11,20 L11,18 L5,18 L3,15 L4,11 L2,11 L0,8 Z " fill="#9F9090" transform="translate(62,251)"/>
<path d="M0,0 L1,0 L2,8 L1,10 L0,19 L3,18 L4,27 L3,31 L0,32 L0,23 L-1,32 L-2,32 L-2,15 Z " fill="#F7F7F7" transform="translate(175,118)"/>
<path d="M0,0 L4,1 L1,8 L5,8 L5,1 L6,1 L6,8 L10,8 L11,6 L14,2 L15,6 L13,9 L13,15 L13,18 L12,26 L11,26 L11,9 L6,9 L6,14 L5,14 L5,9 L1,9 L0,11 L-1,3 Z " fill="#8A7878" transform="translate(133,244)"/>
<path d="M0,0 L1,3 L-1,5 L-1,8 L2,6 L1,31 L0,43 L-1,43 L-1,30 L0,17 L-2,16 L-3,17 L-4,14 L-3,4 Z " fill="#857474" transform="translate(167,196)"/>
<path d="M0,0 L8,2 L19,8 L19,11 L15,12 L9,11 L9,8 L4,8 L5,4 L0,2 Z " fill="#F0EFEF" transform="translate(168,85)"/>
<path d="M0,0 L2,1 L1,6 L-1,10 L-3,10 L-3,12 L-6,11 L-5,8 L-8,9 L-8,11 L-14,9 L-16,6 L-14,3 L-14,7 L-11,7 L-11,4 L-4,3 L-4,5 L0,4 Z " fill="#A0908F" transform="translate(83,227)"/>
<path d="M0,0 L2,1 L6,3 L6,0 L11,0 L8,4 L4,5 L3,9 L5,9 L4,11 L0,10 L-2,12 L-3,17 L-6,18 L-6,15 L-4,15 L-3,10 L-5,10 L-5,8 L-1,4 L-1,1 Z M0,3 Z " fill="#B5A8A7" transform="translate(72,204)"/>
<path d="M0,0 L9,0 L23,4 L23,6 L16,5 L9,3 L11,6 L9,7 L3,5 L-1,4 L-2,1 Z " fill="#9D8E8D" transform="translate(137,20)"/>
<path d="M0,0 L4,2 L6,6 L6,15 L8,19 L5,22 L6,30 L7,32 L7,40 L5,38 L3,28 L3,20 L5,18 L3,13 L2,3 L-1,1 Z " fill="#877474" transform="translate(38,246)"/>
<path d="M0,0 L3,1 L1,6 L0,8 L10,7 L12,9 L7,13 L3,12 L-1,13 L0,10 L-3,9 Z " fill="#968686" transform="translate(35,231)"/>
<path d="M0,0 L3,1 L-2,10 L-11,7 L-12,13 L-14,15 L-16,13 L-16,11 L-16,7 L-9,5 L-4,6 L-3,5 L-2,2 L0,1 Z " fill="#8C7B7B" transform="translate(150,147)"/>
<path d="M0,0 L3,1 L1,3 L4,6 L3,14 L1,19 L-1,19 L-2,6 Z M-2,19 Z " fill="#FAFAFA" transform="translate(33,200)"/>
<path d="M0,0 L4,1 L13,7 L17,15 L10,17 L10,15 L14,14 L10,10 L4,6 L0,2 Z " fill="#8A7978" transform="translate(140,61)"/>
<path d="M0,0 L1,2 L7,4 L6,6 L-1,3 L0,12 L2,13 L-1,16 L0,21 L-2,29 L-3,29 L-4,16 L-3,15 L-3,2 Z " fill="#887675" transform="translate(142,78)"/>
<path d="M0,0 L9,6 L7,10 L5,11 L3,10 L3,8 L-1,7 L-4,4 L-5,1 Z " fill="#F6F5F5" transform="translate(156,76)"/>
<path d="M0,0 L3,1 L5,11 L5,16 L-1,16 L-1,6 Z " fill="#FAFAFA" transform="translate(171,224)"/>
<path d="M0,0 L7,3 L6,5 L12,6 L12,10 L0,8 L-3,7 Z " fill="#FAFAFA" transform="translate(98,153)"/>
<path d="M0,0 L6,2 L6,4 L9,5 L9,8 L4,6 L0,5 L0,8 L2,9 L0,13 L-4,9 L-5,3 L-4,1 Z " fill="#877676" transform="translate(153,82)"/>
<path d="M0,0 L1,2 L-1,7 L-1,14 L-4,20 L-6,20 L-7,14 L-2,1 Z M-7,20 Z " fill="#FAFAFA" transform="translate(84,291)"/>
<path d="M0,0 L6,0 L7,5 L6,11 L6,13 L1,14 L-1,16 L0,9 L3,8 L1,3 L-1,1 Z " fill="#FAFAFA" transform="translate(157,216)"/>
<path d="M0,0 L7,2 L5,4 L1,3 L2,6 L5,7 L8,4 L8,9 L3,12 L7,13 L0,16 L1,8 L-2,7 L-1,3 Z " fill="#7F6E6E" transform="translate(144,168)"/>
<path d="M0,0 L4,0 L6,3 L7,8 L7,15 L3,13 L5,12 L2,10 L-2,8 L3,4 L1,3 L-8,2 L-8,1 Z " fill="#FAFAFA" transform="translate(168,24)"/>
<path d="M0,0 L4,0 L5,5 L4,6 L6,8 L-1,8 L-1,18 L-2,27 L-3,27 L-4,20 L-4,17 L-3,6 L1,4 L-1,1 Z " fill="#857373" transform="translate(177,206)"/>
<path d="M0,0 L4,1 L2,1 L-1,31 L-3,37 L-5,37 L-5,33 L-3,33 L-3,25 L-5,24 L-2,24 L-1,9 Z " fill="#7D6A6B" transform="translate(185,106)"/>
<path d="M0,0 L5,4 L9,6 L7,7 L1,7 L-6,11 L-12,10 L-8,7 L-2,3 Z " fill="#9C8D8D" transform="translate(130,55)"/>
</svg>
