<?xml version="1.0" encoding="UTF-8"?>
<!-- Generator: visioncortex VTracer 0.6.12 -->
<svg version="1.1" xmlns="http://www.w3.org/2000/svg" width="166" height="344">
<path d="M0,0 L166,0 L166,344 L0,344 Z M94,20 L90,22 L83,32 L83,36 L79,38 L72,47 L71,50 L68,53 L68,56 L66,56 L58,67 L50,80 L49,88 L47,88 L48,93 L43,95 L41,104 L39,104 L34,115 L32,125 L28,138 L22,166 L20,180 L20,238 L24,259 L25,266 L28,266 L29,274 L26,273 L29,285 L32,295 L34,295 L38,311 L40,314 L40,312 L42,312 L44,317 L45,314 L44,310 L45,311 L45,321 L52,322 L61,323 L82,324 L86,323 L86,321 L89,320 L90,320 L90,322 L104,325 L113,325 L123,324 L124,320 L126,320 L129,310 L129,307 L131,307 L134,301 L134,299 L132,299 L135,290 L137,292 L139,272 L143,253 L143,248 L145,249 L145,222 L147,223 L147,203 L146,195 L145,173 L140,152 L137,139 L136,131 L132,115 L131,115 L131,122 L131,125 L130,120 L127,112 L130,112 L129,105 L123,88 L120,81 L118,70 L117,68 L115,68 L114,59 L111,52 L108,44 L102,35 L97,34 L97,29 L100,32 L97,23 Z " fill="#F9F9F9" transform="translate(0,0)"/>
<path d="M0,0 L2,0 L5,8 L8,12 L9,15 L7,15 L13,37 L16,43 L20,62 L23,73 L25,77 L27,78 L26,82 L26,91 L30,108 L31,121 L33,130 L36,166 L36,173 L34,182 L32,209 L26,232 L17,262 L14,268 L18,264 L21,256 L25,259 L23,259 L25,264 L22,265 L23,269 L19,270 L-2,270 L-7,264 L-7,263 L-9,264 L-9,250 L-3,249 L-2,248 L-1,245 L0,246 L1,192 L0,136 L-1,131 L-3,128 L-4,125 L-1,122 L-9,121 L-9,118 L-7,117 L-5,112 L-10,117 L-10,85 L-5,89 L-6,97 L-1,92 L0,83 L-2,85 L-5,80 L-6,78 L-8,78 L-9,83 L-10,83 L-10,75 L-5,72 L-4,70 L-7,70 L-8,68 L-11,71 L-13,71 L-12,109 L-11,116 L-11,159 L-10,218 L-8,219 L-7,216 L-1,218 L-1,224 L-3,224 L-2,219 L-6,218 L-7,225 L-8,221 L-10,222 L-10,267 L-13,270 L-40,267 L-49,267 L-50,266 L-50,257 L-46,261 L-44,263 L-48,253 L-53,235 L-57,219 L-58,212 L-59,194 L-60,190 L-62,168 L-62,155 L-59,139 L-56,118 L-53,99 L-47,78 L-44,66 L-43,64 L-42,50 L-39,50 L-39,49 L-42,48 L-37,39 L-35,38 L-35,42 L-32,34 L-26,22 L-23,12 L-16,4 L-16,2 L-11,4 L-9,5 L-9,7 L-13,8 L-13,26 L-12,31 L-8,29 L-7,28 L-5,17 L-5,10 L-3,1 Z M-1,5 L-2,7 L-2,41 L-1,52 L1,48 L0,5 Z " fill="#F8F8F8" transform="translate(97,52)"/>
<path d="M0,0 L2,4 L6,20 L7,28 L12,50 L14,58 L15,89 L14,90 L14,97 L9,96 L9,98 L11,98 L11,103 L10,106 L9,130 L6,131 L8,141 L10,140 L10,149 L9,152 L7,152 L6,146 L6,147 L5,155 L4,175 L1,184 L3,184 L1,190 L0,192 L-2,192 L-4,203 L-5,205 L-7,205 L-7,208 L-14,208 L-10,206 L-10,202 L-8,201 L-9,197 L-6,195 L-8,192 L-8,194 L-12,194 L-17,204 L-20,205 L-17,196 L-4,151 L-3,146 L-1,119 L1,110 L0,89 L-2,67 L-4,58 L-6,40 L-8,32 L-8,22 L-6,21 L-4,22 L-3,19 L1,20 L0,13 L2,13 L0,7 Z " fill="#D9DAD6" transform="translate(131,115)"/>
<path d="M0,0 L1,0 L1,5 L7,5 L5,6 L5,8 L9,8 L16,7 L13,29 L9,43 L7,58 L3,83 L1,95 L1,108 L2,116 L2,130 L1,130 L0,139 L-10,140 L-10,147 L-11,147 L-15,126 L-15,105 L-13,105 L-13,101 L-4,99 L-8,96 L-10,96 L-12,90 L-12,83 L-11,81 L-11,68 L-13,71 L-13,54 L-6,22 L-2,11 Z " fill="#DDDDDA" transform="translate(35,112)"/>
<path d="M0,0 L3,3 L6,12 L3,10 L4,16 L9,19 L10,23 L7,23 L11,27 L15,36 L17,40 L18,49 L21,55 L20,48 L23,48 L25,53 L27,63 L36,88 L36,92 L33,92 L36,100 L36,113 L32,112 L27,104 L25,100 L24,96 L26,94 L25,90 L23,90 L21,82 L19,70 L17,65 L15,64 L11,49 L13,49 L13,46 L11,46 L9,42 L7,43 L4,31 L-1,31 L2,24 L-1,21 L-1,18 L-6,17 L-6,14 L-3,12 L-1,5 L0,3 L-5,8 L-10,15 L-11,12 L-3,1 Z " fill="#DDDEDA" transform="translate(94,20)"/>
<path d="M0,0 L2,1 L5,32 L9,47 L14,65 L13,67 L9,69 L10,76 L7,73 L7,71 L5,71 L4,73 L1,64 L-1,54 L-3,54 L-9,34 L-8,32 L-6,33 L-7,25 L-10,25 L-10,11 L0,10 Z " fill="#EAEBE9" transform="translate(35,241)"/>
<path d="M0,0 L3,4 L5,4 L5,2 L10,3 L10,12 L8,19 L-2,22 L-2,20 L-4,20 L-4,18 L-8,17 L-8,10 L-5,4 L-3,4 L-2,2 L0,2 Z " fill="#ECEBE9" transform="translate(44,100)"/>
<path d="M0,0 L0,3 L-1,4 L-1,23 L1,27 L1,47 L4,42 L6,43 L4,48 L1,49 L1,52 L5,51 L6,53 L3,54 L0,53 L0,80 L2,77 L4,83 L2,83 L2,88 L5,90 L5,96 L1,97 L1,99 L3,99 L3,108 L4,111 L2,116 L-1,116 L-2,90 L-2,44 L-3,40 L-4,8 L-3,2 Z " fill="#7A8380" transform="translate(87,121)"/>
<path d="M0,0 L1,0 L2,5 L6,4 L5,11 L2,17 L-1,20 L-2,18 L-5,23 L-6,30 L-7,30 L-7,24 L-10,29 L-14,28 L-15,30 L-12,32 L-15,32 L-15,36 L-13,37 L-16,38 L-20,33 L-19,28 L-14,26 L-15,21 L-13,21 L-11,16 L-5,18 L-5,16 L-7,16 L-7,12 L-3,8 L-1,3 Z " fill="#D0CEC5" transform="translate(62,67)"/>
<path d="M0,0 L1,3 L-2,6 L0,13 L0,47 L-1,54 L-2,54 L-3,46 L-5,45 L-5,40 L-8,37 L-8,30 L-7,32 L-3,31 L-3,22 L-7,22 L-8,22 L-8,15 L-7,9 L-7,4 L-5,2 L0,2 Z " fill="#E8E9E9" transform="translate(96,172)"/>
<path d="M0,0 L2,2 L6,10 L6,18 L3,21 L3,23 L1,23 L1,25 L-3,25 L-2,38 L-1,31 L1,33 L0,39 L-3,44 L-5,44 L-5,15 L-3,15 L-2,11 L-3,10 L-3,3 Z " fill="#D5D7D3" transform="translate(91,277)"/>
<path d="M0,0 L2,1 L4,2 L4,4 L10,3 L10,5 L6,7 L4,17 L3,26 L1,26 L1,31 L-1,31 L-5,27 L-5,13 L-1,12 L-2,6 Z " fill="#D7D9D7" transform="translate(89,47)"/>
<path d="M0,0 L1,0 L1,11 L-1,11 L-3,13 L-4,9 L-6,8 L-5,11 L-10,16 L-14,18 L-15,20 L-15,12 L-14,9 L-11,9 L-12,7 L-14,7 L-16,11 L-17,8 L-19,9 L-17,4 L-15,4 L-12,1 L-7,1 L-5,3 Z " fill="#C9CAC3" transform="translate(87,46)"/>
<path d="M0,0 L3,1 L3,3 L0,3 L-1,16 L-6,30 L-8,30 L-6,24 L-6,20 L-9,21 L-11,16 L-13,16 L-12,11 L-7,4 L-2,1 Z " fill="#E9E9E7" transform="translate(73,52)"/>
<path d="M0,0 L2,1 L3,18 L3,30 L1,29 L0,39 L-4,37 L-5,27 L-3,26 L-2,2 Z " fill="#A4AAA9" transform="translate(142,219)"/>
<path d="M0,0 L1,0 L2,9 L2,65 L1,65 L0,77 L-1,77 L-2,70 L-2,65 L-4,67 L-5,62 L-1,63 L-1,4 Z " fill="#79817E" transform="translate(96,179)"/>
<path d="M0,0 L1,0 L1,8 L2,13 L2,25 L-6,23 L-7,25 L-7,12 L-5,10 L-6,6 L-3,3 L-1,3 Z " fill="#EEEFEE" transform="translate(94,243)"/>
<path d="M0,0 L1,0 L2,20 L3,25 L2,31 L4,32 L2,32 L1,36 L1,44 L7,45 L8,42 L9,12 L10,12 L11,29 L10,48 L3,47 L2,49 L-1,48 L-1,15 Z " fill="#999D94" transform="translate(87,222)"/>
<path d="M0,0 L5,0 L13,13 L16,22 L18,30 L19,43 L16,39 L14,32 L13,25 L11,27 L9,17 L6,10 L3,7 L7,8 L6,4 L1,2 Z " fill="#9C9C8C" transform="translate(97,35)"/>
<path d="M0,0 L1,0 L1,5 L1,7 L3,9 L0,15 L-4,15 L-5,14 L-7,12 L-13,15 L-14,12 L-22,14 L-20,10 L-15,3 L-13,4 L-7,1 L-6,3 L-12,7 L-11,11 L-4,10 L-2,8 L-4,8 L-4,6 L-2,6 L-3,2 L-1,2 Z " fill="#959991" transform="translate(94,35)"/>
<path d="M0,0 L1,2 L4,2 L4,13 L3,15 L3,21 L5,18 L7,21 L8,22 L7,31 L4,31 L3,28 L2,29 L1,38 L0,38 Z " fill="#BCBFBB" transform="translate(86,172)"/>
<path d="M0,0 L2,4 L3,22 L6,39 L10,52 L15,69 L17,75 L12,70 L11,68 L11,76 L15,78 L8,79 L8,69 L7,66 L11,64 L3,36 L1,23 Z " fill="#7A827E" transform="translate(37,242)"/>
<path d="M0,0 L3,3 L4,6 L0,7 L2,12 L-1,12 L0,16 L-1,17 L1,19 L-9,20 L-18,20 L-32,17 L-32,12 L-28,14 L-27,16 L-2,16 L-4,11 L-1,10 L-2,4 L1,4 Z " fill="#888E88" transform="translate(122,305)"/>
<path d="M0,0 L2,1 L1,3 L3,4 L4,7 L7,4 L6,15 L1,22 L-1,20 L0,14 L1,12 L-3,10 L-4,6 L-2,1 Z " fill="#ABB1B1" transform="translate(91,129)"/>
<path d="M0,0 L15,1 L34,3 L36,3 L36,5 L32,6 L11,5 L2,4 L-3,4 L-3,2 Z " fill="#959B97" transform="translate(50,318)"/>
<path d="M0,0 L1,3 L0,4 L3,15 L3,18 L6,19 L9,27 L11,44 L13,44 L13,47 L15,48 L11,52 L8,39 L5,27 L1,16 L-2,6 L-2,1 Z " fill="#8E9289" transform="translate(106,66)"/>
<path d="M0,0 L3,4 L1,8 L2,10 L-2,14 L-4,15 L-4,17 L-2,17 L-2,19 L-9,18 L-8,12 L-1,1 Z " fill="#C0C0B8" transform="translate(59,66)"/>
<path d="M0,0 L1,0 L0,55 L-2,54 L-3,59 L-5,61 L-6,56 L-4,56 L-5,53 L-2,51 L-2,35 L-3,33 L-5,33 L-4,30 L-4,32 L-2,32 L-1,7 Z " fill="#79817D" transform="translate(98,244)"/>
<path d="M0,0 L4,1 L4,4 L2,4 L2,7 L6,7 L6,17 L3,14 L0,8 L-2,10 L-2,17 L-2,20 L-4,22 L-5,4 L-2,3 L-1,5 Z " fill="#9FA29A" transform="translate(91,270)"/>
<path d="M0,0 L1,3 L-1,7 L-3,15 L-7,14 L-7,17 L-13,19 L-14,13 L-12,10 L-9,10 L-7,7 L-4,6 Z " fill="#F2F1EF" transform="translate(60,84)"/>
<path d="M0,0 L2,0 L2,7 L4,7 L5,13 L8,12 L10,14 L11,16 L2,18 L1,22 L0,14 Z " fill="#BABBB4" transform="translate(20,195)"/>
<path d="M0,0 L4,2 L6,9 L8,14 L12,15 L12,7 L14,10 L14,17 L10,16 L9,20 L6,19 L5,25 L4,25 L4,16 L4,13 L2,11 Z " fill="#96988C" transform="translate(118,118)"/>
<path d="M0,0 L1,3 L4,3 L2,8 L-2,8 L-2,25 L-3,41 L-4,41 L-4,6 Z " fill="#C4C5C0" transform="translate(89,119)"/>
<path d="M0,0 L1,0 L2,43 L0,47 L-1,29 L-1,2 Z " fill="#717C7C" transform="translate(96,57)"/>
<path d="M0,0 L1,0 L2,7 L4,5 L4,20 L2,29 L1,29 L-1,14 Z " fill="#A6A79B" transform="translate(21,173)"/>
<path d="M0,0 L3,1 L5,3 L6,0 L7,2 L4,6 L4,4 L2,4 L3,9 L2,18 L-1,27 L-4,40 L-5,40 L-4,28 L0,14 L1,5 L-2,4 L0,3 Z " fill="#8B8F85" transform="translate(53,98)"/>
<path d="M0,0 L4,0 L4,10 L3,13 L4,20 L0,17 L-1,6 L0,3 L-2,3 L-2,1 Z " fill="#BCC1C1" transform="translate(90,217)"/>
<path d="M0,0 L1,0 L1,20 L-2,19 L-3,17 L-5,19 L-6,16 L-4,10 L-7,11 L-6,7 L-4,8 L-2,5 L-2,1 Z " fill="#878C83" transform="translate(146,203)"/>
<path d="M0,0 L1,4 L-6,21 L-9,26 L-11,32 L-12,29 L-13,28 L-15,30 L-14,26 L-13,23 L-11,23 L-9,19 L-6,18 L-3,7 Z " fill="#A3A69F" transform="translate(73,64)"/>
<path d="M0,0 L0,3 L-3,11 L-7,15 L-14,18 L-13,14 L-8,9 L-2,1 Z " fill="#EFEFEE" transform="translate(94,22)"/>
<path d="M0,0 L2,0 L1,16 L-3,15 L-2,20 L-4,21 L-6,16 L-5,7 L-1,10 L-2,3 Z " fill="#F5F6F6" transform="translate(94,226)"/>
<path d="M0,0 L1,0 L2,10 L5,12 L5,14 L7,14 L7,9 L8,9 L8,16 L3,20 L2,26 L1,26 L0,14 Z " fill="#959E9E" transform="translate(83,64)"/>
<path d="M0,0 L3,0 L4,4 L2,4 L2,6 L4,6 L3,9 L-3,9 L-6,10 L-7,5 L-2,1 Z " fill="#FAFAFA" transform="translate(88,37)"/>
<path d="M0,0 L3,0 L4,12 L2,32 L1,32 L0,18 L0,5 L2,2 L0,2 Z " fill="#989A8F" transform="translate(135,260)"/>
</svg>
