<?xml version="1.0" encoding="UTF-8"?>
<!-- Generator: visioncortex VTracer 0.6.12 -->
<svg version="1.1" xmlns="http://www.w3.org/2000/svg" width="197" height="344">
<path d="M0,0 L197,0 L197,344 L0,344 Z M85,20 L86,25 L86,34 L91,48 L91,50 L90,48 L86,47 L81,53 L79,53 L67,82 L65,87 L63,90 L62,97 L60,97 L58,100 L58,108 L59,110 L56,110 L54,113 L51,115 L50,116 L47,116 L46,121 L46,123 L44,126 L41,127 L40,131 L42,131 L36,140 L33,141 L32,144 L29,148 L27,153 L23,164 L21,162 L22,167 L25,172 L33,173 L44,175 L68,175 L70,174 L79,174 L86,173 L90,168 L92,171 L95,172 L104,172 L104,171 L111,169 L113,167 L115,173 L111,174 L120,177 L132,179 L147,180 L145,178 L152,178 L155,179 L165,178 L170,180 L173,176 L178,174 L177,171 L178,168 L175,165 L170,144 L167,140 L167,146 L165,136 L162,130 L160,131 L160,128 L158,124 L152,117 L150,112 L147,98 L144,90 L142,82 L140,78 L138,70 L132,59 L124,50 L121,41 L120,38 L123,39 L125,35 L124,28 L123,26 L113,24 L111,25 L111,27 L107,29 L105,32 L101,30 L99,25 L95,20 Z M55,216 L45,217 L39,220 L34,222 L28,223 L27,221 L24,223 L24,233 L24,236 L27,239 L41,246 L52,257 L55,264 L57,267 L59,267 L61,271 L66,275 L70,273 L68,277 L66,279 L68,284 L72,288 L75,298 L79,308 L78,310 L78,314 L80,316 L83,315 L84,319 L95,321 L96,319 L98,316 L106,316 L107,310 L109,310 L110,315 L108,316 L110,316 L109,324 L111,321 L114,312 L114,304 L118,291 L120,292 L121,287 L123,282 L125,283 L129,274 L139,260 L146,254 L146,252 L151,250 L161,244 L172,240 L173,237 L172,226 L170,223 L165,223 L166,221 L141,219 L132,219 L127,220 L118,220 L118,219 L103,219 L76,218 L74,219 L73,217 Z " fill="#F9F9F9" transform="translate(0,0)"/>
<path d="M0,0 L1,3 L2,9 L1,12 L1,21 L4,25 L6,22 L8,22 L9,7 L13,4 L15,11 L16,12 L18,10 L19,21 L21,20 L22,12 L22,0 L25,1 L28,7 L32,11 L36,21 L38,23 L36,17 L39,18 L41,25 L41,27 L46,45 L44,56 L37,62 L36,66 L33,65 L32,71 L30,77 L29,84 L27,83 L25,88 L23,100 L19,102 L4,102 L-1,100 L-9,81 L-12,74 L-20,58 L-22,56 L-21,54 L-23,54 L-23,52 L-25,52 L-25,50 L-22,50 L-22,39 L-19,33 L-17,33 L-15,21 L-11,13 L-9,9 L-11,10 L-9,3 Z " fill="#F9F9F9" transform="translate(92,59)"/>
<path d="M0,0 L11,0 L13,1 L23,1 L25,0 L34,0 L30,3 L22,5 L17,4 L18,8 L26,10 L22,12 L21,13 L21,19 L24,24 L27,24 L28,26 L28,16 L31,13 L37,13 L43,16 L44,15 L42,11 L46,13 L49,15 L49,14 L55,13 L55,5 L62,7 L62,17 L61,21 L51,23 L44,27 L41,24 L40,28 L33,28 L33,30 L37,32 L36,37 L28,46 L20,58 L18,64 L16,63 L13,71 L12,73 L10,70 L3,67 L2,65 L11,62 L13,56 L15,56 L14,53 L14,45 L9,44 L6,45 L2,51 L0,51 L0,53 L-3,53 L-7,43 L-13,39 L-16,34 L-18,24 L-22,23 L-15,39 L-14,46 L-23,47 L-28,44 L-30,40 L-30,42 L-35,43 L-37,50 L-40,50 L-42,46 L-43,51 L-47,47 L-49,40 L-48,36 L-50,35 L-49,39 L-52,38 L-58,31 L-60,27 L-59,22 L-64,16 L-64,14 L-70,13 L-74,7 L-73,4 L-67,5 L-65,6 L-65,11 L-64,7 L-59,8 L-58,10 L-60,10 L-61,13 L-60,15 L-57,9 L-50,7 L-47,6 L-43,8 L-38,5 L-37,3 L-33,4 L-35,4 L-35,6 L-33,6 L-32,8 L-26,8 L-26,10 L-21,12 L-18,9 L-14,15 L-10,17 L-13,17 L-15,22 L-9,30 L-3,29 L-2,25 L-1,30 L1,22 L-3,21 L-6,17 L-6,15 L-12,15 L-12,11 L-14,10 L-14,3 L0,3 Z M-53,9 L-57,13 L-59,19 L-53,24 L-49,25 L-47,26 L-44,21 L-43,16 L-44,14 L-46,14 L-46,9 L-49,11 L-50,9 Z " fill="#EAE8E7" transform="translate(107,219)"/>
<path d="M0,0 L4,1 L8,14 L13,18 L17,22 L19,30 L25,29 L27,25 L32,23 L33,29 L29,31 L32,33 L34,25 L36,26 L37,33 L35,33 L34,39 L25,43 L32,46 L31,54 L29,62 L29,70 L25,82 L24,82 L25,74 L23,73 L25,73 L24,68 L22,68 L21,74 L13,74 L10,78 L8,79 L6,78 L6,76 L0,75 L-2,72 L-2,66 L-5,61 L-8,57 L-11,49 L-12,44 L-14,38 L-14,30 L-20,31 L-20,24 L-16,27 L-13,28 L-11,31 L-5,33 L-2,34 L0,27 L2,23 L8,23 L4,12 L0,2 Z M3,45 L3,52 L7,52 L8,58 L13,60 L13,62 L17,60 L18,59 L18,52 L16,47 L7,45 Z " fill="#F1EFEE" transform="translate(85,242)"/>
<path d="M0,0 L7,1 L9,0 L10,2 L10,8 L9,10 L6,9 L4,19 L3,21 L5,20 L9,26 L17,33 L25,48 L25,52 L28,53 L30,57 L33,79 L32,80 L34,82 L32,82 L32,84 L26,85 L25,82 L20,62 L20,59 L18,58 L19,55 L17,50 L18,53 L16,57 L11,47 L9,41 L5,37 L4,32 L7,30 L4,27 L2,28 L0,28 L0,31 L-5,29 L-8,29 L-11,22 L-14,31 L-13,41 L-11,41 L-12,51 L-13,54 L-18,58 L-21,53 L-21,44 L-20,39 L-21,35 L-18,35 L-19,30 L-25,32 L-23,28 L-21,28 L-24,9 L-21,5 L-21,8 L-17,6 L-14,12 L-10,13 L-9,14 L-4,4 Z " fill="#E2E1DF" transform="translate(113,27)"/>
<path d="M0,0 L3,1 L4,4 L0,4 L0,13 L-3,14 L-3,22 L-5,25 L-14,24 L-13,27 L-18,36 L-12,35 L-9,39 L-6,38 L-7,35 L-5,35 L-3,31 L-3,33 L4,35 L5,38 L8,38 L10,43 L12,43 L15,46 L19,48 L21,55 L17,57 L20,58 L18,62 L12,64 L-3,66 L-9,66 L-11,65 L-23,63 L-27,60 L-26,50 L-25,48 L-27,47 L-25,47 L-21,29 L-18,19 L-8,5 L-3,1 Z M0,40 L0,43 L-6,42 L-12,42 L-11,44 L-6,45 L-9,46 L-10,48 L-10,54 L-8,54 L-6,57 L3,56 L6,59 L5,52 L1,40 Z " fill="#F2F1F0" transform="translate(143,112)"/>
<path d="M0,0 L1,0 L1,6 L-1,6 L1,8 L10,12 L8,15 L4,15 L7,24 L10,23 L7,23 L9,19 L11,19 L12,20 L13,16 L18,17 L17,13 L21,13 L21,11 L23,11 L29,28 L31,32 L31,35 L28,35 L28,43 L26,47 L13,45 L8,46 L6,41 L3,43 L-10,43 L-14,40 L-6,40 L-15,38 L-11,34 L-10,31 L-4,29 L-6,25 L-5,15 L-4,12 L-7,16 L-7,7 L-2,2 Z M-2,38 Z M-3,39 Z " fill="#EAE8E6" transform="translate(60,125)"/>
<path d="M0,0 L2,0 L2,7 L3,9 L5,9 L6,13 L13,11 L13,15 L9,16 L8,19 L11,19 L9,28 L17,30 L17,31 L4,31 L2,32 L-7,29 L-10,21 L-9,15 L-7,14 L-7,17 L-3,7 Z M18,28 Z M17,29 Z " fill="#EDECEB" transform="translate(40,135)"/>
<path d="M0,0 L4,2 L11,2 L12,7 L15,8 L14,11 L14,9 L10,11 L10,17 L12,14 L13,19 L11,19 L11,21 L9,21 L7,23 L6,18 L8,18 L7,13 L2,19 L-4,20 L-7,20 L-8,22 L-10,22 L-11,17 L-13,18 L-11,13 L-8,12 L-7,10 L-7,8 L-6,3 L-2,4 L-2,1 Z " fill="#D2CDCA" transform="translate(53,113)"/>
<path d="M0,0 L2,3 L4,11 L11,12 L14,13 L17,12 L22,14 L34,14 L37,12 L39,14 L38,18 L35,18 L35,16 L31,17 L31,19 L-1,18 L-3,19 L-4,11 L-1,2 Z " fill="#F9F9F9" transform="translate(29,153)"/>
<path d="M0,0 L7,6 L7,10 L8,12 L10,11 L14,20 L14,27 L8,24 L11,33 L12,42 L14,46 L13,50 L12,52 L8,50 L9,48 L11,48 L10,41 L8,40 L10,40 L8,34 L7,28 L5,26 L6,24 L4,24 L3,27 L1,25 L1,15 L3,13 L4,8 L2,7 Z " fill="#C2BCB9" transform="translate(152,119)"/>
<path d="M0,0 L11,1 L16,1 L16,3 L18,2 L24,2 L22,7 L17,10 L12,8 L10,10 L10,8 L3,10 L1,16 L-1,18 L-2,13 L0,13 L1,10 L-4,8 L-4,13 L-6,11 L-5,7 L-7,7 L-8,4 L-6,2 L0,1 Z " fill="#E4DEDC" transform="translate(47,218)"/>
<path d="M0,0 L10,1 L10,3 L15,4 L14,7 L19,8 L23,14 L26,15 L25,23 L23,24 L23,19 L22,22 L16,24 L10,17 L9,13 L12,10 L8,7 L8,4 L6,4 L4,6 L-1,2 Z " fill="#C2BBB7" transform="translate(82,226)"/>
<path d="M0,0 L5,2 L7,3 L11,18 L15,24 L16,28 L15,30 L11,31 L9,27 L9,31 L4,31 L1,29 L4,28 L5,22 L3,18 L1,6 Z " fill="#F4F2F2" transform="translate(160,143)"/>
<path d="M0,0 L13,0 L8,4 L7,5 L11,8 L14,5 L15,12 L17,13 L14,16 L10,12 L12,16 L6,15 L3,13 L-4,13 L-8,12 L-13,13 L-15,11 L-10,10 L-10,5 L0,4 L2,3 Z " fill="#C7C2BE" transform="translate(141,220)"/>
<path d="M0,0 L2,2 L0,5 L2,6 L1,10 L3,10 L4,6 L6,7 L6,9 L4,9 L4,13 L5,17 L1,22 L-1,27 L-5,25 L-9,30 L-12,37 L-13,37 L-12,29 Z M0,10 Z M-1,11 L0,13 Z " fill="#B7B4B1" transform="translate(79,53)"/>
<path d="M0,0 L5,1 L10,10 L6,10 L6,12 L8,12 L8,15 L3,14 L3,20 L1,19 L1,17 L-3,21 L0,21 L-1,23 L-4,22 L-6,17 L-6,13 L-1,11 L-6,7 L-3,5 Z " fill="#DCD9D7" transform="translate(70,127)"/>
<path d="M0,0 L3,1 L0,10 L-1,13 L-3,13 L-6,23 L-8,33 L-6,36 L-9,36 L-10,39 L-15,38 L-17,37 L-16,34 L-12,36 L-10,20 L-6,8 L-2,2 Z " fill="#EDECEC" transform="translate(74,77)"/>
<path d="M0,0 L1,2 L7,2 L6,4 L2,3 L1,6 L1,9 L3,15 L9,18 L9,16 L5,14 L7,12 L11,17 L10,19 L16,19 L19,21 L16,16 L18,15 L22,20 L22,25 L18,27 L1,18 L-3,16 L-2,14 L-3,12 L-3,2 Z " fill="#A7A09B" transform="translate(27,221)"/>
<path d="M0,0 L5,4 L7,5 L7,7 L12,8 L13,6 L15,10 L16,8 L18,8 L19,12 L15,17 L11,17 L10,15 L9,20 L8,20 L7,12 L4,13 L4,11 L0,10 L0,8 L-3,8 L-3,5 L-9,3 L-9,2 Z " fill="#E1DDDB" transform="translate(140,135)"/>
<path d="M0,0 L2,3 L6,14 L6,19 L3,16 L-6,17 L-9,14 L-10,14 L-10,8 L-9,6 L-6,5 L-11,4 L-12,2 L-2,2 L0,3 Z " fill="#C0B9B5" transform="translate(143,152)"/>
<path d="M0,0 L5,2 L9,7 L14,9 L16,15 L17,18 L8,16 L8,13 L5,12 L7,13 L7,15 L1,13 L-2,8 L-1,4 L-1,1 Z " fill="#F1EFEE" transform="translate(29,224)"/>
<path d="M0,0 L10,0 L16,8 L16,10 L19,11 L20,14 L21,18 L19,22 L15,17 L13,8 L8,7 L2,6 L5,18 L4,21 L1,14 L1,2 Z " fill="#A7A19C" transform="translate(85,20)"/>
<path d="M0,0 L1,4 L3,4 L4,1 L11,2 L12,8 L15,4 L16,7 L14,7 L13,18 L14,20 L13,22 L16,23 L12,25 L9,25 L9,23 L6,23 L5,26 L6,20 L11,19 L11,15 L4,18 L2,16 L8,14 L10,14 L9,5 L4,7 L1,15 L-1,11 L-1,2 Z " fill="#B1ABA6" transform="translate(42,131)"/>
<path d="M0,0 L26,0 L25,5 L21,8 L15,8 L14,6 L6,6 L5,4 L0,5 L-1,1 Z " fill="#E3E1E0" transform="translate(90,161)"/>
<path d="M0,0 L4,5 L7,11 L7,16 L4,18 L0,14 L-7,13 L-8,15 L-7,7 L-5,7 L-3,1 Z " fill="#EEEAE8" transform="translate(149,116)"/>
<path d="M0,0 L4,1 L6,8 L4,8 L4,11 L7,10 L9,8 L9,15 L7,15 L6,13 L1,15 L-2,13 L-3,14 L-4,16 L-6,16 L-7,9 Z M-7,16 Z M-8,17 Z " fill="#C9C7C5" transform="translate(86,47)"/>
<path d="M0,0 L4,2 L2,3 L6,5 L6,8 L8,8 L6,15 L10,16 L0,17 L0,14 L-3,14 L-6,14 L-7,12 L-2,3 L-2,1 Z " fill="#C1BBB7" transform="translate(131,135)"/>
<path d="M0,0 L3,0 L5,11 L7,17 L9,25 L12,29 L14,32 L16,36 L16,42 L19,45 L23,47 L16,47 L15,43 L11,44 L11,41 L10,36 L10,33 L5,20 L2,13 L-1,11 L-2,6 L1,5 L2,1 Z " fill="#A69D97" transform="translate(68,272)"/>
<path d="M0,0 L7,2 L10,6 L14,11 L16,12 L14,6 L19,10 L17,10 L17,17 L19,18 L21,23 L21,19 L24,18 L23,27 L26,28 L23,29 L17,23 L17,21 L14,20 L11,14 L8,9 L0,1 Z " fill="#A39B95" transform="translate(42,246)"/>
<path d="M0,0 L12,0 L11,2 L16,2 L18,5 L19,18 L12,21 L0,26 L-1,22 L2,21 L4,19 L4,21 L10,19 L14,19 L14,5 L7,3 L6,5 L4,2 Z " fill="#8F8B87" transform="translate(154,221)"/>
<path d="M0,0 L2,0 L2,2 L4,2 L4,4 L6,4 L10,11 L17,19 L22,29 L23,35 L21,36 L18,29 L11,16 L3,9 L0,5 L-2,7 L-4,5 L-1,3 Z " fill="#A5A09B" transform="translate(117,43)"/>
<path d="M0,0 L18,1 L20,3 L21,5 L20,8 L17,9 L17,7 L15,5 L8,5 L8,3 L-1,4 L-6,3 L-10,5 L-13,6 L-17,8 L-21,6 L-16,4 L-10,1 Z " fill="#9A948E" transform="translate(55,216)"/>
<path d="M0,0 L5,1 L5,2 L-1,3 L-1,7 L4,5 L8,7 L17,8 L19,11 L13,12 L13,13 L4,13 L0,11 L-1,9 L-5,13 L-6,10 L-4,9 L-3,1 Z " fill="#9A9793" transform="translate(91,159)"/>
<path d="M0,0 L3,1 L8,11 L9,13 L4,14 L2,18 L1,20 L-2,20 L-2,17 L-4,16 L-4,10 L1,8 L-1,6 Z " fill="#F2F1F0" transform="translate(66,114)"/>
<path d="M0,0 L10,2 L12,6 L11,13 L9,15 L7,14 L9,23 L8,21 L6,21 L5,19 L5,11 L9,13 L9,5 L7,6 L7,4 L0,4 L-5,10 L-7,14 L-9,13 L-9,11 L-9,8 L-4,3 L-2,3 L-2,1 Z " fill="#95918C" transform="translate(113,24)"/>
<path d="M0,0 L3,4 L6,4 L8,5 L9,9 L9,18 L6,17 L5,20 L2,16 L0,10 L-1,1 Z " fill="#C0BBB8" transform="translate(103,52)"/>
<path d="M0,0 L9,0 L14,2 L15,4 L17,3 L18,7 L17,12 L11,11 L9,6 L7,8 L1,4 L4,2 Z " fill="#F4F4F4" transform="translate(145,221)"/>
<path d="M0,0 L5,1 L8,1 L10,5 L5,7 L3,6 L4,10 L4,21 L2,28 L-1,28 L-1,16 L0,16 L0,5 L2,3 Z " fill="#A39B96" transform="translate(111,53)"/>
<path d="M0,0 L3,1 L1,1 L3,3 L6,3 L7,1 L9,2 L8,5 L3,7 L0,10 L-6,8 L-15,9 L-24,7 L-24,6 L-10,4 L-5,2 L-5,4 L0,4 Z " fill="#9A948F" transform="translate(169,170)"/>
<path d="M0,0 L1,2 L3,3 L2,4 L6,6 L1,9 L-4,14 L-12,26 L-15,39 L-17,39 L-16,27 L-12,17 L-9,16 L-7,11 L-3,9 Z " fill="#9E9791" transform="translate(137,107)"/>
<path d="M0,0 L7,2 L16,3 L16,8 L14,9 L7,8 L4,9 L-1,9 L-3,5 L-1,5 Z " fill="#F3F2F2" transform="translate(76,219)"/>
<path d="M0,0 L2,3 L1,10 L-2,26 L-6,25 L-7,27 L-5,28 L-7,28 L-8,30 L-9,26 L-8,23 L-5,23 L-6,21 L-6,13 L-3,10 L-2,7 Z " fill="#A6A09B" transform="translate(64,87)"/>
<path d="M0,0 L27,1 L31,2 L31,4 L19,5 L17,4 L17,11 L15,7 L15,5 L3,3 Z " fill="#B1A59E" transform="translate(76,218)"/>
<path d="M0,0 L8,3 L11,14 L8,15 L6,9 L-1,11 L-3,6 L-3,1 Z " fill="#F5F5F4" transform="translate(90,25)"/>
<path d="M0,0 L7,0 L7,2 L17,0 L29,3 L29,4 L19,5 L13,5 L6,6 L-3,5 L-2,3 L3,3 L3,1 Z " fill="#948F8A" transform="translate(57,169)"/>
<path d="M0,0 L2,3 L5,14 L7,23 L8,27 L5,25 L4,27 L1,27 L-1,31 L-2,28 L-1,24 L2,23 L-1,19 L1,19 L0,14 L1,13 L0,8 Z " fill="#ACA39E" transform="translate(144,92)"/>
<path d="M0,0 L10,1 L13,2 L15,7 L15,14 L12,17 L10,16 L11,15 L11,9 L9,4 L2,7 L0,7 Z " fill="#CCC6C2" transform="translate(88,287)"/>
<path d="M0,0 L1,2 L-4,13 L-1,14 L-5,14 L-6,12 L-11,21 L-12,31 L-13,34 L-17,27 L-16,24 L-15,26 L-11,15 L-9,10 L-6,6 L-4,3 Z " fill="#9B958F" transform="translate(38,138)"/>
<path d="M0,0 L3,0 L4,2 L7,0 L7,9 L6,12 L2,13 L-2,11 L-3,6 L-2,8 L-1,7 L-2,1 Z " fill="#DFDDDB" transform="translate(54,228)"/>
<path d="M0,0 L4,2 L3,8 L3,14 L1,15 L0,13 L-3,12 L-6,7 L-4,1 Z " fill="#F4F3F3" transform="translate(133,231)"/>
<path d="M0,0 L1,0 L2,11 L-1,21 L-2,30 L-4,30 L-4,23 L-8,21 L-5,20 L-2,5 Z " fill="#AAA49F" transform="translate(119,139)"/>
<path d="M0,0 L2,0 L2,2 L4,2 L6,6 L11,15 L14,22 L15,25 L14,27 L9,28 L9,26 L12,25 L8,19 L8,17 L5,16 L7,15 L2,7 L1,4 L-1,3 L-2,5 L-2,2 Z " fill="#9E9691" transform="translate(67,111)"/>
<path d="M0,0 L2,1 L-1,12 L-3,12 L-5,18 L-6,29 L-9,29 L-9,31 L-11,30 L-9,20 L-5,10 L-3,10 L-2,4 Z " fill="#9B9792" transform="translate(76,80)"/>
<path d="M0,0 L3,1 L3,5 L8,7 L10,8 L9,12 L4,11 L1,12 L2,8 L-1,6 L-3,10 L-2,14 L0,15 L-3,16 L-6,11 L-5,4 L-3,2 L1,3 Z " fill="#B4AEA9" transform="translate(76,258)"/>
<path d="M0,0 L4,4 L3,6 L7,5 L9,6 L10,11 L7,14 L1,11 L1,9 L-1,9 L-3,3 Z " fill="#E4E3E2" transform="translate(75,263)"/>
<path d="M0,0 L4,2 L6,4 L-7,6 L-6,7 L-10,9 L-14,7 L-16,2 L-9,3 Z " fill="#F9F8F8" transform="translate(139,220)"/>
<path d="M0,0 L26,1 L26,4 L25,5 L16,5 L2,2 Z " fill="#9B9691" transform="translate(28,170)"/>
<path d="M0,0 L3,4 L8,25 L11,28 L9,31 L4,22 L1,14 L0,5 Z " fill="#928D88" transform="translate(167,140)"/>
<path d="M0,0 L6,1 L8,7 L6,11 L1,10 L-2,5 Z " fill="#FAFAFA" transform="translate(144,130)"/>
<path d="M0,0 L2,1 L3,6 L1,7 L1,9 L9,10 L10,3 L12,3 L13,7 L11,12 L9,15 L7,14 L3,13 L-3,8 Z " fill="#A29B95" transform="translate(51,230)"/>
<path d="M0,0 L1,0 L1,10 L-5,12 L-8,7 L-4,1 Z " fill="#F9F9F9" transform="translate(51,135)"/>
<path d="M0,0 L2,0 L4,12 L-2,11 L-5,11 L-6,5 L-3,5 L-1,1 Z " fill="#DBDAD8" transform="translate(158,147)"/>
<path d="M0,0 L3,2 L2,7 L3,14 L0,20 L-2,18 L-3,10 Z " fill="#AEAAA6" transform="translate(101,48)"/>
<path d="M0,0 L2,3 L4,7 L9,9 L18,10 L20,11 L31,11 L33,14 L18,13 L6,11 L-3,8 L1,7 Z " fill="#86837F" transform="translate(114,166)"/>
<path d="M0,0 L2,0 L5,5 L5,11 L3,12 L-2,9 L-4,2 Z " fill="#FAFAFA" transform="translate(95,291)"/>
<path d="M0,0 L2,1 L6,3 L6,5 L0,9 L-2,9 L-3,12 L-5,11 L-6,7 L-8,6 L-8,4 L-1,3 Z " fill="#A9A19C" transform="translate(148,243)"/>
<path d="M0,0 L2,1 L2,3 L7,2 L12,5 L13,7 L13,15 L12,17 L7,16 L10,15 L11,9 L10,6 L4,5 L3,9 L4,13 L0,10 L-1,8 Z " fill="#9A938E" transform="translate(140,126)"/>
<path d="M0,0 L5,2 L4,6 L2,14 L-7,12 L-7,11 L-2,11 L-1,9 L1,9 L0,4 L-5,7 L-6,9 L-9,8 L-7,8 L-6,2 Z " fill="#A79E99" transform="translate(116,262)"/>
</svg>
