<?xml version="1.0" encoding="UTF-8"?>
<!-- Generator: visioncortex VTracer 0.6.12 -->
<svg version="1.1" xmlns="http://www.w3.org/2000/svg" width="281" height="344">
<path d="M0,0 L281,0 L281,344 L0,344 Z M168,20 L166,22 L167,25 L167,23 L171,24 L170,28 L176,28 L176,29 L192,29 L202,30 L207,33 L214,36 L229,38 L237,40 L238,36 L226,29 L219,24 L216,24 L216,22 L218,21 L209,21 L209,23 L206,22 L190,20 Z M154,34 L143,38 L136,41 L134,49 L137,54 L144,56 L145,50 L159,50 L171,56 L174,60 L176,60 L177,72 L182,75 L203,72 L202,76 L203,77 L203,83 L217,83 L220,87 L221,95 L225,96 L225,98 L223,98 L223,101 L221,101 L219,104 L216,105 L213,110 L211,111 L212,115 L215,116 L218,113 L222,111 L227,106 L233,99 L238,88 L251,81 L257,76 L259,69 L254,68 L247,73 L238,76 L235,79 L226,79 L216,70 L201,55 L180,44 L161,39 L159,39 L159,35 Z M208,46 L204,48 L205,51 L214,55 L224,63 L230,71 L231,69 L227,58 L217,49 L211,46 Z M156,54 L154,55 L154,60 L145,60 L149,61 L149,63 L151,64 L149,68 L149,70 L146,72 L144,70 L143,72 L143,79 L145,81 L149,76 L156,73 L162,62 L161,56 Z M156,82 L152,84 L155,93 L158,100 L164,97 L176,98 L182,100 L185,101 L186,93 L184,88 L176,89 L174,91 L165,91 L160,90 L162,83 Z M173,106 L160,107 L161,111 L157,112 L155,118 L162,118 L166,116 L177,115 L179,107 Z M193,114 L192,117 L197,118 L199,124 L204,129 L206,141 L209,146 L211,146 L212,152 L215,157 L218,158 L218,145 L215,136 L213,132 L211,133 L209,128 L207,122 L199,116 Z M151,132 L148,134 L144,134 L143,148 L141,149 L141,151 L145,151 L146,143 L148,143 L148,145 L150,145 L150,147 L156,146 L162,144 L165,139 L167,138 L167,133 L160,134 L163,135 L163,137 L155,136 L155,134 L159,133 Z M194,141 L190,143 L190,146 L188,146 L185,150 L184,154 L182,154 L181,158 L181,168 L183,168 L184,179 L181,175 L179,173 L178,180 L181,186 L171,186 L171,188 L169,189 L171,198 L178,197 L178,195 L184,193 L189,190 L190,193 L191,191 L195,195 L196,198 L195,204 L198,207 L200,206 L201,209 L202,199 L202,191 L199,191 L197,186 L195,183 L192,183 L193,175 L197,174 L197,172 L201,170 L203,169 L204,174 L206,175 L206,162 L207,160 L203,159 L201,146 L198,146 L196,141 Z M26,160 L21,164 L21,175 L23,179 L28,183 L45,187 L49,191 L51,197 L58,197 L57,205 L57,215 L53,220 L53,223 L56,223 L56,225 L59,226 L83,227 L90,228 L108,228 L111,230 L115,231 L119,235 L117,240 L114,239 L113,231 L112,231 L111,237 L108,240 L106,249 L106,269 L110,270 L110,272 L121,273 L120,285 L115,293 L110,296 L106,297 L92,298 L88,300 L74,302 L72,304 L78,304 L78,306 L74,308 L84,314 L89,316 L97,317 L97,315 L89,311 L87,311 L85,306 L83,306 L83,302 L91,306 L99,307 L105,315 L106,318 L110,320 L113,320 L114,323 L123,323 L123,322 L115,322 L115,317 L125,317 L127,314 L129,297 L137,282 L141,276 L145,275 L147,271 L151,269 L152,267 L162,266 L165,269 L168,269 L169,273 L194,274 L211,279 L216,279 L216,281 L219,282 L217,302 L216,303 L214,317 L206,323 L206,324 L228,324 L237,319 L241,313 L241,310 L243,310 L248,299 L247,293 L245,283 L247,282 L242,279 L240,279 L240,277 L231,275 L227,274 L227,268 L219,266 L216,263 L217,247 L215,244 L214,241 L210,240 L210,238 L208,236 L206,230 L203,225 L201,223 L199,218 L198,222 L194,220 L193,216 L191,216 L192,212 L190,210 L195,206 L194,204 L187,208 L181,208 L179,209 L179,211 L176,211 L176,213 L166,215 L159,216 L158,214 L155,214 L150,213 L151,210 L151,201 L150,199 L149,178 L146,168 L144,166 L141,168 L138,167 L138,169 L132,171 L132,173 L130,173 L131,177 L132,179 L143,179 L143,192 L131,193 L133,197 L145,200 L145,208 L143,208 L143,210 L132,210 L128,209 L127,201 L123,201 L123,193 L124,184 L122,187 L120,190 L118,194 L116,194 L116,187 L115,187 L114,196 L116,196 L117,198 L118,197 L120,204 L115,203 L114,209 L115,218 L109,219 L72,217 L72,214 L74,214 L74,211 L76,211 L79,205 L79,203 L81,203 L81,200 L88,198 L88,197 L83,197 L82,190 L84,190 L85,192 L86,190 L89,188 L87,188 L86,186 L79,184 L73,180 L64,179 L59,180 L59,182 L50,179 L50,172 L43,172 L39,176 L40,173 L40,166 L38,162 L34,160 Z M228,170 L226,172 L226,175 L224,175 L227,185 L229,185 L230,191 L231,193 L226,194 L225,198 L226,200 L220,199 L217,211 L215,211 L215,198 L217,197 L214,197 L213,188 L210,184 L211,193 L211,204 L209,220 L211,224 L214,225 L214,227 L216,227 L216,229 L219,230 L222,233 L228,233 L228,230 L244,231 L246,226 L244,226 L245,223 L241,221 L237,221 L240,210 L241,209 L240,198 L238,198 L238,191 L237,189 L234,189 L234,180 L233,176 L229,174 Z M96,174 L94,180 L96,181 L96,177 L100,178 L99,182 L101,182 L102,180 L106,181 L111,177 L110,175 L106,174 Z M48,195 L38,196 L24,196 L25,204 L23,214 L30,216 L33,213 L36,206 L47,203 L49,200 L46,199 L49,197 Z M151,67 Z M144,74 Z M187,150 Z M186,151 Z M227,175 Z " fill="#F5F6F5" transform="translate(0,0)"/>
<path d="M0,0 L0,3 L-4,7 L-2,9 L-3,12 L-1,12 L-1,24 L5,28 L7,25 L11,24 L14,30 L14,33 L16,34 L16,36 L20,37 L22,43 L23,47 L22,59 L25,62 L33,64 L33,70 L44,72 L46,73 L46,75 L49,76 L50,79 L44,80 L42,89 L50,90 L50,98 L52,98 L50,104 L49,106 L47,106 L46,110 L42,116 L34,120 L26,120 L26,119 L31,118 L29,115 L33,113 L36,112 L36,110 L41,107 L42,104 L41,100 L30,100 L26,116 L23,119 L23,116 L17,116 L20,113 L22,99 L24,92 L25,78 L22,77 L22,75 L13,74 L0,70 L-25,69 L-26,65 L-31,64 L-32,61 L-31,53 L-35,47 L-40,37 L-39,32 L-37,30 L-30,30 L-26,37 L-27,44 L-22,45 L-20,50 L-21,56 L-14,55 L-14,50 L-16,50 L-18,47 L-18,40 L-20,40 L-25,34 L-27,28 L-25,24 L-30,23 L-32,22 L-32,20 L-40,19 L-40,12 L-36,12 L-35,10 L-35,12 L-21,9 L-18,9 L-18,7 L-15,7 L-15,5 L-10,4 L-5,3 Z M-6,34 L-8,39 L-5,46 L-1,47 L0,42 L2,41 L-1,37 L-5,37 Z " fill="#DFE2E0" transform="translate(194,204)"/>
<path d="M0,0 L5,1 L5,5 L22,9 L30,12 L48,22 L69,43 L72,45 L81,45 L86,41 L95,38 L100,34 L105,35 L103,42 L92,50 L84,54 L77,68 L69,75 L65,79 L62,81 L60,82 L57,80 L57,77 L61,74 L62,71 L66,69 L67,67 L69,67 L69,64 L71,64 L71,62 L67,61 L66,53 L63,49 L49,49 L49,43 L48,40 L49,38 L28,41 L23,38 L22,26 L20,26 L15,21 L5,16 L-9,16 L-10,22 L-17,20 L-20,15 L-18,7 L-7,3 Z " fill="#F9F9F9" transform="translate(154,34)"/>
<path d="M0,0 L17,1 L19,5 L18,10 L15,12 L6,10 L5,16 L13,18 L13,16 L25,17 L25,13 L27,13 L27,16 L31,16 L29,24 L27,22 L27,35 L30,38 L38,50 L38,52 L31,52 L28,49 L15,54 L11,55 L6,53 L-9,51 L-14,48 L-15,52 L-17,52 L-17,32 L-15,25 L-13,24 L-12,18 L-11,18 L-10,26 L-7,27 L-5,22 L-10,16 L-5,17 L-2,5 Z " fill="#E8E9E8" transform="translate(124,213)"/>
<path d="M0,0 L22,0 L24,2 L21,5 L19,5 L18,8 L15,11 L7,25 L5,29 L3,46 L1,49 L-3,48 L-4,40 L-9,38 L-12,37 L-14,36 L-13,45 L-12,52 L-18,50 L-21,45 L-25,39 L-35,36 L-34,33 L-26,30 L-14,28 L-8,24 L-4,17 L-2,3 Z " fill="#F8F8F8" transform="translate(124,268)"/>
<path d="M0,0 L2,0 L4,5 L7,5 L8,14 L9,18 L13,19 L12,21 L12,34 L9,31 L9,28 L5,31 L3,31 L2,34 L-1,34 L-2,50 L-4,52 L-5,49 L-14,54 L-16,54 L-16,56 L-23,57 L-25,47 L-23,47 L-23,45 L-13,45 L-16,39 L-15,32 L-12,36 L-10,38 L-11,27 L-13,27 L-13,17 L-11,13 L-9,11 L-7,7 L-6,5 L-4,5 L-3,1 Z M-7,9 Z M-8,10 Z " fill="#DADDDB" transform="translate(194,141)"/>
<path d="M0,0 L10,0 L16,7 L17,25 L19,29 L19,38 L19,42 L18,45 L16,44 L16,57 L10,58 L6,56 L13,54 L12,46 L10,46 L9,43 L-8,41 L-11,53 L-13,58 L-22,55 L-36,53 L-37,50 L-21,49 L-21,47 L-17,46 L-18,36 L-15,33 L-11,35 L-10,32 L-5,31 L-4,37 L0,38 L11,38 L11,36 L13,36 L13,28 L1,25 L-1,21 L11,20 L11,7 L0,7 L-2,4 L-2,1 Z " fill="#F9F9F9" transform="translate(132,172)"/>
<path d="M0,0 L8,0 L13,3 L14,6 L14,13 L13,16 L17,12 L24,12 L24,19 L28,21 L44,21 L50,23 L47,25 L37,24 L36,32 L34,33 L32,32 L32,36 L35,37 L33,39 L27,35 L25,28 L14,24 L1,21 L-3,19 L-5,15 L-5,4 Z " fill="#F9F9F9" transform="translate(26,160)"/>
<path d="M0,0 L1,3 L3,2 L10,2 L13,5 L13,13 L15,13 L18,19 L17,22 L23,23 L25,25 L23,26 L14,22 L8,21 L6,23 L-3,22 L-5,16 L-5,14 L-3,14 Z " fill="#E2E4E3" transform="translate(220,199)"/>
<path d="M0,0 L1,4 L5,6 L6,10 L6,19 L9,19 L10,26 L10,28 L12,28 L13,39 L10,47 L7,45 L7,42 L5,42 L4,32 L-6,32 L-6,30 L-2,30 L-3,25 L0,23 L3,23 L1,18 L1,15 L-1,15 L-3,7 L-4,5 L-2,5 L-1,2 Z M-1,5 Z " fill="#C5CAC7" transform="translate(228,170)"/>
<path d="M0,0 L22,0 L38,2 L41,3 L41,1 L50,1 L46,3 L40,5 L35,9 L8,9 L6,8 L2,8 L3,4 L-1,3 L-2,5 L-1,1 Z " fill="#BEC4C0" transform="translate(168,20)"/>
<path d="M0,0 L9,3 L22,12 L26,14 L24,18 L13,15 L-2,13 L-8,9 L-11,6 L-7,5 L-2,1 Z " fill="#F9F9F9" transform="translate(212,22)"/>
<path d="M0,0 L6,1 L4,8 L9,9 L18,9 L22,7 L28,6 L30,11 L29,19 L20,16 L8,15 L2,18 L-1,11 L-4,2 Z " fill="#F9F9F9" transform="translate(156,82)"/>
<path d="M0,0 L11,1 L13,6 L8,11 L6,11 L6,13 L0,17 L2,20 L-4,21 L-18,21 L-15,17 L-7,17 L-6,19 L-4,15 L-1,1 Z " fill="#F8F9F8" transform="translate(224,303)"/>
<path d="M0,0 L8,1 L4,2 L5,4 L12,5 L12,3 L9,2 L16,1 L16,6 L12,9 L10,13 L5,14 L-1,15 L-1,13 L-3,13 L-3,11 L-5,11 L-6,19 L-10,19 L-10,17 L-8,16 L-7,2 L-2,1 Z " fill="#D0D4D1" transform="translate(151,132)"/>
<path d="M0,0 L2,1 L2,9 L1,16 L-1,16 L-1,19 L-3,19 L-3,22 L-5,22 L-5,25 L9,27 L9,30 L-8,30 L-18,29 L-19,27 L-11,26 L-9,20 L-3,10 L-3,1 Z " fill="#C4C9C6" transform="translate(75,195)"/>
<path d="M0,0 L6,1 L18,7 L16,12 L0,12 L-2,13 L-9,8 L-10,4 L-6,3 L-1,1 Z " fill="#F8F8F8" transform="translate(228,219)"/>
<path d="M0,0 L3,4 L4,13 L7,14 L5,14 L5,27 L6,31 L7,36 L12,38 L10,40 L11,44 L17,47 L18,49 L12,49 L9,46 L6,45 L6,43 L4,43 L4,41 L0,40 L-1,32 L1,20 L1,9 Z " fill="#A6AEA9" transform="translate(210,184)"/>
<path d="M0,0 L1,2 L3,2 L4,0 L10,1 L7,2 L7,9 L16,9 L15,11 L13,11 L13,18 L16,19 L9,22 L6,28 L5,35 L3,34 L3,20 L6,21 L8,15 L4,15 L4,12 L2,12 L2,16 L-1,15 L1,15 Z " fill="#9CA59F" transform="translate(147,214)"/>
<path d="M0,0 L9,3 L8,9 L11,15 L14,17 L14,19 L16,19 L17,26 L18,29 L20,29 L20,34 L13,35 L13,26 L7,24 L6,21 L7,16 L4,10 L0,7 Z " fill="#F8F9F8" transform="translate(160,225)"/>
<path d="M0,0 L1,0 L1,16 L3,16 L3,10 L9,14 L28,17 L29,19 L26,20 L18,20 L17,22 L16,32 L15,32 L15,24 L4,23 L4,21 L0,20 Z " fill="#A3ACA7" transform="translate(106,249)"/>
<path d="M0,0 L5,1 L14,7 L20,14 L23,25 L18,20 L14,15 L3,7 L-4,4 L-4,2 Z " fill="#FAFAFA" transform="translate(208,46)"/>
<path d="M0,0 L11,1 L11,4 L2,7 L-1,14 L-4,17 L-11,15 L-9,8 Z " fill="#F9F9F9" transform="translate(34,199)"/>
<path d="M0,0 L6,0 L11,4 L11,12 L13,13 L5,13 L5,18 L13,18 L13,19 L4,19 L2,16 L-1,5 Z " fill="#B1B9B4" transform="translate(110,304)"/>
<path d="M0,0 L4,2 L5,7 L4,12 L3,13 L2,19 L-3,27 L-4,27 L-4,21 L-6,22 L-7,18 L-2,9 Z " fill="#C6CBC8" transform="translate(70,188)"/>
<path d="M0,0 L4,2 L2,2 L5,14 L4,20 L1,21 L1,13 L-7,12 L-6,2 L0,1 Z " fill="#A1AAA4" transform="translate(243,281)"/>
<path d="M0,0 L2,3 L5,9 L5,11 L8,10 L11,21 L12,25 L10,28 L6,17 L5,14 L3,16 L4,24 L1,21 L-2,10 L-3,5 L-1,5 Z " fill="#AAB3AD" transform="translate(206,122)"/>
<path d="M0,0 L2,3 L6,2 L8,0 L9,3 L7,12 L6,14 L-5,16 L-5,12 L-1,8 Z " fill="#C1C7C4" transform="translate(58,207)"/>
<path d="M0,0 L2,0 L2,7 L-3,16 L-4,20 L-8,21 L-10,15 L-9,8 L-4,7 Z " fill="#F9F9F9" transform="translate(67,190)"/>
<path d="M0,0 L5,2 L6,8 L1,17 L-1,16 L1,12 L-7,14 L-5,10 L-7,9 L-7,7 L-11,6 L-2,6 L-2,1 Z " fill="#B7BEBA" transform="translate(156,54)"/>
<path d="M0,0 L4,4 L10,16 L11,20 L10,25 L6,20 L-1,9 L-1,2 Z " fill="#F9F9F9" transform="translate(153,240)"/>
<path d="M0,0 L1,2 L-2,4 L1,6 L-3,8 L-3,6 L-14,5 L-22,12 L-23,9 L-24,1 L-5,1 Z " fill="#9FA9A3" transform="translate(48,195)"/>
<path d="M0,0 L1,2 L3,3 L0,4 L-2,6 L-2,4 L-4,4 L-3,11 L2,11 L-1,13 L-5,14 L-5,17 L-7,17 L-9,23 L-10,23 L-10,10 L-11,8 L-7,4 Z " fill="#86928B" transform="translate(86,186)"/>
<path d="M0,0 L1,0 L0,17 L4,17 L4,19 L-1,21 L-2,23 L-6,22 L-8,23 L-7,19 L-3,20 L-5,13 L-7,14 L-7,12 L-9,12 L-8,3 L-7,3 L-7,10 L-5,10 L-3,6 L-1,3 Z " fill="#88948D" transform="translate(123,184)"/>
<path d="M0,0 L6,1 L4,9 L-6,9 L-4,4 L-12,4 L-12,1 Z " fill="#A6AEA9" transform="translate(173,106)"/>
<path d="M0,0 L2,1 L4,5 L5,11 L3,12 L6,14 L2,14 L1,16 L-2,13 L-4,13 L-6,10 L-5,2 L0,4 Z " fill="#B0B7B3" transform="translate(198,218)"/>
<path d="M0,0 L9,1 L15,5 L20,7 L20,9 L13,13 L10,16 L9,11 L8,8 L6,7 L9,7 L10,4 L-5,2 L-5,1 Z " fill="#E7EAE8" transform="translate(64,179)"/>
<path d="M0,0 L3,4 L6,6 L0,7 L-3,11 L-5,11 L-7,15 L-10,15 L-7,11 L-6,9 L-17,9 L-13,6 L-2,2 L0,2 Z " fill="#C1C7C3" transform="translate(152,260)"/>
<path d="M0,0 L10,1 L9,4 L7,4 L6,7 L4,7 L0,15 L-5,12 L-5,8 L-2,7 Z " fill="#ADB5B0" transform="translate(63,184)"/>
<path d="M0,0 L32,1 L32,2 L24,2 L24,6 L26,7 L16,7 L11,5 L10,3 L0,1 Z " fill="#FAFAFA" transform="translate(70,219)"/>
<path d="M0,0 L2,0 L6,7 L9,18 L8,22 L4,18 L0,7 L-1,1 Z " fill="#FAFAFA" transform="translate(209,136)"/>
<path d="M0,0 L2,4 L2,8 L-5,11 L-6,13 L-14,11 L-13,5 L-3,6 Z " fill="#9FA7A2" transform="translate(143,218)"/>
<path d="M0,0 L30,2 L44,2 L54,3 L58,6 L54,7 L52,5 L34,5 L27,4 L3,3 L0,2 Z " fill="#B9C0BC" transform="translate(56,223)"/>
<path d="M0,0 L4,0 L3,7 L-5,11 L-9,15 L-10,13 L-10,6 L-8,4 L-7,7 Z M-9,8 Z " fill="#DCDFDD" transform="translate(153,66)"/>
<path d="M0,0 L4,2 L19,10 L19,12 L8,10 L-3,4 L-4,2 Z " fill="#F9F9F9" transform="translate(78,305)"/>
<path d="M0,0 L3,4 L5,12 L5,31 L4,31 L3,13 L-2,7 L-12,6 L-8,4 L-6,3 L-5,1 L-3,2 Z " fill="#6E7C74" transform="translate(144,166)"/>
<path d="M0,0 L41,2 L41,4 L36,5 L25,5 L26,8 L24,8 L24,4 L3,3 L0,2 Z " fill="#BFC6C1" transform="translate(70,217)"/>
<path d="M0,0 L10,0 L14,1 L15,4 L10,7 L6,6 L5,8 L3,7 L4,4 L0,3 L-1,7 L-2,4 Z " fill="#A8B1AC" transform="translate(96,174)"/>
<path d="M0,0 L6,0 L2,2 L-2,4 L-3,6 L-1,6 L-2,8 L-9,4 L-9,8 L-6,9 L-5,12 L-10,10 L-14,7 L-20,6 L-18,4 L-4,2 Z " fill="#BDC4C0" transform="translate(92,298)"/>
<path d="M0,0 L8,0 L6,5 L1,8 L-6,8 L-4,2 Z " fill="#FAFAFA" transform="translate(161,110)"/>
<path d="M0,0 L2,0 L2,14 L0,18 L0,15 L-3,16 L-5,13 L-4,5 L-2,5 L-1,3 L0,3 Z " fill="#6F7C74" transform="translate(200,191)"/>
<path d="M0,0 L21,5 L26,8 L29,17 L25,17 L22,9 L19,7 L2,3 L0,2 Z " fill="#A5AFA9" transform="translate(26,180)"/>
<path d="M0,0 L1,3 L6,4 L8,8 L6,8 L5,13 L0,11 L-2,3 Z " fill="#F9F9F9" transform="translate(188,238)"/>
<path d="M0,0 L6,2 L13,8 L12,13 L7,11 L4,6 L4,4 L-1,3 Z " fill="#FAFAFA" transform="translate(193,114)"/>
<path d="M0,0 L3,0 L8,8 L9,13 L6,13 L2,11 L0,8 Z " fill="#F9F9F9" transform="translate(192,183)"/>
</svg>
