<?xml version="1.0" encoding="UTF-8"?>
<!-- Generator: visioncortex VTracer 0.6.12 -->
<svg version="1.1" xmlns="http://www.w3.org/2000/svg" width="600" height="1299">
<path d="M0,0 L600,0 L600,1299 L0,1299 Z M341,353 L334,354 L332,356 L325,356 L320,359 L315,364 L309,364 L301,371 L295,376 L291,382 L289,387 L276,389 L267,390 L258,397 L254,400 L254,414 L258,414 L259,419 L262,424 L269,430 L273,432 L284,440 L295,440 L295,435 L284,424 L282,418 L282,414 L306,414 L319,418 L335,430 L343,439 L344,448 L343,450 L343,463 L347,468 L363,468 L365,465 L384,464 L409,462 L409,464 L406,464 L399,472 L394,476 L394,484 L395,485 L411,485 L415,481 L425,481 L433,487 L437,488 L436,497 L434,500 L434,510 L447,509 L443,518 L443,520 L438,522 L425,533 L418,539 L413,544 L411,547 L412,552 L413,553 L424,553 L430,546 L430,543 L434,542 L452,531 L458,526 L467,512 L470,499 L470,495 L474,495 L474,492 L481,491 L498,482 L510,473 L516,464 L519,458 L520,453 L521,453 L521,431 L517,426 L515,421 L510,415 L506,414 L504,410 L498,403 L490,396 L483,390 L476,386 L472,384 L464,380 L451,375 L449,375 L447,369 L438,363 L427,356 L410,356 L408,359 L393,358 L370,353 Z M300,425 L300,445 L290,448 L281,454 L276,463 L276,479 L279,479 L279,485 L283,490 L288,492 L289,494 L297,495 L297,538 L300,539 L299,545 L283,551 L280,553 L280,556 L276,557 L269,564 L268,570 L265,570 L261,577 L261,580 L257,580 L256,582 L256,588 L251,589 L248,592 L248,601 L244,602 L237,609 L224,631 L222,649 L221,668 L220,674 L219,690 L218,695 L216,697 L214,701 L212,702 L212,705 L202,702 L201,704 L198,702 L177,702 L177,695 L184,695 L189,690 L189,686 L195,684 L205,682 L204,675 L179,675 L177,676 L177,679 L175,679 L175,687 L170,688 L170,693 L166,694 L163,701 L145,701 L138,696 L134,692 L126,687 L105,687 L91,690 L79,689 L80,682 L80,666 L79,665 L70,665 L65,671 L61,678 L56,680 L57,670 L61,665 L61,654 L59,651 L52,649 L51,645 L48,644 L27,644 L20,650 L18,654 L18,676 L21,682 L29,690 L42,693 L55,694 L55,695 L73,699 L82,702 L81,716 L79,719 L79,721 L73,723 L59,724 L48,724 L46,722 L41,720 L26,720 L26,728 L33,728 L29,739 L26,740 L26,744 L23,744 L22,749 L22,760 L26,764 L36,764 L36,761 L41,760 L51,744 L52,737 L54,738 L67,738 L73,737 L72,741 L72,757 L74,760 L87,760 L87,762 L85,765 L86,775 L94,780 L154,780 L154,783 L184,784 L187,786 L211,786 L209,797 L209,807 L206,808 L201,819 L197,834 L196,842 L196,871 L204,876 L212,879 L230,879 L229,883 L228,898 L223,911 L216,924 L202,929 L166,936 L157,942 L154,942 L154,949 L150,949 L149,941 L143,941 L139,945 L124,945 L119,942 L114,941 L113,942 L113,950 L116,950 L116,954 L125,955 L125,957 L137,960 L153,968 L161,972 L170,974 L170,976 L173,977 L184,977 L191,974 L191,972 L196,977 L198,979 L216,980 L216,984 L233,984 L236,977 L241,972 L244,960 L244,942 L242,935 L250,921 L258,907 L267,896 L268,885 L273,884 L282,881 L287,877 L288,870 L299,866 L311,864 L319,872 L326,878 L328,880 L385,880 L396,883 L406,890 L419,892 L433,898 L436,901 L436,915 L432,942 L429,949 L428,967 L426,979 L412,979 L401,982 L401,988 L440,988 L450,987 L457,984 L457,981 L465,981 L471,976 L475,968 L481,959 L484,954 L487,947 L487,941 L489,941 L499,919 L499,903 L495,897 L488,892 L473,891 L461,888 L451,885 L447,883 L447,879 L451,878 L451,872 L445,870 L445,868 L432,865 L431,856 L429,853 L429,855 L426,852 L426,841 L427,831 L428,828 L428,816 L414,812 L410,810 L409,805 L406,804 L405,794 L399,790 L398,785 L394,779 L390,779 L389,769 L384,764 L383,759 L387,757 L395,749 L398,741 L398,724 L396,713 L393,706 L389,705 L387,700 L381,693 L379,690 L378,676 L387,674 L395,670 L395,672 L400,671 L405,674 L409,690 L413,694 L415,694 L418,704 L421,712 L422,737 L423,738 L417,740 L415,759 L414,762 L414,775 L417,775 L418,779 L430,790 L438,792 L439,795 L442,796 L449,796 L454,792 L472,791 L472,794 L474,795 L489,795 L492,791 L491,781 L483,776 L466,775 L466,765 L473,765 L475,759 L477,749 L477,731 L473,727 L470,712 L467,706 L464,706 L464,689 L460,676 L459,673 L457,673 L456,667 L452,667 L451,658 L445,648 L431,619 L429,617 L426,617 L425,607 L422,597 L419,597 L420,589 L413,571 L407,567 L404,562 L395,553 L392,547 L390,547 L391,540 L388,539 L386,541 L367,543 L366,546 L354,547 L351,549 L350,542 L351,535 L335,535 L334,536 L319,536 L317,535 L313,521 L317,521 L319,518 L326,516 L343,516 L353,517 L358,524 L364,524 L365,521 L365,496 L358,490 L350,489 L350,500 L341,500 L336,501 L324,501 L320,500 L311,500 L314,488 L318,487 L318,480 L300,479 L291,476 L290,475 L290,464 L295,461 L305,457 L305,455 L309,454 L312,450 L312,425 Z M389,506 L387,507 L386,511 L386,519 L389,522 L402,522 L419,512 L419,506 Z " fill="#FCFCFC" transform="translate(0,0)"/>
<path d="M0,0 L3,4 L3,6 L6,4 L14,4 L8,12 L3,17 L0,28 L8,26 L18,19 L21,17 L37,17 L42,22 L52,35 L53,37 L56,39 L55,41 L57,42 L57,55 L59,55 L60,57 L64,59 L69,79 L71,77 L73,90 L74,95 L78,96 L78,100 L82,101 L80,101 L81,106 L85,106 L87,112 L92,114 L92,123 L97,136 L100,140 L102,144 L107,166 L110,173 L110,176 L88,176 L87,179 L85,175 L85,162 L77,146 L75,139 L71,129 L71,127 L67,127 L63,112 L56,98 L54,97 L51,92 L47,85 L44,70 L35,60 L26,60 L25,61 L24,79 L18,81 L8,90 L8,118 L13,121 L12,123 L7,128 L3,130 L1,135 L-2,135 L-1,142 L10,142 L10,149 L7,158 L-2,160 L-8,163 L-9,156 L-19,156 L-18,168 L-15,179 L-13,181 L-5,181 L6,171 L19,170 L20,162 L26,163 L30,170 L36,178 L39,178 L39,181 L37,181 L36,199 L34,203 L20,205 L15,205 L14,202 L4,201 L0,211 L-2,213 L-11,215 L-18,218 L-27,219 L-35,223 L-39,223 L-42,214 L-50,205 L-53,194 L-56,190 L-57,182 L-56,181 L-47,180 L-46,173 L-60,170 L-60,145 L-62,145 L-60,120 L-60,111 L-74,108 L-96,108 L-95,113 L-76,115 L-73,118 L-74,122 L-75,123 L-95,124 L-98,122 L-98,120 L-104,118 L-104,103 L-101,96 L-99,97 L-97,92 L-80,93 L-80,99 L-68,98 L-66,96 L-66,86 L-68,82 L-73,81 L-73,79 L-86,77 L-86,61 L-85,50 L-72,38 L-72,35 L-69,35 L-66,24 L-65,20 L-59,17 L-42,16 L-33,13 L-28,10 L-26,6 L-4,6 Z M-30,17 L-38,22 L-38,26 L-41,25 L-45,29 L-46,35 L-48,33 L-49,42 L-36,43 L-37,48 L-52,48 L-52,43 L-62,42 L-69,50 L-69,62 L-65,72 L-64,73 L-55,73 L-37,68 L-37,65 L-33,64 L-25,57 L-20,49 L-19,41 L-21,41 L-20,36 L-19,35 L-18,17 Z M-1,41 L-2,48 L-8,49 L-7,63 L-9,67 L-17,66 L-28,73 L-36,77 L-38,81 L-43,84 L-51,94 L-52,98 L-52,105 L-46,105 L-36,97 L-25,86 L-9,79 L-9,76 L-3,75 L10,68 L9,42 L8,41 Z " fill="#EEF1EF" transform="translate(348,543)"/>
<path d="M0,0 L1,4 L2,11 L-1,19 L13,20 L48,31 L75,45 L82,48 L83,51 L89,54 L94,60 L94,62 L100,63 L113,76 L121,83 L133,97 L139,104 L159,104 L161,100 L165,100 L165,96 L189,90 L198,79 L207,77 L211,76 L213,82 L212,89 L206,100 L192,111 L173,121 L168,121 L168,124 L164,124 L163,133 L160,142 L151,156 L140,164 L127,172 L124,172 L123,177 L118,182 L107,182 L105,179 L106,175 L110,169 L116,165 L123,158 L135,149 L137,149 L140,140 L141,138 L128,139 L128,129 L130,126 L131,117 L125,115 L119,110 L109,110 L105,114 L89,114 L88,113 L88,105 L96,98 L100,93 L103,93 L103,91 L59,94 L57,97 L41,97 L37,92 L37,79 L38,77 L37,68 L27,57 L13,47 L0,43 L-27,43 L-27,47 L-30,47 L-28,53 L-28,58 L-38,58 L-46,51 L-48,46 L-48,43 L-52,43 L-52,29 L-39,19 L-21,17 L-17,16 L-15,11 L-7,8 L-4,8 L-2,2 Z " fill="#1E3727" transform="translate(306,371)"/>
<path d="M0,0 L33,0 L51,2 L56,5 L59,11 L72,18 L99,18 L112,23 L116,25 L125,27 L126,30 L134,34 L148,47 L153,48 L156,57 L158,61 L158,80 L152,84 L145,93 L124,98 L121,98 L121,102 L117,102 L115,107 L95,107 L84,95 L75,84 L60,70 L56,66 L50,64 L44,56 L38,53 L37,50 L25,45 L4,34 L-31,23 L-45,21 L-44,16 L-43,13 L-35,9 L-32,8 L-30,4 L-20,3 L-12,1 Z M40,32 L40,37 L49,46 L54,48 L57,52 L68,53 L74,56 L86,70 L90,72 L93,72 L93,77 L97,78 L98,83 L106,93 L108,95 L113,95 L114,94 L114,79 L105,69 L101,63 L92,53 L82,46 L66,36 L56,35 L56,32 Z " fill="#EFF1F0" transform="translate(350,369)"/>
<path d="M0,0 L5,2 L10,5 L11,15 L14,16 L15,21 L19,23 L33,27 L32,35 L29,40 L28,56 L28,69 L33,77 L37,80 L52,81 L56,83 L56,89 L52,90 L52,94 L61,98 L76,101 L83,105 L83,111 L79,115 L76,120 L75,128 L75,131 L87,133 L92,134 L92,139 L95,139 L94,143 L91,142 L92,146 L92,158 L87,169 L80,178 L78,184 L74,189 L70,192 L62,192 L62,195 L57,197 L45,197 L46,193 L49,192 L50,187 L70,174 L74,169 L76,165 L78,165 L78,160 L64,155 L48,155 L43,167 L41,188 L40,188 L39,168 L35,165 L35,171 L34,171 L34,160 L37,153 L41,126 L41,112 L36,108 L24,103 L11,101 L1,94 L-10,91 L-67,91 L-74,85 L-75,77 L-79,75 L-79,72 L-75,73 L-73,66 L-69,68 L-62,75 L-48,74 L-48,73 L-36,71 L-25,67 L-7,62 L-5,62 L-4,56 L3,54 L8,52 L15,51 L15,42 L14,33 L9,27 L-1,26 L-2,25 L-4,3 Z " fill="#1D3426" transform="translate(395,789)"/>
<path d="M0,0 L3,0 L4,9 L18,9 L25,11 L43,11 L46,13 L51,14 L54,40 L54,47 L56,47 L59,53 L64,58 L68,66 L66,71 L58,74 L53,74 L53,76 L48,79 L41,88 L36,90 L19,92 L19,88 L12,88 L10,86 L-16,85 L-16,82 L-28,81 L-28,60 L-24,57 L-10,57 L-5,58 L10,59 L10,65 L33,63 L35,61 L36,44 L29,46 L26,49 L11,49 L10,48 L-7,47 L-20,45 L-18,34 L-17,33 L-7,32 L-8,23 L-13,23 L-13,17 L-11,13 L-8,6 L-5,1 Z " fill="#EFF1F0" transform="translate(235,781)"/>
<path d="M0,0 L3,0 L5,6 L16,8 L19,14 L18,24 L22,26 L30,31 L34,30 L36,50 L46,51 L52,58 L53,67 L53,76 L52,77 L41,79 L39,81 L33,81 L32,87 L17,92 L6,95 L-2,98 L-10,99 L-10,100 L-25,101 L-36,90 L-35,87 L-38,87 L-38,82 L-43,81 L-48,73 L-48,71 L-52,71 L-52,61 L-56,52 L-60,48 L-60,37 L-55,35 L-51,35 L-51,33 L-41,33 L-37,39 L-34,49 L-32,48 L-31,54 L-31,62 L-38,65 L-39,70 L-30,68 L-22,68 L-20,71 L-20,85 L-23,85 L-23,92 L-16,90 L-5,88 L0,88 L-1,85 L-1,78 L-13,78 L-15,63 L-13,63 L-14,54 L-22,54 L-24,48 L-27,46 L-28,40 L-29,35 L-26,29 L-23,26 L-25,25 L-23,13 L-22,11 L-15,10 L-16,20 L-11,20 L-10,32 L-9,34 L-9,46 L2,46 L5,49 L9,66 L13,73 L13,75 L21,76 L20,63 L26,61 L28,60 L30,52 L17,52 L12,49 L12,43 L15,42 L15,35 L9,35 L3,36 L0,33 L-2,15 L3,15 L3,9 L-2,7 Z " fill="#E6EAE8" transform="translate(358,764)"/>
<path d="M0,0 L2,1 L1,5 L3,7 L3,15 L-3,20 L-11,22 L-16,23 L-17,34 L-27,46 L-41,72 L-42,75 L-40,80 L-40,98 L-43,110 L-45,112 L-48,112 L-48,106 L-53,109 L-54,110 L-59,110 L-57,107 L-57,90 L-65,85 L-80,84 L-80,89 L-75,91 L-75,101 L-76,102 L-77,114 L-89,112 L-95,108 L-99,94 L-105,88 L-128,87 L-127,80 L-118,74 L-82,67 L-68,62 L-59,45 L-56,36 L-55,21 L-54,16 L-57,15 L-58,7 L-40,7 L-30,8 L-30,11 L-21,9 L-11,9 L-11,11 L-8,11 L-7,7 L-2,6 Z " fill="#213729" transform="translate(284,862)"/>
<path d="M0,0 L10,3 L10,0 L12,0 L12,51 L14,53 L14,67 L7,69 L4,70 L-36,69 L-48,68 L-82,67 L-82,64 L-77,59 L-69,49 L-66,44 L-63,39 L-62,14 L-60,16 L-59,24 L-49,22 L-46,19 L-44,15 L-37,15 L-36,24 L-33,30 L-26,36 L-16,37 L-16,34 L-8,32 L-2,30 L-1,20 L-2,16 L0,16 L-1,2 Z " fill="#EEF1F0" transform="translate(202,702)"/>
<path d="M0,0 L9,0 L19,11 L23,29 L28,35 L29,60 L27,60 L27,57 L20,57 L15,65 L11,69 L8,69 L6,73 L2,75 L2,91 L0,100 L2,101 L1,104 L-6,103 L-7,111 L-20,113 L-31,123 L-39,123 L-42,120 L-46,103 L-46,97 L-45,96 L-35,96 L-33,103 L-25,99 L-19,99 L-17,90 L-15,90 L-14,84 L-14,77 L-11,77 L-11,70 L-10,68 L-14,67 L-14,62 L-19,59 L-19,31 L-7,20 L-2,20 L-2,2 Z " fill="#213729" transform="translate(374,602)"/>
<path d="M0,0 L21,0 L25,2 L25,5 L32,7 L34,10 L34,21 L30,26 L29,36 L35,33 L40,24 L43,21 L52,21 L53,22 L53,38 L52,45 L64,46 L78,43 L99,43 L110,50 L110,55 L92,55 L91,54 L78,53 L81,61 L81,64 L67,64 L66,76 L64,77 L56,77 L55,58 L43,54 L28,51 L28,50 L10,48 L2,46 L-7,37 L-9,32 L-9,10 L-5,4 Z " fill="#213729" transform="translate(27,644)"/>
<path d="M0,0 L1,0 L3,7 L7,12 L34,13 L35,24 L35,36 L34,45 L24,43 L15,41 L5,40 L5,49 L14,52 L21,54 L37,56 L38,63 L38,71 L38,74 L32,75 L29,79 L10,79 L9,77 L0,74 L-1,60 L-11,60 L-13,68 L-16,68 L-15,50 L-13,32 L-11,29 L-9,29 L-8,11 L-5,3 L-1,2 Z " fill="#E9EDEB" transform="translate(242,672)"/>
<path d="M0,0 L2,0 L5,16 L5,24 L2,31 L-3,31 L-4,35 L-5,40 L-5,50 L-2,50 L-2,68 L-3,70 L-8,70 L-11,68 L-28,68 L-27,58 L-16,59 L-12,56 L-13,56 L-14,45 L-16,42 L-16,36 L-30,36 L-38,34 L-43,32 L-54,31 L-56,44 L-59,44 L-59,59 L-63,65 L-65,74 L-67,72 L-67,67 L-72,69 L-75,69 L-75,58 L-76,57 L-75,49 L-82,48 L-83,46 L-74,44 L-74,30 L-76,28 L-76,16 L-73,15 L-71,10 L-68,11 L-67,15 L-59,17 L-59,7 L-58,6 L-48,6 L-47,7 L-46,21 L-37,24 L-37,26 L-18,25 L-15,21 L-11,19 L-10,18 L-10,4 L-1,4 Z " fill="#213729" transform="translate(289,725)"/>
<path d="M0,0 L8,0 L8,8 L6,10 L5,33 L-1,36 L-3,38 L-6,55 L-8,62 L-11,65 L-17,80 L-20,93 L-21,107 L-24,112 L-26,128 L-31,130 L-33,136 L-36,136 L-35,117 L-33,117 L-33,102 L-32,86 L-31,80 L-29,48 L-27,41 L-14,20 L-7,13 L-4,13 L-4,4 Z " fill="#213729" transform="translate(252,588)"/>
<path d="M0,0 L10,1 L11,2 L11,8 L25,8 L27,15 L27,21 L31,22 L30,28 L25,28 L17,21 L12,20 L4,20 L2,28 L7,29 L9,30 L9,36 L4,36 L6,49 L8,55 L11,58 L0,63 L0,65 L2,67 L-3,67 L-4,55 L-5,53 L-5,41 L-9,41 L-9,34 L-6,34 L-8,26 L-17,26 L-28,31 L-33,34 L-39,36 L-48,36 L-53,34 L-58,27 L-56,14 L-50,14 L-49,16 L-46,17 L-46,22 L-39,22 L-31,18 L-18,16 L-12,13 L-5,11 L-1,1 Z " fill="#213729" transform="translate(352,743)"/>
<path d="M0,0 L7,0 L7,13 L3,17 L-4,17 L-4,24 L17,24 L18,25 L18,36 L10,39 L0,40 L1,49 L12,49 L20,46 L20,52 L17,55 L11,58 L5,58 L5,61 L-5,61 L-14,53 L-16,48 L-16,39 L-23,39 L-25,45 L-30,48 L-38,48 L-39,38 L-39,31 L-36,31 L-36,27 L-18,26 L-17,19 L-14,15 L-11,15 L-11,10 L-6,9 L-6,1 Z " fill="#253B2D" transform="translate(181,678)"/>
<path d="M0,0 L5,1 L4,3 L4,13 L2,20 L12,20 L15,21 L32,22 L33,23 L48,23 L52,19 L58,19 L58,36 L55,39 L47,40 L32,40 L32,34 L17,34 L12,33 L-2,33 L-5,35 L-8,56 L-11,56 L-13,61 L-16,62 L-16,28 L-11,10 L-6,1 L-4,1 L-4,4 L-1,4 Z " fill="#213729" transform="translate(213,806)"/>
<path d="M0,0 L17,0 L36,12 L39,17 L39,19 L49,22 L61,27 L65,33 L63,36 L65,39 L56,39 L45,34 L39,32 L12,32 L-1,25 L-4,21 L-5,18 L-9,16 L-11,8 L-2,6 Z " fill="#1C3325" transform="translate(410,356)"/>
<path d="M0,0 L18,0 L24,3 L24,5 L26,5 L27,13 L28,32 L35,33 L37,32 L36,36 L28,37 L18,37 L15,38 L14,45 L3,46 L-8,46 L-9,43 L-10,31 L-12,29 L-8,27 L-1,16 Z " fill="#E4E9E6" transform="translate(437,729)"/>
<path d="M0,0 L6,0 L6,20 L5,33 L2,38 L-7,49 L-10,53 L-13,54 L-14,59 L14,59 L18,61 L21,64 L23,66 L-40,66 L-45,63 L-45,55 L-38,55 L-32,57 L-24,57 L-19,43 L-17,38 L-13,35 L-11,35 L-10,27 L-7,27 L-4,5 L-3,1 Z " fill="#203528" transform="translate(132,713)"/>
<path d="M0,0 L10,0 L11,1 L11,10 L28,11 L36,16 L37,26 L34,30 L19,30 L17,29 L17,26 L-1,27 L-6,31 L-13,31 L-16,30 L-17,27 L-25,20 L-30,13 L-27,11 L-16,10 L-15,9 L-4,9 L-3,2 Z " fill="#213729" transform="translate(455,765)"/>
<path d="M0,0 L4,2 L10,5 L14,14 L15,19 L15,36 L19,37 L22,45 L24,57 L28,61 L28,79 L25,91 L21,93 L15,91 L14,64 L12,64 L12,57 L9,57 L10,50 L4,36 L0,17 L-3,11 L-3,5 L-3,1 Z " fill="#273B2F" transform="translate(449,670)"/>
<path d="M0,0 L3,0 L3,7 L17,5 L17,13 L10,14 L17,29 L17,33 L21,36 L21,41 L29,41 L30,43 L30,50 L28,50 L30,58 L30,65 L42,65 L43,75 L22,79 L20,79 L20,72 L23,72 L22,58 L21,55 L9,57 L4,57 L4,52 L9,49 L12,49 L10,38 L7,34 L4,24 L3,20 L-13,19 L-13,15 L-4,14 L-7,5 L-7,2 Z " fill="#304237" transform="translate(315,777)"/>
<path d="M0,0 L9,0 L9,2 L15,1 L35,1 L36,10 L34,12 L26,13 L13,13 L11,12 L9,21 L-1,36 L-5,36 L-5,39 L-15,39 L-19,35 L-19,24 L-18,19 L-10,16 L-2,3 Z " fill="#1C3223" transform="translate(41,725)"/>
<path d="M0,0 L4,2 L11,17 L13,26 L13,30 L17,30 L23,44 L24,49 L32,65 L31,76 L29,79 L24,79 L23,99 L20,97 L19,72 L13,56 L13,54 L9,52 L7,50 L2,31 L0,22 Z " fill="#2B3F33" transform="translate(402,640)"/>
<path d="M0,0 L16,0 L16,3 L26,4 L45,16 L55,24 L63,33 L65,42 L62,43 L61,47 L54,46 L53,45 L53,40 L48,39 L42,34 L34,24 L28,21 L17,20 L12,15 L7,12 L0,5 Z " fill="#293D30" transform="translate(390,401)"/>
<path d="M0,0 L9,0 L10,1 L11,27 L-4,35 L-8,35 L-8,38 L-24,45 L-38,59 L-45,64 L-51,64 L-51,57 L-49,52 L-41,42 L-37,40 L-35,36 L-24,30 L-16,25 L-8,26 L-6,22 L-1,24 L0,17 L6,18 L6,10 L3,10 L3,7 L6,7 L6,2 L0,3 Z " fill="#293E31" transform="translate(347,584)"/>
<path d="M0,0 L29,0 L52,5 L67,6 L67,10 L58,11 L60,18 L48,18 L33,16 L31,15 L-10,15 L-12,8 L-6,2 Z " fill="#2D4034" transform="translate(341,353)"/>
<path d="M0,0 L16,0 L30,5 L31,6 L31,12 L28,11 L26,17 L18,24 L2,34 L1,35 L-7,35 L-7,21 L-5,11 L-1,1 Z " fill="#E2E7E4" transform="translate(443,943)"/>
<path d="M0,0 L10,1 L11,12 L28,12 L31,11 L35,3 L41,0 L43,0 L41,9 L34,18 L28,23 L25,23 L25,26 L7,31 L-2,31 L-6,23 L-7,20 L-7,8 Z " fill="#293E32" transform="translate(286,585)"/>
<path d="M0,0 L8,1 L15,7 L15,32 L14,35 L8,35 L3,28 L-32,24 L-26,16 L-25,13 L-9,11 L0,11 Z " fill="#243A2D" transform="translate(350,489)"/>
<path d="M0,0 L3,1 L6,9 L8,12 L10,28 L10,34 L6,34 L3,42 L1,58 L0,58 L0,27 L-27,27 L-32,21 L-32,10 L-30,8 L-23,8 L-22,11 L-2,10 L0,8 Z " fill="#23382B" transform="translate(276,658)"/>
<path d="M0,0 L12,0 L11,20 L2,32 L-1,31 L-1,38 L-4,39 L-6,45 L-13,53 L-15,54 L-21,54 L-19,49 L-14,40 L-13,39 L-12,31 L-21,31 L-22,28 L-20,22 L-16,21 L-18,12 L-18,5 L-17,3 L-14,3 L-14,16 L-15,20 L-2,19 L-1,17 Z " fill="#26392D" transform="translate(111,705)"/>
<path d="M0,0 L13,0 L13,7 L9,8 L6,20 L15,20 L20,22 L19,27 L13,33 L6,37 L1,41 L-5,44 L-6,39 L-6,13 L-15,11 L-14,4 L-11,1 Z " fill="#1C3324" transform="translate(305,480)"/>
<path d="M0,0 L4,0 L5,3 L5,10 L9,12 L13,16 L16,24 L16,31 L15,34 L19,34 L24,43 L29,45 L29,50 L32,50 L31,55 L29,61 L25,60 L27,64 L30,67 L29,71 L22,65 L19,56 L15,48 L10,45 L5,35 L0,30 Z " fill="#283C30" transform="translate(291,801)"/>
<path d="M0,0 L11,0 L18,3 L38,5 L40,13 L41,14 L42,24 L44,25 L40,26 L23,24 L11,20 L10,16 L10,13 L5,16 L1,17 L-2,14 L-2,5 Z " fill="#DFE5E1" transform="translate(235,756)"/>
<path d="M0,0 L1,0 L1,14 L11,13 L12,10 L13,19 L15,20 L9,20 L8,28 L17,29 L17,37 L12,45 L8,52 L10,53 L3,52 L3,38 L0,38 L0,35 L-3,35 L-3,37 L-8,41 L-9,50 L-10,50 L-10,34 L-9,30 L-6,28 L-6,19 L-32,20 L-32,18 L-9,16 L-3,14 L-2,9 L-1,9 Z " fill="#596D60" transform="translate(82,707)"/>
<path d="M0,0 L13,0 L17,2 L17,4 L27,6 L33,13 L33,14 L26,14 L26,17 L24,17 L22,35 L20,43 L17,43 L17,52 L13,53 L12,54 L4,54 L4,46 L5,39 L9,38 L16,28 L17,13 L18,8 L6,8 L6,25 L4,27 L5,12 L-6,12 L-7,21 L-8,21 L-8,11 L3,11 Z " fill="#D4DBD7" transform="translate(105,697)"/>
<path d="M0,0 L2,0 L5,8 L5,11 L9,11 L13,25 L13,31 L16,31 L15,35 L20,45 L18,53 L21,52 L21,58 L13,57 L12,53 L9,52 L6,43 L5,38 L3,36 L-2,16 L-6,14 L-5,5 L-3,1 Z " fill="#203628" transform="translate(413,586)"/>
<path d="M0,0 L3,1 L2,7 L25,7 L32,14 L36,28 L37,32 L30,35 L19,35 L16,34 L16,32 L14,31 L28,32 L28,26 L19,24 L8,20 L5,17 L-4,12 L-4,7 L0,7 Z " fill="#DCE2DF" transform="translate(154,942)"/>
<path d="M0,0 L2,0 L3,9 L14,12 L20,15 L21,17 L39,23 L39,29 L29,29 L18,27 L10,23 L-6,15 L-18,12 L-16,6 L-4,4 Z " fill="#2A3B31" transform="translate(143,945)"/>
<path d="M0,0 L11,0 L17,4 L24,12 L29,17 L29,23 L32,28 L31,31 L28,31 L28,33 L24,34 L12,18 L9,16 L9,12 L0,10 L-7,9 L-7,4 L-7,1 Z " fill="#213528" transform="translate(377,547)"/>
<path d="M0,0 L3,4 L3,6 L8,7 L5,12 L5,29 L-3,41 L-7,42 L-10,37 L-12,44 L-13,44 L-13,24 L-12,23 L-7,23 L-7,6 L-6,3 L-1,3 Z " fill="#172E20" transform="translate(432,716)"/>
<path d="M0,0 L1,3 L35,3 L71,5 L70,8 L50,10 L48,13 L64,15 L64,17 L35,17 L35,14 L-25,14 L-25,13 L34,12 L30,8 L27,7 L-1,6 L-1,1 Z " fill="#3A4C41" transform="translate(119,766)"/>
<path d="M0,0 L13,0 L22,7 L24,11 L24,27 L14,49 L12,49 L11,39 L14,39 L15,36 L12,36 L11,30 L13,27 L13,16 L11,9 L5,9 L3,8 L2,2 Z " fill="#304336" transform="translate(475,892)"/>
<path d="M0,0 L1,0 L1,7 L-3,8 L-2,14 L2,16 L15,17 L14,25 L10,28 L5,28 L6,41 L-2,40 L-7,31 L-10,19 L-10,15 L-8,15 L-8,12 L-5,12 L-3,3 Z " fill="#34473C" transform="translate(373,799)"/>
<path d="M0,0 L11,0 L8,1 L7,10 L-3,12 L-5,16 L-10,19 L-29,19 L-29,16 L-25,16 L-25,11 L-22,9 L-21,4 L-12,4 L-12,1 Z " fill="#182E20" transform="translate(325,538)"/>
<path d="M0,0 L2,0 L3,14 L10,23 L12,25 L13,29 L17,30 L21,40 L21,47 L17,42 L14,42 L10,46 L6,44 L-2,33 L-1,29 L0,27 L-3,26 L-1,15 L-1,1 Z " fill="#304438" transform="translate(376,676)"/>
<path d="M0,0 L17,1 L24,3 L23,11 L26,12 L24,13 L8,13 L-7,12 L-7,10 L-24,9 L-21,4 L-15,3 L-1,3 Z " fill="#152B1E" transform="translate(190,771)"/>
<path d="M0,0 L1,0 L1,26 L5,22 L6,20 L9,20 L10,9 L11,9 L11,20 L23,21 L23,25 L30,25 L29,31 L32,32 L32,35 L34,37 L16,37 L4,32 L0,29 Z " fill="#384D40" transform="translate(196,842)"/>
<path d="M0,0 L30,0 L30,6 L13,16 L0,16 L-3,13 L-3,5 L-2,1 Z " fill="#23362B" transform="translate(389,506)"/>
<path d="M0,0 L1,0 L1,11 L0,27 L8,27 L14,28 L13,30 L3,32 L0,37 L-1,42 L8,42 L9,48 L18,48 L18,49 L6,49 L6,43 L-3,43 L-11,42 L-13,49 L-15,46 L-15,37 L-13,32 L-10,29 L-6,28 L-5,5 Z " fill="#C6CFCA" transform="translate(262,593)"/>
<path d="M0,0 L12,0 L11,9 L9,16 L-4,19 L-6,23 L-16,23 L-15,12 L-10,8 L-8,9 L-7,4 Z " fill="#2C3D33" transform="translate(318,560)"/>
<path d="M0,0 L4,3 L7,9 L14,20 L22,22 L24,32 L17,33 L6,33 L3,26 L1,24 L1,18 L-2,18 L-3,4 Z " fill="#D2DAD6" transform="translate(286,757)"/>
<path d="M0,0 L2,0 L3,18 L5,12 L7,15 L8,19 L11,20 L12,35 L22,35 L22,36 L11,37 L9,39 L18,49 L18,50 L13,50 L0,38 L0,35 L-3,35 L-3,22 L-2,19 Z " fill="#324538" transform="translate(417,740)"/>
<path d="M0,0 L2,1 L2,10 L0,10 L0,26 L-1,29 L2,29 L4,21 L9,21 L9,10 L11,4 L13,4 L12,19 L9,45 L12,45 L13,42 L13,47 L5,45 L3,41 L1,41 L-1,45 L-3,45 L-4,36 L-4,24 L-3,6 Z " fill="#47584E" transform="translate(217,695)"/>
<path d="M0,0 L19,0 L33,3 L34,4 L34,13 L32,35 L30,36 L28,20 L25,16 L23,9 L21,8 L21,13 L19,9 L-2,7 L-3,6 L-3,1 Z " fill="#415147" transform="translate(255,650)"/>
<path d="M0,0 L1,0 L1,9 L-1,13 L-1,15 L1,16 L-7,20 L-11,28 L-14,29 L-31,29 L-32,28 L-32,22 L-17,22 L-16,17 L-29,16 L-28,7 L-26,11 L-26,14 L-16,13 L-14,9 L-1,7 Z " fill="#CBD4CE" transform="translate(328,569)"/>
<path d="M0,0 L2,0 L2,7 L8,7 L5,18 L1,27 L-7,27 L-13,25 L-20,24 L-20,31 L-21,31 L-22,20 L-18,16 L-9,13 L-2,4 Z " fill="#C4CEC9" transform="translate(107,744)"/>
<path d="M0,0 L14,0 L30,1 L30,11 L35,9 L38,9 L39,15 L38,21 L43,21 L44,23 L44,30 L32,32 L32,26 L32,24 L29,24 L28,27 L25,27 L25,14 L27,3 L3,3 Z " fill="#45564D" transform="translate(184,783)"/>
<path d="M0,0 L5,5 L5,9 L24,8 L24,10 L15,11 L15,15 L33,15 L30,17 L20,16 L20,18 L11,20 L11,30 L9,30 L8,20 L4,20 L4,47 L2,47 L-1,22 L-1,12 Z " fill="#45574B" transform="translate(287,781)"/>
<path d="M0,0 L4,1 L5,2 L6,12 L11,13 L15,19 L14,23 L9,24 L6,29 L1,27 L-8,21 L-7,13 L-5,13 L-5,5 L-2,4 L-2,1 Z " fill="#2E4237" transform="translate(384,767)"/>
<path d="M0,0 L2,0 L2,19 L9,17 L11,16 L12,0 L13,0 L13,17 L9,26 L0,35 L-2,35 L0,41 L1,43 L-2,44 L-3,41 L-6,40 L-8,28 L-22,27 L-22,24 L-3,21 L-1,8 Z " fill="#415248" transform="translate(385,724)"/>
<path d="M0,0 L5,2 L14,8 L22,16 L29,22 L32,26 L30,31 L26,32 L18,25 L7,16 L1,13 L1,10 L-2,9 L0,8 L-2,5 L0,3 Z " fill="#2F4137" transform="translate(474,386)"/>
<path d="M0,0 L9,1 L12,8 L12,19 L9,23 L-3,22 L-7,20 L-8,13 L-5,6 L-2,1 Z " fill="#DAE0DD" transform="translate(477,900)"/>
<path d="M0,0 L10,0 L27,4 L30,4 L31,6 L32,16 L16,15 L4,11 L0,9 Z " fill="#23382B" transform="translate(247,712)"/>
<path d="M0,0 L6,2 L8,4 L8,21 L4,24 L-9,25 L-9,27 L-11,27 L-11,20 L-9,20 L-8,9 L-7,6 L-2,6 L-2,1 Z " fill="#EDF1EF" transform="translate(220,948)"/>
<path d="M0,0 L4,1 L-1,4 L-4,7 L-3,14 L1,13 L38,13 L40,15 L4,17 L-10,20 L-15,19 L-18,18 L-19,10 L-12,3 L-7,2 L-2,2 Z " fill="#485B4F" transform="translate(334,354)"/>
<path d="M0,0 L7,0 L10,3 L11,9 L8,9 L8,16 L7,16 L7,8 L8,6 L1,7 L-1,19 L-2,21 L1,22 L-3,26 L-6,32 L-8,30 L-10,24 L-12,22 L-3,22 L-3,14 L-9,16 L-17,16 L-17,9 L-14,6 L-4,2 Z " fill="#D7E0DA" transform="translate(335,768)"/>
<path d="M0,0 L4,1 L5,25 L7,26 L5,31 L4,33 L7,32 L8,30 L10,31 L9,34 L7,34 L6,38 L-3,38 L-4,36 L-5,20 L-3,5 Z " fill="#132C1D" transform="translate(282,691)"/>
<path d="M0,0 L1,2 L4,2 L4,6 L-2,7 L6,7 L9,3 L11,3 L11,1 L18,1 L18,4 L15,6 L14,9 L24,9 L24,10 L14,11 L-25,11 L-25,5 L-14,2 L0,2 Z " fill="#33443A" transform="translate(426,977)"/>
<path d="M0,0 L8,5 L27,5 L26,9 L8,9 L8,13 L5,13 L6,20 L4,22 L3,45 L0,48 L1,17 L-6,18 L-6,15 L0,14 L-5,8 L-15,5 L-15,3 L0,3 Z " fill="#58685E" transform="translate(137,696)"/>
<path d="M0,0 L3,3 L18,34 L18,40 L15,41 L6,38 L4,34 L4,31 L0,31 L-1,26 L4,25 L4,21 L2,21 L3,12 L-2,2 Z " fill="#2C4033" transform="translate(429,618)"/>
<path d="M0,0 L12,0 L12,25 L9,27 L9,20 L3,22 L-1,22 L-2,26 L-11,27 L-15,28 L-10,23 L0,20 Z " fill="#314237" transform="translate(300,425)"/>
<path d="M0,0 L11,1 L14,6 L14,16 L12,18 L2,18 L1,12 L-8,12 L-7,4 L-4,1 Z " fill="#2A3E32" transform="translate(269,623)"/>
<path d="M0,0 L2,0 L3,11 L8,13 L8,15 L10,16 L3,18 L2,28 L0,24 L-2,26 L-5,25 L-7,33 L-9,51 L-12,52 L-13,48 L-12,45 L-11,31 L-7,16 L-1,1 Z " fill="#C6CFCB" transform="translate(242,650)"/>
<path d="M0,0 L4,2 L3,7 L0,8 L0,13 L-4,13 L-4,16 L14,16 L11,18 L6,19 L-11,20 L-18,23 L-19,18 L-26,19 L-23,15 L-20,15 L-19,11 L-4,5 L-1,4 Z " fill="#45554A" transform="translate(300,541)"/>
<path d="M0,0 L9,3 L10,4 L25,4 L29,0 L35,0 L37,13 L39,15 L34,14 L32,13 L31,4 L25,9 L13,11 L12,14 L2,13 L2,9 L-1,9 L-1,1 Z " fill="#4E5C54" transform="translate(114,941)"/>
<path d="M0,0 L1,0 L1,6 L5,5 L10,2 L19,3 L21,5 L9,9 L5,13 L1,23 L-3,26 L-7,26 L-7,10 L-2,1 Z " fill="#23382C" transform="translate(283,453)"/>
<path d="M0,0 L3,0 L3,6 L5,7 L1,12 L0,16 L-17,16 L-17,12 L-21,12 L-21,5 L-8,3 L-3,3 Z " fill="#3F5044" transform="translate(233,968)"/>
<path d="M0,0 L2,4 L3,25 L4,29 L9,27 L10,37 L14,43 L17,45 L16,48 L6,49 L3,45 L0,44 Z " fill="#324439" transform="translate(297,494)"/>
<path d="M0,0 L7,6 L11,11 L11,26 L10,27 L5,27 L-3,18 L-6,13 L-5,10 L-2,11 L-1,6 L1,5 Z " fill="#2F4237" transform="translate(453,437)"/>
<path d="M0,0 L10,1 L19,3 L29,4 L30,6 L27,8 L19,7 L16,6 L15,16 L10,14 L9,12 L-4,11 L-5,6 L-3,2 Z " fill="#34433A" transform="translate(246,777)"/>
<path d="M0,0 L14,0 L20,1 L20,2 L7,4 L3,6 L2,8 L-2,8 L2,22 L4,23 L20,24 L20,25 L10,26 L-1,26 L-6,23 L-9,18 L-9,7 Z " fill="#BEC9C4" transform="translate(315,513)"/>
<path d="M0,0 L2,0 L5,10 L16,21 L16,26 L5,26 L-6,18 L-10,15 L-1,15 L-3,4 L0,4 Z " fill="#3C4C42" transform="translate(279,414)"/>
<path d="M0,0 L1,0 L2,10 L4,12 L17,15 L17,16 L4,17 L2,26 L11,28 L11,33 L9,30 L1,29 L-2,26 L-7,23 L-9,20 L-9,14 L-4,10 Z " fill="#3C4F42" transform="translate(288,465)"/>
<path d="M0,0 L5,1 L6,9 L2,20 L-6,21 L-10,22 L-9,8 L-4,2 Z " fill="#1B3024" transform="translate(277,558)"/>
<path d="M0,0 L15,0 L16,3 L14,3 L14,8 L9,8 L8,19 L7,22 L5,22 L5,29 L7,29 L8,27 L8,33 L-6,33 L-10,29 L-9,27 L2,29 L3,18 L4,17 L5,7 L0,5 Z " fill="#CBD5D0" transform="translate(204,946)"/>
<path d="M0,0 L2,2 L3,7 L3,15 L1,15 L3,21 L-6,25 L-17,25 L-18,24 L-18,15 L-1,11 Z " fill="#C6D2CB" transform="translate(199,703)"/>
<path d="M0,0 L2,2 L1,7 L0,9 L3,9 L3,14 L-3,12 L-21,11 L-22,13 L-21,8 L-19,6 L-22,4 L-22,1 Z " fill="#2F4237" transform="translate(458,718)"/>
<path d="M0,0 L5,2 L9,6 L15,22 L14,30 L12,27 L10,22 L10,19 L5,21 L2,31 L0,31 L0,18 L-3,17 L-2,13 L0,13 L0,11 L3,10 L1,5 Z " fill="#4B5C51" transform="translate(405,567)"/>
<path d="M0,0 L16,0 L15,7 L9,15 L-7,15 L-7,13 L-3,13 L-2,4 L0,3 Z " fill="#2C4034" transform="translate(335,535)"/>
<path d="M0,0 L16,0 L21,1 L21,2 L5,4 L6,6 L4,6 L4,11 L18,12 L21,14 L19,17 L19,15 L3,16 L-3,19 L-3,9 L-9,9 L-6,4 L-3,1 Z " fill="#475A4E" transform="translate(366,545)"/>
<path d="M0,0 L5,5 L6,7 L6,24 L2,27 L-4,27 L-4,4 Z " fill="#142B1D" transform="translate(391,716)"/>
<path d="M0,0 L3,0 L2,10 L6,8 L11,8 L11,12 L-1,23 L-6,24 L-5,18 L-9,19 L-9,12 L-8,10 L-4,10 L-3,5 Z " fill="#324538" transform="translate(265,570)"/>
<path d="M0,0 L6,1 L7,8 L10,8 L9,13 L1,18 L-1,18 L-3,11 L-3,8 L-7,15 L-17,18 L-12,10 L-2,1 Z " fill="#304538" transform="translate(309,364)"/>
<path d="M0,0 L2,4 L0,17 L0,28 L3,31 L4,29 L6,35 L6,41 L19,44 L19,46 L6,46 L0,41 L-4,34 L-4,21 L-3,5 Z " fill="#C5CECB" transform="translate(426,824)"/>
<path d="M0,0 L2,2 L2,4 L5,5 L4,14 L1,14 L2,24 L-1,27 L-1,20 L-12,20 L-13,13 L-10,13 L-9,8 L-3,4 L-1,4 Z " fill="#425248" transform="translate(359,665)"/>
<path d="M0,0 L4,4 L7,15 L16,25 L17,32 L14,32 L14,27 L10,26 L10,24 L4,24 L3,34 L-1,32 L-4,26 L-6,23 L-1,22 L1,16 L1,8 Z " fill="#43564A" transform="translate(292,733)"/>
<path d="M0,0 L4,1 L6,3 L10,2 L12,0 L15,0 L16,6 L18,8 L13,11 L12,18 L25,19 L27,21 L23,22 L9,21 L8,12 L0,13 Z " fill="#D6DBD8" transform="translate(230,769)"/>
<path d="M0,0 L4,4 L5,13 L9,13 L10,19 L12,19 L11,21 L6,19 L2,17 L-1,18 L0,24 L-3,26 L-8,12 L-7,3 L-1,4 Z " fill="#394A3E" transform="translate(447,654)"/>
<path d="M0,0 L5,5 L5,27 L2,27 L1,22 L-5,24 L-9,23 L-8,6 L-5,9 L-5,11 L1,11 Z " fill="#33473A" transform="translate(516,426)"/>
<path d="M0,0 L15,0 L22,3 L19,6 L15,6 L9,16 L5,22 L0,24 L0,20 L3,19 L7,8 L0,8 Z " fill="#3B4B41" transform="translate(26,720)"/>
<path d="M0,0 L7,3 L12,9 L13,24 L7,24 L-1,9 Z " fill="#1C3124" transform="translate(504,413)"/>
<path d="M0,0 L15,1 L18,2 L17,7 L7,11 L2,13 L-1,10 L0,6 L-2,9 L-3,11 L-8,13 L-9,16 L-12,16 L-12,14 L-14,13 L-9,11 Z " fill="#394941" transform="translate(285,857)"/>
<path d="M0,0 L4,2 L5,3 L6,23 L7,26 L2,31 L-8,31 L-4,28 L0,29 L0,25 L-3,25 L-2,13 Z " fill="#182A20" transform="translate(430,954)"/>
<path d="M0,0 L4,2 L9,12 L9,17 L-6,19 L-5,17 L-1,16 L0,12 L-15,11 L-15,8 L-2,4 Z " fill="#CAD0CC" transform="translate(303,847)"/>
<path d="M0,0 L11,0 L11,10 L10,16 L-3,16 L-2,9 Z " fill="#E6ECE9" transform="translate(99,709)"/>
<path d="M0,0 L7,1 L11,13 L10,15 L4,13 L1,14 L1,12 L-7,16 L-15,18 L-12,13 L-7,11 L-2,2 Z " fill="#CDD4CF" transform="translate(394,658)"/>
<path d="M0,0 L25,0 L26,7 L14,10 L10,11 L9,15 L9,3 L-2,4 L-2,1 Z " fill="#46554D" transform="translate(179,675)"/>
<path d="M0,0 L4,1 L4,12 L-5,18 L-11,18 L-10,11 L-7,4 L-3,1 Z " fill="#25382D" transform="translate(359,553)"/>
<path d="M0,0 L3,0 L3,3 L6,3 L6,17 L5,18 L-5,18 L-6,17 L-6,6 L-2,2 L0,2 Z " fill="#192F20" transform="translate(79,742)"/>
<path d="M0,0 L4,0 L4,9 L0,10 L0,12 L-13,11 L-19,15 L-21,14 L-21,8 L-16,6 L-7,6 L-6,2 Z " fill="#162D20" transform="translate(305,445)"/>
<path d="M0,0 L6,0 L5,4 L3,4 L2,11 L1,13 L-2,13 L-2,16 L-6,14 L-15,11 L-15,7 Z " fill="#182D21" transform="translate(367,798)"/>
<path d="M0,0 L2,0 L2,5 L-1,5 L-1,8 L2,8 L2,16 L-4,15 L-4,22 L-6,23 L-9,21 L-11,10 L-11,6 L-5,5 L-4,1 Z " fill="#182D20" transform="translate(351,586)"/>
<path d="M0,0 L8,0 L14,2 L21,8 L24,10 L23,18 L21,18 L18,13 L18,10 L7,9 L5,2 L2,3 L0,9 L-2,9 L-2,3 Z " fill="#D5DDD7" transform="translate(356,762)"/>
<path d="M0,0 L8,0 L16,3 L15,10 L14,11 L4,12 L3,8 L2,11 L-1,11 L1,6 L2,4 L0,4 Z " fill="#44544B" transform="translate(287,713)"/>
<path d="M0,0 L3,1 L2,8 L4,8 L3,11 L-1,8 L-6,7 L-22,6 L-21,4 L-2,2 Z " fill="#EEF2EF" transform="translate(388,539)"/>
<path d="M0,0 L26,0 L28,2 L35,3 L35,4 L7,3 L8,7 L6,7 L6,2 L0,1 Z " fill="#55675C" transform="translate(219,866)"/>
<path d="M0,0 L2,0 L3,5 L3,20 L1,28 L0,28 Z " fill="#58665E" transform="translate(286,688)"/>
<path d="M0,0 L2,0 L1,4 L-1,6 L-21,6 L-21,4 L-16,3 L-2,2 Z " fill="#46564C" transform="translate(275,663)"/>
</svg>
