<?xml version="1.0" encoding="UTF-8"?>
<!-- Generator: visioncortex VTracer 0.6.12 -->
<svg version="1.1" xmlns="http://www.w3.org/2000/svg" width="600" height="575">
<path d="M0,0 L600,0 L600,575 L0,575 Z M75,43 L73,46 L66,84 L61,107 L59,117 L57,131 L53,136 L49,149 L46,166 L46,169 L42,169 L38,182 L38,190 L39,194 L51,195 L54,196 L56,199 L57,198 L58,200 L56,201 L57,204 L553,204 L553,202 L558,203 L560,198 L560,195 L574,194 L575,193 L575,185 L569,159 L564,141 L560,125 L558,124 L550,76 L543,46 L540,43 L501,43 L501,45 L496,44 L482,51 L477,54 L476,58 L476,75 L141,75 L140,56 L128,50 L123,47 L118,45 L116,43 Z M258,216 L259,231 L256,234 L256,279 L257,281 L348,281 L349,279 L349,229 L345,217 L344,216 Z M167,216 L165,218 L165,396 L145,392 L142,392 L142,366 L141,345 L139,344 L121,343 L108,343 L109,338 L140,336 L141,335 L141,309 L140,308 L110,306 L109,300 L140,300 L141,299 L141,244 L138,241 L107,240 L108,232 L122,232 L128,230 L126,224 L120,221 L117,218 L59,218 L57,219 L56,305 L56,389 L37,389 L27,395 L16,406 L11,415 L10,416 L10,441 L13,451 L17,457 L31,457 L31,463 L37,473 L42,476 L48,479 L69,479 L90,476 L91,475 L105,476 L141,480 L185,480 L192,483 L212,486 L221,490 L230,490 L238,489 L245,482 L256,464 L257,461 L261,459 L347,458 L349,464 L356,478 L363,485 L383,485 L390,481 L414,478 L432,477 L432,479 L454,479 L485,477 L501,475 L509,475 L511,477 L529,479 L530,480 L559,480 L561,479 L561,476 L565,475 L569,469 L570,459 L586,459 L591,447 L593,442 L593,418 L591,418 L591,413 L582,403 L572,395 L571,393 L572,388 L559,387 L559,354 L558,250 L557,217 L556,216 L490,216 L490,219 L486,218 L477,226 L477,231 L481,232 L500,234 L501,239 L469,239 L467,241 L467,299 L468,300 L502,300 L502,308 L474,309 L469,311 L469,333 L470,335 L502,336 L502,343 L497,344 L469,344 L467,346 L467,393 L453,393 L445,396 L442,397 L442,231 L441,218 L385,218 L381,230 L378,233 L378,333 L379,334 L423,334 L421,344 L405,344 L386,345 L379,347 L378,348 L377,397 L362,399 L353,402 L352,364 L351,347 L350,346 L255,346 L254,347 L254,406 L242,405 L241,400 L233,400 L232,290 L231,233 L226,230 L225,216 Z M305,292 L303,301 L300,302 L300,295 L298,294 L281,294 L280,295 L280,333 L281,334 L326,334 L326,294 L325,293 Z M257,295 L256,296 L256,332 L257,333 L273,333 L274,332 L274,296 L273,295 Z M333,295 L333,332 L334,333 L351,333 L351,295 Z " fill="#F9F9F9" transform="translate(0,0)"/>
<path d="M0,0 L2,0 L0,17 L0,56 L5,62 L17,71 L23,73 L21,75 L26,79 L42,79 L78,78 L78,73 L80,73 L81,71 L84,79 L90,104 L94,118 L97,132 L97,140 L96,141 L82,142 L81,147 L80,150 L77,149 L78,144 L78,139 L-420,140 L-421,145 L-423,146 L-424,143 L-427,142 L-439,141 L-440,137 L-440,129 L-436,116 L-432,116 L-430,102 L-428,93 L-424,81 L-420,78 L-418,79 L-401,79 L-389,77 L-364,77 L-363,75 L-355,71 L-342,59 L-340,58 L-340,3 L-338,3 L-337,23 L-3,22 L-2,5 Z " fill="#898989" transform="translate(478,53)"/>
<path d="M0,0 L5,1 L9,19 L18,31 L31,38 L37,42 L69,42 L79,32 L83,24 L89,25 L91,42 L96,48 L96,50 L115,49 L127,38 L135,33 L146,33 L159,39 L167,42 L214,42 L219,40 L228,40 L229,36 L235,35 L236,29 L239,22 L241,22 L242,18 L243,17 L323,15 L327,6 L330,7 L334,17 L341,28 L342,32 L347,34 L354,38 L357,39 L406,39 L421,32 L433,32 L439,41 L447,46 L452,47 L469,47 L476,43 L482,42 L485,30 L486,27 L493,27 L497,37 L498,42 L527,43 L536,45 L537,41 L547,38 L551,36 L553,32 L563,23 L568,18 L573,6 L578,7 L578,31 L572,47 L571,48 L555,48 L554,58 L549,65 L546,65 L546,68 L544,69 L515,69 L514,68 L496,66 L494,64 L478,65 L460,67 L439,68 L417,68 L417,66 L391,68 L375,70 L368,74 L348,74 L340,66 L329,42 L324,37 L322,33 L322,30 L252,30 L251,38 L247,42 L240,55 L229,72 L223,78 L215,79 L206,79 L197,75 L177,72 L170,69 L126,69 L82,64 L76,64 L69,66 L54,68 L33,68 L23,63 L17,54 L16,52 L16,46 L2,46 L-3,38 L-5,30 L-5,5 L-2,2 L0,2 Z " fill="#1C3826" transform="translate(15,411)"/>
<path d="M0,0 L1,0 L1,53 L15,52 L19,51 L22,47 L23,49 L33,49 L34,48 L52,45 L58,43 L67,43 L75,46 L84,54 L92,61 L95,65 L95,69 L92,69 L89,79 L84,86 L73,95 L68,100 L66,102 L56,105 L55,108 L46,107 L19,106 L16,103 L12,91 L5,90 L3,99 L1,105 L-8,109 L-12,111 L-29,111 L-38,108 L-43,104 L-48,96 L-60,96 L-75,103 L-124,103 L-133,99 L-139,95 L-145,84 L-149,78 L-153,68 L-152,63 L-148,57 L-141,57 L-140,53 L-139,52 L-117,51 L-116,50 L-97,47 L-83,45 L-80,45 L-57,48 L-56,52 L-53,54 L-48,54 L-46,48 L-45,47 L-20,48 L-13,50 L0,52 Z " fill="#39774C" transform="translate(496,348)"/>
<path d="M0,0 L17,0 L18,2 L38,6 L45,7 L46,8 L53,8 L54,13 L76,13 L76,11 L83,9 L99,8 L113,8 L118,10 L143,8 L159,7 L168,10 L203,16 L221,24 L224,37 L256,38 L256,39 L221,40 L219,44 L217,44 L214,53 L213,57 L207,59 L206,62 L197,63 L192,65 L145,65 L130,59 L124,56 L113,56 L103,63 L93,72 L74,72 L68,64 L67,57 L67,47 L61,47 L57,55 L47,65 L15,65 L2,57 L-6,52 L-14,41 L-17,26 L-17,23 L-22,22 L-22,24 L-24,23 L-19,15 L-9,5 Z " fill="#39774C" transform="translate(37,389)"/>
<path d="M0,0 L27,0 L52,1 L64,2 L65,27 L66,133 L67,173 L58,176 L40,179 L39,180 L29,180 L28,179 L27,127 L9,127 L10,125 L12,125 L12,118 L-20,117 L-21,115 L-21,93 L-16,91 L12,90 L12,82 L27,81 L27,22 L15,21 L15,11 L-7,11 L-4,6 L-1,3 Z " fill="#A77D67" transform="translate(490,218)"/>
<path d="M0,0 L58,0 L64,5 L68,7 L69,12 L63,14 L49,14 L48,22 L34,22 L34,81 L49,81 L49,92 L79,93 L79,115 L47,117 L46,126 L48,126 L47,128 L44,127 L34,127 L33,183 L35,184 L32,184 L30,180 L24,180 L23,179 L-1,175 L-5,173 L-5,171 L-3,171 L-3,87 L-2,1 Z " fill="#A77D66" transform="translate(59,218)"/>
<path d="M0,0 L53,0 L54,104 L54,178 L44,178 L31,176 L30,175 L30,151 L31,129 L35,129 L38,116 L-6,116 L-6,14 L-3,9 Z " fill="#343434" transform="translate(385,218)"/>
<path d="M0,0 L7,0 L8,13 L13,15 L13,116 L-32,116 L-32,127 L-22,129 L-21,152 L-21,178 L-22,179 L-34,180 L-46,180 L-46,33 L-45,1 Z " fill="#353635" transform="translate(214,218)"/>
<path d="M0,0 L18,0 L62,1 L81,2 L82,5 L82,12 L86,13 L87,15 L87,61 L86,62 L-5,62 L-6,61 L-6,16 L-2,11 L0,11 Z " fill="#353435" transform="translate(262,218)"/>
<path d="M0,0 L95,0 L96,1 L97,18 L98,56 L101,56 L100,59 L93,60 L89,67 L89,71 L87,72 L84,82 L83,80 L75,80 L74,24 L23,24 L22,81 L6,81 L4,75 L3,67 L-6,64 L-15,60 L-15,59 L-1,60 L-1,1 Z " fill="#A9836F" transform="translate(255,346)"/>
<path d="M0,0 L39,0 L42,3 L50,39 L56,75 L56,83 L55,88 L50,89 L19,90 L3,90 L-3,86 L-2,82 L0,82 L1,69 L2,3 L-1,2 Z " fill="#A47D67" transform="translate(501,43)"/>
<path d="M0,0 L498,0 L499,9 L495,10 L1,8 L-1,1 Z " fill="#3B3B3B" transform="translate(58,192)"/>
<path d="M0,0 L41,0 L44,4 L38,3 L38,85 L42,87 L39,88 L14,88 L2,90 L-15,90 L-17,89 L-16,74 L-14,64 L-5,21 L-2,3 Z " fill="#A67D67" transform="translate(75,43)"/>
<path d="M0,0 L51,0 L51,57 L37,58 L-1,58 L-1,1 Z " fill="#F7F3F3" transform="translate(278,369)"/>
<path d="M0,0 L44,0 L45,57 L48,59 L31,57 L15,54 L8,51 L7,25 L7,2 L0,1 Z " fill="#8A8B8B" transform="translate(185,345)"/>
<path d="M0,0 L11,0 L15,1 L15,3 L11,3 L11,25 L10,48 L8,50 L-14,53 L-25,55 L-26,56 L-43,56 L-43,55 L-28,53 L-27,4 L-25,2 L-19,1 Z " fill="#858987" transform="translate(405,344)"/>
<path d="M0,0 L7,2 L7,68 L6,79 L5,81 L-1,81 L-15,70 L-19,65 L-19,26 L-17,11 L-13,6 Z " fill="#3B3738" transform="translate(496,44)"/>
<path d="M0,0 L33,0 L29,2 L30,60 L0,60 L-1,59 L-1,1 Z " fill="#908D8D" transform="translate(468,240)"/>
<path d="M0,0 L9,0 L23,8 L24,9 L25,18 L25,64 L15,73 L6,80 L0,80 Z " fill="#3B3737" transform="translate(114,47)"/>
<path d="M0,0 L27,0 L30,3 L30,58 L29,59 L-3,59 L-2,57 L1,56 L2,1 Z " fill="#8C8C8C" transform="translate(111,241)"/>
<path d="M0,0 L28,0 L29,2 L28,4 L27,56 L14,55 L7,53 L-10,52 L-17,51 L-16,49 L-2,49 L-2,2 Z " fill="#8A8D8A" transform="translate(469,344)"/>
<path d="M0,0 L27,1 L29,48 L34,50 L34,51 L9,53 L2,54 L0,53 Z " fill="#848684" transform="translate(111,346)"/>
<path d="M0,0 L15,0 L16,1 L16,60 L15,61 L-4,61 L-5,60 L-5,3 Z " fill="#3E3735" transform="translate(502,239)"/>
<path d="M0,0 L13,0 L20,3 L20,58 L14,61 L0,61 L-1,60 L-1,1 Z " fill="#3E3735" transform="translate(93,239)"/>
<path d="M0,0 L70,0 L74,9 L78,12 L79,16 L-8,17 L-6,12 L-3,8 L-1,8 L-1,2 Z " fill="#878887" transform="translate(267,441)"/>
<path d="M0,0 L16,0 L17,1 L17,51 L14,56 L10,57 L-4,57 L-4,2 Z " fill="#393633" transform="translate(501,344)"/>
<path d="M0,0 L1,2 L119,2 L495,3 L494,5 L-1,5 L-2,2 L0,2 Z " fill="#868686" transform="translate(58,198)"/>
<path d="M0,0 L8,0 L8,52 L-8,52 L-8,2 L-7,1 Z " fill="#373332" transform="translate(103,346)"/>
<path d="M0,0 L66,0 L67,1 L68,34 L69,138 L69,171 L82,172 L81,177 L79,178 L67,175 L66,173 L65,135 L64,29 L64,4 L27,3 L0,2 Z " fill="#E5DAD0" transform="translate(490,216)"/>
<path d="M0,0 L20,1 L21,2 L21,42 L-24,42 L-25,41 L-25,3 L-24,2 L-7,2 L-8,4 L-21,4 L-21,39 L-6,39 L-6,15 L-5,10 L-2,9 Z M5,3 L3,5 L3,41 L18,41 L19,40 L19,4 L18,3 Z " fill="#C2C2C2" transform="translate(305,292)"/>
<path d="M0,0 L18,0 L18,38 L1,38 L0,37 Z " fill="#414141" transform="translate(333,295)"/>
<path d="M0,0 L16,0 L17,1 L17,37 L16,38 L0,38 L-1,37 L-1,1 Z " fill="#3B3A3A" transform="translate(257,295)"/>
<path d="M0,0 L1,0 L2,6 L32,8 L33,9 L33,35 L32,36 L1,38 L0,43 L13,43 L31,44 L33,45 L34,66 L34,92 L48,94 L57,97 L59,99 L47,100 L32,95 L31,94 L30,66 L30,47 L7,47 L-1,46 L-1,44 L-3,44 L-3,35 L-2,34 L13,33 L30,33 L30,11 L10,11 L0,10 L-1,3 Z " fill="#D0CFCD" transform="translate(108,300)"/>
<path d="M0,0 L3,1 L4,58 L5,168 L13,168 L14,173 L5,172 L1,170 L0,112 L-1,111 L-1,1 Z " fill="#D0CFCD" transform="translate(228,232)"/>
<path d="M0,0 L3,0 L4,92 L4,179 L13,177 L10,184 L5,185 L1,182 L0,104 Z " fill="#888E8B" transform="translate(438,218)"/>
<path d="M0,0 L13,0 L14,1 L14,37 L13,38 L-2,38 L-2,2 Z " fill="#3B3B3B" transform="translate(310,295)"/>
<path d="M0,0 L56,0 L58,2 L58,13 L61,14 L61,16 L55,14 L55,1 L48,2 L3,2 L3,34 L2,181 L-1,180 Z " fill="#C6C5C3" transform="translate(166,217)"/>
<path d="M0,0 L3,0 L2,36 L-13,36 L-13,1 Z " fill="#3A3A3A" transform="translate(297,295)"/>
<path d="M0,0 L1,2 L-495,2 L-495,1 Z " fill="#DDDDDD" transform="translate(552,202)"/>
<path d="M0,0 L43,0 L44,8 L1,8 Z " fill="#F8F8F8" transform="translate(184,336)"/>
<path d="M0,0 L334,0 L334,1 L0,1 Z " fill="#B8B8B8" transform="translate(141,75)"/>
<path d="M0,0 L10,0 L13,2 L3,4 L2,54 L18,54 L19,4 L20,4 L20,58 L18,59 L6,59 L-1,57 L-1,1 Z " fill="#4E4C40" transform="translate(93,344)"/>
<path d="M0,0 L1,0 L1,179 L-1,178 Z " fill="#EAE9E8" transform="translate(165,218)"/>
<path d="M0,0 L86,0 L86,1 L51,2 L4,2 L4,13 L2,13 L0,5 Z " fill="#DFDEDE" transform="translate(258,216)"/>
<path d="M0,0 L46,0 L46,2 L2,2 L3,10 L47,10 L47,11 L0,11 Z " fill="#949595" transform="translate(182,334)"/>
<path d="M0,0 L36,0 L40,12 L40,14 L35,13 L34,3 L15,3 L-29,2 L-29,1 Z " fill="#C3C2C2" transform="translate(309,217)"/>
<path d="M0,0 L23,0 L24,9 L20,11 L-13,11 L-13,10 L19,10 L18,5 L-1,3 Z " fill="#A19D9C" transform="translate(482,229)"/>
<path d="M0,0 L142,0 L142,1 L0,1 Z " fill="#595959" transform="translate(177,200)"/>
<path d="M0,0 L1,0 L1,100 L0,100 Z " fill="#4A4B4A" transform="translate(227,234)"/>
<path d="M0,0 L1,0 L1,100 L0,100 Z " fill="#BDBDBD" transform="translate(378,233)"/>
<path d="M0,0 L86,0 L86,1 L1,2 L-2,4 Z " fill="#D0D0D0" transform="translate(260,457)"/>
<path d="M0,0 L91,0 L91,1 L0,1 Z " fill="#BAB9BA" transform="translate(257,280)"/>
<path d="M0,0 L2,1 L1,81 L5,82 L0,82 Z " fill="#504D4C" transform="translate(113,46)"/>
<path d="M0,0 L1,0 L1,79 L0,79 Z " fill="#C7CBC9" transform="translate(441,231)"/>
<path d="M0,0 L4,1 L2,5 L-3,11 L-3,13 L-9,13 L-9,8 Z " fill="#928F8F" transform="translate(486,218)"/>
<path d="M0,0 L58,0 L58,14 L57,14 L56,4 L55,1 L0,1 Z " fill="#E3E3E1" transform="translate(167,216)"/>
<path d="M0,0 L1,0 L1,57 L-14,57 L-14,56 L0,56 Z " fill="#C9B8B1" transform="translate(329,370)"/>
</svg>
