<?xml version="1.0" encoding="UTF-8"?>
<!-- Generator: visioncortex VTracer 0.6.12 -->
<svg version="1.1" xmlns="http://www.w3.org/2000/svg" width="600" height="823">
<path d="M0,0 L600,0 L600,823 L0,823 Z M135,218 L131,221 L131,234 L134,238 L134,249 L133,252 L133,262 L130,263 L122,278 L117,287 L116,291 L113,291 L109,296 L103,301 L103,304 L98,305 L88,311 L77,317 L76,321 L69,322 L60,328 L49,337 L40,348 L34,357 L30,368 L30,373 L27,373 L24,385 L22,396 L22,404 L27,409 L42,419 L52,427 L59,433 L66,441 L77,456 L89,466 L101,474 L110,475 L111,461 L116,446 L121,436 L121,434 L125,432 L132,425 L147,418 L163,413 L167,410 L179,408 L193,402 L194,399 L199,398 L205,393 L214,381 L219,369 L220,354 L223,354 L225,359 L228,363 L229,376 L233,379 L235,379 L236,384 L240,389 L243,394 L255,410 L263,421 L267,426 L269,431 L272,431 L273,435 L281,445 L285,451 L280,459 L280,461 L276,463 L266,478 L263,481 L263,484 L259,486 L251,498 L239,512 L238,518 L235,519 L221,538 L215,547 L214,552 L211,552 L206,560 L199,569 L197,576 L193,577 L190,581 L190,583 L187,584 L186,589 L183,590 L180,604 L168,620 L155,638 L150,648 L149,649 L149,656 L151,658 L162,659 L165,654 L166,651 L169,650 L173,644 L178,639 L182,631 L190,621 L194,615 L203,612 L203,609 L207,608 L207,606 L212,601 L219,591 L223,586 L231,574 L244,556 L257,538 L257,536 L260,535 L272,518 L286,499 L298,482 L304,478 L309,483 L310,487 L313,488 L317,495 L331,514 L343,531 L344,533 L347,533 L349,539 L356,550 L360,550 L361,555 L375,574 L379,581 L382,584 L383,587 L386,588 L389,595 L392,595 L393,600 L401,610 L411,612 L422,630 L430,640 L438,653 L444,661 L452,661 L457,656 L457,647 L444,628 L440,625 L438,625 L437,620 L427,606 L425,604 L424,592 L410,573 L408,567 L402,562 L394,550 L380,532 L368,515 L364,511 L362,510 L361,506 L350,491 L342,479 L328,461 L324,459 L323,450 L325,442 L329,441 L339,427 L342,422 L355,405 L361,396 L362,393 L365,392 L366,388 L368,388 L374,378 L374,375 L376,375 L377,365 L383,355 L383,353 L385,354 L387,367 L394,383 L405,396 L413,401 L420,404 L422,404 L422,406 L448,414 L463,418 L470,421 L471,424 L478,428 L485,437 L493,454 L495,471 L497,475 L504,474 L513,470 L520,463 L528,456 L539,442 L544,437 L557,424 L560,422 L560,420 L564,419 L579,411 L580,407 L583,406 L583,404 L585,404 L585,394 L579,370 L575,365 L571,355 L567,349 L564,349 L564,346 L562,346 L561,342 L559,342 L557,338 L548,330 L533,321 L530,318 L516,311 L498,298 L488,284 L477,265 L474,255 L471,252 L471,233 L475,233 L475,221 L473,219 L469,218 L462,218 L456,223 L456,225 L452,226 L439,244 L437,248 L437,251 L433,252 L425,264 L416,275 L403,294 L402,299 L398,300 L386,317 L373,335 L371,338 L371,346 L368,346 L364,353 L364,357 L354,357 L345,370 L343,374 L338,379 L330,390 L323,402 L319,404 L308,420 L305,425 L301,427 L300,423 L296,419 L295,415 L279,394 L267,377 L263,373 L260,373 L261,368 L253,357 L243,357 L243,353 L241,352 L238,346 L236,346 L236,338 L225,323 L220,318 L211,304 L201,291 L198,291 L198,286 L185,268 L182,264 L179,264 L178,259 L167,244 L159,232 L153,225 L148,220 L146,218 Z " fill="#FCFCFC" transform="translate(0,0)"/>
<path d="M0,0 L1,0 L0,8 L-1,10 L3,11 L4,14 L15,15 L14,22 L11,22 L11,20 L6,21 L-1,31 L-5,36 L-6,39 L-8,39 L-10,44 L-14,51 L-16,51 L-18,55 L-29,70 L-42,88 L-47,95 L-50,101 L-52,101 L-53,106 L-59,110 L-66,124 L-61,122 L-56,114 L-54,112 L-52,106 L-49,107 L-48,102 L-46,102 L-44,97 L-33,81 L-26,74 L-16,58 L-3,41 L1,35 L3,29 L7,29 L8,23 L12,24 L13,29 L17,31 L20,38 L23,46 L32,61 L40,72 L45,77 L63,90 L75,96 L72,101 L77,102 L81,106 L85,107 L87,110 L94,112 L95,115 L98,118 L101,121 L101,123 L103,122 L103,119 L106,120 L106,123 L108,124 L105,124 L105,127 L108,128 L113,141 L116,142 L119,155 L116,157 L114,163 L107,161 L90,151 L81,145 L66,141 L44,140 L27,140 L17,142 L13,141 L6,143 L-19,144 L-19,146 L-16,147 L-22,146 L-35,142 L-58,131 L-59,130 L-74,127 L-80,125 L-87,124 L-88,126 L-88,123 L-85,123 L-85,115 L-75,101 L-62,83 L-57,76 L-54,76 L-53,71 L-44,58 L-32,42 L-25,32 L-22,28 L-19,28 L-18,23 L-7,7 L-3,2 L0,2 Z " fill="#2B5639" transform="translate(456,223)"/>
<path d="M0,0 L2,1 L7,10 L14,20 L14,22 L19,23 L22,30 L37,52 L43,57 L49,69 L54,72 L59,82 L64,87 L64,90 L69,91 L70,99 L65,98 L66,102 L56,105 L56,108 L55,111 L48,114 L27,119 L23,120 L-6,120 L-12,118 L-11,114 L-21,113 L-30,110 L-52,110 L-54,111 L-64,112 L-76,115 L-77,117 L-85,119 L-88,120 L-88,122 L-90,122 L-90,124 L-86,125 L-90,128 L-92,128 L-92,131 L-97,133 L-103,136 L-105,136 L-105,138 L-114,139 L-114,128 L-116,128 L-116,123 L-113,123 L-112,115 L-108,106 L-99,93 L-91,84 L-76,73 L-71,71 L-67,71 L-65,66 L-46,56 L-43,54 L-40,54 L-39,50 L-31,43 L-30,41 L-27,41 L-25,34 L-16,19 L-12,12 L-6,13 L-4,7 Z " fill="#2A5838" transform="translate(143,250)"/>
<path d="M0,0 L3,0 L2,10 L-1,20 L-9,35 L-16,42 L-18,42 L-18,48 L-20,48 L-20,45 L-32,50 L-44,53 L-45,56 L-52,56 L-77,65 L-87,72 L-95,82 L-93,82 L-93,84 L-97,84 L-104,98 L-106,106 L-107,119 L-114,118 L-126,110 L-133,102 L-142,91 L-149,83 L-159,74 L-164,69 L-171,63 L-178,60 L-179,56 L-188,54 L-189,50 L-179,40 L-178,37 L-176,37 L-176,35 L-168,31 L-163,30 L-163,27 L-149,20 L-132,14 L-110,14 L-88,16 L-77,18 L-48,18 L-29,13 L-21,11 L-16,10 L-15,6 L-10,5 Z " fill="#F6F7F6" transform="translate(214,351)"/>
<path d="M0,0 L8,0 L27,10 L40,15 L47,17 L59,18 L80,18 L83,17 L96,16 L101,14 L110,13 L139,13 L148,15 L167,27 L178,34 L180,40 L185,41 L190,46 L189,51 L176,61 L167,68 L163,71 L161,71 L161,74 L156,77 L148,87 L146,92 L142,92 L140,96 L135,101 L129,107 L127,107 L127,111 L121,113 L119,117 L111,119 L110,108 L104,89 L97,78 L86,69 L76,63 L69,61 L63,58 L55,56 L41,51 L26,47 L26,44 L21,43 L11,33 L4,20 Z " fill="#F7F6F6" transform="translate(389,352)"/>
<path d="M0,0 L1,2 L4,2 L7,7 L11,11 L18,13 L18,16 L20,16 L21,14 L21,18 L14,20 L-2,41 L-4,44 L-5,49 L-7,48 L-16,61 L-18,65 L-21,66 L-29,80 L-34,84 L-39,91 L-41,99 L-43,97 L-57,117 L-67,130 L-77,144 L-85,154 L-88,161 L-90,161 L-92,165 L-95,170 L-96,173 L-99,174 L-102,180 L-105,180 L-107,185 L-117,198 L-129,215 L-131,221 L-140,219 L-147,215 L-147,205 L-141,198 L-136,189 L-132,182 L-134,182 L-133,178 L-130,178 L-129,176 L-127,176 L-125,174 L-122,174 L-122,169 L-118,167 L-112,157 L-109,153 L-108,149 L-103,144 L-87,123 L-80,114 L-81,107 L-76,103 L-77,107 L-74,106 L-65,92 L-64,89 L-61,88 L-58,83 L-56,79 L-57,77 L-53,76 L-41,60 L-38,54 L-39,52 L-36,51 L-34,52 L-32,46 L-30,43 L-25,41 L-22,32 L-17,27 L-10,19 L-3,8 Z " fill="#A88F6D" transform="translate(344,374)"/>
<path d="M0,0 L4,2 L8,8 L15,19 L16,23 L20,25 L27,35 L30,37 L34,47 L39,49 L40,52 L44,54 L45,59 L56,74 L63,84 L66,85 L69,92 L81,108 L82,110 L86,111 L90,121 L93,122 L91,132 L86,135 L75,135 L70,128 L70,126 L66,126 L65,130 L63,125 L60,123 L61,121 L65,123 L63,119 L60,117 L55,107 L45,94 L34,79 L34,77 L26,76 L28,74 L27,70 L21,60 L15,52 L12,51 L10,46 L-3,29 L-6,28 L-7,23 L-10,19 L-10,11 L-7,8 L-3,2 Z " fill="#A98F6E" transform="translate(318,457)"/>
<path d="M0,0 L5,4 L17,22 L24,32 L24,35 L28,36 L38,50 L43,57 L43,62 L47,63 L59,79 L63,85 L64,94 L69,99 L73,104 L74,111 L77,112 L76,120 L73,120 L73,123 L68,123 L68,125 L65,125 L63,117 L56,108 L52,105 L48,96 L42,89 L40,83 L35,82 L36,77 L31,76 L26,66 L18,55 L16,52 L11,50 L9,43 L8,40 L6,40 L-3,26 L-11,16 L-14,17 L-14,9 L-5,6 L0,2 Z " fill="#2E523A" transform="translate(155,229)"/>
<path d="M0,0 L5,1 L11,13 L11,15 L15,17 L22,27 L27,35 L32,39 L35,45 L38,44 L40,52 L42,58 L40,59 L39,63 L36,64 L32,72 L28,70 L18,56 L17,53 L14,53 L14,55 L11,55 L10,51 L11,46 L-3,27 L-14,13 L-14,11 L-8,10 L-7,7 L-5,7 L-5,5 L-1,5 Z " fill="#A78E6F" transform="translate(258,376)"/>
<path d="M0,0 L1,4 L-1,10 L0,19 L-3,19 L-7,19 L-11,23 L-14,28 L-16,28 L-15,36 L-11,41 L-12,45 L-8,46 L6,64 L6,68 L10,69 L20,83 L23,88 L22,92 L19,91 L7,74 L-5,58 L-10,51 L-11,48 L-14,47 L-16,42 L-20,38 L-26,42 L-36,56 L-50,75 L-63,93 L-65,96 L-67,96 L-69,101 L-83,120 L-96,138 L-103,149 L-109,156 L-115,165 L-119,164 L-117,158 L-125,155 L-127,152 L-130,151 L-130,147 L-135,148 L-133,139 L-130,136 L-127,136 L-125,129 L-118,120 L-115,116 L-112,116 L-113,120 L-119,129 L-122,135 L-126,139 L-126,149 L-120,152 L-111,155 L-110,149 L-97,131 L-85,114 L-82,113 L-79,107 L-76,107 L-75,101 L-70,95 L-68,94 L-65,87 L-51,69 L-42,56 L-33,44 L-23,30 L-21,30 L-19,24 L-13,16 L-8,11 L-3,2 Z " fill="#55493C" transform="translate(324,440)"/>
<path d="M0,0 L4,0 L4,12 L9,16 L14,19 L7,31 L-3,44 L-6,50 L-13,58 L-14,60 L-17,61 L-20,68 L-25,69 L-32,68 L-34,66 L-34,59 L-30,53 L-26,45 L-11,25 L-3,14 Z " fill="#2A2A2A" transform="translate(183,590)"/>
<path d="M0,0 L5,0 L14,12 L17,16 L17,20 L22,22 L30,33 L36,42 L36,51 L31,56 L23,56 L13,42 L6,31 L-3,19 L-9,9 L-8,5 Z " fill="#282828" transform="translate(421,605)"/>
<path d="M0,0 L5,0 L5,2 L8,2 L8,10 L5,8 L5,4 L2,3 L1,9 L-3,9 L-5,17 L-18,34 L-28,49 L-34,57 L-41,65 L-49,77 L-52,82 L-54,82 L-55,87 L-58,88 L-60,93 L-64,98 L-68,104 L-72,104 L-69,95 L-63,87 L-60,86 L-58,81 L-55,78 L-50,69 L-40,56 L-30,42 L-22,31 L-20,31 L-18,26 L-14,19 L-12,19 L-11,14 L-4,6 Z " fill="#173621" transform="translate(462,243)"/>
<path d="M0,0 L5,5 L13,15 L18,23 L18,25 L20,25 L23,29 L23,35 L29,37 L36,47 L41,54 L43,60 L48,62 L47,67 L52,68 L57,77 L63,84 L65,91 L61,93 L54,81 L53,78 L48,75 L42,63 L35,57 L21,36 L19,33 L19,29 L14,28 L2,10 L0,6 L0,3 L-4,2 Z " fill="#173721" transform="translate(143,244)"/>
<path d="M0,0 L7,0 L18,3 L18,5 L15,6 L8,18 L7,28 L-2,27 L-7,24 L-12,19 L-16,14 L-15,10 L-5,10 L-4,4 L0,2 Z " fill="#232424" transform="translate(369,347)"/>
<path d="M0,0 L11,0 L16,6 L20,10 L21,14 L14,19 L6,20 L6,28 L4,28 L3,21 L-1,20 L-4,16 L-4,3 Z " fill="#2E302E" transform="translate(135,218)"/>
<path d="M0,0 L2,0 L7,5 L20,22 L21,35 L16,37 L7,42 L-3,40 L-12,28 L-12,25 L-15,25 L-18,18 L-20,17 L-20,13 L-16,13 L-11,20 L-11,22 L0,21 L4,19 L7,9 L3,8 L0,2 Z M9,17 L4,24 L-6,27 L-5,33 L0,38 L10,38 L14,35 L14,33 L16,33 L16,22 L12,17 Z " fill="#4A443E" transform="translate(404,570)"/>
<path d="M0,0 L1,0 L1,12 L9,12 L11,13 L11,18 L19,18 L19,23 L16,23 L14,28 L10,30 L9,33 L3,33 L3,35 L0,35 L0,25 L-4,23 L-9,16 L-9,12 L-4,12 L-4,9 L-1,9 Z " fill="#20211F" transform="translate(232,340)"/>
<path d="M0,0 L10,0 L18,11 L18,14 L14,16 L9,22 L5,23 L5,27 L-3,25 L-8,25 L-8,22 L-13,20 L-14,19 L-14,7 L-11,8 L-11,18 L-8,18 L-8,16 L-2,16 L-1,12 L3,10 L5,6 L8,6 L8,1 L0,1 Z " fill="#5F5F5F" transform="translate(243,357)"/>
<path d="M0,0 L2,0 L2,4 L6,4 L6,8 L10,9 L12,12 L20,14 L17,23 L19,23 L18,26 L15,26 L15,29 L6,31 L8,26 L0,21 L-2,19 L-2,9 L-1,7 L-4,6 L-2,6 Z " fill="#616161" transform="translate(188,583)"/>
<path d="M0,0 L7,0 L21,9 L30,17 L37,29 L42,46 L43,56 L49,55 L50,58 L44,61 L39,61 L37,57 L35,40 L26,21 L20,14 L13,10 L12,7 L0,1 Z " fill="#646364" transform="translate(458,414)"/>
<path d="M0,0 L5,5 L10,9 L12,12 L22,15 L21,20 L16,28 L14,28 L11,25 L2,22 L2,17 L-2,16 L-3,10 L-6,13 L-8,12 L-1,1 Z " fill="#5B5A59" transform="translate(352,360)"/>
<path d="M0,0 L5,1 L17,18 L33,39 L42,52 L47,56 L49,64 L45,61 L45,59 L43,59 L43,57 L38,56 L26,39 L23,35 L23,31 L19,30 L7,13 L0,4 Z " fill="#61574A" transform="translate(361,511)"/>
<path d="M0,0 L7,0 L12,2 L13,3 L13,15 L9,15 L9,20 L-2,20 L-3,16 L-7,15 L-5,5 Z " fill="#282927" transform="translate(462,218)"/>
<path d="M0,0 L4,1 L7,5 L7,16 L5,16 L3,20 L1,21 L-9,21 L-14,16 L-15,10 L-5,7 Z " fill="#646464" transform="translate(413,587)"/>
<path d="M0,0 L4,1 L14,13 L26,30 L33,40 L39,49 L38,51 L34,50 L33,47 L28,45 L24,35 L19,31 L14,23 L10,19 L3,7 L0,4 Z " fill="#64584A" transform="translate(323,459)"/>
<path d="M0,0 L5,1 L17,13 L25,24 L33,32 L33,34 L38,36 L45,41 L52,43 L53,48 L46,47 L30,36 L20,27 L13,17 L5,7 L0,2 Z " fill="#646364" transform="translate(55,427)"/>
<path d="M0,0 L6,0 L0,7 L-8,15 L-13,20 L-26,36 L-40,49 L-45,48 L-42,42 L-36,41 L-36,37 L-25,28 L-21,22 L-17,22 L-16,17 L-7,6 L-5,4 L-2,4 L-2,1 Z " fill="#6C6B6B" transform="translate(552,422)"/>
<path d="M0,0 L7,0 L4,2 L4,5 L-4,9 L-18,13 L-31,20 L-39,28 L-43,27 L-41,23 L-35,16 L-25,9 Z " fill="#7B7A7B" transform="translate(162,406)"/>
<path d="M0,0 L4,2 L12,12 L22,26 L35,43 L34,47 L32,49 L26,40 L21,35 L12,21 L7,16 L2,6 L2,4 L-2,2 Z " fill="#65594C" transform="translate(261,373)"/>
<path d="M0,0 L3,1 L7,21 L15,35 L24,44 L28,45 L28,48 L34,50 L35,52 L29,52 L19,46 L10,36 L5,28 L0,16 L-2,3 L-3,1 Z " fill="#5C5B5B" transform="translate(387,351)"/>
<path d="M0,0 L2,4 L6,20 L6,30 L4,30 L3,26 L0,26 L-5,20 L-10,18 L-13,11 L-9,12 L-8,6 L-4,4 L-2,9 L0,10 Z " fill="#4A5950" transform="translate(579,374)"/>
<path d="M0,0 L5,3 L5,6 L11,6 L6,16 L-6,31 L-12,28 L-22,15 L-24,13 L-24,8 L-21,8 L-8,26 L-6,26 L-2,18 L1,18 L2,13 L2,9 L0,5 Z " fill="#534533" transform="translate(296,421)"/>
<path d="M0,0 L3,0 L2,17 L-4,31 L-15,44 L-19,47 L-21,47 L-21,41 L-13,34 L-4,17 Z " fill="#616161" transform="translate(217,352)"/>
<path d="M0,0 L5,1 L15,15 L29,34 L32,41 L36,44 L36,47 L31,45 L19,29 L13,21 L13,17 L9,17 L0,2 Z " fill="#54483B" transform="translate(347,533)"/>
<path d="M0,0 L27,1 L27,3 L3,4 L-7,8 L-25,15 L-30,14 L-30,12 L-28,12 L-28,10 L-23,7 L-17,7 L-16,4 Z " fill="#253E2F" transform="translate(83,360)"/>
<path d="M0,0 L2,1 L1,6 L-13,24 L-24,39 L-26,40 L-25,32 L-22,27 L-11,14 L-3,2 Z " fill="#5E5247" transform="translate(263,483)"/>
<path d="M0,0 L22,0 L31,3 L41,5 L40,9 L13,7 L-6,6 L-5,4 L19,4 L19,2 L-1,2 Z " fill="#445B4C" transform="translate(91,359)"/>
<path d="M0,0 L17,4 L26,8 L34,10 L39,13 L39,16 L28,14 L2,6 L2,4 L0,3 Z " fill="#7F7E7E" transform="translate(420,400)"/>
<path d="M0,0 L4,5 L14,17 L27,35 L26,40 L21,35 L13,25 L1,8 L-2,5 L-1,2 Z " fill="#51473A" transform="translate(243,387)"/>
<path d="M0,0 L3,0 L3,2 L7,3 L12,12 L15,19 L18,23 L18,37 L15,36 L11,24 L11,18 L7,17 L2,4 L0,3 Z " fill="#304336" transform="translate(561,347)"/>
<path d="M0,0 L17,0 L39,1 L41,3 L16,4 L4,6 L2,7 L-11,7 L-12,5 L-9,2 Z " fill="#4E5E54" transform="translate(483,362)"/>
<path d="M0,0 L4,1 L7,3 L3,5 L3,7 L0,8 L-21,8 L-32,6 L-32,4 L-26,3 L-7,2 Z " fill="#314A3D" transform="translate(469,363)"/>
<path d="M0,0 L6,4 L17,20 L18,21 L18,29 L21,30 L22,35 L15,35 L14,24 L11,23 L8,14 L1,8 L0,6 Z " fill="#4F5852" transform="translate(218,317)"/>
<path d="M0,0 L2,1 L-1,10 L-8,21 L-11,25 L-14,25 L-14,30 L-19,33 L-21,34 L-20,27 L-6,8 Z " fill="#675C51" transform="translate(236,518)"/>
<path d="M0,0 L3,0 L4,6 L1,7 L-1,12 L-15,19 L-19,20 L-20,23 L-25,22 L-20,16 L-2,3 Z " fill="#7D7D7C" transform="translate(579,400)"/>
<path d="M0,0 L2,0 L2,11 L9,9 L8,14 L-1,23 L-2,26 L-5,26 L-4,10 Z " fill="#37403A" transform="translate(27,378)"/>
<path d="M0,0 L4,2 L-3,17 L-6,27 L-7,41 L-12,40 L-10,39 L-10,23 L-7,13 Z " fill="#4D4B4C" transform="translate(117,434)"/>
<path d="M0,0 L10,2 L13,5 L13,7 L20,9 L32,19 L34,23 L31,24 L25,20 L15,12 L0,2 Z " fill="#727271" transform="translate(23,404)"/>
<path d="M0,0 L7,1 L21,10 L31,19 L32,25 L29,25 L29,23 L26,22 L25,18 L22,17 L22,14 L15,13 L13,9 L7,8 L4,4 L0,3 Z " fill="#2F4436" transform="translate(528,321)"/>
<path d="M0,0 L5,1 L12,9 L14,13 L13,19 L11,17 L6,18 L-4,23 L-9,21 L-7,19 L3,17 L2,13 L7,14 L6,12 L6,6 L1,5 Z " fill="#203828" transform="translate(206,335)"/>
<path d="M0,0 L2,0 L1,6 L-13,25 L-18,31 L-20,31 L-19,24 L-10,13 L-1,1 Z " fill="#534639" transform="translate(359,392)"/>
<path d="M0,0 L2,0 L2,5 L-8,10 L-18,13 L-27,13 L-26,11 L-22,11 L-22,8 L-2,1 Z " fill="#717171" transform="translate(192,396)"/>
<path d="M0,0 L4,2 L2,6 L-2,12 L-5,12 L-6,17 L-15,30 L-18,30 L-16,22 L-8,11 L-5,10 L-3,5 Z " fill="#63564B" transform="translate(285,451)"/>
<path d="M0,0 L2,3 L-4,15 L-13,25 L-18,32 L-19,28 L-8,10 Z " fill="#584C3E" transform="translate(342,374)"/>
<path d="M0,0 L3,0 L4,8 L8,8 L7,14 L2,24 L-2,24 L-2,13 Z " fill="#4B5C50" transform="translate(135,239)"/>
<path d="M0,0 L2,0 L4,4 L1,5 L-1,10 L-5,10 L-5,12 L-7,12 L-8,16 L-15,16 L-16,19 L-21,15 L-22,10 L-15,11 L-10,13 L-10,9 L-4,5 Z " fill="#3C352D" transform="translate(258,371)"/>
<path d="M0,0 L2,1 L0,11 L-3,15 L-7,16 L-11,24 L-16,23 L-9,12 L-1,1 Z " fill="#6B6055" transform="translate(321,402)"/>
<path d="M0,0 L3,3 L1,7 L-9,21 L-13,20 L-15,21 L-14,18 L-11,17 L-6,8 Z " fill="#5A4B3B" transform="translate(337,421)"/>
<path d="M0,0 L2,0 L4,6 L7,7 L7,12 L16,14 L18,15 L17,20 L15,20 L15,17 L8,16 L1,9 L1,6 L-2,6 L-1,1 Z " fill="#393027" transform="translate(347,370)"/>
</svg>
