<?xml version="1.0" encoding="UTF-8"?>
<!-- Generator: visioncortex VTracer 0.6.12 -->
<svg version="1.1" xmlns="http://www.w3.org/2000/svg" width="311" height="344">
<path d="M0,0 L311,0 L311,344 L0,344 Z M59,20 L52,23 L50,31 L54,37 L59,40 L77,44 L86,48 L101,56 L109,59 L112,65 L107,65 L106,66 L89,68 L67,74 L67,76 L58,78 L49,84 L44,87 L43,90 L38,95 L37,98 L35,98 L27,113 L22,135 L20,150 L20,176 L25,197 L28,204 L30,204 L32,209 L38,219 L45,226 L47,226 L48,223 L48,222 L50,221 L54,225 L59,227 L50,228 L49,226 L48,229 L53,231 L56,234 L63,236 L77,238 L90,240 L96,240 L97,241 L109,243 L128,244 L132,245 L174,245 L187,244 L188,241 L190,243 L215,241 L231,238 L252,232 L265,229 L272,227 L275,221 L275,219 L273,219 L272,216 L276,215 L280,211 L286,197 L291,176 L291,149 L289,133 L285,119 L277,103 L270,91 L263,84 L259,83 L259,81 L250,79 L241,77 L241,75 L227,71 L222,68 L220,63 L210,62 L203,63 L195,63 L176,61 L165,58 L161,58 L161,56 L149,53 L145,52 L145,50 L137,46 L125,43 L114,42 L98,35 L96,35 L96,33 L88,31 L88,29 L76,23 L64,20 Z M174,264 L168,266 L168,268 L163,270 L160,271 L161,274 L174,274 L178,275 L178,285 L175,286 L174,289 L170,292 L169,295 L166,295 L166,298 L164,299 L162,301 L158,303 L160,305 L164,307 L182,308 L188,311 L191,310 L194,301 L190,300 L190,298 L177,297 L177,293 L181,292 L184,289 L185,285 L187,284 L187,282 L189,282 L190,275 L188,269 L182,268 L183,265 Z M231,263 L227,264 L221,264 L221,266 L209,266 L204,269 L202,274 L203,283 L211,287 L213,287 L213,289 L219,290 L218,294 L221,301 L220,308 L215,314 L206,318 L206,325 L212,323 L227,315 L228,311 L231,310 L234,301 L233,294 L231,290 L227,289 L227,287 L217,281 L215,281 L214,272 L231,273 L233,271 L233,263 Z M125,265 L118,268 L112,277 L111,279 L111,290 L116,299 L122,302 L131,303 L135,302 L134,306 L130,311 L119,319 L118,324 L126,322 L131,319 L131,317 L135,315 L142,308 L148,296 L150,290 L149,279 L147,273 L145,273 L145,271 L142,270 L139,267 L135,265 Z M84,267 L81,270 L84,271 L83,274 L83,299 L82,302 L84,305 L98,304 L94,295 L94,275 L97,267 Z " fill="#F9F9F8" transform="translate(0,0)"/>
<path d="M0,0 L6,1 L12,9 L15,10 L18,13 L31,22 L34,27 L34,29 L36,29 L42,48 L44,63 L45,71 L45,113 L54,107 L57,107 L62,117 L67,113 L109,112 L121,111 L124,109 L130,109 L130,111 L132,111 L133,113 L137,111 L141,107 L144,110 L147,113 L148,116 L151,113 L150,119 L146,120 L142,120 L138,117 L138,119 L133,122 L125,138 L119,148 L107,151 L84,154 L50,155 L49,151 L50,149 L52,149 L54,143 L58,133 L58,130 L56,132 L57,127 L59,127 L55,117 L47,121 L42,125 L29,149 L21,154 L9,153 L1,151 L3,147 L6,142 L10,138 L15,126 L17,122 L19,114 L23,113 L35,113 L36,108 L32,106 L24,105 L22,101 L23,72 L24,69 L35,69 L35,67 L37,67 L37,62 L25,61 L22,61 L20,61 L19,52 L16,43 L12,33 L6,22 L-1,10 L-2,3 Z " fill="#F7F7F6" transform="translate(102,80)"/>
<path d="M0,0 L8,0 L20,5 L29,15 L35,26 L36,32 L38,32 L42,49 L43,57 L43,83 L40,100 L36,111 L35,114 L33,114 L33,116 L31,116 L30,121 L21,133 L16,136 L9,140 L4,140 L4,133 L7,132 L7,130 L2,129 L2,123 L5,124 L4,126 L6,126 L9,126 L8,14 L10,14 L10,12 L15,14 L17,17 L14,17 L17,19 L17,21 L20,20 L16,14 L14,13 L14,11 L12,11 L12,9 L-3,9 L-11,14 L-14,17 L-15,20 L-17,20 L-18,24 L-25,38 L-28,55 L-30,92 L-36,92 L-37,86 L-37,55 L-35,46 L-31,32 L-25,18 L-17,8 L-10,4 L-8,4 L-8,2 Z " fill="#F4F5F3" transform="translate(67,86)"/>
<path d="M0,0 L1,2 L4,1 L12,5 L28,10 L41,13 L48,15 L58,16 L75,16 L77,18 L76,26 L67,47 L60,55 L58,55 L55,58 L47,60 L40,59 L24,51 L8,43 L-8,33 L-14,28 L-16,21 L-12,15 L-9,12 L-4,10 L-1,5 Z " fill="#F8F8F7" transform="translate(137,56)"/>
<path d="M0,0 L12,3 L24,9 L30,17 L41,40 L44,52 L46,68 L45,89 L41,108 L31,130 L25,135 L16,138 L6,139 L8,135 L10,135 L11,128 L12,121 L11,116 L14,113 L16,113 L19,106 L21,102 L25,100 L26,98 L20,96 L19,94 L18,67 L22,63 L28,62 L25,58 L18,56 L16,53 L14,40 L13,39 L13,34 L20,34 L19,27 L12,26 L7,20 L6,17 L2,16 L0,11 L1,7 L-1,1 Z " fill="#F6F7F6" transform="translate(235,85)"/>
<path d="M0,0 L3,0 L3,2 L10,3 L34,6 L35,11 L39,11 L42,12 L41,16 L45,17 L47,24 L50,25 L50,27 L55,29 L58,31 L70,31 L70,67 L64,66 L63,61 L47,62 L6,62 L4,59 L4,31 L6,27 L13,26 L33,27 L31,20 L19,20 L6,19 L3,16 L0,8 L-1,1 Z " fill="#F6F7F6" transform="translate(164,123)"/>
<path d="M0,0 L5,2 L11,5 L11,7 L16,9 L21,10 L27,14 L32,16 L38,19 L38,21 L26,22 L23,23 L23,36 L26,50 L26,59 L25,61 L24,76 L23,81 L23,86 L18,84 L17,82 L15,82 L13,76 L13,61 L11,57 L12,53 L10,49 L11,44 L8,29 L7,26 L6,20 L3,17 L3,11 L0,5 L-2,5 L-1,1 Z " fill="#F3F4F3" transform="translate(138,98)"/>
<path d="M0,0 L7,1 L9,2 L10,5 L17,6 L21,8 L23,10 L22,12 L23,12 L24,10 L29,11 L30,14 L41,19 L44,20 L44,25 L52,24 L57,26 L58,24 L64,25 L66,24 L71,26 L73,31 L69,41 L64,42 L64,44 L55,48 L53,49 L50,57 L49,57 L49,52 L48,54 L46,54 L45,56 L45,54 L41,53 L41,52 L39,52 L38,56 L34,52 L37,51 L37,47 L50,45 L53,41 L50,36 L49,34 L46,35 L44,33 L33,28 L32,25 L26,22 L27,20 L29,19 L18,20 L12,16 L6,17 L4,15 L-5,14 L-11,9 L-6,4 Z " fill="#F3F4F3" transform="translate(64,23)"/>
<path d="M0,0 L2,2 L3,10 L3,106 L1,108 L-4,106 L-6,100 L-7,77 L-7,29 L-6,8 L-3,2 Z " fill="#F9F9F9" transform="translate(65,103)"/>
<path d="M0,0 L10,0 L16,3 L17,5 L20,6 L20,8 L22,8 L25,19 L24,28 L19,40 L10,50 L6,52 L5,55 L-5,59 L-7,59 L-5,53 L6,45 L10,39 L10,37 L1,38 L-8,35 L-13,27 L-14,25 L-14,14 L-8,4 L-6,2 Z M2,6 L-3,11 L-4,16 L-4,24 L-2,29 L1,31 L10,32 L15,26 L16,17 L13,8 L11,6 Z " fill="#E4E5DB" transform="translate(125,265)"/>
<path d="M0,0 L2,0 L2,8 L0,10 L-17,9 L-16,18 L-11,20 L-4,24 L-4,26 L0,27 L3,33 L2,43 L-1,48 L-3,48 L-4,52 L-23,62 L-25,61 L-25,55 L-16,51 L-11,45 L-10,38 L-13,29 L-12,27 L-18,26 L-18,24 L-24,22 L-28,20 L-29,11 L-26,5 L-22,3 L-10,3 L-10,1 L-3,1 Z " fill="#E2E5DA" transform="translate(231,263)"/>
<path d="M0,0 L4,4 L8,14 L11,14 L12,18 L10,18 L16,41 L19,64 L19,80 L18,95 L17,95 L17,58 L11,58 L8,55 L2,44 L-6,28 L-8,19 L-8,13 L-6,13 L-4,8 Z " fill="#F0F2EE" transform="translate(217,95)"/>
<path d="M0,0 L9,1 L22,6 L31,9 L35,12 L29,13 L23,11 L21,11 L21,9 L16,8 L13,9 L10,8 L5,9 L2,9 L3,13 L4,10 L7,10 L9,16 L7,16 L10,26 L13,27 L16,36 L20,38 L24,40 L20,44 L16,46 L20,48 L19,52 L10,53 L7,47 L4,35 L0,28 L0,21 L-2,21 L-2,17 L-6,13 L-7,16 L-13,18 L-10,7 L-7,7 L-6,4 L-4,4 Z " fill="#F3F4F4" transform="translate(225,75)"/>
<path d="M0,0 L9,1 L8,4 L14,5 L16,11 L15,18 L13,18 L13,20 L11,21 L9,26 L6,29 L3,29 L3,33 L16,34 L16,36 L20,37 L17,46 L13,46 L8,44 L-10,43 L-14,41 L-16,39 L-12,37 L-10,35 L-8,34 L-7,31 L-5,31 L-2,26 L0,25 L2,21 L4,21 L4,11 L-4,10 L-13,10 L-14,7 L-8,4 L-6,4 L-6,2 Z " fill="#E3E6DC" transform="translate(174,264)"/>
<path d="M0,0 L4,1 L6,7 L1,20 L-2,29 L-5,32 L-5,34 L-1,36 L12,36 L16,38 L16,36 L23,36 L23,41 L9,41 L5,40 L5,41 L-14,41 L-20,42 L-28,37 L-23,32 L-19,31 L-18,26 L-16,24 L-15,24 L-12,15 L-9,12 L-5,13 L-6,7 Z " fill="#EFF1F0" transform="translate(152,201)"/>
<path d="M0,0 L2,0 L2,7 L4,10 L4,14 L6,14 L6,18 L9,19 L8,20 L13,21 L10,24 L5,25 L6,27 L6,57 L10,56 L10,58 L12,58 L12,61 L5,62 L1,58 L-2,58 L-6,63 L-6,26 L-8,19 L-9,19 L-9,3 L0,2 Z M3,27 L2,34 L2,54 L5,52 L5,31 Z " fill="#E7EAE8" transform="translate(244,125)"/>
<path d="M0,0 L1,0 L1,11 L-3,23 L-5,27 L-7,33 L-8,35 L-12,37 L-13,41 L-15,42 L-14,47 L-18,48 L-22,51 L-28,50 L-39,47 L-40,45 L-38,44 L-45,44 L-41,41 L-32,39 L-29,37 L-30,35 L-25,33 L-23,31 L-21,28 L-19,25 L-17,23 L-16,26 L-13,20 L-11,20 L-9,16 L-8,18 L-6,14 L-2,13 Z " fill="#F4F5F4" transform="translate(115,187)"/>
<path d="M0,0 L1,3 L3,4 L5,9 L6,11 L14,12 L10,16 L6,17 L5,21 L6,23 L6,38 L5,42 L5,54 L12,55 L15,55 L18,56 L16,58 L13,58 L13,60 L21,59 L21,61 L4,62 L3,59 L5,58 L1,57 L1,55 L-3,54 L-5,59 L-7,59 L-7,48 L-4,50 L-3,48 L-6,47 L-4,31 L-3,25 L-3,4 Z " fill="#EDEFED" transform="translate(116,132)"/>
<path d="M0,0 L1,0 L5,20 L9,28 L9,30 L14,29 L17,34 L22,39 L23,42 L28,45 L33,47 L33,55 L25,54 L20,52 L20,50 L15,48 L11,43 L11,41 L7,40 L-1,24 L-5,10 L-5,7 L0,7 Z " fill="#DBE0D9" transform="translate(37,172)"/>
<path d="M0,0 L3,3 L4,9 L1,17 L-1,24 L11,22 L20,23 L21,25 L20,27 L15,28 L9,30 L1,32 L1,30 L-1,33 L-11,34 L-15,33 L-15,22 L-9,16 L-8,7 L-5,5 L-4,6 L-2,1 Z " fill="#ECEEED" transform="translate(241,201)"/>
<path d="M0,0 L9,0 L13,6 L14,16 L11,23 L8,26 L-1,25 L-5,22 L-6,18 L-6,10 L-4,3 Z " fill="#F9F9F9" transform="translate(127,271)"/>
<path d="M0,0 L3,1 L1,1 L2,4 L5,2 L7,6 L4,7 L3,11 L4,14 L6,14 L7,19 L5,20 L6,22 L2,22 L2,20 L-4,19 L-1,18 L-2,16 L-8,16 L-12,12 L-22,9 L-22,8 L-29,6 L-25,4 L-21,5 L-19,3 L-13,1 L-4,2 Z M5,1 Z " fill="#E8EAE9" transform="translate(93,73)"/>
<path d="M0,0 L13,0 L10,8 L10,28 L14,37 L0,38 L-1,36 L2,26 L2,11 L0,5 L-3,2 Z " fill="#F9F9F9" transform="translate(84,267)"/>
<path d="M0,0 L1,0 L1,66 L-1,64 L-5,48 L-5,25 L-2,5 Z " fill="#F9F9F9" transform="translate(50,125)"/>
<path d="M0,0 L4,5 L9,16 L11,20 L10,23 L7,23 L9,28 L10,35 L8,37 L8,42 L9,45 L7,54 L6,54 L3,33 L-2,19 L-4,13 L-2,13 L-2,10 L0,10 L2,5 L-1,5 Z " fill="#7A8D7E" transform="translate(274,99)"/>
<path d="M0,0 L5,0 L5,2 L2,3 L2,113 L4,114 L1,114 L0,116 L-2,115 L-1,113 L-2,112 L-3,111 L-3,101 L-1,105 L0,2 L-2,2 L-1,6 L-1,22 L-2,22 L-4,1 Z " fill="#11301E" transform="translate(72,98)"/>
<path d="M0,0 L2,1 L1,12 L-1,12 L-2,16 L-5,18 L-17,19 L-20,17 L-29,17 L-37,16 L-36,14 L-26,12 L-20,12 L-10,7 L-4,2 Z " fill="#F2F3F2" transform="translate(206,106)"/>
<path d="M0,0 L3,2 L6,4 L-1,6 L-17,10 L-35,15 L-51,18 L-76,20 L-78,17 L-69,18 L-69,16 L-60,15 L-54,13 L-50,14 L-48,12 L-61,10 L-57,7 L-49,7 L-45,11 L-32,11 L-26,10 L-24,7 L-22,8 L-18,7 L-12,6 L-7,4 L-5,5 L-5,3 L0,2 Z " fill="#4E6858" transform="translate(266,223)"/>
<path d="M0,0 L2,4 L0,4 L1,7 L3,3 L6,4 L7,13 L7,20 L9,22 L9,55 L7,55 L7,78 L5,77 L5,7 L3,7 L2,11 L0,11 L-1,15 L-3,15 L-4,11 L-2,9 L-1,2 Z " fill="#6F8478" transform="translate(47,115)"/>
<path d="M0,0 L4,1 L2,1 L0,6 L-1,8 L-3,8 L-4,15 L-9,22 L-8,24 L-5,19 L-4,22 L-7,28 L-11,28 L-14,35 L-16,42 L-18,43 L-17,33 L-16,29 L-19,40 L-20,43 L-21,36 L-18,26 L-11,13 L-9,13 L-7,8 L-3,5 L-1,1 Z " fill="#91A094" transform="translate(46,85)"/>
<path d="M0,0 L5,1 L9,8 L18,14 L15,17 L12,17 L13,19 L16,20 L19,25 L19,27 L22,27 L23,32 L20,32 L16,25 L2,16 L0,14 L0,10 L-2,10 L-3,4 L1,2 L-1,1 Z " fill="#758878" transform="translate(116,77)"/>
<path d="M0,0 L5,4 L9,12 L9,15 L6,15 L5,20 L-2,20 L-1,16 L-4,17 L-6,15 L-9,15 L-9,10 L-20,10 L-20,9 L-2,8 L-1,4 L-3,4 L-3,2 L0,2 Z " fill="#859689" transform="translate(207,119)"/>
<path d="M0,0 L3,0 L3,6 L5,4 L7,4 L6,8 L4,14 L2,14 L3,17 L5,17 L5,44 L2,47 L1,45 L-2,53 L-3,50 L-2,45 L0,13 L1,9 L0,9 Z " fill="#385543" transform="translate(281,134)"/>
<path d="M0,0 L4,4 L4,7 L5,11 L0,23 L-2,27 L-4,27 L-4,33 L20,33 L22,34 L30,34 L30,35 L20,36 L21,40 L19,40 L19,35 L15,36 L12,35 L12,37 L8,36 L-6,36 L-7,34 L-10,34 L-9,29 L-7,28 L-5,22 L-3,15 L1,5 Z " fill="#425E4C" transform="translate(156,202)"/>
<path d="M0,0 L1,2 L0,68 L-2,69 L-3,63 L-3,34 L-4,34 L-5,21 L-6,11 L-4,7 L-3,12 L-3,5 L-2,1 Z " fill="#314F3F" transform="translate(58,107)"/>
<path d="M0,0 L10,0 L14,2 L11,5 L5,4 L-3,7 L-8,6 L-8,8 L-17,8 L-28,9 L-29,5 L-15,2 Z " fill="#DCE0DE" transform="translate(205,233)"/>
<path d="M0,0 L6,1 L7,3 L16,5 L19,6 L18,9 L8,7 L3,6 L3,4 L0,6 L3,18 L4,22 L19,23 L23,24 L22,26 L23,28 L13,28 L10,26 L4,26 L3,28 L0,28 L0,17 L-3,8 L-3,2 Z " fill="#59715E" transform="translate(164,119)"/>
<path d="M0,0 L8,1 L18,5 L24,8 L24,10 L32,12 L32,14 L41,17 L46,20 L46,22 L48,23 L45,23 L45,26 L48,27 L44,27 L44,22 L38,21 L27,15 L27,13 L24,12 L23,15 L20,16 L20,14 L22,14 L21,11 L18,11 L17,9 L8,7 L9,4 L0,3 L-5,5 L-6,2 Z " fill="#3F5A48" transform="translate(64,21)"/>
<path d="M0,0 L3,0 L2,6 L2,34 L4,37 L30,38 L27,41 L23,42 L9,42 L9,40 L-4,39 L-5,38 L-5,26 L-3,11 L-2,11 L-2,33 L-2,36 L-1,35 L-1,3 Z " fill="#798C7D" transform="translate(167,148)"/>
<path d="M0,0 L1,0 L2,13 L4,13 L3,19 L1,33 L0,35 L4,36 L1,39 L0,38 L0,49 L-1,51 L-1,58 L-3,62 L-4,61 L-6,64 L-8,63 L-7,60 L-8,57 L-5,51 L-3,51 L-4,49 L-4,42 L-1,25 Z " fill="#385544" transform="translate(110,144)"/>
<path d="M0,0 L13,0 L9,1 L9,3 L27,2 L31,4 L44,5 L44,6 L2,7 L-3,11 L-6,6 L-6,1 Z " fill="#8F9E8E" transform="translate(167,187)"/>
<path d="M0,0 L8,0 L8,1 L-1,2 L-2,9 L-1,34 L5,36 L3,40 L0,40 L-1,44 L-6,50 L-7,46 L-10,45 L-12,39 L-14,39 L-14,34 L-8,37 L-6,39 L0,39 L0,36 L-2,36 L-3,34 L-4,2 Z " fill="#566E5E" transform="translate(256,147)"/>
<path d="M0,0 L5,1 L5,2 L14,4 L13,7 L22,10 L26,12 L26,14 L28,14 L29,12 L33,17 L32,18 L34,20 L33,23 L26,26 L17,26 L18,23 L23,21 L28,21 L25,15 L9,8 L1,3 Z " fill="#526B58" transform="translate(84,44)"/>
<path d="M0,0 L3,1 L3,3 L6,2 L7,4 L5,6 L4,15 L1,20 L-3,31 L-8,36 L-10,40 L-15,40 L-12,35 L-9,35 L-7,26 L-4,21 L-1,11 Z " fill="#536C5A" transform="translate(116,187)"/>
<path d="M0,0 L14,2 L23,4 L23,6 L28,8 L32,13 L30,13 L30,15 L32,16 L30,16 L31,20 L28,20 L27,12 L25,13 L25,11 L23,13 L24,16 L18,15 L4,10 L-1,8 L1,7 L5,8 L13,8 L13,10 L17,9 L22,10 L19,7 L5,3 L0,1 Z " fill="#4A634F" transform="translate(236,77)"/>
<path d="M0,0 L4,2 L7,6 L8,12 L5,23 L3,23 L2,26 L1,26 L2,17 L4,11 L2,5 L-1,5 L-2,11 L-5,10 L-6,13 L-7,20 L-12,24 L-10,19 L-11,14 L-6,5 L-3,2 L0,2 Z " fill="#435E4D" transform="translate(240,197)"/>
<path d="M0,0 L6,2 L10,18 L11,29 L11,56 L9,65 L8,65 L9,47 L9,34 L8,25 L6,25 L7,20 L4,24 L3,17 L3,11 L1,3 Z " fill="#617867" transform="translate(280,120)"/>
<path d="M0,0 L7,1 L7,3 L10,2 L10,5 L5,8 L2,8 L2,5 L0,7 L-11,6 L-17,8 L-13,10 L-21,10 L-23,9 L-25,10 L-16,11 L-20,13 L-37,13 L-37,11 L-27,7 L-10,3 Z " fill="#3E5A48" transform="translate(91,69)"/>
<path d="M0,0 L1,0 L2,7 L-1,10 L-2,14 L-1,18 L-4,22 L-6,26 L-8,24 L-10,29 L-15,33 L-18,34 L-19,37 L-24,40 L-27,40 L-28,36 L-18,31 L-9,19 L-7,14 L-5,14 L-5,12 L-3,12 L-1,2 Z " fill="#657B67" transform="translate(105,188)"/>
<path d="M0,0 L2,4 L2,87 L0,83 Z " fill="#102E1D" transform="translate(69,116)"/>
<path d="M0,0 L1,3 L0,9 L1,8 L4,6 L3,13 L2,14 L2,22 L3,27 L-3,26 L-4,21 L-2,22 L-1,12 L-8,15 L-15,21 L-24,24 L-23,21 L-16,18 L-12,15 L-7,10 L-3,4 L-2,1 Z " fill="#486350" transform="translate(208,95)"/>
<path d="M0,0 L17,0 L17,3 L12,3 L8,5 L7,2 L6,6 L4,6 L4,8 L6,9 L0,13 L-2,12 L-2,10 L-5,14 L-7,14 L-8,17 L-10,12 L-8,12 L-6,7 L-2,1 Z " fill="#ADB8AF" transform="translate(53,81)"/>
<path d="M0,0 L1,0 L2,20 L1,25 L2,35 L4,37 L5,41 L8,53 L7,55 L9,56 L11,57 L11,59 L6,61 L5,52 L3,52 L2,49 L2,45 L0,40 L-2,21 L-2,8 L-1,5 Z " fill="#234230" transform="translate(40,141)"/>
<path d="M0,0 L8,0 L10,5 L10,7 L-17,7 L-17,5 L-20,5 L-21,8 L-20,2 L-19,1 L-11,1 L-10,3 L-6,2 Z " fill="#96A59C" transform="translate(187,143)"/>
<path d="M0,0 L5,2 L24,11 L34,16 L41,17 L44,18 L35,22 L27,22 L27,21 L33,21 L33,19 L27,17 L22,15 L14,10 L9,10 L1,3 Z " fill="#556D58" transform="translate(143,98)"/>
<path d="M0,0 L3,1 L4,4 L1,5 L3,7 L7,5 L5,21 L4,29 L3,29 L2,24 L1,24 L1,17 L3,17 L2,12 L4,10 L1,11 L1,30 L0,35 L-1,35 L-2,28 L-4,28 L-4,20 L-1,3 Z " fill="#889785" transform="translate(42,121)"/>
<path d="M0,0 L3,3 L3,5 L6,6 L5,10 L7,10 L9,19 L12,24 L12,31 L15,40 L16,48 L14,48 L8,27 L10,25 L7,25 L2,13 L1,8 L-2,5 L0,5 Z " fill="#536C5B" transform="translate(218,86)"/>
<path d="M0,0 L4,0 L7,5 L7,10 L3,9 L3,13 L9,13 L11,16 L11,19 L7,20 L1,16 L1,14 L-3,13 L-5,6 L-1,4 Z " fill="#4C6553" transform="translate(213,134)"/>
<path d="M0,0 L2,0 L2,2 L-4,5 L-6,5 L-3,9 L7,12 L7,14 L-3,12 L-18,10 L-22,8 L-23,5 L-19,4 L-15,7 L-13,6 L-15,4 L-12,3 L-9,4 L-6,1 Z " fill="#75887A" transform="translate(76,225)"/>
<path d="M0,0 L16,0 L18,4 L15,4 L15,2 L11,4 L4,5 L-2,4 L-2,5 L-17,5 L-19,3 L-40,2 L-40,1 Z " fill="#929F8B" transform="translate(211,184)"/>
<path d="M0,0 L2,3 L2,30 L4,36 L8,41 L11,44 L6,45 L3,39 L-3,34 L-3,31 L-5,30 L-3,30 L-1,20 L-1,8 Z " fill="#F4F5F5" transform="translate(54,170)"/>
<path d="M0,0 L2,0 L2,7 L4,11 L5,20 L7,25 L10,25 L9,31 L8,48 L7,48 L5,35 L4,34 L1,16 L-1,9 L-1,4 L-2,1 Z " fill="#284836" transform="translate(105,109)"/>
<path d="M0,0 L3,4 L7,4 L11,15 L14,21 L15,27 L11,26 L10,28 L5,21 L6,19 L7,18 L4,15 L4,8 L5,6 L3,6 L3,11 L0,7 Z " fill="#9AA9A0" transform="translate(29,188)"/>
<path d="M0,0 L7,0 L7,2 L9,3 L4,6 L-21,6 L-28,5 L-25,3 L-21,1 L-7,1 L1,2 Z " fill="#2C4A38" transform="translate(219,186)"/>
<path d="M0,0 L1,3 L-2,15 L-2,18 L1,10 L3,3 L7,4 L4,15 L1,25 L0,32 L-1,32 L-2,25 L-4,29 L-5,14 Z " fill="#435E4D" transform="translate(31,109)"/>
<path d="M0,0 L6,0 L5,4 L8,6 L10,11 L10,16 L13,20 L14,26 L16,33 L16,39 L13,39 L7,16 L6,8 L6,6 L3,6 Z " fill="#304E3D" transform="translate(132,98)"/>
<path d="M0,0 L8,4 L17,4 L16,6 L23,5 L28,9 L41,8 L40,10 L37,11 L40,14 L34,14 L32,12 L32,13 L25,12 L16,9 L3,6 L0,2 Z " fill="#395543" transform="translate(54,33)"/>
<path d="M0,0 L10,0 L17,6 L25,9 L33,11 L33,13 L39,14 L35,15 L23,12 L17,12 L14,13 L11,7 L11,5 L0,2 Z " fill="#496352" transform="translate(208,64)"/>
<path d="M0,0 L3,2 L2,109 L5,110 L1,111 Z " fill="#4D6859" transform="translate(73,100)"/>
<path d="M0,0 L13,0 L17,5 L19,10 L16,11 L15,13 L12,13 L12,16 L10,16 L10,19 L7,20 L10,9 L9,4 L0,4 Z " fill="#6A8070" transform="translate(203,69)"/>
<path d="M0,0 L2,2 L0,8 L-3,13 L-11,18 L-15,24 L-21,24 L-20,18 L-15,15 L-13,13 L-10,13 L-11,11 L-5,10 L-4,8 Z " fill="#536B59" transform="translate(136,54)"/>
<path d="M0,0 L15,0 L19,2 L29,1 L33,0 L36,1 L34,2 L34,5 L28,6 L11,6 L11,3 L3,2 Z " fill="#355342" transform="translate(171,122)"/>
<path d="M0,0 L7,1 L8,3 L1,4 L1,14 L-1,17 L-2,9 L-4,9 L-7,12 L-8,15 L-9,36 L-10,36 L-10,12 L-12,11 L-9,10 L-8,7 L-7,6 L-5,2 Z " fill="#A7B19D" transform="translate(68,96)"/>
<path d="M0,0 L1,2 L4,2 L3,9 L1,9 L2,15 L3,15 L3,46 L1,48 L0,45 Z " fill="#425D4A" transform="translate(42,129)"/>
<path d="M0,0 L2,0 L2,27 L1,99 L0,99 Z M-1,99 Z " fill="#496557" transform="translate(68,110)"/>
<path d="M0,0 L2,0 L2,109 L1,109 Z " fill="#FAFAFA" transform="translate(70,100)"/>
<path d="M0,0 L1,4 L1,7 L6,8 L8,12 L6,13 L4,11 L0,20 L-2,18 L-6,20 L-5,11 L-6,9 L-2,3 L0,3 Z " fill="#829383" transform="translate(213,85)"/>
<path d="M0,0 L15,2 L22,4 L22,6 L27,7 L26,10 L22,9 L24,8 L19,7 L16,8 L12,7 L9,8 L-1,6 Z " fill="#5F7564" transform="translate(110,41)"/>
<path d="M0,0 L2,0 L1,2 Z M-4,2 L1,2 L0,39 L-3,38 L-4,9 L-5,5 Z " fill="#3C5947" transform="translate(125,146)"/>
<path d="M0,0 L1,0 L2,15 L1,21 L3,24 L4,28 L6,38 L4,40 L3,34 L2,38 L-1,25 L-2,18 L-2,2 L0,2 Z " fill="#294736" transform="translate(22,148)"/>
<path d="M0,0 L2,0 L11,16 L15,25 L16,32 L12,35 L12,33 L10,32 L12,31 L11,26 L8,20 L6,19 L4,10 L2,5 Z " fill="#3C5949" transform="translate(102,93)"/>
<path d="M0,0 L1,3 L1,5 L3,7 L1,10 L2,13 L0,14 L2,20 L-1,22 L-6,19 L-7,21 L-12,20 L-8,17 L-7,13 L-5,13 L-2,4 Z M-1,5 Z " fill="#B5BEB3" transform="translate(271,202)"/>
<path d="M0,0 L1,0 L2,13 L3,14 L5,12 L9,28 L9,32 L12,31 L12,38 L6,37 L6,31 L3,22 L1,18 L-1,5 Z " fill="#92A194" transform="translate(41,161)"/>
<path d="M0,0 L15,1 L15,3 L17,3 L17,5 L21,7 L24,13 L20,13 L18,11 L16,8 L19,8 L15,5 L9,3 L2,3 L1,5 L0,4 L-2,8 L-1,10 L-4,10 L-5,12 L-9,10 L-6,9 L-5,4 L-2,1 Z " fill="#4C6653" transform="translate(64,94)"/>
<path d="M0,0 L5,1 L6,9 L7,6 L9,6 L10,16 L11,17 L13,15 L14,20 L12,21 L10,24 L3,11 L-1,5 L1,5 L-2,1 Z " fill="#A3AFA2" transform="translate(259,88)"/>
<path d="M0,0 L3,3 L5,7 L4,11 L-1,6 L-4,5 L-6,9 L-9,12 L-10,17 L-13,16 L-16,17 L-14,11 L-10,6 Z " fill="#687C66" transform="translate(156,196)"/>
<path d="M0,0 L7,0 L6,3 L-7,4 L-49,4 L-53,3 L-53,1 L-41,1 L-37,2 L-12,2 Z " fill="#526C5A" transform="translate(181,241)"/>
<path d="M0,0 L1,0 L2,9 L2,36 L1,34 L-2,35 L-2,3 L-3,1 Z " fill="#173724" transform="translate(251,148)"/>
<path d="M0,0 L2,1 L3,7 L5,7 L8,18 L16,21 L18,23 L18,25 L7,24 L5,22 L5,17 L3,17 L0,8 Z " fill="#294836" transform="translate(245,122)"/>
<path d="M0,0 L6,0 L4,1 L4,3 L-23,6 L-25,5 L-46,5 L-46,3 L-15,2 Z " fill="#82927A" transform="translate(201,231)"/>
<path d="M0,0 L5,3 L5,5 L11,4 L12,8 L15,10 L15,12 L19,19 L22,22 L24,28 L25,30 L23,34 L18,22 L10,11 L5,7 L-1,2 Z " fill="#4B6554" transform="translate(80,84)"/>
<path d="M0,0 L1,0 L2,18 L2,32 L3,25 L5,25 L6,31 L8,32 L3,37 L2,40 L-1,41 Z " fill="#7F8F7B" transform="translate(147,153)"/>
<path d="M0,0 L13,0 L27,1 L35,2 L43,4 L44,9 L45,13 L43,14 L40,7 L38,5 L31,5 L28,4 L20,4 L23,6 L16,6 L15,2 L-1,2 Z " fill="#C0C9C5" transform="translate(177,64)"/>
<path d="M0,0 L4,1 L8,9 L7,16 L8,22 L4,22 L2,17 L1,8 L0,4 L-2,3 L0,3 Z " fill="#EEF0EF" transform="translate(107,112)"/>
<path d="M0,0 L3,4 L1,4 L-1,12 L-2,22 L-7,22 L-11,18 L-14,16 L-7,15 L-5,10 Z " fill="#8C9B8B" transform="translate(228,213)"/>
<path d="M0,0 L15,3 L15,8 L13,8 L13,10 L2,10 L3,6 L-2,4 L-2,2 L0,2 Z " fill="#657B67" transform="translate(124,139)"/>
<path d="M0,0 L1,0 L1,100 L0,100 Z " fill="#D8E1D7" transform="translate(75,109)"/>
<path d="M0,0 L2,4 L2,14 L13,15 L18,18 L16,21 L8,22 L8,20 L12,18 L6,19 L3,17 L-1,17 L-1,4 Z " fill="#2B4938" transform="translate(121,170)"/>
<path d="M0,0 L2,1 L1,2 L4,3 L3,5 L-2,6 L-4,9 L-3,16 L1,26 L0,28 L-2,23 L-8,22 L-8,19 L-6,17 L-6,13 L-10,12 L-9,6 L-7,4 L-3,4 L-2,1 Z " fill="#395542" transform="translate(105,74)"/>
<path d="M0,0 L1,0 L3,8 L3,39 L1,40 L0,34 Z M0,40 Z " fill="#133320" transform="translate(236,143)"/>
<path d="M0,0 L14,0 L14,2 L15,1 L20,1 L19,4 L29,7 L32,8 L31,10 L23,9 L16,7 L0,2 Z " fill="#8D9D91" transform="translate(156,62)"/>
<path d="M0,0 L1,4 L-3,17 L-8,28 L-11,27 L-10,21 L-7,19 L-6,12 L-10,10 L-8,5 L-6,7 L-4,3 L-3,8 Z " fill="#2D4C3B" transform="translate(287,185)"/>
<path d="M0,0 L1,0 L2,5 L3,32 L-1,30 L-2,20 L-1,1 Z " fill="#647963" transform="translate(57,175)"/>
<path d="M0,0 L10,3 L13,7 L14,11 L15,18 L14,15 L9,16 L8,10 L5,9 L1,2 Z M13,18 Z " fill="#FAFAFA" transform="translate(93,94)"/>
<path d="M0,0 L4,1 L7,2 L11,8 L16,12 L12,14 L9,10 L6,10 L3,8 L0,9 L-3,5 L-1,5 L-2,1 L2,2 Z " fill="#5A715F" transform="translate(41,211)"/>
<path d="M0,0 L2,1 L3,5 L3,24 L1,37 L-1,36 L0,32 L0,9 L1,6 L-1,6 L-1,13 L-2,13 L-2,3 L0,3 Z " fill="#EBEDEC" transform="translate(285,145)"/>
<path d="M0,0 L1,4 L7,3 L11,5 L11,7 L2,6 L0,5 L1,11 L2,16 L1,17 L2,22 L0,22 L-1,25 L-3,14 L-4,10 L-2,10 L-3,6 L-6,6 L-5,9 L-7,9 L-9,4 L-1,4 Z " fill="#345240" transform="translate(235,79)"/>
<path d="M0,0 L1,3 L-3,6 L1,7 L3,3 L3,5 L8,7 L10,3 L12,3 L10,9 L5,10 L3,9 L-1,10 L-5,8 L-14,9 L-23,9 L-22,7 L-17,7 L-15,6 L-5,4 L-1,2 Z " fill="#3F5C4A" transform="translate(263,216)"/>
<path d="M0,0 L6,1 L6,3 L10,0 L18,0 L24,1 L28,2 L26,3 L18,3 L16,4 L16,6 L0,5 Z " fill="#345241" transform="translate(187,67)"/>
<path d="M0,0 L2,1 L5,10 L5,17 L4,21 L6,21 L5,33 L3,48 L2,48 L2,33 L3,31 L3,22 L0,7 Z " fill="#173824" transform="translate(160,126)"/>
<path d="M0,0 L2,0 L7,12 L13,23 L16,26 L18,24 L22,31 L21,33 L17,31 L10,23 L3,11 Z " fill="#677E71" transform="translate(26,193)"/>
<path d="M0,0 L1,0 L0,12 L3,4 L5,7 L5,10 L7,12 L6,19 L4,20 L3,18 L1,20 L-1,20 L-3,18 L-1,4 Z " fill="#B9C1B6" transform="translate(279,174)"/>
<path d="M0,0 L1,0 L2,12 L6,14 L1,15 L0,17 L-2,13 L-8,16 L-12,17 L-9,11 L-8,10 L-9,4 L-8,6 L-2,8 L-1,9 L-1,2 Z " fill="#3E5A47" transform="translate(161,174)"/>
<path d="M0,0 L1,0 L2,10 L2,23 L0,41 L-2,45 L-4,41 L-5,39 L-2,35 L-1,25 L-1,6 L-2,1 Z " fill="#133320" transform="translate(288,144)"/>
<path d="M0,0 L2,4 L6,17 L6,31 L7,43 L5,46 L2,21 L4,21 L-1,4 Z " fill="#314F3E" transform="translate(230,113)"/>
<path d="M0,0 L4,1 L8,7 L7,14 L10,14 L8,19 L6,19 L6,22 L4,22 L5,18 L5,15 L3,16 L2,14 L2,4 L0,3 Z " fill="#385543" transform="translate(266,90)"/>
<path d="M0,0 L2,0 L2,9 L1,19 L2,20 L2,32 L4,37 L2,38 L0,34 L0,25 L-1,25 L-3,9 L-2,9 L-1,1 Z " fill="#143521" transform="translate(27,144)"/>
<path d="M0,0 L2,2 L5,12 L4,18 L2,20 L2,14 L0,13 L-5,9 L-5,5 L-3,5 L-2,2 L0,2 Z " fill="#607767" transform="translate(118,123)"/>
<path d="M0,0 L20,1 L20,2 L29,3 L31,5 L12,5 L0,3 Z " fill="#3B5846" transform="translate(97,238)"/>
<path d="M0,0 L2,1 L-1,10 L-3,11 L-6,10 L-6,12 L-4,12 L-5,15 L-8,15 L-8,20 L-11,20 L-14,27 L-15,27 L-14,20 L-8,9 L-6,9 L-5,5 Z " fill="#617765" transform="translate(58,97)"/>
<path d="M0,0 L1,0 L2,29 L8,29 L8,30 L3,30 L6,40 L5,44 L3,41 L1,30 L-1,26 L-1,15 L-2,11 Z " fill="#677D69" transform="translate(29,149)"/>
<path d="M0,0 L5,0 L6,4 L6,8 L-1,8 L1,14 L1,18 L-2,19 L-3,12 L-10,10 L-7,8 L-4,8 L-3,5 L4,5 L2,4 L2,1 Z " fill="#758772" transform="translate(249,111)"/>
<path d="M0,0 L7,1 L13,4 L13,6 L22,9 L23,11 L13,9 L10,10 L5,9 L4,4 L5,2 L0,1 Z " fill="#839484" transform="translate(132,46)"/>
<path d="M0,0 L1,2 L4,1 L5,4 L-1,3 L-4,9 L-6,16 L-9,17 L-10,20 L-19,24 L-23,23 L-13,18 L-4,2 Z " fill="#6A7D65" transform="translate(143,211)"/>
<path d="M0,0 L5,0 L5,2 L1,5 L-4,10 L-5,12 L-3,17 L-7,15 L-9,9 L-7,3 Z " fill="#6A7F6C" transform="translate(59,20)"/>
<path d="M0,0 L1,0 L4,19 L5,23 L5,29 L7,35 L5,37 L3,30 L2,24 L0,23 L-1,19 L0,10 Z " fill="#B6C0BA" transform="translate(23,149)"/>
<path d="M0,0 L3,3 L5,7 L6,9 L6,24 L5,24 L5,19 L3,19 L1,10 L-1,17 L-2,17 L-1,4 Z M-3,17 Z " fill="#294837" transform="translate(24,125)"/>
<path d="M0,0 L5,1 L2,3 L13,6 L19,7 L23,5 L28,6 L28,7 L23,8 L22,10 L9,9 L9,7 L-2,5 L-4,1 Z " fill="#254533" transform="translate(74,230)"/>
<path d="M0,0 L8,0 L6,6 L0,5 L2,3 L-6,4 L-24,9 L-27,9 L-27,7 L-5,1 Z " fill="#BCC6B6" transform="translate(94,67)"/>
<path d="M0,0 L9,0 L20,3 L20,4 L10,4 L25,5 L24,7 L21,8 L18,9 L7,6 L8,3 L2,4 Z " fill="#294937" transform="translate(167,61)"/>
<path d="M0,0 L4,2 L8,9 L13,12 L13,15 L16,16 L13,17 L8,15 L5,14 L5,12 L2,12 L1,7 L-1,1 Z " fill="#385542" transform="translate(238,100)"/>
<path d="M0,0 L11,1 L20,2 L20,3 L15,4 L-10,4 L-16,2 L-16,1 L0,1 Z " fill="#12321F" transform="translate(154,240)"/>
<path d="M0,0 L4,3 L9,4 L11,3 L11,9 L16,10 L16,12 L14,13 L13,20 L12,20 L11,13 L4,11 L3,8 L6,7 L0,2 Z " fill="#425E4D" transform="translate(58,206)"/>
<path d="M0,0 L1,0 L4,16 L4,11 L6,15 L7,20 L8,20 L8,26 L7,29 L9,34 L8,38 L3,24 L0,10 Z " fill="#C0CABB" transform="translate(20,166)"/>
<path d="M0,0 L1,0 L4,24 L7,30 L6,36 L8,36 L9,43 L6,39 L3,31 L0,15 Z " fill="#75876F" transform="translate(37,157)"/>
<path d="M0,0 L2,0 L2,71 L0,71 L0,4 L-1,2 Z " fill="#A8AD87" transform="translate(50,122)"/>
<path d="M0,0 L1,2 L5,2 L4,4 L3,5 L10,7 L16,6 L21,8 L22,10 L8,10 L-2,6 L-7,5 L-7,3 L-1,2 Z " fill="#2C4B39" transform="translate(145,53)"/>
<path d="M0,0 L1,2 L0,12 L-2,11 L-3,15 L-1,18 L-1,25 L-5,25 L-6,29 L-7,25 L-4,24 L-6,20 L-4,20 L-6,14 L-3,4 Z M-7,16 Z " fill="#405B48" transform="translate(277,191)"/>
<path d="M0,0 L6,1 L8,2 L8,4 L12,6 L11,8 L4,5 L-4,5 L-14,7 L-14,5 L-12,4 L-11,1 L-9,2 L-6,1 L-1,1 Z " fill="#476252" transform="translate(71,82)"/>
<path d="M0,0 L0,3 L-2,4 L-4,3 L-6,7 L-8,8 L-2,11 L-2,12 L-9,11 L-12,7 L-25,7 L-23,5 L-13,4 L-7,3 Z " fill="#375443" transform="translate(133,230)"/>
<path d="M0,0 L3,1 L1,4 L16,6 L13,8 L-5,9 L-4,6 L-2,6 L-3,2 Z " fill="#637863" transform="translate(102,227)"/>
<path d="M0,0 L2,1 L3,6 L3,21 L0,31 L-2,30 L-1,27 L-1,1 Z " fill="#C4CBB5" transform="translate(84,272)"/>
<path d="M0,0 L6,0 L6,1 L19,1 L20,6 L11,6 L11,5 L-7,3 L-7,2 Z " fill="#FAFAFA" transform="translate(104,235)"/>
<path d="M0,0 L2,3 L2,11 L0,17 L-5,18 L-5,12 Z " fill="#AEB9B3" transform="translate(113,183)"/>
<path d="M0,0 L7,1 L7,3 L13,4 L18,5 L18,6 L12,7 L6,5 L1,6 L-6,4 L-8,2 L-4,1 Z " fill="#A5B1A5" transform="translate(154,55)"/>
<path d="M0,0 L2,4 L3,11 L0,8 L1,15 L2,12 L4,12 L5,16 L3,16 L4,23 L7,24 L5,26 L1,21 L-2,14 L-2,11 L-4,11 L-3,7 Z " fill="#1D3D2B" transform="translate(30,182)"/>
<path d="M0,0 L3,1 L3,21 L1,21 L2,26 L-1,30 L-1,1 Z " fill="#133421" transform="translate(149,157)"/>
<path d="M0,0 L2,2 L4,11 L7,8 L7,11 L9,12 L4,17 L-1,19 L-1,16 L-3,15 L0,15 Z M1,8 Z " fill="#365241" transform="translate(235,175)"/>
<path d="M0,0 L4,2 L5,0 L4,9 L1,12 L0,17 L-2,18 L-3,12 L-4,10 L-2,5 L-1,5 Z " fill="#F3F4F3" transform="translate(277,195)"/>
<path d="M0,0 L2,4 L2,31 L-1,34 L-2,25 L-1,25 Z " fill="#12311F" transform="translate(165,152)"/>
<path d="M0,0 L4,1 L2,5 L-6,15 L-9,17 L-11,21 L-13,20 L-11,15 L-8,11 L-9,9 L-5,6 L-4,8 L-1,4 L1,2 Z " fill="#294937" transform="translate(49,89)"/>
<path d="M0,0 L2,0 L4,3 L7,3 L6,6 L2,6 L3,12 L5,12 L4,15 L-1,10 L-5,6 L-8,4 L-3,3 L-1,4 Z " fill="#46604E" transform="translate(111,75)"/>
<path d="M0,0 L12,4 L11,7 L7,6 L9,9 L3,10 L3,8 L-1,7 L-8,6 L-7,3 L-6,5 L3,4 L0,2 Z " fill="#2D4C39" transform="translate(56,223)"/>
<path d="M0,0 L2,4 L2,25 L-1,27 L-1,7 Z " fill="#526B5C" transform="translate(247,152)"/>
<path d="M0,0 L4,0 L5,8 L4,11 L6,16 L4,21 L3,21 L1,14 Z " fill="#4C6551" transform="translate(145,137)"/>
<path d="M0,0 L1,0 L2,14 L1,23 L-1,22 L-2,18 L-4,19 L-4,12 L-2,10 Z " fill="#788B80" transform="translate(25,131)"/>
<path d="M0,0 L4,1 L8,9 L8,11 L16,12 L16,13 L4,14 L4,12 L6,12 L4,7 L-2,6 L-2,2 L2,3 L2,1 Z " fill="#778A7B" transform="translate(218,141)"/>
<path d="M0,0 L4,1 L4,19 L3,19 L1,11 L-2,11 L-4,17 L-5,17 L-5,12 L-3,12 L-3,5 L1,4 L2,2 L0,2 Z " fill="#EBEEEC" transform="translate(52,107)"/>
<path d="M0,0 L4,1 L7,0 L15,5 L16,9 L12,7 L4,6 L0,5 L0,2 L-2,1 Z " fill="#87988B" transform="translate(128,92)"/>
<path d="M0,0 L22,1 L35,0 L39,2 L37,3 L27,3 L17,4 L0,1 Z " fill="#C5CDB7" transform="translate(181,62)"/>
</svg>
