<?xml version="1.0" encoding="UTF-8"?>
<!-- Generator: visioncortex VTracer 0.6.12 -->
<svg version="1.1" xmlns="http://www.w3.org/2000/svg" width="329" height="344">
<path d="M0,0 L329,0 L329,344 L0,344 Z M251,21 L233,25 L224,27 L225,29 L215,31 L213,33 L202,37 L200,40 L195,42 L194,46 L191,48 L188,47 L187,50 L188,52 L185,51 L184,56 L183,63 L187,78 L181,75 L178,74 L171,72 L171,67 L172,65 L168,55 L166,48 L164,45 L159,38 L156,37 L156,32 L153,33 L152,35 L145,33 L131,33 L128,32 L117,35 L119,36 L119,38 L110,41 L107,42 L103,48 L103,54 L97,54 L94,60 L95,72 L98,74 L98,72 L100,72 L100,74 L105,75 L104,78 L116,77 L116,79 L118,81 L123,81 L123,83 L125,83 L126,88 L131,91 L132,100 L128,102 L130,103 L124,111 L124,115 L120,115 L120,112 L122,112 L123,109 L119,109 L122,104 L122,92 L120,89 L117,87 L117,86 L96,86 L90,88 L89,92 L85,92 L83,100 L84,106 L90,110 L100,110 L103,109 L102,114 L100,114 L99,117 L97,118 L98,125 L96,125 L97,131 L102,133 L102,144 L103,152 L104,205 L97,206 L85,206 L66,211 L67,213 L59,214 L58,217 L49,218 L49,220 L47,220 L48,224 L45,225 L46,231 L45,263 L44,273 L46,276 L48,266 L49,228 L53,232 L60,233 L61,237 L62,251 L63,254 L67,256 L67,240 L69,240 L69,237 L73,236 L77,237 L95,238 L105,239 L105,255 L109,257 L110,249 L113,243 L115,241 L126,241 L137,243 L158,243 L160,244 L196,244 L200,243 L204,259 L208,266 L210,263 L210,244 L215,240 L224,238 L256,236 L260,238 L263,245 L267,261 L269,263 L269,261 L271,261 L272,234 L276,229 L278,228 L280,246 L281,267 L283,266 L283,245 L279,219 L276,220 L277,216 L272,214 L256,213 L244,214 L245,211 L233,206 L229,205 L230,198 L232,198 L232,196 L236,195 L240,180 L248,161 L251,150 L252,145 L254,143 L254,132 L255,132 L255,116 L250,98 L247,97 L243,89 L241,89 L241,86 L239,86 L239,81 L236,76 L235,72 L235,63 L240,57 L241,52 L248,50 L248,48 L252,47 L256,43 L258,41 L258,39 L265,35 L265,37 L259,39 L262,41 L267,40 L271,33 L270,30 L269,23 L267,24 L265,23 L266,21 Z M245,248 L237,252 L238,255 L235,256 L230,262 L228,262 L226,268 L224,268 L219,284 L218,291 L223,292 L226,291 L228,296 L235,299 L245,299 L253,293 L254,289 L256,289 L255,278 L249,268 L236,268 L236,264 L240,262 L245,258 L247,256 L249,251 L247,248 Z M81,250 L80,254 L82,269 L82,284 L82,287 L84,289 L93,289 L94,286 L92,278 L92,257 L94,257 L95,253 L87,252 L83,250 Z M131,253 L121,257 L119,260 L118,273 L120,281 L123,284 L130,287 L138,288 L139,290 L137,290 L135,294 L126,299 L125,302 L122,302 L122,304 L129,306 L140,300 L147,292 L147,289 L151,287 L151,284 L154,281 L154,268 L153,263 L151,263 L151,260 L149,260 L149,258 L139,253 Z M177,256 L179,267 L179,281 L177,290 L180,291 L185,291 L186,290 L192,291 L190,282 L190,260 L192,259 L189,256 Z M26,310 L25,312 L33,315 L60,315 L67,313 L67,311 L54,313 L40,313 Z " fill="#F8F8F8" transform="translate(0,0)"/>
<path d="M0,0 L15,0 L14,2 L17,2 L19,4 L19,10 L20,12 L16,19 L11,20 L8,18 L14,16 L14,14 L1,19 L-3,22 L-11,28 L-21,29 L-22,32 L-25,33 L-26,42 L-20,53 L-19,53 L-19,42 L-17,38 L-13,37 L-16,42 L-16,51 L-13,59 L-12,60 L-12,65 L-10,65 L-10,68 L-8,68 L-3,77 L-1,77 L4,95 L4,111 L3,111 L3,122 L1,126 L-2,136 L-7,150 L-12,161 L-15,174 L-19,175 L-19,177 L-21,177 L-22,184 L-7,189 L-6,191 L-7,194 L1,194 L21,197 L26,200 L23,207 L19,207 L19,234 L18,236 L15,236 L12,224 L10,215 L9,211 L-12,214 L-32,216 L-39,219 L-41,223 L-41,242 L-43,245 L-48,235 L-51,222 L-55,223 L-91,223 L-93,222 L-93,220 L-108,220 L-124,219 L-136,219 L-139,223 L-141,228 L-142,236 L-146,234 L-146,218 L-174,216 L-180,215 L-182,216 L-182,219 L-184,219 L-184,235 L-188,233 L-189,230 L-190,216 L-191,210 L-199,208 L-203,204 L-204,199 L-202,199 L-202,197 L-193,196 L-192,193 L-184,192 L-185,190 L-178,189 L-177,190 L-167,189 L-151,187 L-148,186 L-146,182 L-140,182 L-139,180 L-138,178 L-139,123 L-146,121 L-146,118 L-148,118 L-150,111 L-154,110 L-155,104 L-153,104 L-154,97 L-152,96 L-151,93 L-149,93 L-148,88 L-156,89 L-163,88 L-168,83 L-167,73 L-165,71 L-161,71 L-161,67 L-155,65 L-134,65 L-134,67 L-130,68 L-129,71 L-129,83 L-134,88 L-136,88 L-134,94 L-135,101 L-134,102 L-133,95 L-124,93 L-118,89 L-114,83 L-113,80 L-111,80 L-111,52 L-119,48 L-119,50 L-124,52 L-128,52 L-127,47 L-145,48 L-146,44 L-146,35 L-148,35 L-148,27 L-144,21 L-138,19 L-132,17 L-132,15 L-134,14 L-121,11 L-120,12 L-106,12 L-99,14 L-96,11 L-95,13 L-94,17 L-92,17 L-87,24 L-84,31 L-80,42 L-79,46 L-80,46 L-80,51 L-73,53 L-70,54 L-64,57 L-68,42 L-67,35 L-66,30 L-63,31 L-64,28 L-62,26 L-59,27 L-56,23 L-55,20 L-50,18 L-47,15 L-37,11 L-32,9 L-26,8 L-27,6 L-18,4 Z M-116,25 L-125,27 L-130,31 L-130,36 L-126,36 L-126,38 L-117,38 L-114,35 L-113,31 L-115,31 L-114,27 Z M-87,31 L-88,55 L-89,65 L-87,66 L-80,66 L-76,65 L-68,65 L-59,66 L-63,63 L-68,62 L-76,62 L-86,64 L-85,47 L-85,42 L-83,42 L-84,37 L-86,31 Z M-95,113 L-95,127 L-93,132 L-84,133 L-80,132 L-78,144 L-77,144 L-76,130 L-78,127 L-82,129 L-85,130 L-92,131 L-93,114 Z M-125,116 L-134,121 L-134,185 L-125,185 L-124,180 L-123,180 L-121,167 L-115,158 L-114,154 L-119,140 L-120,133 L-122,133 L-123,123 L-124,116 Z M-95,195 L-99,197 L-115,196 L-130,196 L-146,197 L-149,198 L-150,203 L-148,203 L-147,206 L-145,205 L-144,208 L-140,209 L-139,206 L-141,206 L-142,201 L-143,200 L-119,199 L-111,200 L-94,200 L-91,199 L-91,195 Z M-136,203 L-138,205 L-135,206 L-135,210 L-129,213 L-113,212 L-107,213 L-78,213 L-72,211 L-72,210 L-88,210 L-121,209 L-131,210 L-132,203 Z M-149,118 Z " fill="#F2F1EE" transform="translate(251,21)"/>
<path d="M0,0 L8,0 L18,5 L18,7 L20,7 L20,10 L22,10 L23,15 L23,28 L20,32 L18,36 L16,36 L15,40 L9,47 L-2,53 L-9,51 L-8,49 L-5,48 L-5,46 L5,40 L6,37 L8,37 L7,35 L-5,33 L-10,28 L-12,24 L-13,14 L-11,5 L-4,1 Z M0,9 L-3,16 L-4,22 L0,24 L11,25 L14,21 L14,17 L12,17 L11,11 Z " fill="#DDD7CE" transform="translate(131,253)"/>
<path d="M0,0 L2,0 L4,4 L2,8 L-3,12 L-7,16 L-9,16 L-9,20 L4,20 L10,30 L11,41 L9,41 L8,45 L0,51 L-10,51 L-17,48 L-19,43 L-24,44 L-27,43 L-24,29 L-21,20 L-19,20 L-17,14 L-13,12 L-10,8 L-7,7 L-8,4 Z M-7,27 L-12,30 L-14,37 L-8,39 L-1,39 L1,36 L0,30 L-4,27 Z " fill="#DDD7CF" transform="translate(245,248)"/>
<path d="M0,0 L6,0 L6,2 L8,2 L9,11 L9,14 L27,14 L26,19 L35,17 L35,15 L40,16 L44,19 L44,44 L43,47 L41,47 L40,52 L34,59 L28,62 L21,62 L20,69 L18,68 L19,59 L18,55 L22,54 L26,56 L25,58 L23,58 L23,61 L27,61 L28,56 L33,49 L31,48 L35,46 L34,37 L28,33 L28,29 L26,29 L26,27 L21,27 L19,23 L7,24 L8,21 L3,20 L3,18 L1,18 L0,20 L-2,16 L-3,6 Z " fill="#DCD5CD" transform="translate(97,54)"/>
<path d="M0,0 L1,4 L3,13 L3,17 L5,17 L7,27 L11,38 L9,44 L4,51 L2,64 L0,68 L0,69 L-9,69 L-9,5 Z " fill="#F9F9F9" transform="translate(126,137)"/>
<path d="M0,0 L5,2 L7,6 L8,26 L8,54 L3,60 L1,60 Z " fill="#F9F9F9" transform="translate(104,144)"/>
<path d="M0,0 L2,1 L0,3 L1,5 L-4,8 L-6,11 L-9,11 L-9,13 L-16,15 L-18,21 L-23,22 L-24,26 L-24,38 L-27,37 L-33,26 L-32,19 L-31,17 L-33,16 L-28,15 L-25,12 L-15,10 L-9,5 L-7,3 L-3,1 Z " fill="#D0C8BD" transform="translate(257,37)"/>
<path d="M0,0 L6,1 L6,2 L14,3 L13,7 L11,7 L11,12 L9,11 L9,27 L10,35 L9,37 L2,36 L1,29 L1,19 L-1,2 Z " fill="#DFD9D1" transform="translate(81,250)"/>
<path d="M0,0 L7,1 L6,5 L6,24 L7,30 L9,30 L10,33 L-3,31 L-2,27 L-2,2 Z " fill="#F2F1EF" transform="translate(182,258)"/>
<path d="M0,0 L11,2 L12,8 L14,8 L13,14 L9,16 L0,15 L-4,13 L-2,5 Z " fill="#F5F4F1" transform="translate(131,262)"/>
<path d="M0,0 L4,0 L5,7 L15,6 L59,7 L64,7 L62,9 L58,10 L29,10 L19,9 L7,10 L1,7 L1,3 L-2,2 Z " fill="#A49177" transform="translate(115,224)"/>
<path d="M0,0 L2,3 L1,6 L3,6 L1,12 L-1,13 L-10,13 L-10,11 L-14,11 L-14,6 L-9,2 Z " fill="#E4DED6" transform="translate(135,46)"/>
<path d="M0,0 L2,3 L8,5 L9,9 L10,60 L9,62 L11,63 L7,64 L3,65 L7,59 L7,31 L6,11 L4,7 L0,5 Z " fill="#9B886B" transform="translate(104,139)"/>
<path d="M0,0 L4,2 L8,5 L14,7 L14,9 L5,7 L3,4 L2,42 L0,52 L-2,49 L-1,39 L0,7 L-1,1 Z " fill="#E3DACC" transform="translate(46,224)"/>
<path d="M0,0 L4,1 L7,3 L8,9 L6,12 L-1,12 L-7,10 L-5,3 Z " fill="#F8F7F5" transform="translate(238,275)"/>
<path d="M0,0 L6,0 L9,6 L8,9 L5,5 L-3,4 L-30,6 L-41,9 L-44,8 L-39,5 L-29,3 L-7,1 Z " fill="#A89579" transform="translate(254,232)"/>
<path d="M0,0 L2,4 L4,8 L3,11 L2,11 L2,23 L1,33 L11,31 L19,31 L28,34 L28,35 L11,34 L7,35 L0,35 L-2,33 L-1,24 Z " fill="#A49175" transform="translate(164,52)"/>
<path d="M0,0 L21,0 L25,2 L3,3 L5,5 L5,9 L7,10 L6,12 L1,10 L1,8 L-2,9 L-2,6 L-4,5 L-3,1 Z " fill="#AD9C83" transform="translate(105,218)"/>
<path d="M0,0 L2,4 L5,26 L5,48 L3,48 L2,27 L0,8 L-2,8 L-2,1 Z " fill="#EDE7DC" transform="translate(278,219)"/>
<path d="M0,0 L2,3 L-23,7 L-28,7 L-29,4 L-17,1 L-3,1 Z " fill="#D2C9BC" transform="translate(102,205)"/>
<path d="M0,0 L16,1 L21,3 L20,7 L3,4 L-12,2 L-12,1 Z " fill="#CDC3B6" transform="translate(256,213)"/>
<path d="M0,0 L2,1 L3,18 L13,17 L13,15 L18,14 L19,20 L18,31 L17,31 L15,19 L6,20 L2,19 L0,14 Z " fill="#A28F73" transform="translate(156,134)"/>
<path d="M0,0 L4,1 L4,4 L1,5 L-16,5 L-35,2 L-35,1 L-20,1 L-4,2 Z " fill="#A89579" transform="translate(156,216)"/>
<path d="M0,0 L7,0 L10,3 L8,4 L8,32 L6,30 L5,26 L5,7 L7,3 L0,2 Z " fill="#AB987E" transform="translate(182,256)"/>
<path d="M0,0 L1,0 L2,21 L4,31 L3,32 L-6,32 L-8,30 L-5,29 L0,30 L-1,20 L-1,4 Z " fill="#A69376" transform="translate(90,257)"/>
<path d="M0,0 L13,0 L44,2 L43,4 L23,4 L12,2 L0,1 Z " fill="#9A866B" transform="translate(114,239)"/>
<path d="M0,0 L1,0 L2,6 L2,64 L1,64 L0,13 L-1,1 Z " fill="#F6F5F3" transform="translate(103,139)"/>
<path d="M0,0 L14,3 L28,3 L41,1 L41,3 L34,5 L7,5 L-1,2 Z " fill="#F2EBE0" transform="translate(26,310)"/>
<path d="M0,0 L5,0 L4,7 L4,29 L4,33 L8,35 L1,35 L0,32 L2,25 L2,11 Z " fill="#A59276" transform="translate(177,256)"/>
<path d="M0,0 L1,2 L3,3 L-2,7 L-3,9 L-4,36 L-6,36 L-7,38 L-8,32 L-6,32 L-5,3 L-1,2 Z " fill="#AC9A81" transform="translate(275,225)"/>
</svg>
