<?xml version="1.0" encoding="UTF-8"?>
<!-- Generator: visioncortex VTracer 0.6.12 -->
<svg version="1.1" xmlns="http://www.w3.org/2000/svg" width="437" height="344">
<path d="M0,0 L437,0 L437,344 L0,344 Z M355,22 L344,25 L340,28 L338,29 L338,32 L336,32 L335,36 L335,44 L332,43 L114,43 L109,44 L108,34 L106,34 L106,31 L101,27 L93,24 L86,23 L71,23 L65,29 L59,56 L56,58 L56,69 L52,85 L48,98 L43,114 L43,121 L46,122 L56,122 L55,128 L56,129 L389,130 L392,124 L392,122 L398,122 L399,119 L404,118 L400,104 L396,98 L394,98 L393,90 L387,69 L386,58 L384,54 L380,32 L377,24 L374,22 Z M65,138 L59,139 L59,141 L53,142 L52,146 L52,253 L53,255 L50,257 L70,261 L75,261 L77,260 L78,231 L79,227 L86,225 L89,222 L89,220 L106,219 L110,218 L110,201 L106,200 L92,199 L86,196 L88,194 L79,192 L78,190 L78,157 L86,156 L91,156 L91,195 L110,195 L110,159 L108,155 L102,153 L102,146 L99,147 L97,143 L93,140 L74,138 Z M196,140 L192,142 L191,148 L189,148 L188,146 L185,149 L185,179 L188,182 L188,183 L251,183 L250,149 L247,149 L244,140 Z M311,141 L309,143 L310,263 L314,262 L316,260 L313,257 L313,143 Z M267,146 L267,226 L269,227 L268,228 L268,261 L265,262 L277,261 L288,259 L294,255 L295,229 L297,224 L299,222 L299,218 L297,217 L271,217 L270,153 L268,146 Z M167,152 L168,217 L137,217 L137,222 L138,219 L168,219 L171,213 L171,156 L169,152 Z M333,153 L329,154 L328,159 L328,191 L329,195 L332,194 L331,193 L331,156 L348,155 L345,153 Z M354,153 L348,156 L347,193 L352,194 L353,196 L363,195 L363,155 L360,153 Z M207,189 L207,192 L204,192 L203,197 L203,216 L208,218 L217,218 L221,215 L225,215 L226,218 L226,216 L232,216 L238,218 L251,218 L250,192 L245,193 L245,191 L247,190 L245,189 Z M190,191 L188,195 L186,195 L185,202 L185,214 L187,216 L190,216 L190,218 L199,218 L201,212 L201,192 L199,191 Z M388,193 L387,252 L390,254 L388,256 L393,256 L394,253 L392,247 L391,247 L390,196 Z M332,200 L328,205 L328,214 L332,219 L349,219 L349,223 L351,227 L360,226 L359,224 L354,224 L353,217 L335,216 L331,214 L331,204 L334,203 Z M170,220 L169,225 L164,224 L148,224 L141,226 L144,227 L144,258 L153,262 L169,265 L173,265 L172,261 L171,220 Z M332,224 L328,225 L328,254 L329,258 L321,258 L325,260 L333,260 L344,263 L348,263 L349,229 L347,230 L346,259 L345,261 L334,258 L330,258 L331,228 L330,227 L347,226 L349,224 Z M190,225 L188,226 L188,228 L186,228 L185,230 L185,268 L183,269 L186,271 L188,279 L194,281 L242,281 L246,272 L250,267 L259,264 L265,263 L261,261 L255,260 L252,262 L251,229 L247,225 Z M94,226 L91,231 L91,257 L92,259 L94,259 L94,262 L103,260 L114,260 L111,252 L110,226 L107,226 L107,228 L104,226 Z " fill="#F6F6F6" transform="translate(0,0)"/>
<path d="M0,0 L19,0 L23,3 L27,19 L29,32 L31,36 L33,51 L45,94 L44,99 L43,100 L37,100 L37,102 L34,103 L33,103 L33,105 L29,106 L-298,106 L-300,105 L-298,100 L-309,100 L-312,99 L-312,92 L-307,76 L-301,57 L-299,47 L-299,36 L-296,34 L-290,7 L-284,1 L-269,1 L-265,2 L-264,52 L-261,56 L-251,47 L-247,44 L-246,22 L-241,21 L-23,21 L-20,23 L-19,42 L-15,48 L-7,55 L-4,57 L-3,15 L-2,3 Z " fill="#F9F9F9" transform="translate(355,22)"/>
<path d="M0,0 L9,0 L28,2 L34,7 L34,10 L23,9 L22,16 L13,17 L13,52 L14,54 L23,56 L21,58 L21,61 L27,63 L40,64 L43,65 L43,74 L41,79 L25,80 L21,82 L21,87 L14,89 L13,93 L12,122 L5,123 L-15,119 L-12,117 L-13,115 L-13,8 L-12,4 L-6,3 L-6,1 Z " fill="#F0F0F0" transform="translate(65,138)"/>
<path d="M0,0 L53,0 L56,2 L57,5 L58,39 L53,43 L50,52 L40,53 L14,52 L11,53 L10,47 L11,19 L13,15 L14,14 L10,14 L9,53 L2,53 L-3,50 L-5,41 L-5,5 L-4,1 Z " fill="#F8F8F8" transform="translate(192,227)"/>
<path d="M0,0 L48,0 L51,9 L53,12 L53,39 L52,41 L-5,41 L-8,38 L-9,36 L-9,15 L-4,2 Z " fill="#FAFAFA" transform="translate(196,140)"/>
<path d="M0,0 L9,2 L13,4 L16,7 L16,10 L18,10 L19,22 L19,42 L7,53 L3,55 L0,50 Z " fill="#DDE0DD" transform="translate(90,24)"/>
<path d="M0,0 L22,0 L23,4 L24,38 L8,35 L0,32 L-1,28 L-1,4 Z " fill="#FAFAFA" transform="translate(146,226)"/>
<path d="M0,0 L1,2 L0,14 L-1,52 L-2,56 L-6,54 L-16,45 L-18,41 L-19,21 L-17,9 L-15,9 L-14,6 L-11,3 L-7,1 Z " fill="#DBDEDB" transform="translate(353,23)"/>
<path d="M0,0 L17,0 L19,4 L19,26 L17,30 L13,32 L0,34 L-5,34 L-4,5 L-2,1 Z " fill="#FAFAFA" transform="translate(274,226)"/>
<path d="M0,0 L4,2 L6,3 L15,3 L20,6 L20,36 L17,41 L3,42 L3,4 L0,3 Z " fill="#F9F9F9" transform="translate(88,152)"/>
<path d="M0,0 L10,0 L13,2 L14,0 L15,3 L15,32 L4,34 L-2,33 L-3,31 L-3,5 Z " fill="#F8F8F8" transform="translate(94,226)"/>
<path d="M0,0 L6,2 L7,4 L7,35 L5,40 L-2,40 L-6,38 L-6,6 L-3,1 Z " fill="#FAFAFA" transform="translate(355,154)"/>
<path d="M0,0 L2,2 L3,7 L4,71 L30,71 L32,73 L32,77 L28,79 L5,79 L0,80 Z " fill="#CDD1CD" transform="translate(267,146)"/>
<path d="M0,0 L2,2 L2,117 L5,120 L2,122 L-1,122 L-2,1 Z " fill="#AFB7B1" transform="translate(311,141)"/>
<path d="M0,0 L7,1 L10,2 L10,28 L1,28 L-4,26 L-4,7 L-3,2 L0,2 Z " fill="#E4E5E2" transform="translate(207,190)"/>
<path d="M0,0 L5,1 L3,7 L-330,6 L-331,4 L2,4 Z " fill="#344C3B" transform="translate(386,123)"/>
<path d="M0,0 L332,0 L332,1 L3,2 Z " fill="#F7F7F7" transform="translate(53,121)"/>
<path d="M0,0 L9,0 L11,1 L11,21 L8,21 L8,25 L1,25 L-3,21 L-3,5 L0,1 Z " fill="#ECECEB" transform="translate(190,191)"/>
<path d="M0,0 L2,0 L4,4 L4,61 L1,67 L-29,67 L-30,70 L-30,65 L1,65 Z " fill="#838B81" transform="translate(167,152)"/>
<path d="M0,0 L6,2 L6,21 L5,24 L-2,24 L-4,19 L-4,2 Z " fill="#FAFAFA" transform="translate(243,192)"/>
<path d="M0,0 L6,2 L6,24 L0,24 L-1,26 L-3,20 L-3,2 Z " fill="#F9F9F9" transform="translate(226,192)"/>
<path d="M0,0 L17,0 L15,2 L-2,3 L-1,4 L-2,34 L6,35 L13,37 L14,35 L15,6 L17,5 L16,39 L8,38 L-2,36 L-11,35 L-11,34 L-3,34 L-4,30 L-4,1 Z " fill="#8E9289" transform="translate(332,224)"/>
<path d="M0,0 L1,0 L2,34 L-61,34 L-60,31 L-1,32 L-1,1 Z " fill="#AAABA4" transform="translate(249,149)"/>
<path d="M0,0 L1,0 L1,7 L7,9 L6,12 L2,10 L-7,9 L-8,11 L-8,9 L-11,8 L-13,6 L-12,10 L-23,10 L-21,8 L-14,8 L-13,1 L-2,1 Z " fill="#AFB1AB" transform="translate(101,146)"/>
<path d="M0,0 L2,3 L3,54 L4,54 L6,61 L5,63 L0,63 L2,61 L-1,59 Z " fill="#C4C0BB" transform="translate(388,193)"/>
<path d="M0,0 L8,1 L8,25 L11,29 L3,28 L3,4 L0,2 Z " fill="#F9F9F9" transform="translate(230,189)"/>
<path d="M0,0 L6,2 L20,3 L24,4 L24,21 L20,22 L3,23 L2,26 L0,25 L0,23 L4,20 L20,19 L22,6 L6,5 L0,2 Z " fill="#C6C0BC" transform="translate(86,197)"/>
<path d="M0,0 L6,0 L9,2 L9,42 L-2,43 L-2,41 L-7,40 L-6,3 Z M1,1 L-3,3 L-5,7 L-5,39 L-1,41 L6,41 L8,36 L8,5 L6,2 Z " fill="#465748" transform="translate(354,153)"/>
<path d="M0,0 L57,0 L57,3 L-2,3 L-2,1 Z " fill="#CAC5C1" transform="translate(190,225)"/>
<path d="M0,0 L8,0 L9,2 L3,5 L1,5 L2,22 L3,26 L10,27 L10,4 L12,3 L13,29 L4,29 L-1,25 L-1,8 Z " fill="#A5AAA3" transform="translate(238,189)"/>
<path d="M0,0 L7,1 L9,3 L8,25 L7,25 L6,4 L1,3 L-1,4 L-1,25 L-5,24 L-5,2 Z " fill="#99A39B" transform="translate(225,190)"/>
<path d="M0,0 L23,0 L23,1 L14,3 L13,27 L10,28 L9,25 L10,3 L0,1 Z " fill="#F9F9F9" transform="translate(207,189)"/>
<path d="M0,0 L16,0 L21,1 L20,5 L20,2 L-2,2 L-2,34 L16,38 L21,39 L21,40 L14,40 L-1,36 L-4,34 L-4,3 L-7,2 Z " fill="#979A92" transform="translate(148,224)"/>
<path d="M0,0 L4,2 L5,35 L8,33 L14,34 L18,36 L3,39 L2,36 L1,5 Z " fill="#BBBAB5" transform="translate(247,227)"/>
<path d="M0,0 L2,3 L-1,4 L-1,14 L3,16 L21,17 L22,24 L27,24 L28,26 L18,27 L17,23 L17,19 L0,19 L-4,14 L-4,5 Z " fill="#B7B4AF" transform="translate(332,200)"/>
<path d="M0,0 L12,0 L15,2 L-2,3 L-2,40 L-1,42 L-4,42 L-5,38 L-5,6 L-4,1 Z " fill="#C2BDB8" transform="translate(333,153)"/>
<path d="M0,0 L2,0 L2,40 L4,49 L8,52 L2,51 L-1,42 L-3,40 L-1,40 L-1,2 Z " fill="#AEADA6" transform="translate(186,228)"/>
<path d="M0,0 L1,0 L1,36 L-18,36 L-15,34 L-4,33 L-2,29 L-1,2 Z " fill="#C9C4C0" transform="translate(109,159)"/>
<path d="M0,0 L24,0 L23,5 L22,31 L19,31 L20,28 L20,6 L19,2 L2,3 L0,4 L-1,7 L-3,7 L-2,2 Z " fill="#9A9C94" transform="translate(272,224)"/>
<path d="M0,0 L2,1 L-2,6 L-6,15 L-46,15 L-45,11 L-45,14 L-43,14 L-42,12 L-6,13 L-4,4 Z " fill="#A0A19A" transform="translate(248,266)"/>
<path d="M0,0 L2,0 L3,26 L6,34 L-5,34 L-14,36 L-14,34 L-6,32 L1,32 L0,28 Z " fill="#A7A8A1" transform="translate(108,226)"/>
<path d="M0,0 L2,3 L2,30 L1,32 L19,29 L23,28 L20,31 L3,34 L-3,34 L0,33 Z " fill="#969A91" transform="translate(268,228)"/>
<path d="M0,0 L9,0 L9,1 L-1,3 L-2,6 L-3,34 L-4,41 L-12,41 L-12,40 L-5,40 L-5,5 L-4,1 Z " fill="#B9B6B0" transform="translate(206,240)"/>
<path d="M0,0 L1,0 L2,41 L3,45 L-1,44 L-2,9 L0,9 L-1,1 Z " fill="#979A92" transform="translate(170,220)"/>
<path d="M0,0 L2,2 L1,7 L0,9 L0,30 L1,35 L-3,33 L-3,3 Z " fill="#BFC0BB" transform="translate(188,146)"/>
<path d="M0,0 L1,0 L2,17 L5,20 L12,21 L12,17 L14,17 L14,22 L13,23 L4,23 L4,21 L0,20 L-1,19 L-1,7 Z " fill="#ACADA7" transform="translate(186,195)"/>
<path d="M0,0 L4,4 L8,15 L9,20 L5,21 L0,4 Z " fill="#D7D3D0" transform="translate(395,98)"/>
</svg>
