<?xml version="1.0" encoding="UTF-8"?>
<!-- Generator: visioncortex VTracer 0.6.12 -->
<svg version="1.1" xmlns="http://www.w3.org/2000/svg" width="368" height="344">
<path d="M0,0 L368,0 L368,344 L0,344 Z M62,23 L54,26 L51,29 L43,33 L40,36 L35,41 L29,51 L22,67 L24,85 L29,90 L36,96 L38,95 L37,100 L43,103 L46,106 L48,106 L48,109 L52,112 L60,113 L66,118 L71,123 L80,129 L82,131 L85,132 L86,134 L84,135 L96,144 L100,146 L102,146 L104,152 L112,158 L120,164 L122,167 L127,171 L131,172 L131,179 L130,184 L130,187 L126,186 L122,196 L115,200 L114,203 L116,203 L116,205 L109,205 L106,209 L102,211 L98,216 L97,219 L93,223 L90,230 L87,230 L81,239 L81,241 L77,243 L74,246 L73,251 L71,253 L71,256 L68,257 L60,271 L57,277 L57,280 L53,282 L48,292 L45,303 L45,312 L43,312 L42,318 L44,319 L51,317 L51,319 L56,319 L58,317 L64,315 L67,312 L73,309 L79,308 L85,303 L86,296 L90,295 L91,297 L96,291 L101,289 L103,287 L103,285 L110,284 L113,280 L112,277 L117,278 L124,271 L125,267 L127,265 L127,263 L134,261 L140,256 L143,255 L144,252 L143,250 L148,250 L154,245 L158,238 L162,235 L165,230 L172,226 L182,221 L189,220 L188,223 L193,228 L197,230 L199,233 L202,233 L205,236 L206,240 L214,246 L219,256 L227,264 L237,271 L243,274 L251,276 L253,279 L254,280 L258,284 L264,288 L266,288 L267,290 L270,290 L269,292 L276,295 L286,301 L289,302 L294,301 L297,302 L299,301 L298,304 L305,314 L312,318 L328,319 L338,312 L343,306 L345,300 L346,296 L346,289 L343,280 L340,277 L339,276 L335,273 L330,272 L326,268 L324,258 L319,252 L314,249 L311,246 L307,238 L305,237 L305,239 L302,239 L301,232 L296,231 L295,228 L290,223 L287,216 L285,213 L281,211 L276,206 L273,203 L269,204 L269,202 L263,201 L267,200 L267,198 L260,196 L255,191 L248,184 L242,180 L235,172 L236,164 L240,156 L239,153 L242,154 L245,152 L245,150 L250,148 L254,144 L252,144 L254,142 L259,143 L269,134 L280,122 L286,112 L285,109 L289,110 L291,105 L295,103 L296,100 L301,95 L303,92 L303,90 L307,86 L314,73 L318,67 L316,67 L316,64 L320,64 L322,60 L324,57 L323,52 L326,52 L332,32 L332,28 L328,26 L325,27 L327,31 L324,31 L326,29 L319,28 L308,32 L305,34 L301,35 L295,39 L297,40 L297,42 L291,42 L286,47 L287,49 L284,48 L282,53 L282,55 L277,54 L272,56 L272,59 L265,61 L255,67 L252,74 L250,72 L249,76 L235,84 L225,93 L223,95 L222,98 L215,101 L215,105 L209,107 L207,112 L197,119 L190,122 L189,126 L183,124 L177,120 L175,116 L167,111 L166,109 L160,108 L160,110 L158,111 L156,110 L157,106 L161,107 L159,102 L156,101 L155,99 L150,96 L150,94 L142,87 L136,82 L133,81 L133,78 L130,77 L131,81 L124,78 L124,76 L120,75 L120,66 L114,61 L112,61 L110,53 L107,50 L105,46 L101,47 L102,44 L97,39 L94,38 L91,34 L89,34 L88,30 L83,26 L82,24 L72,23 L69,23 Z " fill="#F8F8F8" transform="translate(0,0)"/>
<path d="M0,0 L7,0 L10,0 L20,1 L21,3 L27,8 L27,11 L31,13 L28,14 L23,11 L22,10 L21,13 L16,14 L16,21 L11,31 L4,30 L5,37 L2,44 L-3,43 L-1,48 L-5,53 L-3,53 L-3,56 L1,55 L5,60 L9,64 L13,69 L15,71 L22,72 L23,69 L26,67 L27,65 L32,65 L32,70 L25,76 L26,81 L31,84 L36,90 L41,91 L44,95 L44,97 L47,100 L58,109 L64,114 L68,119 L68,121 L74,123 L80,130 L79,132 L75,131 L71,128 L67,127 L66,135 L66,138 L73,140 L75,143 L80,143 L78,137 L81,133 L84,135 L84,137 L92,136 L96,137 L101,132 L106,130 L107,138 L99,138 L98,149 L90,148 L85,152 L81,154 L79,157 L79,155 L77,155 L81,162 L81,164 L85,166 L89,174 L89,178 L93,178 L94,184 L97,185 L97,188 L99,187 L103,189 L107,194 L113,193 L120,188 L122,186 L124,182 L126,181 L130,183 L128,176 L117,169 L110,163 L113,163 L124,170 L126,168 L129,168 L139,168 L135,170 L141,170 L141,162 L135,154 L130,149 L128,147 L127,142 L127,138 L127,123 L124,116 L123,116 L123,109 L127,110 L130,106 L137,106 L130,104 L130,102 L128,102 L128,99 L140,93 L145,89 L147,87 L150,90 L145,99 L146,104 L150,110 L154,113 L156,116 L158,121 L160,127 L163,137 L164,141 L162,141 L161,150 L160,152 L164,153 L163,157 L163,160 L161,165 L154,165 L152,172 L148,173 L147,177 L145,178 L144,186 L146,186 L146,192 L147,193 L147,188 L154,193 L159,197 L169,205 L175,212 L180,214 L184,210 L186,210 L190,204 L191,198 L193,196 L193,199 L195,199 L195,196 L199,196 L200,199 L202,198 L201,203 L196,212 L194,211 L193,215 L190,218 L188,218 L189,229 L191,231 L189,231 L189,233 L183,234 L180,228 L181,224 L176,223 L177,219 L170,217 L162,217 L162,223 L168,225 L175,235 L180,243 L181,244 L181,249 L183,250 L180,251 L169,244 L157,233 L151,222 L144,217 L142,211 L138,209 L136,210 L135,207 L128,203 L126,199 L127,197 L118,199 L110,203 L103,207 L100,212 L95,216 L91,223 L85,227 L81,227 L82,230 L81,232 L74,236 L69,239 L64,241 L65,243 L63,244 L61,249 L54,255 L50,254 L51,258 L48,261 L41,262 L41,265 L35,266 L32,258 L31,261 L29,262 L31,269 L26,271 L26,273 L24,273 L23,280 L18,284 L9,283 L5,278 L8,274 L10,274 L9,265 L15,260 L16,258 L20,257 L22,252 L26,251 L29,245 L40,245 L45,241 L47,241 L49,235 L51,233 L53,233 L57,225 L62,220 L64,220 L65,225 L67,224 L67,217 L76,211 L81,208 L89,198 L92,195 L88,187 L86,182 L85,175 L78,173 L79,177 L73,176 L73,174 L63,178 L60,178 L59,182 L54,184 L52,182 L54,182 L54,180 L52,179 L56,175 L60,173 L64,163 L68,164 L68,157 L69,153 L69,149 L63,147 L59,144 L57,140 L48,133 L41,128 L40,123 L36,122 L27,116 L22,111 L24,111 L22,108 L19,108 L15,104 L6,98 L1,92 L-2,90 L-10,89 L-14,85 L-14,83 L-17,83 L-20,79 L-25,77 L-24,72 L-27,73 L-36,63 L-38,62 L-40,44 L-32,26 L-26,17 L-23,14 L-18,9 L-9,5 L-8,3 Z M4,9 L-6,12 L-17,18 L-21,21 L-23,21 L-23,24 L-25,25 L-27,32 L-29,40 L-30,40 L-30,51 L-26,54 L-23,52 L-19,42 L-15,38 L-13,37 L-11,32 L-7,28 L-7,25 L-3,23 L7,17 L13,16 L14,13 L10,13 L9,10 Z M-15,50 L-23,56 L-24,60 L-23,61 L-17,61 L-15,61 L-17,63 L-17,69 L-14,71 L-9,72 L-12,76 L-5,80 L-2,86 L9,90 L12,94 L15,92 L15,96 L22,97 L23,89 L12,86 L9,72 L5,69 L-3,70 L-7,67 L-9,58 L-14,50 Z " fill="#D4D4D4" transform="translate(62,23)"/>
<path d="M0,0 L3,0 L4,6 L0,10 L-5,20 L-7,22 L-9,28 L-13,33 L-13,38 L-18,37 L-19,42 L-25,42 L-28,51 L-29,56 L-33,62 L-38,66 L-42,72 L-46,75 L-45,82 L-50,84 L-48,79 L-53,81 L-54,85 L-58,89 L-63,91 L-69,96 L-75,100 L-77,104 L-78,102 L-82,105 L-84,105 L-84,107 L-86,107 L-88,103 L-91,100 L-91,98 L-93,98 L-95,94 L-100,89 L-102,85 L-101,80 L-97,74 L-93,71 L-89,68 L-86,62 L-81,60 L-77,56 L-74,53 L-67,50 L-63,48 L-60,48 L-59,46 L-57,42 L-53,35 L-44,28 L-28,19 L-20,12 L-16,11 L-12,7 L-8,2 Z " fill="#F7F6F5" transform="translate(310,40)"/>
<path d="M0,0 L5,1 L7,2 L6,10 L1,26 L-2,26 L-1,31 L-4,38 L-7,38 L-9,38 L-9,41 L-7,42 L-13,50 L-19,61 L-22,64 L-22,67 L-24,69 L-29,74 L-32,79 L-34,79 L-36,84 L-40,83 L-39,87 L-47,98 L-59,111 L-66,117 L-72,116 L-73,118 L-71,119 L-78,124 L-80,124 L-80,126 L-84,128 L-86,127 L-85,130 L-89,138 L-90,146 L-83,154 L-74,161 L-67,169 L-65,170 L-67,177 L-68,181 L-72,175 L-75,172 L-74,170 L-70,173 L-70,171 L-73,170 L-73,168 L-78,167 L-79,161 L-86,161 L-91,156 L-101,155 L-100,150 L-103,149 L-102,140 L-101,138 L-99,138 L-101,134 L-100,124 L-95,120 L-91,116 L-91,113 L-84,109 L-82,109 L-80,105 L-73,102 L-71,101 L-72,99 L-69,98 L-68,95 L-63,93 L-64,97 L-61,95 L-62,89 L-56,84 L-52,77 L-48,75 L-46,70 L-44,69 L-43,61 L-41,57 L-36,55 L-34,56 L-35,53 L-33,53 L-33,51 L-28,52 L-29,47 L-24,41 L-22,35 L-19,31 L-14,20 L-12,19 L-12,14 L-23,17 L-26,21 L-31,26 L-36,28 L-40,30 L-43,29 L-42,24 L-40,22 L-38,23 L-39,20 L-33,16 L-28,16 L-28,14 L-30,13 L-24,9 L-20,8 L-17,6 L-6,2 L1,3 L-2,6 L2,5 Z " fill="#C3C3C2" transform="translate(325,26)"/>
<path d="M0,0 L13,1 L19,6 L17,11 L20,12 L23,20 L16,28 L11,35 L6,37 L2,41 L2,47 L-2,49 L-3,44 L-7,46 L-12,56 L-16,58 L-19,64 L-26,69 L-37,68 L-39,74 L-43,76 L-47,82 L-50,81 L-52,85 L-56,89 L-57,93 L-62,96 L-66,101 L-71,106 L-76,105 L-71,88 L-69,88 L-68,84 L-64,81 L-62,81 L-62,79 L-64,78 L-55,63 L-54,58 L-51,54 L-49,51 L-47,51 L-45,47 L-38,41 L-33,32 L-31,32 L-29,26 L-25,20 L-21,19 L-18,16 L-18,12 L-13,9 L-4,3 Z " fill="#F6F6F5" transform="translate(128,200)"/>
<path d="M0,0 L4,4 L6,14 L8,14 L8,17 L10,17 L9,19 L3,15 L0,20 L0,26 L-1,28 L-3,28 L-4,34 L-6,36 L-9,36 L-11,36 L-12,45 L-5,49 L0,48 L7,40 L10,37 L14,22 L17,22 L20,23 L21,31 L26,36 L27,39 L26,42 L22,42 L20,40 L12,38 L13,43 L8,50 L3,49 L4,53 L1,55 L4,62 L16,72 L21,75 L22,72 L29,69 L30,70 L31,64 L33,62 L33,75 L28,79 L23,82 L7,81 L-1,76 L-7,67 L-6,64 L-10,65 L-15,64 L-17,65 L-26,60 L-32,56 L-36,54 L-35,53 L-38,53 L-39,51 L-44,49 L-51,44 L-51,41 L-53,42 L-54,39 L-56,37 L-54,37 L-54,35 L-45,36 L-41,36 L-37,42 L-36,43 L-29,44 L-28,38 L-18,35 L-16,35 L-13,26 L-8,21 L-3,11 L-1,9 L-4,4 L-2,4 L-2,2 L0,2 Z " fill="#CCCCCC" transform="translate(305,237)"/>
<path d="M0,0 L4,1 L10,7 L10,15 L5,18 L0,23 L1,25 L-3,26 L-3,34 L-4,34 L-5,28 L-9,29 L-10,32 L-12,32 L-15,36 L-15,34 L-21,34 L-23,33 L-24,35 L-26,33 L-24,33 L-27,29 L-31,27 L-37,20 L-42,18 L-45,14 L-46,9 L-51,5 L-51,2 L-53,1 Z " fill="#A29583" transform="translate(172,126)"/>
<path d="M0,0 L5,2 L8,5 L10,6 L10,8 L12,8 L12,10 L16,12 L18,16 L17,25 L15,25 L12,36 L7,45 L-1,51 L-2,56 L-8,55 L-14,47 L-18,43 L-18,41 L-25,39 L-26,35 L-19,27 L-12,17 L-11,15 L-9,15 L-7,9 L-5,8 L-2,1 Z " fill="#F8F8F8" transform="translate(84,40)"/>
<path d="M0,0 L7,1 L11,7 L14,9 L15,10 L15,5 L20,8 L36,19 L35,24 L26,19 L22,17 L30,23 L39,29 L40,30 L40,36 L35,35 L33,41 L29,43 L23,47 L17,48 L10,40 L4,32 L4,30 L2,30 L-4,20 L-7,16 L-11,14 L-13,11 L-13,8 L-9,6 L-6,3 L-1,1 Z " fill="#F6F6F6" transform="translate(152,170)"/>
<path d="M0,0 L6,4 L4,6 L9,9 L11,12 L4,28 L0,34 L-2,39 L-11,42 L-14,42 L-15,48 L-22,48 L-27,42 L-27,40 L-35,41 L-40,39 L-40,41 L-46,41 L-46,39 L-48,39 L-50,33 L-55,25 L-62,15 L-67,13 L-68,7 L-67,6 L-59,6 L-52,9 L-53,13 L-46,13 L-48,15 L-47,21 L-46,23 L-39,22 L-39,28 L-34,32 L-31,33 L-27,32 L-23,34 L-21,39 L-18,34 L-18,27 L-15,23 L-13,23 L-12,18 L-7,11 L-5,11 L-3,3 Z " fill="#F1F1F0" transform="translate(291,233)"/>
<path d="M0,0 L2,0 L0,4 L-2,4 L-2,8 L41,8 L44,8 L45,8 L47,7 L48,9 L48,17 L46,20 L44,19 L45,22 L48,24 L45,24 L45,27 L42,26 L40,33 L36,40 L34,39 L31,41 L34,43 L28,43 L20,36 L16,31 L5,23 L-2,17 L-3,21 L-6,20 L-4,20 L-4,14 L-6,14 L-6,6 L-3,5 L-2,1 Z " fill="#9A8B78" transform="translate(212,195)"/>
<path d="M0,0 L7,1 L7,3 L3,4 L9,5 L9,7 L13,6 L20,12 L22,15 L25,17 L29,22 L31,27 L36,32 L36,34 L41,35 L42,42 L43,46 L45,50 L42,52 L36,64 L35,62 L41,48 L38,44 L34,42 L36,40 L32,38 L28,39 L28,45 L25,49 L24,48 L19,56 L18,59 L14,63 L14,70 L11,75 L9,76 L8,70 L2,69 L-1,70 L-7,66 L-9,64 L-9,57 L-4,58 L2,62 L6,60 L8,50 L10,46 L12,47 L14,41 L18,35 L20,29 L19,23 L18,19 L15,20 L13,18 L15,17 L9,12 L2,13 L2,18 L-1,18 L-1,1 Z " fill="#B3B3B2" transform="translate(260,197)"/>
<path d="M0,0 L45,0 L49,2 L54,4 L57,8 L54,8 L59,13 L59,15 L61,17 L9,18 L5,19 L-1,12 L-4,12 L-7,8 L-6,3 L-4,1 L-1,2 Z " fill="#A99B87" transform="translate(93,95)"/>
<path d="M0,0 L4,2 L5,6 L6,5 L8,5 L9,3 L10,6 L10,8 L13,11 L13,13 L18,15 L22,21 L20,22 L-31,23 L-29,27 L-24,31 L-26,34 L-31,29 L-41,20 L-44,20 L-46,16 L-48,13 L-48,11 L-50,7 L-1,6 Z " fill="#9C8E7A" transform="translate(152,105)"/>
<path d="M0,0 L4,0 L6,9 L10,17 L15,22 L24,34 L24,40 L21,43 L15,42 L11,41 L8,42 L7,38 L-8,28 L-12,25 L-12,30 L-14,30 L-19,24 L-20,18 L-18,11 L-10,11 L-9,9 L-7,9 L-6,3 Z " fill="#E6E6E6" transform="translate(180,151)"/>
<path d="M0,0 L5,2 L9,6 L11,6 L14,12 L13,19 L10,25 L5,34 L3,34 L2,39 L-3,44 L-7,45 L-11,41 L-11,39 L-14,38 L-14,36 L-17,35 L-17,31 L-12,26 L-11,23 L-8,22 L-3,11 L-5,10 L-2,1 Z " fill="#F7F6F5" transform="translate(267,210)"/>
<path d="M0,0 L10,2 L16,6 L19,13 L18,22 L16,27 L16,32 L13,30 L7,33 L6,35 L1,33 L-2,29 L-7,24 L-12,19 L-11,14 L-4,8 Z " fill="#F4F4F2" transform="translate(320,277)"/>
<path d="M0,0 L8,2 L3,7 L-11,15 L-19,21 L-23,28 L-25,36 L-27,34 L-33,36 L-36,38 L-43,41 L-44,44 L-50,48 L-53,49 L-56,55 L-60,58 L-60,55 L-65,57 L-68,57 L-67,53 L-62,51 L-61,46 L-55,44 L-54,40 L-46,33 L-37,27 L-28,22 L-26,18 L-25,20 L-22,13 L-11,6 L-5,5 L-5,2 Z " fill="#A1A0A0" transform="translate(277,54)"/>
<path d="M0,0 L4,5 L7,10 L8,17 L12,20 L21,19 L24,22 L27,36 L38,39 L37,47 L30,46 L30,42 L26,44 L24,40 L13,36 L9,29 L3,26 L6,22 L-1,20 L-2,19 L-2,13 L0,10 L-2,11 L-8,11 L-9,8 L-4,3 Z " fill="#FAFAFA" transform="translate(47,73)"/>
<path d="M0,0 L2,4 L21,4 L21,1 L25,3 L26,6 L33,9 L38,14 L43,19 L41,20 L38,18 L-7,17 L-9,21 L-10,18 L-7,14 L-5,11 L-4,8 L-1,1 Z " fill="#978772" transform="translate(100,78)"/>
<path d="M0,0 L6,1 L7,7 L12,8 L15,11 L15,13 L11,12 L13,15 L-30,15 L-30,13 L-27,11 L-25,2 L-24,1 Z " fill="#9B8F7F" transform="translate(240,186)"/>
<path d="M0,0 L4,1 L9,6 L13,8 L17,14 L17,18 L20,18 L26,22 L26,24 L23,24 L24,30 L27,34 L28,44 L28,54 L26,54 L29,60 L27,61 L21,46 L20,44 L12,46 L11,52 L8,55 L1,55 L-1,61 L-2,58 L-1,53 L4,52 L7,53 L7,44 L9,42 L12,38 L14,38 L15,35 L19,33 L19,25 L7,13 L1,9 L-1,5 L-2,3 L0,3 Z " fill="#ACABAA" transform="translate(162,108)"/>
<path d="M0,0 L5,1 L7,5 L-7,12 L-12,13 L-14,17 L-21,23 L-24,28 L-25,33 L-27,36 L-30,45 L-34,42 L-34,31 L-32,29 L-30,19 L-29,16 L-27,14 L-27,12 L-23,11 L-18,7 L-5,1 Z " fill="#F4F4F1" transform="translate(66,32)"/>
<path d="M0,0 L6,1 L11,8 L7,20 L1,28 L-3,32 L-10,31 L-15,27 L-15,21 L-11,17 L-7,16 L-5,10 L-3,10 L-3,4 L-1,4 Z " fill="#F6F5F4" transform="translate(307,255)"/>
<path d="M0,0 L2,0 L5,6 L7,7 L9,15 L13,17 L17,20 L17,22 L15,22 L15,27 L11,25 L11,20 L6,22 L2,24 L-3,33 L-6,42 L-8,44 L-9,43 L-14,43 L-13,45 L-18,47 L-20,49 L-21,44 L-17,42 L-12,38 L-7,27 L-4,19 L-1,19 L-1,6 L-3,3 L0,2 Z " fill="#BDBDBD" transform="translate(103,46)"/>
<path d="M0,0 L3,2 L3,8 L-6,23 L-5,26 L-7,26 L-8,29 L-10,29 L-12,33 L-14,33 L-18,49 L-17,51 L-21,52 L-18,40 L-18,35 L-19,34 L-22,44 L-24,54 L-25,57 L-26,55 L-26,48 L-21,32 L-17,26 L-14,25 L-13,19 L-2,1 Z " fill="#838382" transform="translate(71,255)"/>
<path d="M0,0 L4,1 L5,5 L2,9 L1,8 L-4,17 L-11,23 L-13,27 L-15,27 L-18,34 L-23,30 L-21,26 L-19,20 L-15,16 L-13,16 L-11,10 L-6,5 L-4,5 L-3,3 L-1,3 Z " fill="#9D9D9C" transform="translate(94,225)"/>
<path d="M0,0 L3,2 L2,11 L0,18 L8,19 L10,20 L14,20 L13,27 L5,30 L2,31 L0,31 L0,29 L-8,31 L-9,26 L-7,24 L-4,24 L-5,18 L-1,4 Z " fill="#D6D6D6" transform="translate(51,288)"/>
<path d="M0,0 L3,1 L-8,9 L-14,12 L-16,15 L-14,16 L-20,21 L-22,21 L-26,27 L-31,26 L-33,28 L-33,25 L-30,22 L-28,19 L-26,15 L-21,9 L-18,8 L-16,5 L-7,6 L-4,4 L-3,1 Z " fill="#8E8D8B" transform="translate(125,200)"/>
<path d="M0,0 L7,3 L9,5 L16,5 L19,8 L19,10 L14,8 L12,12 L13,17 L8,18 L5,14 L-1,12 L-2,4 Z " fill="#FAFAFA" transform="translate(129,149)"/>
<path d="M0,0 L4,5 L6,12 L6,19 L4,27 L0,33 L-3,34 L-3,26 L0,17 L-2,5 L-3,1 Z " fill="#B2B1B1" transform="translate(340,277)"/>
<path d="M0,0 L1,0 L1,5 L-3,9 L0,13 L7,14 L8,16 L0,18 L-7,21 L-6,16 L-11,17 L-17,15 L-16,13 L-12,12 L-6,4 L-2,1 Z " fill="#B5B4B4" transform="translate(71,292)"/>
<path d="M0,0 L2,0 L5,5 L8,5 L11,13 L-9,14 L-10,11 L-4,2 Z " fill="#C0B4A4" transform="translate(110,69)"/>
<path d="M0,0 L3,2 L4,5 L8,6 L16,14 L20,17 L18,21 L14,21 L8,16 L5,14 L0,9 L-3,6 L-3,4 L1,4 Z " fill="#AEAEAD" transform="translate(130,77)"/>
<path d="M0,0 L3,1 L2,3 L-5,5 L-15,11 L-18,12 L-19,17 L-23,20 L-24,24 L-29,27 L-33,35 L-35,40 L-36,37 L-34,30 L-32,26 L-30,21 L-27,17 L-25,15 L-20,11 L-19,9 L-12,6 Z " fill="#6D6C6A" transform="translate(73,36)"/>
<path d="M0,0 L9,2 L13,2 L17,6 L16,9 L18,10 L16,12 L18,14 L18,23 L16,27 L15,22 L16,16 L11,12 L11,10 L9,10 L9,8 L4,6 L4,4 L0,3 Z " fill="#838381" transform="translate(85,38)"/>
<path d="M0,0 L44,0 L44,3 L-1,3 Z " fill="#DDD6CE" transform="translate(210,201)"/>
<path d="M0,0 L2,1 L0,5 L0,12 L-2,15 L-5,19 L-7,19 L-9,24 L-19,37 L-23,40 L-21,36 L-20,33 L-22,29 L-17,30 L-14,24 L-14,17 L-7,17 L-3,8 L-2,1 Z " fill="#60605D" transform="translate(80,36)"/>
<path d="M0,0 L3,1 L6,5 L9,6 L14,12 L14,14 L10,13 L6,28 L3,31 L6,21 L7,16 L3,11 L-3,10 L-4,13 L-6,13 L-4,7 L-2,5 L4,9 L3,8 L3,5 L1,5 Z " fill="#6F6E6D" transform="translate(310,246)"/>
<path d="M0,0 L6,1 L9,3 L10,12 L13,16 L11,17 L7,14 L6,10 L2,7 L-11,5 L-7,2 L-4,2 L-4,4 L1,4 Z " fill="#848380" transform="translate(139,195)"/>
<path d="M0,0 L1,3 L0,6 L3,7 L5,3 L6,5 L6,10 L10,12 L11,14 L15,16 L13,16 L15,20 L10,19 L9,15 L7,14 L6,16 L3,11 L-2,7 L-2,4 L-3,6 L-8,6 L-10,11 L-13,13 L-11,7 L-8,3 L-6,3 L-3,2 Z " fill="#3F3D3A" transform="translate(114,65)"/>
<path d="M0,0 L8,1 L10,0 L10,3 L3,2 L1,8 L-6,16 L-8,16 L-8,21 L1,29 L3,31 L0,32 L-10,23 L-12,16 L-9,15 L-9,11 L-4,11 L0,5 Z " fill="#3F3E3D" transform="translate(317,275)"/>
<path d="M0,0 L3,1 L8,7 L8,9 L13,9 L17,4 L19,5 L16,13 L11,15 L3,9 L0,7 Z " fill="#8C8C8B" transform="translate(250,245)"/>
<path d="M0,0 L3,4 L5,3 L6,9 L8,9 L8,7 L12,4 L14,4 L15,7 L12,11 L11,9 L8,12 L7,19 L5,20 L2,8 L-1,3 Z " fill="#737370" transform="translate(218,138)"/>
<path d="M0,0 L7,3 L6,8 L9,20 L8,22 L10,23 L8,23 L6,27 L6,18 L3,11 L-2,7 Z " fill="#5D5C5B" transform="translate(332,272)"/>
<path d="M0,0 L5,1 L8,2 L9,4 L13,6 L14,10 L5,8 L6,11 L2,9 L2,7 L-1,6 L2,5 L0,3 Z " fill="#C7C6C6" transform="translate(147,97)"/>
<path d="M0,0 L7,2 L11,7 L-5,8 L-4,3 Z " fill="#766C5D" transform="translate(228,180)"/>
<path d="M0,0 L5,2 L8,5 L8,7 L10,8 L8,12 L3,17 L-4,25 L-6,23 L-1,18 L5,10 L2,3 L0,2 Z " fill="#767574" transform="translate(145,209)"/>
<path d="M0,0 L4,1 L10,6 L7,6 L3,3 L-1,3 L-4,16 L-5,16 L-6,11 L-11,10 L-10,6 L-4,7 L-4,2 Z " fill="#727271" transform="translate(266,208)"/>
<path d="M0,0 L4,2 L2,6 L-2,11 L-4,15 L-3,20 L0,25 L4,29 L2,31 L-5,22 L-7,18 L-6,13 L-2,6 L-3,4 L-1,3 Z " fill="#31312F" transform="translate(213,107)"/>
<path d="M0,0 L2,4 L4,9 L6,11 L1,13 L-4,18 L-4,16 L-6,15 L-2,12 L-4,6 L-2,4 Z " fill="#797877" transform="translate(94,279)"/>
<path d="M0,0 L4,5 L9,13 L9,15 L11,15 L18,25 L14,27 L12,28 L13,23 L11,22 L10,16 L6,16 L2,6 L-2,1 Z " fill="#353432" transform="translate(145,185)"/>
<path d="M0,0 L6,2 L11,3 L13,2 L13,4 L21,5 L19,8 L19,6 L12,8 L9,11 L8,7 L1,3 L-1,4 Z " fill="#525250" transform="translate(179,123)"/>
<path d="M0,0 L7,4 L11,6 L10,9 L4,7 L2,6 L1,9 L-2,12 L-4,12 L-3,6 L-1,4 Z " fill="#E9E8E7" transform="translate(83,32)"/>
</svg>
