<?xml version="1.0" encoding="UTF-8"?>
<!-- Generator: visioncortex VTracer 0.6.12 -->
<svg version="1.1" xmlns="http://www.w3.org/2000/svg" width="250" height="342">
<path d="M0,0 L250,0 L250,342 L0,342 Z M205,30 L196,36 L175,57 L178,57 L197,38 L207,31 Z M65,38 L52,42 L40,48 L40,50 L35,51 L31,55 L32,59 L36,67 L44,74 L52,81 L62,99 L64,105 L66,105 L66,108 L68,108 L69,114 L80,141 L83,148 L87,152 L92,152 L93,144 L89,133 L86,123 L79,102 L77,102 L74,86 L75,83 L75,62 L76,58 L76,47 L74,43 L72,43 L72,41 L69,41 L69,39 Z M174,58 Z M173,59 Z M172,60 Z M171,61 Z M170,62 Z M169,63 L159,72 L148,86 L144,93 L148,91 L157,79 L168,67 L170,63 Z M189,85 L183,89 L175,92 L175,95 L176,97 L172,103 L173,105 L181,95 L186,90 L190,87 Z M96,92 L97,102 L100,104 L101,113 L100,114 L100,122 L102,125 L109,125 L109,112 L111,112 L112,127 L113,127 L113,102 L112,97 L110,101 L110,93 L97,94 Z M73,142 L67,149 L69,158 L76,164 L87,168 L92,169 L82,169 L71,164 L63,164 L60,168 L61,170 L78,170 L78,171 L60,172 L60,174 L58,174 L59,181 L62,186 L73,191 L86,194 L94,195 L86,195 L71,192 L59,186 L56,177 L51,176 L51,182 L49,182 L48,180 L46,184 L44,199 L42,209 L42,216 L39,228 L37,226 L36,239 L35,247 L34,252 L34,260 L37,267 L41,272 L47,275 L49,275 L49,277 L65,284 L92,290 L100,291 L113,291 L128,289 L146,285 L157,279 L167,270 L172,262 L172,249 L166,225 L162,214 L156,207 L153,206 L149,205 L139,205 L117,208 L119,206 L133,204 L147,200 L147,198 L152,197 L161,191 L162,181 L159,178 L159,180 L156,180 L155,184 L151,189 L138,193 L127,195 L141,191 L148,187 L149,178 L145,172 L139,170 L126,170 L113,171 L113,169 L124,169 L138,165 L140,160 L142,158 L142,149 L139,146 L137,153 L128,157 L119,159 L103,159 L86,156 L78,153 L76,143 Z M41,213 Z M30,262 L26,269 L27,278 L25,279 L28,296 L31,301 L35,304 L53,310 L80,315 L129,315 L157,311 L173,306 L173,304 L179,302 L187,298 L190,293 L190,291 L192,290 L190,268 L189,264 L185,262 L181,271 L182,275 L179,274 L171,279 L154,286 L129,292 L91,292 L67,287 L48,281 L42,277 L35,270 L31,262 Z " fill="#F3F2F2" transform="translate(0,0)"/>
<path d="M0,0 L3,3 L10,12 L20,18 L41,24 L61,28 L93,28 L115,24 L128,20 L145,13 L154,6 L158,3 L159,11 L159,24 L156,31 L153,34 L143,39 L125,44 L110,46 L97,48 L60,48 L32,44 L10,38 L-1,32 L-4,21 L-5,12 L-3,12 L-4,7 L-2,7 L-1,2 Z " fill="#F8F8F8" transform="translate(30,266)"/>
<path d="M0,0 L4,1 L4,3 L7,3 L7,5 L9,5 L11,9 L11,20 L10,24 L10,45 L8,42 L7,50 L-4,52 L-8,52 L-14,42 L-22,35 L-30,28 L-33,21 L-34,17 L-30,13 L-25,12 L-25,10 L-11,3 Z " fill="#DEDBD9" transform="translate(65,38)"/>
<path d="M0,0 L3,1 L5,11 L11,14 L13,16 L26,18 L49,18 L57,16 L60,13 L65,10 L66,4 L69,7 L69,17 L67,19 L64,22 L54,25 L40,26 L26,26 L8,23 L-1,17 L-4,13 L-4,5 Z " fill="#F7F7F7" transform="translate(73,142)"/>
<path d="M0,0 L3,3 L8,10 L17,15 L31,18 L41,19 L67,20 L70,19 L70,26 L43,26 L15,21 L9,18 L3,16 L-2,11 L-3,4 L0,4 Z " fill="#EFEEED" transform="translate(51,178)"/>
<path d="M0,0 L1,2 L2,9 L10,16 L20,20 L32,23 L40,24 L69,25 L69,28 L65,29 L39,29 L11,23 L3,23 L-1,25 L-5,33 L-6,29 L-3,15 L-2,4 Z M-7,33 Z " fill="#F6F6F6" transform="translate(48,180)"/>
<path d="M0,0 L92,0 L90,4 L89,6 L86,5 L4,5 L0,1 Z " fill="#F9F9F9" transform="translate(45,271)"/>
<path d="M0,0 L2,0 L2,5 L1,6 L-109,7 L-109,2 L0,2 Z M-107,4 L-107,5 L1,5 L1,4 Z M-110,7 Z " fill="#D6B788" transform="translate(148,230)"/>
<path d="M0,0 L2,3 L8,20 L12,33 L13,40 L12,43 L7,43 L1,36 L-4,22 L-6,18 L-6,15 L1,11 L1,7 L1,4 L-1,3 Z " fill="#C8C4BF" transform="translate(80,109)"/>
<path d="M0,0 L3,3 L2,13 L-7,19 L-16,22 L-37,26 L-37,19 L-23,17 L-13,14 L-5,8 L-3,4 L-3,2 L0,2 Z " fill="#F8F8F7" transform="translate(159,178)"/>
<path d="M0,0 L109,1 L111,4 L112,3 L119,3 L119,6 L112,6 L112,9 L107,9 L106,4 L0,4 Z " fill="#D5B98F" transform="translate(43,216)"/>
<path d="M0,0 L2,0 L2,2 L84,1 L94,0 L110,0 L105,5 L101,5 L6,5 L-1,2 Z " fill="#CDB288" transform="translate(50,275)"/>
<path d="M0,0 L1,0 L2,11 L1,16 L113,16 L113,18 L1,19 L-1,21 L-1,7 Z " fill="#C4A77D" transform="translate(37,226)"/>
<path d="M0,0 L1,0 L1,14 L9,14 L9,16 L2,16 L2,22 L10,22 L10,16 L19,17 L19,18 L12,19 L12,29 L20,29 L21,21 L22,21 L22,34 L18,40 L7,40 L-2,46 L-6,48 L-16,48 L-14,46 L-4,44 L5,39 L9,32 L11,23 L1,23 L0,16 Z M19,16 L21,16 L21,21 L19,17 Z " fill="#9C896F" transform="translate(150,228)"/>
<path d="M0,0 L4,2 L7,7 L-110,7 L-109,4 L0,4 Z " fill="#D0B284" transform="translate(154,207)"/>
<path d="M0,0 L1,0 L2,5 L116,5 L115,11 L114,7 L2,7 L2,12 L0,8 Z " fill="#C9AC80" transform="translate(34,252)"/>
<path d="M0,0 L1,0 L1,6 L106,6 L107,4 L108,9 L113,9 L113,10 L108,10 L107,12 L106,9 L1,9 L-2,12 Z M104,9 L106,10 Z " fill="#CAAC80" transform="translate(42,216)"/>
<path d="M0,0 L1,0 L1,6 L-3,4 L-114,4 L-114,1 Z " fill="#D1B385" transform="translate(150,251)"/>
<path d="M0,0 L1,0 L1,6 L-2,5 L-114,5 L-114,2 L0,2 Z " fill="#D6B789" transform="translate(150,245)"/>
<path d="M0,0 L2,4 L5,15 L4,20 L-4,20 L-5,25 L-13,25 L-13,19 L-6,19 L-6,17 L-14,17 L-14,12 L-8,12 L-7,7 L-2,6 L0,5 Z " fill="#CCB99E" transform="translate(165,225)"/>
<path d="M0,0 L78,0 L78,2 L73,4 L0,3 Z " fill="#D5C0A1" transform="translate(70,282)"/>
<path d="M0,0 L111,0 L112,2 L108,6 L108,3 L1,3 Z " fill="#D2B385" transform="translate(36,262)"/>
<path d="M0,0 L1,0 L1,6 L-2,5 L-111,5 L-110,2 L0,2 Z " fill="#D6B788" transform="translate(149,235)"/>
<path d="M0,0 L63,0 L63,1 L58,1 L58,3 L23,5 L10,5 L0,3 Z " fill="#DACBB6" transform="translate(76,189)"/>
<path d="M0,0 L2,3 L2,5 L-108,5 L-107,2 L0,2 Z M-2,5 L0,6 Z " fill="#D6B789" transform="translate(148,225)"/>
<path d="M0,0 L105,0 L104,3 L99,4 L99,3 L3,3 L0,3 Z " fill="#D0B284" transform="translate(39,267)"/>
<path d="M0,0 L10,0 L9,9 L4,17 L-5,22 L-13,22 L-8,18 L-2,10 Z " fill="#FAFAFA" transform="translate(151,251)"/>
<path d="M0,0 L1,0 L5,23 L7,23 L8,26 L8,33 L0,34 L2,41 L1,45 L-4,33 L-4,29 L-6,29 L-5,24 L-2,23 L0,19 L3,20 L2,16 L0,18 L-1,9 L0,7 L-2,6 L0,6 Z " fill="#B5AEAA" transform="translate(72,79)"/>
<path d="M0,0 L8,0 L23,3 L23,6 L31,7 L31,8 L-5,8 L-5,3 Z " fill="#CBBBA3" transform="translate(51,202)"/>
<path d="M0,0 L1,2 L14,1 L14,9 L16,5 L17,10 L17,35 L16,35 L15,20 L14,20 L14,14 L5,13 L1,10 Z " fill="#988D87" transform="translate(96,92)"/>
<path d="M0,0 L2,1 L0,6 L-4,7 L-4,5 L-67,5 L-67,7 L-73,6 L-75,5 L-75,3 L-6,2 Z " fill="#CCB086" transform="translate(143,184)"/>
<path d="M0,0 L1,3 L85,3 L84,5 L2,5 L1,7 Z " fill="#CFB083" transform="translate(58,174)"/>
<path d="M0,0 L3,4 L7,10 L14,17 L23,21 L46,27 L61,30 L72,31 L72,32 L56,32 L34,27 L18,22 L9,16 L2,7 L1,5 L-2,11 L-4,11 L-3,5 Z " fill="#5F4F43" transform="translate(30,262)"/>
<path d="M0,0 L64,0 L64,2 L49,5 L38,5 L38,2 L19,2 L19,4 L25,4 L25,5 L17,5 L0,1 Z " fill="#A18A69" transform="translate(75,285)"/>
<path d="M0,0 L78,0 L76,2 L3,2 L3,4 L0,3 Z " fill="#CDAF82" transform="translate(61,182)"/>
<path d="M0,0 L2,2 L-8,8 L-29,16 L-49,20 L-56,21 L-88,21 L-88,20 L-77,19 L-50,18 L-25,12 L-2,2 Z " fill="#695649" transform="translate(179,274)"/>
<path d="M0,0 L2,1 L-10,10 L-28,28 L-30,27 L-8,5 Z M-31,28 Z M-32,29 Z M-33,30 Z M-34,31 Z M-35,32 Z M-36,33 L-36,36 L-45,45 L-55,58 L-59,63 L-61,62 L-53,51 L-42,38 Z " fill="#F9F9F9" transform="translate(205,30)"/>
<path d="M0,0 L13,2 L40,2 L44,4 L37,5 L-29,6 L-31,10 L-30,3 L-28,1 L-28,4 L-1,3 Z " fill="#897358" transform="translate(74,206)"/>
<path d="M0,0 L4,1 L-12,6 L-40,10 L-89,10 L-89,8 L-94,8 L-94,7 L-86,7 L-79,8 L-42,8 L-25,5 L-10,3 Z " fill="#776354" transform="translate(169,305)"/>
<path d="M0,0 L5,0 L5,2 L-7,5 L9,2 L15,0 L12,3 L-2,7 L-10,7 L-13,6 L-40,5 L-40,4 L-35,3 L-16,2 L0,2 Z " fill="#806A57" transform="translate(134,190)"/>
<path d="M0,0 L6,0 L8,1 L8,8 L1,9 L0,13 L-6,13 L-7,2 L-2,2 Z M4,1 Z " fill="#DECDB4" transform="translate(157,224)"/>
<path d="M0,0 L1,0 L2,8 L6,13 L13,17 L31,20 L45,20 L59,19 L69,16 L70,18 L56,22 L43,23 L24,22 L12,19 L4,14 L0,9 L-1,2 Z " fill="#6B584A" transform="translate(68,147)"/>
<path d="M0,0 L94,0 L94,2 L90,3 L88,2 L12,2 L12,4 L5,3 L0,1 Z " fill="#C0A47B" transform="translate(58,280)"/>
<path d="M0,0 L13,0 L17,1 L18,4 L-25,4 L-23,2 Z " fill="#9F886C" transform="translate(126,170)"/>
<path d="M0,0 L42,0 L40,1 L40,8 L56,4 L65,3 L62,5 L47,9 L38,9 L39,1 L35,4 L35,2 L10,2 L0,1 Z " fill="#6D5A4D" transform="translate(82,196)"/>
<path d="M0,0 L95,0 L97,2 L101,4 L93,5 L94,1 L3,2 L3,4 L-2,2 Z " fill="#CAAD82" transform="translate(43,270)"/>
<path d="M0,0 L3,2 L113,3 L113,4 L0,5 Z " fill="#CEB083" transform="translate(35,247)"/>
<path d="M0,0 L1,3 L112,3 L112,4 L2,5 L0,6 Z " fill="#D7BA8D" transform="translate(35,252)"/>
<path d="M0,0 L117,0 L117,1 L0,1 Z " fill="#FAFAFA" transform="translate(44,216)"/>
<path d="M0,0 L112,0 L111,3 L111,1 L0,2 Z " fill="#D6B788" transform="translate(36,260)"/>
<path d="M0,0 Z M-113,1 L0,1 L0,2 L-113,3 Z " fill="#D6B788" transform="translate(150,244)"/>
<path d="M0,0 L114,1 L114,2 L0,2 Z " fill="#D6B788" transform="translate(44,214)"/>
<path d="M0,0 L115,0 L115,1 L0,1 Z " fill="#FAFAFA" transform="translate(45,214)"/>
<path d="M0,0 L113,0 L113,1 L0,1 Z " fill="#FAFAFA" transform="translate(37,251)"/>
<path d="M0,0 L108,1 L108,2 L3,2 L2,4 Z " fill="#CFB184" transform="translate(36,264)"/>
<path d="M0,0 L112,0 L112,1 L0,1 Z " fill="#FAFAFA" transform="translate(36,259)"/>
<path d="M0,0 L112,0 L112,1 L0,1 Z " fill="#FAFAFA" transform="translate(37,256)"/>
<path d="M0,0 L112,0 L112,1 L0,1 Z " fill="#FAFAFA" transform="translate(37,254)"/>
<path d="M0,0 L112,0 L112,1 L0,1 Z " fill="#FAFAFA" transform="translate(38,249)"/>
<path d="M0,0 L112,0 L112,1 L0,1 Z " fill="#FAFAFA" transform="translate(38,246)"/>
<path d="M0,0 L112,0 L112,1 L0,1 Z " fill="#FAFAFA" transform="translate(38,244)"/>
<path d="M0,0 L3,1 L107,2 L107,3 L0,4 Z " fill="#CFB184" transform="translate(39,228)"/>
<path d="M0,0 L111,0 L111,1 L0,1 Z " fill="#FAFAFA" transform="translate(39,241)"/>
<path d="M0,0 L111,0 L111,1 L0,1 Z " fill="#FAFAFA" transform="translate(46,211)"/>
<path d="M0,0 L110,0 L110,1 L0,1 Z " fill="#FAFAFA" transform="translate(37,261)"/>
<path d="M0,0 L109,0 L109,1 L0,2 Z " fill="#D6B788" transform="translate(38,240)"/>
<path d="M0,0 L110,0 L110,1 L0,1 Z " fill="#FAFAFA" transform="translate(39,239)"/>
<path d="M0,0 L4,2 L6,14 L7,29 L5,29 L3,34 L1,36 L0,34 L3,28 L3,15 L2,8 L-3,12 L-4,9 Z " fill="#6D5D55" transform="translate(185,262)"/>
<path d="M0,0 L10,0 L9,4 L5,8 L-12,8 L-7,4 Z " fill="#D6C3A7" transform="translate(157,267)"/>
<path d="M0,0 L109,0 L109,1 L0,1 Z " fill="#FAFAFA" transform="translate(40,236)"/>
<path d="M0,0 L108,0 L108,1 L0,1 Z " fill="#FAFAFA" transform="translate(41,234)"/>
<path d="M0,0 L107,0 L107,1 L0,1 Z " fill="#FAFAFA" transform="translate(38,264)"/>
<path d="M0,0 L107,0 L107,1 L0,1 Z " fill="#FAFAFA" transform="translate(41,231)"/>
<path d="M0,0 L106,0 L106,1 L0,1 Z " fill="#FAFAFA" transform="translate(42,229)"/>
<path d="M0,0 L106,0 L106,1 L0,1 Z " fill="#FAFAFA" transform="translate(42,226)"/>
<path d="M0,0 L106,0 L106,1 L0,1 Z " fill="#FAFAFA" transform="translate(44,219)"/>
<path d="M0,0 L105,0 L105,1 L0,1 Z " fill="#FAFAFA" transform="translate(39,266)"/>
<path d="M0,0 L105,0 L105,1 L0,1 Z " fill="#FAFAFA" transform="translate(43,224)"/>
<path d="M0,0 L105,0 L105,1 L0,1 Z " fill="#FAFAFA" transform="translate(43,221)"/>
<path d="M0,0 L105,0 L105,1 L0,1 Z " fill="#D6B788" transform="translate(43,220)"/>
<path d="M0,0 L104,0 L104,1 L0,1 Z " fill="#D6B788" transform="translate(42,225)"/>
<path d="M0,0 L39,0 L39,1 L23,1 L23,5 L10,5 L10,3 L4,3 L4,1 Z " fill="#D1C3AE" transform="translate(90,286)"/>
<path d="M0,0 L6,1 L15,4 L38,8 L64,8 L63,11 L32,10 L15,7 L4,3 Z " fill="#5E4D43" transform="translate(56,195)"/>
<path d="M0,0 L81,0 L82,4 L81,5 L75,5 L79,3 L79,1 L1,1 L0,3 Z " fill="#D1B58B" transform="translate(60,180)"/>
<path d="M0,0 L97,0 L97,1 L-1,2 Z " fill="#F9F9F8" transform="translate(42,269)"/>
<path d="M0,0 L5,2 L14,6 L38,12 L46,13 L46,15 L51,15 L51,16 L44,16 L20,11 L4,5 Z " fill="#6D5D50" transform="translate(29,298)"/>
<path d="M0,0 L2,4 L2,10 L1,12 L-7,12 L-8,2 L-7,1 Z " fill="#E3D0B3" transform="translate(169,245)"/>
<path d="M0,0 L6,2 L8,9 L2,13 L-1,13 L-4,2 Z " fill="#FAFAFA" transform="translate(75,111)"/>
<path d="M0,0 L90,0 L90,1 L0,1 Z " fill="#FAFAFA" transform="translate(61,279)"/>
<path d="M0,0 L8,0 L19,5 L32,6 L32,7 L15,7 L15,6 L-3,6 L-1,1 Z " fill="#937F64" transform="translate(63,164)"/>
<path d="M0,0 L14,0 L14,2 L16,4 L-21,4 L-21,3 Z " fill="#9E8663" transform="translate(139,205)"/>
<path d="M0,0 L8,1 L4,3 L-65,3 L-67,4 L-69,3 L-69,1 Z " fill="#BA9E75" transform="translate(133,184)"/>
<path d="M0,0 L8,1 L9,3 L9,11 L2,11 L0,8 Z " fill="#FAFAFA" transform="translate(100,114)"/>
<path d="M0,0 L3,2 L6,9 L6,12 L2,13 L0,14 L-4,8 L-6,6 L-6,3 Z " fill="#F6F6F6" transform="translate(69,87)"/>
<path d="M0,0 L86,0 L86,1 L0,1 Z " fill="#FAFAFA" transform="translate(59,176)"/>
<path d="M0,0 L7,0 L9,1 L8,10 L2,10 L2,8 L0,8 L-1,1 Z " fill="#F5F4F1" transform="translate(101,105)"/>
<path d="M0,0 L83,1 L83,2 L0,2 Z " fill="#D6B788" transform="translate(59,174)"/>
<path d="M0,0 L84,0 L84,1 L0,1 Z " fill="#FAFAFA" transform="translate(60,174)"/>
<path d="M0,0 L80,0 L80,1 L0,2 Z " fill="#D6B788" transform="translate(52,275)"/>
<path d="M0,0 L81,0 L81,1 L0,1 Z " fill="#FAFAFA" transform="translate(60,179)"/>
<path d="M0,0 L3,1 L6,6 L5,15 L0,17 L1,13 L-2,12 L-2,7 L0,5 L-1,3 L1,3 Z " fill="#9C8A70" transform="translate(143,172)"/>
<path d="M0,0 L4,1 L2,1 L5,6 L9,12 L5,16 L3,16 L-1,7 L-3,1 Z " fill="#A09690" transform="translate(61,89)"/>
<path d="M0,0 L37,0 L36,2 L-7,2 L-7,1 Z " fill="#E4D2B7" transform="translate(118,209)"/>
<path d="M0,0 L17,2 L17,3 L-24,3 L-24,1 Z " fill="#D6B788" transform="translate(84,171)"/>
<path d="M0,0 L2,2 L-4,5 L-10,6 L-33,6 L-50,3 L-46,1 L-29,4 L-13,4 L-2,1 Z " fill="#635144" transform="translate(132,155)"/>
<path d="M0,0 L78,0 L78,1 L0,1 Z " fill="#FAFAFA" transform="translate(68,281)"/>
<path d="M0,0 L78,0 L78,1 L0,1 Z " fill="#FAFAFA" transform="translate(61,181)"/>
<path d="M0,0 L5,1 L8,10 L20,16 L35,19 L35,20 L27,20 L15,17 L6,11 L0,2 Z " fill="#5F4E43" transform="translate(51,176)"/>
<path d="M0,0 L77,0 L77,1 L0,1 Z " fill="#FAFAFA" transform="translate(54,276)"/>
<path d="M0,0 L2,0 L5,8 L5,11 L-3,11 L-5,14 L-5,8 L0,7 L0,6 L-5,6 L-7,7 L-8,3 L-2,2 Z M1,11 L3,12 Z " fill="#A68D6A" transform="translate(160,214)"/>
<path d="M0,0 L18,0 L21,3 L10,4 L1,4 L-5,3 L-5,2 L0,1 Z " fill="#E2E1E0" transform="translate(93,169)"/>
<path d="M0,0 L69,0 L69,1 L0,1 Z " fill="#FAFAFA" transform="translate(64,184)"/>
<path d="M0,0 L67,0 L67,1 L0,1 Z " fill="#FAFAFA" transform="translate(67,186)"/>
<path d="M0,0 L0,3 L-7,8 L-15,19 L-17,20 L-15,15 L-13,11 L-15,8 L-10,5 L-3,2 Z " fill="#F9F9F9" transform="translate(189,85)"/>
</svg>
