<?xml version="1.0" encoding="UTF-8"?>
<!-- Generator: visioncortex VTracer 0.6.12 -->
<svg version="1.1" xmlns="http://www.w3.org/2000/svg" width="351" height="344">
<path d="M0,0 L351,0 L351,344 L0,344 Z M106,20 L110,21 L110,23 L104,22 L104,29 L103,36 L104,63 L107,69 L112,71 L113,96 L114,99 L113,101 L108,101 L106,106 L106,132 L111,137 L115,138 L114,169 L112,170 L112,168 L107,167 L107,138 L98,136 L85,136 L73,139 L71,142 L66,142 L65,145 L62,144 L60,146 L62,146 L62,149 L57,151 L50,157 L45,158 L41,161 L41,164 L39,164 L38,170 L35,170 L32,176 L31,188 L27,188 L25,199 L23,199 L21,209 L20,244 L23,257 L26,256 L29,265 L31,273 L35,277 L36,276 L39,281 L41,285 L42,286 L49,287 L49,291 L52,292 L54,291 L53,294 L59,297 L64,301 L70,304 L79,304 L78,307 L90,312 L120,318 L129,318 L138,319 L137,321 L152,322 L173,322 L173,324 L236,324 L245,321 L249,322 L262,319 L268,316 L273,315 L281,310 L281,308 L288,308 L297,311 L303,313 L304,314 L308,317 L315,319 L317,318 L317,321 L324,324 L327,323 L326,322 L331,322 L329,321 L330,317 L328,310 L317,304 L312,303 L308,302 L307,299 L304,299 L304,297 L300,295 L298,292 L297,295 L295,293 L294,295 L292,293 L295,292 L295,290 L299,289 L301,284 L302,281 L305,278 L307,271 L307,268 L311,251 L311,215 L310,207 L308,207 L307,200 L305,200 L304,191 L298,183 L296,183 L296,181 L292,181 L283,175 L280,172 L268,167 L254,163 L239,161 L222,157 L203,155 L201,154 L200,152 L180,149 L162,146 L161,144 L154,143 L146,143 L140,141 L142,139 L123,136 L121,135 L121,98 L120,67 L121,63 L121,23 L119,20 Z M157,65 L153,66 L153,68 L149,68 L148,77 L145,77 L142,83 L144,91 L146,91 L146,93 L155,95 L155,92 L157,87 L159,87 L161,79 L158,76 L158,73 L162,72 L163,67 Z M119,98 Z " fill="#F8F8F8" transform="translate(0,0)"/>
<path d="M0,0 L21,0 L38,2 L60,6 L77,10 L82,10 L84,12 L94,16 L94,18 L100,20 L103,21 L106,22 L106,23 L109,24 L109,26 L113,27 L115,31 L121,39 L124,43 L126,46 L127,56 L127,69 L123,80 L121,80 L119,86 L112,90 L112,93 L109,96 L109,93 L107,93 L105,97 L105,100 L102,102 L99,102 L96,105 L92,103 L88,102 L88,99 L82,99 L70,92 L69,89 L64,88 L47,80 L41,76 L37,72 L18,62 L13,61 L12,57 L11,54 L17,53 L22,56 L22,54 L20,53 L24,49 L24,44 L26,44 L26,42 L31,41 L33,43 L36,43 L39,35 L41,35 L41,41 L42,34 L45,29 L42,24 L34,24 L32,25 L32,27 L19,33 L6,38 L3,40 L6,43 L-14,55 L-25,62 L-44,74 L-54,79 L-61,78 L-57,75 L-48,70 L-54,72 L-58,75 L-64,76 L-65,80 L-65,85 L-66,87 L-65,89 L-63,87 L-62,91 L-59,91 L-58,93 L-48,94 L-39,94 L-33,96 L-33,98 L-28,98 L-30,100 L-40,100 L-49,102 L-53,101 L-54,106 L-50,107 L-50,109 L-47,109 L-47,111 L-32,112 L-19,108 L-4,100 L1,97 L3,97 L3,95 L9,94 L20,94 L20,96 L26,95 L27,98 L38,101 L55,105 L52,100 L49,99 L48,97 L43,96 L43,94 L34,90 L30,89 L27,86 L21,83 L16,82 L14,80 L4,78 L2,78 L1,81 L-6,85 L-15,84 L-16,87 L-20,88 L-22,93 L-26,97 L-32,97 L-33,93 L-31,93 L-33,91 L-32,86 L-28,83 L-24,79 L-18,78 L-9,80 L-8,75 L-10,75 L-11,69 L-8,68 L-6,70 L-4,66 L-2,66 L-2,64 L3,65 L17,73 L22,75 L19,72 L4,64 L3,60 L7,58 L12,62 L24,69 L26,69 L29,72 L45,80 L68,92 L79,99 L79,100 L69,100 L60,95 L57,96 L76,107 L82,108 L83,111 L76,114 L74,117 L68,118 L63,121 L61,123 L49,126 L40,129 L40,131 L21,133 L-2,132 L-2,130 L-23,128 L-34,125 L-41,125 L-41,123 L-51,119 L-60,119 L-60,117 L-82,106 L-87,104 L-90,103 L-90,101 L-97,98 L-100,97 L-100,95 L-104,95 L-106,91 L-112,86 L-115,84 L-121,72 L-123,71 L-124,66 L-124,47 L-121,46 L-123,41 L-119,39 L-117,34 L-108,24 L-103,19 L-96,16 L-90,15 L-74,16 L-67,17 L-38,17 L-29,15 L-23,13 L-21,10 L-14,7 Z M-7,21 L-12,25 L-18,25 L-19,28 L-27,28 L-40,30 L-71,30 L-71,28 L-92,28 L-98,30 L-104,37 L-109,40 L-108,45 L-111,46 L-110,57 L-108,61 L-108,59 L-106,59 L-104,51 L-101,50 L-101,46 L-98,47 L-90,43 L-80,41 L-62,41 L-63,43 L-50,44 L-37,42 L-35,41 L-35,39 L-25,37 L-17,34 L-16,31 L-13,31 L-13,29 L-8,28 L-6,26 L-6,24 L-5,21 Z M-10,47 L-13,48 L-14,50 L-20,51 L-24,54 L-33,60 L-37,60 L-37,64 L-31,62 L-16,53 L-11,51 L-6,48 Z M25,76 L24,78 L47,90 L55,94 L57,92 L32,79 L27,76 Z " fill="#F8F8F7" transform="translate(163,171)"/>
<path d="M0,0 L1,0 L1,7 L0,5 L-2,7 L-2,37 L1,40 L1,42 L11,43 L20,45 L38,45 L42,47 L42,48 L60,51 L80,54 L81,59 L91,59 L125,66 L143,71 L145,71 L130,66 L134,65 L151,70 L150,73 L166,81 L174,86 L174,83 L176,83 L176,85 L180,87 L184,93 L185,102 L187,102 L188,109 L190,109 L190,112 L188,112 L189,117 L190,133 L190,147 L186,168 L186,173 L187,175 L184,182 L181,184 L180,189 L177,192 L175,192 L175,194 L168,194 L154,187 L145,183 L140,178 L142,174 L148,172 L147,169 L150,166 L152,166 L153,168 L153,165 L158,160 L162,158 L164,153 L166,153 L169,142 L169,124 L171,124 L167,112 L161,103 L154,97 L147,97 L148,95 L143,94 L137,91 L137,89 L132,88 L124,85 L125,82 L108,79 L95,76 L58,70 L45,70 L36,73 L24,82 L22,82 L23,86 L14,89 L10,87 L-8,90 L-21,89 L-36,87 L-52,87 L-60,90 L-68,96 L-62,94 L-68,101 L-75,110 L-79,114 L-81,114 L-82,125 L-82,138 L-79,148 L-73,157 L-68,159 L-60,165 L-60,167 L-56,168 L-56,170 L-51,171 L-46,174 L-45,178 L-24,189 L-19,191 L-8,191 L3,196 L6,197 L13,198 L14,201 L39,205 L62,207 L71,207 L83,205 L83,202 L92,198 L104,195 L109,191 L114,189 L121,188 L129,184 L136,188 L140,189 L143,192 L150,195 L153,198 L162,203 L164,206 L162,210 L158,214 L151,218 L143,218 L113,224 L67,224 L35,222 L-8,216 L-14,214 L-14,216 L-26,215 L-40,210 L-42,208 L-41,206 L-50,206 L-59,201 L-61,199 L-67,196 L-66,193 L-69,194 L-71,192 L-71,189 L-77,184 L-87,171 L-92,163 L-94,160 L-94,158 L-97,159 L-100,146 L-100,143 L-98,143 L-97,147 L-97,115 L-92,96 L-94,97 L-93,90 L-89,90 L-88,78 L-85,72 L-82,72 L-81,66 L-79,66 L-78,62 L-74,59 L-69,58 L-62,52 L-58,51 L-58,48 L-60,47 L-56,46 L-54,46 L-54,44 L-49,44 L-47,41 L-41,41 L-41,43 L-24,40 L-17,41 L-14,43 L-14,65 L-23,67 L-24,75 L-11,78 L0,77 L7,74 L9,70 L5,67 L1,68 L-4,70 L-3,38 L-10,36 L-13,32 L-13,5 L-12,3 L-4,3 L-4,1 Z M124,195 L119,200 L111,207 L107,209 L107,211 L109,212 L128,212 L143,210 L151,208 L151,206 L137,198 L132,195 Z " fill="#F3F5F2" transform="translate(120,98)"/>
<path d="M0,0 L3,4 L0,9 L-1,17 L-3,16 L-2,10 L-4,10 L-7,19 L-13,18 L-17,17 L-17,19 L-19,19 L-18,27 L-21,27 L-21,31 L-26,29 L-32,29 L-28,34 L-30,34 L-30,36 L-23,37 L-5,47 L-7,48 L-23,40 L-29,39 L-35,35 L-38,34 L-41,36 L-42,39 L-45,39 L-44,43 L-48,43 L-50,47 L-52,44 L-54,44 L-53,50 L-51,50 L-52,55 L-65,54 L-70,57 L-69,59 L-75,62 L-74,63 L-74,68 L-75,72 L-69,72 L-67,67 L-65,68 L-67,73 L-69,73 L-69,75 L-73,74 L-76,73 L-76,71 L-84,69 L-85,71 L-85,69 L-97,70 L-102,68 L-102,66 L-105,66 L-106,64 L-109,64 L-110,61 L-109,60 L-109,53 L-105,49 L-100,48 L-93,44 L-90,45 L-102,52 L-97,53 L-82,45 L-65,34 L-40,19 L-38,18 L-41,15 L-33,10 L-31,11 L-33,13 L-31,15 L-11,3 L-1,1 Z " fill="#DDE0DB" transform="translate(206,196)"/>
<path d="M0,0 L13,3 L13,5 L19,6 L26,10 L26,12 L33,13 L41,17 L42,19 L45,20 L45,23 L47,24 L43,25 L27,20 L20,19 L16,19 L16,17 L-1,18 L-1,20 L-11,26 L-28,34 L-36,36 L-47,35 L-51,34 L-51,32 L-54,32 L-54,30 L-59,29 L-57,24 L-46,23 L-39,22 L-30,23 L-30,21 L-27,18 L-25,11 L-23,9 L-20,9 L-19,7 L-10,7 L-3,3 Z " fill="#EDF0EA" transform="translate(167,248)"/>
<path d="M0,0 L5,1 L13,5 L20,5 L22,8 L22,11 L24,5 L28,4 L35,5 L39,7 L40,8 L42,9 L44,13 L54,16 L65,22 L73,25 L73,27 L75,28 L77,26 L78,28 L80,25 L81,28 L85,30 L85,32 L89,33 L89,35 L100,38 L110,44 L111,52 L110,54 L112,55 L106,55 L108,57 L103,56 L98,54 L98,51 L94,52 L85,48 L86,46 L80,45 L74,42 L63,41 L63,38 L63,35 L51,28 L51,26 L42,23 L41,20 L35,19 L29,16 L20,21 L18,20 L23,15 L25,14 L25,13 L19,11 L0,1 Z " fill="#D6DBD5" transform="translate(219,267)"/>
<path d="M0,0 L2,1 L0,4 L1,6 L-2,8 L-6,8 L-6,10 L-9,10 L-10,13 L-21,17 L-37,20 L-51,20 L-68,17 L-81,18 L-79,19 L-79,21 L-89,25 L-92,26 L-94,25 L-95,30 L-97,30 L-99,38 L-101,38 L-102,40 L-104,31 L-104,25 L-101,24 L-102,19 L-97,16 L-92,11 L-89,8 L-80,7 L-64,7 L-64,9 L-60,9 L-60,11 L-50,12 L-39,12 L-19,9 L-12,8 L-11,4 L-5,4 Z " fill="#EDEFE9" transform="translate(156,192)"/>
<path d="M0,0 L8,0 L24,9 L27,11 L27,13 L15,16 L4,17 L-15,17 L-17,16 L-17,14 L-8,8 L-2,1 Z " fill="#FAFAFA" transform="translate(244,293)"/>
<path d="M0,0 L13,0 L15,3 L15,15 L13,15 L12,43 L11,43 L11,16 L7,17 L4,16 L2,19 L1,42 L0,42 L-1,14 L-2,9 L-2,2 L4,3 L4,1 Z " fill="#D2D6CF" transform="translate(106,20)"/>
<path d="M0,0 L6,2 L7,29 L8,32 L8,64 L7,64 L6,31 L1,30 L-2,29 L-3,27 L-3,4 Z " fill="#F9F9F9" transform="translate(110,35)"/>
<path d="M0,0 L4,1 L6,6 L1,10 L-3,11 L-15,11 L-24,8 L-24,3 L-19,1 L-14,5 L-6,5 L-2,4 Z " fill="#F0F1F0" transform="translate(122,164)"/>
<path d="M0,0 L2,1 L2,28 L1,32 L1,63 L-1,67 L-2,32 L-3,29 L-4,1 L-2,1 L-1,4 Z " fill="#7F8A74" transform="translate(119,35)"/>
<path d="M0,0 L13,0 L22,2 L22,31 L27,32 L27,34 L21,33 L18,30 L18,27 L21,27 L21,5 L16,3 L6,4 L-6,5 L-6,3 L-9,2 Z " fill="#97A790" transform="translate(85,136)"/>
<path d="M0,0 L10,2 L11,8 L8,11 L5,11 L2,6 L3,12 L8,14 L10,18 L1,16 L1,14 L-1,14 L-3,6 Z " fill="#E6ECE2" transform="translate(145,77)"/>
<path d="M0,0 L19,2 L50,9 L62,13 L63,15 L53,13 L24,6 L8,3 L-2,2 Z " fill="#ACBA9B" transform="translate(203,155)"/>
<path d="M0,0 L1,0 L2,24 L5,28 L11,30 L11,61 L15,60 L14,63 L8,64 L9,32 L3,30 L0,26 Z " fill="#A7B497" transform="translate(106,106)"/>
<path d="M0,0 L2,2 L-3,20 L-3,54 L-5,52 L-6,48 L-6,16 L-4,6 L-2,6 Z " fill="#BAC6AB" transform="translate(27,193)"/>
<path d="M0,0 L2,0 L3,2 L4,30 L5,34 L12,37 L11,64 L10,64 L9,39 L4,37 L1,31 Z " fill="#EAF1E2" transform="translate(103,32)"/>
<path d="M0,0 L25,3 L38,2 L48,0 L52,1 L49,1 L49,3 L43,5 L14,5 L-1,3 Z " fill="#AFBD9E" transform="translate(82,184)"/>
<path d="M0,0 L2,0 L3,2 L3,32 L7,34 L7,36 L3,37 L-1,32 L0,2 L-2,1 Z " fill="#858E79" transform="translate(118,103)"/>
<path d="M0,0 L8,0 L4,2 L-10,5 L-19,6 L-30,6 L-40,4 L-37,2 L-13,2 Z " fill="#D1D9C3" transform="translate(136,199)"/>
<path d="M0,0 L11,0 L11,5 L10,3 L0,6 L-20,18 L-22,17 L-22,14 L-16,10 L-4,5 L0,4 Z " fill="#8B9B85" transform="translate(195,194)"/>
<path d="M0,0 L22,3 L39,7 L46,9 L44,11 L34,9 L2,3 L-1,1 Z " fill="#B5C0A5" transform="translate(199,171)"/>
<path d="M0,0 L4,0 L6,5 L8,8 L6,15 L4,15 L2,20 L-6,18 L-7,10 L-3,14 L-3,16 L2,15 L2,7 L-5,7 L-4,5 L2,5 Z " fill="#8E958E" transform="translate(153,72)"/>
<path d="M0,0 L4,2 L11,8 L17,18 L19,28 L16,27 L15,23 L13,20 L7,10 L2,5 L1,4 L-2,2 Z " fill="#CFE1C9" transform="translate(272,194)"/>
<path d="M0,0 L6,2 L5,8 L-3,8 L-1,13 L-8,13 L-8,3 L-4,3 L-3,1 Z " fill="#C3C9C2" transform="translate(157,65)"/>
<path d="M0,0 L4,1 L-4,4 L-66,4 L-66,2 L-68,1 L-6,1 Z " fill="#BDD3B3" transform="translate(239,320)"/>
<path d="M0,0 L14,0 L26,2 L26,3 L-2,3 L-16,10 L-19,12 L-23,11 L-17,7 L-9,1 Z " fill="#D6E1CB" transform="translate(165,169)"/>
<path d="M0,0 L2,2 L3,5 L3,41 L-1,58 L-3,60 L-2,51 L1,35 L1,21 Z " fill="#B2BB9E" transform="translate(308,210)"/>
<path d="M0,0 L19,9 L26,12 L30,16 L37,20 L37,22 L32,21 L21,14 L-2,2 Z " fill="#B6C1A4" transform="translate(206,248)"/>
<path d="M0,0 L3,1 L3,5 L1,6 L1,25 L3,29 L10,43 L7,43 L0,32 L-2,24 L-2,11 Z " fill="#BBCCAE" transform="translate(39,212)"/>
<path d="M0,0 L5,2 L25,12 L29,14 L27,14 L27,16 L18,13 L-2,2 Z " fill="#C6DCBF" transform="translate(76,274)"/>
<path d="M0,0 L1,2 L6,3 L9,4 L10,8 L10,37 L9,39 L7,39 L7,7 L0,4 Z " fill="#B0BC9F" transform="translate(107,62)"/>
<path d="M0,0 L2,3 L9,14 L19,26 L19,27 L14,27 L11,24 L10,20 L8,17 L6,18 L2,12 L1,6 Z " fill="#CCDFC7" transform="translate(28,259)"/>
<path d="M0,0 L12,0 L9,2 L0,4 L-25,3 L-32,2 L-32,1 L-7,1 Z " fill="#B6C2A6" transform="translate(191,302)"/>
<path d="M0,0 L5,1 L21,6 L24,6 L23,4 L27,5 L30,11 L16,8 L3,4 L0,1 Z " fill="#D1D9C3" transform="translate(189,266)"/>
<path d="M0,0 L4,1 L-5,6 L-16,12 L-25,17 L-27,16 L-27,13 L-22,12 L-14,7 L-10,4 L-4,3 L-3,1 Z " fill="#BACBAE" transform="translate(153,218)"/>
<path d="M0,0 L13,0 L33,3 L33,6 L21,4 L14,3 L0,3 L-6,4 L-7,2 Z " fill="#A9BA99" transform="translate(165,167)"/>
<path d="M0,0 L5,1 L21,9 L25,11 L26,14 L20,13 L9,7 L0,1 Z " fill="#B9C7AB" transform="translate(180,235)"/>
<path d="M0,0 L4,1 L0,3 L0,8 L8,10 L20,10 L27,7 L27,3 L29,2 L31,4 L29,8 L25,11 L16,13 L5,12 L-3,9 L-3,3 Z " fill="#8DA087" transform="translate(99,164)"/>
<path d="M0,0 L13,2 L28,3 L28,6 L18,6 L1,3 L-2,1 Z " fill="#C3DABC" transform="translate(133,297)"/>
<path d="M0,0 L6,2 L28,14 L32,17 L29,18 L-1,2 Z " fill="#B7C1A6" transform="translate(188,247)"/>
<path d="M0,0 L14,0 L14,2 L-1,4 L-15,11 L-17,10 L-6,2 Z " fill="#B6C2A5" transform="translate(68,184)"/>
<path d="M0,0 L5,2 L11,5 L21,5 L26,4 L30,5 L30,8 L22,7 L22,13 L20,13 L18,8 L11,8 L-1,2 Z " fill="#9DA791" transform="translate(221,265)"/>
<path d="M0,0 L27,4 L34,5 L34,6 L14,6 L-1,3 Z " fill="#BFD8B8" transform="translate(106,312)"/>
<path d="M0,0 L15,1 L20,2 L18,4 L-4,4 L-8,2 Z " fill="#D4DBC6" transform="translate(81,208)"/>
<path d="M0,0 L4,0 L4,2 L-3,5 L-14,7 L-18,6 L-20,4 Z " fill="#C7DCC0" transform="translate(263,315)"/>
<path d="M0,0 L2,1 L2,5 L7,7 L22,15 L19,17 L4,9 L-1,5 Z " fill="#B5C0A7" transform="translate(165,230)"/>
<path d="M0,0 L4,0 L4,2 L-3,4 L-18,5 L-24,4 L-23,1 L-5,1 Z " fill="#D4DCC7" transform="translate(124,210)"/>
<path d="M0,0 L17,2 L15,4 L21,6 L21,7 L10,6 L-3,3 L0,2 Z " fill="#BACDB0" transform="translate(125,137)"/>
<path d="M0,0 L8,0 L31,2 L31,3 L5,4 L-3,3 Z " fill="#BDD7B6" transform="translate(140,318)"/>
<path d="M0,0 L9,3 L19,11 L23,15 L18,13 L8,7 L-4,2 Z " fill="#BACFB1" transform="translate(271,169)"/>
</svg>
