<?xml version="1.0" encoding="UTF-8"?>
<!-- Generator: visioncortex VTracer 0.6.12 -->
<svg version="1.1" xmlns="http://www.w3.org/2000/svg" width="184" height="344">
<path d="M0,0 L184,0 L184,344 L0,344 Z M28,21 L23,26 L21,35 L20,55 L24,68 L30,80 L33,81 L34,86 L37,90 L40,91 L45,101 L49,111 L52,118 L51,127 L45,129 L40,133 L39,131 L38,140 L40,144 L40,146 L37,153 L37,156 L35,156 L36,160 L33,159 L29,164 L28,173 L31,180 L36,182 L43,182 L38,202 L34,213 L33,225 L39,223 L36,233 L37,239 L43,249 L48,257 L47,270 L44,297 L42,299 L44,299 L44,301 L38,302 L37,307 L33,307 L34,315 L36,315 L36,317 L42,319 L54,319 L58,322 L72,322 L79,319 L79,300 L83,301 L87,285 L90,279 L92,277 L93,276 L95,272 L95,265 L101,268 L111,275 L115,274 L114,278 L116,282 L116,295 L107,301 L103,306 L101,316 L113,322 L128,324 L136,323 L139,317 L139,311 L141,304 L143,308 L145,295 L146,283 L147,280 L150,278 L147,276 L147,274 L154,274 L155,277 L160,276 L162,274 L165,261 L160,245 L161,238 L160,233 L163,234 L164,229 L163,226 L160,225 L156,201 L151,193 L145,188 L135,182 L132,183 L130,179 L136,180 L144,176 L142,170 L139,166 L136,167 L132,166 L133,164 L125,164 L126,161 L126,149 L123,143 L117,144 L113,148 L109,151 L107,149 L102,141 L103,126 L104,114 L112,102 L120,93 L124,82 L127,70 L127,52 L121,37 L118,32 L114,31 L98,31 L94,33 L95,35 L91,36 L91,38 L88,37 L84,46 L81,57 L81,86 L80,99 L77,113 L77,116 L75,116 L74,110 L77,101 L78,88 L73,74 L60,46 L56,42 L54,37 L53,35 L51,36 L52,32 L47,26 L42,25 L36,22 Z M115,292 Z " fill="#F9F8F8" transform="translate(0,0)"/>
<path d="M0,0 L4,1 L12,5 L21,15 L23,33 L23,43 L18,48 L15,51 L10,56 L8,59 L14,59 L14,56 L21,52 L26,53 L27,54 L26,65 L28,60 L28,54 L26,51 L32,48 L34,51 L33,58 L30,58 L28,68 L25,74 L23,74 L16,84 L14,91 L13,108 L10,119 L11,118 L14,111 L15,111 L15,120 L11,129 L9,127 L7,131 L5,132 L-3,132 L-7,131 L-8,125 L-5,118 L-2,108 L0,104 L2,104 L2,102 L4,102 L3,84 L5,82 L0,83 L-3,84 L-14,80 L-22,75 L-28,69 L-29,59 L-25,53 L-23,51 L-25,50 L-24,43 L-32,62 L-37,83 L-41,89 L-46,91 L-55,89 L-56,84 L-56,73 L-60,71 L-59,79 L-61,87 L-61,100 L-65,113 L-69,123 L-72,126 L-85,126 L-87,121 L-85,121 L-84,118 L-76,113 L-75,112 L-74,102 L-73,100 L-73,81 L-71,78 L-70,71 L-72,74 L-74,65 L-74,62 L-80,50 L-81,41 L-79,31 L-80,30 L-82,27 L-80,18 L-78,15 L-76,15 L-73,21 L-70,28 L-62,41 L-55,47 L-51,48 L-46,53 L-44,50 L-40,35 L-39,31 L-38,25 L-31,19 L-27,15 L-25,5 L-24,1 L-13,3 L-9,6 L-8,11 L-8,17 L-6,17 L-3,4 Z " fill="#F0F0EE" transform="translate(124,187)"/>
<path d="M0,0 L2,4 L4,13 L1,14 L10,16 L13,18 L16,34 L17,38 L17,50 L12,56 L12,60 L15,64 L3,68 L-4,71 L-7,68 L2,66 L7,63 L4,64 L-5,65 L-11,66 L-13,70 L-22,73 L-31,72 L-33,69 L-32,64 L-30,57 L-21,54 L-15,58 L-13,58 L-11,56 L-16,52 L-25,50 L-33,49 L-34,46 L-36,46 L-36,37 L-35,35 L-33,35 L-32,29 L-32,22 L-29,19 L-24,17 L-24,14 L-15,14 L-11,21 L-7,21 L-6,19 L-8,18 L-2,8 Z " fill="#F1F0EF" transform="translate(81,111)"/>
<path d="M0,0 L11,3 L13,9 L17,9 L22,18 L28,28 L27,36 L27,38 L33,41 L38,55 L39,62 L39,70 L36,85 L29,86 L23,75 L18,74 L14,65 L13,58 L5,45 L1,35 L-2,11 L-1,1 Z " fill="#F3F3F1" transform="translate(29,29)"/>
<path d="M0,0 L8,0 L13,5 L15,11 L15,26 L14,49 L12,51 L10,51 L6,52 L6,55 L2,56 L-1,47 L-6,69 L-8,73 L-15,75 L-18,70 L-19,57 L-18,43 L-19,35 L-18,23 L-17,16 L-19,16 L-18,12 L-12,7 L-7,3 Z " fill="#F4F4F2" transform="translate(104,41)"/>
<path d="M0,0 L16,0 L16,5 L10,7 L10,9 L19,10 L19,12 L9,12 L8,21 L6,26 L5,22 L6,16 L4,17 L0,26 L-2,28 L-2,25 L-1,22 L-11,23 L-14,23 L-12,19 L-5,14 L-3,9 L-23,9 L-22,7 L-11,5 Z " fill="#69937B" transform="translate(91,177)"/>
<path d="M0,0 L7,0 L9,4 L8,11 L7,13 L6,23 L1,33 L-6,33 L-7,30 L-7,12 L-5,8 L-4,9 Z " fill="#EEEDE8" transform="translate(68,283)"/>
<path d="M0,0 L4,1 L4,16 L3,19 L7,21 L3,22 L4,24 L5,23 L18,22 L18,24 L20,24 L20,26 L23,27 L19,30 L13,31 L16,28 L2,28 L-2,27 L-3,29 L-5,29 L-5,26 L-3,26 L-3,24 L-11,24 L-10,15 L-4,5 L-2,5 Z " fill="#769F88" transform="translate(120,147)"/>
<path d="M0,0 L1,2 L4,1 L3,9 L4,11 L4,20 L3,29 L5,39 L5,49 L7,49 L6,66 L4,72 L2,68 L4,61 L4,51 L-5,51 L-10,46 L-11,37 L-9,32 L-5,28 L-3,29 L-4,25 L-2,25 L0,16 L2,15 L1,13 L-1,9 Z M-3,32 L-6,37 L-5,44 L0,47 L3,45 L3,37 L1,32 Z M3,54 Z " fill="#908E84" transform="translate(39,131)"/>
<path d="M0,0 L31,0 L27,22 L25,23 L27,7 L6,8 L9,11 L11,13 L12,19 L18,27 L14,25 L7,19 L2,11 L2,6 L0,3 Z M24,23 Z " fill="#517B63" transform="translate(53,208)"/>
<path d="M0,0 L2,0 L3,6 L3,9 L6,9 L8,16 L8,22 L6,24 L8,25 L8,30 L4,32 L4,28 L1,28 L0,27 L-7,28 L-7,20 L-1,3 Z " fill="#D9D9D8" transform="translate(154,245)"/>
<path d="M0,0 L4,2 L8,9 L9,18 L9,25 L6,36 L6,44 L7,49 L5,45 L-2,46 L-4,49 L-2,51 L-9,51 L-11,48 L-12,41 L-17,31 L-12,31 L-8,41 L-8,43 L2,42 L4,29 L5,20 L2,10 Z " fill="#EEEEED" transform="translate(65,73)"/>
<path d="M0,0 Z M-4,-1 L-2,2 L0,1 L20,2 L21,9 L23,8 L33,8 L32,15 L30,15 L30,13 L19,13 L17,7 L17,9 L-8,9 L-9,7 L-6,2 L-4,2 Z " fill="#84AD97" transform="translate(57,191)"/>
<path d="M0,0 L4,1 L2,11 L0,14 L0,20 L8,21 L8,22 L-4,22 L-14,18 L-13,11 L-10,7 L-8,3 L-3,1 L0,2 Z " fill="#B8B7B4" transform="translate(117,298)"/>
<path d="M0,0 L2,1 L2,7 L-2,19 L-3,26 L-7,28 L-11,24 L-16,19 L-20,14 L-22,8 L-5,9 L-5,17 L-3,17 L-2,10 Z M-7,18 Z " fill="#598069" transform="translate(84,213)"/>
<path d="M0,0 L12,0 L14,2 L14,6 L11,6 L11,8 L4,12 L2,12 L0,16 L-4,13 L-6,9 L-11,11 L-15,10 L-12,7 L-6,2 L-2,1 L-1,2 Z " fill="#E9E9E9" transform="translate(115,176)"/>
<path d="M0,0 L2,2 L-1,6 L-1,9 L-7,21 L-9,21 L-10,26 L-15,28 L-17,27 L-17,29 L-20,30 L-25,28 L-24,26 L-22,26 L-20,22 L-12,12 L-9,9 L-6,8 L-8,6 L-1,2 Z " fill="#D9D8D6" transform="translate(117,144)"/>
<path d="M0,0 L2,1 L1,7 L9,7 L9,9 L7,9 L8,15 L4,16 L5,13 L-2,16 L-2,14 L-17,14 L-28,19 L-32,19 L-31,17 L-19,12 L-13,10 L-11,8 L-8,9 L-8,7 L-1,6 L-2,3 Z " fill="#3A5745" transform="translate(108,164)"/>
<path d="M0,0 L3,4 L5,2 L5,9 L3,18 L2,21 L2,33 L1,35 L0,45 L-6,50 L-10,52 L-11,54 L-13,53 L-12,48 L-4,46 L-2,23 L0,13 Z " fill="#32322F" transform="translate(50,254)"/>
<path d="M0,0 L2,0 L2,6 L6,10 L6,17 L0,19 L1,25 L-4,33 L-5,37 L-3,43 L-3,50 L-5,51 L-6,47 L-11,47 L-9,39 L-2,22 L-1,5 Z " fill="#F2F2F1" transform="translate(46,175)"/>
<path d="M0,0 L4,1 L2,5 L1,17 L5,27 L9,35 L8,37 L6,38 L6,36 L3,37 L-4,27 L-7,21 L-6,13 L-4,13 L-2,22 L0,26 L-2,13 L-3,10 L-1,9 L-1,2 Z " fill="#94928A" transform="translate(43,216)"/>
<path d="M0,0 L2,3 L3,7 L5,6 L5,24 L-1,45 L-5,51 L-7,49 L-5,44 L-3,44 L0,35 L0,32 L-3,35 L-2,17 L0,17 L1,15 Z " fill="#B0ADA1" transform="translate(122,46)"/>
<path d="M0,0 L1,0 L3,12 L6,14 L8,14 L8,12 L13,11 L13,14 L15,14 L15,16 L17,16 L15,28 L13,24 L10,23 L10,21 L3,20 L0,17 L-1,12 L-1,2 Z " fill="#CDCDCC" transform="translate(83,103)"/>
<path d="M0,0 L8,1 L4,2 L3,4 L1,2 L-3,7 L0,7 L2,8 L0,13 L1,27 L2,32 L2,43 L0,42 L-1,34 L-4,15 L-5,21 L-3,39 L-2,45 L-4,43 L-7,29 L-7,14 L-4,3 Z " fill="#3F3E38" transform="translate(28,21)"/>
<path d="M0,0 L5,1 L12,5 L15,5 L21,8 L24,11 L26,12 L27,19 L23,15 L16,14 L5,6 L2,5 L2,12 L0,16 L-1,9 L-1,1 Z " fill="#9D9B93" transform="translate(93,260)"/>
<path d="M0,0 L6,3 L9,3 L15,13 L17,22 L17,28 L14,29 L13,19 L7,10 L6,8 L2,6 L-1,7 L-6,8 L-11,7 L-7,3 Z " fill="#F4F4F4" transform="translate(107,33)"/>
<path d="M0,0 L3,3 L4,6 L4,18 L3,21 L11,21 L10,23 L15,24 L18,24 L21,29 L20,31 L18,30 L18,28 L15,27 L3,27 L2,29 L0,25 L3,24 L1,23 L1,5 L-3,7 L-5,9 L-7,8 L-5,4 Z " fill="#2D3930" transform="translate(122,143)"/>
<path d="M0,0 L4,1 L13,6 L16,9 L16,11 L18,12 L19,16 L14,14 L7,8 L1,6 L-2,5 L-5,10 L-7,19 L-9,18 L-8,5 Z " fill="#F3F3F3" transform="translate(126,183)"/>
<path d="M0,0 L2,3 L5,5 L-3,9 L-4,10 L-4,19 L-6,23 L-9,23 L-12,35 L-13,31 L-12,28 L-12,19 L-13,14 L-11,9 L-2,4 Z " fill="#BCBBB9" transform="translate(54,123)"/>
<path d="M0,0 L1,2 L-2,7 L-8,12 L-9,14 L-11,13 L-12,10 L-11,8 L-31,8 L-34,8 L-34,5 L-26,3 L-26,1 L-23,2 L-24,4 L-6,4 Z M-31,6 Z M-23,1 Z " fill="#345D45" transform="translate(88,185)"/>
<path d="M0,0 L8,2 L9,8 L10,17 L16,28 L16,31 L11,36 L8,37 L8,23 L6,19 L4,5 Z " fill="#E9E9E9" transform="translate(91,125)"/>
<path d="M0,0 L1,0 L2,9 L4,13 L12,13 L14,7 L17,1 L20,2 L19,12 L16,15 L12,16 L2,16 L-3,13 L-3,6 Z " fill="#F8F8F8" transform="translate(58,305)"/>
<path d="M0,0 L5,0 L5,2 L2,4 L8,5 L8,3 L16,3 L19,6 L18,8 L17,7 L9,7 L0,11 L-3,15 L-4,14 L-6,17 L-9,16 L-4,4 Z " fill="#979795" transform="translate(95,35)"/>
<path d="M0,0 L3,4 L5,11 L4,24 L1,33 L2,39 L4,39 L6,26 L7,22 L8,9 L9,9 L9,27 L6,40 L1,42 L-1,41 L-1,31 L2,21 L1,6 Z " fill="#D2CDBB" transform="translate(73,77)"/>
<path d="M0,0 L2,1 L2,6 L13,6 L14,9 L9,14 L10,9 L1,9 L-1,6 L-24,6 L-25,2 L0,2 Z M1,7 Z " fill="#397152" transform="translate(74,198)"/>
<path d="M0,0 L5,1 L10,3 L15,8 L16,11 L15,13 L18,12 L19,17 L20,21 L18,20 L18,18 L13,16 L9,12 L9,15 L6,15 L4,9 L-1,8 L0,6 L6,6 L7,5 L0,1 Z " fill="#82827C" transform="translate(36,23)"/>
<path d="M0,0 L22,0 L21,7 L7,7 L1,3 Z " fill="#87B19A" transform="translate(58,215)"/>
<path d="M0,0 L5,2 L7,7 L8,8 L7,17 L4,21 L5,8 L0,7 L-5,10 L-7,14 L-14,14 L-8,5 L-3,2 Z " fill="#6F6F6C" transform="translate(145,233)"/>
<path d="M0,0 L2,0 L3,13 L2,22 L3,34 L5,39 L7,40 L4,41 L1,37 L-1,28 L-4,42 L-7,45 L-10,42 L-6,40 L-2,24 L0,14 Z " fill="#20201C" transform="translate(84,77)"/>
<path d="M0,0 L3,1 L12,17 L16,18 L19,28 L20,29 L20,34 L8,28 L10,23 L9,16 L1,3 Z " fill="#8D8D8B" transform="translate(46,39)"/>
<path d="M0,0 L22,0 L24,3 L33,4 L33,5 L1,6 Z M24,2 Z " fill="#91BBA4" transform="translate(51,203)"/>
<path d="M0,0 L1,4 L-2,6 L-5,6 L-8,8 L-9,12 L-11,12 L-13,21 L-7,22 L-1,24 L9,25 L18,27 L18,28 L10,29 L-6,26 L-15,21 L-13,11 L-7,4 Z " fill="#1E1F1B" transform="translate(116,295)"/>
<path d="M0,0 L2,0 L4,5 L3,8 L6,10 L6,12 L3,12 L3,14 L-1,16 L-4,16 L-4,14 L-6,14 L-7,10 L-3,1 Z " fill="#EDEDED" transform="translate(154,221)"/>
<path d="M0,0 L2,1 L0,8 L4,10 L-1,13 L-3,17 L-3,24 L-5,22 L-8,31 L-11,43 L-11,50 L-13,50 L-14,47 L-16,46 L-13,41 L-7,17 Z " fill="#2B2C28" transform="translate(99,229)"/>
<path d="M0,0 L3,0 L4,7 L3,12 L8,28 L6,38 L2,36 L4,34 L4,28 L2,21 L-1,22 L-1,7 L0,4 L-1,2 Z " fill="#6C6A61" transform="translate(157,233)"/>
<path d="M0,0 L6,1 L24,2 L20,6 L1,6 L1,4 L-4,6 L-8,6 L-6,2 Z M3,2 Z " fill="#93B9A4" transform="translate(62,184)"/>
<path d="M0,0 L8,2 L7,4 L11,8 L13,22 L15,26 L15,41 L10,48 L9,46 L7,45 L12,39 L12,27 L10,20 L8,7 L0,4 L-5,4 L-4,2 L0,2 Z " fill="#20211D" transform="translate(85,122)"/>
<path d="M0,0 L2,4 L5,23 L6,31 L9,39 L8,41 L3,34 L1,28 L-1,6 Z " fill="#FAFAFA" transform="translate(23,32)"/>
<path d="M0,0 L1,4 L1,25 L8,24 L10,22 L9,27 L1,28 L-2,23 L-3,16 L-5,21 L-5,25 L-9,26 L-9,22 L-5,14 L-2,7 Z " fill="#3B3B38" transform="translate(61,291)"/>
<path d="M0,0 L5,0 L3,4 L3,21 L1,21 L0,23 L-1,12 L-3,12 L-4,5 L-6,9 L-6,4 L-11,2 L-8,1 L-2,2 Z " fill="#4B4A45" transform="translate(125,268)"/>
<path d="M0,0 L6,4 L6,20 L4,19 L3,14 L2,25 L2,30 L3,33 L1,40 L0,40 L-1,31 L-1,18 L1,8 Z " fill="#363530" transform="translate(63,256)"/>
<path d="M0,0 L2,0 L1,10 L-7,19 L-11,20 L-11,27 L-14,37 L-15,37 L-15,30 L-12,19 L-4,9 Z " fill="#FAFAFA" transform="translate(95,193)"/>
<path d="M0,0 L1,0 L2,7 L4,4 L5,8 L4,9 L4,19 L-1,28 L-2,26 L-6,27 L-1,18 L-2,8 L-1,5 Z " fill="#E9E9E8" transform="translate(121,272)"/>
<path d="M0,0 L2,1 L-3,5 L-2,13 L1,13 L4,1 L6,4 L3,12 L2,25 L-2,24 L-3,21 L1,21 L1,14 L-2,14 L-4,21 L-6,20 L-5,11 L-6,8 L-13,7 L-14,10 L-15,8 L-12,5 L-8,3 Z " fill="#21211E" transform="translate(81,276)"/>
<path d="M0,0 L1,2 L-1,14 L1,14 L0,18 L1,28 L0,40 L-3,42 L-2,37 L-2,30 L-5,37 L-7,36 L-4,25 L-3,8 Z " fill="#363632" transform="translate(140,270)"/>
<path d="M0,0 L2,3 L5,9 L13,16 L12,18 L4,13 L0,13 L-1,23 L-2,25 L-6,26 L-4,14 Z " fill="#FAFAFA" transform="translate(93,248)"/>
<path d="M0,0 L1,0 L4,16 L6,16 L10,22 L13,25 L19,36 L20,38 L16,36 L14,31 L9,30 L1,13 L-1,3 Z " fill="#ADAAA0" transform="translate(21,50)"/>
<path d="M0,0 L4,2 L1,3 L0,6 L-1,18 L-3,31 L-5,27 L-7,8 L-3,6 L-2,1 Z " fill="#A4A196" transform="translate(146,277)"/>
<path d="M0,0 L2,0 L4,5 L4,15 L1,33 L-1,48 L-5,46 L-3,45 L0,18 L1,5 Z " fill="#D0CAB8" transform="translate(47,252)"/>
<path d="M0,0 L2,1 L3,4 L6,7 L9,15 L10,30 L7,40 L6,50 L8,51 L7,57 L5,56 L4,45 L5,38 L7,30 L7,18 L3,8 L0,5 Z " fill="#292926" transform="translate(66,68)"/>
<path d="M0,0 L5,2 L15,8 L21,15 L24,24 L25,36 L23,38 L21,30 L19,14 L15,12 L6,6 L1,3 Z " fill="#B9B4A2" transform="translate(133,182)"/>
<path d="M0,0 L5,1 L6,5 L6,13 L2,15 L-2,12 L-3,5 Z " fill="#F8F8F7" transform="translate(36,163)"/>
<path d="M0,0 L2,2 L3,10 L9,8 L4,14 L3,11 L1,12 L0,20 L-6,27 L-7,25 L-2,7 Z " fill="#686761" transform="translate(103,87)"/>
<path d="M0,0 L2,4 L1,13 L3,13 L4,15 L10,16 L6,19 L0,17 L1,23 L2,26 L2,29 L6,29 L4,33 L4,31 L2,32 L0,36 L-2,23 L-3,14 L-1,8 Z " fill="#3A3935" transform="translate(44,144)"/>
<path d="M0,0 L3,2 L3,12 L5,13 L3,14 L2,30 L5,18 L6,18 L5,31 L1,40 L-1,38 L0,17 Z " fill="#22221F" transform="translate(118,50)"/>
<path d="M0,0 L1,0 L1,15 L-6,18 L-20,18 L-24,15 L-36,15 L-42,13 L-42,11 L-38,12 L-31,13 L-29,9 L-25,10 L-27,10 L-26,12 L-23,12 L-20,15 L-18,16 L-8,16 L-2,15 L-1,2 Z " fill="#191A16" transform="translate(78,304)"/>
<path d="M0,0 L4,2 L17,30 L16,33 L15,29 L12,28 L11,25 L8,23 L3,8 L0,2 Z " fill="#908D80" transform="translate(56,44)"/>
<path d="M0,0 L9,2 L15,6 L13,8 L7,8 L5,9 L1,8 L1,6 L-5,9 L-4,4 Z " fill="#CBCBC9" transform="translate(29,22)"/>
<path d="M0,0 L2,4 L0,10 L-6,17 L-11,25 L-12,37 L-14,37 L-14,28 L-11,17 L-4,9 L-2,9 L-2,3 Z " fill="#969387" transform="translate(115,89)"/>
<path d="M0,0 L2,0 L4,6 L3,9 L4,20 L6,19 L7,28 L4,36 L3,38 L-3,39 L2,34 L2,24 L0,6 L-3,2 L1,3 Z " fill="#242521" transform="translate(144,196)"/>
<path d="M0,0 L7,2 L11,1 L16,3 L13,6 L8,5 L7,13 L3,14 L2,10 Z " fill="#EBEBEA" transform="translate(43,160)"/>
<path d="M0,0 L3,4 L7,14 L14,25 L15,35 L17,36 L14,36 L9,26 L6,26 L3,19 L5,17 L9,23 L7,19 L0,5 Z " fill="#3D3D36" transform="translate(30,64)"/>
<path d="M0,0 L2,4 L-3,17 L1,19 L2,25 L3,29 L5,39 L3,41 L1,35 L-1,26 L0,20 L-6,22 L-5,13 Z " fill="#1F1F1C" transform="translate(39,203)"/>
<path d="M0,0 L2,0 L1,5 L1,33 L-1,43 L-2,43 L-2,2 Z " fill="#ADACA7" transform="translate(84,58)"/>
<path d="M0,0 L1,0 L2,12 L12,14 L10,16 L7,18 L3,19 L0,23 L-2,25 L-2,13 Z " fill="#E1E0DE" transform="translate(66,263)"/>
<path d="M0,0 L9,2 L15,7 L14,9 L12,9 L11,11 L6,7 L3,6 L-1,8 L-5,8 L-5,13 L-6,13 L-6,7 L-5,5 L2,4 L-2,1 Z " fill="#4B4B49" transform="translate(56,160)"/>
<path d="M0,0 L5,2 L6,6 L9,5 L16,5 L17,10 L11,11 L1,8 Z " fill="#8E8E8C" transform="translate(33,307)"/>
<path d="M0,0 L3,1 L7,5 L11,9 L16,19 L16,22 L13,23 L7,12 L3,5 L0,3 Z " fill="#F4F4F4" transform="translate(45,35)"/>
<path d="M0,0 L3,0 L3,7 L0,8 L0,14 L-1,16 L-4,17 L-7,23 L-8,20 L-6,16 L-5,6 L-3,6 Z " fill="#868785" transform="translate(79,290)"/>
<path d="M0,0 L1,3 L0,7 L0,31 L6,41 L8,43 L6,43 L5,45 L-2,32 L-3,23 L-3,12 L-2,9 L-4,8 L-2,8 L-1,2 Z " fill="#3B3A33" transform="translate(102,110)"/>
<path d="M0,0 L2,4 L-3,9 L-7,14 L-12,26 L-16,25 L-15,21 L-10,15 L-9,7 L-6,6 L-5,8 L-1,4 L-2,1 Z " fill="#EEEEED" transform="translate(112,92)"/>
<path d="M0,0 L3,1 L0,4 L-3,10 L-5,10 L-8,22 L-9,25 L-10,44 L-11,44 L-11,22 L-6,6 L-3,2 L-1,3 Z " fill="#A7A290" transform="translate(92,35)"/>
<path d="M0,0 L0,3 L-7,7 L-12,8 L-13,11 L-15,10 L-21,11 L-19,7 L-16,4 L-6,2 L-1,1 Z " fill="#76756F" transform="translate(88,172)"/>
<path d="M0,0 L1,0 L1,8 L-2,17 L-6,18 L-6,9 L-3,3 Z " fill="#FAFAFA" transform="translate(145,266)"/>
<path d="M0,0 L4,1 L21,1 L17,4 L23,2 L26,1 L26,3 L18,7 L12,6 L13,10 L11,11 L8,9 L11,9 L11,6 L9,5 L9,4 L0,4 Z " fill="#1D261E" transform="translate(118,173)"/>
<path d="M0,0 L8,0 L10,6 L11,1 L15,3 L14,8 L12,11 L9,11 L8,6 L0,4 Z " fill="#C4C4C2" transform="translate(62,118)"/>
<path d="M0,0 L3,1 L1,6 L7,20 L7,24 L3,19 L0,9 L-3,12 L-5,21 L-6,23 L-8,17 L-3,8 L-2,3 L-2,1 Z " fill="#20221E" transform="translate(48,193)"/>
<path d="M0,0 L2,3 L3,5 L12,6 L20,5 L27,4 L29,7 L15,8 L10,9 L9,11 L7,13 L6,16 L4,15 L4,8 L0,4 Z " fill="#33332D" transform="translate(47,177)"/>
<path d="M0,0 L16,0 L21,2 L25,10 L28,19 L27,23 L24,15 L21,8 L19,3 L6,2 L-3,3 L-4,1 Z " fill="#CBC5B0" transform="translate(98,31)"/>
<path d="M0,0 L5,2 L8,7 L7,12 L5,12 L5,25 L3,22 L2,9 L3,7 L2,2 L-2,1 Z " fill="#C7C7C6" transform="translate(144,194)"/>
<path d="M0,0 L3,3 L4,0 L7,1 L6,7 L3,11 L-1,10 L-7,9 L-7,7 L-1,5 Z " fill="#7C7B73" transform="translate(132,312)"/>
<path d="M0,0 L4,3 L6,6 L8,11 L10,11 L11,17 L9,19 L7,18 L7,16 L3,14 L4,9 L3,6 L-1,7 Z " fill="#61605B" transform="translate(153,215)"/>
<path d="M0,0 L2,0 L5,10 L4,13 L3,11 L1,17 L-1,16 L-2,10 L-2,1 Z " fill="#FAFAFA" transform="translate(151,205)"/>
<path d="M0,0 L8,1 L12,3 L13,8 L17,9 L15,13 L11,11 L8,5 L-1,4 L-2,6 L-3,2 L3,2 Z " fill="#343431" transform="translate(58,121)"/>
<path d="M0,0 L1,2 L4,2 L5,0 L6,3 L3,4 L9,15 L9,22 L6,27 L-1,31 L-3,30 L3,26 L5,26 L6,17 L3,10 L0,4 Z " fill="#1E1F1B" transform="translate(46,101)"/>
<path d="M0,0 L4,4 L6,3 L5,8 L6,16 L2,21 L1,17 L1,8 L-1,2 Z M0,18 Z " fill="#7A776B" transform="translate(115,274)"/>
<path d="M0,0 L2,4 L2,9 L0,11 L1,13 L-2,16 L-6,27 L-7,33 L-8,33 L-8,23 L-5,15 L-3,8 L0,6 Z " fill="#9F9B8E" transform="translate(91,265)"/>
<path d="M0,0 L1,0 L1,7 L-1,16 L-1,20 L-4,21 L-8,31 L-9,28 L-3,10 L-1,1 Z " fill="#C1BCA9" transform="translate(43,185)"/>
<path d="M0,0 L5,2 L17,9 L22,13 L24,19 L24,24 L23,22 L21,21 L20,16 L16,12 L12,11 L8,6 L0,2 Z " fill="#2F2F2C" transform="translate(130,183)"/>
<path d="M0,0 L2,2 L3,12 L-1,29 L-3,30 L-11,30 L-15,22 L-14,20 L-11,25 L-11,27 L-6,28 L-3,27 L0,15 Z " fill="#171713" transform="translate(68,86)"/>
<path d="M0,0 L5,2 L3,3 L3,5 L7,7 L10,4 L10,17 L10,21 L8,22 L7,20 L7,12 L6,9 L3,7 L-3,6 L-3,5 L2,5 L2,3 L-4,3 L0,2 Z " fill="#272724" transform="translate(108,184)"/>
<path d="M0,0 L11,1 L14,4 L18,10 L17,14 L12,6 L3,2 L-4,4 L-9,3 L-7,1 Z " fill="#21211D" transform="translate(104,32)"/>
<path d="M0,0 L2,4 L0,16 L8,14 L9,16 L12,16 L10,20 L7,20 L7,17 L0,17 L-2,21 L-2,10 L-6,13 L-4,9 L-1,4 Z " fill="#20211D" transform="translate(147,257)"/>
<path d="M0,0 L1,2 L-3,14 L-6,14 L-8,5 Z " fill="#FAFAFA" transform="translate(85,275)"/>
<path d="M0,0 L4,4 L6,13 L7,20 L7,31 L4,43 L3,43 L4,34 L5,29 L5,21 L3,11 L0,2 Z " fill="#858277" transform="translate(62,70)"/>
<path d="M0,0 L1,3 L0,6 L1,8 L-1,8 L-2,12 L0,12 L0,24 L-1,31 L-3,32 L-3,18 L-1,13 L-3,13 L-4,16 L-3,7 Z " fill="#1B1C18" transform="translate(87,45)"/>
</svg>
