<?xml version="1.0" encoding="UTF-8"?>
<!-- Generator: visioncortex VTracer 0.6.12 -->
<svg version="1.1" xmlns="http://www.w3.org/2000/svg" width="274" height="342">
<path d="M0 0 C90.42 0 180.84 0 274 0 C274 112.86 274 225.72 274 342 C183.58 342 93.16 342 0 342 C0 229.14 0 116.28 0 0 Z " fill="#F8F9F8" transform="translate(0,0)"/>
<path d="M0 0 C2.31 0.66 4.62 1.32 7 2 C7.060586 2.698672 7.121172 3.397344 7.183594 4.117188 C7.225488 4.572227 7.225488 4.572227 7.4375 6.875 C7.518711 7.779922 7.599922 8.684844 7.683594 9.617188 C8 12 8 12 9 14 C10.65 14 12.3 14 14 14 C14 13.34 14 12.68 14 12 C22.791775 9.384725 31.611305 8.127004 40.695801 7.002686 C41.625054 6.885784 42.554307 6.768882 43.511719 6.648438 C44.351785 6.547085 45.191851 6.445732 46.057373 6.341309 C48 6 48 6 49 5 C50.643409 4.901453 52.291146 4.870276 53.9375 4.875 C54.833398 4.872422 55.729297 4.869844 56.652344 4.867188 C59 5 59 5 61 6 C62.995807 6.319097 64.996864 6.605711 67 6.875 C72.878457 7.738133 78.378464 9.096545 84 11 C84 11.66 84 12.32 84 13 C86.31 13.33 88.62 13.66 91 14 C91 14.66 91 15.32 91 16 C91.86625 16.268125 92.7325 16.53625 93.625 16.8125 C97 18 97 18 100.125 19.6875 C103 21 103 21 105.375 20.6875 C105.91125 20.460625 106.4475 20.23375 107 20 C107 19.34 107 18.68 107 18 C109.31 17.67 111.62 17.34 114 17 C114 16.34 114 15.68 114 15 C115.155 14.835 115.155 14.835 121 14 C121 13.34 121 12.68 121 12 C137.572337 7.810808 153.021265 7.466437 170 9 C170 9.33 170 9.66 170 10 C166.7 10 163.4 10 160 10 C160.495 10.78375 160.99 11.5675 161.5 12.375 C163 15 163 15 163 17 C163.66 17.33 163.66 17.33 167 19 C166.67 19.33 166.34 19.66 166 20 C163.832941 19.993913 161.665992 19.943256 159.5 19.875 C147.86389 19.698181 135.799001 21.563019 125 26 C124.432813 26.216563 124.432813 26.216563 121.5625 27.3125 C118.27971 29.474337 118.068874 31.316113 117 35 C118.434524 36.939766 119.872468 38.876829 121.3125 40.8125 C121.716621 41.359707 122.120742 41.906914 122.537109 42.470703 C124.187832 44.685086 125.784649 46.795909 127.792969 48.699219 C129 50 129 50 129 53 C129.66 53 130.32 53 131 53 C132.460629 55.647389 133 56.894483 133 60 C133.66 60 134.32 60 135 60 C135 58.68 135 57.36 135 56 C139.291608 55.941285 143.583111 55.906165 147.875 55.875 C149.078984 55.858242 150.282969 55.841484 151.523438 55.824219 C158.607517 55.785718 165.126672 56.239491 172 58 C171.67 58.165 171.67 58.165 170 59 C169.67 59.66 169.34 60.32 169 61 C168.468906 60.841445 168.468906 60.841445 165.78125 60.039062 C160.077786 58.613196 154.352239 58.543007 148.5 58.375 C147.391406 58.336328 146.282813 58.297656 145.140625 58.257812 C142.427336 58.164251 139.713691 58.081069 137 58 C137.33 59.815 137.33 59.815 139 69 C145.27 69.33 151.54 69.66 158 70 C158 70.66 158 71.32 158 72 C157.096367 72.060586 156.192734 72.121172 155.261719 72.183594 C154.082227 72.267383 152.902734 72.351172 151.6875 72.4375 C150.515742 72.518711 149.343984 72.599922 148.136719 72.683594 C145 73 145 73 142 74 C142.212051 74.704956 142.424102 75.409912 142.642578 76.13623 C143.609144 79.378474 144.554653 82.626509 145.5 85.875 C145.833867 86.983594 146.167734 88.092187 146.511719 89.234375 C148.482814 96.07287 149.372377 101.884948 149 109 C151.31 108.67 151.31 108.67 163 107 C163.33 107.66 163.66 108.32 164 109 C160.335659 111.327028 156.752733 111.343974 152.542969 111.414062 C151.811824 111.433429 151.080678 111.452795 150.327377 111.472748 C147.947537 111.532986 145.567659 111.579275 143.1875 111.625 C141.541491 111.663514 139.895495 111.702579 138.249512 111.742188 C128.481616 111.96578 118.720166 112.050504 108.949707 111.980957 C98.952014 111.934611 88.979973 112.446293 79 113 C80.681182 110.650995 82.045822 109.177987 84.953583 108.63559 C87.444753 108.520082 89.908917 108.524744 92.402344 108.574219 C93.317059 108.577507 94.231775 108.580795 95.17421 108.584183 C98.095787 108.599926 101.016219 108.643978 103.9375 108.6875 C105.900381 108.698992 107.863273 108.708777 109.826172 108.716797 C111.705741 108.730226 113.5853 108.74515 115.464844 108.761719 C115.905016 108.765412 115.905016 108.765412 118.132553 108.784103 C122.208007 108.847311 126.024624 108.987169 130 110 C129.84209 109.749922 129.84209 109.749922 129.042969 108.484375 C127.902763 105.76838 127.675766 103.334564 127.46875 100.414307 C126.753687 90.509569 124.294206 78.294206 117 71 C116.67 71.33 116.34 71.66 116 72 C114.470448 72.075052 112.937502 72.083177 111.40625 72.0625 C110.4575 72.054766 109.50875 72.047031 108.53125 72.039062 C106.541661 72.013423 104.552078 71.987395 102.5625 71.960938 C96.611811 71.912948 90.901208 72.219675 85 73 C84.305804 74.65539 83.648962 76.32636 83 78 C82.758945 78.620039 82.517891 79.240078 82.269531 79.878906 C78.610824 89.963568 77.59302 100.339754 78 111 C78.014019 111.656777 78.028037 112.313555 78.04248 112.990234 C78.249829 122.541091 79.1004 131.79344 80.875 141.1875 C81.036455 142.047788 81.19791 142.908076 81.364258 143.794434 C82.170833 147.801467 83.136494 151.55567 84.632812 155.363281 C86 159 86 159 86 163 C86.33 162.34 86.66 161.68 87 161 C97.23 161.33 107.46 161.66 118 162 C118 162.66 118 163.32 118 164 C112.34589 165.236576 106.878609 165.034696 101.132812 164.878906 C100.098088 164.855295 99.063364 164.831684 97.997284 164.807358 C94.706372 164.731048 91.415714 164.646883 88.125 164.5625 C85.888033 164.509247 83.651054 164.456506 81.414062 164.404297 C75.942552 164.275477 70.47123 164.140216 65 164 C65.99 163.34 66.98 162.68 68 162 C67.231719 161.186602 66.463437 160.373203 65.671875 159.535156 C62.586746 155.820164 61.42597 152.063146 60.25 147.4375 C60.03811 146.644646 59.826221 145.851792 59.60791 145.034912 C58.16033 139.350777 57.492362 133.857852 57.246094 127.992188 C56.847716 123.148418 55.470562 118.615161 54 114 C53.34 113.835 53.34 113.835 50 113 C50 112.34 50 111.68 50 111 C51.65 110.67 53.3 110.34 55 110 C56.342013 105.637032 57.312119 101.407847 57.989014 96.896973 C59.070997 89.71587 60.601411 83.600261 64.011719 77.101562 C65 75 65 75 65 72 C69.783877 69.538667 74.32084 69.687605 79.570312 69.65625 C80.488357 69.641627 81.406401 69.627004 82.352264 69.611938 C86.269372 69.549802 90.186634 69.509997 94.104004 69.468262 C96.967942 69.434568 99.831545 69.38946 102.695312 69.34375 C103.582842 69.338473 104.470372 69.333196 105.384796 69.327759 C106.209303 69.314344 107.033809 69.30093 107.883301 69.287109 C108.607683 69.279818 109.332066 69.272527 110.0784 69.265015 C112 69 112 69 115 67 C114.34 65.02 113.68 63.04 113 61 C112.4225 60.855625 111.845 60.71125 111.25 60.5625 C109.946759 60.23669 108.648158 59.886695 107.369476 59.474915 C103.873832 58.774282 100.3891 58.844015 96.838379 58.838867 C96.018379 58.833902 95.198379 58.828937 94.353531 58.823822 C91.644533 58.809233 88.935593 58.802404 86.226562 58.796875 C84.340932 58.791121 82.455302 58.785364 80.569672 58.779602 C76.617083 58.769102 72.664515 58.763253 68.711914 58.759766 C63.652295 58.754279 58.592945 58.730245 53.533411 58.701794 C49.638593 58.683153 45.743839 58.677961 41.84898 58.67643 C39.983896 58.673407 38.118813 58.665389 36.253773 58.652245 C33.642445 58.635152 31.031772 58.637072 28.42041 58.643555 C27.653453 58.63434 26.886496 58.625125 26.096298 58.615631 C21.274621 58.653048 18.182285 59.677665 14 62 C13.01 62 12.02 62 11 62 C12 59 12 59 14.023438 57.851562 C17.884391 56.746985 21.63722 56.524576 25.625 56.375 C26.498582 56.337053 27.372163 56.299106 28.272217 56.26001 C43.168272 55.707655 58.096578 55.91787 73 56 C73.99 53.69 74.98 51.38 76 49 C76.66 49 77.32 49 78 49 C78.122461 48.724141 78.122461 48.724141 78.742188 47.328125 C80.257381 44.523605 82.110841 42.218969 84.125 39.75 C84.849453 38.857969 85.573906 37.965938 86.320312 37.046875 C86.874609 36.371406 87.428906 35.695937 88 35 C86.570091 29.471529 86.570091 29.471529 84.011719 27.355469 C83.244727 26.970039 82.477734 26.584609 81.6875 26.1875 C80.928242 25.78918 80.168984 25.390859 79.386719 24.980469 C76.929189 23.970911 74.616263 23.430642 72 23 C72 22.34 72 21.68 72 21 C58.735186 18.264394 46.529061 16.032655 33 18 C31.704492 18.177891 30.408984 18.355781 29.074219 18.539062 C21.626058 19.78167 15.62925 21.762184 9.171875 25.695312 C7 27 7 27 4 28 C3.67 28.66 3.34 29.32 3 30 C2.67 30.66 2.34 31.32 2 32 C1.505 32.165 1.505 32.165 -1 33 C-1.9375 34.6875 -1.9375 34.6875 -3 37 C-4.315424 39.011825 -5.645907 41.013997 -7 43 C-8.98 42.67 -10.96 42.34 -13 42 C-14.81985 36.540451 -14.377456 30.509823 -13 25 C-12.34 25 -11.68 25 -11 25 C-10.34 21.37 -9.68 17.74 -9 14 C-8.34 14 -7.68 14 -7 14 C-6.773125 13.175 -6.54625 12.35 -6.3125 11.5 C-4.725738 7.268634 -2.492518 3.74829 0 0 Z " fill="#E9ECEA" transform="translate(36,21)"/>
<path d="M0 0 C10.89 0.165 10.89 0.165 66 1 C70.83747 8.256205 65.624553 21.764846 64 30 C63.34 30 62.68 30 62 30 C61.01 33.63 60.02 37.26 59 41 C59.66 41.33 60.32 41.66 61 42 C60.54625 42.7425 60.0925 43.485 59.625 44.25 C58 47 58 47 57 49.0625 C55.876779 51.23874 54.487774 53.059425 53 55 C52.67 55.66 52.34 56.32 52 57 C51.34 57 50.68 57 50 57 C50 57.99 50 58.98 50 60 C49.34 60 48.68 60 48 60 C48 60.99 48 61.98 48 63 C47.67 63.165 47.67 63.165 46 64 C45.67 64.99 45.34 65.98 45 67 C43.257813 68.71875 43.257813 68.71875 41.125 70.5 C38.645847 72.585782 36.256042 74.673013 34 77 C34.66 77.33 35.32 77.66 36 78 C36 78.66 36 79.32 36 80 C36.99 80 37.98 80 39 80 C39 80.66 39 81.32 39 82 C39.99 82 40.98 82 42 82 C42 82.66 42 83.32 42 84 C57.841612 87.741317 74.327822 90.350526 90.625 90.4375 C91.433564 90.447329 92.242129 90.457158 93.075195 90.467285 C100.632435 90.358423 108.191638 88.294369 115 85 C115.33 84.34 115.66 83.68 116 83 C116.99 82.67 117.98 82.34 119 82 C119.33 81.01 119.66 80.02 120 79 C120.66 79 121.32 79 122 79 C122 78.01 122 77.02 122 76 C122.66 76 123.32 76 124 76 C124 75.01 124 74.02 124 73 C124.66 73 125.32 73 126 73 C126.33 72.01 126.66 71.02 127 70 C128.4375 68.4375 128.4375 68.4375 130 67 C130.66 66.34 131.32 65.68 132 65 C132.701944 67.057629 133.386017 69.12136 134.0625 71.1875 C134.445352 72.336055 134.828203 73.484609 135.222656 74.667969 C136.499904 80.142805 134.804351 83.773575 132.625 88.8125 C130.624012 93.504673 128.750442 98.209317 127 103 C126.34 103 125.68 103 125 103 C125 103.99 125 104.98 125 106 C124.34 106 123.68 106 123 106 C123 106.99 123 107.98 123 109 C122.34 109 121.68 109 121 109 C121 109.99 121 110.98 121 112 C120.34 112.33 120.34 112.33 117 114 C116.34 113.67 115.68 113.34 115 113 C115 112.34 115 111.68 115 111 C114.34 111 113.68 111 113 111 C112.01 107.37 111.02 103.74 110 100 C108.539492 100.216563 107.078984 100.433125 105.574219 100.65625 C103.612037 100.937903 101.649794 101.21913 99.6875 101.5 C98.730371 101.643086 97.773242 101.786172 96.787109 101.933594 C90.140661 102.873496 83.70728 103.188388 77 103 C76.65014 102.991541 76.65014 102.991541 74.879639 102.94873 C57.822734 102.399693 42.207113 98.886567 27 91 C27 90.34 27 89.68 27 89 C20.880523 87.232151 17.603326 88.843809 12.011719 91.597656 C6.852404 93.999983 1.481088 95.509809 -4 97 C-5.032539 97.290039 -6.065078 97.580078 -7.128906 97.878906 C-25.136467 102.364544 -43.758561 101.277827 -62 99 C-62 99.66 -62 100.32 -62 101 C-62.66 101 -63.32 101 -64 101 C-63.976797 101.603281 -63.953594 102.206563 -63.929688 102.828125 C-63.920664 103.227734 -63.920664 103.227734 -63.875 105.25 C-63.851797 106.038906 -63.828594 106.827812 -63.804688 107.640625 C-64.017162 110.207319 -64.713459 111.791607 -66 114 C-69.838703 112.436084 -72.309724 110.126537 -75 107 C-75.8125 104.1875 -75.8125 104.1875 -76 102 C-76.66 102 -77.32 102 -78 102 C-78 101.01 -78 100.02 -78 99 C-78.66 99 -79.32 99 -80 99 C-85.20361 89.693283 -89.844776 81.256118 -87.0625 70.3125 C-86.711875 69.549375 -86.36125 68.78625 -86 68 C-85.01 67.835 -85.01 67.835 -80 67 C-79.734453 67.638086 -79.468906 68.276172 -79.195312 68.933594 C-78.842109 69.759883 -78.488906 70.586172 -78.125 71.4375 C-77.776953 72.261211 -77.428906 73.084922 -77.070312 73.933594 C-76 76 -76 76 -74 77 C-73.762812 77.4125 -73.762812 77.4125 -72.5625 79.5 C-71 82 -71 82 -68 83 C-68 83.66 -68 84.32 -68 85 C-67.382539 85.121172 -66.765078 85.242344 -66.128906 85.367188 C-65.281992 85.534766 -64.435078 85.702344 -63.5625 85.875 C-62.638242 86.05418 -61.713984 86.233359 -60.761719 86.417969 C-58 87 -58 87 -55.894531 87.613281 C-44.247149 90.925013 -30.931682 87.850099 -19.1875 86.25 C-18.05522 86.105464 -16.922939 85.960928 -15.756348 85.812012 C-8.140478 84.708117 -1.819481 82.561866 5 79 C5.597328 76.237357 6 73.839672 6 71 C5.34 71 4.68 71 4 71 C3.71125 70.360625 3.4225 69.72125 3.125 69.0625 C2 67 2 67 0 66 C-0.33 65.01 -0.66 64.02 -1 63 C-1.474375 62.54625 -1.94875 62.0925 -2.4375 61.625 C-4.364761 59.620649 -4.987609 57.564723 -6 55 C-6.66 54.67 -7.32 54.34 -8 54 C-8 54.66 -8 55.32 -8 56 C-15.314277 55.90763 -22.628226 55.800311 -29.942139 55.682617 C-32.430044 55.644344 -34.918004 55.609488 -37.406006 55.578125 C-40.98311 55.532439 -44.559836 55.474449 -48.136719 55.414062 C-49.248349 55.402511 -50.359979 55.39096 -51.505295 55.379059 C-52.545996 55.359189 -53.586698 55.339319 -54.658936 55.318848 C-55.115271 55.312186 -55.115271 55.312186 -57.424606 55.278473 C-62.555438 54.723685 -66.327599 52.573147 -70 49 C-71.3125 45.75 -71.3125 45.75 -72 43 C-71.34 42.34 -70.68 41.68 -70 41 C-69.708672 41.626484 -69.417344 42.252969 -69.117188 42.898438 C-68.912227 43.30707 -68.912227 43.30707 -67.875 45.375 C-67.480547 46.187109 -67.086094 46.999219 -66.679688 47.835938 C-64.389239 50.786887 -62.612007 51.070209 -59 52 C-56.109331 52.286568 -53.235897 52.310928 -50.33252 52.318848 C-49.907801 52.32387 -49.907801 52.32387 -47.758469 52.349289 C-44.96659 52.38004 -42.174806 52.397134 -39.382812 52.414062 C-37.440818 52.432781 -35.498832 52.452355 -33.556854 52.472748 C-28.457324 52.524007 -23.357767 52.563666 -18.258118 52.600891 C-13.049617 52.64097 -7.841225 52.692045 -2.632812 52.742188 C7.578048 52.838873 17.788971 52.923301 28 53 C27.01 53.66 26.02 54.32 25 55 C25.33 55.99 25.66 56.98 26 58 C26.99 57.67 27.98 57.34 29 57 C29.165 56.67 29.165 56.67 30 55 C30.66 55 31.32 55 32 55 C33.582552 50.674358 34.451447 46.571279 35 42 C35.99 41.67 36.98 41.34 38 41 C38.268125 39.72125 38.53625 38.4425 38.8125 37.125 C39.525014 33.896264 40.361406 30.771019 41.375 27.625 C43.711817 19.536017 45.265441 11.239154 47 3 C31.16 2.67 15.32 2.34 -1 2 C-0.67 1.34 -0.34 0.68 0 0 Z " fill="#E3E7E4" transform="translate(117,145)"/>
<path d="M0 0 C0 0.66 0 1.32 0 2 C0.99 2 1.98 2 3 2 C3 2.66 3 3.32 3 4 C3.66 4 4.32 4 5 4 C7.606919 8.466118 7.214112 12.084118 6 17 C4.855256 19.275583 3.597056 20.9908 2 23 C2.216563 23.272637 2.216563 23.272637 3.3125 24.652344 C6.79556 29.368988 8.904956 32.900928 8.457031 38.859375 C7.470908 43.478139 5.478848 46.808706 1.75 49.8125 C-4.468441 52.497736 -10.347532 53.994454 -17 52 C-21.858142 49.741008 -26.068048 47.192122 -28 42 C-28.617198 37.816772 -28.864414 35.480342 -26.722656 31.8125 C-25.214923 29.807104 -23.630884 27.905515 -22 26 C-21.34 25.01 -20.68 24.02 -20 23 C-20.78375 22.0925 -21.5675 21.185 -22.375 20.25 C-27.112712 14.502832 -27.112712 14.502832 -26.8125 10.5 C-25.632947 6.870606 -23.667336 4.667336 -21 2 C-20.01 1.67 -19.02 1.34 -18 1 C-18 0.34 -18 -0.32 -18 -1 C-12.076015 -3.806098 -5.790687 -2.895343 0 0 Z " fill="#C6D1CA" transform="translate(124,261)"/>
<path d="M0 0 C0.495 0.309375 0.99 0.61875 1.5 0.9375 C1.5 1.5975 1.5 2.2575 1.5 2.9375 C2.49 2.9375 3.48 2.9375 4.5 2.9375 C4.5 3.5975 4.5 4.2575 4.5 4.9375 C5.16 4.9375 5.82 4.9375 6.5 4.9375 C11.407524 15.628891 11.480348 23.834424 7.5 34.9375 C5.826659 37.969797 3.878714 40.429447 1.5 42.9375 C1.242832 43.214648 1.242832 43.214648 -0.058594 44.617188 C-4.353021 48.757139 -11.343038 52.9375 -17.5 52.9375 C-17.5 51.2875 -17.5 49.6375 -17.5 47.9375 C-16.90832 47.63457 -16.316641 47.331641 -15.707031 47.019531 C-9.621058 43.792873 -4.214629 40.60068 -1.5 33.9375 C-2.16 33.2775 -2.82 32.6175 -3.5 31.9375 C-4.060742 32.090898 -4.621484 32.244297 -5.199219 32.402344 C-9.389711 33.377042 -13.259008 33.854647 -17.5 32.9375 C-21.604851 29.829331 -24.660586 26.092492 -25.5 20.9375 C-26.012078 14.969822 -26.028374 10.03404 -22.5 4.9375 C-21.51 4.6075 -20.52 4.2775 -19.5 3.9375 C-19.5 3.2775 -19.5 2.6175 -19.5 1.9375 C-18.51 1.9375 -17.52 1.9375 -16.5 1.9375 C-16.5 1.2775 -16.5 0.6175 -16.5 -0.0625 C-10.678114 -2.536802 -5.874772 -2.496778 0 0 Z " fill="#C5D0C8" transform="translate(210.5,268.0625)"/>
<path d="M0 0 C0.443438 0.045117 0.443438 0.045117 2.6875 0.273438 C5 0.625 5 0.625 7 1.625 C7 2.285 7 2.945 7 3.625 C7.60457 3.711367 8.209141 3.797734 8.832031 3.886719 C11.620556 4.836324 12.211693 5.928162 13.6875 8.4375 C14.103867 9.12457 14.520234 9.811641 14.949219 10.519531 C18.459338 17.552819 17.837436 25.957887 15.4375 33.25 C11.258511 43.366035 5.428355 48.51714 -4.109375 53.507812 C-7 54.625 -7 54.625 -10 53.625 C-10.33 52.305 -10.66 50.985 -11 49.625 C-10.70416 49.509629 -10.70416 49.509629 -9.207031 48.925781 C-4.202427 46.86026 -0.424596 44.983576 3 40.625 C4.3125 37.3125 4.3125 37.3125 5 34.625 C4.835 34.46 4.835 34.46 4 33.625 C3.428945 33.780977 2.857891 33.936953 2.269531 34.097656 C-2.30384 35.160316 -6.864472 35.861995 -11.070312 33.425781 C-14.987087 30.172728 -17.72844 27.268721 -18.265625 22.039062 C-18.236557 16.850473 -18.096702 12.473623 -16 7.625 C-15.01 7.295 -14.02 6.965 -13 6.625 C-13 5.965 -13 5.305 -13 4.625 C-12.01 4.295 -11.02 3.965 -10 3.625 C-8.979804 2.645612 -7.978502 1.646046 -7 0.625 C-4.410865 -0.669567 -2.861913 -0.307822 0 0 Z " fill="#C6D1CA" transform="translate(160,266.375)"/>
<path d="M0 0 C0 0.66 0 1.32 0 2 C1.32 2.33 2.64 2.66 4 3 C7.039019 8.824786 7.354092 13.482086 7 20 C6.34 20 5.68 20 5 20 C5 20.99 5 21.98 5 23 C1.633413 25.384666 -1.198663 25.1769 -5.097656 24.523438 C-8.167307 23.678811 -9.309319 22.70509 -11 20 C-13.216689 12.9008 -11.145641 7.46679 -8 1 C-5.107657 0.173616 -3.112576 0 0 0 Z " fill="#F9FAF9" transform="translate(205,271)"/>
<path d="M0 0 C3.833281 0.730149 5.211161 2.49901 7.625 5.5 C10.324584 10.899168 9.813729 16.607461 9.625 22.5 C5.144258 25.860556 2.019493 25.774296 -3.375 25.5 C-6.086262 23.127646 -7.283976 21.266293 -7.710938 17.671875 C-7.784584 11.691785 -7.683734 6.688252 -4.0625 1.6875 C-2.375 0.5 -2.375 0.5 0 0 Z " fill="#FAFAF9" transform="translate(158.375,270.5)"/>
<path d="M0 0 C9.698413 2.73545 9.698413 2.73545 13 7 C14.607256 10.214513 14.057482 13.436125 14 17 C11.04705 19.564404 9.35663 20.977793 5.375 21.042969 C2.894304 20.77869 0.454152 20.446209 -2 20 C-4.551705 16.730628 -5.926829 14.595821 -6.4375 10.4375 C-5.972083 6.780653 -5.236472 4.89913 -3 2 C-2.01 1.34 -1.02 0.68 0 0 Z " fill="#FAFAF9" transform="translate(110,288)"/>
<path d="M0 0 C9 0 9 0 11 1.9375 C13.670121 6.026123 13.749522 9.235799 13 14 C11.5 17.0625 11.5 17.0625 10 19 C4.696542 18.611942 0.555091 16.994594 -3 13 C-4.066656 10.089392 -4.051515 8.193921 -4 5 C-3.34 4.01 -2.68 3.02 -2 2 C-1.34 2 -0.68 2 0 2 C0 1.34 0 0.68 0 0 Z " fill="#FAFAF9" transform="translate(110,263)"/>
<path d="M0 0 C10.698141 12.550632 13.03716 27.839339 12.186523 43.808105 C11.163132 55.834292 6.967504 65.199849 0 75 C-0.576211 75.817266 -1.152422 76.634531 -1.746094 77.476562 C-3.987218 80.550423 -6.263778 83.352043 -9 86 C-8.174227 81.540824 -6.055531 78.249678 -3.152344 74.8125 C7.813884 60.482764 9.829018 45.519126 8 28 C7.909766 27.019023 7.819531 26.038047 7.726562 25.027344 C6.867563 18.546671 4.447653 13.336684 1.300293 7.681152 C0.46572 6.155959 -0.274459 4.579974 -1 3 C-0.67 2.01 -0.34 1.02 0 0 Z " fill="#EAE8C7" transform="translate(57,101)"/>
<path d="M0 0 C2.990354 1.495177 3.404558 4.072326 4.609375 7.089844 C6.64746 9.889348 8.678884 10.119685 12 11 C14.617808 11.200011 17.133004 11.310755 19.749512 11.318848 C20.501413 11.328893 21.253314 11.338939 22.028 11.349289 C24.495222 11.38 26.962336 11.397122 29.429688 11.414062 C31.14748 11.432784 32.865264 11.452358 34.583038 11.472748 C39.090725 11.523972 43.598441 11.56365 48.106262 11.600891 C52.711541 11.640992 57.316697 11.692056 61.921875 11.742188 C70.94783 11.838832 79.973855 11.923273 89 12 C89.165 12.66 89.165 12.66 90 16 C88.68 16.99 87.36 17.98 86 19 C85.835 18.34 85.835 18.34 85 15 C85.66 15 86.32 15 87 15 C87.33 14.34 87.66 13.68 88 13 C87.474063 13.0825 87.474063 13.0825 84.8125 13.5 C77.795646 14.378676 69.834438 15.090144 63 13 C63 13.66 63 14.32 63 15 C55.685723 14.90763 48.371774 14.800311 41.057861 14.682617 C38.569956 14.644344 36.081996 14.609488 33.593994 14.578125 C30.01689 14.532439 26.440164 14.474449 22.863281 14.414062 C21.751651 14.402511 20.640021 14.39096 19.494705 14.379059 C18.454004 14.359189 17.413302 14.339319 16.341064 14.318848 C15.884729 14.312186 15.884729 14.312186 13.575394 14.278473 C8.444562 13.723685 4.672401 11.573147 1 8 C-0.375 4.875 -0.375 4.875 -1 2 C-0.67 1.34 -0.34 0.68 0 0 Z " fill="#DEDEBB" transform="translate(46,186)"/>
<path d="M0 0 C0.33 0.165 0.33 0.165 2 1 C4.712621 1.232265 7.407731 1.419362 10.125 1.5625 C10.502051 1.584092 10.502051 1.584092 12.410156 1.693359 C14.273219 1.799483 16.136585 1.90025 18 2 C18.33 1.34 18.66 0.68 19 0 C19 0.66 19 1.32 19 2 C19.88043 1.916211 20.760859 1.832422 21.667969 1.746094 C22.829414 1.644258 23.990859 1.542422 25.1875 1.4375 C26.336055 1.333086 27.484609 1.228672 28.667969 1.121094 C31.686312 1.0114 34.089239 1.259976 37 2 C37.165 2.66 37.165 2.66 38 6 C34 5 34 5 32.369476 4.474915 C28.873832 3.774282 25.3891 3.844015 21.838379 3.838867 C21.018379 3.833902 20.198379 3.828937 19.353531 3.823822 C16.644533 3.809233 13.935593 3.802404 11.226562 3.796875 C9.340932 3.791121 7.455302 3.785364 5.569672 3.779602 C1.617083 3.769102 -2.335485 3.763253 -6.288086 3.759766 C-11.347705 3.754279 -16.407055 3.730245 -21.466589 3.701794 C-25.361407 3.683153 -29.256161 3.677961 -33.15102 3.67643 C-35.016104 3.673407 -36.881187 3.665389 -38.746227 3.652245 C-41.357555 3.635152 -43.968228 3.637072 -46.57959 3.643555 C-47.346547 3.63434 -48.113504 3.625125 -48.903702 3.615631 C-53.725379 3.653048 -56.817715 4.677665 -61 7 C-61.99 7 -62.98 7 -64 7 C-63 4 -63 4 -60.976562 2.851562 C-57.115529 1.746962 -53.362805 1.524938 -49.375 1.375 C-48.937484 1.355664 -48.937484 1.355664 -46.723389 1.257812 C-35.675349 0.842131 -24.611763 0.948096 -13.558105 1.036621 C-12.809286 1.040921 -12.060467 1.045222 -11.288956 1.049652 C-9.868056 1.058043 -8.447172 1.070575 -7.026352 1.087799 C-2.224908 1.112454 -2.224908 1.112454 0 0 Z " fill="#EAEACD" transform="translate(111,76)"/>
<path d="M0 0 C-3.512793 3.361837 -6.820442 3.469016 -11.457031 3.511719 C-11.822604 3.520694 -11.822604 3.520694 -13.672623 3.566116 C-16.052525 3.620715 -18.43221 3.654395 -20.8125 3.6875 C-22.458518 3.720955 -24.104514 3.755466 -25.750488 3.791016 C-35.517197 3.988897 -45.281736 4.049843 -55.050293 3.981201 C-65.047957 3.933929 -75.02007 4.446296 -85 5 C-83.318818 2.650995 -81.954178 1.177987 -79.046417 0.63559 C-76.555247 0.520082 -74.091083 0.524744 -71.597656 0.574219 C-71.140298 0.575863 -71.140298 0.575863 -68.82579 0.584183 C-65.904213 0.599926 -62.983781 0.643978 -60.0625 0.6875 C-58.099619 0.698992 -56.136727 0.708777 -54.173828 0.716797 C-52.294259 0.730226 -50.4147 0.74515 -48.535156 0.761719 C-47.654812 0.769106 -46.774468 0.776493 -45.867447 0.784103 C-41.791993 0.847311 -37.975376 0.987169 -34 2 C-33.67 1.34 -33.34 0.68 -33 0 C-33 0.66 -33 1.32 -33 2 C-12.159775 1.253756 -12.159775 1.253756 -4.777344 -0.695312 C-3 -1 -3 -1 0 0 Z " fill="#E6E4C1" transform="translate(200,129)"/>
<path d="M0 0 C0.33 0.165 0.33 0.165 2 1 C2.402187 1.144375 2.402187 1.144375 4.4375 1.875 C7.032027 3.014061 8.112373 3.95507 10 6 C10.763125 6.495 11.52625 6.99 12.3125 7.5 C17.781435 12.587381 21.019604 18.171304 21.378906 25.722656 C21.436133 30.160106 21.263116 34.570874 21 39 C20.34 39 19.68 39 19 39 C18.896875 39.422812 18.896875 39.422812 18.375 41.5625 C15.515835 48.710412 10.75748 52.62126 4 56 C3.34 55.34 2.68 54.68 2 54 C2.580078 53.682891 3.160156 53.365781 3.757812 53.039062 C10.704619 48.88932 14.970856 43.780702 17.671875 36.085938 C18.876338 28.428997 17.54352 19.84266 14 13 C9.870698 8.870698 5.000971 5.982813 0 3 C0 2.01 0 1.02 0 0 Z " fill="#EAE8C7" transform="translate(208,80)"/>
<path d="M0 0 C2.798724 2.52788 4.45773 4.204111 5 8 C2.067591 8.97747 0.257766 9.10415 -2.789062 9.0625 C-3.731367 9.054766 -4.673672 9.047031 -5.644531 9.039062 C-7.608077 9.013328 -9.571619 8.987294 -11.535156 8.960938 C-17.452935 8.91276 -23.131151 9.225554 -29 10 C-29.33 10.99 -29.66 11.98 -30 13 C-30.66 12.01 -31.32 11.02 -32 10 C-34.291413 9.946155 -36.583182 9.907279 -38.875 9.875 C-40.151172 9.851797 -41.427344 9.828594 -42.742188 9.804688 C-46 10 -46 10 -48 12 C-48.33 11.01 -48.66 10.02 -49 9 C-44.216123 6.538667 -39.67916 6.687605 -34.429688 6.65625 C-33.511643 6.641627 -32.593599 6.627004 -31.647736 6.611938 C-27.730628 6.549802 -23.813366 6.509997 -19.895996 6.468262 C-17.032058 6.434568 -14.168455 6.38946 -11.304688 6.34375 C-10.860923 6.341111 -10.860923 6.341111 -8.615204 6.327759 C-7.790697 6.314344 -6.966191 6.30093 -6.116699 6.287109 C-5.754508 6.283464 -5.754508 6.283464 -3.9216 6.265015 C-2 6 -2 6 1 4 C0.835 3.34 0.835 3.34 0 0 Z " fill="#BBC3A4" transform="translate(150,84)"/>
<path d="M0 0 C10.56 0 21.12 0 32 0 C32 0.33 32 0.66 32 1 C25.031969 1.972786 18.452022 1.96638 11.4375 1.5625 C10.428809 1.510293 9.420117 1.458086 8.380859 1.404297 C5.920151 1.276013 3.459999 1.141129 1 1 C1.449117 3.293491 1.909579 5.584762 2.375 7.875 C2.502617 8.513086 2.502617 8.513086 3.148438 11.742188 C4 15 4 15 6 17 C6.502441 18.787598 6.502441 18.787598 6.851562 20.914062 C6.980469 21.674609 7.109375 22.435156 7.242188 23.21875 C7.368516 24.012812 7.494844 24.806875 7.625 25.625 C7.759062 26.426797 7.893125 27.228594 8.03125 28.054688 C8.361348 30.035275 8.681611 32.017497 9 34 C8.34 34.66 7.68 35.32 7 36 C6.916976 35.682488 6.916976 35.682488 6.496826 34.075684 C5.733862 31.173616 4.960778 28.274336 4.1875 25.375 C3.926465 24.375977 3.66543 23.376953 3.396484 22.347656 C2.020098 17.215944 0.443387 12.73824 -2 8 C-1.764468 4.938081 -1.369025 2.738049 0 0 Z " fill="#EAE9C9" transform="translate(74,91)"/>
<path d="M0 0 C0.99 0.66 1.98 1.32 3 2 C3 14.54 3 27.08 3 40 C1.35 39.67 -0.3 39.34 -2 39 C-1.505 38.835 -1.505 38.835 1 38 C0.67 37.34 0.34 36.68 0 36 C-0.086586 33.446374 -0.115625 30.920456 -0.097656 28.367188 C-0.096241 27.615352 -0.094826 26.863516 -0.093369 26.088898 C-0.087765 23.684225 -0.075212 21.279645 -0.0625 18.875 C-0.057485 17.246095 -0.052923 15.617189 -0.048828 13.988281 C-0.037794 9.992152 -0.020527 5.996092 0 2 C-0.66 1.67 -1.32 1.34 -2 1 C-1.34 0.67 -0.68 0.34 0 0 Z " fill="#92AA9A" transform="translate(79,266)"/>
<path d="M0 0 C0.33 0.66 0.66 1.32 1 2 C13.185455 2.215174 24.983961 2.296581 37 0 C37.66 0.66 38.32 1.32 39 2 C31.509829 5.607433 24.51582 5.380795 16.3125 5.25 C15.007324 5.244844 13.702148 5.239688 12.357422 5.234375 C1.928266 5.148759 1.928266 5.148759 -3 4 C-2.01 3.67 -1.02 3.34 0 3 C0 2.01 0 1.02 0 0 Z " fill="#EBEACD" transform="translate(174,196)"/>
<path d="M0 0 C0.33 1.32 0.66 2.64 1 4 C1.33 3.34 1.66 2.68 2 2 C12.23 2.33 22.46 2.66 33 3 C33 3.66 33 4.32 33 5 C27.34589 6.236576 21.878609 6.034696 16.132812 5.878906 C15.098088 5.855295 14.063364 5.831684 12.997284 5.807358 C9.706372 5.731048 6.415714 5.646883 3.125 5.5625 C0.888033 5.509247 -1.348946 5.456506 -3.585938 5.404297 C-9.057448 5.275477 -14.52877 5.140216 -20 5 C-15.861203 2.640724 -12.369552 2.966912 -7.75 3.375 C-7.004922 3.431719 -6.259844 3.488438 -5.492188 3.546875 C-3.660649 3.687763 -1.830186 3.842519 0 4 C0 2.68 0 1.36 0 0 Z " fill="#D6D5AB" transform="translate(121,180)"/>
<path d="M0 0 C4.291608 -0.058715 8.583111 -0.093835 12.875 -0.125 C14.078984 -0.141758 15.282969 -0.158516 16.523438 -0.175781 C23.607517 -0.214282 30.126672 0.239491 37 2 C36.34 2.33 35.68 2.66 35 3 C34.67 3.66 34.34 4.32 34 5 C33.468906 4.841445 33.468906 4.841445 30.78125 4.039062 C25.077786 2.613196 19.352239 2.543007 13.5 2.375 C12.391406 2.336328 11.282813 2.297656 10.140625 2.257812 C7.427242 2.164248 4.713853 2.078505 2 2 C2 3.65 2 5.3 2 7 C1.34 6.67 0.68 6.34 0 6 C0 4.02 0 2.04 0 0 Z " fill="#E8E8CA" transform="translate(171,77)"/>
<path d="M0 0 C0.825 0.33 0.825 0.33 5 2 C5 10.91 5 19.82 5 29 C6.32 29.33 7.64 29.66 9 30 C7.906875 30.268125 6.81375 30.53625 5.6875 30.8125 C2.383073 31.876637 1.050396 32.346547 -1 35 C-1.99 34.67 -2.98 34.34 -4 34 C1.75 29 1.75 29 4 29 C3.67 28.01 3.34 27.02 3 26 C2.875695 24.432467 2.799098 22.860867 2.753906 21.289062 C2.721035 20.373828 2.688164 19.458594 2.654297 18.515625 C2.593351 16.596467 2.536028 14.67719 2.482422 12.757812 C2.160605 4.111274 2.160605 4.111274 0 0 Z " fill="#78917E" transform="translate(68,276)"/>
<path d="M0 0 C1.32 0.99 2.64 1.98 4 3 C4 3.66 4 4.32 4 5 C4.66 5 5.32 5 6 5 C6.99 6.98 7.98 8.96 9 11 C5.815297 11 2.949761 10.539744 -0.1875 10 C-1.27418 9.814375 -2.360859 9.62875 -3.480469 9.4375 C-3.896191 9.365313 -3.896191 9.365313 -6 9 C-2.25 2.25 -2.25 2.25 0 0 Z " fill="#FAFAF9" transform="translate(137,67)"/>
<path d="M0 0 C0.99 0.33 1.98 0.66 3 1 C2.01 6.28 1.02 11.56 0 17 C-0.66 17 -1.32 17 -2 17 C-2.061875 17.546562 -2.061875 17.546562 -2.375 20.3125 C-3 24 -3 24 -5 27 C-5.33 27.66 -5.66 28.32 -6 29 C-5.67 29.99 -5.34 30.98 -5 32 C-5.66 32 -6.32 32 -7 32 C-8.089186 28.043795 -7.903626 25.943505 -6.3125 22.1875 C-3.475661 14.971847 -1.776261 7.530212 0 0 Z " fill="#EBE9CA" transform="translate(81,150)"/>
<path d="M0 0 C0.33 0 0.66 0 1 0 C1.463655 9.736763 -0.83137 19.171257 -7 27 C-9.160156 27.75 -9.160156 27.75 -11 28 C-10 25 -10 25 -8.566406 23.628906 C-3.71024 18.578977 -2.523302 9.58667 -1.394531 2.898438 C-1 1 -1 1 0 0 Z " fill="#EBECD1" transform="translate(227,165)"/>
<path d="M0 0 C0.66 0.33 1.32 0.66 2 1 C4.712621 1.232265 7.407731 1.419362 10.125 1.5625 C10.502051 1.584092 10.502051 1.584092 12.410156 1.693359 C14.273219 1.799483 16.136585 1.90025 18 2 C18.33 1.34 18.66 0.68 19 0 C19 0.66 19 1.32 19 2 C19.88043 1.916211 20.760859 1.832422 21.667969 1.746094 C22.829414 1.644258 23.990859 1.542422 25.1875 1.4375 C26.336055 1.333086 27.484609 1.228672 28.667969 1.121094 C31.686312 1.0114 34.089239 1.259976 37 2 C37.165 2.66 37.165 2.66 38 6 C34 5 34 5 32.273682 4.480225 C29.287454 3.849503 26.422445 3.816051 23.371094 3.753906 C22.089121 3.721035 20.807148 3.688164 19.486328 3.654297 C17.45651 3.606794 15.426727 3.562292 13.396729 3.523193 C11.429663 3.483486 9.46286 3.431367 7.496094 3.378906 C6.909208 3.366378 6.909208 3.366378 3.939209 3.302979 C1 3 1 3 -2 1 C-1.34 0.67 -0.68 0.34 0 0 Z " fill="#A7B295" transform="translate(111,76)"/>
<path d="M0 0 C0.825 0.165 0.825 0.165 5 1 C4.34 2.32 3.68 3.64 3 5 C-5.25 5 -13.5 5 -22 5 C-18.868824 2.91255 -17.930538 2.72346 -14.332031 2.585938 C-13.439355 2.547266 -12.54668 2.508594 -11.626953 2.46875 C-10.698184 2.437813 -9.769414 2.406875 -8.8125 2.375 C-8.342314 2.355664 -8.342314 2.355664 -5.962891 2.257812 C-3.642123 2.163568 -1.321363 2.07796 1 2 C0.67 1.34 0.34 0.68 0 0 Z " fill="#D6DDC3" transform="translate(86,307)"/>
<path d="M0 0 C6.27 0.33 12.54 0.66 19 1 C19 1.66 19 2.32 19 3 C18.559785 3.030293 18.559785 3.030293 16.332031 3.183594 C15.751309 3.225488 15.751309 3.225488 12.8125 3.4375 C12.238223 3.478105 12.238223 3.478105 9.332031 3.683594 C6.484018 3.954038 3.787895 4.375217 1 5 C0.67 3.35 0.34 1.7 0 0 Z " fill="#DCDEC2" transform="translate(175,90)"/>
<path d="M0 0 C7.26 0 14.52 0 22 0 C22 0.66 22 1.32 22 2 C14.41 2.33 6.82 2.66 -1 3 C-0.67 2.01 -0.34 1.02 0 0 Z " fill="#F3F4E9" transform="translate(75,92)"/>
<path d="M0 0 C-0.33 0.66 -0.66 1.32 -1 2 C-3.659182 2.886394 -5.480646 3.17989 -8.230469 3.316406 C-9.03291 3.358301 -9.835352 3.400195 -10.662109 3.443359 C-11.495488 3.482676 -12.328867 3.521992 -13.1875 3.5625 C-14.03248 3.605684 -14.877461 3.648867 -15.748047 3.693359 C-17.831844 3.799315 -19.915901 3.90015 -22 4 C-22 3.34 -22 2.68 -22 2 C-15.863225 -1.068388 -6.776698 -0.130321 0 0 Z " fill="#EBEACC" transform="translate(200,182)"/>
<path d="M0 0 C2 2 2 2 3.25 4.6875 C5.344035 8.651209 7.990404 11.70795 11 15 C10.01 15.33 9.02 15.66 8 16 C6.872786 14.73113 5.748313 13.459824 4.625 12.1875 C3.998516 11.479805 3.372031 10.772109 2.726562 10.042969 C1 8 1 8 -1 5 C-0.625 2.3125 -0.625 2.3125 0 0 Z " fill="#ECEACC" transform="translate(46,86)"/>
<path d="M0 0 C2.569819 1.28491 2.673015 2.325339 3.75 4.9375 C5.346287 8.317518 5.675168 8.850078 9.25 10.5 C10.1575 10.665 11.065 10.83 12 11 C11.01 11.66 10.02 12.32 9 13 C5.168534 11.439032 2.718519 9.085887 0 6 C-0.875 3.8125 -0.875 3.8125 -1 2 C-0.67 1.34 -0.34 0.68 0 0 Z " fill="#EBE7C5" transform="translate(46,186)"/>
<path d="M0 0 C4.309266 2.202514 6.28843 3.813939 7.9375 8.4375 C8.928453 11.928883 9.244272 14.493416 8 18 C7.67 18 7.34 18 7 18 C6.829844 17.347734 6.659687 16.695469 6.484375 16.023438 C4.979054 10.594672 3.296326 6.546657 0 2 C0 1.34 0 0.68 0 0 Z " fill="#E9E5BF" transform="translate(218,148)"/>
<path d="M0 0 C2.950517 3.459226 5.258555 6.78387 7 11 C6.67 11.99 6.34 12.98 6 14 C3.674902 11.861979 2.178328 9.814019 0.75 7 C0.394219 6.319375 0.038438 5.63875 -0.328125 4.9375 C-1 3 -1 3 0 0 Z " fill="#EDECD1" transform="translate(57,101)"/>
<path d="M0 0 C1.62491 -0.026982 3.249946 -0.046388 4.875 -0.0625 C5.779922 -0.074102 6.684844 -0.085703 7.617188 -0.097656 C10 0 10 0 12 1 C13.536689 1.224678 15.079681 1.407968 16.625 1.5625 C17.442266 1.646289 18.259531 1.730078 19.101562 1.816406 C19.728047 1.876992 20.354531 1.937578 21 2 C21 2.33 21 2.66 21 3 C13.581654 3.093771 6.337637 3.174022 -1 2 C-0.67 1.34 -0.34 0.68 0 0 Z " fill="#74937F" transform="translate(85,26)"/>
</svg>
