<?xml version="1.0" encoding="UTF-8"?>
<!-- Generator: visioncortex VTracer 0.6.12 -->
<svg version="1.1" xmlns="http://www.w3.org/2000/svg" width="294" height="344">
<path d="M0,0 L294,0 L294,344 L0,344 Z M150,21 L144,28 L142,29 L142,26 L140,26 L136,30 L131,35 L126,40 L113,51 L112,54 L113,62 L109,63 L110,66 L106,67 L104,70 L100,72 L94,74 L93,79 L87,84 L88,80 L83,83 L83,87 L69,98 L64,98 L60,101 L60,104 L56,103 L54,105 L50,109 L44,112 L26,113 L27,115 L21,116 L20,118 L22,118 L23,120 L24,121 L24,123 L22,124 L27,127 L29,127 L29,151 L30,153 L33,152 L35,156 L33,157 L35,157 L36,160 L43,165 L46,166 L48,170 L51,171 L54,170 L54,172 L52,173 L58,173 L57,177 L58,178 L64,178 L63,182 L68,185 L71,191 L70,201 L71,205 L67,204 L64,211 L66,221 L68,221 L66,232 L64,235 L66,228 L64,227 L61,234 L61,239 L59,238 L58,247 L61,250 L65,253 L66,259 L63,264 L64,268 L62,268 L59,274 L58,280 L57,282 L57,288 L54,288 L54,290 L60,292 L93,292 L93,320 L97,320 L97,317 L125,317 L125,315 L129,315 L129,317 L155,319 L158,320 L108,321 L100,322 L100,323 L191,323 L192,321 L198,319 L199,314 L200,297 L202,292 L232,291 L239,290 L240,287 L238,287 L239,282 L228,261 L226,252 L224,252 L224,250 L230,249 L231,248 L232,234 L230,237 L228,223 L225,221 L229,216 L229,208 L223,197 L222,188 L227,186 L237,178 L243,174 L243,171 L250,168 L264,156 L265,132 L265,128 L264,127 L267,126 L268,128 L273,126 L271,124 L271,118 L273,117 L264,114 L248,113 L244,111 L243,107 L234,100 L221,89 L210,80 L202,72 L197,70 L195,70 L192,67 L193,65 L191,64 L191,58 L189,58 L188,62 L187,57 L189,56 L188,52 L184,52 L184,50 L182,50 L182,48 L180,48 L179,44 L174,39 L170,39 L171,37 L169,36 L170,34 L162,27 L154,22 Z " fill="#F8F8F8" transform="translate(0,0)"/>
<path d="M0,0 L6,2 L12,6 L20,13 L19,15 L21,17 L21,19 L25,18 L30,24 L30,27 L32,27 L32,29 L34,29 L34,31 L38,31 L39,35 L37,36 L38,41 L39,37 L41,37 L41,43 L43,45 L42,46 L47,51 L63,66 L67,67 L69,71 L73,72 L75,76 L79,75 L90,84 L90,88 L97,94 L110,96 L110,94 L119,94 L123,97 L121,97 L121,103 L123,105 L117,107 L117,105 L114,107 L116,108 L115,111 L114,135 L99,148 L93,150 L93,153 L82,161 L74,167 L71,167 L71,172 L69,169 L69,166 L67,166 L69,175 L71,175 L75,185 L77,194 L75,194 L75,196 L72,197 L73,199 L75,200 L78,202 L80,216 L82,213 L81,227 L77,229 L74,229 L73,236 L79,252 L81,254 L82,252 L84,252 L89,261 L88,266 L90,266 L89,269 L82,270 L52,271 L50,276 L49,293 L48,298 L41,301 L41,302 L-50,302 L-50,301 L-42,300 L9,299 L10,296 L13,296 L13,294 L15,292 L13,274 L-19,274 L-20,276 L-26,276 L-27,273 L-47,274 L-51,275 L-50,294 L-54,294 L-54,274 L-53,270 L-59,269 L-90,268 L-90,271 L-96,269 L-96,267 L-93,267 L-93,261 L-91,255 L-89,249 L-88,247 L-86,247 L-87,242 L-84,238 L-85,232 L-92,227 L-92,220 L-90,217 L-89,216 L-88,210 L-85,206 L-84,209 L-85,213 L-83,208 L-82,200 L-84,200 L-86,190 L-83,183 L-78,184 L-77,173 L-77,165 L-85,158 L-92,157 L-93,154 L-92,152 L-98,152 L-96,151 L-96,149 L-100,150 L-103,148 L-105,144 L-109,143 L-115,138 L-115,136 L-117,135 L-115,135 L-117,131 L-118,110 L-119,105 L-123,106 L-128,102 L-126,102 L-125,96 L-106,94 L-99,91 L-88,83 L-83,79 L-81,79 L-80,76 L-70,68 L-67,66 L-67,62 L-62,59 L-63,63 L-56,57 L-56,53 L-50,51 L-46,49 L-44,45 L-40,45 L-41,41 L-37,41 L-36,32 L-34,29 L-32,30 L-31,30 L-19,18 L-8,9 L-3,3 Z M-1,8 L-2,11 L-5,12 L-11,19 L-16,21 L-18,25 L-22,27 L-24,30 L-20,33 L-16,34 L27,34 L23,27 L15,20 L13,18 L8,15 L9,13 L1,8 Z M-24,38 L-28,40 L-31,45 L21,46 L21,47 L-33,47 L-36,47 L-41,52 L-45,54 L-51,58 L-53,62 L-57,64 L-63,68 L-64,71 L-69,73 L-74,78 L-79,83 L-87,87 L-90,92 L-90,94 L-78,94 L-55,93 L33,93 L67,94 L69,87 L65,83 L61,79 L56,74 L45,63 L37,56 L28,47 L22,43 L19,40 L15,38 Z M-29,105 L-69,106 L-107,108 L-112,109 L-114,116 L-113,126 L-111,128 L-91,128 L-86,127 L-79,128 L-77,127 L-49,126 L6,126 L60,127 L65,128 L65,126 L75,127 L75,128 L93,129 L107,129 L107,113 L102,110 L97,109 L44,106 L3,105 Z M-28,130 L-64,131 L-69,133 L-73,147 L-72,153 L-71,155 L-56,154 L-54,159 L-57,158 L-65,158 L-69,162 L-69,173 L-72,182 L-72,187 L-74,187 L-74,182 L-75,182 L-76,191 L-56,194 L-53,195 L-57,196 L-74,196 L-78,206 L-82,215 L-82,223 L75,223 L74,214 L72,214 L70,207 L69,203 L67,201 L62,198 L53,198 L47,200 L49,193 L55,191 L67,189 L68,184 L64,174 L62,170 L61,170 L59,161 L48,157 L52,154 L62,152 L65,150 L63,133 L57,131 L38,130 L15,130 L14,133 L22,137 L30,146 L34,150 L38,159 L40,160 L41,180 L39,181 L38,188 L35,192 L28,198 L24,204 L20,208 L12,212 L8,213 L-11,213 L-22,209 L-25,206 L-27,203 L-31,202 L-33,198 L-36,195 L-41,184 L-42,179 L-42,158 L-40,158 L-36,148 L-30,139 L-19,132 L-23,130 Z M70,132 L66,133 L68,149 L71,155 L77,155 L83,150 L88,146 L97,139 L99,136 L98,133 L85,132 Z M-94,133 L-103,135 L-101,139 L-95,142 L-93,146 L-89,145 L-89,147 L-85,151 L-82,153 L-80,152 L-79,154 L-77,149 L-76,143 L-76,134 L-79,133 Z M-9,134 L-9,136 L-16,136 L-22,139 L-20,140 L-20,143 L-22,144 L-23,142 L-26,146 L-30,150 L-32,151 L-33,156 L-35,163 L-36,171 L-37,172 L-37,159 L-39,162 L-39,180 L-37,181 L-36,186 L-32,187 L-25,196 L-22,201 L-17,203 L-9,205 L-4,205 L-4,207 L2,207 L4,205 L13,204 L20,200 L25,196 L27,193 L25,190 L31,189 L32,185 L31,180 L33,172 L34,178 L35,178 L35,167 L33,167 L32,160 L30,160 L26,150 L24,147 L20,146 L18,142 L12,141 L9,139 L10,136 L3,134 Z M53,192 L50,193 L49,197 L65,197 L67,198 L68,192 Z M-69,227 L-74,229 L-79,242 L-80,248 L-84,256 L-86,256 L-86,264 L79,264 L76,254 L71,242 L67,231 L64,228 L61,227 Z M20,273 L20,276 L18,276 L17,291 L23,296 L42,296 L43,294 L43,275 L41,275 L41,273 Z " fill="#E1E3E2" transform="translate(150,21)"/>
<path d="M0,0 L22,0 L26,1 L24,6 L22,12 L20,21 L18,19 L18,32 L21,44 L24,50 L26,50 L32,58 L34,60 L38,62 L39,65 L48,69 L52,70 L71,70 L81,66 L87,62 L89,57 L97,49 L99,49 L102,43 L102,37 L104,37 L103,17 L100,14 L95,4 L95,1 L98,2 L109,2 L120,3 L125,5 L127,5 L125,9 L113,12 L111,14 L122,18 L124,27 L126,27 L130,39 L131,43 L130,46 L115,49 L112,50 L110,57 L116,55 L125,55 L130,58 L132,60 L133,64 L136,71 L135,77 L-10,77 L-16,76 L-15,70 L-11,59 L-7,55 L3,55 L9,56 L12,50 L6,48 L-10,46 L-8,37 L-6,30 L-4,19 L0,17 L10,17 L10,10 L-6,9 L-7,5 L0,1 Z " fill="#F7F7F7" transform="translate(87,164)"/>
<path d="M0,0 L7,0 L7,3 L13,5 L16,6 L18,10 L22,11 L26,20 L27,23 L29,23 L30,30 L32,30 L32,41 L31,41 L30,35 L28,46 L29,50 L27,52 L22,53 L24,57 L19,61 L14,65 L10,67 L5,67 L0,68 L-1,70 L-7,70 L-7,68 L-16,67 L-25,64 L-29,58 L-35,50 L-39,49 L-41,43 L-42,43 L-42,25 L-40,22 L-40,35 L-39,34 L-37,21 L-35,16 L-34,13 L-30,11 L-27,6 L-25,5 L-25,7 L-23,5 L-20,2 L-15,1 Z M-7,10 L-8,18 L-8,40 L-6,44 L-6,47 L-4,49 L1,49 L1,51 L6,53 L10,52 L11,48 L8,48 L6,45 L3,45 L0,25 L-1,13 L-4,10 Z " fill="#F7F7F7" transform="translate(153,158)"/>
<path d="M0,0 L2,4 L10,24 L10,26 L-155,26 L-155,18 L-153,18 L-148,8 L-148,4 L-1,5 Z " fill="#B39182" transform="translate(219,259)"/>
<path d="M0,0 L123,0 L130,2 L156,4 L161,7 L161,17 L160,19 L144,19 L140,18 L87,16 L-9,16 L-24,17 L-52,17 L-54,11 L-54,2 L-44,1 L-28,1 Z " fill="#F8F9F9" transform="translate(93,129)"/>
<path d="M0,0 L4,4 L2,11 L-32,10 L-120,9 L-120,8 L-151,7 L-146,2 L-146,4 L-1,3 Z " fill="#937A6C" transform="translate(215,104)"/>
<path d="M0,0 L43,0 L68,1 L130,2 L136,5 L137,7 L137,13 L131,13 L132,10 L135,10 L134,8 L129,8 L129,7 L-6,6 L-6,1 Z " fill="#D9C6BF" transform="translate(82,249)"/>
<path d="M0,0 L8,6 L9,8 L-137,9 L-137,7 L-132,5 L-88,5 L-88,1 Z " fill="#C09D8F" transform="translate(206,98)"/>
<path d="M0,0 L25,0 L28,2 L27,19 L-4,19 L-5,1 Z " fill="#F8F8F8" transform="translate(135,296)"/>
<path d="M0,0 L19,0 L36,1 L45,4 L46,15 L37,13 L16,12 L11,11 L4,5 L-3,2 Z " fill="#F8F8F8" transform="translate(167,152)"/>
<path d="M0,0 L9,1 L6,4 L-5,11 L-35,11 L-35,13 L-42,15 L-40,4 L-36,1 Z " fill="#FAFAFA" transform="translate(122,151)"/>
<path d="M0,0 L1,0 L2,9 L-155,9 L-155,1 L-154,5 L-1,6 Z " fill="#2E3F39" transform="translate(223,235)"/>
<path d="M0,0 L38,1 L44,9 L44,10 L1,10 L-6,7 L-6,4 L-2,1 Z " fill="#9D877A" transform="translate(133,45)"/>
<path d="M0,0 L19,0 L22,3 L22,19 L3,19 L0,15 L-1,1 Z " fill="#EFF0F0" transform="translate(101,296)"/>
<path d="M0,0 L29,0 L30,3 L22,10 L14,15 L9,20 L8,21 L3,21 L0,9 Z " fill="#F8F8F8" transform="translate(219,155)"/>
<path d="M0,0 L17,0 L19,1 L19,20 L2,19 L-2,17 L-2,1 Z " fill="#F4F4F4" transform="translate(172,296)"/>
<path d="M0,0 L4,1 L18,15 L17,17 L-51,16 L-47,12 L-46,9 L9,10 L4,4 L-42,3 L-42,1 Z " fill="#9D6853" transform="translate(175,68)"/>
<path d="M0,0 L96,0 L149,2 L149,3 L131,3 L130,5 L126,4 L72,3 L17,3 L-11,4 L-16,5 L-25,4 L-22,2 Z " fill="#2B403A" transform="translate(84,144)"/>
<path d="M0,0 L15,0 L18,1 L18,10 L16,20 L14,21 L14,19 L11,20 L9,18 L5,14 L5,12 L1,13 L-1,9 L-7,6 L-9,2 Z " fill="#F8F9F9" transform="translate(56,154)"/>
<path d="M0,0 L8,0 L8,2 L5,3 L81,3 L84,7 L2,7 L-7,6 L-7,4 L-5,3 L-19,2 L-19,1 L-2,1 Z " fill="#D8C3BB" transform="translate(116,83)"/>
<path d="M0,0 L32,0 L73,1 L95,2 L95,3 L86,4 L55,4 L-31,3 L-40,2 L-40,1 Z " fill="#2A3D36" transform="translate(121,126)"/>
<path d="M0,0 L144,1 L144,3 L0,3 Z " fill="#CCAFA3" transform="translate(74,261)"/>
<path d="M0,0 L144,0 L145,2 L-1,2 Z " fill="#CCAFA4" transform="translate(70,106)"/>
<path d="M0,0 L1,3 L-141,3 L-141,1 Z " fill="#B49283" transform="translate(216,256)"/>
<path d="M0,0 L13,1 L14,5 L103,5 L103,6 L15,7 L12,9 L-3,9 L-5,7 L-4,5 L-20,4 L-19,1 Z " fill="#F7F6F6" transform="translate(103,93)"/>
<path d="M0,0 L24,0 L23,3 L82,3 L84,6 L10,7 L-5,6 L-4,3 Z " fill="#E9DFDC" transform="translate(105,77)"/>
<path d="M0,0 L3,4 L4,6 L4,26 L6,26 L7,30 L9,30 L10,35 L14,36 L16,39 L18,38 L17,42 L13,43 L8,41 L8,39 L3,39 L0,35 L0,32 L-1,25 L-1,8 Z " fill="#929D9A" transform="translate(146,168)"/>
<path d="M0,0 L3,1 L19,2 L19,4 L64,4 L64,5 L18,5 L18,7 L68,8 L68,9 L7,10 L-6,9 L-3,4 L0,1 Z " fill="#DACAC3" transform="translate(114,67)"/>
<path d="M0,0 L39,0 L43,2 L42,5 L-4,5 L-4,1 Z " fill="#918A82" transform="translate(126,59)"/>
<path d="M0,0 L4,1 L11,8 L13,10 L9,9 L4,5 L-83,4 L-82,1 L0,1 Z " fill="#94624D" transform="translate(198,90)"/>
<path d="M0,0 L60,0 L65,2 L66,6 L61,4 L-1,3 Z " fill="#43473D" transform="translate(151,248)"/>
<path d="M0,0 L20,0 L21,2 L27,3 L27,22 L60,22 L57,25 L55,26 L44,24 L26,23 L26,19 L22,19 L22,15 L25,14 L22,14 L21,8 L19,4 L17,3 L-2,2 Z " fill="#636258" transform="translate(103,294)"/>
<path d="M0,0 L81,1 L82,3 L0,3 Z " fill="#C19D8F" transform="translate(117,89)"/>
<path d="M0,0 L21,0 L21,2 L23,3 L23,21 L22,23 L3,23 L-3,18 L-2,3 L0,3 Z M2,2 L0,3 L0,19 L4,21 L21,22 L21,3 L19,2 Z " fill="#374239" transform="translate(170,294)"/>
<path d="M0,0 L6,2 L10,6 L10,8 L13,10 L13,12 L-9,12 L-7,8 L-4,4 L0,2 Z " fill="#B6988C" transform="translate(149,29)"/>
<path d="M0,0 L3,2 L138,3 L138,4 L1,5 L0,9 L-3,11 Z " fill="#AC8C7E" transform="translate(75,252)"/>
<path d="M0,0 L5,1 L4,3 L-71,3 L-70,1 Z " fill="#9D654F" transform="translate(191,84)"/>
<path d="M0,0 L4,4 L-47,4 L-46,1 Z " fill="#BB9383" transform="translate(178,71)"/>
<path d="M0,0 L140,0 L140,1 L0,1 Z " fill="#B49283" transform="translate(75,260)"/>
<path d="M0,0 L2,0 L3,4 L-7,13 L-15,20 L-23,28 L-24,25 L-26,34 L-27,34 L-28,27 L-23,21 L-12,12 L-7,7 L-3,3 Z " fill="#B7BEBD" transform="translate(140,26)"/>
<path d="M0,0 L138,0 L138,1 L0,1 Z " fill="#DAC7C0" transform="translate(75,261)"/>
<path d="M0,0 L138,0 L138,1 L0,1 Z " fill="#DAC7C0" transform="translate(76,259)"/>
<path d="M0,0 L137,0 L137,1 L0,1 Z " fill="#EBECEC" transform="translate(74,103)"/>
<path d="M0,0 L135,0 L135,1 L0,1 Z " fill="#DAC7C0" transform="translate(76,256)"/>
<path d="M0,0 L2,1 L0,6 L-1,12 L5,11 L6,13 L-1,16 L-1,19 L15,21 L15,28 L2,30 L0,34 L-1,29 L3,26 L11,26 L14,27 L12,22 L-3,23 L-5,18 L-3,8 Z " fill="#3E5852" transform="translate(82,153)"/>
<path d="M0,0 L17,1 L16,3 L13,5 L11,9 L11,7 L9,8 L9,10 L-11,10 L-11,7 L-3,1 Z " fill="#97644E" transform="translate(87,91)"/>
<path d="M0,0 L2,0 L2,19 L1,24 L5,24 L4,22 L4,5 L6,6 L7,20 L9,24 L12,25 L2,26 L1,29 L-2,29 L-1,2 Z " fill="#39443C" transform="translate(95,291)"/>
<path d="M0,0 L0,3 L-1,4 L31,5 L29,6 L29,8 L6,9 L-6,9 L-4,3 Z " fill="#755C4D" transform="translate(66,106)"/>
<path d="M0,0 L6,3 L8,6 L3,6 L3,5 L-49,4 L-46,1 L0,2 Z " fill="#986551" transform="translate(168,62)"/>
<path d="M0,0 L5,2 L16,13 L27,22 L31,26 L28,28 L24,24 L23,23 L18,19 L17,18 L10,12 L-1,2 Z " fill="#B3BBB9" transform="translate(197,70)"/>
<path d="M0,0 L5,0 L4,3 L1,3 L3,16 L24,16 L21,17 L21,19 L1,19 L-1,17 L-2,7 Z " fill="#425751" transform="translate(38,130)"/>
<path d="M0,0 L1,2 L-1,5 L-7,4 L-17,4 L-21,9 L-26,24 L-28,24 L-28,18 L-21,1 L-1,1 Z " fill="#435B56" transform="translate(97,216)"/>
<path d="M0,0 L2,1 L2,3 L-52,3 L-52,1 Z " fill="#CCAFA3" transform="translate(182,75)"/>
<path d="M0,0 L2,1 L-4,10 L-7,18 L-9,15 L-7,9 L-4,4 L-28,4 L-30,3 L-30,1 Z " fill="#3D504A" transform="translate(117,161)"/>
<path d="M0,0 L7,1 L8,2 L8,18 L-6,18 L-24,17 L-24,16 L-12,15 L4,16 L4,4 L0,2 Z " fill="#475C56" transform="translate(249,132)"/>
<path d="M0,0 L2,0 L3,3 L5,1 L6,10 L12,21 L12,29 L8,33 L6,33 L5,37 L4,31 L8,30 L8,28 L10,28 L8,22 L4,13 L2,13 L0,6 Z " fill="#B2BAB8" transform="translate(217,187)"/>
<path d="M0,0 L16,0 L16,2 L24,2 L22,7 L11,7 L11,5 L-5,5 L-1,2 Z " fill="#DECFC9" transform="translate(93,87)"/>
<path d="M0,0 L70,0 L70,2 L-3,2 Z " fill="#484A40" transform="translate(81,248)"/>
<path d="M0,0 L2,4 L3,17 L0,19 L-33,19 L-33,2 L-32,2 L-32,18 L-1,18 L-1,1 Z " fill="#99A5A2" transform="translate(163,297)"/>
<path d="M0,0 L4,2 L-2,6 L-14,8 L-25,8 L-26,10 L-28,11 L-28,9 L-30,8 L-26,6 L-23,6 L-24,4 L-6,3 Z " fill="#A6AFAD" transform="translate(50,109)"/>
<path d="M0,0 L31,0 L35,1 L34,27 L33,27 L33,3 L0,2 Z " fill="#949F9C" transform="translate(60,289)"/>
<path d="M0,0 L31,0 L34,2 L6,3 L-10,3 L-16,2 L-16,1 Z " fill="#344C46" transform="translate(59,128)"/>
<path d="M0,0 L19,0 L19,3 L36,3 L40,2 L39,5 L-5,5 L-4,3 L17,3 L17,1 L0,1 Z " fill="#D3BFB6" transform="translate(79,98)"/>
<path d="M0,0 L15,0 L28,1 L28,2 L-1,2 L1,15 L2,23 L-1,19 L-3,13 L-4,1 Z " fill="#84908D" transform="translate(220,153)"/>
<path d="M0,0 L7,1 L28,2 L35,4 L37,7 L34,7 L31,6 L9,4 L8,7 L8,4 L4,5 Z " fill="#30453E" transform="translate(176,162)"/>
<path d="M0,0 L30,0 L32,3 L-1,3 Z " fill="#DCC8C1" transform="translate(135,43)"/>
<path d="M0,0 L1,0 L1,13 L0,10 L-3,10 L-3,14 L1,14 L1,16 L-3,16 L-3,18 L-25,18 L-21,16 L-5,16 L-5,3 L-3,1 L-3,9 L0,9 Z " fill="#333D35" transform="translate(128,299)"/>
<path d="M0,0 L3,1 L6,11 L10,19 L8,25 L5,21 L1,10 L-1,3 Z " fill="#B2BAB8" transform="translate(223,252)"/>
<path d="M0,0 L12,0 L19,2 L19,3 L-3,5 L-8,6 L-11,7 L-13,5 L-7,2 L0,2 Z " fill="#A2ACAA" transform="translate(141,155)"/>
<path d="M0,0 L2,2 L3,5 L3,24 L2,27 L0,27 L-1,25 L-1,6 Z " fill="#AAB8B5" transform="translate(30,126)"/>
<path d="M0,0 L17,1 L14,4 L-2,5 L-4,7 L10,8 L6,12 L-10,11 L-8,6 Z " fill="#92614C" transform="translate(107,73)"/>
<path d="M0,0 L89,0 L89,1 L0,1 Z " fill="#A0664F" transform="translate(117,97)"/>
<path d="M0,0 L87,0 L87,1 L0,1 Z " fill="#F9F9F9" transform="translate(117,96)"/>
<path d="M0,0 L87,0 L87,1 L0,1 Z " fill="#A0664F" transform="translate(116,95)"/>
<path d="M0,0 L2,1 L17,2 L16,4 L11,7 L11,8 L-7,8 L-8,6 Z " fill="#91604C" transform="translate(95,83)"/>
<path d="M0,0 L3,1 L3,19 L6,28 L8,33 L6,35 L1,24 L-1,15 L-1,2 Z " fill="#354C47" transform="translate(105,181)"/>
<path d="M0,0 L86,0 L86,1 L0,1 Z " fill="#F9F9F9" transform="translate(116,94)"/>
<path d="M0,0 L15,0 L14,6 L8,5 L-4,5 L-3,1 Z " fill="#FAFAFA" transform="translate(203,213)"/>
<path d="M0,0 L3,3 L5,22 L6,28 L4,30 L3,26 L1,26 L0,21 L0,6 L-2,1 Z " fill="#E7EBEA" transform="translate(149,168)"/>
<path d="M0,0 L23,0 L42,1 L48,3 L50,20 L47,16 L47,5 L38,3 L21,2 L-1,2 Z " fill="#1C322C" transform="translate(165,151)"/>
<path d="M0,0 L15,0 L31,1 L36,2 L33,4 L22,4 L7,3 L0,1 Z " fill="#213C35" transform="translate(216,129)"/>
<path d="M0,0 L8,6 L10,9 L10,22 L8,27 L6,23 L7,13 L4,7 L-1,4 Z " fill="#B8BFBD" transform="translate(64,178)"/>
<path d="M0,0 L5,2 L5,5 L11,7 L25,8 L21,9 L21,11 L28,11 L28,12 L12,11 L7,9 L1,4 L-1,2 Z " fill="#919B99" transform="translate(239,106)"/>
<path d="M0,0 L7,6 L4,7 L1,5 L-29,4 L-25,2 L-23,1 L-1,1 Z " fill="#915F4A" transform="translate(163,39)"/>
<path d="M0,0 L28,0 L32,1 L32,3 L-1,3 Z " fill="#343C33" transform="translate(131,294)"/>
<path d="M0,0 L1,0 L2,7 L18,8 L24,11 L23,13 L19,12 L-1,9 Z " fill="#415B56" transform="translate(75,203)"/>
<path d="M0,0 L67,0 L67,1 L0,1 Z " fill="#E9DFDC" transform="translate(124,84)"/>
<path d="M0,0 L5,1 L1,5 L-9,12 L-13,12 L-11,8 L-8,5 L-4,6 L-4,3 Z " fill="#B7BEBD" transform="translate(64,98)"/>
</svg>
