<?xml version="1.0" encoding="UTF-8"?>
<!-- Generator: visioncortex VTracer 0.6.12 -->
<svg version="1.1" xmlns="http://www.w3.org/2000/svg" width="466" height="344">
<path d="M0,0 L466,0 L466,344 L0,344 Z M42,21 L41,26 L41,71 L39,76 L28,85 L26,88 L26,90 L24,94 L22,95 L24,100 L36,111 L40,113 L43,120 L44,158 L45,173 L47,178 L51,179 L50,173 L54,178 L64,183 L68,181 L57,176 L55,176 L53,170 L52,158 L52,105 L53,102 L111,102 L124,106 L148,107 L159,108 L163,112 L168,124 L176,134 L186,140 L191,141 L199,141 L213,140 L250,141 L254,142 L253,214 L252,219 L243,220 L235,223 L231,229 L227,238 L224,242 L223,243 L210,239 L192,232 L181,227 L168,222 L158,218 L145,213 L138,209 L122,203 L106,197 L83,187 L72,183 L68,185 L80,189 L95,195 L112,202 L122,206 L136,213 L148,217 L169,226 L184,232 L193,236 L207,241 L217,245 L226,246 L232,236 L236,227 L240,224 L254,221 L257,219 L257,140 L252,138 L207,137 L193,138 L184,135 L176,129 L170,119 L166,110 L162,106 L158,105 L126,103 L117,101 L120,96 L117,93 L108,72 L104,56 L101,43 L96,35 L91,31 L58,22 L53,21 Z M264,36 L243,38 L229,41 L228,42 L213,44 L206,47 L206,49 L232,44 L248,41 L286,39 L302,39 L324,40 L354,44 L365,47 L371,47 L371,45 L356,41 L340,39 L319,36 Z M295,40 L264,41 L250,42 L228,46 L208,50 L208,52 L206,53 L208,58 L216,65 L220,66 L237,62 L257,59 L261,58 L295,57 L314,58 L349,63 L358,66 L364,66 L369,62 L376,55 L377,51 L361,47 L331,42 L302,40 Z M204,47 L200,53 L208,64 L216,72 L228,81 L230,82 L245,82 L254,80 L253,83 L253,106 L240,108 L230,105 L226,101 L224,101 L225,106 L230,109 L241,111 L256,111 L257,110 L257,82 L254,78 L244,78 L240,79 L230,79 L222,71 L211,62 L205,55 L206,49 Z M368,65 L356,74 L354,78 L348,82 L348,109 L349,112 L377,114 L385,115 L384,113 L370,110 L354,109 L352,105 L352,85 L355,80 L361,73 L367,69 L370,66 Z M268,66 L264,70 L264,225 L266,230 L271,228 L272,227 L272,67 Z M338,68 L338,70 L336,70 L336,223 L337,225 L343,226 L343,72 L339,68 Z M284,77 L280,78 L279,82 L279,111 L323,112 L326,110 L325,80 L322,78 L307,77 Z M439,78 L434,79 L429,83 L428,88 L425,127 L423,141 L416,140 L415,138 L412,135 L407,135 L406,134 L400,127 L395,123 L390,124 L390,122 L392,121 L384,118 L375,117 L374,121 L374,213 L377,218 L385,212 L391,205 L396,200 L402,194 L406,195 L412,188 L413,185 L414,183 L421,181 L422,207 L426,235 L429,242 L432,244 L438,242 L441,238 L441,223 L437,201 L434,189 L430,178 L436,171 L441,167 L443,162 L442,157 L438,151 L435,149 L437,133 L440,124 L443,107 L445,99 L446,82 L442,78 Z M120,98 L118,100 L127,102 L159,104 L164,106 L172,115 L185,121 L198,121 L211,117 L217,112 L220,107 L222,102 L224,101 L223,98 L219,98 L215,106 L214,112 L208,114 L205,117 L186,117 L176,113 L171,108 L167,104 L158,101 L140,100 L125,98 Z M225,108 L220,109 L217,121 L212,131 L214,135 L255,135 L257,130 L257,117 L256,113 L237,112 L227,111 L228,109 Z M81,112 L69,118 L71,125 L76,126 L74,135 L67,153 L66,157 L66,166 L71,168 L75,167 L81,154 L84,145 L93,121 L92,115 L90,112 Z M278,114 L275,115 L274,118 L274,131 L275,134 L279,136 L329,136 L332,134 L332,118 L330,114 Z M352,115 L348,116 L348,134 L355,136 L357,133 L353,132 L352,130 L352,120 L353,117 L366,118 L369,120 L369,132 L372,132 L372,116 L371,115 Z M114,124 L107,127 L102,136 L102,148 L100,152 L95,157 L91,166 L92,173 L95,178 L108,184 L117,186 L124,183 L129,173 L130,166 L129,159 L133,157 L137,153 L141,143 L139,136 L135,131 L124,126 L119,124 Z M277,138 L274,142 L274,214 L275,217 L302,217 L328,218 L332,215 L332,141 L328,138 Z M352,138 L352,140 L349,140 L348,144 L348,219 L352,222 L365,225 L370,224 L372,220 L372,140 L356,138 Z M159,143 L153,146 L148,152 L146,156 L145,166 L148,173 L160,179 L163,184 L159,192 L158,196 L158,203 L164,206 L167,205 L174,191 L184,164 L183,157 L185,156 L182,150 L170,144 Z M205,162 L199,166 L194,178 L196,186 L189,194 L185,202 L185,210 L188,216 L202,223 L210,225 L218,222 L223,212 L223,202 L222,196 L229,195 L234,186 L235,179 L230,169 L216,162 Z M59,183 L62,186 L83,196 L97,201 L127,214 L138,218 L141,217 L138,215 L111,203 L97,198 L77,189 L63,184 Z M401,196 L394,204 L393,207 L391,207 L386,212 L376,222 L379,223 L392,212 L400,201 L403,199 L402,196 Z M175,230 L172,232 L192,240 L201,243 L205,242 L177,230 Z M374,223 L371,228 L370,232 L377,247 L382,260 L378,259 L377,256 L379,255 L373,244 L370,241 L352,236 L324,232 L286,232 L267,235 L244,241 L232,245 L227,250 L225,253 L223,248 L207,243 L203,245 L215,249 L220,254 L218,270 L223,272 L226,271 L224,270 L240,267 L258,261 L267,261 L272,263 L274,262 L273,265 L289,276 L291,276 L288,287 L288,302 L292,312 L296,315 L299,316 L300,319 L304,321 L308,321 L308,323 L312,324 L326,324 L334,321 L338,317 L343,314 L348,304 L350,294 L349,285 L343,274 L341,271 L342,261 L343,257 L349,258 L357,258 L370,262 L377,263 L377,267 L382,266 L382,264 L385,263 L384,254 L374,232 L374,227 L376,225 L376,223 Z " fill="#F8F8F8" transform="translate(0,0)"/>
<path d="M0,0 L51,0 L52,2 L51,8 L51,63 L49,74 L6,74 L-3,75 L-4,71 L-4,2 Z " fill="#F3F3F3" transform="translate(279,141)"/>
<path d="M0,0 L1,2 L10,3 L14,5 L19,5 L30,15 L31,21 L36,29 L39,42 L39,53 L36,57 L33,61 L27,70 L26,74 L23,75 L16,84 L14,88 L10,90 L3,96 L0,96 L-1,92 L1,92 L-1,82 L-1,23 L1,23 Z " fill="#F4F0F0" transform="translate(376,118)"/>
<path d="M0,0 L30,0 L49,3 L55,5 L55,6 L46,8 L45,17 L42,22 L48,27 L52,34 L53,38 L53,51 L50,60 L44,67 L33,73 L22,73 L11,69 L3,63 L-1,56 L-3,47 L-2,37 L0,32 L6,32 L5,28 L5,24 L5,22 L0,26 L-10,20 L-23,10 L-29,9 L-35,8 L-34,6 L-14,2 Z M-4,3 L-10,6 L-6,10 L0,15 L1,12 L-3,8 L-2,7 L6,6 L27,6 L30,7 L30,13 L21,15 L10,18 L4,14 L2,15 L7,19 L9,23 L14,21 L18,19 L31,19 L35,20 L35,6 L30,3 Z M31,27 L17,31 L14,33 L14,28 L12,30 L12,37 L10,37 L9,33 L9,49 L12,56 L17,60 L29,62 L37,57 L41,51 L42,43 L41,38 L46,32 L42,31 L38,32 L34,31 L32,27 Z " fill="#F9F9F9" transform="translate(293,249)"/>
<path d="M0,0 L22,0 L53,2 L78,6 L95,10 L96,14 L90,18 L85,22 L64,17 L51,15 L22,13 L-1,13 L-25,15 L-41,18 L-60,22 L-62,20 L-67,15 L-68,12 L-66,10 L-38,4 L-23,2 Z " fill="#F9F9F9" transform="translate(277,42)"/>
<path d="M0,0 L22,0 L35,1 L39,2 L48,2 L51,4 L69,8 L75,12 L79,21 L78,25 L56,19 L34,15 L18,14 L0,14 L-21,16 L-45,21 L-67,29 L-69,29 L-70,23 L-67,14 L-61,13 L-50,9 L-29,3 L-14,1 Z " fill="#F9F9F9" transform="translate(297,234)"/>
<path d="M0,0 L4,2 L5,7 L4,20 L-3,50 L-6,61 L-6,71 L0,76 L2,79 L1,85 L-1,89 L-6,94 L-10,97 L-11,96 L-10,102 L-5,117 L-1,137 L1,153 L0,160 L-2,163 L-7,163 L-10,151 L-13,123 L-14,103 L-16,100 L-19,99 L-26,103 L-31,110 L-31,107 L-23,93 L-22,88 L-22,80 L-23,80 L-25,68 L-27,62 L-30,58 L-29,56 L-23,63 L-14,66 L-13,62 L-11,65 L-9,29 L-7,8 L-5,3 Z " fill="#F8F8F8" transform="translate(438,79)"/>
<path d="M0,0 L9,3 L7,6 L5,6 L4,8 L3,8 L5,13 L13,23 L16,29 L15,34 L13,38 L11,38 L5,46 L3,49 L5,51 L58,52 L56,44 L57,40 L63,59 L70,74 L72,78 L60,77 L13,77 L3,79 L3,96 L-4,91 L-11,83 L-20,75 L-20,68 L-18,67 L-18,64 L-9,56 L-6,57 L-2,55 L-1,51 Z M53,54 L0,55 L-11,63 L-15,69 L-12,70 L60,70 L64,69 L63,63 L61,64 L57,56 L58,54 Z " fill="#F5F4F4" transform="translate(45,22)"/>
<path d="M0,0 L11,0 L15,4 L15,77 L13,82 L0,79 L-4,75 L-4,4 L-3,1 Z " fill="#FAFAFA" transform="translate(355,141)"/>
<path d="M0,0 L13,2 L39,10 L44,18 L50,41 L50,44 L1,44 L4,37 L12,28 L13,21 L7,13 L3,7 L0,2 Z " fill="#F9F9F9" transform="translate(50,28)"/>
<path d="M0,0 L10,2 L21,8 L24,14 L23,24 L19,30 L13,31 L12,39 L14,43 L13,48 L9,57 L3,59 L-6,58 L-15,53 L-19,52 L-21,46 L-20,37 L-17,31 L-12,27 L-10,23 L-9,21 L-11,17 L-10,12 L-5,2 Z M4,9 L-1,15 L-2,18 L1,24 L9,26 L14,21 L13,13 L7,9 Z M-5,33 L-10,38 L-11,44 L-8,48 L1,50 L5,45 L3,38 L-2,36 L-2,34 Z " fill="#EAE9E6" transform="translate(208,163)"/>
<path d="M0,0 L21,0 L36,1 L37,5 L37,26 L34,27 L34,30 L-1,30 L-5,28 L-4,3 Z " fill="#F6F5F4" transform="translate(287,79)"/>
<path d="M0,0 L10,1 L22,8 L25,14 L24,23 L20,29 L14,30 L13,37 L15,41 L14,46 L9,56 L4,58 L-3,57 L-16,51 L-19,46 L-19,37 L-15,30 L-10,25 L-9,19 L-10,14 L-6,3 Z M4,7 L-1,10 L-2,18 L2,24 L11,26 L16,23 L17,14 L13,9 Z M-4,32 L-9,34 L-12,39 L-11,47 L-5,51 L4,52 L8,48 L10,44 L9,39 L7,35 L1,32 Z " fill="#F8F8F8" transform="translate(113,126)"/>
<path d="M0,0 L46,1 L50,5 L50,16 L49,19 L-1,19 L-3,15 L-4,15 L-4,4 Z " fill="#F7F7F7" transform="translate(279,115)"/>
<path d="M0,0 L7,1 L19,6 L22,9 L21,20 L17,29 L16,35 L14,37 L5,58 L3,59 L-2,56 L1,46 L5,38 L3,38 L1,33 L-12,25 L-14,16 L-10,5 L-4,1 Z M2,9 L-4,12 L-5,20 L1,25 L7,27 L8,23 L10,19 L9,12 Z " fill="#EEECEA" transform="translate(161,145)"/>
<path d="M0,0 L55,0 L58,5 L59,11 L-10,11 L-10,9 L-12,8 L-7,4 Z " fill="#F8F8F8" transform="translate(46,79)"/>
<path d="M0,0 L26,3 L30,6 L30,20 L29,21 L-5,21 L-9,19 L-4,9 L-2,1 Z " fill="#FAFAFA" transform="translate(224,112)"/>
<path d="M0,0 L1,2 L4,1 L4,158 L0,156 Z " fill="#C69B99" transform="translate(267,70)"/>
<path d="M0,0 L3,2 L3,152 L0,151 L-1,148 L-1,1 Z " fill="#CFABA9" transform="translate(338,71)"/>
<path d="M0,0 L8,0 L15,3 L19,9 L20,16 L17,23 L11,27 L4,28 L-2,28 L-5,22 L-7,16 L-6,8 L-1,3 Z " fill="#F9F9F9" transform="translate(312,280)"/>
<path d="M0,0 L4,0 L3,4 L3,158 L5,161 L1,162 L-1,157 L-1,2 Z " fill="#723935" transform="translate(265,68)"/>
<path d="M0,0 L9,0 L11,6 L7,17 L-1,37 L-4,47 L-7,52 L-12,50 L-13,47 L-6,26 L-2,15 L-1,10 L-8,10 L-9,4 L-4,2 Z " fill="#F8F8F8" transform="translate(80,114)"/>
<path d="M0,0 L16,1 L20,2 L20,82 L18,86 L13,87 L0,84 L-4,81 L-4,11 L-3,11 L-2,74 L0,78 L3,81 L16,85 L17,80 L17,7 L14,4 L2,3 L0,2 Z " fill="#36302E" transform="translate(352,138)"/>
<path d="M0,0 L55,0 L66,2 L66,3 L22,3 L-16,5 L-48,11 L-58,13 L-57,10 L-47,7 L-36,6 L-30,4 L-21,2 Z " fill="#7F715F" transform="translate(264,36)"/>
<path d="M0,0 L8,1 L8,2 L-1,4 L-1,7 L1,11 L5,13 L6,14 L28,9 L40,7 L64,5 L87,5 L100,6 L102,8 L79,8 L49,9 L33,12 L17,15 L6,17 L-2,11 L-6,6 L-6,4 L-4,2 Z " fill="#3D3835" transform="translate(212,49)"/>
<path d="M0,0 L9,2 L13,7 L12,16 L7,19 L-2,17 L-6,11 L-5,3 Z " fill="#D9D5CF" transform="translate(117,133)"/>
<path d="M0,0 L6,0 L10,2 L13,8 L12,13 L9,18 L4,18 L-4,14 L-7,11 L-6,4 Z " fill="#ECEAE8" transform="translate(110,159)"/>
<path d="M0,0 L1,2 L-2,11 L-1,17 L-3,24 L-8,28 L-11,34 L-11,43 L-9,48 L0,51 L7,54 L15,53 L21,41 L20,36 L19,31 L21,27 L23,27 L23,35 L24,40 L20,51 L15,56 L8,57 L-5,52 L-12,48 L-15,42 L-14,35 L-9,25 L-5,22 L-4,17 L-4,7 Z " fill="#AE9C83" transform="translate(106,129)"/>
<path d="M0,0 L3,2 L3,4 L8,5 L15,4 L13,8 L10,11 L11,20 L8,27 L4,32 L-2,35 L-14,33 L-12,31 L-5,31 L2,28 L6,24 L7,17 L4,10 L0,6 L-10,5 L-12,3 Z " fill="#796E60" transform="translate(324,276)"/>
<path d="M0,0 L5,3 L6,4 L7,48 L10,66 L5,64 L4,60 L3,45 L2,7 L0,3 Z " fill="#7D6F5E" transform="translate(41,113)"/>
<path d="M0,0 L2,0 L2,96 L-2,95 L-3,92 L-1,92 Z " fill="#8F3B38" transform="translate(341,130)"/>
<path d="M0,0 L2,1 L0,5 L-8,15 L-9,18 L39,19 L37,12 L38,7 L40,9 L42,21 L-11,21 L-14,17 L-7,9 L-4,6 L-2,3 Z " fill="#7B3B38" transform="translate(61,53)"/>
<path d="M0,0 L7,3 L8,10 L6,16 L5,18 L-1,16 L-7,11 L-6,3 Z " fill="#F9F9F9" transform="translate(163,154)"/>
<path d="M0,0 L9,1 L42,10 L49,16 L53,25 L55,35 L55,40 L52,37 L51,29 L49,20 L47,20 L44,15 L33,11 L19,7 L-1,3 Z " fill="#8F806C" transform="translate(49,21)"/>
<path d="M0,0 L4,1 L9,4 L10,12 L5,17 L-3,15 L-6,8 L-2,2 Z " fill="#F9F9F9" transform="translate(212,172)"/>
<path d="M0,0 L4,1 L4,161 L2,159 L2,6 L-1,3 Z " fill="#36302D" transform="translate(268,66)"/>
<path d="M0,0 L26,1 L56,5 L80,10 L82,12 L81,15 L79,14 L80,12 L78,12 L77,14 L77,12 L65,10 L43,6 L22,4 L4,3 L-2,2 Z " fill="#36312E" transform="translate(295,40)"/>
<path d="M0,0 L2,1 L-1,4 L0,7 L71,6 L72,2 L73,8 L69,9 L-3,9 L-6,7 Z " fill="#3B3532" transform="translate(36,83)"/>
<path d="M0,0 L10,1 L6,3 L0,2 L-2,11 L-1,18 L5,28 L7,34 L6,45 L3,45 L2,32 L-1,24 L-6,18 L-9,15 L-7,15 L-5,2 Z " fill="#74695B" transform="translate(343,255)"/>
<path d="M0,0 L3,1 L3,3 L8,5 L10,12 L6,17 L-3,15 L-6,11 L-4,4 Z " fill="#F9F9F9" transform="translate(203,196)"/>
<path d="M0,0 L3,0 L6,3 L6,19 L3,21 L-47,21 L-51,19 L-50,16 L-46,18 L2,19 L2,5 L0,3 Z " fill="#443E3C" transform="translate(326,115)"/>
<path d="M0,0 L2,0 L3,21 L5,21 L8,49 L10,61 L15,60 L17,58 L17,61 L10,63 L6,58 L3,41 L1,26 Z " fill="#7D705F" transform="translate(421,181)"/>
<path d="M0,0 L1,0 L0,16 L5,20 L8,26 L7,32 L3,37 L-5,44 L-2,54 L0,59 L0,64 L-3,63 L-9,45 L-8,41 L-5,41 L-3,37 L2,35 L4,27 L3,24 L1,20 L-3,16 L-2,7 Z " fill="#968771" transform="translate(435,133)"/>
<path d="M0,0 L10,0 L13,4 L13,32 L0,32 L-4,30 L9,28 L9,4 L10,2 L1,4 L-11,4 L-10,2 Z " fill="#A69784" transform="translate(244,78)"/>
<path d="M0,0 L1,2 L3,2 L1,8 L-2,13 L-9,14 L-8,20 L-8,30 L-13,40 L-21,43 L-31,40 L-41,35 L-40,33 L-35,35 L-25,39 L-14,38 L-11,29 L-10,24 L-12,20 L-11,14 L-8,11 L-3,9 Z " fill="#AB9B83" transform="translate(231,182)"/>
<path d="M0,0 L2,0 L1,5 L-7,12 L-9,14 L-15,14 L-24,11 L-59,6 L-59,4 L-61,3 L-45,4 L-23,8 L-11,11 L-2,4 L0,4 Z " fill="#44403D" transform="translate(373,52)"/>
<path d="M0,0 L11,7 L19,12 L17,28 L18,39 L21,47 L24,52 L21,53 L17,48 L14,40 L14,25 L17,14 L12,12 L-1,3 Z " fill="#877A6A" transform="translate(274,262)"/>
<path d="M0,0 L3,1 L4,8 L6,8 L11,24 L19,42 L21,44 L17,46 L10,32 L6,23 L3,12 L3,9 L-2,7 L-2,3 L0,3 Z " fill="#7A6C5F" transform="translate(99,53)"/>
<path d="M0,0 L5,0 L6,2 L3,2 L2,72 L0,73 L-1,4 Z " fill="#83807E" transform="translate(349,140)"/>
<path d="M0,0 L2,0 L2,75 L1,78 L-2,77 L-1,73 Z " fill="#999695" transform="translate(254,141)"/>
<path d="M0,0 L9,0 L10,4 L10,17 L8,22 L-31,22 L-30,19 L6,19 L6,5 L3,3 L-3,2 Z " fill="#4B4643" transform="translate(247,113)"/>
<path d="M0,0 L1,0 L2,146 L3,152 L1,152 L0,150 Z " fill="#6C3734" transform="translate(336,73)"/>
<path d="M0,0 L9,1 L17,4 L13,6 L8,4 L2,3 L2,24 L0,24 L0,83 L-1,83 L-1,4 Z " fill="#4F3735" transform="translate(375,117)"/>
<path d="M0,0 L11,0 L25,7 L30,17 L29,22 L27,22 L25,13 L24,9 L19,7 L10,3 L3,2 L-2,4 L-7,15 L-6,20 L-5,24 L-7,26 L-11,18 L-8,9 L-5,3 Z " fill="#B6A48C" transform="translate(205,162)"/>
<path d="M0,0 L3,1 L2,7 L-3,15 L-10,19 L-13,22 L-19,24 L-33,24 L-37,23 L-37,21 L-43,20 L-45,19 L-47,14 L-43,16 L-34,20 L-30,21 L-19,21 L-8,15 L-3,9 Z " fill="#7C7060" transform="translate(345,300)"/>
<path d="M0,0 L9,3 L25,9 L48,19 L57,22 L56,25 L47,22 L38,18 L24,13 L1,2 Z " fill="#8C7E6B" transform="translate(59,183)"/>
<path d="M0,0 L7,0 L8,5 L8,15 L4,14 L-9,14 L-16,18 L-18,18 L-20,14 L-25,9 L-21,11 L-15,13 L-6,10 L3,8 L3,2 Z " fill="#776C5E" transform="translate(320,254)"/>
<path d="M0,0 L2,2 L-7,8 L-14,16 L-16,20 L-16,40 L-14,44 L2,45 L16,48 L17,50 L-2,47 L-16,46 L-19,42 L-19,16 L-14,13 L-12,9 Z " fill="#AB987E" transform="translate(368,65)"/>
<path d="M0,0 L5,0 L5,3 L8,10 L7,13 L3,5 L3,3 L-52,4 L-59,8 L-59,5 L-53,1 Z " fill="#3B3532" transform="translate(98,76)"/>
<path d="M0,0 L9,2 L31,1 L68,2 L67,5 L22,4 L15,5 L7,5 L0,3 Z " fill="#36312E" transform="translate(184,136)"/>
<path d="M0,0 L3,1 L4,31 L1,33 L-39,32 L-36,29 L-1,30 L-1,27 L1,26 L1,5 Z " fill="#4F473E" transform="translate(322,79)"/>
<path d="M0,0 L51,0 L53,3 L51,3 L50,5 L50,3 L2,4 L0,7 Z " fill="#514D4A" transform="translate(277,138)"/>
<path d="M0,0 L2,4 L2,10 L-2,13 L-45,11 L-45,9 L-13,9 L-2,10 L-1,1 Z " fill="#47423F" transform="translate(330,205)"/>
<path d="M0,0 L2,3 L1,8 L8,16 L22,28 L26,32 L30,34 L26,35 L17,29 L4,17 L-4,6 Z " fill="#8D8170" transform="translate(204,47)"/>
<path d="M0,0 L3,2 L0,4 L-1,8 L-3,29 L-5,42 L-6,57 L-8,57 L-7,32 L-5,9 L-3,3 Z " fill="#93836D" transform="translate(433,79)"/>
<path d="M0,0 L16,4 L18,5 L20,12 L17,23 L17,25 L24,25 L24,26 L19,27 L21,29 L15,28 L13,27 L14,17 L15,11 L10,6 L-2,2 Z " fill="#7D7161" transform="translate(205,243)"/>
<path d="M0,0 L2,1 L2,3 L0,4 L1,11 L10,31 L11,40 L8,41 L7,44 L3,44 L3,41 L6,40 L7,35 L0,17 L-4,9 L-2,2 Z " fill="#796D5C" transform="translate(374,223)"/>
<path d="M0,0 L3,1 L5,4 L5,62 L3,62 L2,5 L-1,5 L-2,2 L0,2 Z " fill="#653532" transform="translate(338,68)"/>
<path d="M0,0 L5,1 L5,80 L-1,83 L-12,84 L-13,82 L1,79 L3,80 L4,2 L0,3 Z " fill="#36312E" transform="translate(252,139)"/>
<path d="M0,0 L5,1 L7,4 L6,21 L2,38 L0,51 L-3,55 L-2,45 L1,31 L3,4 Z " fill="#93836D" transform="translate(439,78)"/>
<path d="M0,0 L8,0 L30,4 L52,10 L53,7 L56,8 L54,8 L56,11 L57,13 L53,14 L35,8 L8,3 L0,2 Z " fill="#342F2C" transform="translate(323,248)"/>
<path d="M0,0 L52,0 L53,6 L49,2 L47,3 L1,2 L-1,6 L-2,5 L-2,15 L0,17 L-2,18 L-4,17 L-4,4 L-3,1 Z " fill="#36302D" transform="translate(278,114)"/>
<path d="M0,0 L9,3 L24,9 L36,15 L48,19 L52,22 L49,23 L25,13 L11,8 L0,2 Z " fill="#484341" transform="translate(118,202)"/>
<path d="M0,0 L7,1 L19,6 L24,11 L27,17 L25,25 L21,32 L16,34 L15,31 L20,29 L23,20 L22,14 L20,10 L9,4 L-1,3 L-7,5 L-6,2 Z " fill="#AC9B83" transform="translate(114,124)"/>
<path d="M0,0 L3,0 L2,5 L-4,20 L-9,28 L-16,26 L-17,25 L-17,18 L-13,8 L-11,5 L-9,5 L-11,11 L-15,22 L-11,25 L-8,21 L-1,4 Z " fill="#AA987E" transform="translate(175,178)"/>
<path d="M0,0 L1,0 L2,29 L3,41 L5,47 L11,49 L18,52 L14,54 L4,49 L0,44 L-1,17 L-1,1 Z " fill="#383330" transform="translate(50,129)"/>
<path d="M0,0 L4,5 L7,10 L8,19 L10,18 L10,32 L7,41 L0,52 L-2,49 L4,38 L6,38 L7,34 L7,25 L3,10 L-1,4 Z " fill="#5E3C39" transform="translate(407,135)"/>
<path d="M0,0 L6,1 L18,6 L33,12 L49,18 L51,21 L42,19 L28,13 L17,9 L8,5 L0,2 Z " fill="#3F3A38" transform="translate(169,224)"/>
<path d="M0,0 L1,0 L5,20 L6,33 L6,42 L3,43 L2,28 L-1,11 L-2,1 Z " fill="#675C4F" transform="translate(435,196)"/>
<path d="M0,0 L11,0 L17,4 L13,6 L10,4 L1,4 L-20,11 L-28,11 L-24,9 L-10,4 Z " fill="#8A7B67" transform="translate(257,257)"/>
<path d="M0,0 L5,1 L2,3 L-6,6 L-10,14 L-11,21 L-10,27 L-5,29 L6,36 L4,40 L-1,35 L-12,29 L-14,20 L-12,11 L-8,5 L-3,1 Z " fill="#B4A28A" transform="translate(159,143)"/>
<path d="M0,0 L34,0 L36,2 L10,3 L2,4 L2,6 L5,10 L3,12 L-2,7 L-6,3 Z " fill="#706454" transform="translate(289,252)"/>
<path d="M0,0 L3,2 L2,3 L12,4 L22,5 L22,6 L6,6 L-3,5 L-4,13 L-9,23 L-8,25 L-9,27 L-11,27 L-13,22 L-7,10 L-5,1 Z " fill="#3B3633" transform="translate(225,108)"/>
<path d="M0,0 L36,0 L36,2 L33,3 L22,2 L1,2 L-2,4 L-3,24 L-4,29 L-2,29 L-3,32 L-6,31 L-5,1 Z " fill="#BEAA8F" transform="translate(286,78)"/>
<path d="M0,0 Z M-34,0 L-32,4 L-31,8 L-32,10 L-34,10 L-34,12 L-22,7 L-4,1 L0,2 L-11,7 L-29,13 L-36,13 L-37,10 Z " fill="#E8E8E7" transform="translate(258,255)"/>
<path d="M0,0 L38,0 L37,3 L11,3 L-11,4 L-15,2 Z " fill="#443F3D" transform="translate(286,232)"/>
<path d="M0,0 L37,2 L42,4 L47,10 L51,20 L50,22 L45,13 L45,11 L43,11 L40,6 L38,5 L27,4 L3,3 L-1,1 Z " fill="#35302D" transform="translate(121,103)"/>
<path d="M0,0 L7,0 L7,2 L2,1 L2,51 L-1,58 L-4,59 L-5,56 L-2,53 L-1,50 L-1,5 Z " fill="#B4A184" transform="translate(42,21)"/>
<path d="M0,0 L1,0 L1,5 L6,3 L6,6 L1,11 L0,19 L2,25 L4,28 L3,31 L-2,27 L-4,21 L-4,5 L-3,9 L-1,9 L-1,1 Z " fill="#7B6F61" transform="translate(306,277)"/>
<path d="M0,0 L9,0 L12,5 L11,11 L1,39 L-2,39 L-1,33 L5,19 L9,8 L8,2 L-1,2 Z " fill="#B7A68D" transform="translate(81,112)"/>
<path d="M0,0 L2,0 L2,28 L1,64 L-1,65 L-1,4 Z " fill="#332E2B" transform="translate(330,141)"/>
<path d="M0,0 L5,1 L5,3 L2,5 L-1,12 L-5,17 L-13,21 L-21,23 L-27,23 L-27,20 L-14,19 L-9,15 L-5,14 L-3,6 Z " fill="#9C8E7A" transform="translate(219,98)"/>
<path d="M0,0 L10,1 L38,9 L42,11 L44,16 L42,18 L39,13 L13,5 L3,3 Z " fill="#73413E" transform="translate(50,26)"/>
<path d="M0,0 L2,1 L-1,13 L-5,24 L-5,26 L0,29 L2,24 L5,14 L8,15 L5,24 L1,31 L-5,30 L-7,29 L-7,20 Z " fill="#B19E83" transform="translate(73,137)"/>
<path d="M0,0 L1,0 L3,28 L3,54 L1,51 L0,43 Z " fill="#F9F9F9" transform="translate(47,118)"/>
<path d="M0,0 L31,0 L31,3 L-8,3 L-6,1 Z " fill="#55504E" transform="translate(58,98)"/>
<path d="M0,0 L1,3 L0,4 L0,75 L5,76 L19,77 L19,78 L-1,78 L-2,75 L-2,3 Z " fill="#332E2B" transform="translate(276,139)"/>
<path d="M0,0 L2,0 L3,3 L-8,7 L-14,8 L-13,10 L-15,10 L-16,22 L-11,21 L-10,23 L-18,26 L-20,26 L-20,24 L-18,24 L-19,14 L-15,6 L-7,2 Z " fill="#373331" transform="translate(244,241)"/>
<path d="M0,0 L13,1 L20,2 L38,3 L46,6 L49,10 L48,12 L43,7 L39,6 L7,4 L-2,2 Z " fill="#534C43" transform="translate(120,98)"/>
<path d="M0,0 L1,0 L1,12 L0,31 L-2,33 L-3,29 L-4,32 L-13,30 L-19,22 L-16,22 L-13,25 L-12,27 L-5,28 L-4,21 L-3,23 L-1,23 L-1,8 Z " fill="#63584B" transform="translate(428,113)"/>
<path d="M0,0 L4,0 L4,3 L-13,6 L-33,12 L-38,13 L-38,11 L-19,4 Z " fill="#35302E" transform="translate(271,250)"/>
<path d="M0,0 L14,2 L35,8 L41,12 L45,23 L44,26 L40,15 L40,13 L31,10 L6,3 L0,1 Z " fill="#FAFAFA" transform="translate(54,25)"/>
<path d="M0,0 L10,1 L31,4 L41,7 L41,9 L31,8 L18,5 L-6,2 L-6,1 Z " fill="#786A59" transform="translate(330,38)"/>
<path d="M0,0 L23,0 L23,1 L2,2 L-1,3 L-3,2 L-2,5 L-3,32 L-1,34 L-5,34 L-5,5 L-4,1 Z M0,31 Z M-1,32 Z " fill="#5D5347" transform="translate(284,77)"/>
<path d="M0,0 L9,2 L20,8 L22,14 L20,14 L21,21 L16,35 L14,31 L18,22 L19,11 L18,9 L16,10 L16,8 L7,5 L0,1 Z " fill="#A08F77" transform="translate(163,143)"/>
<path d="M0,0 L1,0 L1,51 L-1,56 L-3,55 L-3,53 L-1,53 L-1,5 Z " fill="#60564B" transform="translate(44,22)"/>
<path d="M0,0 L9,3 L23,8 L43,17 L48,19 L46,20 L32,15 L5,4 L-2,2 Z " fill="#393432" transform="translate(70,183)"/>
<path d="M0,0 L5,0 L4,4 L3,28 L0,29 Z " fill="#7B7876" transform="translate(48,101)"/>
<path d="M0,0 L18,0 L26,1 L26,2 L-4,3 L-22,5 L-21,2 Z " fill="#3B3633" transform="translate(297,247)"/>
<path d="M0,0 L2,1 L1,4 L-4,9 L-11,18 L-22,27 L-25,26 L-15,16 L-9,11 L-7,9 L-1,2 Z " fill="#7F7568" transform="translate(401,196)"/>
<path d="M0,0 L2,0 L3,3 L6,0 L7,4 L2,10 L-2,9 L-9,16 L-12,19 L-12,16 L-4,6 L-2,5 Z " fill="#745D57" transform="translate(404,185)"/>
<path d="M0,0 L4,0 L2,4 L-1,7 L-9,23 L-14,24 L-17,21 L-12,21 L-12,19 L-8,15 L-4,5 Z " fill="#484442" transform="translate(236,222)"/>
<path d="M0,0 L5,1 L6,5 L6,25 L5,25 L4,19 L4,4 L-5,6 L-6,8 L-7,11 L-9,11 L-8,5 Z " fill="#61584D" transform="translate(419,177)"/>
<path d="M0,0 L1,0 L0,11 L-5,33 L-7,42 L-6,47 L-3,50 L-4,52 L-9,47 L-9,37 L-4,19 Z " fill="#413D37" transform="translate(440,103)"/>
<path d="M0,0 L3,0 L3,2 L1,2 L0,5 L0,15 L1,17 L5,19 L1,21 L-4,19 L-4,1 Z " fill="#5F5B59" transform="translate(352,115)"/>
<path d="M0,0 L1,4 L3,4 L6,9 L13,19 L16,24 L14,28 L6,15 L-1,6 Z " fill="#754540" transform="translate(48,26)"/>
<path d="M0,0 L6,5 L10,9 L20,13 L26,14 L26,17 L19,17 L5,10 L3,8 L1,3 Z " fill="#91816D" transform="translate(166,104)"/>
<path d="M0,0 L9,3 L30,12 L26,13 L12,8 L-3,2 Z " fill="#7E705D" transform="translate(175,230)"/>
<path d="M0,0 L8,0 L12,2 L-3,4 L-17,8 L-21,8 L-20,5 Z " fill="#322D2A" transform="translate(267,235)"/>
<path d="M0,0 L9,1 L16,4 L16,6 L6,4 L-16,3 L-15,1 Z " fill="#322D2A" transform="translate(105,98)"/>
<path d="M0,0 L7,0 L5,2 L-22,7 L-29,7 L-30,5 Z " fill="#322D2A" transform="translate(246,43)"/>
<path d="M0,0 L29,0 L29,1 L-13,4 L-14,1 Z " fill="#36312E" transform="translate(264,41)"/>
<path d="M0,0 L10,1 L19,4 L25,15 L25,17 L22,17 L18,8 L13,5 L-1,2 Z " fill="#373230" transform="translate(353,238)"/>
<path d="M0,0 L10,1 L28,7 L33,6 L32,10 L22,8 L9,4 L0,2 Z " fill="#F9F9F9" transform="translate(348,254)"/>
<path d="M0,0 L3,4 L6,10 L11,15 L19,21 L20,24 L15,23 L8,17 L1,6 Z " fill="#686563" transform="translate(165,114)"/>
<path d="M0,0 L9,0 L34,4 L31,6 L22,5 L21,4 L14,4 L1,2 Z " fill="#383331" transform="translate(322,233)"/>
<path d="M0,0 L1,4 L-3,8 L-5,8 L-8,19 L-7,26 L-6,30 L-8,30 L-11,24 L-11,16 L-5,5 Z " fill="#AA987F" transform="translate(196,186)"/>
<path d="M0,0 L2,0 L3,10 L1,10 L4,13 L10,9 L15,5 L15,8 L4,18 L1,15 L0,13 Z " fill="#4D3330" transform="translate(374,200)"/>
<path d="M0,0 L2,0 L2,2 L-4,4 L-5,6 L-7,5 L-6,8 L-4,10 L1,11 L0,20 L-2,25 L-4,25 L-2,13 L-7,12 L-9,5 Z " fill="#A5937A" transform="translate(78,113)"/>
<path d="M0,0 L5,0 L1,2 L-4,5 L-5,12 L0,16 L8,19 L4,20 L-3,18 L-7,15 L-8,7 L-4,1 Z " fill="#9C907F" transform="translate(109,158)"/>
<path d="M0,0 L16,0 L17,1 L17,17 L14,17 L14,5 L11,3 L0,1 Z " fill="#393432" transform="translate(355,115)"/>
<path d="M0,0 L6,1 L27,10 L26,12 L17,9 L3,4 L0,1 Z " fill="#968773" transform="translate(114,206)"/>
<path d="M0,0 L2,1 L2,25 L4,28 L25,30 L25,31 L14,31 L1,30 L0,27 Z " fill="#302C2A" transform="translate(348,82)"/>
<path d="M0,0 L4,5 L17,17 L16,19 L11,16 L4,9 L-1,5 L-2,1 Z " fill="#796D5E" transform="translate(24,94)"/>
<path d="M0,0 L3,2 L1,3 L2,5 L1,11 L2,13 L-5,12 L-4,15 L-6,15 L-7,12 L-5,6 Z " fill="#605D5B" transform="translate(298,269)"/>
<path d="M0,0 L4,2 L8,5 L20,8 L27,8 L32,9 L32,10 L17,10 L6,8 L1,4 Z " fill="#665C50" transform="translate(224,101)"/>
<path d="M0,0 L2,0 L6,10 L5,3 L7,5 L9,14 L7,18 L4,18 L1,8 Z " fill="#5A3733" transform="translate(92,38)"/>
</svg>
