<?xml version="1.0" encoding="UTF-8"?>
<!-- Generator: visioncortex VTracer 0.6.12 -->
<svg version="1.1" xmlns="http://www.w3.org/2000/svg" width="344" height="344">
<path d="M0,0 L344,0 L344,344 L0,344 Z M184,21 L182,31 L182,39 L184,35 L185,24 L199,24 L212,29 L212,27 L200,22 L193,21 Z M195,26 L194,28 L194,37 L188,38 L185,44 L191,45 L197,44 L202,43 L206,35 L201,33 L199,27 Z M238,36 L234,45 L228,53 L222,60 L213,66 L211,61 L208,62 L208,66 L201,65 L204,60 L204,53 L197,49 L187,48 L183,49 L178,54 L181,66 L183,69 L183,67 L186,67 L185,71 L187,71 L187,67 L192,70 L195,70 L186,73 L189,88 L187,88 L186,92 L184,93 L186,99 L187,105 L185,108 L183,97 L176,99 L178,101 L175,103 L175,105 L171,107 L165,111 L163,110 L159,117 L150,120 L152,121 L150,124 L147,125 L146,123 L143,127 L140,122 L139,118 L137,118 L135,114 L134,110 L135,107 L123,100 L120,98 L118,99 L120,92 L110,88 L107,87 L106,85 L104,82 L109,83 L109,81 L100,80 L94,76 L90,64 L88,65 L86,61 L86,58 L78,58 L76,60 L76,81 L72,86 L69,84 L73,81 L63,82 L61,83 L61,86 L58,87 L53,95 L45,97 L43,100 L39,102 L37,105 L39,105 L39,107 L35,109 L30,112 L27,112 L22,116 L24,117 L24,124 L25,128 L27,128 L28,132 L27,134 L29,134 L29,136 L33,137 L40,134 L47,130 L51,129 L52,130 L45,131 L44,133 L56,132 L59,133 L61,132 L62,137 L68,148 L75,159 L78,163 L80,163 L82,167 L87,169 L88,172 L86,189 L88,191 L89,185 L88,192 L87,192 L87,204 L92,218 L95,224 L97,224 L100,235 L103,239 L104,247 L104,259 L102,258 L101,298 L98,305 L91,312 L87,316 L87,318 L81,320 L84,322 L117,322 L125,321 L154,321 L156,319 L148,317 L147,314 L147,316 L142,313 L146,307 L147,302 L147,291 L143,280 L141,276 L140,277 L140,267 L137,252 L135,237 L135,230 L140,231 L160,232 L164,233 L164,236 L161,241 L155,247 L155,249 L158,250 L165,250 L170,247 L173,245 L184,244 L188,240 L186,232 L199,229 L203,228 L210,225 L222,219 L224,216 L233,213 L234,220 L237,223 L237,231 L239,238 L240,255 L242,259 L243,255 L244,271 L241,272 L235,294 L232,299 L227,302 L226,304 L222,306 L216,315 L214,316 L214,318 L212,319 L217,321 L245,321 L242,319 L237,319 L239,314 L239,309 L248,302 L252,291 L252,282 L254,277 L254,272 L253,270 L254,267 L256,268 L259,258 L261,254 L266,252 L267,257 L272,274 L274,271 L275,273 L277,273 L278,276 L280,276 L282,272 L282,265 L284,265 L284,293 L286,300 L288,300 L286,277 L286,259 L284,249 L284,246 L286,245 L281,233 L277,221 L277,208 L280,198 L283,192 L285,183 L286,178 L284,179 L284,169 L278,162 L276,158 L272,150 L278,148 L275,146 L263,143 L256,139 L251,139 L253,141 L256,142 L252,143 L253,146 L252,149 L249,144 L247,143 L247,140 L242,139 L242,137 L244,136 L239,131 L236,125 L232,112 L228,102 L223,89 L216,75 L215,74 L218,68 L224,63 L244,53 L250,53 L248,49 L241,41 L239,36 Z M288,149 L283,151 L282,155 L287,157 L289,161 L299,165 L304,169 L306,172 L308,172 L309,165 L307,162 L304,161 L300,155 L297,153 L300,150 L299,149 Z M317,208 L318,214 L321,221 L321,236 L317,247 L317,250 L321,245 L325,235 L323,220 L318,208 Z M103,247 Z M42,101 Z M41,102 Z M39,104 Z M52,127 Z M225,305 Z " fill="#F5F5F5" transform="translate(0,0)"/>
<path d="M0,0 L6,4 L7,10 L2,16 L2,19 L-2,23 L-2,35 L-1,45 L2,48 L6,49 L7,47 L8,35 L12,34 L15,35 L16,33 L14,32 L16,32 L16,30 L25,28 L29,27 L32,28 L32,30 L34,30 L34,60 L33,68 L30,67 L30,71 L36,70 L47,66 L63,58 L68,55 L73,49 L75,50 L78,66 L81,67 L88,75 L97,78 L97,80 L99,80 L103,89 L109,101 L110,105 L110,112 L108,109 L106,103 L99,106 L98,98 L96,98 L91,89 L91,87 L87,88 L85,96 L85,105 L86,115 L84,117 L83,108 L81,112 L80,108 L79,91 L77,84 L77,76 L74,73 L73,66 L64,69 L59,74 L47,79 L43,81 L39,82 L26,85 L28,94 L24,97 L13,98 L8,102 L5,103 L-2,103 L-5,102 L-3,98 L3,92 L4,89 L6,88 L6,84 L-14,83 L-26,81 L-27,89 L-25,100 L-26,107 L-24,122 L-24,128 L-27,132 L-30,130 L-33,120 L-38,99 L-37,105 L-36,113 L-43,115 L-48,126 L-48,128 L-53,129 L-54,110 L-54,98 L-51,94 L-51,91 L-58,85 L-62,76 L-65,61 L-69,56 L-70,52 L-69,33 L-66,28 L-56,31 L-40,32 L-25,29 L-19,25 L-17,19 L-12,17 L-9,14 L-9,10 L-5,8 Z M10,70 L9,72 L9,82 L12,89 L13,92 L21,92 L23,88 L22,81 L18,79 L13,71 Z " fill="#DEDEDE" transform="translate(160,147)"/>
<path d="M0,0 L8,0 L9,5 L10,7 L12,6 L16,18 L22,22 L31,23 L30,25 L26,24 L29,27 L29,29 L34,31 L42,34 L40,41 L43,40 L48,44 L57,49 L56,55 L59,58 L59,60 L62,61 L63,67 L68,70 L74,82 L83,78 L85,78 L84,73 L84,64 L88,65 L90,73 L90,83 L98,83 L102,80 L108,80 L111,82 L111,84 L107,84 L105,88 L103,91 L103,99 L99,99 L99,97 L91,99 L89,93 L84,91 L82,90 L76,100 L72,99 L72,104 L68,105 L65,105 L57,111 L48,115 L44,116 L30,116 L18,114 L18,105 L19,103 L21,103 L21,89 L19,78 L18,67 L17,65 L11,65 L12,67 L12,76 L11,78 L15,79 L15,94 L13,98 L13,82 L12,79 L10,79 L10,70 L5,69 L-16,69 L-15,65 L-6,57 L3,50 L7,45 L1,49 L-10,58 L-17,60 L-22,55 L-26,47 L-27,41 L-25,41 L-23,37 L-20,36 L-20,32 L-18,31 L-18,34 L-14,29 L-7,29 L-3,32 L4,34 L4,31 L-2,32 L-3,26 L1,17 L2,9 L6,2 L0,3 L-2,5 L-1,1 Z " fill="#DFDFDF" transform="translate(78,58)"/>
<path d="M0,0 L6,1 L15,7 L21,14 L23,18 L26,22 L27,26 L27,37 L22,45 L20,51 L17,51 L15,57 L13,60 L13,66 L14,70 L15,75 L26,96 L28,108 L27,120 L25,132 L22,131 L16,113 L13,99 L7,88 L6,82 L-2,81 L-8,78 L-15,70 L-18,67 L-21,53 L-26,58 L-37,65 L-48,70 L-59,74 L-63,75 L-65,74 L-65,70 L-63,70 L-62,63 L-62,40 L-61,33 L-63,33 L-63,30 L-53,31 L-51,36 L-41,36 L-24,30 L-18,28 L-20,23 L-22,19 L-21,16 L-7,19 L-3,17 L-2,7 Z " fill="#F5F5F5" transform="translate(255,144)"/>
<path d="M0,0 L2,2 L5,14 L4,26 L5,29 L7,29 L10,36 L12,38 L16,30 L17,33 L21,32 L25,45 L26,47 L26,58 L23,67 L19,68 L19,66 L9,65 L9,67 L5,67 L0,73 L-5,75 L-7,75 L-9,66 L-9,51 L-8,49 L-6,49 L-4,40 L-2,22 L1,18 L3,19 L1,8 L0,6 Z M6,67 Z M5,68 Z " fill="#DCDCDC" transform="translate(121,244)"/>
<path d="M0,0 L7,1 L8,3 L11,3 L16,11 L17,19 L15,16 L16,20 L15,24 L17,24 L18,20 L20,20 L21,28 L20,35 L18,31 L17,29 L12,31 L5,29 L4,32 L-2,34 L-9,34 L-9,39 L-13,39 L-16,39 L-17,51 L-19,54 L-26,52 L-28,39 L-28,28 L-22,23 L-18,17 L-10,15 L-10,13 L-4,14 L-5,12 L-5,6 Z " fill="#F3F3F1" transform="translate(185,143)"/>
<path d="M0,0 L6,2 L9,20 L9,38 L8,45 L7,49 L12,50 L14,51 L14,54 L8,53 L5,50 L1,54 L-1,68 L-3,64 L-1,48 L-3,43 L-5,39 L-11,31 L-14,25 L-18,20 L-22,10 L-22,8 L-10,6 L-6,7 L-6,5 L-1,3 L0,10 L-1,14 L1,14 L3,19 L3,29 L4,14 L0,13 Z " fill="#ECECEC" transform="translate(89,123)"/>
<path d="M0,0 L1,0 L3,10 L5,10 L13,4 L14,11 L12,18 L10,28 L10,43 L11,52 L14,51 L15,53 L11,54 L-1,54 L-17,53 L-15,52 L-13,46 L-1,34 L0,32 Z M16,50 Z M15,51 Z " fill="#F7F7F7" transform="translate(103,267)"/>
<path d="M0,0 L2,1 L0,4 L5,5 L7,7 L9,15 L11,15 L13,27 L6,30 L-1,34 L-10,37 L-12,36 L-12,34 L-14,33 L-14,30 L-14,28 L-16,28 L-17,21 L-18,17 L-19,15 L-13,11 L-10,12 L-4,7 L-2,7 L-2,5 L-4,4 Z M-2,4 Z " fill="#C9C9C8" transform="translate(41,100)"/>
<path d="M0,0 L4,0 L10,11 L11,19 L8,26 L4,38 L3,48 L1,53 L-1,63 L-5,62 L-8,55 L-7,47 L-3,35 L-2,24 L-3,18 L-3,9 L-1,1 Z " fill="#E6E6E6" transform="translate(247,234)"/>
<path d="M0,0 L2,1 L6,11 L9,16 L13,17 L17,16 L16,19 L18,20 L13,24 L12,27 L33,26 L35,28 L33,28 L33,30 L17,31 L22,43 L28,51 L31,56 L35,62 L34,64 L38,66 L33,68 L30,65 L30,63 L26,61 L19,49 L13,39 L11,35 L11,32 L8,33 L6,32 L-6,33 L-5,31 L2,30 L3,24 L2,15 L0,15 L-3,8 L0,9 L0,12 L2,12 L1,6 L0,2 Z " fill="#959493" transform="translate(50,100)"/>
<path d="M0,0 L1,0 L3,11 L5,8 L9,9 L10,17 L-1,19 L-8,22 L-11,21 L-20,24 L-19,39 L-21,38 L-22,32 L-23,27 L-35,30 L-38,30 L-36,26 L-35,28 L-31,26 L-30,24 L-32,23 L-26,21 L-22,19 L-19,13 L-16,14 L-9,8 L-7,8 L-7,6 L-4,4 L-6,2 Z " fill="#BBBABA" transform="translate(182,97)"/>
<path d="M0,0 L10,1 L17,5 L17,12 L16,14 L13,15 L12,18 L8,20 L7,22 L4,21 L4,18 L-3,18 L-6,12 L-4,6 L-1,3 Z " fill="#DEDDDB" transform="translate(187,48)"/>
<path d="M0,0 L48,0 L54,2 L55,6 L51,3 L29,3 L29,9 L5,9 L2,5 Z " fill="#B17174" transform="translate(196,143)"/>
<path d="M0,0 L2,3 L6,9 L12,15 L11,17 L4,18 L-16,28 L-24,37 L-26,40 L-28,33 L-29,26 L-27,25 L-25,30 L-14,22 L-5,11 L-1,3 Z " fill="#F9F9F9" transform="translate(238,36)"/>
<path d="M0,0 L1,3 L-2,13 L-1,22 L3,26 L6,28 L2,34 L-3,38 L-4,46 L-5,47 L-11,47 L-7,43 L-13,37 L-13,31 L-9,26 L-6,19 L-1,1 Z " fill="#F7F7F7" transform="translate(242,271)"/>
<path d="M0,0 L11,0 L12,2 L9,4 L14,8 L16,12 L20,14 L21,20 L20,23 L17,22 L12,17 L3,13 L0,10 L-3,7 L-6,6 L-4,1 Z " fill="#F9F9F9" transform="translate(288,149)"/>
<path d="M0,0 L36,1 L38,2 L39,0 L38,4 L-4,4 L-4,6 L40,6 L40,7 L-4,7 L-4,9 L44,8 L45,10 L-5,10 L-6,12 L-7,7 L-4,2 Z " fill="#D8C4C5" transform="translate(199,132)"/>
<path d="M0,0 L2,2 L4,7 L6,19 L8,25 L10,30 L10,35 L8,33 L7,27 L5,27 L4,23 L-7,23 L-9,22 L-10,17 L1,16 L-30,15 L-30,12 L0,12 L-2,4 Z " fill="#BFB3B4" transform="translate(222,89)"/>
<path d="M0,0 L2,4 L-2,8 L-6,9 L-8,9 L-11,12 L-21,17 L-29,18 L-29,21 L-13,16 L-8,14 L-13,19 L-28,23 L-38,23 L-51,21 L-53,19 L-47,20 L-47,17 L-51,15 L-39,16 L-28,16 L-17,12 L-8,6 L-5,3 L-4,5 L-1,5 Z " fill="#5F5D5D" transform="translate(150,157)"/>
<path d="M0,0 L2,1 L1,6 L-4,20 L-4,30 L0,45 L4,53 L3,56 L-7,37 L-11,30 L-11,24 L-12,19 L-5,10 L-2,10 L-2,4 Z " fill="#FAFAFA" transform="translate(279,187)"/>
<path d="M0,0 L1,2 L4,1 L7,4 L8,12 L2,14 L5,10 L0,11 L0,8 L-22,8 L-22,12 L-6,12 L-11,16 L-13,17 L-22,16 L-24,7 L-24,1 Z M-23,3 L-23,6 L2,6 L1,3 Z " fill="#7C3B3E" transform="translate(229,160)"/>
<path d="M0,0 L1,2 L3,2 L3,0 L13,1 L13,3 L15,4 L20,7 L21,5 L21,10 L25,11 L0,10 L-9,11 L-3,3 Z M0,2 Z M-1,3 Z " fill="#CFCFCF" transform="translate(127,309)"/>
<path d="M0,0 L5,3 L8,9 L12,11 L13,18 L11,22 L3,22 L-1,12 L-1,2 Z " fill="#F8F8F8" transform="translate(170,217)"/>
<path d="M0,0 L5,2 L6,7 L11,9 L7,17 L2,18 L-8,19 L-10,17 L-7,12 L-1,11 L-1,2 Z " fill="#F9F9F9" transform="translate(195,26)"/>
<path d="M0,0 L2,3 L3,7 L9,5 L9,7 L4,9 L0,19 L-2,23 L-3,22 L-4,27 L-3,27 L-4,36 L-5,37 L-5,46 L-9,57 L-11,58 L-10,54 L-12,52 L-9,38 L-8,36 L-7,27 L-1,9 L0,6 Z " fill="#575555" transform="translate(257,245)"/>
<path d="M0,0 L3,0 L6,10 L5,13 L-5,17 L-11,4 L-9,2 Z " fill="#CDCBC6" transform="translate(156,124)"/>
<path d="M0,0 L3,1 L-3,4 L26,5 L27,7 L23,8 L-9,8 L-12,11 L18,11 L14,13 L-12,13 L-14,16 L-16,8 L-19,6 L-10,2 L-6,3 Z " fill="#79393D" transform="translate(181,115)"/>
<path d="M0,0 L2,1 L1,2 L1,8 L7,15 L0,18 L-13,18 L-12,14 L-6,5 L-2,3 Z M-4,5 Z " fill="#BBBABA" transform="translate(229,300)"/>
<path d="M0,0 L26,0 L28,6 L1,6 Z " fill="#C69497" transform="translate(191,87)"/>
<path d="M0,0 L0,3 L-2,6 L-2,26 L-1,36 L2,36 L-3,40 L-5,33 L-5,60 L-8,64 L-10,63 L-8,59 L-7,19 L-5,20 L-4,5 Z " fill="#53514E" transform="translate(109,239)"/>
<path d="M0,0 L11,0 L12,3 L-1,3 L-1,5 L12,5 L12,6 L-1,7 L-4,8 L-4,5 L-10,6 L-10,4 L-40,3 L-39,1 L-8,1 L-3,2 L0,2 Z " fill="#BC9698" transform="translate(217,117)"/>
<path d="M0,0 L1,0 L2,6 L2,17 L32,16 L33,21 L2,21 L3,33 L-6,33 L-6,32 L0,31 L2,32 L1,30 Z " fill="#7A3438" transform="translate(190,82)"/>
<path d="M0,0 L19,0 L19,3 L6,10 L0,10 Z " fill="#B4787C" transform="translate(169,130)"/>
<path d="M0,0 L1,2 L-1,6 L13,7 L25,7 L41,5 L59,6 L59,4 L67,6 L65,8 L36,8 L28,9 L-5,9 L-8,7 L-2,5 Z " fill="#32302F" transform="translate(89,313)"/>
<path d="M0,0 L3,0 L6,13 L10,24 L15,30 L18,33 L14,38 L12,41 L11,33 L8,29 L3,14 L0,7 L-2,4 L-2,1 Z M11,41 Z " fill="#F9F9F9" transform="translate(92,206)"/>
<path d="M0,0 L22,0 L22,1 L10,2 L9,4 L3,3 L5,5 L10,5 L7,7 L6,10 L4,10 L3,6 L-22,6 L-23,3 L0,3 Z " fill="#CCAAAC" transform="translate(226,152)"/>
<path d="M0,0 L16,0 L18,6 L-10,6 L-6,4 L-6,2 Z " fill="#C49396" transform="translate(215,125)"/>
<path d="M0,0 L3,1 L-1,3 L3,5 L5,1 L6,3 L6,9 L12,8 L12,11 L5,10 L1,7 L-6,6 L-8,10 L-10,12 L-11,9 L-11,13 L-15,15 L-18,18 L-26,18 L-23,15 L-17,14 L-11,5 L-9,5 L-8,2 L-7,1 Z " fill="#636161" transform="translate(70,81)"/>
<path d="M0,0 L32,0 L31,3 L29,4 L-3,4 L-2,1 Z " fill="#C19093" transform="translate(172,122)"/>
<path d="M0,0 L0,3 L-3,6 L-16,11 L-27,11 L-28,5 L-27,7 L-18,7 L-16,6 L-26,5 L-27,2 L-9,2 L-5,3 Z " fill="#C1C0C0" transform="translate(234,169)"/>
<path d="M0,0 L3,1 L6,7 L6,9 L31,9 L31,12 L7,12 L6,19 L2,18 L1,11 L0,6 L3,9 Z " fill="#845C5E" transform="translate(198,149)"/>
<path d="M0,0 L26,0 L27,3 L22,6 L19,5 L19,3 L0,3 L0,13 L8,11 L12,9 L11,12 L7,15 L0,14 L-1,16 L-2,13 L-1,1 Z " fill="#896062" transform="translate(169,127)"/>
<path d="M0,0 L4,1 L15,1 L17,7 L19,7 L18,10 L18,8 L7,8 L7,10 L5,10 L4,12 L4,10 L-1,11 L-1,7 L1,7 Z " fill="#9A575B" transform="translate(210,109)"/>
<path d="M0,0 L5,5 L3,5 L3,7 L8,8 L7,12 L-42,12 L-40,16 L-42,17 L-44,14 L-47,14 L-47,12 L-54,11 L-50,9 L-45,10 L2,9 L-2,5 Z " fill="#663A3D" transform="translate(239,132)"/>
<path d="M0,0 L2,3 L1,5 L8,6 L9,2 L12,12 L13,13 L15,12 L14,20 L11,17 L9,13 L-4,12 L-1,9 L-6,9 L-7,6 L-1,5 Z " fill="#7E6161" transform="translate(200,60)"/>
<path d="M0,0 L2,1 L-1,13 L-1,26 L3,38 L8,50 L6,51 L7,62 L8,69 L6,66 L4,69 L4,55 L3,47 L4,45 L-1,34 L-4,22 L-4,12 Z " fill="#343131" transform="translate(278,195)"/>
<path d="M0,0 L4,4 L1,4 L-1,8 L-2,27 L-1,33 L1,33 L0,35 L-3,35 L1,43 L3,48 L2,52 L-5,36 L-6,26 L-6,20 L-5,20 L-3,6 Z " fill="#474545" transform="translate(93,172)"/>
<path d="M0,0 L4,0 L9,12 L13,20 L16,33 L19,44 L18,47 L17,45 L15,48 L10,31 L9,26 L12,30 L11,22 L5,10 L2,1 Z " fill="#403E3D" transform="translate(257,226)"/>
<path d="M0,0 L31,0 L32,2 L21,3 L21,5 L18,5 L19,12 L18,10 L1,10 L1,8 L17,8 L17,2 L0,2 Z " fill="#883238" transform="translate(192,104)"/>
<path d="M0,0 L3,3 L3,13 L5,12 L2,24 L0,30 L-2,30 L-1,22 L-3,25 L-4,31 L-9,34 L-13,40 L-13,37 L-9,29 L-6,29 L-4,21 L0,15 Z " fill="#4E4C4B" transform="translate(281,166)"/>
<path d="M0,0 L4,5 L3,9 L2,12 L-26,12 L-26,9 L1,9 L0,7 Z " fill="#AC777B" transform="translate(218,84)"/>
<path d="M0,0 L4,0 L4,3 L1,4 L-1,11 L-2,24 L-5,33 L-6,33 L-6,25 L-4,18 L-4,13 L-6,13 L-9,13 L-5,5 L-3,1 Z " fill="#636161" transform="translate(120,260)"/>
<path d="M0,0 L3,2 L3,4 L5,4 L4,8 L2,8 L2,5 L-21,5 L-21,1 Z " fill="#BC8D90" transform="translate(247,145)"/>
<path d="M0,0 L17,0 L17,6 L1,6 L0,5 Z " fill="#C69396" transform="translate(192,106)"/>
<path d="M0,0 L7,1 L14,5 L27,8 L27,9 L21,11 L23,16 L15,10 L8,6 L4,5 L3,12 L2,12 L2,6 L1,3 L6,3 L0,1 Z " fill="#4E4C4C" transform="translate(251,139)"/>
<path d="M0,0 L7,1 L5,3 L31,4 L32,2 L34,7 L-3,6 L-9,8 L-6,5 L0,2 Z " fill="#723337" transform="translate(202,127)"/>
<path d="M0,0 L3,1 L2,2 L12,3 L12,4 L-6,5 L-7,7 L15,8 L15,10 L-7,10 L-7,17 L-9,13 L-11,4 L-2,1 Z " fill="#833337" transform="translate(197,69)"/>
<path d="M0,0 L17,0 L16,4 L-13,4 L-9,1 Z " fill="#C38E92" transform="translate(193,114)"/>
<path d="M0,0 L13,0 L17,3 L16,5 L4,6 L-2,8 L-4,4 L-5,6 L-6,2 L0,2 Z " fill="#865255" transform="translate(235,153)"/>
<path d="M0,0 L1,0 L4,18 L5,28 L2,27 L2,25 L0,25 L-2,10 L-1,3 Z " fill="#636161" transform="translate(135,244)"/>
<path d="M0,0 L45,0 L46,2 L0,2 Z " fill="#953238" transform="translate(195,139)"/>
<path d="M0,0 L2,4 L9,22 L12,31 L13,36 L10,36 L8,31 L6,31 L4,18 L1,10 L0,7 Z " fill="#565151" transform="translate(226,98)"/>
<path d="M0,0 L7,0 L5,5 L-2,6 L-4,5 L-3,8 L-12,12 L-15,12 L-14,9 L-9,5 Z " fill="#ECECEC" transform="translate(206,122)"/>
<path d="M0,0 L1,4 L-28,4 L-28,1 Z " fill="#B67377" transform="translate(220,95)"/>
<path d="M0,0 L2,1 L17,1 L31,4 L31,5 L3,5 L-2,3 L0,2 Z " fill="#636261" transform="translate(214,316)"/>
<path d="M0,0 L42,0 L43,2 L0,2 Z " fill="#953238" transform="translate(195,136)"/>
<path d="M0,0 L2,2 L4,31 L5,41 L3,41 L1,34 L1,6 L-1,6 L-1,13 L-3,15 L-2,5 L0,5 Z " fill="#4F4D4C" transform="translate(283,259)"/>
<path d="M0,0 L3,3 L7,12 L6,14 L4,11 L2,13 L-24,12 L-24,10 L0,9 L1,5 Z " fill="#75363A" transform="translate(215,75)"/>
<path d="M0,0 L2,0 L3,4 L1,6 L1,4 L-24,4 L-24,1 L-1,1 Z " fill="#C9A7A9" transform="translate(214,78)"/>
<path d="M0,0 L19,0 L20,4 L-2,4 Z " fill="#C69396" transform="translate(191,73)"/>
<path d="M0,0 L3,4 L7,17 L8,27 L3,39 L0,42 L0,39 L4,28 L4,13 L0,3 Z " fill="#444241" transform="translate(317,208)"/>
<path d="M0,0 L1,0 L4,12 L5,15 L8,15 L10,7 L13,10 L13,15 L11,14 L7,22 L4,18 L2,15 L2,11 L-1,12 L-2,4 Z " fill="#4C4A49" transform="translate(126,262)"/>
<path d="M0,0 L6,0 L4,5 L2,10 L2,16 L-1,19 L-2,17 L-2,3 Z " fill="#F9F9F9" transform="translate(78,60)"/>
<path d="M0,0 L3,1 L1,5 L-1,7 L-1,12 L-1,14 L1,17 L7,18 L7,20 L3,19 L3,23 L1,22 L2,19 L-1,19 L-2,21 L-6,8 L-4,4 Z " fill="#6D6B67" transform="translate(184,48)"/>
<path d="M0,0 L1,2 L-1,7 L-8,11 L-19,14 L-22,14 L-22,11 L-12,8 L-4,4 L-2,4 Z " fill="#FAFAFA" transform="translate(143,164)"/>
<path d="M0,0 L22,0 L22,3 L24,4 L20,5 L18,4 L0,3 Z " fill="#AB7276" transform="translate(207,168)"/>
<path d="M0,0 L24,0 L25,3 L0,3 Z " fill="#D6B3B5" transform="translate(206,163)"/>
<path d="M0,0 L2,3 L3,8 L2,6 L-14,7 L-18,8 L-17,4 L-15,5 L-13,3 L-13,1 Z " fill="#813237" transform="translate(229,119)"/>
<path d="M0,0 L3,0 L4,4 L4,18 L1,17 L-3,7 L-3,5 L-1,4 Z " fill="#C5C5C5" transform="translate(187,88)"/>
<path d="M0,0 L3,2 L1,2 L1,4 L6,3 L24,4 L28,5 L28,10 L23,8 L23,6 L8,7 L1,6 L0,8 Z " fill="#6F3336" transform="translate(225,146)"/>
<path d="M0,0 L4,1 L3,5 L5,12 L4,14 L2,14 L1,11 L-4,7 L-7,5 L-3,1 Z " fill="#F3F3F3" transform="translate(48,98)"/>
<path d="M0,0 L24,0 L24,3 L0,3 Z " fill="#B67478" transform="translate(191,82)"/>
<path d="M0,0 L23,0 L23,2 L25,2 L24,4 L1,3 Z " fill="#B37276" transform="translate(202,152)"/>
<path d="M0,0 L2,2 L3,5 L11,4 L9,5 L9,7 L2,10 L-1,13 L-7,20 L-9,19 L-4,13 L-4,10 L0,6 Z " fill="#6D6A66" transform="translate(166,151)"/>
<path d="M0,0 L6,3 L5,10 L0,8 L-7,6 L-6,3 Z " fill="#FAFAFA" transform="translate(188,132)"/>
<path d="M0,0 L9,0 L19,2 L28,6 L27,8 L15,3 L1,3 L-1,18 L-2,18 L-2,10 Z " fill="#3E3C3B" transform="translate(184,21)"/>
<path d="M0,0 L28,2 L32,3 L31,7 L29,5 L26,4 L6,3 L1,2 L1,16 L0,16 L-2,6 Z " fill="#312F2F" transform="translate(134,228)"/>
<path d="M0,0 L2,4 L4,19 L5,26 L5,38 L3,40 L2,22 L-1,4 L-4,2 L0,2 Z " fill="#333030" transform="translate(95,121)"/>
<path d="M0,0 L2,0 L0,4 L-9,12 L-17,17 L-19,16 L-8,6 Z " fill="#FAFAFA" transform="translate(83,103)"/>
<path d="M0,0 L1,0 L1,5 L-4,8 L-15,5 L-15,3 L-2,1 L0,2 Z " fill="#7E7C7C" transform="translate(251,156)"/>
<path d="M0,0 L2,3 L4,0 L4,7 L9,7 L12,10 L2,10 L0,5 L-12,4 L-12,1 L-6,1 L-4,2 Z " fill="#454241" transform="translate(202,171)"/>
</svg>
