<?xml version="1.0" encoding="UTF-8"?>
<!-- Generator: visioncortex VTracer 0.6.12 -->
<svg version="1.1" xmlns="http://www.w3.org/2000/svg" width="324" height="344">
<path d="M0 0 C106.92 0 213.84 0 324 0 C324 113.52 324 227.04 324 344 C217.08 344 110.16 344 0 344 C0 230.48 0 116.96 0 0 Z " fill="#F5F5F5" transform="translate(0,0)"/>
<path d="M0 0 C2.68508427 3.50228383 4.10055869 5.60589234 4.24609375 10.03515625 C4.27896484 10.84533203 4.31183594 11.65550781 4.34570312 12.49023438 C4.40592158 14.17763247 4.46331021 15.86513443 4.51757812 17.55273438 C4.72520274 22.53180763 5.36028795 27.1202455 6.53442383 31.9621582 C7.14858737 34.65037168 7.41637774 37.3156402 7.625 40.0625 C7.66238281 40.53236328 7.66238281 40.53236328 7.8515625 42.91015625 C7.90054688 43.59980469 7.94953125 44.28945312 8 45 C8.61875 44.814375 9.2375 44.62875 9.875 44.4375 C12 44 12 44 14 45 C13.38753293 48.29412783 12.75791405 51.5847447 12.125 54.875 C11.95097656 55.81214844 11.77695312 56.74929687 11.59765625 57.71484375 C11.42363281 58.61074219 11.24960937 59.50664063 11.0703125 60.4296875 C10.91320801 61.25710449 10.75610352 62.08452148 10.59423828 62.93701172 C10 65 10 65 8 67 C7.34 67 6.68 67 6 67 C2.19230769 68.61538462 2.19230769 68.61538462 1 71 C0.34 71 -0.32 71 -1 71 C-1 72.98 -1 74.96 -1 77 C1.97 77.33 4.94 77.66 8 78 C7.67 78.66 7.34 79.32 7 80 C6.34 79.67 5.68 79.34 5 79 C5.1340625 79.33 5.1340625 79.33 5.8125 81 C6.06196955 84.99151288 4.57012394 86.74561183 2.32421875 89.9375 C-0.63445446 94.54569898 -1.26693147 97.43414377 -0.125 102.8125 C1.49217238 111.45855886 1.21207296 117.74038383 -2 126 C-2.66 126 -3.32 126 -4 126 C-4 126.66 -4 127.32 -4 128 C-4.99 128.33 -5.98 128.66 -7 129 C-7.598125 129.61875 -8.19625 130.2375 -8.8125 130.875 C-11 133 -11 133 -13.9375 134.4375 C-18.45236087 136.74100044 -21.21196528 139.81794792 -24 144 C-23.6862793 145.94775391 -23.6862793 145.94775391 -23 148 C-22.67644531 149.26585937 -22.35289062 150.53171875 -22.01953125 151.8359375 C-19.68348898 160.7052454 -16.96821778 169.03642277 -13.13671875 177.375 C-12 180 -12 180 -12 182 C-16.57715087 186.25021152 -20.88993292 189.58133712 -27.25 190.4375 C-31.50517475 189.94106295 -34.78919012 188.63419409 -38.66796875 186.875 C-41 186 -41 186 -45 186 C-45 185.34 -45 184.68 -45 184 C-44.01 184 -43.02 184 -42 184 C-41.67 183.34 -41.34 182.68 -41 182 C-40.525625 182.495 -40.05125 182.99 -39.5625 183.5 C-38 185 -38 185 -37 185 C-37.16886719 184.46310547 -37.16886719 184.46310547 -38.0234375 181.74609375 C-38.47400482 180.30991042 -38.92452303 178.87371168 -39.375 177.4375 C-39.59671875 176.73302734 -39.8184375 176.02855469 -40.046875 175.30273438 C-40.70459651 173.20382898 -41.35359941 171.10241669 -42 169 C-42.2057666 168.34459229 -42.4115332 167.68918457 -42.62353516 167.01391602 C-43.7642081 163.25660846 -44.15301711 160.80495646 -43 157 C-42.01 157.33 -41.02 157.66 -40 158 C-39.67 157.34 -39.34 156.68 -39 156 C-37.19734327 159.34836963 -35.40990865 162.70464061 -33.625 166.0625 C-33.11710937 167.00544922 -32.60921875 167.94839844 -32.0859375 168.91992188 C-28.7043897 175.30481806 -26 180.65130276 -26 188 C-24.35 187.67 -22.7 187.34 -21 187 C-21.30220459 186.45980225 -21.60440918 185.91960449 -21.91577148 185.36303711 C-41.15479321 150.8676527 -41.15479321 150.8676527 -39 140 C-39 139.34 -39 138.68 -39 138 C-42.3 138.99 -45.6 139.98 -49 141 C-49.09765625 134.84765625 -49.09765625 134.84765625 -49 133 C-48.67 132.67 -48.34 132.34 -48 132 C-50.5625718 131.97289877 -53.12485365 131.95311229 -55.6875 131.9375 C-56.40873047 131.92912109 -57.12996094 131.92074219 -57.87304688 131.91210938 C-61.71555382 131.89456368 -65.26639526 132.06475779 -69 133 C-69.66 131.02 -70.32 129.04 -71 127 C-71.56976563 127.495 -72.13953125 127.99 -72.7265625 128.5 C-76.04653298 130.69049599 -78.17296762 130.15919774 -82 129.65234375 C-89.23495667 128.07911749 -96.45082944 125.46815682 -103 122 C-102.855625 122.60585937 -102.71125 123.21171875 -102.5625 123.8359375 C-100.60860801 132.65558885 -99.30860418 140.91138652 -104 149 C-104.79019531 149.63035156 -105.58039063 150.26070312 -106.39453125 150.91015625 C-115.59973128 158.29363753 -119.59948974 171.58584139 -121 183 C-120.67 183.99 -120.34 184.98 -120 186 C-119.505 185.67 -119.505 185.67 -117 184 C-117.6875 185.9375 -117.6875 185.9375 -119 188 C-121.5625 188.625 -121.5625 188.625 -124 189 C-124.33 189.66 -124.66 190.32 -125 191 C-126.32 190.67 -127.64 190.34 -129 190 C-129.27958805 174.21880804 -129.27958805 174.21880804 -128 167 C-127.34 166.67 -126.68 166.34 -126 166 C-125.3671875 163.71484375 -125.3671875 163.71484375 -124.875 160.9375 C-124.70742187 160.01839844 -124.53984375 159.09929687 -124.3671875 158.15234375 C-124.24601562 157.44207031 -124.12484375 156.73179687 -124 156 C-124.474375 155.938125 -124.474375 155.938125 -126.875 155.625 C-132.92574671 153.94560908 -136.96321686 148.53079506 -141 144 C-141.55042969 143.39285156 -142.10085937 142.78570312 -142.66796875 142.16015625 C-144.56664533 139.08107076 -145.27103705 135.80019991 -146.0625 132.3125 C-146.23096436 131.59715088 -146.39942871 130.88180176 -146.57299805 130.14477539 C-146.9047083 128.73119913 -147.23270983 127.31674643 -147.55664062 125.90136719 C-147.9238549 124.32655178 -148.32477422 122.7596389 -148.734375 121.1953125 C-150.26043304 115.23543719 -150.06836568 110.78962151 -147.875 105.0625 C-146 103 -146 103 -142.75 102.3125 C-138.40693367 103.10872883 -136.73943742 104.46509047 -133.67578125 107.4921875 C-131.89556555 109.09396666 -130.17588308 110.02345988 -128 111 C-128.34933594 110.34773438 -128.69867188 109.69546875 -129.05859375 109.0234375 C-131.48502034 104.36304875 -133.57931864 100.32863053 -134 95 C-128.41080442 96.63949737 -123.53085422 98.26204527 -119 102 C-118.125 104.25 -118.125 104.25 -118 106 C-117.01 106 -116.02 106 -115 106 C-115.26959856 100.17667109 -116.22901967 95.79607275 -119.16015625 90.7265625 C-120 89 -120 89 -120 86 C-109.77070411 86.19300558 -102.35140228 92.77666434 -94.55859375 98.8359375 C-93 100 -93 100 -91 101 C-90.93941406 100.65646484 -90.93941406 100.65646484 -90.6328125 98.91796875 C-90.54902344 98.46744141 -90.54902344 98.46744141 -90.125 96.1875 C-89.96257812 95.29417969 -89.80015625 94.40085937 -89.6328125 93.48046875 C-89 91 -89 91 -87 88 C-75.77723971 89.85230024 -75.77723971 89.85230024 -72 93 C-72 93.99 -72 94.98 -72 96 C-71.34 96 -70.68 96 -70 96 C-69.8453125 95.6803125 -69.8453125 95.6803125 -69.0625 94.0625 C-68 92 -68 92 -67 91 C-66.7525 90.38125 -66.505 89.7625 -66.25 89.125 C-64.61650561 86.34805954 -62.86810852 85.39907733 -60 84 C-59.01 84 -58.02 84 -57 84 C-56.93941406 84.40992188 -56.93941406 84.40992188 -56.6328125 86.484375 C-56.46523437 87.56203125 -56.29765625 88.6396875 -56.125 89.75 C-55.96257812 90.81734375 -55.80015625 91.8846875 -55.6328125 92.984375 C-55.05452092 95.74018426 -54.6151039 97.70485236 -53 100 C-51.0546875 100.828125 -51.0546875 100.828125 -48.875 101.25 C-48.235625 101.37375 -48.235625 101.37375 -45 102 C-45.16757813 100.86820312 -45.33515625 99.73640625 -45.5078125 98.5703125 C-45.71412375 97.0886226 -45.91982117 95.60684714 -46.125 94.125 C-46.18107422 93.75181641 -46.18107422 93.75181641 -46.46484375 91.86328125 C-46.72766446 89.91840803 -46.8716515 87.95834962 -47 86 C-46.34 85.34 -45.68 84.68 -45 84 C-44.34 84.33 -43.68 84.66 -43 85 C-43 84.34 -43 83.68 -43 83 C-42.34 83 -41.68 83 -41 83 C-41 84.32 -41 85.64 -41 87 C-39.68 87 -38.36 87 -37 87 C-35.375 88.8125 -35.375 88.8125 -34 91 C-33.67 91.495 -33.67 91.495 -32 94 C-32 94.99 -32 95.98 -32 97 C-31.34 97 -30.68 97 -30 97 C-29.77615618 95.27277272 -29.57160031 93.54303993 -29.375 91.8125 C-29.25898438 90.84957031 -29.14296875 89.88664062 -29.0234375 88.89453125 C-28.99761948 85.70600526 -29.46948726 83.78771962 -31 81 C-31.94875 80.71125 -32.8975 80.4225 -33.875 80.125 C-37.27636056 78.9005102 -37.66270862 78.47204861 -39.375 75.5 C-41 72 -41 72 -41 70 C-34.23417018 68.57561477 -31.75466947 69.27639034 -26 73 C-25.01 73 -24.02 73 -23 73 C-23.350625 72.113125 -23.70125 71.22625 -24.0625 70.3125 C-25.0307454 66.89136626 -25.36179523 65.26830855 -24 62 C-22.34795544 61.29788106 -20.68076231 60.63028587 -19 60 C-18.1875 57.875 -18.1875 57.875 -18 56 C-15.69 56 -13.38 56 -11 56 C-11.144375 55.61457031 -11.144375 55.61457031 -11.875 53.6640625 C-12.24625 52.66117188 -12.6175 51.65828125 -13 50.625 C-13.37125 49.62726563 -13.7425 48.62953125 -14.125 47.6015625 C-15 45 -15 45 -15 43 C-16.32 42.34 -17.64 41.68 -19 41 C-19.309375 41.495 -19.309375 41.495 -20.875 44 C-21.57625 44.99 -22.2775 45.98 -23 47 C-23.66 47 -24.32 47 -25 47 C-25 47.99 -25 48.98 -25 50 C-26.49165082 51.26466048 -27.98798145 52.52543367 -29.53125 53.7265625 C-31.30666591 55.26588587 -32.1872514 56.80557877 -33 59 C-32.54625 58.505 -32.0925 58.01 -31.625 57.5 C-30 56 -30 56 -28 56 C-27.67 56.99 -27.34 57.98 -27 59 C-35.61879181 66.99858099 -35.61879181 66.99858099 -40 68 C-40.495 67.835 -40.495 67.835 -43 67 C-42.34 67 -41.68 67 -41 67 C-41.14179688 66.443125 -41.28359375 65.88625 -41.4296875 65.3125 C-42.11582284 61.74941123 -42.55755218 59.12306939 -40.90625 55.796875 C-38.58091001 52.68851236 -36.02615897 50.02556445 -33.25 47.3125 C-30.89529067 44.89238208 -29.83486456 43.2559718 -29 40 C-29.3238833 38.66433968 -29.65881295 37.33134529 -30 36 C-30.68718035 28.64379066 -30.05730013 24.15139052 -26 18 C-26.165 17.67 -26.165 17.67 -27 16 C-26.34 16 -25.68 16 -25 16 C-24.67 15.01 -24.34 14.02 -24 13 C-23.34 12.34 -22.68 11.68 -22 11 C-21.731875 10.195625 -21.46375 9.39125 -21.1875 8.5625 C-19.67649511 5.3019105 -18.30718715 4.33862337 -15 3 C-12.9765625 3.61328125 -12.9765625 3.61328125 -11 5 C-9.734375 7.3828125 -9.734375 7.3828125 -8.75 10.125 C-8.41484375 11.03507812 -8.0796875 11.94515625 -7.734375 12.8828125 C-7.49203125 13.58148438 -7.2496875 14.28015625 -7 15 C-6.34 14.67 -5.68 14.34 -5 14 C-5.33 15.65 -5.66 17.3 -6 19 C-3.69 19.66 -1.38 20.32 1 21 C1.05389087 19.04196493 1.09274217 17.08351091 1.125 15.125 C1.14820313 14.03445312 1.17140625 12.94390625 1.1953125 11.8203125 C1 9 1 9 -1 7 C-0.625 3.375 -0.625 3.375 0 0 Z " fill="#EBE9E7" transform="translate(254,30)"/>
<path d="M0 0 C3.10458338 3.78339904 5.28171985 8.007667 7.5625 12.3125 C7.96146484 13.04662109 8.36042969 13.78074219 8.77148438 14.53710938 C11.84473172 20.31932935 14 25.33619385 14 32 C15.65 31.67 17.3 31.34 19 31 C19.33 30.01 19.66 29.02 20 28 C20.33 28.99 20.66 29.98 21 31 C16.84674081 34.02055213 14.09741254 34.58494898 9 34 C6.38308235 33.06711732 3.86199045 32.02244606 1.33203125 30.875 C-1 30 -1 30 -5 30 C-5 29.34 -5 28.68 -5 28 C-4.01 28 -3.02 28 -2 28 C-1.67 27.34 -1.34 26.68 -1 26 C-0.525625 26.495 -0.05125 26.99 0.4375 27.5 C2 29 2 29 3 29 C2.83113281 28.46310547 2.83113281 28.46310547 1.9765625 25.74609375 C1.52599518 24.30991042 1.07547697 22.87371168 0.625 21.4375 C0.51414063 21.08526367 0.51414063 21.08526367 -0.046875 19.30273438 C-0.70459651 17.20382898 -1.35359941 15.10241669 -2 13 C-2.2057666 12.34459229 -2.4115332 11.68918457 -2.62353516 11.01391602 C-3.7642081 7.25660846 -4.15301711 4.80495646 -3 1 C-2.01 1.33 -1.02 1.66 0 2 C0 1.34 0 0.68 0 0 Z " fill="#D0CCC9" transform="translate(214,186)"/>
<path d="M0 0 C0.58523437 0.00451172 0.58523437 0.00451172 3.546875 0.02734375 C4.43890625 0.03894531 5.3309375 0.05054688 6.25 0.0625 C1.54966783 2.41266608 -1.58804746 3.2033417 -6.86181641 3.17602539 C-7.22772133 3.1760984 -7.22772133 3.1760984 -9.079422 3.1764679 C-11.50349876 3.17577003 -13.92749912 3.16798354 -16.3515625 3.16015625 C-18.03022215 3.15829162 -19.70888234 3.15686793 -21.38754272 3.15586853 C-25.80987038 3.15204688 -30.23216528 3.14221959 -34.65447998 3.13116455 C-39.16548215 3.12094286 -43.67648959 3.11636928 -48.1875 3.11132812 C-57.04168107 3.10059702 -65.89583781 3.08352481 -74.75 3.0625 C-72.75 1.0625 -72.75 1.0625 -70.18264771 0.82872009 C-69.09773041 0.83617752 -68.01281311 0.84363495 -66.89501953 0.85131836 C-65.66679474 0.85469711 -64.43856995 0.85807587 -63.17312622 0.86155701 C-61.8263544 0.87509456 -60.47958317 0.8886916 -59.1328125 0.90234375 C-57.75520241 0.90861405 -56.37758728 0.91385418 -54.99996948 0.91810608 C-51.36822288 0.93142537 -47.7366436 0.95585931 -44.10498047 0.98345947 C-38.29901024 1.02652434 -32.49299671 1.05633215 -26.68691635 1.0795002 C-24.65946908 1.08970952 -22.63216049 1.10676524 -20.60476685 1.12449646 C-19.37023773 1.13102737 -18.13570862 1.13755829 -16.86376953 1.14428711 C-16.32051529 1.14841362 -16.32051529 1.14841362 -13.57131958 1.16929626 C-8.93674386 0.99386227 -4.72203063 -0.04722031 0 0 Z " fill="#A3B1BD" transform="translate(193.75,263.9375)"/>
<path d="M0 0 C0.33 0 0.66 0 1 0 C1.3881498 2.66852985 1.71162222 5.32030491 2 8 C2.05736328 8.38929688 2.05736328 8.38929688 2.34765625 10.359375 C2.57232777 12.79399734 2.63354201 14.63326808 2 17 C-0.36528059 19.31361184 -3.03424834 20.58905471 -6 22 C-6.4434375 22.2990625 -6.4434375 22.2990625 -8.6875 23.8125 C-11.32990181 25.16940904 -13.06942004 25.25119257 -16 25 C-17.57300962 19.26696495 -18.24327778 14.84340558 -17 9 C-16.67 9 -16.34 9 -16 9 C-15.67 13.62 -15.34 18.24 -15 23 C-10.37821952 22.0756439 -9.19524265 21.70519853 -5.8125 18.9375 C-2.19764706 16 -2.19764706 16 0 16 C0 10.72 0 5.44 0 0 Z " fill="#3A3D2E" transform="translate(74,193)"/>
<path d="M0 0 C0.33 0.99 0.66 1.98 1 3 C-1.22528004 5.98823319 -3.44337854 8.49108895 -6.1875 11 C-8.46044891 13.50808155 -9.21800441 15.72983663 -10 19 C-9.67 19.66 -9.34 20.32 -9 21 C-6.4375 21.625 -6.4375 21.625 -4 22 C-7.20336822 24.83374881 -9.78087253 25.5205537 -14 26 C-13.34 25.67 -12.68 25.34 -12 25 C-12.07089844 24.7215625 -12.07089844 24.7215625 -12.4296875 23.3125 C-13.11582284 19.74941123 -13.55755218 17.12306939 -11.90625 13.796875 C-8.95746154 9.85512716 -5.52629878 6.42834604 -2 3 C-1.34 2.01 -0.68 1.02 0 0 Z " fill="#706351" transform="translate(225,72)"/>
<path d="M0 0 C4.75 0.75 4.75 0.75 7 3 C6.67 3.66 6.34 4.32 6 5 C1.93751511 5.02909769 -2.12494286 5.04683174 -6.1875 5.0625 C-6.76274414 5.06668945 -6.76274414 5.06668945 -9.67382812 5.08789062 C-10.78564453 5.09111328 -11.89746094 5.09433594 -13.04296875 5.09765625 C-14.06414795 5.10289307 -15.08532715 5.10812988 -16.13745117 5.11352539 C-18.86901616 5.00519467 -21.34169374 4.61706868 -24 4 C-24 3.67 -24 3.34 -24 3 C-19.875 2.835 -19.875 2.835 1 2 C0.67 1.34 0.34 0.68 0 0 Z " fill="#9DACBA" transform="translate(239,262)"/>
<path d="M0 0 C1.56633048 2.48770135 2.04100928 3.65552204 1.6875 6.625 C1 9 1 9 0 11 C-0.06996014 12.70702735 -0.08440154 14.41668003 -0.0625 16.125 C-0.05798828 16.58003906 -0.05798828 16.58003906 -0.03515625 18.8828125 C-0.02355469 19.58148438 -0.01195313 20.28015625 0 21 C-3.13440869 22.0448029 -4.02096037 22.15317663 -7 21 C-7.66 20.01 -8.32 19.02 -9 18 C-8.835 17.505 -8.835 17.505 -8 15 C-7.54625 15.495 -7.0925 15.99 -6.625 16.5 C-5 18 -5 18 -3 18 C-3.03480469 17.3709375 -3.06960937 16.741875 -3.10546875 16.09375 C-3.30006784 9.94071219 -2.49995743 5.62490422 0 0 Z " fill="#555845" transform="translate(85,195)"/>
<path d="M0 0 C3.96516109 -0.07493036 7.93004014 -0.12896449 11.89575195 -0.16479492 C13.89744576 -0.18705458 15.89894275 -0.22520146 17.90039062 -0.26367188 C25.29844997 -0.31957661 31.15303837 0.13645183 38 3 C34.38341517 4.25189475 31.71468024 3.69846976 28 3 C25.76523065 2.79578658 23.52784951 2.61888873 21.2890625 2.46484375 C20.04511719 2.37783203 18.80117187 2.29082031 17.51953125 2.20117188 C16.23433594 2.11416016 14.94914063 2.02714844 13.625 1.9375 C12.31660156 1.84662109 11.00820312 1.75574219 9.66015625 1.66210938 C6.44027272 1.43883278 3.22022964 1.21821836 0 1 C0 0.67 0 0.34 0 0 Z " fill="#8EA1B4" transform="translate(204,244)"/>
<path d="M0 0 C0.33 0 0.66 0 1 0 C1.33 6.93 1.66 13.86 2 21 C2.66 21 3.32 21 4 21 C4.33 19.35 4.66 17.7 5 16 C5.99 16.99 6.98 17.98 8 19 C8.99 18.34 9.98 17.68 11 17 C10.3125 18.9375 10.3125 18.9375 9 21 C6.4375 21.625 6.4375 21.625 4 22 C3.67 22.66 3.34 23.32 3 24 C1.68 23.67 0.36 23.34 -1 23 C-1.13690844 15.27227893 -0.75166913 7.69118596 0 0 Z " fill="#483D2E" transform="translate(126,197)"/>
<path d="M0 0 C3.0613584 3.99307618 4.12221622 6.17762168 4.31640625 11.2265625 C4.35830078 12.2578125 4.40019531 13.2890625 4.44335938 14.3515625 C4.48267578 15.43179688 4.52199219 16.51203125 4.5625 17.625 C4.60568359 18.71296875 4.64886719 19.8009375 4.69335938 20.921875 C4.7996453 23.6144517 4.90168057 26.30712253 5 29 C4.34 28.34 3.68 27.68 3 27 C3 25.68 3 24.36 3 23 C2.34 22.67 1.68 22.34 1 22 C1.01160156 21.54238281 1.01160156 21.54238281 1.0703125 19.2265625 C1.08835938 18.03804687 1.10640625 16.84953125 1.125 15.625 C1.13660156 15.03332031 1.13660156 15.03332031 1.1953125 12.0390625 C1 9 1 9 -1 7 C-0.625 3.375 -0.625 3.375 0 0 Z " fill="#454634" transform="translate(254,30)"/>
<path d="M0 0 C2 3 2 3 2 7 C3.65 6.67 5.3 6.34 7 6 C7.33 5.01 7.66 4.02 8 3 C8.33 3.99 8.66 4.98 9 6 C4.84674081 9.02055213 2.09741254 9.58494898 -3 9 C-5.61691765 8.06711732 -8.13800955 7.02244606 -10.66796875 5.875 C-13 5 -13 5 -17 5 C-17 4.34 -17 3.68 -17 3 C-16.01 3 -15.02 3 -14 3 C-13.67 2.34 -13.34 1.68 -13 1 C-12.5875 1.474375 -12.175 1.94875 -11.75 2.4375 C-9.76710144 4.20794514 -8.5610547 4.45674597 -6 5 C-4.6520257 5.63654342 -3.31403276 6.29605388 -2 7 C-1.34 4.69 -0.68 2.38 0 0 Z " fill="#4D4C3A" transform="translate(226,211)"/>
<path d="M0 0 C0.33 0 0.66 0 1 0 C1.01458252 0.57967529 1.02916504 1.15935059 1.04418945 1.7565918 C1.11898528 4.40087553 1.21553898 7.04394002 1.3125 9.6875 C1.33505859 10.59951172 1.35761719 11.51152344 1.38085938 12.45117188 C1.57946473 17.41630574 1.81277326 20.94119919 5 25 C4.34 25 3.68 25 3 25 C3.99 26.65 4.98 28.3 6 30 C5 31 5 31 2.27734375 31.09765625 C1.17519531 31.08605469 0.07304688 31.07445312 -1.0625 31.0625 C-2.16722656 31.05347656 -3.27195312 31.04445313 -4.41015625 31.03515625 C-4.83748047 31.02935547 -4.83748047 31.02935547 -7 31 C-7 30.67 -7 30.34 -7 30 C-5.68 29.835 -5.68 29.835 1 29 C1 26 1 26 0.50610352 24.13769531 C-0.0879877 21.62835491 -0.11264504 19.37494734 -0.09765625 16.796875 C-0.09443359 15.8171875 -0.09121094 14.8375 -0.08789062 13.828125 C-0.07951172 12.81234375 -0.07113281 11.7965625 -0.0625 10.75 C-0.05798828 9.71875 -0.05347656 8.6875 -0.04882812 7.625 C-0.03706088 5.08327427 -0.02062011 2.54166681 0 0 Z " fill="#B5BEC4" transform="translate(107,291)"/>
<path d="M0 0 C0.33 0.99 0.66 1.98 1 3 C0.34 3.33 0.34 3.33 -3 5 C-3 6.65 -3 8.3 -3 10 C-2.01 10.33 -1.02 10.66 0 11 C-1.65 11.33 -3.3 11.66 -5 12 C-5.09765625 5.84765625 -5.09765625 5.84765625 -5 4 C-4.67 3.67 -4.34 3.34 -4 3 C-4.45181641 3.01160156 -4.45181641 3.01160156 -6.73828125 3.0703125 C-7.91777344 3.08835938 -9.09726563 3.10640625 -10.3125 3.125 C-10.89837891 3.13660156 -10.89837891 3.13660156 -13.86328125 3.1953125 C-17 3 -17 3 -20 1 C-13.29980211 0.29867087 -6.73742646 -0.11044961 0 0 Z " fill="#544939" transform="translate(210,159)"/>
<path d="M0 0 C9.0719352 -0.09471858 17.98185679 -0.14516104 27 1 C27 1.33 27 1.66 27 2 C26.26362305 2.01981934 25.52724609 2.03963867 24.76855469 2.06005859 C21.42867944 2.15537828 18.08942361 2.26502996 14.75 2.375 C13.59113281 2.4059375 12.43226562 2.436875 11.23828125 2.46875 C10.12324219 2.50742188 9.00820313 2.54609375 7.859375 2.5859375 C6.83295898 2.6173584 5.80654297 2.6487793 4.74902344 2.68115234 C2.03132927 2.99636625 0.33075565 3.61032351 -2 5 C-1.34 3.35 -0.68 1.7 0 0 Z " fill="#93A5B7" transform="translate(33,234)"/>
<path d="M0 0 C0.721875 0.66 1.44375 1.32 2.1875 2 C0.8675 2 -0.4525 2 -1.8125 2 C-2.4725 3.65 -3.1325 5.3 -3.8125 7 C-5.31809539 5.03617993 -6.70381683 3.21736634 -7.8125 1 C-10.1225 1 -12.4325 1 -14.8125 1 C-10.76710667 -3.04539333 -4.53042341 -3.22163442 0 0 Z " fill="#C3CBD0" transform="translate(258.8125,233)"/>
<path d="M0 0 C-7.56379979 5.04253319 -16.34731929 4.10016902 -25 3 C-25 2.67 -25 2.34 -25 2 C-24.37351562 1.93361328 -24.37351562 1.93361328 -21.203125 1.59765625 C-19.55206754 1.41941709 -17.90102673 1.2410236 -16.25 1.0625 C-15.425 0.97548828 -14.6 0.88847656 -13.75 0.79882812 C-12.95078125 0.71181641 -12.1515625 0.62480469 -11.328125 0.53515625 C-10.5949707 0.456604 -9.86181641 0.37805176 -9.10644531 0.29711914 C-7 0 -7 0 -4.91699219 -0.59594727 C-3 -1 -3 -1 0 0 Z " fill="#ACB7C0" transform="translate(286,233)"/>
<path d="M0 0 C6.15222436 0.43173504 9.81917949 1.65405342 15 5 C11.06329512 6.31223496 8.87511856 5.24296256 5 4 C5 6.31 5 8.62 5 11 C0 4.63636364 0 4.63636364 0 0 Z " fill="#636656" transform="translate(134,116)"/>
<path d="M0 0 C5.62622951 0.89508197 5.62622951 0.89508197 7.78125 1.5 C10.76075831 2.17143849 13.70483052 2.34933814 16.75 2.5625 C17.92046875 2.64628906 19.0909375 2.73007813 20.296875 2.81640625 C21.18890625 2.87699219 22.0809375 2.93757812 23 3 C22.67 3.495 22.67 3.495 21 6 C13.39845954 5.67021516 7.02680781 3.87217429 0 1 C0 0.67 0 0.34 0 0 Z " fill="#746453" transform="translate(158,154)"/>
<path d="M0 0 C0.99 0.33 1.98 0.66 3 1 C3.72904086 2.64034193 4.38655243 4.31301918 5 6 C5.97236487 7.6829392 6.96564444 9.35443434 8 11 C2.25 10.125 2.25 10.125 0 9 C0 6.03 0 3.06 0 0 Z " fill="#87908C" transform="translate(159,282)"/>
<path d="M0 0 C0.99 0.33 1.98 0.66 3 1 C2.34 1 1.68 1 1 1 C1 2.98 1 4.96 1 7 C3.97 7.33 6.94 7.66 10 8 C9.67 8.66 9.34 9.32 9 10 C8.34 9.67 7.68 9.34 7 9 C7.2475 9.7425 7.495 10.485 7.75 11.25 C7.8325 12.1575 7.915 13.065 8 14 C6.0625 16.3125 6.0625 16.3125 4 18 C4.66 14.7 5.32 11.4 6 8 C5.175 8.495 5.175 8.495 1 11 C-0.28317892 7.15046324 -0.06643637 4.05261865 0 0 Z " fill="#3B3427" transform="translate(252,100)"/>
<path d="M0 0 C3.5625 0.625 3.5625 0.625 6 3.125 C6.515625 3.95 7.03125 4.775 7.5625 5.625 C6.5725 5.625 5.5825 5.625 4.5625 5.625 C3.9025 4.965 3.2425 4.305 2.5625 3.625 C0.57428687 3.22735737 -1.42694339 2.88724651 -3.4375 2.625 C-3.540625 3.5325 -3.64375 4.44 -3.75 5.375 C-4.44164949 8.64461575 -5.25884921 10.16217737 -7.4375 12.625 C-6.31227314 1.14768603 -6.31227314 1.14768603 0 0 Z " fill="#4C4936" transform="translate(111.4375,132.375)"/>
<path d="M0 0 C5.58575 1.63848667 10.46141764 3.27603499 15 7 C15 7.99 15 8.98 15 10 C14.48050781 9.65066406 13.96101562 9.30132812 13.42578125 8.94140625 C6.49912127 4.42179262 6.49912127 4.42179262 2 4 C1.67 4.66 1.34 5.32 1 6 C0.67 4.02 0.34 2.04 0 0 Z " fill="#6B5C4C" transform="translate(120,125)"/>
<path d="M0 0 C1.32 0.33 2.64 0.66 4 1 C3.67 9.91 3.34 18.82 3 28 C2.67 28 2.34 28 2 28 C1.97494385 27.36497559 1.9498877 26.72995117 1.92407227 26.07568359 C1.80743211 23.17528458 1.68501607 20.27515651 1.5625 17.375 C1.5428418 16.87548828 1.5428418 16.87548828 1.44335938 14.34765625 C1.23427386 9.49043896 0.97041445 4.77867956 0 0 Z " fill="#5F6751" transform="translate(99,285)"/>
<path d="M0 0 C2.74659907 1.6197892 4.30673105 1.70585162 7.4375 1.4375 C7.7675 2.4275 8.0975 3.4175 8.4375 4.4375 C4.05214676 4.05281989 0.88379304 3.62986769 -3.1875 1.875 C-6.63983377 0.40456154 -8.86133447 0.16668301 -12.5625 0.4375 C-12.5625 -0.2225 -12.5625 -0.8825 -12.5625 -1.5625 C-7.9928291 -3.14430916 -4.10025946 -2.50015821 0 0 Z " fill="#474131" transform="translate(225.5625,101.5625)"/>
<path d="M0 0 C-0.33 2.97 -0.66 5.94 -1 9 C-1.33 7.68 -1.66 6.36 -2 5 C-2.66 4.67 -3.32 4.34 -4 4 C-5.65 5.32 -7.3 6.64 -9 8 C-9 6.68 -9 5.36 -9 4 C-4 0 -4 0 0 0 Z " fill="#655F47" transform="translate(197,114)"/>
<path d="M0 0 C0.99 0 1.98 0 3 0 C2.835 0.763125 2.67 1.52625 2.5 2.3125 C2 5 2 5 2 8 C0.35 8.66 -1.3 9.32 -3 10 C-3 8.02 -3 6.04 -3 4 C-2.34 4 -1.68 4 -1 4 C-0.67 2.68 -0.34 1.36 0 0 Z " fill="#A3A69C" transform="translate(98,313)"/>
<path d="M0 0 C2.31 0.33 4.62 0.66 7 1 C6.401875 1.268125 5.80375 1.53625 5.1875 1.8125 C2.12739306 3.47370091 0.37335723 4.81204519 -0.6875 8.1875 C-0.790625 8.785625 -0.89375 9.38375 -1 10 C-1.66 10 -2.32 10 -3 10 C-2.25 3.375 -2.25 3.375 0 0 Z " fill="#807367" transform="translate(167,118)"/>
<path d="M0 0 C0.33 0.99 0.66 1.98 1 3 C-2.42094242 5.28062828 -3.68187222 5.21925007 -7.6875 5.125 C-8.18443359 5.11597656 -8.18443359 5.11597656 -10.69921875 5.0703125 C-11.45847656 5.04710937 -12.21773437 5.02390625 -13 5 C-13 4.67 -13 4.34 -13 4 C-10.03 4 -7.06 4 -4 4 C-4 3.34 -4 2.68 -4 2 C-4.99 1.67 -5.98 1.34 -7 1 C-4.53721199 -0.231394 -2.7204945 -0.07159196 0 0 Z " fill="#878B7C" transform="translate(225,312)"/>
<path d="M0 0 C0.99 0.66 1.98 1.32 3 2 C2.34 2 1.68 2 1 2 C1 3.32 1 4.64 1 6 C1.99 6.33 2.98 6.66 4 7 C4.33 7.99 4.66 8.98 5 10 C2.69 9.34 0.38 8.68 -2 8 C-1.125 1.125 -1.125 1.125 0 0 Z " fill="#867C60" transform="translate(202,283)"/>
<path d="M0 0 C0.33 0 0.66 0 1 0 C1.4375 2.625 1.4375 2.625 1 6 C-1.0949488 8.33122122 -3.46073827 10.17328621 -6 12 C-5.649375 11.21625 -5.29875 10.4325 -4.9375 9.625 C-4.628125 8.75875 -4.31875 7.8925 -4 7 C-4.33 6.34 -4.66 5.68 -5 5 C-4.34 5 -3.68 5 -3 5 C-2.67 4.01 -2.34 3.02 -2 2 C-1.34 1.34 -0.68 0.68 0 0 Z " fill="#81766B" transform="translate(232,41)"/>
<path d="M0 0 C0.33 0.99 0.66 1.98 1 3 C0.01 3.825 0.01 3.825 -5 8 C-5.66 6.35 -6.32 4.7 -7 3 C-6.34 2.34 -5.68 1.68 -5 1 C-5 1.66 -5 2.32 -5 3 C-4.54625 2.505 -4.0925 2.01 -3.625 1.5 C-2 0 -2 0 0 0 Z " fill="#7D7164" transform="translate(226,86)"/>
<path d="M0 0 C-2 2 -2 2 -4.20703125 2.23046875 C-12.92489013 2.08669596 -12.92489013 2.08669596 -17 1 C-17 0.67 -17 0.34 -17 0 C-15.10507254 -0.19644384 -13.20899097 -0.38177288 -11.3125 -0.5625 C-10.78462891 -0.61470703 -10.78462891 -0.61470703 -8.11328125 -0.87890625 C-5.18573914 -0.99277552 -2.82868856 -0.70848415 0 0 Z " fill="#A1AFBC" transform="translate(182,255)"/>
<path d="M0 0 C0.99 0.33 1.98 0.66 3 1 C2.79375 1.763125 2.5875 2.52625 2.375 3.3125 C2 6 2 6 4 9 C3.625 11.1875 3.625 11.1875 3 13 C-0.875 6.375 -0.875 6.375 -2 3 C-1.34 2.01 -0.68 1.02 0 0 Z " fill="#695E4C" transform="translate(228,171)"/>
<path d="M0 0 C1.51553092 3.97450493 0.49888623 7.20481149 -0.4375 11.25 C-0.72496094 12.51328125 -1.01242188 13.7765625 -1.30859375 15.078125 C-1.53675781 16.04234375 -1.76492187 17.0065625 -2 18 C-2.33 18 -2.66 18 -3 18 C-3.37634203 11.19796625 -2.77471079 6.24309927 0 0 Z " fill="#5C4C3C" transform="translate(79,171)"/>
<path d="M0 0 C0.99 0.99 1.98 1.98 3 3 C3.99 2.34 4.98 1.68 6 1 C5.3125 2.9375 5.3125 2.9375 4 5 C1.4375 5.625 1.4375 5.625 -1 6 C-1.33 6.66 -1.66 7.32 -2 8 C-2 7.34 -2 6.68 -2 6 C-2.66 6 -3.32 6 -4 6 C-3.67 5.01 -3.34 4.02 -3 3 C-3 3.66 -3 4.32 -3 5 C-2.34 5 -1.68 5 -1 5 C-0.67 3.35 -0.34 1.7 0 0 Z " fill="#6D6652" transform="translate(131,213)"/>
<path d="M0 0 C3.2826932 1.49076434 5.93077441 3.38620321 8.75 5.625 C9.14960937 5.94082031 9.14960937 5.94082031 11.171875 7.5390625 C11.77515625 8.02117187 12.3784375 8.50328125 13 9 C12.01 9.66 11.02 10.32 10 11 C8.33035479 9.35718838 6.6643536 7.71067239 5 6.0625 C4.071875 5.14597656 3.14375 4.22945312 2.1875 3.28515625 C0 1 0 1 0 0 Z " fill="#827260" transform="translate(114,174)"/>
<path d="M0 0 C1.875 1.4375 1.875 1.4375 2.625 4.5625 C2.66625 5.036875 2.66625 5.036875 2.875 7.4375 C2.215 6.4475 1.555 5.4575 0.875 4.4375 C-1.0703125 3.92578125 -1.0703125 3.92578125 -3.25 3.75 C-4.52875 3.646875 -5.8075 3.54375 -7.125 3.4375 C-4.97394996 0.21092494 -3.9091742 -1.03478141 0 0 Z " fill="#4C4C3B" transform="translate(241.125,33.5625)"/>
<path d="M0 0 C2.31 0.66 4.62 1.32 7 2 C7.33 3.98 7.66 5.96 8 8 C7.79375 7.67 7.79375 7.67 6.75 6 C6.1725 5.34 5.595 4.68 5 4 C3.68 4 2.36 4 1 4 C0.34 4.99 -0.32 5.98 -1 7 C-0.67 4.69 -0.34 2.38 0 0 Z " fill="#564738" transform="translate(88,157)"/>
<path d="M0 0 C1.32 1.65 2.64 3.3 4 5 C3.67 5.66 3.34 6.32 3 7 C-0.96 7 -4.92 7 -9 7 C-9 6.67 -9 6.34 -9 6 C-6.36 5.67 -3.72 5.34 -1 5 C-0.67 3.35 -0.34 1.7 0 0 Z " fill="#60634A" transform="translate(109,315)"/>
<path d="M0 0 C0 0.99 0 1.98 0 3 C-3.96 2.67 -7.92 2.34 -12 2 C-12 1.67 -12 1.34 -12 1 C-7.9472484 0.01751476 -4.16138263 -0.08159574 0 0 Z " fill="#95A6B7" transform="translate(273,234)"/>
<path d="M0 0 C0.66 0.33 1.32 0.66 2 1 C1.175 2.485 1.175 2.485 -3 10 C-4 6 -4 6 -4 3 C-2 1.3125 -2 1.3125 0 0 Z " fill="#776756" transform="translate(219,164)"/>
<path d="M0 0 C4.87864583 0.2168287 7.43399432 1.74864188 11 5 C10.43796875 4.85691406 9.8759375 4.71382813 9.296875 4.56640625 C6.95454547 3.98879098 4.60582341 3.45716693 2.25 2.9375 C1.45078125 2.76089844 0.6515625 2.58429688 -0.171875 2.40234375 C-0.77515625 2.26957031 -1.3784375 2.13679688 -2 2 C-1.34 1.34 -0.68 0.68 0 0 Z " fill="#484E3A" transform="translate(138,117)"/>
<path d="M0 0 C2.97 0 5.94 0 9 0 C9 0.66 9 1.32 9 2 C5.7 2.66 2.4 3.32 -1 4 C-0.67 2.68 -0.34 1.36 0 0 Z " fill="#74685C" transform="translate(236,86)"/>
<path d="M0 0 C2.97 0.33 5.94 0.66 9 1 C8.67 3.31 8.34 5.62 8 8 C7.34 7.67 6.68 7.34 6 7 C6 5.68 6 4.36 6 3 C4.02 2.34 2.04 1.68 0 1 C0 0.67 0 0.34 0 0 Z " fill="#A5B2BE" transform="translate(286,232)"/>
<path d="M0 0 C0 1.65 0 3.3 0 5 C-0.99 5.33 -1.98 5.66 -3 6 C-3.33 5.34 -3.66 4.68 -4 4 C-4.66 4.99 -5.32 5.98 -6 7 C-5.6875 4.625 -5.6875 4.625 -5 2 C-2 0 -2 0 0 0 Z " fill="#484836" transform="translate(235,90)"/>
<path d="M0 0 C2.64 0.66 5.28 1.32 8 2 C8 2.66 8 3.32 8 4 C3.25 3.125 3.25 3.125 1 2 C1 3.98 1 5.96 1 8 C0.67 8 0.34 8 0 8 C0 5.36 0 2.72 0 0 Z " fill="#544538" transform="translate(150,150)"/>
<path d="M0 0 C0.33 0.99 0.66 1.98 1 3 C1.66 3 2.32 3 3 3 C3.33 4.98 3.66 6.96 4 9 C3.01 9 2.02 9 1 9 C0.67 6.03 0.34 3.06 0 0 Z " fill="#383B2C" transform="translate(181,123)"/>
<path d="M0 0 C1.32 0 2.64 0 4 0 C3.67 0.66 3.34 1.32 3 2 C2.34 1.67 1.68 1.34 1 1 C1.2475 1.7425 1.495 2.485 1.75 3.25 C1.8325 4.1575 1.915 5.065 2 6 C0.0625 8.3125 0.0625 8.3125 -2 10 C-1.34 6.7 -0.68 3.4 0 0 Z " fill="#6F5D4A" transform="translate(258,108)"/>
<path d="M0 0 C0.66 0 1.32 0 2 0 C2.33 1.32 2.66 2.64 3 4 C1.02 4.66 -0.96 5.32 -3 6 C-1.125 1.125 -1.125 1.125 0 0 Z " fill="#FAFAFA" transform="translate(236,50)"/>
<path d="M0 0 C0.598125 0.495 1.19625 0.99 1.8125 1.5 C4 3 4 3 7 3 C6.67 4.32 6.34 5.64 6 7 C4.125 6.6875 4.125 6.6875 2 6 C0 3 0 3 0 0 Z " fill="#827D65" transform="translate(76,210)"/>
<path d="M0 0 C2.64 0 5.28 0 8 0 C4.79663178 2.83374881 2.21912747 3.5205537 -2 4 C-1.34 3.67 -0.68 3.34 0 3 C0 2.01 0 1.02 0 0 Z " fill="#3B4230" transform="translate(213,94)"/>
<path d="M0 0 C3 3.75 3 3.75 3 6 C2.34 6 1.68 6 1 6 C0.67 5.34 0.34 4.68 0 4 C-0.99 3.67 -1.98 3.34 -3 3 C-3.33 3.99 -3.66 4.98 -4 6 C-3.67 4.35 -3.34 2.7 -3 1 C-2.01 1.33 -1.02 1.66 0 2 C0 1.34 0 0.68 0 0 Z " fill="#615242" transform="translate(214,186)"/>
<path d="M0 0 C1.65 0.33 3.3 0.66 5 1 C4.67 2.98 4.34 4.96 4 7 C3.67 5.68 3.34 4.36 3 3 C1.68 3 0.36 3 -1 3 C-0.67 2.01 -0.34 1.02 0 0 Z " fill="#63574C" transform="translate(263,74)"/>
<path d="M0 0 C1.98 0 3.96 0 6 0 C5.34 1.65 4.68 3.3 4 5 C2 3.625 2 3.625 0 2 C0 1.34 0 0.68 0 0 Z " fill="#B3BBBD" transform="translate(113,230)"/>
</svg>
