<?xml version="1.0" encoding="UTF-8"?>
<!-- Generator: visioncortex VTracer 0.6.12 -->
<svg version="1.1" xmlns="http://www.w3.org/2000/svg" width="464" height="344">
<path d="M0,0 L464,0 L464,344 L0,344 Z " fill="#F7F7F7" transform="translate(0,0)"/>
<path d="M0,0 L1,0 L1,12 L-2,22 L-8,25 L-2,25 L-1,28 L-1,39 L-4,42 L-8,43 L-2,45 L-1,55 L-3,60 L-19,62 L-27,66 L-35,69 L-38,70 L-38,72 L-21,65 L-18,63 L-5,63 L-2,62 L-1,71 L-4,74 L-8,73 L-8,75 L-5,76 L-10,77 L-25,77 L-27,78 L-23,79 L-20,90 L-19,85 L-20,79 L-2,79 L-4,80 L-4,82 L1,81 L3,83 L3,86 L5,86 L9,92 L12,93 L15,98 L19,103 L21,105 L19,109 L17,109 L15,116 L13,118 L10,118 L10,115 L7,115 L7,117 L9,117 L10,125 L7,129 L4,129 L5,131 L3,133 L4,137 L-1,143 L-2,141 L-4,145 L-3,149 L-8,157 L-13,157 L-12,164 L-20,178 L-23,175 L-27,167 L-30,161 L-30,158 L-33,157 L-39,144 L-39,141 L-42,140 L-48,131 L-49,123 L-51,123 L-51,119 L-53,119 L-55,112 L-58,111 L-61,104 L-56,105 L-56,107 L-50,109 L-50,107 L-57,103 L-56,98 L-45,87 L-46,85 L-41,81 L-35,82 L-35,80 L-41,79 L-40,76 L-40,57 L-38,52 L-42,50 L-39,48 L-36,43 L-34,41 L-39,42 L-38,35 L-40,32 L-40,15 L-37,16 L-38,13 L-35,10 L-10,6 Z " fill="#F5F5F4" transform="translate(255,139)"/>
<path d="M0,0 L3,0 L4,2 L42,2 L55,3 L58,6 L55,6 L60,10 L60,7 L65,9 L66,4 L68,5 L67,7 L73,9 L77,10 L81,13 L79,7 L96,7 L104,11 L115,22 L120,26 L123,32 L122,34 L102,34 L79,31 L57,29 L34,24 L-1,19 L-2,15 L-2,6 Z " fill="#F7F7F7" transform="translate(256,59)"/>
<path d="M0,0 L1,0 L1,12 L-2,22 L-8,25 L-2,25 L-1,28 L-1,39 L-4,42 L-8,43 L-2,45 L-1,55 L-3,60 L-19,62 L-27,66 L-35,69 L-38,70 L-38,72 L-21,65 L-18,63 L-5,63 L-2,62 L-1,71 L-4,74 L-8,73 L-8,75 L-5,76 L-10,77 L-25,77 L-27,79 L-41,79 L-40,76 L-40,57 L-38,52 L-42,50 L-39,48 L-36,43 L-34,41 L-39,42 L-38,35 L-40,32 L-40,15 L-37,16 L-38,13 L-35,10 L-10,6 Z " fill="#F3F3F2" transform="translate(255,139)"/>
<path d="M0,0 L15,0 L21,7 L20,4 L22,4 L23,2 L24,9 L25,10 L25,2 L34,0 L38,1 L58,2 L94,9 L97,14 L95,18 L89,16 L83,13 L77,13 L79,20 L74,18 L68,17 L67,14 L60,13 L60,18 L62,18 L63,16 L64,20 L35,19 L13,20 L4,18 L4,15 L-4,13 L-2,20 L-4,23 L-8,24 L-39,26 L-46,27 L-54,27 L-51,25 L-18,17 L-17,14 L-20,12 L-23,11 L-22,9 L-26,6 L-19,3 Z " fill="#F8F8F9" transform="translate(106,33)"/>
<path d="M0,0 L7,1 L7,3 L10,5 L9,12 L7,14 L-10,17 L-29,20 L-45,23 L-83,25 L-106,26 L-109,24 L-104,19 L-96,10 L-85,5 L-74,4 L-73,7 L-74,9 L-74,11 L-70,10 L-67,10 L-60,4 L-57,3 L-55,13 L-51,8 L-46,3 L-39,1 Z " fill="#F9F9F9" transform="translate(196,61)"/>
<path d="M0,0 L9,1 L16,7 L15,12 L15,21 L17,23 L17,47 L15,53 L3,56 L-6,57 L-13,55 L-15,53 L-16,48 L-16,28 L-15,9 L-11,3 Z " fill="#F1F0F0" transform="translate(232,89)"/>
<path d="M0,0 L23,0 L27,2 L29,8 L36,2 L39,0 L52,1 L69,4 L77,7 L77,9 L71,13 L71,18 L82,21 L100,25 L101,27 L89,26 L56,22 L55,21 L55,13 L56,11 L43,18 L26,19 L18,18 L18,17 L-8,15 L-9,12 L-8,8 L-21,14 L-27,14 L-26,10 L-26,8 L-35,10 L-39,11 L-43,9 L-42,5 L-23,2 Z " fill="#F8F8F9" transform="translate(305,36)"/>
<path d="M0,0 L35,0 L36,5 L40,1 L44,0 L52,0 L80,5 L87,8 L89,10 L80,16 L79,19 L87,20 L115,27 L114,29 L116,31 L131,31 L133,33 L129,35 L101,32 L61,26 L56,25 L55,20 L48,23 L38,23 L20,21 L-5,20 L-8,19 L-9,15 L-21,19 L-25,17 L-27,13 L-35,16 L-38,15 L-39,18 L-40,18 L-42,12 L-43,10 L-41,5 L-31,3 L-16,1 Z M5,2 L-18,4 L-37,7 L-38,11 L-32,13 L-23,10 L-20,11 L-22,13 L-22,16 L-16,16 L-3,10 L-4,16 L-3,17 L23,19 L23,20 L35,21 L48,20 L61,13 L60,15 L60,23 L61,24 L101,29 L106,29 L105,27 L80,21 L76,20 L76,15 L82,11 L81,8 L70,5 L49,2 L42,3 L36,8 L34,10 L31,3 L28,2 Z " fill="#2F4154" transform="translate(300,34)"/>
<path d="M0,0 L7,0 L7,1 L13,3 L14,13 L12,18 L-4,20 L-12,24 L-20,27 L-23,28 L-23,30 L-6,23 L-3,21 L10,21 L13,20 L14,29 L11,32 L7,31 L7,33 L10,34 L5,35 L-10,35 L-12,37 L-26,37 L-25,34 L-25,15 L-20,9 L-15,6 L-11,5 L3,5 L3,3 L0,3 Z " fill="#EBEBEA" transform="translate(240,181)"/>
<path d="M0,0 L1,0 L2,11 L0,19 L-2,18 L-14,21 L-18,22 L-37,24 L-55,27 L-87,29 L-95,30 L-122,30 L-122,27 L-117,19 L-114,18 L-112,14 L-101,6 L-97,4 L-80,3 L-79,6 L-80,9 L-76,8 L-76,6 L-68,2 L-65,2 L-66,7 L-62,6 L-55,2 L-50,1 L-4,1 L0,2 Z M-11,2 L-50,3 L-59,6 L-66,15 L-68,5 L-74,8 L-80,13 L-84,12 L-85,17 L-85,11 L-84,7 L-85,6 L-96,7 L-108,13 L-115,21 L-120,26 L-117,28 L-94,27 L-56,25 L-29,20 L-8,17 L-3,15 L-1,10 L-2,6 L-4,4 L-6,2 Z " fill="#25374A" transform="translate(207,59)"/>
<path d="M0,0 L3,0 L4,2 L42,2 L55,3 L58,6 L53,7 L49,6 L34,5 L5,5 L2,7 L3,14 L4,17 L17,18 L38,21 L49,24 L64,26 L87,28 L101,30 L117,30 L115,25 L105,16 L98,11 L84,11 L86,15 L85,20 L82,18 L84,18 L84,16 L78,14 L75,11 L76,9 L81,13 L79,7 L96,7 L104,11 L115,22 L120,26 L123,32 L122,34 L102,34 L79,31 L57,29 L34,24 L-1,19 L-2,15 L-2,6 Z " fill="#324A63" transform="translate(256,59)"/>
<path d="M0,0 L1,0 L1,12 L-2,22 L-12,24 L-30,27 L-35,30 L-35,32 L-38,31 L-38,13 L-35,10 L-10,6 Z " fill="#EAEAE9" transform="translate(255,139)"/>
<path d="M0,0 L1,0 L1,13 L4,14 L1,15 L1,17 L18,10 L21,8 L34,8 L37,7 L38,16 L35,19 L31,18 L31,20 L34,21 L29,22 L14,22 L12,24 L-2,24 L-1,21 L-1,2 Z " fill="#DDDCDB" transform="translate(216,194)"/>
<path d="M0,0 L10,1 L10,4 L12,3 L18,13 L14,20 L6,19 L-1,17 L1,15 L-13,15 L-11,8 L-8,5 L-7,7 L-6,4 L-4,2 Z " fill="#DDDCDB" transform="translate(230,27)"/>
<path d="M0,0 L5,1 L7,5 L5,7 L-28,15 L-1,13 L15,12 L19,11 L20,7 L18,1 L25,3 L26,11 L21,14 L16,15 L-5,16 L-26,18 L-30,19 L-49,20 L-49,16 L-33,12 L-1,5 Z " fill="#263749" transform="translate(83,44)"/>
<path d="M0,0 L23,0 L27,1 L48,3 L69,8 L76,9 L77,6 L76,17 L75,22 L69,21 L59,18 L57,19 L54,24 L48,22 L45,19 L51,19 L53,19 L52,14 L58,13 L70,19 L71,14 L69,11 L49,7 L33,4 L13,3 L6,2 L0,3 L0,11 L-2,10 L-3,2 Z " fill="#394857" transform="translate(131,32)"/>
<path d="M0,0 L4,0 L5,3 L4,6 L10,5 L5,11 L0,10 L-1,13 L1,14 L-2,15 L-2,8 L-1,4 L-12,5 L-24,11 L-31,19 L-35,23 L-33,24 L-10,23 L12,22 L12,25 L-11,27 L-38,27 L-38,24 L-33,16 L-30,15 L-28,11 L-17,3 L-13,1 Z " fill="#27394D" transform="translate(123,62)"/>
<path d="M0,0 L2,0 L2,10 L42,15 L47,16 L47,17 L42,18 L27,17 L-3,12 L-4,7 L-11,10 L-21,10 L-39,8 L-64,7 L-67,6 L-66,4 L-63,5 L-29,5 L-28,7 L-11,6 Z " fill="#27405A" transform="translate(359,47)"/>
<path d="M0,0 L17,0 L25,4 L36,15 L41,19 L44,25 L43,27 L23,27 L0,24 L2,22 L15,22 L22,23 L38,23 L36,18 L26,9 L19,4 L5,4 L7,8 L6,13 L3,11 L5,11 L5,9 L-1,7 L-4,4 L-3,2 L2,6 Z " fill="#536271" transform="translate(335,66)"/>
<path d="M0,0 L2,0 L3,3 L-3,6 L-4,11 L4,12 L32,19 L31,21 L33,23 L48,23 L50,25 L46,27 L18,24 L18,22 L23,22 L22,20 L-3,14 L-7,12 L-8,7 L-3,3 L0,3 Z " fill="#395068" transform="translate(383,42)"/>
<path d="M0,0 L11,0 L28,3 L42,6 L73,9 L73,10 L67,11 L51,11 L34,8 L13,4 L0,2 Z " fill="#2D4155" transform="translate(270,78)"/>
<path d="M0,0 L9,2 L8,5 L6,6 L6,9 L-40,10 L-48,11 L-56,7 L-55,5 L-47,7 L-18,6 L3,7 L0,6 L-1,1 Z " fill="#263D55" transform="translate(166,45)"/>
<path d="M0,0 L9,1 L13,5 L9,4 L1,4 L-8,6 L-12,8 L-13,16 L-13,54 L-15,53 L-16,48 L-16,28 L-15,9 L-11,3 Z " fill="#5F5B56" transform="translate(232,89)"/>
<path d="M0,0 L9,1 L15,13 L15,21 L8,17 L4,12 L5,9 L3,9 Z " fill="#C7CFD7" transform="translate(375,70)"/>
<path d="M0,0 L5,1 L7,5 L5,7 L-28,15 L-35,16 L-36,15 L-46,17 L-47,15 L-1,5 Z " fill="#273849" transform="translate(83,44)"/>
<path d="M0,0 L6,0 L4,2 L10,2 L11,5 L11,16 L8,19 L4,19 L4,17 L8,16 L8,4 L-3,6 L-3,7 L-21,9 L-20,7 L-21,7 L-24,7 L-20,4 L-12,2 Z " fill="#928F8A" transform="translate(243,162)"/>
<path d="M0,0 L8,0 L15,1 L19,4 L18,7 L20,9 L17,9 L12,3 L-3,3 L-26,7 L-28,8 L-24,12 L-28,13 L-33,8 L-34,6 L-25,3 L-13,1 Z " fill="#2A4664" transform="translate(109,31)"/>
<path d="M0,0 L6,1 L1,8 L0,13 L-9,19 L-9,11 L-5,1 Z " fill="#D2DBE4" transform="translate(82,68)"/>
<path d="M0,0 L5,0 L5,12 L-1,11 L-11,8 L-13,9 L-16,14 L-22,12 L-25,9 L-19,9 L-17,9 L-18,4 L-12,3 L0,9 L1,4 Z " fill="#2E4257" transform="translate(201,42)"/>
<path d="M0,0 L4,2 L1,7 L9,5 L18,1 L20,1 L20,7 L29,8 L27,10 L19,10 L14,8 L14,6 L2,10 L-2,8 L-3,4 L-7,2 Z " fill="#273E57" transform="translate(277,43)"/>
<path d="M0,0 L4,1 L38,1 L39,3 L56,3 L58,5 L56,6 L46,6 L28,4 L3,3 L0,2 Z " fill="#253648" transform="translate(292,51)"/>
<path d="M0,0 L17,0 L18,2 L-1,4 L-19,7 L-36,8 L-36,5 L-13,3 Z " fill="#26384B" transform="translate(171,79)"/>
<path d="M0,0 L4,0 L5,3 L4,6 L10,5 L5,11 L0,10 L-1,13 L1,14 L-2,15 L-2,8 L-1,4 L-17,5 L-17,3 L-13,1 Z " fill="#35485D" transform="translate(123,62)"/>
<path d="M0,0 L13,1 L32,5 L37,9 L28,15 L28,12 L33,9 L33,7 L31,7 L30,10 L29,8 L18,5 L2,2 Z " fill="#29394A" transform="translate(352,35)"/>
<path d="M0,0 L4,0 L7,11 L8,6 L7,0 L25,0 L25,1 L10,3 L11,9 L10,11 L9,20 L7,22 L5,18 L3,3 L0,2 Z " fill="#85817A" transform="translate(228,218)"/>
<path d="M0,0 L11,0 L11,2 L1,4 L1,7 L6,8 L12,8 L13,12 L11,11 L11,9 L3,12 L0,11 L-1,14 L-2,14 L-4,8 L-5,6 L-3,1 Z " fill="#2A3B4E" transform="translate(262,38)"/>
<path d="M0,0 L1,0 L1,13 L4,14 L1,15 L1,17 L10,13 L14,14 L5,18 L2,18 L2,21 L14,21 L12,24 L-2,24 L-1,21 L-1,2 Z " fill="#666461" transform="translate(216,194)"/>
<path d="M0,0 L2,1 L1,6 L1,15 L3,17 L3,41 L1,45 L0,36 L0,21 L-1,17 L-1,4 Z " fill="#6B6863" transform="translate(246,95)"/>
<path d="M0,0 L9,1 L13,5 L9,4 L1,4 L-8,6 L-12,8 L-14,19 L-15,19 L-15,9 L-11,3 Z " fill="#85817A" transform="translate(232,89)"/>
<path d="M0,0 L8,0 L8,3 L-15,4 L-29,4 L-29,2 Z " fill="#46596E" transform="translate(127,84)"/>
<path d="M0,0 L1,2 L2,15 L-5,11 L-9,8 L-8,5 Z " fill="#FAFAFA" transform="translate(245,60)"/>
<path d="M0,0 L7,0 L10,1 L10,3 L6,4 L-5,4 L-9,6 L-13,8 L-16,11 L-15,6 L-10,4 L-10,2 Z " fill="#888682" transform="translate(233,183)"/>
<path d="M0,0 L8,0 L10,6 L9,14 L8,16 L-10,18 L-11,16 L-9,15 L3,14 L6,13 L7,4 L6,2 L0,1 Z " fill="#6D6A67" transform="translate(244,183)"/>
<path d="M0,0 L2,0 L2,12 L-3,12 L-4,7 L-11,8 L-11,6 Z " fill="#324458" transform="translate(359,47)"/>
<path d="M0,0 L5,1 L7,5 L5,7 L-7,10 L-14,9 L-10,7 L-1,5 Z " fill="#3A4D60" transform="translate(83,44)"/>
<path d="M0,0 L1,3 L-1,3 L-1,5 L-13,8 L-28,8 L-28,6 L-7,3 Z " fill="#253A50" transform="translate(206,72)"/>
<path d="M0,0 L2,1 L-2,6 L-6,7 L-12,7 L-18,9 L-17,4 L-11,3 L-2,1 Z " fill="#66635F" transform="translate(250,152)"/>
<path d="M0,0 L2,0 L3,9 L6,10 L8,11 L19,12 L16,13 L15,15 L1,13 L0,9 Z " fill="#253649" transform="translate(254,65)"/>
<path d="M0,0 L17,0 L16,2 L4,2 L3,4 L5,4 L7,8 L6,13 L3,11 L5,11 L5,9 L-1,7 L-4,4 L-3,2 L2,6 Z " fill="#2A4058" transform="translate(335,66)"/>
<path d="M0,0 L5,1 L5,2 L20,2 L22,4 L18,6 L-10,3 L-10,2 Z " fill="#3B4754" transform="translate(411,63)"/>
<path d="M0,0 L3,1 L5,3 L4,5 L-13,6 L-13,2 L-4,1 Z " fill="#5C6E81" transform="translate(47,58)"/>
<path d="M0,0 L11,0 L24,2 L22,4 L13,4 L0,2 Z " fill="#495A6C" transform="translate(270,78)"/>
<path d="M0,0 L1,0 L1,12 L-1,20 L-2,20 L-2,5 L-8,8 L-15,8 L-15,7 L-6,4 Z " fill="#696763" transform="translate(255,139)"/>
<path d="M0,0 L2,1 L3,16 L6,19 L3,23 L3,27 L1,27 L2,20 L0,17 Z " fill="#6F6B66" transform="translate(215,154)"/>
<path d="M0,0 L3,3 L4,22 L2,20 L0,12 L0,8 L-2,7 L0,7 Z " fill="#2D2F32" transform="translate(234,113)"/>
<path d="M0,0 L9,1 L14,11 L13,16 L11,12 L8,5 L1,4 Z " fill="#3E5F83" transform="translate(375,70)"/>
<path d="M0,0 L8,1 L17,3 L13,4 L13,6 L11,7 L3,7 L3,6 L8,6 L7,4 L-2,2 Z " fill="#2D445C" transform="translate(398,58)"/>
<path d="M0,0 L2,0 L2,6 L11,7 L9,9 L1,9 L-3,7 L-4,2 Z " fill="#768799" transform="translate(295,44)"/>
<path d="M0,0 L3,0 L4,3 L4,14 L1,17 L-3,17 L-3,15 L1,14 L1,2 L-7,2 L-7,1 Z " fill="#77726C" transform="translate(250,164)"/>
<path d="M0,0 L9,1 L6,4 L-12,6 L-11,4 L-6,3 L-8,1 Z " fill="#504F4E" transform="translate(234,165)"/>
<path d="M0,0 L23,0 L23,1 L6,2 L0,3 L0,11 L-2,10 L-3,2 Z " fill="#25374A" transform="translate(131,32)"/>
<path d="M0,0 L21,0 L24,2 L19,3 L4,2 Z " fill="#68645D" transform="translate(226,213)"/>
<path d="M0,0 L7,0 L8,3 L-3,7 L-6,11 L-8,10 L-4,5 L-2,3 L-2,1 Z " fill="#716D68" transform="translate(224,176)"/>
<path d="M0,0 L7,1 L3,3 L1,4 L5,8 L1,9 L-4,4 L-5,2 Z " fill="#3C4B5C" transform="translate(80,35)"/>
<path d="M0,0 L2,1 L1,3 L3,4 L1,4 L1,10 L-4,12 L-5,7 L-6,3 L-1,5 Z " fill="#424E5B" transform="translate(322,63)"/>
<path d="M0,0 L7,2 L8,10 L2,11 L1,4 Z " fill="#677A8F" transform="translate(101,45)"/>
<path d="M0,0 L17,0 L18,2 L-4,3 L-4,1 Z " fill="#223141" transform="translate(171,79)"/>
<path d="M0,0 L13,0 L16,3 L11,4 L7,3 L-8,2 L-8,1 Z " fill="#3D4D5E" transform="translate(298,62)"/>
<path d="M0,0 L4,0 L4,3 L-10,4 L-16,5 L-15,2 Z " fill="#243B54" transform="translate(67,58)"/>
<path d="M0,0 L4,0 L5,3 L-15,3 L-13,1 Z " fill="#6E7D8D" transform="translate(373,90)"/>
<path d="M0,0 L9,2 L8,5 L5,5 L5,7 L0,6 L-1,1 Z " fill="#2A3847" transform="translate(166,45)"/>
<path d="M0,0 L18,0 L18,1 L3,3 L4,9 L3,11 L1,11 Z " fill="#5D5B58" transform="translate(235,218)"/>
<path d="M0,0 L4,1 L3,4 L-3,7 L-5,7 L-5,2 Z " fill="#FAFAFA" transform="translate(221,58)"/>
<path d="M0,0 L2,0 L3,10 L0,13 L-3,9 L-1,8 L-2,4 Z " fill="#4F4D4C" transform="translate(225,103)"/>
<path d="M0,0 L5,0 L5,12 L4,10 L0,10 L1,4 Z " fill="#8A929A" transform="translate(201,42)"/>
<path d="M0,0 L7,1 L11,3 L12,0 L13,2 L11,5 L3,4 L-4,2 Z " fill="#6C6862" transform="translate(233,42)"/>
<path d="M0,0 L8,0 L8,2 L10,3 L0,3 L-4,6 L-6,6 L-5,2 Z " fill="#263E58" transform="translate(344,34)"/>
<path d="M0,0 L3,0 L3,2 L6,3 L-2,4 L-12,4 L-12,2 Z " fill="#25394F" transform="translate(96,32)"/>
<path d="M0,0 L8,6 L11,12 L5,11 L4,7 L-1,1 Z " fill="#344454" transform="translate(368,79)"/>
<path d="M0,0 L3,2 L1,2 L-1,8 L-1,14 L1,15 L-4,18 L-4,10 Z " fill="#284768" transform="translate(77,69)"/>
<path d="M0,0 L12,0 L14,2 L12,3 L2,3 L-1,1 Z " fill="#2E3C4B" transform="translate(336,54)"/>
<path d="M0,0 L2,0 L3,3 L-3,6 L-4,12 L-7,12 L-8,7 L-3,3 L0,3 Z " fill="#7C8B9C" transform="translate(383,42)"/>
<path d="M0,0 L2,4 L2,9 L-1,9 L-2,7 L-2,11 L-4,11 L-4,3 L-2,2 L-2,4 L0,4 Z " fill="#676461" transform="translate(224,127)"/>
<path d="M0,0 L6,2 L10,4 L12,3 L13,7 L2,4 L-3,3 Z " fill="#22303F" transform="translate(191,47)"/>
<path d="M0,0 L9,1 L13,5 L-5,2 L-5,1 Z " fill="#595652" transform="translate(232,89)"/>
<path d="M0,0 L7,0 L12,1 L12,2 L7,3 L-8,2 L-8,1 Z " fill="#233549" transform="translate(394,62)"/>
<path d="M0,0 L13,1 L17,3 L11,4 L2,2 Z " fill="#233344" transform="translate(352,35)"/>
<path d="M0,0 L2,1 L-1,4 L-5,4 L-4,11 L-6,13 L-8,5 L-10,2 L0,2 Z " fill="#7C7873" transform="translate(247,292)"/>
<path d="M0,0 L10,3 L10,8 L13,12 L10,12 L7,7 L7,5 L0,1 Z " fill="#89857F" transform="translate(198,241)"/>
<path d="M0,0 L3,2 L3,4 L-3,6 L-9,6 L-4,2 Z " fill="#4C4A47" transform="translate(244,138)"/>
<path d="M0,0 L8,1 L16,3 L16,4 L3,4 L3,2 Z " fill="#FAFAFA" transform="translate(411,62)"/>
<path d="M0,0 L4,0 L3,4 L0,4 L-6,6 L-7,4 Z " fill="#24374B" transform="translate(138,61)"/>
<path d="M0,0 L9,2 L11,3 L11,5 L-2,3 L0,2 Z " fill="#243343" transform="translate(182,36)"/>
<path d="M0,0 L1,0 L0,7 L-2,9 L-5,9 L-4,11 L-6,13 L-9,9 L-9,7 L-2,6 Z " fill="#817D77" transform="translate(264,259)"/>
<path d="M0,0 L2,1 L1,6 L1,15 L2,17 L0,21 L-1,17 L-1,4 Z " fill="#7D7A75" transform="translate(246,95)"/>
<path d="M0,0 L5,1 L3,2 L3,4 L-10,3 L-10,2 Z " fill="#25405C" transform="translate(411,63)"/>
<path d="M0,0 L9,3 L9,6 L2,4 L-1,1 Z " fill="#2C4259" transform="translate(111,50)"/>
<path d="M0,0 L2,1 L2,3 L-2,7 L0,8 L0,10 L-6,10 Z " fill="#2E3E4E" transform="translate(90,78)"/>
<path d="M0,0 L1,0 L0,12 L-2,14 L-3,11 L-1,11 L-3,9 L-2,3 Z " fill="#223345" transform="translate(208,64)"/>
<path d="M0,0 L4,5 L7,11 L6,13 L-1,3 Z " fill="#77736E" transform="translate(208,267)"/>
<path d="M0,0 L2,4 L3,16 L1,18 L0,10 Z " fill="#3B3A39" transform="translate(221,263)"/>
<path d="M0,0 L5,5 L5,15 L3,11 Z " fill="#1F2124" transform="translate(252,232)"/>
<path d="M0,0 L6,1 L6,3 L1,5 L0,3 L-2,3 L-2,1 Z " fill="#415870" transform="translate(185,45)"/>
<path d="M0,0 L5,1 L7,5 L5,7 L2,6 L2,4 Z " fill="#4E657D" transform="translate(83,44)"/>
<path d="M0,0 L5,1 L1,3 L-3,5 L-6,8 L-5,3 Z " fill="#313132" transform="translate(223,186)"/>
<path d="M0,0 L2,0 L1,3 L-5,6 L-12,6 L-12,5 L-3,2 Z " fill="#5A5957" transform="translate(252,141)"/>
<path d="M0,0 L2,2 L2,12 L0,12 L0,8 L-2,7 L0,7 Z " fill="#807C76" transform="translate(234,113)"/>
<path d="M0,0 L2,0 L3,8 L2,13 L0,9 Z " fill="#1D2630" transform="translate(254,65)"/>
<path d="M0,0 L17,0 L16,2 L2,2 L1,4 Z " fill="#243344" transform="translate(335,66)"/>
<path d="M0,0 L1,4 L-3,3 L-6,6 L-10,6 L-10,4 Z " fill="#909CA8" transform="translate(358,49)"/>
<path d="M0,0 L2,0 L3,3 L5,2 L6,5 L3,6 L2,9 L0,8 Z " fill="#253B51" transform="translate(333,36)"/>
<path d="M0,0 L10,1 L8,3 L-4,2 Z " fill="#5D5C5B" transform="translate(230,27)"/>
<path d="M0,0 L2,1 L-3,5 L-8,4 L-8,2 L-2,1 Z " fill="#353536" transform="translate(250,152)"/>
<path d="M0,0 L10,0 L10,3 L0,2 Z " fill="#253647" transform="translate(361,58)"/>
<path d="M0,0 L5,3 L4,6 L6,8 L3,8 L0,4 Z " fill="#384D64" transform="translate(123,32)"/>
<path d="M0,0 L9,1 L9,3 L1,4 Z " fill="#6B7E93" transform="translate(375,70)"/>
<path d="M0,0 L2,0 L3,8 L-1,7 L-2,5 Z " fill="#909CA8" transform="translate(259,39)"/>
<path d="M0,0 L2,0 L7,6 L5,10 L2,4 Z " fill="#BFBBB6" transform="translate(207,247)"/>
<path d="M0,0 L3,1 L3,7 L-1,8 Z " fill="#FAFAFA" transform="translate(239,99)"/>
<path d="M0,0 L11,0 L7,3 L0,2 Z " fill="#4F6378" transform="translate(270,78)"/>
<path d="M0,0 L1,0 L1,9 L-4,5 Z " fill="#607183" transform="translate(207,59)"/>
<path d="M0,0 L1,3 L-1,3 L-1,5 L-7,5 L-7,3 Z " fill="#52667D" transform="translate(206,72)"/>
<path d="M0,0 L2,3 L3,7 L5,9 L1,12 Z " fill="#3C536B" transform="translate(139,63)"/>
<path d="M0,0 L2,3 L-2,5 L-8,5 L-8,3 L-1,2 Z " fill="#222F3D" transform="translate(106,53)"/>
<path d="M0,0 L8,0 L12,3 L3,2 Z " fill="#274462" transform="translate(367,38)"/>
<path d="M0,0 L3,2 L3,5 L1,9 L-1,1 Z " fill="#7D7975" transform="translate(248,278)"/>
<path d="M0,0 L3,0 L4,4 L1,4 L1,2 L-7,2 L-7,1 Z " fill="#474543" transform="translate(250,164)"/>
<path d="M0,0 L7,1 L7,2 L-2,3 L-3,1 Z " fill="#706E6B" transform="translate(228,143)"/>
<path d="M0,0 L4,2 L7,5 L7,7 L3,5 L0,2 Z " fill="#74808C" transform="translate(361,73)"/>
<path d="M0,0 L8,0 L8,2 L0,3 L-3,1 Z " fill="#74828F" transform="translate(281,36)"/>
<path d="M0,0 L7,0 L7,3 L0,2 Z " fill="#263D54" transform="translate(165,34)"/>
<path d="M0,0 L3,0 L3,2 L6,3 L-3,3 L-4,1 Z " fill="#212E3C" transform="translate(96,32)"/>
<path d="M0,0 L7,1 L3,3 L-5,2 L-5,1 Z " fill="#274566" transform="translate(163,81)"/>
<path d="M0,0 L1,4 L0,6 L-3,6 L-3,1 Z " fill="#2C3946" transform="translate(145,65)"/>
<path d="M0,0 L2,2 L0,5 L-8,4 L-4,2 L0,3 Z " fill="#424140" transform="translate(244,42)"/>
<path d="M0,0 L4,0 L4,2 L0,5 L-2,5 L-1,1 Z " fill="#3A4C5F" transform="translate(340,35)"/>
<path d="M0,0 L4,1 L3,4 L-1,4 Z " fill="#406286" transform="translate(123,71)"/>
<path d="M0,0 L3,0 L4,2 L7,3 L4,5 L0,4 Z " fill="#1D262F" transform="translate(256,59)"/>
<path d="M0,0 L4,0 L4,3 L-3,3 Z " fill="#4C5D6E" transform="translate(67,58)"/>
<path d="M0,0 L8,1 L5,3 L-1,2 Z " fill="#222F3D" transform="translate(379,53)"/>
<path d="M0,0 L7,1 L6,3 L2,3 L0,5 L-1,1 Z " fill="#4E6C8C" transform="translate(166,45)"/>
<path d="M0,0 L2,0 L4,5 L6,8 L3,8 L0,3 Z " fill="#252729" transform="translate(205,245)"/>
<path d="M0,0 L5,1 L3,2 L5,8 L2,5 Z " fill="#827E78" transform="translate(194,243)"/>
<path d="M0,0 L4,4 L5,7 L0,5 Z " fill="#FAFAFA" transform="translate(221,132)"/>
<path d="M0,0 L6,5 L3,7 L-1,2 Z " fill="#506C8B" transform="translate(380,80)"/>
<path d="M0,0 L7,0 L7,2 L0,3 L-3,1 Z " fill="#697786" transform="translate(266,38)"/>
<path d="M0,0 L2,0 L4,4 L6,5 L5,8 L2,5 Z " fill="#6A6763" transform="translate(230,309)"/>
<path d="M0,0 L4,2 L2,3 L-6,3 L-6,2 Z " fill="#B5C5D7" transform="translate(407,62)"/>
<path d="M0,0 L3,1 L5,3 L4,4 L-1,4 Z " fill="#99B0C9" transform="translate(47,58)"/>
<path d="M0,0 L6,0 L7,4 L1,2 Z " fill="#24374B" transform="translate(176,51)"/>
<path d="M0,0 L3,1 L-2,5 L-5,4 Z " fill="#6A6865" transform="translate(214,220)"/>
<path d="M0,0 L6,0 L4,4 Z " fill="#827D77" transform="translate(222,112)"/>
<path d="M0,0 L4,1 L5,4 L-1,3 Z " fill="#233446" transform="translate(374,87)"/>
<path d="M0,0 L3,1 L3,4 L-1,4 Z " fill="#404B57" transform="translate(257,74)"/>
<path d="M0,0 L7,0 L4,1 L4,3 L-1,2 Z " fill="#243445" transform="translate(379,60)"/>
<path d="M0,0 L6,1 L2,3 L-2,1 Z " fill="#73889E" transform="translate(53,56)"/>
<path d="M0,0 L2,2 L2,7 L0,7 L-2,2 L0,2 Z " fill="#CDD3D9" transform="translate(128,35)"/>
<path d="M0,0 L3,3 L3,6 L1,6 L-1,1 Z " fill="#878582" transform="translate(208,267)"/>
<path d="M0,0 L2,2 L2,5 L-2,4 Z " fill="#FAFAFA" transform="translate(237,252)"/>
<path d="M0,0 L3,0 L3,3 L-2,3 L-2,1 Z " fill="#485F77" transform="translate(108,64)"/>
<path d="M0,0 L5,1 L5,3 L-2,2 Z " fill="#284667" transform="translate(188,38)"/>
<path d="M0,0 L3,3 L1,7 Z " fill="#817B74" transform="translate(231,257)"/>
<path d="M0,0 L4,1 L1,3 L-4,3 Z " fill="#BEB9B0" transform="translate(217,187)"/>
<path d="M0,0 L5,1 L1,3 L-2,3 L-2,1 Z " fill="#3C3E41" transform="translate(223,186)"/>
<path d="M0,0 L4,2 L-2,4 Z " fill="#263C53" transform="translate(104,66)"/>
<path d="M0,0 L2,0 L3,3 L-4,2 Z " fill="#243344" transform="translate(58,54)"/>
<path d="M0,0 L4,1 L2,5 L0,2 Z " fill="#FAFAFA" transform="translate(274,45)"/>
<path d="M0,0 L1,2 L-2,6 L-2,2 Z " fill="#2B2D30" transform="translate(241,246)"/>
<path d="M0,0 L3,2 L3,4 L-1,4 Z " fill="#858380" transform="translate(244,138)"/>
<path d="M0,0 L5,4 L2,4 L-1,1 Z " fill="#273C52" transform="translate(368,79)"/>
<path d="M0,0 L2,1 L1,3 L3,4 L1,4 L0,6 L-1,2 Z " fill="#263F5B" transform="translate(322,63)"/>
<path d="M0,0 L2,3 L-2,4 L-2,1 Z " fill="#22303E" transform="translate(85,47)"/>
<path d="M0,0 L3,1 L2,3 L-3,3 Z " fill="#243649" transform="translate(191,47)"/>
<path d="M0,0 L5,1 L1,3 Z " fill="#617488" transform="translate(80,41)"/>
<path d="M0,0 L4,3 L0,4 Z " fill="#25394E" transform="translate(78,38)"/>
<path d="M0,0 L2,3 L2,5 L-3,4 L0,3 Z " fill="#2D2F32" transform="translate(239,254)"/>
<path d="M0,0 L4,2 L2,4 L-1,1 Z " fill="#82807E" transform="translate(254,220)"/>
<path d="M0,0 L1,0 L1,5 L-2,5 L-2,3 L0,3 Z " fill="#2A2A2B" transform="translate(225,131)"/>
<path d="M0,0 L3,0 L3,2 L-1,3 L-2,1 Z " fill="#202C38" transform="translate(133,64)"/>
<path d="M0,0 L3,1 L3,4 L-1,2 Z " fill="#3C4F64" transform="translate(276,49)"/>
<path d="M0,0 L2,0 L3,3 L-1,4 Z " fill="#E3E3E3" transform="translate(186,46)"/>
<path d="M0,0 L4,2 L2,5 Z " fill="#303234" transform="translate(256,267)"/>
<path d="M0,0 L3,0 L2,4 Z " fill="#FAFAFA" transform="translate(222,103)"/>
<path d="M0,0 L2,0 L2,5 L-1,1 Z " fill="#FAFAFA" transform="translate(236,101)"/>
<path d="M0,0 L2,3 L-2,5 Z " fill="#405E7E" transform="translate(80,78)"/>
<path d="M0,0 L2,0 L2,4 L-1,3 Z " fill="#576F8A" transform="translate(321,69)"/>
<path d="M0,0 L2,4 L-2,3 L-1,1 Z " fill="#3A4754" transform="translate(202,50)"/>
<path d="M0,0 L2,0 L1,4 L-1,1 Z M-1,3 Z " fill="#56677A" transform="translate(376,48)"/>
<path d="M0,0 L3,0 L2,3 L-1,2 Z " fill="#3F566F" transform="translate(173,35)"/>
<path d="M0,0 L3,3 L0,3 Z " fill="#233140" transform="translate(359,70)"/>
<path d="M0,0 L3,1 L-1,3 Z " fill="#FAFAFA" transform="translate(123,71)"/>
<path d="M0,0 L3,2 L-1,3 Z " fill="#FAFAFA" transform="translate(36,60)"/>
<path d="M0,0 L3,0 L3,3 L0,2 Z " fill="#A9B6C4" transform="translate(107,48)"/>
<path d="M0,0 L2,2 L1,5 L-1,2 Z " fill="#1D252E" transform="translate(258,42)"/>
<path d="M0,0 L3,0 L2,3 L0,3 Z " fill="#5D7692" transform="translate(338,37)"/>
<path d="M0,0 L2,1 L2,3 L-1,3 Z " fill="#25394F" transform="translate(90,78)"/>
<path d="M0,0 L3,1 L1,3 L-1,1 Z " fill="#273E56" transform="translate(379,53)"/>
<path d="M0,0 L2,1 L2,3 L-1,2 Z " fill="#919FAE" transform="translate(260,74)"/>
</svg>
