<?xml version="1.0" encoding="UTF-8"?>
<!-- Generator: visioncortex VTracer 0.6.12 -->
<svg version="1.1" xmlns="http://www.w3.org/2000/svg" width="220" height="344">
<path d="M0 0 C72.6 0 145.2 0 220 0 C220 113.52 220 227.04 220 344 C147.4 344 74.8 344 0 344 C0 230.48 0 116.96 0 0 Z " fill="#F3F3F3" transform="translate(0,0)"/>
<path d="M0 0 C0.165 0.33 0.165 0.33 1 2 C0.5989 2.004673 0.5989 2.004673 -1.430908 2.02832 C-5.058736 2.081937 -8.685263 2.165603 -12.3125 2.25 C-13.575137 2.26418 -14.837773 2.278359 -16.138672 2.292969 C-16.74292 2.309082 -16.74292 2.309082 -19.800781 2.390625 C-20.358502 2.401099 -20.358502 2.401099 -23.180908 2.454102 C-26 3 -26 3 -27.887451 5.038086 C-28.071022 5.361802 -28.071022 5.361802 -29 7 C-24.763965 6.881847 -20.528167 6.757606 -16.29248 6.627686 C-14.851124 6.584338 -13.409716 6.542662 -11.968262 6.502686 C-9.897955 6.444979 -7.827906 6.381286 -5.757812 6.316406 C-4.51145 6.279749 -3.265088 6.243091 -1.980957 6.205322 C1 6 1 6 3 5 C3.33 4.34 3.66 3.68 4 3 C4.149531 3.868828 4.299062 4.737656 4.453125 5.632812 C6.562711 14.877761 6.562711 14.877761 10.726562 18.128906 C15.668001 20.575102 20.766693 22.289411 26 24 C26 24.33 26 24.66 26 25 C18.41 25 10.82 25 3 25 C3.165 26.32 3.165 26.32 4 33 C13.24 32.67 22.48 32.34 32 32 C31.835 31.34 31.835 31.34 31 28 C41.782951 33.302255 49.052586 40.210868 55.374756 50.3396 C57.480129 53.550238 58.531463 54.870806 62.300781 55.910156 C62.746152 55.92498 62.746152 55.92498 65 56 C65.034966 55.69558 65.034966 55.69558 65.211914 54.155029 C68.595261 25.404739 68.595261 25.404739 78 16 C78 15.67 78 15.34 78 15 C87.365818 13.939719 94.003505 18.767132 101.4375 24 C104.780825 26.667767 107.272949 28.996381 109 33 C108.885241 39.732513 105.455501 45.421081 102 51 C101.34 50.67 100.68 50.34 100 50 C99.886562 50.495 99.886562 50.495 99.3125 53 C98.46728 56.028197 97.265798 58.280996 95.5 60.875 C92.851917 65.043131 90.444423 68.918107 91 74 C92.855498 77.055614 94.905417 79.651346 97.277344 82.324219 C99 85 99 85 98.753906 88.332031 C98.505117 89.212461 98.256328 90.092891 98 91 C96.770234 91.037383 95.540469 91.074766 94.273438 91.113281 C92.640596 91.17897 91.007785 91.245417 89.375 91.3125 C88.566758 91.335059 87.758516 91.357617 86.925781 91.380859 C76.437142 91.849864 71.616414 97.072917 64.742188 104.375 C58.297329 111.059543 51.761339 115.027403 43 118 C42.67 117.34 42.34 116.68 42 116 C29.79 116 17.58 116 5 116 C5.33 116.66 5.66 117.32 6 118 C5.832198 120.695652 5.388444 123.324056 5 126 C4.67 126 4.34 126 4 126 C3.960039 125.385117 3.920078 124.770234 3.878906 124.136719 C3.53899 121.505516 3.114571 119.414187 2 117 C-0.806238 115.245363 -3.789639 114.693852 -7 114 C-13.975775 111.940224 -20.220823 108.408747 -26 104 C-26 103.34 -26 102.68 -26 102 C-25.438457 101.994846 -25.438457 101.994846 -22.59671 101.968765 C-12.031086 101.87116 -1.465522 101.768438 9.100004 101.660661 C14.532306 101.605412 19.964613 101.551989 25.396973 101.502686 C30.635986 101.45507 35.874932 101.402729 41.113865 101.347059 C43.116195 101.326623 45.118544 101.307912 47.120907 101.290926 C49.917749 101.266911 52.714464 101.236852 55.51123 101.205322 C56.345606 101.199567 57.179982 101.193811 58.039642 101.187881 C63.771896 101.114052 63.771896 101.114052 66 100 C66 99.34 66 98.68 66 98 C66.99 97.67 67.98 97.34 69 97 C69.165 96.34 69.165 96.34 70 93 C36.01 93 2.02 93 -33 93 C-32.67 93.99 -32.34 94.98 -32 96 C-35 96 -35 96 -36.570312 94.539062 C-36.826836 94.223242 -36.826836 94.223242 -38.125 92.625 C-38.643203 91.998516 -39.161406 91.372031 -39.695312 90.726562 C-41 89 -41 89 -42 87 C-42.474375 86.38125 -42.94875 85.7625 -43.4375 85.125 C-46.126067 81.468549 -47 79.644814 -47 75 C-24.725 74.835 -24.725 74.835 88 74 C88 73.01 88 72.02 88 71 C87.34 70.67 86.68 70.34 86 70 C86.99 68.02 87.98 66.04 89 64 C43.79 64 -1.42 64 -48 64 C-48.66 65.32 -49.32 66.64 -50 68 C-50.914122 55.329248 -47.339623 44.315146 -40 34 C-39.444414 33.407031 -38.888828 32.814063 -38.316406 32.203125 C-33.485822 26.967096 -33.318962 22.122152 -33.401123 15.253662 C-33.394105 9.680661 -32.282082 6.560308 -29 2 C-19.56693 -5.835777 -10.549216 -4.795098 0 0 Z " fill="#F6F3D5" transform="translate(83,33)"/>
<path d="M0 0 C1.016738 0.000922 2.033475 0.001844 3.081023 0.002793 C4.243551 0.001419 5.406079 0.000044 6.603835 -0.001372 C7.247238 0.000425 7.247238 0.000425 10.503249 0.009522 C11.862985 0.009804 13.222722 0.009647 14.582458 0.00908 C18.284773 0.008792 21.987056 0.014689 25.689364 0.021654 C29.554443 0.027887 33.419523 0.028491 37.284606 0.029679 C44.608602 0.032793 51.932583 0.041006 59.256572 0.051029 C67.59259 0.06219 75.928608 0.0677 84.26463 0.072724 C101.417014 0.083189 118.569383 0.100788 135.721755 0.123048 C134.731755 2.433048 133.741755 4.743048 132.721755 7.123048 C133.381755 7.123048 134.041755 7.123048 134.721755 7.123048 C134.391755 8.773048 134.061755 10.423048 133.721755 12.123048 C88.841755 12.123048 43.961755 12.123048 -2.278245 12.123048 C-3.57274 8.239563 -3.410278 5.216074 -3.278245 1.123048 C-2.278245 0.123048 -2.278245 0.123048 0 0 Z " fill="#F8F6DB" transform="translate(37.278244972229004,95.87695217132568)"/>
<path d="M0 0 C0.33 0.33 0.33 0.33 2 2 C1.625 5.125 1.625 5.125 1 8 C-0.229766 8.037383 -1.459531 8.074766 -2.726562 8.113281 C-4.359404 8.17897 -5.992215 8.245417 -7.625 8.3125 C-8.433242 8.335059 -9.241484 8.357617 -10.074219 8.380859 C-20.562858 8.849864 -25.383586 14.072917 -32.257812 21.375 C-38.702671 28.059543 -45.238661 32.027403 -54 35 C-54.33 34.34 -54.66 33.68 -55 33 C-67.21 33 -79.42 33 -92 33 C-91.67 33.66 -91.34 34.32 -91 35 C-91.167802 37.695652 -91.611556 40.324056 -92 43 C-92.33 43 -92.66 43 -93 43 C-93.01998 42.692559 -93.01998 42.692559 -93.121094 41.136719 C-93.46101 38.505516 -93.885429 36.414187 -95 34 C-97.806238 32.245363 -100.789639 31.693852 -104 31 C-110.975775 28.940224 -117.220823 25.408747 -123 21 C-123 20.34 -123 19.68 -123 19 C-121.876914 18.989693 -120.753829 18.979385 -119.59671 18.968765 C-109.031086 18.87116 -98.465522 18.768438 -87.899996 18.660661 C-82.467694 18.605412 -77.035387 18.551989 -71.603027 18.502686 C-66.364014 18.45507 -61.125068 18.402729 -55.886135 18.347059 C-53.883805 18.326623 -51.881456 18.307912 -49.879093 18.290926 C-47.082251 18.266911 -44.285536 18.236852 -41.48877 18.205322 C-40.654394 18.199567 -39.820018 18.193811 -38.960358 18.187881 C-33.228104 18.114052 -33.228104 18.114052 -31 17 C-31 16.34 -31 15.68 -31 15 C-30.01 14.67 -29.02 14.34 -28 14 C-27.67 12.68 -27.34 11.36 -27 10 C-60.99 10 -94.98 10 -130 10 C-129.67 10.99 -129.34 11.98 -129 13 C-129.99 13 -130.98 13 -132 13 C-132.66 11.68 -133.32 10.36 -134 9 C-133 8 -133 8 -131.143424 7.876952 C-130.734609 7.877413 -130.734609 7.877413 -128.665756 7.879745 C-128.198083 7.879058 -128.198083 7.879058 -125.831375 7.87558 C-124.797038 7.879175 -123.762702 7.88277 -122.697021 7.886475 C-121.614229 7.886329 -120.531437 7.886183 -119.415833 7.886032 C-115.817566 7.886732 -112.219351 7.894527 -108.621094 7.902344 C-106.133876 7.904208 -103.646658 7.905632 -101.159439 7.906631 C-95.269788 7.910067 -89.380156 7.917957 -83.490513 7.927981 C-76.129746 7.940238 -68.768977 7.945622 -61.408203 7.951172 C-48.272126 7.961912 -35.136064 7.978799 -22 8 C-22 7.34 -22 6.68 -22 6 C-20.807617 5.962617 -19.615234 5.925234 -18.386719 5.886719 C-16.820281 5.82106 -15.253876 5.754612 -13.6875 5.6875 C-12.901816 5.664941 -12.116133 5.642383 -11.306641 5.619141 C-10.549316 5.583691 -9.791992 5.548242 -9.011719 5.511719 C-8.315222 5.485535 -7.618726 5.459351 -6.901123 5.432373 C-4.502505 4.886854 -3.652146 3.764852 -2 2 C-1.34 2 -0.68 2 0 2 C0 1.34 0 0.68 0 0 Z " fill="#F6F4DF" transform="translate(180,116)"/>
<path d="M0 0 C35.31 0 70.62 0 107 0 C106.01 0.33 105.02 0.66 104 1 C103.67 2.65 103.34 4.3 103 6 C102.01 6 101.02 6 100 6 C99.67 7.32 99.34 8.64 99 10 C87.108747 10.246655 75.217334 10.465891 63.324942 10.650212 C57.802699 10.736662 52.280955 10.832521 46.759277 10.949951 C41.429723 11.062948 36.100281 11.15114 30.770008 11.222204 C28.737315 11.253652 26.70474 11.294011 24.672405 11.343454 C21.823558 11.411235 18.975937 11.447204 16.126465 11.47583 C15.287769 11.503157 14.449072 11.530484 13.584961 11.55864 C9.562183 11.566562 6.780941 11.282431 3.492096 8.845261 C1 6 1 6 0 0 Z " fill="#F8F5DC" transform="translate(49,125)"/>
<path d="M0 0 C2.75 1.25 2.75 1.25 3.75 2.25 C9.471204 2.675648 15.094293 2.072648 20.75 1.25 C20.935625 1.889375 21.12125 2.52875 21.3125 3.1875 C22.75 5.25 22.75 5.25 26.375 6 C27.48875 6.0825 28.6025 6.165 29.75 6.25 C30.08 4.93 30.41 3.61 30.75 2.25 C33.39 1.92 36.03 1.59 38.75 1.25 C39.08 2.24 39.08 2.24 40.75 7.25 C40.09 7.91 39.43 8.57 38.75 9.25 C38.75 9.58 38.75 9.91 38.75 10.25 C36.11 10.25 33.47 10.25 30.75 10.25 C30.75 13.55 30.75 16.85 30.75 20.25 C36.5 19.375 36.5 19.375 38.75 18.25 C39.08 17.59 39.41 16.93 39.75 16.25 C39.75 20.25 39.75 20.25 37.75 23.25 C36.76 23.25 35.77 23.25 34.75 23.25 C34.75 22.59 34.75 21.93 34.75 21.25 C34.09 21.25 33.43 21.25 32.75 21.25 C32.42 21.91 32.09 22.57 31.75 23.25 C31.75 22.59 31.75 21.93 31.75 21.25 C28.45 21.25 25.15 21.25 21.75 21.25 C21.75 21.91 21.75 22.57 21.75 23.25 C17 22.375 17 22.375 14.75 21.25 C14.42 21.91 14.09 22.57 13.75 23.25 C9.972447 18.528058 10.44903 13.990719 10.75 8.25 C8.77 7.92 6.79 7.59 4.75 7.25 C4.79125 8.301875 4.8325 9.35375 4.875 10.4375 C4.758521 13.990102 4.277919 16.098666 2.75 19.25 C2.42 18.59 2.09 17.93 1.75 17.25 C1.09 16.92 0.43 16.59 -0.25 16.25 C0.41 16.25 1.07 16.25 1.75 16.25 C1.75 15.59 1.75 14.93 1.75 14.25 C-0.89 14.25 -3.53 14.25 -6.25 14.25 C-6.58 16.23 -6.91 18.21 -7.25 20.25 C-7.58 20.25 -7.91 20.25 -8.25 20.25 C-9.102984 16.576125 -9.357895 13.205261 -9.3125 9.4375 C-9.303477 8.46168 -9.294453 7.485859 -9.285156 6.480469 C-9.273555 5.744414 -9.261953 5.008359 -9.25 4.25 C-11.56 4.25 -13.87 4.25 -16.25 4.25 C-15.92 4.91 -15.59 5.57 -15.25 6.25 C-14.810754 11.929548 -15.012777 16.936594 -17.25 22.25 C-19.89 22.25 -22.53 22.25 -25.25 22.25 C-28.07456 15.718205 -28.251365 8.070651 -26.25 1.25 C-23.61 0.92 -20.97 0.59 -18.25 0.25 C-17.92 0.91 -17.59 1.57 -17.25 2.25 C-9.047938 2.732474 -9.047938 2.732474 -5.5625 0.625 C-3.25 -0.75 -3.25 -0.75 0 0 Z " fill="#C4C1A6" transform="translate(101.25,168.75)"/>
<path d="M0 0 C0.165 0.33 0.165 0.33 1 2 C0.5989 2.004673 0.5989 2.004673 -1.430908 2.02832 C-5.058736 2.081937 -8.685263 2.165603 -12.3125 2.25 C-13.575137 2.26418 -14.837773 2.278359 -16.138672 2.292969 C-16.74292 2.309082 -16.74292 2.309082 -19.800781 2.390625 C-20.358502 2.401099 -20.358502 2.401099 -23.180908 2.454102 C-26 3 -26 3 -27.887451 5.038086 C-28.254592 5.685518 -28.621733 6.332949 -29 7 C-24.763965 6.881847 -20.528167 6.757606 -16.29248 6.627686 C-14.851124 6.584338 -13.409716 6.542662 -11.968262 6.502686 C-9.897955 6.444979 -7.827906 6.381286 -5.757812 6.316406 C-4.51145 6.279749 -3.265088 6.243091 -1.980957 6.205322 C1 6 1 6 3 5 C3.33 4.34 3.66 3.68 4 3 C4.149531 3.868828 4.299062 4.737656 4.453125 5.632812 C6.562711 14.877761 6.562711 14.877761 10.726562 18.128906 C15.668001 20.575102 20.766693 22.289411 26 24 C26 24.33 26 24.66 26 25 C18.41 25 10.82 25 3 25 C3 26.98 3 28.96 3 31 C2.67 31 2.34 31 2 31 C1.841445 30.229141 1.682891 29.458281 1.519531 28.664062 C1.402871 28.162617 1.402871 28.162617 0.8125 25.625 C0.59207 24.627266 0.371641 23.629531 0.144531 22.601562 C-1 20 -1 20 -3.375 18.65625 C-6.644036 17.838991 -9.644504 17.868412 -13 18 C-13 20.31 -13 22.62 -13 25 C-14.32 24.67 -15.64 24.34 -17 24 C-17 23.34 -17 22.68 -17 22 C-16.34 22 -15.68 22 -15 22 C-15.185625 21.38125 -15.37125 20.7625 -15.5625 20.125 C-16 18 -16 18 -15 16 C-20.28 16 -25.56 16 -31 16 C-31.33 19.3 -31.66 22.6 -32 26 C-32.33 26 -32.66 26 -33 26 C-33.108875 23.311391 -33.187706 20.627268 -33.25 17.9375 C-33.283516 17.185332 -33.317031 16.433164 -33.351562 15.658203 C-33.451051 9.912737 -32.405542 6.669633 -29 2 C-19.56693 -5.835777 -10.549216 -4.795098 0 0 Z " fill="#DAD6B5" transform="translate(83,33)"/>
<path d="M0 0 C0.33 0.33 0.33 0.33 2 2 C4.317657 2.719273 6.650959 3.390989 9 4 C9.33 2.68 9.66 1.36 10 0 C19.24 0 28.48 0 38 0 C37.34 1.65 36.68 3.3 36 5 C35.34 5 34.68 5 34 5 C34 5.66 34 6.32 34 7 C-11.87 7 -57.74 7 -105 7 C-104.67 5.35 -104.34 3.7 -104 2 C-102.711829 1.989693 -101.423658 1.979385 -100.096451 1.968765 C-87.985325 1.871214 -75.874253 1.768498 -63.763215 1.660661 C-57.536091 1.605382 -51.308962 1.551954 -45.081787 1.502686 C-39.07769 1.455115 -33.073651 1.402775 -27.069624 1.347059 C-24.773401 1.326602 -22.477162 1.307895 -20.18091 1.290926 C-16.976748 1.266955 -13.772699 1.236891 -10.568604 1.205322 C-9.609073 1.199567 -8.649542 1.193811 -7.660934 1.187881 C-7.226918 1.182987 -7.226918 1.182987 -5.030533 1.158218 C-4.271897 1.151766 -3.513262 1.145313 -2.731637 1.138665 C-1 1 -1 1 0 0 Z " fill="#F9F7E3" transform="translate(140,88)"/>
<path d="M0 0 C0.33 1.32 0.66 2.64 1 4 C8.92 4 16.84 4 25 4 C25.33 3.34 25.66 2.68 26 2 C26.99 2.99 27.98 3.98 29 5 C26.175496 6.412252 23.826521 6.073729 20.671875 6.035156 C18.710773 6.044079 16.74967 6.053041 14.788574 6.063232 C13.436624 6.062747 12.084617 6.049856 10.73291 6.02417 C8.775345 5.990865 6.817092 6.012484 4.859375 6.035156 C4.273979 6.031974 4.273979 6.031974 1.311523 6.015869 C-2 7 -2 7 -8 15 C20.71 15 49.42 15 79 15 C79 15.33 79 15.66 79 16 C49.63 16 20.26 16 -10 16 C-8.262304 11.655759 -6.626911 8.87151 -3.875 5.1875 C-3.150547 4.21168 -2.426094 3.235859 -1.679688 2.230469 C-1.402539 1.862441 -1.402539 1.862441 0 0 Z M65 2 C71.467516 5.248729 76.742695 9.029197 82 14 C79.258026 14.913991 77.753007 15.112455 74.943359 15.069336 C74.132418 15.058923 73.321477 15.04851 72.485962 15.037781 C71.614032 15.020157 70.742102 15.002533 69.84375 14.984375 C69.394411 14.976127 69.394411 14.976127 67.120483 14.934387 C65.220723 14.896903 63.321022 14.856359 61.421387 14.812988 C58.511462 14.750247 55.60171 14.70882 52.691406 14.667969 C50.846326 14.62892 49.001272 14.588599 47.15625 14.546875 C46.28432 14.537348 45.41239 14.527821 44.514038 14.518005 C43.703097 14.494984 42.892156 14.471962 42.056641 14.448242 C41.34399 14.434123 40.63134 14.420004 39.897095 14.405457 C37.454986 13.883517 36.647144 12.834406 35 11 C34.01 10.34 33.02 9.68 32 9 C33.65 9 35.3 9 37 9 C37.33 7.68 37.66 6.36 38 5 C38 5.66 38 6.32 38 7 C47.24 6.67 56.48 6.34 66 6 C65.835 5.34 65.835 5.34 65 2 Z " fill="#F6F2BE" transform="translate(49,59)"/>
<path d="M0 0 C17.776161 -0.1168 35.552223 -0.204972 53.328685 -0.259061 C61.582616 -0.284843 69.836309 -0.319993 78.090088 -0.377197 C85.284074 -0.427033 92.477888 -0.459291 99.672043 -0.470442 C103.481415 -0.476961 107.290294 -0.492281 111.099508 -0.52865 C114.685677 -0.562612 118.271149 -0.573053 121.857464 -0.565538 C123.799633 -0.567568 125.741727 -0.594462 127.683701 -0.622101 C137.178032 -0.565825 137.178032 -0.565825 140.321487 2.535477 C140.875397 3.348769 141.429306 4.162062 142 5 C141.455349 4.837758 140.910698 4.675516 140.349543 4.508357 C137.641108 3.922349 135.179566 3.870984 132.407318 3.866287 C131.838059 3.864155 131.838059 3.864155 128.95726 3.853363 C127.712434 3.853816 126.467607 3.854269 125.185059 3.854736 C124.528007 3.853057 124.528007 3.853057 121.202927 3.844559 C117.6019 3.835731 114.000897 3.833381 110.39986 3.832743 C107.395083 3.831793 104.390312 3.828114 101.385538 3.824571 C94.300317 3.816432 87.215108 3.813986 80.129883 3.814697 C72.813489 3.815299 65.497168 3.804727 58.180793 3.788954 C51.902173 3.775898 45.623578 3.770512 39.344945 3.771153 C35.593486 3.771408 31.842093 3.768532 28.090649 3.757975 C23.912432 3.746537 19.734381 3.751028 15.556152 3.75708 C14.307277 3.751461 13.058402 3.745841 11.771683 3.740051 C10.638803 3.744246 9.505924 3.74844 8.338715 3.752762 C7.350217 3.752217 6.361719 3.751672 5.343267 3.751111 C3 4 3 4 1 6 C0.67 4.02 0.34 2.04 0 0 Z " fill="#F4F0C6" transform="translate(36,108)"/>
<path d="M0 0 C22.11 0 44.22 0 67 0 C65.68 0.33 64.36 0.66 63 1 C62.67 2.32 62.34 3.64 62 5 C61.01 5 60.02 5 59 5 C59 5.66 59 6.32 59 7 C58.34 7.33 58.34 7.33 55 9 C54.835 8.67 54.835 8.67 54 7 C41.79 7 29.58 7 17 7 C17.33 7.66 17.66 8.32 18 9 C17.832198 11.695652 17.388444 14.324056 17 17 C16.67 17 16.34 17 16 17 C15.960039 16.385117 15.920078 15.770234 15.878906 15.136719 C15.537884 12.496952 15.129463 10.417823 14 8 C11.151119 6.243841 8.262199 5.623492 5 5 C3.665338 4.672028 2.331526 4.340482 1 4 C0.67 2.68 0.34 1.36 0 0 Z " fill="#F9F7E5" transform="translate(71,142)"/>
<path d="M0 0 C0.33 0.33 0.33 0.33 2 2 C1.625 5.125 1.625 5.125 1 8 C-0.229766 8.037383 -1.459531 8.074766 -2.726562 8.113281 C-4.359404 8.17897 -5.992215 8.245417 -7.625 8.3125 C-8.433242 8.335059 -9.241484 8.357617 -10.074219 8.380859 C-19.079617 8.78354 -23.806156 12.350913 -29.875 18.6875 C-30.467969 19.294004 -31.060937 19.900508 -31.671875 20.525391 C-33.121559 22.010148 -34.561765 23.50415 -36 25 C-36.165 24.34 -36.165 24.34 -37 21 C-63.4 21 -89.8 21 -117 21 C-116.67 21.99 -116.34 22.98 -116 24 C-118.9375 23.1875 -118.9375 23.1875 -122 22 C-122.33 21.01 -122.66 20.02 -123 19 C-121.876914 18.989693 -120.753829 18.979385 -119.59671 18.968765 C-109.031086 18.87116 -98.465522 18.768438 -87.899996 18.660661 C-82.467694 18.605412 -77.035387 18.551989 -71.603027 18.502686 C-66.364014 18.45507 -61.125068 18.402729 -55.886135 18.347059 C-53.883805 18.326623 -51.881456 18.307912 -49.879093 18.290926 C-47.082251 18.266911 -44.285536 18.236852 -41.48877 18.205322 C-40.654394 18.199567 -39.820018 18.193811 -38.960358 18.187881 C-33.228104 18.114052 -33.228104 18.114052 -31 17 C-31 16.34 -31 15.68 -31 15 C-30.01 14.67 -29.02 14.34 -28 14 C-27.67 12.68 -27.34 11.36 -27 10 C-60.99 10 -94.98 10 -130 10 C-129.67 10.99 -129.34 11.98 -129 13 C-129.99 13 -130.98 13 -132 13 C-132.66 11.68 -133.32 10.36 -134 9 C-133 8 -133 8 -131.143424 7.876952 C-130.734609 7.877413 -130.734609 7.877413 -128.665756 7.879745 C-128.198083 7.879058 -128.198083 7.879058 -125.831375 7.87558 C-124.797038 7.879175 -123.762702 7.88277 -122.697021 7.886475 C-121.614229 7.886329 -120.531437 7.886183 -119.415833 7.886032 C-115.817566 7.886732 -112.219351 7.894527 -108.621094 7.902344 C-106.133876 7.904208 -103.646658 7.905632 -101.159439 7.906631 C-95.269788 7.910067 -89.380156 7.917957 -83.490513 7.927981 C-76.129746 7.940238 -68.768977 7.945622 -61.408203 7.951172 C-48.272126 7.961912 -35.136064 7.978799 -22 8 C-22 7.34 -22 6.68 -22 6 C-20.807617 5.962617 -19.615234 5.925234 -18.386719 5.886719 C-16.820281 5.82106 -15.253876 5.754612 -13.6875 5.6875 C-12.901816 5.664941 -12.116133 5.642383 -11.306641 5.619141 C-10.549316 5.583691 -9.791992 5.548242 -9.011719 5.511719 C-8.315222 5.485535 -7.618726 5.459351 -6.901123 5.432373 C-4.502505 4.886854 -3.652146 3.764852 -2 2 C-1.34 2 -0.68 2 0 2 C0 1.34 0 0.68 0 0 Z " fill="#EEE8AE" transform="translate(180,116)"/>
<path d="M0 0 C7.26 0 14.52 0 22 0 C23.388136 4.164408 23.257913 7.788727 22 12 C19.375 14.1875 19.375 14.1875 16 15 C12.125 14.1875 12.125 14.1875 9 13 C8.67 10.36 8.34 7.72 8 5 C7.175 4.835 7.175 4.835 3 4 C2.855625 4.433125 2.855625 4.433125 2.125 6.625 C-0.794758 11.262262 -4.83969 14.108701 -10 16 C-12.316406 15.15625 -12.316406 15.15625 -14 14 C-14 12.35 -14 10.7 -14 9 C-13.67 9.99 -13.34 10.98 -13 12 C-10.69 12 -8.38 12 -6 12 C-6 11.34 -6 10.68 -6 10 C-5.597813 9.886562 -5.597813 9.886562 -3.5625 9.3125 C-2.716875 8.879375 -1.87125 8.44625 -1 8 C-0.1875 5.375 -0.1875 5.375 0 3 C-0.66 2.67 -1.32 2.34 -2 2 C-1.34 2 -0.68 2 0 2 C0 1.34 0 0.68 0 0 Z " fill="#ACA880" transform="translate(102,150)"/>
<path d="M0 0 C1.348887 0.000159 2.697781 0.005849 4.046631 0.015869 C4.40106 0.016577 4.40106 0.016577 6.194687 0.020157 C8.466992 0.025771 10.739199 0.038326 13.011475 0.051025 C14.548583 0.056039 16.085692 0.060602 17.622803 0.064697 C21.398231 0.075745 25.173586 0.093019 28.948975 0.113525 C28.288975 0.443525 27.628975 0.773525 26.948975 1.113525 C26.245163 3.100758 25.577794 5.101305 24.948975 7.113525 C23.948975 8.113525 23.948975 8.113525 21.17334 8.227051 C19.963635 8.221814 18.753931 8.216577 17.507568 8.211182 C16.202393 8.207959 14.897217 8.204736 13.55249 8.201416 C12.163818 8.193059 10.775146 8.184594 9.386475 8.176025 C7.993898 8.171012 6.60132 8.166449 5.20874 8.162354 C1.788776 8.15052 -1.631104 8.134034 -5.051025 8.113525 C-4.037515 0.150232 -4.037515 0.150232 0 0 Z " fill="#F9F7DE" transform="translate(155.051025390625,78.886474609375)"/>
<path d="M0 0 C0.33 0 0.66 0 1 0 C1 1.98 1 3.96 1 6 C11.89 5.67 22.78 5.34 34 5 C34.33 4.01 34.66 3.02 35 2 C35.66 2 36.32 2 37 2 C37 1.34 37 0.68 37 0 C37.99 0 38.98 0 40 0 C39.423659 4.754816 37.449315 7.970482 35 12 C34.34 11.67 33.68 11.34 33 11 C32.773125 11.99 32.54625 12.98 32.3125 14 C31.46728 17.028197 30.265798 19.280996 28.5 21.875 C25.210686 26.852635 24 32.065014 24 38 C22.5 36.6875 22.5 36.6875 21 35 C21 34.01 21 33.02 21 32 C20.34 31.67 19.68 31.34 19 31 C20.65 27.7 22.3 24.4 24 21 C24.66 21 25.32 21 26 21 C26.33 19.68 26.66 18.36 27 17 C18.09 17 9.18 17 0 17 C-0.33 17.99 -0.66 18.98 -1 20 C-3.31 19.67 -5.62 19.34 -8 19 C-8 18.01 -8 17.02 -8 16 C-6.02 16.33 -4.04 16.66 -2 17 C-1.34 11.39 -0.68 5.78 0 0 Z M2 7 C-0.151944 10.227916 -0.200864 11.284008 0 15 C4.074875 15.123666 8.149023 15.214365 12.225342 15.274658 C13.611603 15.299792 14.997732 15.333906 16.383545 15.377197 C18.37621 15.437884 20.369845 15.463549 22.363281 15.488281 C23.562512 15.514465 24.761743 15.540649 25.997314 15.567627 C29 15 29 15 30.914795 12.594482 C32 10 32 10 32 8 C32.66 7.67 33.32 7.34 34 7 C29.479366 6.925935 24.959084 6.87144 20.437988 6.835205 C18.899514 6.820103 17.361083 6.79962 15.822754 6.773682 C13.613499 6.737359 11.404812 6.720289 9.195312 6.707031 C8.505674 6.691547 7.816036 6.676064 7.105499 6.66011 C5.164551 6.659424 5.164551 6.659424 2 7 Z " fill="#C0BC91" transform="translate(150,72)"/>
<path d="M0 0 C7.627602 -0.863502 12.724361 1.751275 19 6 C20.32 7.32 21.64 8.64 23 10 C18.545 10.165 18.545 10.165 -4 11 C-4 11.66 -4 12.32 -4 13 C-4.99 13 -5.98 13 -7 13 C-7.33 13.66 -7.66 14.32 -8 15 C-7.420699 10.220766 -5.601463 6.978709 -3 3 C-2.01 2.67 -1.02 2.34 0 2 C0 1.34 0 0.68 0 0 Z " fill="#F9F6D9" transform="translate(161,48)"/>
<path d="M0 0 C0.105703 0.297773 0.105703 0.297773 0.640625 1.804688 C2.503757 4.813538 4.574731 5.616352 7.75 7.125 C8.776094 7.622578 9.802188 8.120156 10.859375 8.632812 C13.867317 9.94224 16.872021 11.016653 20 12 C20 12.33 20 12.66 20 13 C12.41 13 4.82 13 -3 13 C-3 14.98 -3 16.96 -3 19 C-3.33 19 -3.66 19 -4 19 C-4.112148 18.240742 -4.224297 17.481484 -4.339844 16.699219 C-4.96282 13.559907 -5.617614 10.89277 -7 8 C-9.874237 6.175573 -12.650458 5.484525 -16 5 C-15.01 4.67 -14.02 4.34 -13 4 C-13 3.34 -13 2.68 -13 2 C-8.666667 2 -4.333333 2 0 2 C0 1.34 0 0.68 0 0 Z " fill="#CBC7A1" transform="translate(89,45)"/>
<path d="M0 0 C5.392073 1.920865 5.392073 1.920865 6.597656 4.332031 C6.196556 4.336704 6.196556 4.336704 4.166748 4.360352 C0.53892 4.413969 -3.087607 4.497634 -6.714844 4.582031 C-7.97748 4.596211 -9.240117 4.610391 -10.541016 4.625 C-11.145264 4.641113 -11.145264 4.641113 -14.203125 4.722656 C-14.760846 4.73313 -14.760846 4.73313 -17.583252 4.786133 C-20.402344 5.332031 -20.402344 5.332031 -22.289795 7.370117 C-22.656936 8.017549 -23.024077 8.66498 -23.402344 9.332031 C-19.166309 9.213878 -14.93051 9.089637 -10.694824 8.959717 C-9.253468 8.916369 -7.81206 8.874694 -6.370605 8.834717 C-4.300298 8.77701 -2.230249 8.713318 -0.160156 8.648438 C1.086206 8.61178 2.332568 8.575122 3.616699 8.537354 C6.597656 8.332031 6.597656 8.332031 8.597656 7.332031 C8.927656 6.672031 9.257656 6.012031 9.597656 5.332031 C9.762656 6.322031 9.762656 6.322031 10.597656 11.332031 C-1.612344 11.332031 -13.822344 11.332031 -26.402344 11.332031 C-24.151901 4.580702 -24.151901 4.580702 -19.402344 2.019531 C-18.515469 1.528398 -17.628594 1.037266 -16.714844 0.53125 C-11.080015 -2.390866 -6.111173 -1.699204 0 0 Z " fill="#EDE8AB" transform="translate(77.40234375,30.66796875)"/>
<path d="M0 0 C27.72 0 55.44 0 84 0 C81.196108 2.803892 78.550861 2.307318 74.796387 2.318848 C74.425605 2.32387 74.425605 2.32387 72.549225 2.349289 C70.09272 2.380234 67.636326 2.397187 65.179688 2.414062 C63.478598 2.432765 61.777517 2.452338 60.076447 2.472748 C55.595006 2.524171 51.113536 2.563742 46.631958 2.600891 C42.060552 2.640867 37.489272 2.691988 32.917969 2.742188 C23.945401 2.839068 14.972762 2.923434 6 3 C6 3.66 6 4.32 6 5 C5.01 5 4.02 5 3 5 C2.87625 4.360625 2.7525 3.72125 2.625 3.0625 C2.521875 2.722187 2.521875 2.722187 2 1 C1.34 0.67 0.68 0.34 0 0 Z " fill="#F8F5D6" transform="translate(61,136)"/>
<path d="M0 0 C3.687229 -0.117012 7.373975 -0.18752 11.0625 -0.25 C12.10084 -0.283516 13.13918 -0.317031 14.208984 -0.351562 C20.730196 -0.434372 24.739236 0.031229 30 4 C30.33 4.495 30.33 4.495 32 7 C21.77 7 11.54 7 1 7 C0.67 4.69 0.34 2.38 0 0 Z " fill="#F9F6D4" transform="translate(86,59)"/>
<path d="M0 0 C0.99 0 1.98 0 3 0 C4.039876 4.249459 4.129896 8.359279 4.097656 12.707031 C4.096241 13.432426 4.094826 14.157821 4.093369 14.905197 C4.087799 17.207674 4.075253 19.510052 4.0625 21.8125 C4.057481 23.379556 4.052919 24.946613 4.048828 26.513672 C4.03784 30.342486 4.020597 34.171226 4 38 C6.31 38 8.62 38 11 38 C10.989526 36.98575 10.979053 35.971499 10.968262 34.926514 C10.932064 31.163854 10.9091 27.40121 10.890137 23.638428 C10.880079 22.009821 10.86643 20.381232 10.849121 18.752686 C10.824864 16.411901 10.813515 14.071356 10.804688 11.730469 C10.794365 11.002244 10.784042 10.274019 10.773407 9.523727 C10.772578 5.787249 10.871167 4.193249 13 1 C13.167225 6.393299 13.327824 11.786738 13.482178 17.18042 C13.535675 19.016737 13.59101 20.853002 13.648193 22.689209 C13.729889 25.322638 13.805057 27.956184 13.878906 30.589844 C13.905941 31.415886 13.932976 32.241928 13.960831 33.093002 C14.01283 35.061358 14.011878 37.030993 14 39 C13 40 13 40 10.496094 40.097656 C9.486758 40.086055 8.477422 40.074453 7.4375 40.0625 C6.425586 40.053477 5.413672 40.044453 4.371094 40.035156 C3.979863 40.029355 3.979863 40.029355 2 40 C1.974944 39.00146 1.949888 38.00292 1.924072 36.974121 C1.829517 33.25037 1.729416 29.526784 1.627686 25.803223 C1.584518 24.195189 1.542831 22.587116 1.502686 20.979004 C1.44454 18.660358 1.380976 16.341912 1.316406 14.023438 C1.299694 13.310697 1.282981 12.597956 1.265762 11.863617 C1.147394 7.826555 0.762319 3.966231 0 0 Z " fill="#62615A" transform="translate(99,219)"/>
<path d="M0 0 C4.512386 3.094207 5.703053 7.910466 7 13 C7 13.66 7 14.32 7 15 C0.977031 14.871852 -2.601296 12.78752 -7.242188 8.988281 C-9 7 -9 7 -9.5625 3.0625 C-9.376875 2.051875 -9.19125 1.04125 -9 0 C-5.415639 -1.194787 -3.630937 -0.96331 0 0 Z " fill="#FAFAFA" transform="translate(79,51)"/>
<path d="M0 0 C1.32 0 2.64 0 4 0 C6.104284 5.129192 6.217557 9.561084 6 15 C3.004685 15.998438 1.827443 16.007328 -1.1875 15.5625 C-2.445625 15.376875 -3.70375 15.19125 -5 15 C-5.33 15.66 -5.66 16.32 -6 17 C-6 13.7 -6 10.4 -6 7 C-5.34 7 -4.68 7 -4 7 C-3.67 5.35 -3.34 3.7 -3 2 C-2.01 2 -1.02 2 0 2 C0 1.34 0 0.68 0 0 Z " fill="#D0CB96" transform="translate(118,170)"/>
<path d="M0 0 C1.209705 0.005237 2.419409 0.010474 3.665771 0.015869 C4.970947 0.019092 6.276123 0.022314 7.62085 0.025635 C9.009522 0.033991 10.398194 0.042456 11.786865 0.051025 C13.179442 0.056039 14.57202 0.060602 15.9646 0.064697 C19.384564 0.076531 22.804444 0.093017 26.224365 0.113525 C25.894365 1.763525 25.564365 3.413525 25.224365 5.113525 C14.994365 5.113525 4.764365 5.113525 -5.775635 5.113525 C-3.286073 0.134403 -3.286073 0.134403 0 0 Z " fill="#F6F4D9" transform="translate(59.775634765625,34.886474609375)"/>
<path d="M0 0 C19.14 0 38.28 0 58 0 C57.01 0.66 56.02 1.32 55 2 C55.99 2.66 56.98 3.32 58 4 C57.34 4.33 57.34 4.33 54 6 C53.835 5.67 53.835 5.67 53 4 C40.79 4 28.58 4 16 4 C16.33 4.66 16.66 5.32 17 6 C16.832198 8.695652 16.388444 11.324056 16 14 C15.67 14 15.34 14 15 14 C14.960039 13.385117 14.920078 12.770234 14.878906 12.136719 C14.537888 9.496985 14.131125 7.417081 13 5 C10.777544 3.669136 8.808591 3.103946 6.289062 2.535156 C4 2 4 2 0 0 Z " fill="#DDD7A0" transform="translate(72,145)"/>
<path d="M0 0 C0.59748 0.005801 0.59748 0.005801 3.621094 0.035156 C4.219863 0.039668 4.219863 0.039668 7.25 0.0625 C8.176836 0.074102 9.103672 0.085703 10.058594 0.097656 C10.145401 4.058232 10.165657 6.673679 8.058594 10.097656 C6.738594 10.097656 5.418594 10.097656 4.058594 10.097656 C4.058594 10.757656 4.058594 11.417656 4.058594 12.097656 C1.748594 12.097656 -0.561406 12.097656 -2.941406 12.097656 C-4.235901 8.214171 -4.073439 5.190683 -3.941406 1.097656 C-2.941406 0.097656 -2.941406 0.097656 0 0 Z " fill="#F9F6D5" transform="translate(91.94140625,149.90234375)"/>
<path d="M0 0 C0.724896 -0.003328 1.449792 -0.006657 2.196655 -0.010086 C3.729893 -0.015151 5.263141 -0.017495 6.796387 -0.017334 C9.146993 -0.019523 11.497132 -0.037689 13.847656 -0.056641 C15.335936 -0.059574 16.824218 -0.061559 18.3125 -0.0625 C19.017738 -0.069686 19.722976 -0.076871 20.449585 -0.084274 C25.427422 -0.06086 25.427422 -0.06086 27.65625 2.167969 C27.32625 2.827969 26.99625 3.487969 26.65625 4.167969 C14.77625 4.167969 2.89625 4.167969 -9.34375 4.167969 C-9.34375 3.177969 -9.34375 2.187969 -9.34375 1.167969 C-6.352859 -0.327477 -3.280078 0.005176 0 0 Z " fill="#F9F8E7" transform="translate(60.34375,40.83203125)"/>
<path d="M0 0 C43.56 0 87.12 0 132 0 C132 0.33 132 0.66 132 1 C115.249573 1.130572 98.499145 1.260968 81.748714 1.391151 C73.97131 1.451601 66.193907 1.512109 58.416504 1.572754 C51.638205 1.625608 44.859906 1.678353 38.081605 1.730967 C34.492134 1.758833 30.902664 1.786753 27.313194 1.814804 C23.30743 1.846106 19.301664 1.877165 15.295898 1.908203 C14.104034 1.917554 12.91217 1.926905 11.684189 1.936539 C10.593264 1.944953 9.50234 1.953367 8.378357 1.962036 C7.904555 1.965723 7.904555 1.965723 5.506832 1.984383 C3.337924 1.997895 1.16895 2 -1 2 C-0.67 1.34 -0.34 0.68 0 0 Z " fill="#F5EFB1" transform="translate(43,120)"/>
<path d="M0 0 C0.66 1.98 1.32 3.96 2 6 C1.34 6.66 0.68 7.32 0 8 C0 8.33 0 8.66 0 9 C-2.64 9 -5.28 9 -8 9 C-8.33 11.64 -8.66 14.28 -9 17 C-9.33 17 -9.66 17 -10 17 C-10 13.7 -10 10.4 -10 7 C-11.65 6.67 -13.3 6.34 -15 6 C-15 9.3 -15 12.6 -15 16 C-15.33 16 -15.66 16 -16 16 C-16.33 12.04 -16.66 8.08 -17 4 C-14.36 4.33 -11.72 4.66 -9 5 C-8.67 3.68 -8.34 2.36 -8 1 C-5.107657 0.173616 -3.112576 0 0 0 Z " fill="#ACAA96" transform="translate(140,170)"/>
<path d="M0 0 C9.222692 -0.04628 18.445344 -0.081847 27.668127 -0.103624 C31.950342 -0.114075 36.232479 -0.128257 40.514648 -0.150879 C44.644881 -0.172562 48.775038 -0.184559 52.905323 -0.189754 C54.483437 -0.193458 56.061547 -0.200691 57.639629 -0.21146 C59.84497 -0.225915 62.049991 -0.22798 64.255371 -0.227051 C65.512237 -0.231492 66.769103 -0.235933 68.064056 -0.240509 C71 0 71 0 73 2 C71.760557 2.869415 70.507929 3.720055 69.25 4.5625 C68.901953 4.800332 68.901953 4.800332 67.140625 6.003906 C65 7 65 7 62.734375 6.652344 C62.162031 6.43707 61.589687 6.221797 61 6 C61.99 6 62.98 6 64 6 C64.33 4.68 64.66 3.36 65 2 C44.21 1.67 23.42 1.34 2 1 C2.33 1.99 2.66 2.98 3 4 C1.68 3.67 0.36 3.34 -1 3 C-0.67 2.01 -0.34 1.02 0 0 Z " fill="#EDE7AC" transform="translate(69,141)"/>
<path d="M0 0 C11.55 0 23.1 0 35 0 C34.67 0.99 34.34 1.98 34 3 C22.45 3 10.9 3 -1 3 C-0.67 2.01 -0.34 1.02 0 0 Z " fill="#F9F7E2" transform="translate(154,67)"/>
<path d="M0 0 C4.805467 -0.074053 9.610603 -0.128555 14.416504 -0.164795 C16.051979 -0.179899 17.687414 -0.200384 19.322754 -0.226318 C21.671 -0.262631 24.018712 -0.279709 26.367188 -0.292969 C27.100573 -0.308453 27.833959 -0.323936 28.589569 -0.33989 C30.651855 -0.340576 30.651855 -0.340576 34 0 C34.66 0.99 35.32 1.98 36 3 C23.79 3 11.58 3 -1 3 C-0.67 2.01 -0.34 1.02 0 0 Z " fill="#F9F7E2" transform="translate(88,67)"/>
<path d="M0 0 C11.55 0 23.1 0 35 0 C34.34 0.99 33.68 1.98 33 3 C30.375378 3.266979 27.989341 3.34833 25.367188 3.292969 C24.99127 3.290846 24.99127 3.290846 23.088898 3.280106 C20.683903 3.263292 18.279742 3.225636 15.875 3.1875 C14.246106 3.172457 12.617199 3.158768 10.988281 3.146484 C6.991866 3.11338 2.996074 3.06158 -1 3 C-0.67 2.01 -0.34 1.02 0 0 Z " fill="#F9F7E2" transform="translate(152,75)"/>
<path d="M0 0 C0.33 0 0.66 0 1 0 C1 2.97 1 5.94 1 9 C3.97 9 6.94 9 10 9 C10.33 6.36 10.66 3.72 11 1 C11.33 1 11.66 1 12 1 C12.204134 6.738423 12.271415 11.60539 10 17 C7.36 17 4.72 17 2 17 C-0.440646 11.356006 -0.192891 6.022485 0 0 Z " fill="#BAB79B" transform="translate(74,174)"/>
<path d="M0 0 C2.31 0 4.62 0 7 0 C7.33 4.95 7.66 9.9 8 15 C5.36 15 2.72 15 0 15 C0 10.05 0 5.1 0 0 Z " fill="#F9F6D9" transform="translate(85,173)"/>
<path d="M0 0 C1.369527 2.739053 1.126214 4.970873 1 8 C0.67 8.66 0.34 9.32 0 10 C-2.97 10 -5.94 10 -9 10 C-9 7.03 -9 4.06 -9 1 C-6.043355 -0.478323 -3.257703 -0.060328 0 0 Z " fill="#F9F6D6" transform="translate(84,173)"/>
<path d="M0 0 C0.66 0 1.32 0 2 0 C2.285714 8.571429 2.285714 8.571429 0 12 C-2.31 12 -4.62 12 -7 12 C-8.369527 9.260947 -8.126214 7.029127 -8 4 C-7.67 3.34 -7.34 2.68 -7 2 C-4.678434 1.592708 -2.343121 1.255613 0 1 C0 0.67 0 0.34 0 0 Z " fill="#F9F5CA" transform="translate(139,177)"/>
<path d="M0 0 C0.66 0 1.32 0 2 0 C2 3.3 2 6.6 2 10 C-1.3 10 -4.6 10 -8 10 C-8.33 10.66 -8.66 11.32 -9 12 C-9 8.7 -9 5.4 -9 2 C-6.949219 1.772135 -4.898438 1.544271 -2.847656 1.316406 C-1 1 -1 1 0 0 Z " fill="#F9F7DC" transform="translate(102,171)"/>
<path d="M0 0 C0.886875 0.391875 1.77375 0.78375 2.6875 1.1875 C0.619937 3.984791 -0.456904 4.214423 -4 4.875 C-5.093125 4.978125 -6.18625 5.08125 -7.3125 5.1875 C-7.6425 8.4875 -7.9725 11.7875 -8.3125 15.1875 C-8.6425 15.1875 -8.9725 15.1875 -9.3125 15.1875 C-9.3125 11.5575 -9.3125 7.9275 -9.3125 4.1875 C-11.6225 4.1875 -13.9325 4.1875 -16.3125 4.1875 C-16.6425 4.8475 -16.9725 5.5075 -17.3125 6.1875 C-17.3125 5.5275 -17.3125 4.8675 -17.3125 4.1875 C-18.7975 4.3525 -18.7975 4.3525 -26.3125 5.1875 C-26.3125 3.8675 -26.3125 2.5475 -26.3125 1.1875 C-23.6725 0.8575 -21.0325 0.5275 -18.3125 0.1875 C-17.9825 0.8475 -17.6525 1.5075 -17.3125 2.1875 C-9.110438 2.669974 -9.110438 2.669974 -5.625 0.5625 C-3.3125 -0.8125 -3.3125 -0.8125 0 0 Z " fill="#848164" transform="translate(101.3125,168.8125)"/>
<path d="M0 0 C0 0.66 0 1.32 0 2 C-6.6 1.835 -6.6 1.835 -40 1 C-39.67 0.34 -39.34 -0.32 -39 -1 C-35.053656 -1.194739 -31.106919 -1.373018 -27.15918 -1.537109 C-25.16824 -1.623132 -23.17785 -1.721585 -21.1875 -1.820312 C-13.809931 -2.118396 -7.146892 -1.94532 0 0 Z " fill="#EBE8C7" transform="translate(86,66)"/>
<path d="M0 0 C2.31 0 4.62 0 7 0 C7 3.96 7 7.92 7 12 C4.03 12 1.06 12 -2 12 C-1.34 8.04 -0.68 4.08 0 0 Z " fill="#F9F6D5" transform="translate(106,176)"/>
<path d="M0 0 C4.769231 4.307692 4.769231 4.307692 5 8 C4.0625 10.25 4.0625 10.25 3 12 C2.01 11.34 1.02 10.68 0 10 C0.33 9.34 0.66 8.68 1 8 C-3.787129 7.901132 -8.573665 7.828534 -13.361572 7.780273 C-14.990258 7.760156 -16.618872 7.732859 -18.247314 7.698242 C-20.588235 7.649726 -22.9282 7.627034 -25.269531 7.609375 C-25.997756 7.58873 -26.725981 7.568085 -27.476273 7.546814 C-29.53833 7.545898 -29.53833 7.545898 -33 8 C-34.983154 10.024414 -34.983154 10.024414 -36 12 C-35.67 9.03 -35.34 6.06 -35 3 C-34.34 3.66 -33.68 4.32 -33 5 C-30.562551 5.174883 -28.240639 5.231774 -25.804688 5.195312 C-25.450966 5.193898 -25.450966 5.193898 -23.660919 5.186737 C-21.398775 5.175531 -19.137025 5.150427 -16.875 5.125 C-15.342454 5.114971 -13.809901 5.105845 -12.277344 5.097656 C-8.518077 5.075591 -4.759105 5.041059 -1 5 C-0.67 3.35 -0.34 1.7 0 0 Z " fill="#CDC996" transform="translate(187,60)"/>
<path d="M0 0 C0.66 0 1.32 0 2 0 C2 0.66 2 1.32 2 2 C9.26 2 16.52 2 24 2 C24.33 2.99 24.66 3.98 25 5 C16.75 5 8.5 5 0 5 C-0.33 4.34 -0.66 3.68 -1 3 C-0.67 2.01 -0.34 1.02 0 0 Z " fill="#F9F7E2" transform="translate(50,59)"/>
<path d="M0 0 C0.66 0.66 1.32 1.32 2 2 C1.625 5.125 1.625 5.125 1 8 C-0.229766 8.048984 -1.459531 8.097969 -2.726562 8.148438 C-4.359396 8.22351 -5.992207 8.299056 -7.625 8.375 C-8.433242 8.405937 -9.241484 8.436875 -10.074219 8.46875 C-14.718383 8.695295 -18.626939 9.259267 -23 11 C-22.67 9.35 -22.34 7.7 -22 6 C-20.807617 5.962617 -19.615234 5.925234 -18.386719 5.886719 C-16.820281 5.82106 -15.253876 5.754612 -13.6875 5.6875 C-12.901816 5.664941 -12.116133 5.642383 -11.306641 5.619141 C-10.549316 5.583691 -9.791992 5.548242 -9.011719 5.511719 C-8.315222 5.485535 -7.618726 5.459351 -6.901123 5.432373 C-4.502505 4.886854 -3.652146 3.764852 -2 2 C-1.34 2 -0.68 2 0 2 C0 1.34 0 0.68 0 0 Z " fill="#928F72" transform="translate(180,116)"/>
<path d="M0 0 C1.463138 0.761675 2.920367 1.534707 4.375 2.3125 C4.781055 2.527129 4.781055 2.527129 6.835938 3.613281 C9 5 9 5 11 8 C10.496943 7.837014 9.993887 7.674028 9.475586 7.506104 C6.112756 6.818614 2.80638 6.877201 -0.609375 6.902344 C-1.336185 6.903759 -2.062994 6.905174 -2.811829 6.906631 C-5.124595 6.912212 -7.437263 6.924761 -9.75 6.9375 C-11.321613 6.942518 -12.893228 6.94708 -14.464844 6.951172 C-18.309933 6.962175 -22.15495 6.979426 -26 7 C-26 8.65 -26 10.3 -26 12 C-27.155 11.34 -27.155 11.34 -33 8 C-33 7.67 -33 7.34 -33 7 C-31.35 7 -29.7 7 -28 7 C-27.67 5.68 -27.34 4.36 -27 3 C-27 3.66 -27 4.32 -27 5 C-17.76 4.67 -8.52 4.34 1 4 C0.835 3.34 0.835 3.34 0 0 Z " fill="#CDC894" transform="translate(114,61)"/>
<path d="M0 0 C0.411855 0.005801 0.411855 0.005801 2.496094 0.035156 C3.322383 0.04418 4.148672 0.053203 5 0.0625 C5.638086 0.074102 6.276172 0.085703 6.933594 0.097656 C6.445312 6.152344 6.445312 6.152344 5.933594 8.097656 C4.943594 8.757656 3.953594 9.417656 2.933594 10.097656 C2.933594 9.437656 2.933594 8.777656 2.933594 8.097656 C2.314844 8.283281 1.696094 8.468906 1.058594 8.660156 C-1.066406 9.097656 -1.066406 9.097656 -3.066406 8.097656 C-3.108823 5.764708 -3.107336 3.430631 -3.066406 1.097656 C-2.066406 0.097656 -2.066406 0.097656 0 0 Z " fill="#D7D4B0" transform="translate(97.06640625,181.90234375)"/>
<path d="M0 0 C3.63 0 7.26 0 11 0 C11 0.99 11 1.98 11 3 C10.34 3 9.68 3 9 3 C9.33 4.32 9.66 5.64 10 7 C7.69 7 5.38 7 3 7 C3 7.99 3 8.98 3 10 C2.01 9.67 1.02 9.34 0 9 C0 6.03 0 3.06 0 0 Z " fill="#F9F7E0" transform="translate(112,153)"/>
<path d="M0 0 C1.98 0 3.96 0 6 0 C6 4.29 6 8.58 6 13 C3.69 13 1.38 13 -1 13 C-0.67 8.71 -0.34 4.42 0 0 Z " fill="#F9F6DA" transform="translate(125,176)"/>
<path d="M0 0 C1.202728 2.405456 1.100715 3.94997 1.0625 6.625 C1.053477 7.442266 1.044453 8.259531 1.035156 9.101562 C1.023555 9.728047 1.011953 10.354531 1 11 C-2.694182 12.231394 -5.205626 11.644328 -9 11 C-9.125 4.25 -9.125 4.25 -8 2 C-2.777778 0 -2.777778 0 0 0 Z " fill="#F9F7E2" transform="translate(123,174)"/>
<path d="M0 0 C1.125 3.75 1.125 3.75 0 6 C6.93 6 13.86 6 21 6 C20.67 5.01 20.34 4.02 20 3 C24.875 4.75 24.875 4.75 26 7 C21.545 7.165 21.545 7.165 -1 8 C-1 8.66 -1 9.32 -1 10 C-1.99 10 -2.98 10 -4 10 C-4.33 10.66 -4.66 11.32 -5 12 C-4.423659 7.245184 -2.449315 4.029518 0 0 Z " fill="#F9F3B3" transform="translate(158,51)"/>
<path d="M0 0 C0.33 1.32 0.66 2.64 1 4 C8.92 4 16.84 4 25 4 C25.33 3.34 25.66 2.68 26 2 C26.99 2.99 27.98 3.98 29 5 C26.179447 6.410277 23.822659 6.091643 20.671875 6.070312 C18.710774 6.086176 16.749673 6.102047 14.788574 6.118164 C13.43668 6.122697 12.084705 6.116625 10.73291 6.099609 C-0.57085 5.977855 -0.57085 5.977855 -4.259766 8.616211 C-5.744222 10.347496 -6.935259 11.98773 -8 14 C-8 9.96619 -6.404264 8.505664 -4 5.3125 C-3.2575 4.318633 -2.515 3.324766 -1.75 2.300781 C-1.1725 1.541523 -0.595 0.782266 0 0 Z " fill="#DBD69E" transform="translate(49,59)"/>
<path d="M0 0 C7.074873 -0.64317 11.094932 1.172641 17 5 C17 5.33 17 5.66 17 6 C8.747212 6.275093 8.747212 6.275093 5 4 C4.278125 3.855625 3.55625 3.71125 2.8125 3.5625 C2.214375 3.376875 1.61625 3.19125 1 3 C0.67 2.01 0.34 1.02 0 0 Z " fill="#B5B188" transform="translate(161,48)"/>
<path d="M0 0 C0.66 0.33 1.32 0.66 2 1 C0.570165 4.582274 -1.033913 5.999107 -4.375 7.875 C-5.145859 8.326172 -5.916719 8.777344 -6.710938 9.242188 C-9 10 -9 10 -11.289062 9.132812 C-11.853672 8.758984 -12.418281 8.385156 -13 8 C-13 6.35 -13 4.7 -13 3 C-12.67 3.99 -12.34 4.98 -12 6 C-9.69 6 -7.38 6 -5 6 C-5 5.34 -5 4.68 -5 4 C-3.35 3.34 -1.7 2.68 0 2 C0 1.34 0 0.68 0 0 Z " fill="#959170" transform="translate(101,156)"/>
<path d="M0 0 C1.32 0.33 2.64 0.66 4 1 C-0.116198 5.919359 -4.404104 10.52648 -9 15 C-9.33 13.68 -9.66 12.36 -10 11 C-9.34 11 -8.68 11 -8 11 C-8 10.34 -8 9.68 -8 9 C-6.68 8.34 -5.36 7.68 -4 7 C-4 6.34 -4 5.68 -4 5 C-3.01 4.67 -2.02 4.34 -1 4 C-0.3125 1.9375 -0.3125 1.9375 0 0 Z " fill="#B0AD8E" transform="translate(153,126)"/>
<path d="M0 0 C0.33 0 0.66 0 1 0 C1 2.97 1 5.94 1 9 C3.97 9 6.94 9 10 9 C10.33 6.36 10.66 3.72 11 1 C11.33 1 11.66 1 12 1 C12.054376 2.582948 12.092963 4.166443 12.125 5.75 C12.148203 6.631719 12.171406 7.513438 12.195312 8.421875 C11.991395 11.113586 11.365517 12.69905 10 15 C10 13.35 10 11.7 10 10 C7.36 10 4.72 10 2 10 C2 11.65 2 13.3 2 15 C-0.025589 11.650601 -0.21739 9.130374 -0.125 5.25 C-0.115977 4.757578 -0.115977 4.757578 -0.070312 2.265625 C-0.047109 1.517969 -0.023906 0.770312 0 0 Z " fill="#66634C" transform="translate(74,174)"/>
<path d="M0 0 C3.3 0.99 6.6 1.98 10 3 C10 3.33 10 3.66 10 4 C2.41 4 -5.18 4 -13 4 C-13 5.98 -13 7.96 -13 10 C-13.33 10 -13.66 10 -14 10 C-14 7.69 -14 5.38 -14 3 C-9.38 3 -4.76 3 0 3 C0 2.01 0 1.02 0 0 Z " fill="#AAA67F" transform="translate(99,54)"/>
<path d="M0 0 C0.66 0.33 1.32 0.66 2 1 C1.25 3.4375 1.25 3.4375 0 6 C-2.125 6.8125 -2.125 6.8125 -4 7 C-4 6.34 -4 5.68 -4 5 C-4.66 5 -5.32 5 -6 5 C-6.33 5.66 -6.66 6.32 -7 7 C-7 6.34 -7 5.68 -7 5 C-10.3 5 -13.6 5 -17 5 C-16.67 3.68 -16.34 2.36 -16 1 C-16 1.99 -16 2.98 -16 4 C-13.69 4 -11.38 4 -9 4 C-8.67 3.34 -8.34 2.68 -8 2 C-8 2.66 -8 3.32 -8 4 C-2.25 3.125 -2.25 3.125 0 2 C0 1.34 0 0.68 0 0 Z " fill="#93906C" transform="translate(140,185)"/>
<path d="M0 0 C0.66 0 1.32 0 2 0 C1.67 2.31 1.34 4.62 1 7 C-1.8125 8.125 -1.8125 8.125 -5 9 C-5.99 8.34 -6.98 7.68 -8 7 C-7.34 7 -6.68 7 -6 7 C-6 6.01 -6 5.02 -6 4 C-4.02 3.34 -2.04 2.68 0 2 C0 1.34 0 0.68 0 0 Z " fill="#D8D4A1" transform="translate(121,156)"/>
<path d="M0 0 C0 3.63 0 7.26 0 11 C-0.33 11.165 -0.33 11.165 -2 12 C-2 11.34 -2 10.68 -2 10 C-2.66 9.67 -3.32 9.34 -4 9 C-3.34 9 -2.68 9 -2 9 C-2 8.34 -2 7.68 -2 7 C-4.97 7 -7.94 7 -11 7 C-11 6.34 -11 5.68 -11 5 C-8.36 4.67 -5.72 4.34 -3 4 C-3 3.01 -3 2.02 -3 1 C-1 0 -1 0 0 0 Z M-12 7 C-11.67 7 -11.34 7 -11 7 C-11 8.98 -11 10.96 -11 13 C-11.33 13 -11.66 13 -12 13 C-12 11.02 -12 9.04 -12 7 Z " fill="#D0CB96" transform="translate(105,176)"/>
<path d="M0 0 C0.391875 0.154688 0.391875 0.154688 2.375 0.9375 C2.375 1.2675 2.375 1.5975 2.375 1.9375 C-0.595 1.9375 -3.565 1.9375 -6.625 1.9375 C-6.625 1.6075 -6.625 1.2775 -6.625 0.9375 C-11.141176 0.860955 -15.215852 0.835213 -19.625 1.9375 C-13.080819 -3.079706 -7.815821 -2.290844 0 0 Z " fill="#7A765A" transform="translate(78.625,31.0625)"/>
<path d="M0 0 C0.800508 0.034805 1.601016 0.069609 2.425781 0.105469 C2.829902 0.119004 2.829902 0.119004 4.875 0.1875 C5.489883 0.222305 6.104766 0.257109 6.738281 0.292969 C6.738281 0.622969 6.738281 0.952969 6.738281 1.292969 C9.378281 1.622969 12.018281 1.952969 14.738281 2.292969 C14.738281 2.622969 14.738281 2.952969 14.738281 3.292969 C8.138281 3.292969 1.538281 3.292969 -5.261719 3.292969 C-2.261719 0.292969 -2.261719 0.292969 0 0 Z " fill="#F9F7E5" transform="translate(66.26171875,30.70703125)"/>
<path d="M0 0 C0.886875 0.391875 1.77375 0.78375 2.6875 1.1875 C0.619937 3.984791 -0.456904 4.214423 -4 4.875 C-5.093125 4.978125 -6.18625 5.08125 -7.3125 5.1875 C-7.6425 4.1975 -7.9725 3.2075 -8.3125 2.1875 C-5.092798 -0.274625 -4.046231 -0.992472 0 0 Z " fill="#D3CFA4" transform="translate(101.3125,168.8125)"/>
<path d="M0 0 C4.769231 4.307692 4.769231 4.307692 5 8 C4.0625 10.25 4.0625 10.25 3 12 C2.01 11.34 1.02 10.68 0 10 C0 9.01 0 8.02 0 7 C-0.185625 6.154375 -0.37125 5.30875 -0.5625 4.4375 C-1 2 -1 2 0 0 Z " fill="#ABA787" transform="translate(187,60)"/>
<path d="M0 0 C1.32 0 2.64 0 4 0 C4.33 1.32 4.66 2.64 5 4 C2.291207 5.354397 -0.009333 5.065015 -3 5 C-3 4.01 -3 3.02 -3 2 C-2.01 2 -1.02 2 0 2 C0 1.34 0 0.68 0 0 Z " fill="#F9F7E1" transform="translate(118,170)"/>
<path d="M0 0 C1.32 0.66 2.64 1.32 4 2 C2.760557 2.869415 1.507929 3.720055 0.25 4.5625 C-0.446094 5.038164 -1.142188 5.513828 -1.859375 6.003906 C-4 7 -4 7 -6.265625 6.652344 C-6.837969 6.43707 -7.410313 6.221797 -8 6 C-7.01 6 -6.02 6 -5 6 C-4.67 4.68 -4.34 3.36 -4 2 C-2.68 2 -1.36 2 0 2 C0 1.34 0 0.68 0 0 Z " fill="#9F9C82" transform="translate(138,141)"/>
<path d="M0 0 C0.144375 0.61875 0.28875 1.2375 0.4375 1.875 C1 4 1 4 2 6 C1.639063 6.103125 1.639063 6.103125 -0.1875 6.625 C-3.925531 8.452482 -5.492469 10.704388 -8 14 C-8 9.96619 -6.404264 8.505664 -4 5.3125 C-3.2575 4.318633 -2.515 3.324766 -1.75 2.300781 C-1.1725 1.541523 -0.595 0.782266 0 0 Z " fill="#787559" transform="translate(49,59)"/>
<path d="M0 0 C2.97 0 5.94 0 9 0 C8.67 0.99 8.34 1.98 8 3 C5.03 3 2.06 3 -1 3 C-0.67 2.01 -0.34 1.02 0 0 Z " fill="#F9F7DF" transform="translate(95,182)"/>
<path d="M0 0 C1.485 0.66 1.485 0.66 9 4 C4.644679 6.177661 3.53374 6.030396 -1 5 C-0.67 3.35 -0.34 1.7 0 0 Z M2 6 C4 7 4 7 4 7 Z " fill="#A5A286" transform="translate(90,49)"/>
<path d="M0 0 C1.65 0.33 3.3 0.66 5 1 C4.01 1.33 3.02 1.66 2 2 C2 4.31 2 6.62 2 9 C0.68 8.67 -0.64 8.34 -2 8 C-2 7.34 -2 6.68 -2 6 C-1.34 6 -0.68 6 0 6 C-0.092812 5.690625 -0.092812 5.690625 -0.5625 4.125 C-1 2 -1 2 0 0 Z " fill="#999570" transform="translate(68,49)"/>
<path d="M0 0 C2.31 0 4.62 0 7 0 C7 1.32 7 2.64 7 4 C7.99 3.67 8.98 3.34 10 3 C10 3.66 10 4.32 10 5 C5.25 4.125 5.25 4.125 3 3 C2.67 3.66 2.34 4.32 2 5 C1.34 3.35 0.68 1.7 0 0 Z " fill="#888569" transform="translate(113,187)"/>
<path d="M0 0 C1.467268 3.814897 0.433364 6.290116 -1 10 C-1.99 10 -2.98 10 -4 10 C-4.33 10.66 -4.66 11.32 -5 12 C-4.423659 7.245184 -2.449315 4.029518 0 0 Z " fill="#96947B" transform="translate(158,51)"/>
<path d="M0 0 C0.33 1.32 0.66 2.64 1 4 C-1.97 3.67 -4.94 3.34 -8 3 C-8 2.34 -8 1.68 -8 1 C-5.107657 0.173616 -3.112576 0 0 0 Z " fill="#838061" transform="translate(140,170)"/>
<path d="M0 0 C1.32 0 2.64 0 4 0 C4 0.99 4 1.98 4 3 C-0.62 3 -5.24 3 -10 3 C-10 2.67 -10 2.34 -10 2 C-9.680957 1.969707 -9.680957 1.969707 -8.066406 1.816406 C-7.653262 1.774512 -7.653262 1.774512 -5.5625 1.5625 C-4.738789 1.481289 -3.915078 1.400078 -3.066406 1.316406 C-1 1 -1 1 0 0 Z " fill="#F9F8E7" transform="translate(95,54)"/>
<path d="M0 0 C2.97 0 5.94 0 9 0 C9 0.33 9 0.66 9 1 C7.35 1.33 5.7 1.66 4 2 C3.67 2.99 3.34 3.98 3 5 C1.02 4.34 -0.96 3.68 -3 3 C-2.01 2.67 -1.02 2.34 0 2 C0 1.34 0 0.68 0 0 Z " fill="#B1AD84" transform="translate(76,47)"/>
<path d="M0 0 C0.33 0 0.66 0 1 0 C1 1.65 1 3.3 1 5 C-1.31 4.67 -3.62 4.34 -6 4 C-6 3.01 -6 2.02 -6 1 C-5.01 1.165 -5.01 1.165 0 2 C0 1.34 0 0.68 0 0 Z " fill="#6D6B58" transform="translate(148,87)"/>
<path d="M0 0 C2.31 0 4.62 0 7 0 C6.67 0.99 6.34 1.98 6 3 C3.69 3 1.38 3 -1 3 C-0.67 2.01 -0.34 1.02 0 0 Z " fill="#F9F7E1" transform="translate(133,186)"/>
<path d="M0 0 C2.31 0 4.62 0 7 0 C6.67 0.99 6.34 1.98 6 3 C4.35 3.33 2.7 3.66 1 4 C0.67 2.68 0.34 1.36 0 0 Z " fill="#F9F7E1" transform="translate(76,186)"/>
<path d="M0 0 C0.33 0 0.66 0 1 0 C1.054376 1.582948 1.092963 3.166443 1.125 4.75 C1.148203 5.631719 1.171406 6.513438 1.195312 7.421875 C0.991395 10.113586 0.365517 11.69905 -1 14 C-1 12.35 -1 10.7 -1 9 C-1.66 8.67 -2.32 8.34 -3 8 C-2.34 8 -1.68 8 -1 8 C-0.67 5.36 -0.34 2.72 0 0 Z " fill="#5B5945" transform="translate(85,175)"/>
<path d="M0 0 C2 2 2 2 2 5 C0.02 5.33 -1.96 5.66 -4 6 C-4.33 5.34 -4.66 4.68 -5 4 C-3.35 3.34 -1.7 2.68 0 2 C0 1.34 0 0.68 0 0 Z " fill="#C0BC8B" transform="translate(180,116)"/>
<path d="M0 0 C0.66 0.33 1.32 0.66 2 1 C0.730469 2.497396 -0.539062 3.994792 -1.808594 5.492188 C-3 7 -3 7 -4 9 C-4.66 9 -5.32 9 -6 9 C-4.838573 4.644649 -3.923005 2.353803 0 0 Z " fill="#7D7A60" transform="translate(57,33)"/>
<path d="M0 0 C0.33 0 0.66 0 1 0 C1.33 2.97 1.66 5.94 2 9 C0.845 8.34 0.845 8.34 -5 5 C-5 4.67 -5 4.34 -5 4 C-3.35 4 -1.7 4 0 4 C0 2.68 0 1.36 0 0 Z " fill="#5F5C4B" transform="translate(86,64)"/>
<path d="M0 0 C0 1.32 0 2.64 0 4 C-2.31 4 -4.62 4 -7 4 C-7.33 3.01 -7.66 2.02 -8 1 C-2.25 0 -2.25 0 0 0 Z " fill="#F9F8E7" transform="translate(90,49)"/>
<path d="M0 0 C2.64 0 5.28 0 8 0 C8 0.66 8 1.32 8 2 C5.69 2.33 3.38 2.66 1 3 C0.67 2.01 0.34 1.02 0 0 Z " fill="#9A988B" transform="translate(161,48)"/>
<path d="M0 0 C3.161158 1.369835 3.992709 1.989064 6 5 C5.01 4.835 5.01 4.835 0 4 C-0.33 3.01 -0.66 2.02 -1 1 C-0.67 0.67 -0.34 0.34 0 0 Z " fill="#AEAB8E" transform="translate(125,69)"/>
<path d="M0 0 C0.99 0.33 1.98 0.66 3 1 C2.67 3.97 2.34 6.94 2 10 C1.67 10 1.34 10 1 10 C0.67 6.7 0.34 3.4 0 0 Z " fill="#969377" transform="translate(86,149)"/>
<path d="M0 0 C2 2 2 2 2 6 C0.35 5.67 -1.3 5.34 -3 5 C-2.67 4.01 -2.34 3.02 -2 2 C-1.34 2 -0.68 2 0 2 C0 1.34 0 0.68 0 0 Z " fill="#A4A078" transform="translate(86,36)"/>
<path d="M0 0 C0.144375 0.61875 0.28875 1.2375 0.4375 1.875 C1 4 1 4 2 6 C0.35 6 -1.3 6 -3 6 C-2.01 4.02 -1.02 2.04 0 0 Z " fill="#98946F" transform="translate(49,59)"/>
<path d="M0 0 C4.875 1.75 4.875 1.75 6 4 C4.02 4 2.04 4 0 4 C0 2.68 0 1.36 0 0 Z " fill="#98946F" transform="translate(178,54)"/>
<path d="M0 0 C0.66 0.33 1.32 0.66 2 1 C2.625 3.0625 2.625 3.0625 3 5 C1.35 4.67 -0.3 4.34 -2 4 C-1.34 3.67 -0.68 3.34 0 3 C0 2.01 0 1.02 0 0 Z " fill="#9B987D" transform="translate(115,160)"/>
<path d="M0 0 C2.31 0 4.62 0 7 0 C4.352611 1.460629 3.105517 2 0 2 C0 1.34 0 0.68 0 0 Z " fill="#BBB788" transform="translate(113,187)"/>
<path d="M0 0 C0.66 0.33 1.32 0.66 2 1 C1.34 2.65 0.68 4.3 0 6 C-0.66 4.68 -1.32 3.36 -2 2 C-1.34 2 -0.68 2 0 2 C0 1.34 0 0.68 0 0 Z " fill="#928F6B" transform="translate(140,185)"/>
<path d="M0 0 C0.66 0 1.32 0 2 0 C1.67 1.65 1.34 3.3 1 5 C0.67 4.34 0.34 3.68 0 3 C-0.66 2.67 -1.32 2.34 -2 2 C-1.34 2 -0.68 2 0 2 C0 1.34 0 0.68 0 0 Z " fill="#928F6B" transform="translate(103,183)"/>
<path d="M0 0 C0 0.66 0 1.32 0 2 C-0.99 2.33 -1.98 2.66 -3 3 C-3.66 2.34 -4.32 1.68 -5 1 C-3 0 -3 0 0 0 Z M-5 3 C-3 4 -3 4 -3 4 Z " fill="#D0CB96" transform="translate(142,174)"/>
<path d="M0 0 C1.32 0.66 2.64 1.32 4 2 C1.69 2.33 -0.62 2.66 -3 3 C-2.01 2.01 -1.02 1.02 0 0 Z " fill="#696755" transform="translate(98,168)"/>
<path d="M0 0 C1.32 0 2.64 0 4 0 C4.33 1.32 4.66 2.64 5 4 C2 3 2 3 0 0 Z " fill="#5B5945" transform="translate(118,170)"/>
<path d="M0 0 C0.825 0.165 0.825 0.165 5 1 C3.68 1.99 2.36 2.98 1 4 C0.67 2.68 0.34 1.36 0 0 Z " fill="#9F9B7B" transform="translate(125,147)"/>
<path d="M0 0 C1.32 0.33 2.64 0.66 4 1 C2.68 1.99 1.36 2.98 0 4 C0 2.68 0 1.36 0 0 Z " fill="#9F9B7B" transform="translate(153,126)"/>
<path d="M0 0 C0.99 0 1.98 0 3 0 C3 0.99 3 1.98 3 3 C2.01 3 1.02 3 0 3 C0 2.01 0 1.02 0 0 Z " fill="#AEAA86" transform="translate(136,189)"/>
<path d="M0 0 C0.66 0.33 0.66 0.33 4 2 C3.34 2.33 3.34 2.33 0 4 C0 2.68 0 1.36 0 0 Z " fill="#95927D" transform="translate(138,141)"/>
<path d="M0 0 C0.99 0 1.98 0 3 0 C3 0.99 3 1.98 3 3 C2.01 3 1.02 3 0 3 C0 2.01 0 1.02 0 0 Z " fill="#E0DCB9" transform="translate(140,139)"/>
<path d="M0 0 C0.33 1.32 0.66 2.64 1 4 C0.01 4.33 -0.98 4.66 -2 5 C-1.34 3.35 -0.68 1.7 0 0 Z " fill="#7C7963" transform="translate(158,51)"/>
<path d="M0 0 C0.66 0.99 1.32 1.98 2 3 C1.01 3 0.02 3 -1 3 C-0.67 2.01 -0.34 1.02 0 0 Z " fill="#98946F" transform="translate(139,85)"/>
<path d="M0 0 C0.66 0.99 1.32 1.98 2 3 C1.01 3 0.02 3 -1 3 C-0.67 2.01 -0.34 1.02 0 0 Z " fill="#98946F" transform="translate(187,60)"/>
<path d="M0 0 C0.66 0.99 1.32 1.98 2 3 C1.01 3 0.02 3 -1 3 C-0.67 2.01 -0.34 1.02 0 0 Z " fill="#888564" transform="translate(137,82)"/>
</svg>
