<?xml version="1.0" encoding="UTF-8"?>
<!-- Generator: visioncortex VTracer 0.6.12 -->
<svg version="1.1" xmlns="http://www.w3.org/2000/svg" width="270" height="338">
<path d="M0,0 L270,0 L270,338 L0,338 Z M30,20 L28,25 L28,22 L26,22 L26,103 L27,103 L29,132 L31,131 L31,147 L34,168 L36,177 L36,184 L38,185 L53,185 L53,182 L50,177 L49,164 L51,157 L51,151 L50,150 L53,140 L54,144 L57,138 L58,133 L66,123 L69,117 L69,115 L71,115 L74,108 L76,98 L78,99 L77,94 L78,92 L71,88 L69,86 L67,85 L69,76 L74,74 L74,72 L80,70 L87,68 L87,67 L92,66 L114,65 L113,67 L100,68 L86,71 L86,73 L80,75 L75,81 L77,85 L86,87 L99,85 L114,86 L137,86 L136,84 L140,83 L142,84 L144,79 L146,79 L147,73 L149,73 L152,63 L152,60 L155,57 L154,52 L157,46 L162,45 L168,41 L170,36 L177,35 L179,36 L180,33 L180,30 L189,28 L198,31 L203,32 L209,35 L211,35 L208,41 L210,43 L213,42 L215,48 L219,53 L223,54 L225,60 L223,60 L219,68 L217,76 L211,79 L211,80 L204,81 L203,83 L206,89 L206,94 L205,97 L206,101 L204,101 L201,97 L199,98 L201,102 L203,104 L201,106 L204,106 L205,109 L206,107 L205,103 L207,103 L207,112 L206,118 L202,118 L201,121 L197,125 L197,129 L195,130 L194,125 L192,125 L190,119 L189,117 L185,117 L187,123 L189,137 L188,158 L190,158 L190,165 L192,169 L192,178 L196,176 L196,171 L200,176 L204,179 L206,184 L210,185 L234,185 L235,188 L235,181 L237,172 L237,165 L239,165 L239,134 L242,134 L243,119 L243,95 L244,81 L244,23 L240,22 L240,20 Z M158,79 L155,81 L164,84 L169,88 L173,89 L172,91 L177,95 L182,100 L183,97 L182,92 L180,92 L178,87 L174,85 L173,82 L170,81 L170,80 Z M195,77 L194,81 L192,78 L191,81 L195,90 L190,86 L185,83 L183,83 L183,81 L178,79 L180,84 L181,86 L183,86 L183,90 L185,90 L187,98 L190,97 L195,101 L196,96 L199,98 L200,94 L197,87 L196,77 Z M157,87 L157,91 L155,88 L153,94 L154,96 L149,101 L146,107 L151,111 L154,112 L153,116 L155,119 L158,125 L160,125 L161,127 L160,119 L161,118 L163,97 L168,95 L169,92 L159,87 Z M145,88 L135,91 L98,91 L94,93 L96,93 L96,95 L87,95 L88,98 L84,101 L81,105 L77,117 L78,126 L81,123 L79,117 L84,118 L84,116 L87,117 L91,111 L94,109 L94,107 L100,105 L118,106 L126,110 L131,114 L136,115 L136,117 L138,117 L138,119 L141,121 L146,121 L141,111 L136,106 L132,107 L132,105 L130,105 L129,100 L141,97 L145,93 L147,88 Z M103,112 L101,118 L99,118 L96,125 L93,127 L88,130 L85,130 L84,134 L89,133 L91,132 L91,130 L100,127 L106,122 L105,120 L115,119 L114,116 L110,116 L110,114 L118,117 L121,117 L121,115 L115,112 Z M181,129 L180,138 L180,156 L182,159 L182,165 L188,174 L190,174 L189,169 L187,165 L185,165 L185,129 L184,129 L183,144 L183,136 L182,129 Z M168,128 L164,134 L164,136 L156,137 L157,132 L135,132 L135,130 L131,131 L131,132 L129,132 L126,143 L122,149 L115,154 L113,154 L112,157 L112,160 L111,160 L111,165 L114,166 L115,169 L120,174 L123,174 L124,177 L131,176 L131,174 L135,173 L137,180 L134,180 L135,183 L141,185 L139,168 L142,157 L143,150 L145,150 L147,144 L151,145 L158,145 L161,145 L163,146 L163,152 L165,153 L166,146 L168,146 L168,152 L163,157 L159,163 L156,164 L156,166 L154,166 L154,174 L157,179 L164,178 L163,184 L164,185 L181,185 L180,180 L178,169 L176,162 L174,160 L170,145 L170,132 Z M65,140 L63,142 L61,143 L58,150 L57,150 L57,157 L55,157 L54,164 L56,174 L58,170 L59,162 L59,159 L61,159 L62,152 L64,152 L68,146 L71,140 Z M100,134 L95,139 L97,139 L97,142 L95,141 L83,145 L71,152 L68,158 L68,160 L66,160 L64,163 L63,163 L64,173 L66,175 L66,173 L73,175 L75,178 L73,179 L75,180 L74,185 L115,185 L112,181 L109,181 L110,178 L102,170 L97,171 L90,166 L93,157 L97,150 L99,151 L100,145 L101,134 Z M233,188 L38,189 L39,193 L41,193 L42,200 L46,206 L49,207 L228,207 L231,204 L234,192 Z M47,213 L47,218 L50,219 L52,224 L56,230 L60,230 L60,232 L219,232 L221,226 L223,218 L222,215 L226,214 L226,213 Z M62,238 L64,244 L70,252 L71,255 L203,254 L209,245 L212,238 Z M189,260 L77,261 L78,263 L80,263 L82,267 L90,274 L95,279 L99,280 L181,280 L189,272 L191,268 L192,265 L195,265 L196,261 Z M102,286 L107,291 L113,294 L124,301 L132,306 L141,310 L154,301 L159,298 L166,292 L173,289 L173,287 L169,286 Z " fill="#F3F1EE" transform="translate(0,0)"/>
<path d="M0,0 L167,0 L201,1 L205,5 L206,18 L206,58 L203,115 L202,119 L200,144 L198,155 L198,158 L181,157 L171,152 L167,149 L162,147 L158,136 L157,131 L157,119 L160,108 L163,108 L170,99 L172,99 L175,88 L175,76 L168,59 L169,58 L176,57 L180,54 L182,53 L185,43 L188,37 L190,37 L188,31 L183,29 L181,25 L182,14 L179,12 L178,7 L172,4 L148,4 L143,5 L143,7 L134,11 L133,13 L128,16 L130,20 L124,23 L122,23 L119,29 L120,34 L118,36 L117,34 L114,37 L114,31 L115,29 L113,29 L110,22 L105,21 L104,16 L100,14 L96,13 L96,15 L88,16 L88,15 L83,15 L86,17 L82,21 L80,20 L80,22 L86,23 L91,26 L89,27 L86,26 L92,28 L97,28 L97,27 L104,27 L106,28 L106,30 L98,35 L89,37 L67,39 L50,42 L41,45 L37,48 L37,51 L33,55 L30,58 L31,65 L33,69 L38,72 L37,81 L35,90 L33,96 L27,105 L23,108 L21,108 L18,112 L15,121 L11,143 L11,156 L14,154 L15,159 L7,160 L3,158 L4,155 L4,154 L2,148 L1,134 L0,134 L-1,125 L-2,121 L-4,100 L-5,77 L-6,62 L-6,23 L-5,4 L-3,1 Z " fill="#F8F8F8" transform="translate(35,23)"/>
<path d="M0,0 L187,0 L190,3 L186,14 L185,16 L7,16 L2,13 L-2,2 Z " fill="#FAFAFA" transform="translate(42,191)"/>
<path d="M0,0 L169,0 L171,5 L169,11 L167,14 L164,15 L99,16 L8,16 L4,15 L-3,4 Z " fill="#F9F9F9" transform="translate(52,215)"/>
<path d="M0,0 L150,0 L144,12 L141,16 L9,17 L5,10 L0,2 Z " fill="#F9F9F9" transform="translate(62,238)"/>
<path d="M0,0 L113,0 L115,2 L110,9 L104,16 L101,18 L20,18 L13,15 L7,8 L1,3 Z " fill="#F9F9F8" transform="translate(79,262)"/>
<path d="M0,0 L1,3 L0,11 L-1,17 L-3,16 L-10,30 L-9,33 L-1,39 L2,42 L3,47 L7,48 L8,45 L11,48 L8,49 L-20,49 L-24,44 L-26,40 L-34,37 L-34,30 L-30,20 L-26,16 L-15,10 L-4,7 L-3,7 L-3,5 L-5,4 Z " fill="#F8F8F7" transform="translate(100,134)"/>
<path d="M0,0 L57,0 L59,1 L59,4 L52,9 L50,11 L45,14 L32,23 L16,15 L7,9 L-2,2 Z " fill="#F9F9F9" transform="translate(109,287)"/>
<path d="M0,0 L9,0 L7,6 L5,13 L0,15 L-6,16 L-26,16 L-31,15 L-45,16 L-54,17 L-57,15 L-56,12 L-55,11 L-59,14 L-57,18 L-44,17 L-48,19 L-54,20 L-60,18 L-62,13 L-55,7 L-51,5 L-47,6 L-43,5 L-38,4 L-21,3 Z " fill="#F8F8F8" transform="translate(137,67)"/>
<path d="M0,0 L11,3 L9,18 L8,28 L6,30 L5,29 L2,38 L-1,40 L-6,39 L-12,35 L-16,28 L-16,22 L-11,17 L-6,11 L-1,1 Z " fill="#F9F9F9" transform="translate(131,134)"/>
<path d="M0,0 L210,0 L210,2 L214,3 L214,18 L211,19 L211,6 L208,4 L208,2 L204,3 L3,3 L0,4 Z " fill="#CEBEA3" transform="translate(30,20)"/>
<path d="M0,0 L1,4 L-2,16 L-5,19 L-6,17 L-2,6 L-4,4 L-191,4 L-194,5 L-195,1 Z " fill="#A27B46" transform="translate(233,188)"/>
<path d="M0,0 L6,1 L7,3 L10,6 L10,9 L15,10 L17,13 L17,17 L19,17 L19,24 L21,20 L22,24 L21,29 L18,28 L17,24 L15,24 L13,18 L10,24 L4,27 L-1,27 L3,25 L5,23 L8,18 L10,18 L10,16 L6,17 L-4,17 L-12,14 L-13,12 L-8,13 L-14,11 L-17,10 L-15,6 L-13,8 L-11,5 L-15,2 L-7,2 L-5,3 Z " fill="#A49984" transform="translate(131,35)"/>
<path d="M0,0 L179,0 L178,2 L174,3 L5,3 L1,6 L0,2 Z " fill="#9F7B44" transform="translate(47,213)"/>
<path d="M0,0 L11,0 L31,2 L32,6 L34,10 L30,9 L24,10 L20,9 L4,9 L-3,12 L-10,18 L-13,22 L-15,22 L-13,12 L-6,4 Z " fill="#F8F8F8" transform="translate(96,94)"/>
<path d="M0,0 L2,4 L2,17 L4,27 L2,25 L2,22 L0,22 L0,18 L-2,18 L-3,25 L-5,24 L-5,18 L-7,17 L-10,17 L-17,17 L-21,16 L-23,22 L-26,22 L-26,14 L-23,10 L-33,6 L-33,5 L-11,4 L-12,9 L-4,8 L-2,3 Z " fill="#BAAF98" transform="translate(168,128)"/>
<path d="M0,0 L2,0 L6,11 L8,18 L8,25 L3,23 L-6,19 L-11,15 L-10,10 L-7,9 L-1,1 Z " fill="#F8F8F8" transform="translate(166,154)"/>
<path d="M0,0 L2,3 L5,15 L5,21 L6,23 L-11,23 L-12,18 L-11,16 L-18,17 L-21,12 L-21,4 L-18,5 L-17,9 L-7,13 L-3,18 L0,19 L1,9 Z " fill="#A3957A" transform="translate(175,162)"/>
<path d="M0,0 L2,4 L2,27 L0,27 L-1,40 L-2,44 L-2,50 L-3,47 L-27,47 L-23,45 L-16,44 L-25,42 L-28,39 L-21,41 L-6,42 L-4,43 L-5,38 L-2,21 L-1,4 Z " fill="#534229" transform="translate(237,138)"/>
<path d="M0,0 L1,0 L1,5 L5,3 L9,4 L8,7 L5,10 L5,27 L2,30 L1,25 L-4,23 L-9,18 L-5,12 L-1,8 L-2,4 Z " fill="#CECAC5" transform="translate(155,88)"/>
<path d="M0,0 L4,0 L2,8 L0,8 L-2,13 L-4,12 L-8,13 L-7,15 L-30,15 L-45,14 L-64,14 L-67,10 L-61,5 L-59,6 L-63,9 L-63,11 L-60,12 L-45,10 L-38,10 L-33,11 L-13,11 L-4,10 L-3,8 L-2,4 Z " fill="#312618" transform="translate(144,71)"/>
<path d="M0,0 L1,0 L2,13 L4,21 L5,30 L7,44 L10,49 L7,48 L6,50 L15,51 L17,50 L18,46 L22,53 L21,54 L6,54 L4,52 L3,41 L0,24 L-1,9 Z " fill="#584930" transform="translate(32,131)"/>
<path d="M0,0 L2,2 L4,7 L4,19 L1,28 L-6,36 L-10,41 L-10,39 L-12,38 L-10,37 L-9,32 L-6,29 L-4,26 L-1,26 L0,13 L0,11 L-2,11 L-1,16 L-3,17 L-3,14 L-6,13 L-4,12 L-8,8 L-7,6 L-5,5 L-3,9 L-1,9 L-2,2 Z " fill="#7A6E58" transform="translate(207,92)"/>
<path d="M0,0 L12,0 L18,3 L18,5 L13,4 L7,2 L7,4 L11,5 L12,7 L2,8 L3,10 L-4,16 L-12,18 L-12,20 L-16,22 L-19,22 L-18,18 L-14,17 L-8,14 L-6,10 L-3,6 L-1,4 Z " fill="#918469" transform="translate(103,112)"/>
<path d="M0,0 L2,3 L2,46 L1,60 L-2,60 L-1,4 Z " fill="#2C1F0A" transform="translate(242,35)"/>
<path d="M0,0 L6,0 L3,6 L-1,12 L-3,12 L-4,19 L-6,19 L-6,27 L-8,34 L-10,30 L-11,21 L-10,17 L-8,17 L-8,10 L-5,6 L-3,3 Z " fill="#99886A" transform="translate(65,140)"/>
<path d="M0,0 L11,2 L10,5 L10,3 L-16,6 L-20,7 L-37,8 L-49,11 L-48,9 L-50,7 L-36,4 L-2,2 L0,1 Z " fill="#41382A" transform="translate(136,64)"/>
<path d="M0,0 L7,0 L7,2 L11,1 L18,9 L21,16 L16,16 L13,14 L13,12 L11,12 L11,10 L6,9 L1,5 Z " fill="#C2B8A7" transform="translate(125,105)"/>
<path d="M0,0 L1,0 L2,11 L2,34 L1,49 L-3,49 L-3,33 L-2,16 Z " fill="#79684A" transform="translate(241,85)"/>
<path d="M0,0 L1,0 L2,8 L-1,8 L-2,10 L-10,13 L-10,14 L-15,15 L-30,15 L-30,13 L-45,13 L-45,12 L-9,9 L-3,7 L-1,1 Z " fill="#F2E5C8" transform="translate(144,52)"/>
<path d="M0,0 L1,4 L1,11 L8,13 L11,16 L13,20 L14,22 L42,22 L46,21 L49,25 L8,25 L9,20 L7,18 L9,18 L5,14 L0,13 L-1,15 L-3,9 L-3,3 L-1,3 Z " fill="#775E35" transform="translate(66,160)"/>
<path d="M0,0 L2,3 L0,7 L-2,14 L-4,15 L-4,10 L-7,22 L-6,22 L-6,28 L-8,35 L-8,48 L-12,51 L-12,37 L-8,15 L-4,4 Z " fill="#564B3A" transform="translate(57,129)"/>
<path d="M0,0 L12,1 L13,3 L16,4 L16,6 L20,8 L22,13 L24,13 L25,21 L20,18 L16,13 L14,11 L14,9 L9,8 L6,5 L-3,2 Z " fill="#97896E" transform="translate(158,79)"/>
<path d="M0,0 L1,0 L2,7 L2,22 L3,0 L4,0 L4,36 L6,36 L9,42 L9,45 L6,44 L1,36 L0,27 L-1,27 L-1,9 Z " fill="#806538" transform="translate(181,129)"/>
<path d="M0,0 L2,1 L2,16 L3,63 L1,63 L1,81 L0,81 Z " fill="#C1AA82" transform="translate(26,22)"/>
<path d="M0,0 L2,0 L4,19 L6,19 L9,26 L16,29 L20,33 L18,35 L18,33 L10,31 L7,27 L7,33 L3,34 L3,25 L1,21 L1,14 L-1,14 Z " fill="#80745D" transform="translate(189,144)"/>
<path d="M0,0 L7,1 L6,5 L4,4 L3,3 L-111,3 L-112,1 Z " fill="#823429" transform="translate(189,260)"/>
<path d="M0,0 L2,4 L1,5 L-62,5 L-61,3 L0,2 Z " fill="#97653C" transform="translate(218,227)"/>
<path d="M0,0 L4,4 L-1,4 L-1,7 L-6,6 L-8,5 L-26,4 L-32,6 L-33,9 L-37,13 L-41,14 L-40,10 L-32,3 L-26,1 L-10,1 L0,2 Z " fill="#43392B" transform="translate(126,101)"/>
<path d="M0,0 L3,0 L3,8 L7,15 L14,19 L18,18 L20,17 L23,7 L25,10 L24,21 L22,19 L18,20 L18,22 L11,23 L10,20 L6,19 L2,15 L1,12 L-2,11 L-2,6 L0,6 L-1,2 Z " fill="#514634" transform="translate(113,154)"/>
<path d="M0,0 L9,3 L12,6 L11,8 L6,10 L4,31 L3,34 L4,40 L3,38 L1,38 L-3,29 L-3,26 L0,26 L0,30 L2,28 L2,10 L6,7 L6,5 L0,6 Z " fill="#473B28" transform="translate(157,87)"/>
<path d="M0,0 Z M-43,0 L-5,0 L0,1 L0,2 L-96,2 L-96,1 Z " fill="#96633A" transform="translate(156,230)"/>
<path d="M0,0 L37,1 L37,2 L30,3 L34,3 L35,8 L29,9 L28,7 L29,5 L9,4 L-2,3 L-4,1 Z " fill="#352C1E" transform="translate(98,91)"/>
<path d="M0,0 L1,0 L3,15 L4,46 L1,47 L0,32 Z " fill="#392E1F" transform="translate(28,85)"/>
<path d="M0,0 L2,1 L0,5 L-4,9 L-9,10 L-15,10 L-13,9 L-13,6 L-18,7 L-37,6 L-37,5 L-10,5 L-10,3 Z " fill="#C3BEB4" transform="translate(145,88)"/>
<path d="M0,0 L1,0 L3,14 L5,19 L3,21 L1,19 L0,24 L-5,19 L-6,14 L-5,9 L0,13 L-4,3 L-2,1 L-1,4 Z " fill="#746853" transform="translate(195,77)"/>
<path d="M0,0 L2,1 L3,3 L-5,6 L-12,7 L-33,7 L-33,5 L-5,2 Z " fill="#5F5549" transform="translate(135,56)"/>
<path d="M0,0 L6,0 L8,4 L10,6 L7,14 L3,13 L3,10 L5,10 L5,7 L-4,6 L-8,8 L-8,6 L-11,5 L0,3 Z " fill="#C5BEAD" transform="translate(142,59)"/>
<path d="M0,0 L3,1 L2,4 L1,23 L1,62 L0,62 L-1,54 L-2,7 Z " fill="#221809" transform="translate(29,23)"/>
<path d="M0,0 L8,0 L13,1 L13,2 L-7,5 L-7,6 L-16,9 L-20,10 L-20,12 L-22,11 L-22,8 L-16,4 Z " fill="#544939" transform="translate(94,62)"/>
<path d="M0,0 L67,0 L71,1 L70,4 L66,5 L66,2 L7,2 L7,4 L8,6 L3,4 Z " fill="#A47B45" transform="translate(102,286)"/>
<path d="M0,0 L2,3 L6,14 L8,24 L6,31 L2,30 L1,28 L5,29 L2,15 L-1,4 L-3,3 Z " fill="#41382C" transform="translate(169,150)"/>
<path d="M0,0 L7,0 L2,5 L-3,11 L-6,21 L0,18 L1,20 L-1,22 L-3,21 L-4,23 L-8,22 L-6,29 L-9,31 L-10,22 L-6,10 L-3,6 L1,2 Z " fill="#2F2618" transform="translate(87,95)"/>
<path d="M0,0 L5,1 L12,8 L9,12 L-16,12 L-16,11 L5,11 L2,5 L0,1 Z " fill="#6F6451" transform="translate(98,170)"/>
<path d="M0,0 L1,0 L1,6 L-2,17 L0,34 L-6,32 L-6,29 L-4,28 L-4,15 L-2,1 Z " fill="#96825D" transform="translate(141,151)"/>
<path d="M0,0 L70,0 L70,1 L46,2 L-1,2 Z " fill="#2C1F0A" transform="translate(88,22)"/>
<path d="M0,0 L9,1 L14,4 L30,6 L30,7 L6,8 L3,2 Z " fill="#E3DBCB" transform="translate(200,176)"/>
<path d="M0,0 L5,2 L5,4 L10,6 L12,12 L12,19 L9,19 L7,11 L5,11 L5,7 L3,7 L0,2 Z " fill="#AAA295" transform="translate(178,79)"/>
<path d="M0,0 L36,0 L38,2 L40,4 L39,19 L38,19 L37,6 L34,3 L0,2 Z " fill="#291E0C" transform="translate(202,22)"/>
<path d="M0,0 L4,1 L5,4 L3,6 L2,5 L-5,6 L-7,11 L-10,13 L-13,9 L-10,6 L-7,6 L-5,2 Z " fill="#8B7B61" transform="translate(175,30)"/>
<path d="M0,0 L2,1 L2,3 L6,5 L4,16 L1,12 L1,10 L-3,11 L-4,8 L-2,6 Z " fill="#8F887E" transform="translate(212,32)"/>
<path d="M0,0 L4,0 L4,2 L8,3 L5,4 L15,7 L12,12 L12,25 L9,22 L10,10 L11,7 L4,6 L0,5 L-3,8 L-2,2 L1,2 Z " fill="#372E1E" transform="translate(131,130)"/>
<path d="M0,0 L4,0 L8,10 L7,22 L4,20 L2,6 Z " fill="#A89B80" transform="translate(185,117)"/>
<path d="M0,0 L3,1 L3,8 L1,17 L1,29 L2,38 L0,36 L-2,19 L-2,5 L0,7 Z " fill="#2C210E" transform="translate(192,125)"/>
<path d="M0,0 L44,0 L42,2 L0,2 Z " fill="#2C1F0A" transform="translate(158,22)"/>
<path d="M0,0 L52,0 L54,2 L-1,2 Z M54,0 Z " fill="#2C1F0A" transform="translate(33,22)"/>
<path d="M0,0 L2,3 L2,8 L5,9 L9,13 L13,16 L13,18 L12,22 L12,19 L7,17 L0,11 L-1,4 Z " fill="#93866C" transform="translate(65,77)"/>
<path d="M0,0 L8,0 L12,1 L16,4 L15,8 L9,6 L5,4 L-3,3 L0,2 Z " fill="#A18E6D" transform="translate(196,27)"/>
<path d="M0,0 L24,0 L32,4 L30,7 L25,3 L17,3 L13,2 L3,2 L-5,4 L-5,2 Z " fill="#23190B" transform="translate(183,26)"/>
<path d="M0,0 L8,6 L10,10 L7,22 L5,27 L3,23 L7,7 L2,5 Z " fill="#42382B" transform="translate(66,88)"/>
</svg>
