<?xml version="1.0" encoding="UTF-8"?>
<!-- Generator: visioncortex VTracer 0.6.12 -->
<svg version="1.1" xmlns="http://www.w3.org/2000/svg" width="363" height="344">
<path d="M0,0 L363,0 L363,344 L0,344 Z M219,20 L214,21 L215,23 L211,26 L210,30 L208,34 L208,36 L206,36 L204,39 L203,44 L202,44 L201,42 L198,43 L198,46 L196,47 L199,54 L194,56 L192,51 L191,45 L190,38 L184,34 L169,31 L165,26 L159,23 L140,23 L135,21 L132,21 L128,25 L128,37 L125,38 L124,36 L122,36 L121,41 L116,40 L106,43 L104,48 L105,51 L103,51 L103,53 L98,54 L95,57 L93,56 L93,58 L86,59 L88,60 L88,62 L84,62 L82,66 L82,72 L81,74 L79,73 L78,80 L80,80 L80,85 L78,88 L75,90 L71,92 L54,92 L53,95 L54,97 L51,96 L50,99 L50,101 L49,103 L43,103 L39,106 L40,108 L37,107 L33,114 L33,119 L31,121 L29,126 L28,129 L25,129 L25,131 L22,132 L25,133 L25,141 L23,151 L21,152 L32,158 L34,158 L36,164 L45,169 L47,171 L46,186 L50,191 L50,189 L55,191 L54,193 L65,195 L68,194 L70,199 L73,201 L80,202 L67,202 L65,201 L64,203 L59,204 L63,205 L63,207 L50,207 L41,210 L42,217 L44,215 L46,219 L49,223 L53,222 L66,222 L73,219 L73,216 L94,216 L100,218 L107,218 L113,213 L116,213 L117,215 L120,212 L119,210 L122,211 L123,207 L128,205 L134,203 L143,205 L147,205 L145,207 L151,207 L150,209 L155,213 L160,212 L158,218 L160,218 L161,222 L160,229 L162,234 L164,234 L163,249 L162,256 L162,267 L163,267 L164,285 L164,288 L161,287 L161,289 L170,290 L172,290 L172,293 L175,293 L176,302 L171,305 L159,303 L157,300 L155,300 L153,292 L152,294 L144,294 L144,290 L146,290 L148,284 L145,284 L146,279 L148,279 L146,274 L144,274 L144,272 L141,272 L141,270 L139,269 L130,269 L128,271 L121,274 L120,276 L118,276 L116,278 L112,278 L110,282 L106,285 L106,288 L104,288 L102,296 L93,296 L92,294 L87,298 L81,299 L78,296 L77,294 L77,283 L75,282 L65,282 L59,285 L58,292 L56,291 L54,300 L50,303 L52,303 L51,308 L45,308 L46,312 L42,311 L39,310 L40,317 L42,319 L45,319 L48,319 L48,321 L67,322 L106,322 L106,323 L130,323 L130,322 L176,322 L216,321 L214,323 L313,323 L325,322 L325,317 L321,317 L323,313 L326,311 L330,309 L329,306 L329,308 L327,307 L328,305 L325,305 L326,299 L318,297 L316,295 L316,297 L307,297 L298,296 L290,296 L290,286 L294,284 L300,282 L309,282 L313,285 L314,293 L315,293 L316,284 L312,280 L308,278 L298,278 L291,279 L282,277 L275,277 L270,278 L270,276 L267,276 L267,274 L262,274 L260,268 L258,265 L246,262 L244,261 L220,261 L211,262 L208,262 L206,253 L205,255 L203,255 L204,247 L203,245 L209,245 L211,244 L211,240 L218,241 L218,238 L220,237 L220,239 L223,238 L224,234 L229,235 L231,234 L231,231 L233,231 L233,229 L235,229 L235,231 L246,230 L252,225 L254,226 L257,222 L256,221 L273,220 L286,221 L292,221 L290,223 L299,223 L302,226 L304,227 L337,227 L334,225 L337,220 L333,218 L321,218 L321,216 L309,213 L298,213 L299,211 L292,211 L290,212 L288,211 L288,209 L283,206 L285,204 L284,203 L290,200 L305,199 L312,198 L315,199 L316,202 L323,202 L330,203 L335,201 L335,199 L333,199 L332,193 L334,187 L336,187 L335,184 L324,183 L305,184 L305,182 L303,182 L304,175 L308,172 L307,171 L315,169 L320,169 L320,167 L322,167 L323,162 L328,160 L334,159 L336,159 L341,151 L340,145 L342,146 L342,136 L339,132 L334,127 L327,121 L319,117 L312,117 L313,112 L309,112 L308,105 L305,97 L305,93 L303,92 L309,90 L312,84 L319,84 L321,83 L321,68 L313,69 L313,67 L311,67 L310,72 L304,71 L300,73 L300,75 L295,74 L292,77 L291,78 L289,69 L286,66 L284,60 L287,59 L292,51 L292,49 L288,49 L288,47 L292,46 L282,44 L278,42 L272,41 L269,37 L261,37 L261,35 L257,36 L258,33 L250,28 L248,28 L248,26 L245,25 L244,23 L239,23 L239,25 L230,26 L230,24 L226,25 L227,22 L224,22 L224,20 Z " fill="#F8F8F8" transform="translate(0,0)"/>
<path d="M0,0 L2,0 L2,2 L10,1 L9,15 L6,15 L0,16 L-3,21 L-9,24 L-11,24 L-11,34 L-11,37 L-17,44 L-21,47 L-31,50 L-33,52 L-35,52 L-37,54 L-36,56 L-40,59 L-48,59 L-55,64 L-61,63 L-64,72 L-68,80 L-68,83 L-68,86 L-56,92 L-54,97 L-47,99 L-45,101 L-43,100 L-38,106 L-38,108 L-35,109 L-33,110 L-20,110 L-15,113 L-14,108 L-7,103 L-5,103 L-5,105 L-3,106 L-7,108 L-8,115 L-6,115 L-6,117 L15,116 L23,118 L19,121 L16,123 L16,125 L9,125 L-3,130 L-12,131 L-22,132 L-38,138 L-41,142 L-25,145 L-20,145 L-19,144 L-12,144 L-13,146 L-2,146 L10,149 L9,152 L21,153 L24,155 L22,157 L-2,157 L-13,154 L-30,154 L-46,153 L-55,154 L-54,156 L-58,159 L-60,159 L-65,163 L-76,164 L-76,162 L-78,162 L-78,164 L-80,164 L-80,167 L-84,168 L-87,167 L-89,172 L-91,172 L-91,170 L-94,172 L-93,174 L-100,173 L-100,177 L-106,178 L-108,178 L-107,183 L-107,192 L-103,204 L-100,217 L-99,222 L-106,225 L-108,229 L-110,237 L-105,239 L-95,242 L-94,243 L-72,245 L-70,246 L-49,246 L-45,247 L-38,247 L-31,244 L-3,244 L6,247 L9,249 L14,250 L14,255 L-46,254 L-85,252 L-85,254 L-64,255 L-64,256 L-97,256 L-95,254 L-144,255 L-181,255 L-181,256 L-205,256 L-202,255 L-202,253 L-261,253 L-265,251 L-264,248 L-254,249 L-251,247 L-231,248 L-224,247 L-213,247 L-199,250 L-199,248 L-192,246 L-192,241 L-185,243 L-182,244 L-180,243 L-181,238 L-178,234 L-174,237 L-172,241 L-170,243 L-164,240 L-160,236 L-149,236 L-139,238 L-135,235 L-136,226 L-139,225 L-139,223 L-146,223 L-150,222 L-149,220 L-147,221 L-147,218 L-145,218 L-145,204 L-147,182 L-147,167 L-149,167 L-151,162 L-150,154 L-151,151 L-153,150 L-151,145 L-157,146 L-161,141 L-162,140 L-166,139 L-164,138 L-173,137 L-177,136 L-177,134 L-182,133 L-186,129 L-186,127 L-182,126 L-181,123 L-178,120 L-169,121 L-169,123 L-162,124 L-153,127 L-146,126 L-141,122 L-139,119 L-135,115 L-134,111 L-134,100 L-137,81 L-140,78 L-142,72 L-145,64 L-142,58 L-134,54 L-130,58 L-122,74 L-116,86 L-111,81 L-102,72 L-96,67 L-93,60 L-93,52 L-98,50 L-100,48 L-95,49 L-90,51 L-90,62 L-84,61 L-85,59 L-75,55 L-73,55 L-72,52 L-70,51 L-69,49 L-67,49 L-66,45 L-62,42 L-60,40 L-61,30 L-55,28 L-57,26 L-56,22 L-54,20 L-47,19 L-42,20 L-41,22 L-39,23 L-35,19 L-26,14 L-25,12 L-19,15 L-18,16 L-15,11 L-6,8 L-10,7 L-10,5 L-4,4 L-1,5 Z M-97,118 L-106,124 L-108,125 L-108,127 L-111,128 L-114,133 L-114,143 L-111,160 L-108,160 L-102,159 L-98,157 L-98,155 L-93,155 L-92,152 L-82,150 L-69,144 L-67,140 L-63,139 L-60,135 L-60,128 L-61,126 L-65,125 L-65,124 L-82,123 L-82,122 L-90,122 L-95,123 L-95,118 Z " fill="#EAEBEA" transform="translate(311,67)"/>
<path d="M0,0 L5,0 L5,2 L8,3 L7,5 L11,4 L11,6 L23,6 L36,16 L39,18 L50,19 L51,27 L61,27 L73,29 L72,33 L67,40 L65,40 L68,48 L67,53 L63,54 L65,60 L56,64 L54,64 L53,68 L41,67 L36,70 L37,75 L31,77 L33,87 L30,90 L26,94 L25,97 L23,98 L21,100 L13,105 L9,107 L8,109 L2,109 L1,100 L-5,96 L-15,98 L-19,100 L-32,99 L-32,97 L-34,96 L-24,88 L-26,84 L-29,84 L-29,82 L-31,81 L-40,81 L-41,73 L-44,72 L-45,68 L-39,66 L-31,63 L-28,61 L-12,61 L-15,52 L-15,48 L-38,48 L-56,43 L-65,44 L-67,52 L-59,52 L-55,54 L-57,58 L-59,61 L-60,64 L-66,64 L-67,67 L-73,67 L-81,71 L-83,71 L-81,78 L-75,80 L-62,81 L-57,83 L-55,86 L-47,88 L-50,94 L-50,96 L-58,96 L-60,98 L-61,101 L-67,102 L-75,98 L-81,98 L-84,96 L-84,93 L-92,89 L-96,83 L-112,79 L-127,72 L-130,72 L-130,70 L-138,71 L-139,74 L-139,60 L-141,60 L-140,53 L-138,54 L-137,49 L-136,42 L-133,42 L-131,42 L-131,40 L-133,39 L-126,38 L-125,36 L-124,37 L-121,34 L-116,33 L-116,31 L-114,31 L-115,26 L-113,23 L-101,20 L-98,21 L-97,16 L-95,16 L-94,18 L-91,17 L-91,5 L-87,1 L-83,2 L-77,3 L-60,3 L-60,5 L-62,6 L-54,9 L-54,11 L-52,11 L-48,15 L-41,19 L-34,19 L-33,21 L-32,18 L-29,18 L-28,25 L-27,31 L-25,36 L-20,34 L-23,26 L-21,26 L-20,22 L-17,23 L-17,25 L-15,22 L-14,18 L-13,16 L-11,16 L-10,10 L-8,10 L-7,5 L-4,3 L-5,1 Z " fill="#F5F6F6" transform="translate(219,20)"/>
<path d="M0,0 L6,0 L17,4 L44,4 L47,17 L43,18 L31,18 L24,22 L18,24 L15,25 L16,28 L18,29 L20,35 L19,37 L28,36 L32,38 L30,38 L30,40 L34,39 L36,44 L26,52 L27,55 L33,54 L40,55 L47,52 L53,52 L58,55 L59,64 L55,71 L40,85 L35,87 L32,83 L29,75 L23,65 L21,57 L18,56 L9,59 L4,69 L-5,74 L-11,79 L-18,82 L-22,86 L-24,92 L-15,94 L-12,96 L-13,103 L-17,109 L-30,107 L-35,108 L-32,109 L-34,117 L-30,119 L-30,121 L-27,122 L-28,126 L-31,128 L-40,129 L-42,133 L-47,135 L-49,136 L-55,137 L-59,139 L-62,137 L-65,134 L-71,136 L-87,137 L-89,130 L-83,127 L-85,127 L-90,129 L-108,124 L-112,123 L-110,112 L-103,104 L-104,103 L-106,103 L-108,107 L-115,98 L-121,95 L-123,89 L-132,88 L-135,87 L-134,77 L-135,69 L-138,68 L-135,67 L-135,65 L-132,65 L-131,62 L-129,57 L-127,55 L-125,56 L-123,52 L-116,42 L-113,39 L-111,39 L-110,37 L-110,34 L-108,32 L-106,33 L-107,29 L-106,28 L-97,28 L-100,29 L-100,31 L-96,33 L-96,30 L-93,31 L-95,31 L-94,33 L-91,32 L-90,30 L-86,32 L-84,34 L-81,34 L-80,32 L-82,32 L-82,30 L-87,29 L-85,25 L-82,24 L-80,21 L-79,27 L-71,26 L-71,28 L-65,30 L-48,38 L-38,40 L-33,43 L-33,45 L-27,47 L-23,50 L-25,50 L-25,52 L-16,53 L-7,57 L-5,56 L-2,57 L-3,53 L1,51 L9,52 L8,49 L10,49 L11,45 L3,42 L1,39 L-3,38 L-16,37 L-22,34 L-24,27 L-13,22 L-8,23 L-8,21 L-11,20 L-1,19 L5,11 L6,9 L-4,6 L-5,3 L-4,1 Z M-64,50 L-68,52 L-68,54 L-77,57 L-80,63 L-62,64 L-55,62 L-50,57 L-53,57 L-54,53 L-61,50 Z " fill="#EDF0EE" transform="translate(160,64)"/>
<path d="M0,0 L2,1 L4,10 L5,12 L6,19 L7,22 L5,28 L15,28 L22,31 L29,34 L31,38 L37,40 L39,43 L39,53 L37,52 L38,58 L33,66 L27,66 L22,69 L20,69 L19,74 L17,74 L16,76 L8,77 L-1,79 L-6,83 L-7,87 L-14,85 L-28,85 L-28,83 L-33,78 L-39,74 L-44,68 L-46,62 L-54,62 L-59,59 L-54,43 L-51,37 L-45,36 L-40,32 L-32,32 L-28,26 L-23,23 L-13,20 L-8,15 L-5,11 L-3,6 L-1,6 Z " fill="#F5F7F6" transform="translate(303,93)"/>
<path d="M0,0 L2,0 L2,5 L7,4 L15,4 L15,5 L32,6 L34,8 L36,8 L37,10 L37,17 L33,22 L30,22 L30,24 L24,28 L12,33 L5,34 L4,37 L-1,37 L-1,39 L-8,42 L-13,43 L-14,42 L-17,25 L-17,15 L-13,9 L-11,9 L-11,7 L-1,1 Z " fill="#F9F9F9" transform="translate(214,185)"/>
<path d="M0,0 L9,0 L5,2 L8,5 L11,7 L10,8 L14,10 L5,15 L3,15 L2,19 L-1,18 L0,21 L-4,23 L-4,21 L-9,22 L-13,26 L-22,26 L-26,24 L-47,24 L-47,27 L-54,30 L-67,30 L-71,31 L-74,27 L-76,23 L-78,25 L-79,18 L-68,15 L-57,15 L-57,13 L-61,12 L-56,11 L-55,9 L-48,10 L-40,10 L-43,8 L-31,7 L-24,5 L-18,10 L-16,10 L-15,8 L-8,7 L-3,4 L-1,2 Z " fill="#D2D9D2" transform="translate(120,192)"/>
<path d="M0,0 L7,0 L10,4 L11,8 L11,23 L9,30 L2,36 L-1,38 L-11,37 L-22,33 L-22,31 L-31,30 L-34,28 L-34,26 L-39,24 L-37,18 L-36,16 L-43,15 L-43,14 L-32,13 L-21,15 L-17,7 L-16,1 L-10,2 L-6,3 Z " fill="#F9F9F9" transform="translate(164,157)"/>
<path d="M0,0 L10,1 L14,7 L15,14 L20,13 L27,10 L32,11 L38,16 L43,22 L45,23 L45,25 L49,27 L51,30 L55,31 L55,33 L51,34 L50,36 L48,36 L48,38 L39,38 L39,40 L34,38 L30,39 L27,45 L23,43 L24,39 L22,38 L20,36 L17,33 L19,32 L16,20 L5,15 L-3,14 L-7,19 L-9,19 L-14,3 L-13,1 L-9,2 Z " fill="#F2F2F0" transform="translate(221,264)"/>
<path d="M0,0 L24,0 L33,3 L39,5 L42,11 L42,13 L47,13 L47,15 L50,15 L50,17 L55,16 L68,17 L74,18 L78,17 L88,17 L95,21 L96,25 L95,32 L94,32 L93,24 L89,21 L80,21 L73,24 L70,25 L70,35 L68,35 L68,37 L63,40 L60,43 L59,43 L59,36 L51,33 L46,28 L46,26 L42,24 L35,16 L32,14 L24,15 L18,18 L16,17 L12,6 L7,4 L-4,3 L-4,1 Z " fill="#EBEBE6" transform="translate(220,261)"/>
<path d="M0,0 L13,0 L18,3 L21,8 L21,12 L24,12 L22,18 L19,18 L19,22 L14,20 L10,18 L9,27 L6,28 L6,30 L1,29 L-1,28 L-19,26 L-21,25 L-21,18 L-20,16 L-18,16 L-17,12 L-13,8 L-12,6 L-7,6 L-6,4 L-3,3 Z " fill="#F4F4F2" transform="translate(124,272)"/>
<path d="M0,0 L4,0 L6,4 L9,14 L9,19 L4,21 L0,21 L0,23 L-6,26 L-16,23 L-17,25 L-28,21 L-28,19 L-25,19 L-25,14 L-18,9 L-11,6 L-4,1 Z " fill="#E6EBE7" transform="translate(164,135)"/>
<path d="M0,0 L8,1 L20,7 L23,21 L15,21 L11,23 L8,18 L6,14 L4,15 L-3,14 L-4,7 L-2,2 Z " fill="#E5E3DE" transform="translate(218,277)"/>
<path d="M0,0 L9,0 L10,9 L12,13 L14,14 L14,16 L17,16 L17,18 L11,17 L4,13 L2,16 L-7,16 L-9,16 L-13,18 L-17,17 L-13,15 L-11,6 L-7,7 L-5,2 Z " fill="#EEEEEB" transform="translate(67,285)"/>
<path d="M0,0 L7,1 L13,6 L17,8 L22,5 L22,3 L26,4 L24,8 L18,10 L17,14 L9,12 L0,12 L-2,10 L1,6 L4,5 L-1,6 L-4,10 L-4,12 L-15,12 L-10,7 Z " fill="#EAEDEC" transform="translate(296,298)"/>
<path d="M0,0 L24,0 L39,1 L97,2 L97,3 L87,4 L21,4 L5,3 L0,2 Z " fill="#6B7B6D" transform="translate(226,319)"/>
<path d="M0,0 L2,4 L2,6 L7,6 L6,9 L4,9 L3,18 L4,22 L-3,21 L-12,18 L-11,11 L-9,11 L-8,8 L0,7 Z " fill="#F8F8F8" transform="translate(213,285)"/>
<path d="M0,0 L2,2 L4,2 L4,4 L9,6 L11,16 L12,21 L5,19 L-1,19 L-1,17 L2,17 L1,10 L-3,8 L-8,11 L-11,10 L-8,9 L-8,7 L-11,6 L-3,3 Z " fill="#C0C9BF" transform="translate(92,294)"/>
<path d="M0,0 L2,0 L1,7 L0,10 L12,12 L15,18 L21,21 L26,28 L25,33 L23,33 L20,28 L11,23 L9,17 L3,15 L-4,11 L-2,10 Z " fill="#CDD5C8" transform="translate(25,141)"/>
<path d="M0,0 L2,4 L5,5 L4,10 L2,16 L6,13 L6,16 L2,19 L-3,21 L-6,18 L-4,18 L-7,12 L-7,10 L-9,10 L-8,2 L-1,3 Z " fill="#BBC4BD" transform="translate(143,290)"/>
<path d="M0,0 L5,3 L10,4 L6,9 L5,7 L2,6 L3,9 L-4,12 L-12,6 L-17,4 L-22,5 L-25,5 L-30,4 L-28,3 L-27,1 L-13,1 L-7,2 L0,2 Z " fill="#7C917D" transform="translate(316,295)"/>
<path d="M0,0 L2,2 L3,9 L4,7 L9,5 L12,6 L13,4 L19,5 L15,8 L8,10 L5,16 L3,15 L4,13 L-2,11 L-1,12 L-4,14 L-14,19 L-17,22 L-20,20 L-16,19 L-15,15 L-5,11 L-6,5 L-2,3 Z " fill="#9AAE9D" transform="translate(288,69)"/>
<path d="M0,0 L1,2 L3,2 L8,14 L14,24 L17,31 L20,31 L19,34 L16,35 L8,18 L1,4 L-2,3 L-7,6 L-9,6 L-11,13 L-11,16 L-20,19 L-28,25 L-35,28 L-38,30 L-39,35 L-41,35 L-40,29 L-33,24 L-26,21 L-20,16 L-14,13 L-9,3 Z " fill="#294332" transform="translate(178,119)"/>
<path d="M0,0 L15,0 L12,2 L-3,3 L-9,6 L-8,8 L-10,9 L-5,12 L-5,14 L-3,16 L-20,14 L-24,12 L-20,7 Z " fill="#C0C1BC" transform="translate(293,197)"/>
<path d="M0,0 L2,1 L3,3 L-2,7 L-5,11 L-8,22 L-5,21 L3,24 L16,27 L21,23 L22,26 L17,29 L15,29 L17,35 L14,34 L12,29 L7,30 L-2,28 L-1,26 L-6,24 L-7,26 L-10,21 L-9,10 L-6,9 L-4,5 L-2,2 L0,2 Z " fill="#9FB2A1" transform="translate(56,165)"/>
<path d="M0,0 L3,2 L5,6 L7,11 L6,18 L12,20 L14,18 L14,21 L22,20 L22,17 L25,17 L28,9 L29,12 L31,13 L29,14 L27,21 L37,22 L34,24 L17,24 L16,23 L-6,21 L-7,19 L1,19 L5,20 L4,8 L-1,7 L1,5 L-3,1 Z " fill="#334F3B" transform="translate(223,290)"/>
<path d="M0,0 L5,0 L5,2 L10,3 L9,5 L11,9 L12,14 L9,15 L9,17 L1,17 L-6,16 L-5,14 L3,15 L3,10 L-1,6 Z " fill="#B2BDB4" transform="translate(71,299)"/>
<path d="M0,0 L6,1 L9,4 L8,7 L2,10 L-9,9 L-13,10 L-11,6 L-4,1 Z " fill="#F3F4F3" transform="translate(96,116)"/>
<path d="M0,0 L6,2 L10,7 L25,10 L30,14 L28,14 L28,19 L26,15 L19,16 L9,10 L8,7 L6,7 L6,5 L-11,3 L-11,2 L-2,1 Z " fill="#BBCDBB" transform="translate(159,24)"/>
<path d="M0,0 L10,2 L21,5 L40,5 L36,7 L17,7 L6,3 L-4,3 L-4,7 L6,11 L6,15 L0,20 L0,17 L4,12 L-8,10 L-6,2 Z " fill="#326243" transform="translate(160,62)"/>
<path d="M0,0 L5,3 L8,6 L8,18 L0,18 L-2,15 L-1,9 L0,6 Z " fill="#F4F5F5" transform="translate(220,292)"/>
<path d="M0,0 L5,0 L6,3 L4,3 L2,11 L3,15 L5,15 L5,17 L0,19 L-14,18 L-14,16 L-7,13 L-2,16 L-4,5 L2,2 Z " fill="#C7C8C1" transform="translate(330,184)"/>
<path d="M0,0 L2,4 L5,23 L5,34 L2,41 L1,41 L1,21 L-2,14 L-9,13 L-5,11 L0,10 L-1,3 Z " fill="#989E97" transform="translate(173,144)"/>
<path d="M0,0 L2,1 L0,6 L-5,22 L-1,24 L7,25 L10,31 L10,33 L15,33 L11,36 L7,34 L5,29 L-4,26 L-9,21 L-7,18 L-8,16 Z " fill="#3D684C" transform="translate(250,130)"/>
<path d="M0,0 L1,2 L0,5 L7,5 L18,11 L25,18 L27,20 L24,21 L19,17 L19,15 L13,13 L6,10 L-4,9 L-2,1 Z " fill="#C4D3C3" transform="translate(312,112)"/>
<path d="M0,0 L2,3 L2,12 L0,15 L1,17 L-2,20 L-5,21 L-12,21 L-18,19 L-21,17 L-18,8 L-16,9 L-18,16 L-9,15 L-9,9 L-11,8 L-9,8 L-8,6 L-6,15 L-12,18 L-4,19 L-1,10 L-1,2 Z " fill="#42644D" transform="translate(278,294)"/>
<path d="M0,0 L6,1 L10,2 L12,8 L13,14 L4,14 L2,7 L0,4 L-3,2 Z " fill="#BFCBC2" transform="translate(233,297)"/>
<path d="M0,0 L1,3 L0,9 L4,14 L2,16 L1,13 L-7,7 L-8,11 L-6,15 L-9,15 L-14,11 L-19,10 L-19,7 L-14,5 L-13,1 L-13,4 L-2,5 Z " fill="#7C937E" transform="translate(71,296)"/>
<path d="M0,0 L2,0 L2,3 L5,4 L4,5 L6,6 L7,4 L7,7 L3,9 L-1,12 L-3,15 L-10,11 L-9,6 L-2,2 L0,2 Z " fill="#95AA9A" transform="translate(323,302)"/>
<path d="M0,0 L7,1 L9,10 L2,7 L-5,10 L-5,8 L-12,6 L-9,4 Z " fill="#95A19A" transform="translate(320,191)"/>
<path d="M0,0 L5,3 L5,10 L-4,12 L-8,7 L-10,2 L-5,3 Z " fill="#F7F7F7" transform="translate(89,301)"/>
<path d="M0,0 L9,2 L11,5 L12,6 L14,8 L7,13 L-3,14 L-16,13 L-12,6 L-9,7 L-13,12 L-8,10 L2,11 L8,8 L6,4 L0,3 L-4,2 Z " fill="#315D40" transform="translate(96,114)"/>
<path d="M0,0 L2,3 L1,10 L-2,17 L-7,18 L-11,16 L-6,13 L-4,13 L-6,8 L-5,2 Z " fill="#FAFAFA" transform="translate(276,296)"/>
<path d="M0,0 L3,4 L11,6 L15,8 L23,9 L19,10 L19,12 L3,11 L1,10 L-1,5 L0,2 L-4,3 L-11,2 L-11,1 Z " fill="#C5D3C3" transform="translate(269,37)"/>
<path d="M0,0 L1,3 L21,5 L23,7 L15,6 L17,12 L15,13 L14,9 L12,8 L13,7 L10,6 L9,9 L8,7 L3,5 L2,13 L3,18 L1,19 L-1,14 L-2,6 L-6,3 L-2,2 L0,2 Z " fill="#6D876D" transform="translate(102,294)"/>
<path d="M0,0 L6,2 L6,14 L3,16 L0,15 L-2,8 L-2,3 Z " fill="#F5F7F6" transform="translate(105,299)"/>
<path d="M0,0 L3,1 L3,9 L2,14 L-5,14 L-12,12 L-30,12 L-32,10 L-28,9 L-29,6 L-25,8 L-25,10 L-19,9 L-12,9 L-6,12 L-6,10 L-2,11 L0,10 Z " fill="#304E3A" transform="translate(110,303)"/>
<path d="M0,0 L1,4 L0,8 L5,9 L9,8 L6,11 L-4,10 L-5,12 L-3,13 L-8,12 L-10,13 L-12,8 L-12,4 L-8,6 L-5,6 L-6,2 L0,2 Z " fill="#869486" transform="translate(51,306)"/>
<path d="M0,0 L9,1 L16,3 L16,5 L44,6 L44,7 L11,7 L7,5 L6,3 L-3,3 Z " fill="#C5C7BE" transform="translate(293,220)"/>
<path d="M0,0 L2,2 L3,8 L6,9 L7,12 L-3,12 L-7,14 L-6,8 L-4,3 L-7,2 L0,2 Z " fill="#B5B9B0" transform="translate(152,292)"/>
<path d="M0,0 L5,0 L6,2 L9,3 L9,5 L14,7 L19,11 L18,13 L22,12 L22,14 L18,15 L4,5 L3,4 L-6,3 L-6,2 L0,2 Z " fill="#CEDACB" transform="translate(239,23)"/>
<path d="M0,0 L22,0 L61,1 L61,2 L12,3 L0,2 Z " fill="#686A64" transform="translate(48,319)"/>
<path d="M0,0 L6,2 L10,7 L3,11 L-3,9 Z " fill="#FAFAFA" transform="translate(53,305)"/>
<path d="M0,0 L2,3 L2,8 L0,11 L0,17 L-7,17 L-15,14 L-18,11 L-15,10 L-15,12 L-2,15 L-4,11 L-2,2 L0,2 Z " fill="#697362" transform="translate(219,292)"/>
<path d="M0,0 L2,0 L4,22 L3,36 L2,36 L0,18 L-1,18 L-1,7 Z " fill="#8E9088" transform="translate(163,249)"/>
<path d="M0,0 L6,4 L10,7 L11,12 L-3,12 L1,8 L-1,5 Z " fill="#E5E7E5" transform="translate(63,302)"/>
<path d="M0,0 L4,1 L0,3 L-2,6 L3,8 L4,6 L4,8 L8,8 L9,6 L9,8 L16,9 L16,10 L-19,10 L-18,7 L-7,7 L-5,8 L-6,5 Z " fill="#2F4838" transform="translate(297,302)"/>
<path d="M0,0 L8,1 L9,4 L11,4 L10,10 L3,9 L1,10 Z " fill="#DCE4DF" transform="translate(117,300)"/>
<path d="M0,0 L6,2 L7,4 L1,2 L0,10 L2,10 L4,14 L1,14 L-1,12 L-4,19 L-2,20 L-7,22 L-12,22 L-8,20 L-6,14 L-8,14 L-9,11 L-4,12 L-4,10 L-2,9 Z " fill="#6D7F6A" transform="translate(134,290)"/>
<path d="M0,0 L1,2 L3,3 L6,14 L7,21 L10,20 L8,30 L0,32 L-2,34 L-3,31 L1,28 L6,26 L3,11 L0,4 Z " fill="#6D695A" transform="translate(205,262)"/>
<path d="M0,0 L8,0 L5,5 L-1,10 L-7,11 L-4,3 L-2,2 Z " fill="#C8D3CC" transform="translate(284,299)"/>
<path d="M0,0 L5,1 L0,6 L-8,17 L-10,14 L-9,9 L-5,4 L-3,5 L-4,2 Z " fill="#B1B9A4" transform="translate(43,103)"/>
<path d="M0,0 L5,0 L10,2 L10,4 L12,4 L11,7 L7,6 L2,2 L0,6 L-3,5 L-4,2 L-4,5 L-13,4 L-13,3 L-8,3 L-8,1 Z " fill="#9AB39F" transform="translate(68,92)"/>
<path d="M0,0 L4,3 L2,10 L6,11 L-2,11 L-5,10 L-4,3 Z " fill="#FAFAFA" transform="translate(255,301)"/>
<path d="M0,0 L4,1 L4,3 L7,10 L7,13 L-1,16 L1,4 L-1,3 Z " fill="#F6F7F6" transform="translate(112,300)"/>
<path d="M0,0 L11,0 L15,3 L12,7 L-13,7 L-13,6 L7,5 L12,4 L10,3 L-3,2 Z " fill="#848171" transform="translate(322,218)"/>
<path d="M0,0 L18,8 L31,11 L33,15 L31,16 L30,14 L18,11 L-1,2 Z " fill="#396749" transform="translate(92,91)"/>
<path d="M0,0 L10,0 L12,1 L12,6 L11,3 L-2,5 L-6,10 L-7,5 L-4,2 Z " fill="#CAC8B9" transform="translate(65,282)"/>
<path d="M0,0 L9,0 L11,1 L11,3 L14,3 L14,5 L16,5 L18,10 L14,11 L11,6 L7,4 L-2,3 Z " fill="#D2D0C3" transform="translate(130,269)"/>
<path d="M0,0 L2,3 L3,9 L16,11 L16,12 L5,14 L3,13 L3,11 L1,11 L1,9 L-1,9 L-2,2 L0,2 Z " fill="#C2C2B6" transform="translate(205,253)"/>
<path d="M0,0 L7,1 L7,7 L3,9 L-2,8 L-1,1 Z " fill="#FAFAFA" transform="translate(262,302)"/>
<path d="M0,0 L4,1 L7,5 L6,10 L3,11 L-1,9 L-1,1 Z " fill="#EEF2EF" transform="translate(230,300)"/>
<path d="M0,0 L1,0 L2,8 L4,6 L4,10 L-1,11 L-5,11 L-8,17 L-14,19 L-15,26 L-17,26 L-17,18 L-11,15 L-9,15 L-7,10 L-6,9 L0,9 Z " fill="#95A594" transform="translate(317,73)"/>
</svg>
