<?xml version="1.0" encoding="UTF-8"?>
<!-- Generator: visioncortex VTracer 0.6.12 -->
<svg version="1.1" xmlns="http://www.w3.org/2000/svg" width="252" height="344">
<path d="M0,0 L252,0 L252,344 L0,344 Z M136,26 L136,28 L133,29 L130,40 L129,42 L128,42 L123,64 L124,73 L126,72 L130,74 L127,75 L123,75 L123,77 L120,76 L119,82 L121,83 L116,88 L118,82 L118,75 L117,73 L105,73 L101,74 L100,78 L101,91 L103,100 L103,131 L105,135 L106,127 L110,128 L123,129 L151,130 L153,132 L154,138 L127,138 L127,139 L148,140 L155,139 L156,133 L156,131 L157,128 L159,127 L156,127 L156,116 L154,116 L154,112 L156,110 L154,110 L156,103 L161,105 L165,108 L167,108 L167,111 L173,114 L178,119 L183,127 L184,138 L185,138 L186,129 L187,125 L181,115 L174,109 L170,105 L168,104 L169,102 L173,103 L200,103 L198,105 L202,106 L219,106 L219,108 L217,109 L219,111 L220,120 L222,120 L223,124 L223,117 L225,117 L225,110 L227,110 L227,105 L224,104 L224,102 L214,101 L216,97 L215,93 L205,89 L200,90 L168,91 L168,89 L171,88 L162,86 L162,84 L159,83 L158,81 L155,80 L152,73 L147,74 L150,75 L150,94 L148,93 L148,90 L141,89 L137,88 L137,84 L135,84 L136,79 L133,77 L137,77 L144,54 L149,35 L147,29 L140,26 Z M112,30 L103,35 L101,34 L102,38 L108,56 L112,66 L116,69 L117,64 L119,64 L120,62 L122,62 L124,58 L124,47 L119,34 L116,31 L116,33 L113,33 L114,30 Z M58,86 L59,88 L52,89 L54,94 L51,93 L47,104 L44,109 L43,119 L44,126 L56,128 L62,128 L64,126 L49,124 L46,121 L45,116 L47,116 L49,109 L50,113 L49,117 L51,121 L51,118 L55,121 L56,119 L59,119 L59,117 L56,117 L56,114 L59,115 L60,123 L62,122 L62,120 L64,120 L64,125 L66,126 L68,128 L68,118 L63,103 L62,98 L66,99 L67,104 L68,102 L92,102 L96,103 L98,109 L99,106 L101,106 L99,100 L99,96 L99,91 L95,89 L84,88 L87,86 Z M101,106 L99,110 L99,141 L98,150 L95,151 L96,155 L97,153 L99,154 L102,146 L102,106 Z M217,161 L217,176 L179,176 L179,169 L176,166 L175,176 L180,179 L222,179 L222,168 L221,163 L219,163 Z M30,170 L31,175 L31,179 L70,179 L72,176 L36,175 L33,171 Z M31,184 L28,188 L26,200 L25,216 L25,231 L26,236 L28,235 L30,193 L33,188 L57,188 L61,189 L63,193 L64,184 Z M174,184 L176,193 L178,189 L177,186 L179,187 L219,187 L223,186 L223,184 Z M223,186 L222,197 L224,205 L226,205 L225,221 L225,233 L226,233 L227,226 L227,203 L224,186 Z M121,204 L120,213 L123,221 L127,225 L127,222 L131,227 L135,225 L131,221 L129,221 L128,218 L127,219 L122,204 Z M132,236 L127,241 L125,245 L123,242 L121,244 L123,244 L124,251 L126,256 L129,256 L128,258 L126,259 L130,261 L134,263 L130,268 L131,274 L135,269 L140,263 L140,260 L142,260 L142,257 L144,257 L146,249 L145,243 L143,244 L140,239 L141,237 Z M80,238 L76,241 L74,243 L78,248 L80,247 L79,249 L79,274 L80,272 L85,275 L86,273 L86,240 Z M106,238 L104,239 L104,241 L100,242 L99,247 L97,244 L97,265 L98,269 L100,269 L100,271 L104,274 L114,274 L118,270 L121,270 L123,261 L121,259 L121,254 L119,254 L120,247 L118,243 L116,243 L115,239 Z M163,241 L163,244 L161,244 L153,257 L152,259 L152,268 L155,271 L155,274 L155,275 L164,276 L167,274 L167,272 L170,271 L173,265 L172,260 L170,256 L164,253 L165,250 L167,250 L168,244 L167,241 Z " fill="#F3F3F3" transform="translate(0,0)"/>
<path d="M0,0 L8,1 L12,5 L13,9 L12,13 L9,13 L7,23 L3,38 L2,49 L1,51 L-6,50 L-6,53 L-3,54 L-4,59 L-11,58 L-14,54 L-13,49 L-7,49 L-6,48 L-10,46 L-12,47 L-13,38 L-8,16 L-6,16 L-5,9 L-2,2 L0,2 Z " fill="#D2D1CF" transform="translate(136,26)"/>
<path d="M0,0 L9,1 L10,5 L12,5 L14,9 L13,16 L15,16 L15,22 L17,23 L15,32 L12,32 L8,36 L-2,36 L-6,33 L-6,31 L-8,31 L-9,21 L-9,6 L-7,9 L-5,3 L-2,3 L-2,1 Z M2,20 L-3,23 L-3,30 L1,32 L5,31 L10,28 L9,21 L8,20 Z " fill="#C2C2C2" transform="translate(106,238)"/>
<path d="M0,0 L3,4 L4,7 L7,8 L8,10 L11,11 L11,13 L20,15 L17,17 L3,18 L6,20 L2,21 L2,25 L22,25 L42,26 L38,28 L24,29 L18,29 L17,31 L19,32 L24,37 L30,42 L36,52 L35,56 L34,65 L33,65 L32,54 L26,44 L22,41 L16,38 L16,35 L11,33 L7,30 L4,31 L3,37 L5,38 L3,39 L3,43 L5,44 L5,54 L8,55 L6,55 L5,58 L4,55 L2,56 L0,48 L-1,36 L-1,2 L-4,1 Z " fill="#AFB3AF" transform="translate(151,73)"/>
<path d="M0,0 L47,0 L48,10 L50,10 L51,17 L50,20 L36,21 L22,20 L22,19 L49,19 L47,12 L46,11 L18,10 L5,9 L1,8 L0,16 L-2,12 L-2,4 L0,4 Z " fill="#CACCCA" transform="translate(105,119)"/>
<path d="M0,0 L2,1 L1,3 L4,3 L5,1 L8,6 L12,17 L12,28 L10,32 L8,32 L7,34 L5,34 L4,39 L-1,34 L-4,26 L-10,8 L-11,4 L-9,5 Z " fill="#CBCAC7" transform="translate(112,30)"/>
<path d="M0,0 L23,0 L36,1 L38,3 L38,6 L10,6 L2,8 L1,14 L3,14 L5,25 L6,27 L6,35 L5,35 L5,30 L3,30 L2,33 L1,29 L0,23 L-2,23 L-2,19 L-7,19 L-5,12 L-10,13 L-10,7 L-7,3 L-5,3 L-4,1 Z " fill="#E5E4E2" transform="translate(59,90)"/>
<path d="M0,0 L8,4 L11,5 L12,8 L9,13 L7,25 L6,27 L-3,25 L-7,23 L-9,19 L-9,15 L-7,15 L-6,8 L-4,8 L-4,3 Z " fill="#D5D4D2" transform="translate(121,85)"/>
<path d="M0,0 L12,0 L13,4 L12,12 L11,15 L9,15 L9,18 L7,20 L5,25 L0,29 L-2,17 L-3,12 L-5,12 L-5,5 L-4,1 Z " fill="#DBDBDB" transform="translate(105,73)"/>
<path d="M0,0 L9,1 L9,2 L3,3 L7,7 L-1,7 L-1,9 L1,10 L-1,10 L0,18 L6,19 L7,16 L12,14 L12,21 L10,21 L10,24 L8,24 L7,28 L0,38 L-2,35 L-1,31 L2,27 L-2,25 L-6,23 L-3,22 L-3,20 L-7,19 L-9,13 L-9,8 L-11,7 L-8,6 L-7,9 L-2,1 Z " fill="#B6B6B6" transform="translate(132,236)"/>
<path d="M0,0 L2,3 L2,11 L-43,9 L-42,2 L-37,1 L-26,5 L-19,6 L-16,3 L-15,1 Z " fill="#FAFAFA" transform="translate(148,109)"/>
<path d="M0,0 L1,2 L-1,6 L9,7 L9,9 L12,10 L12,15 L10,15 L10,22 L8,22 L8,29 L7,25 L5,25 L4,15 L2,13 L4,13 L4,11 L-13,11 L-17,9 L-17,8 L-42,8 L-42,7 L-37,6 L-20,6 L-20,4 L-5,3 Z " fill="#B7B8B6" transform="translate(215,95)"/>
<path d="M0,0 L4,0 L5,5 L3,9 L1,9 L1,12 L7,15 L10,21 L9,26 L6,31 L4,31 L3,34 L-3,35 L-8,34 L-8,33 L0,31 L-2,29 L3,26 L4,19 L-4,17 L-7,24 L-9,22 L-10,27 L-11,27 L-11,18 L-4,6 L-2,3 L0,3 Z " fill="#A7A7A6" transform="translate(163,241)"/>
<path d="M0,0 L1,4 L8,4 L8,5 L3,6 L5,15 L9,12 L10,6 L13,6 L14,3 L17,5 L16,12 L14,11 L12,15 L11,14 L10,23 L18,26 L21,29 L14,28 L8,26 L5,26 L4,33 L31,33 L31,34 L4,34 L3,38 L2,15 L0,6 Z " fill="#6B736B" transform="translate(101,85)"/>
<path d="M0,0 L1,4 L12,6 L10,8 L2,7 L0,12 L2,14 L11,15 L13,18 L13,24 L-5,24 L-5,17 L-2,10 Z " fill="#C5C8C5" transform="translate(136,84)"/>
<path d="M0,0 L1,2 L6,1 L5,7 L10,7 L10,13 L8,13 L8,16 L11,16 L10,18 L8,18 L6,20 L3,17 L2,20 L1,15 L2,10 L1,8 L-1,15 L-3,15 L-1,22 L5,24 L16,25 L14,27 L3,26 L-4,25 L-5,12 L-3,6 L-1,3 Z " fill="#696C65" transform="translate(48,101)"/>
<path d="M0,0 L56,1 L56,4 L-3,5 L-2,1 Z " fill="#F7F6F6" transform="translate(157,92)"/>
<path d="M0,0 L49,0 L48,2 L45,3 L5,3 L3,2 L4,7 L2,9 L1,2 Z " fill="#969C96" transform="translate(174,184)"/>
<path d="M0,0 L4,1 L6,5 L42,6 L40,9 L1,9 L1,5 Z " fill="#C3C5C4" transform="translate(30,170)"/>
<path d="M0,0 L29,0 L26,2 L37,3 L41,6 L38,7 L37,6 L24,5 L-3,5 L-4,7 L-6,3 L1,2 Z " fill="#4D4E46" transform="translate(58,86)"/>
<path d="M0,0 L4,2 L5,7 L5,18 L-36,18 L-36,16 L1,16 Z " fill="#C5C5C4" transform="translate(217,161)"/>
<path d="M0,0 L1,0 L0,10 L-4,21 L-6,30 L-13,30 L-20,26 L-25,24 L-23,12 L-22,16 L-21,24 L-11,27 L-8,28 L-6,14 L-3,8 L-6,2 L-1,3 Z " fill="#F4F4F4" transform="translate(135,84)"/>
<path d="M0,0 L6,0 L8,5 L7,9 L3,11 L-1,12 L-5,10 L-5,3 Z " fill="#F2F2F2" transform="translate(108,258)"/>
<path d="M0,0 L5,2 L6,3 L7,28 L9,34 L4,31 L3,33 L3,8 L4,6 L1,7 L-2,1 Z " fill="#8F8E8A" transform="translate(76,241)"/>
<path d="M0,0 L1,0 L1,40 L-2,48 L-4,47 L-6,49 L-5,44 L-3,44 L-2,35 L-2,4 Z " fill="#6B6D69" transform="translate(101,106)"/>
<path d="M0,0 L33,0 L32,4 L32,1 L3,2 L-1,9 L-2,24 L-5,25 L-5,16 L-3,4 Z " fill="#6D746E" transform="translate(31,184)"/>
<path d="M0,0 L8,1 L11,4 L11,12 L9,11 L9,9 L0,9 L-3,5 Z " fill="#FAFAFA" transform="translate(138,90)"/>
<path d="M0,0 L8,1 L11,7 L7,12 L1,12 L0,9 Z " fill="#F0F1F0" transform="translate(131,243)"/>
<path d="M0,0 L1,0 L3,25 L1,25 L-1,16 L-16,16 L-18,21 L-20,21 L-21,23 L-21,21 L-27,21 L-27,20 L-20,20 L-19,11 L-18,14 L0,14 Z " fill="#737C74" transform="translate(149,94)"/>
<path d="M0,0 L2,0 L1,6 L-4,7 L-31,6 L-32,3 L-28,2 L-15,2 L0,3 Z " fill="#393B35" transform="translate(97,93)"/>
<path d="M0,0 L9,2 L14,5 L11,9 L5,9 L5,7 L11,7 L11,4 L-16,4 L-20,2 L-2,1 Z " fill="#4A5046" transform="translate(202,89)"/>
<path d="M0,0 L3,2 L4,5 L7,7 L12,9 L12,4 L10,3 L10,1 L16,3 L14,11 L10,11 L11,14 L9,15 L6,12 L0,10 L1,7 L-1,6 Z " fill="#7D7C79" transform="translate(120,76)"/>
<path d="M0,0 L25,0 L31,1 L33,7 L31,7 L30,10 L28,4 L24,3 L0,3 L-1,5 L-2,1 Z " fill="#C1C2C1" transform="translate(68,99)"/>
<path d="M0,0 L2,3 L6,15 L8,14 L8,17 L11,18 L14,22 L10,23 L6,19 L5,21 L0,13 L-1,7 Z " fill="#90908F" transform="translate(121,204)"/>
<path d="M0,0 L5,1 L5,8 L2,11 L-5,10 L-3,1 Z " fill="#ECEDEC" transform="translate(162,259)"/>
<path d="M0,0 L2,3 L4,17 L4,40 L3,47 L2,47 L2,35 L3,19 L1,19 L-1,11 Z " fill="#6E736E" transform="translate(223,186)"/>
<path d="M0,0 L1,3 L4,2 L54,2 L54,3 L27,4 L0,4 Z " fill="#4A5046" transform="translate(153,94)"/>
<path d="M0,0 L6,2 L6,35 L3,34 L3,5 L2,3 L-2,2 Z " fill="#393A34" transform="translate(80,238)"/>
<path d="M0,0 L3,3 L3,10 L41,10 L42,7 L42,11 L5,11 L4,13 L-1,10 Z " fill="#A6A7A6" transform="translate(176,166)"/>
<path d="M0,0 L27,0 L30,2 L15,2 L15,4 L9,4 L9,3 L-7,2 L-7,1 Z " fill="#302F2B" transform="translate(180,97)"/>
<path d="M0,0 L29,0 L29,8 L27,4 L23,3 L-1,2 Z " fill="#C3C4C3" transform="translate(34,185)"/>
<path d="M0,0 L1,0 L1,27 L-1,28 L-2,23 L-2,8 L-1,1 Z " fill="#949493" transform="translate(27,208)"/>
<path d="M0,0 L3,1 L3,3 L0,3 L-2,12 L2,12 L2,14 L5,15 L4,16 L-3,16 L-6,11 L-6,5 L-3,5 Z " fill="#D1D1D1" transform="translate(159,257)"/>
<path d="M0,0 L4,1 L1,1 L6,19 L7,21 L7,31 L5,29 L3,20 L2,15 L1,7 L-1,7 L-1,1 Z " fill="#34332F" transform="translate(61,97)"/>
<path d="M0,0 L2,0 L1,8 L-6,32 L-7,32 L-7,25 Z " fill="#69655D" transform="translate(145,39)"/>
<path d="M0,0 L6,0 L8,4 L9,6 L11,5 L12,11 L11,17 L9,13 L6,15 L7,11 L5,6 L1,5 L4,4 Z " fill="#5E5E5B" transform="translate(134,238)"/>
<path d="M0,0 L2,3 L2,31 L0,29 L-1,4 L-4,1 Z " fill="#FAFAFA" transform="translate(82,240)"/>
<path d="M0,0 L14,0 L28,1 L32,3 L10,3 L-1,2 Z " fill="#54594E" transform="translate(154,90)"/>
</svg>
