<?xml version="1.0" encoding="UTF-8"?>
<!-- Generator: visioncortex VTracer 0.6.12 -->
<svg version="1.1" xmlns="http://www.w3.org/2000/svg" width="329" height="344">
<path d="M0,0 L329,0 L329,344 L0,344 Z M193,21 L193,23 L155,23 L140,25 L135,26 L135,28 L111,33 L104,34 L101,35 L101,37 L95,38 L93,40 L93,42 L90,44 L91,46 L87,44 L80,52 L79,58 L79,74 L81,89 L81,152 L82,167 L79,168 L79,176 L70,173 L65,173 L65,171 L49,171 L48,174 L41,173 L37,175 L37,177 L34,177 L31,180 L30,185 L26,186 L25,189 L23,190 L23,200 L21,200 L21,214 L22,224 L23,226 L25,226 L25,228 L27,228 L28,232 L27,233 L29,237 L36,245 L43,251 L58,258 L62,257 L61,260 L65,261 L72,262 L71,264 L84,266 L112,266 L107,267 L107,268 L115,269 L139,269 L161,265 L166,264 L165,262 L175,260 L191,256 L194,254 L198,253 L201,251 L205,250 L209,247 L212,246 L216,243 L216,242 L228,242 L231,244 L246,246 L262,246 L278,243 L289,238 L289,235 L294,231 L298,230 L304,223 L303,220 L306,219 L307,214 L308,204 L308,182 L306,178 L305,179 L303,174 L301,174 L302,170 L297,166 L294,164 L291,161 L287,160 L282,161 L282,159 L285,158 L280,157 L264,157 L251,159 L249,134 L249,102 L251,87 L252,65 L254,65 L255,55 L255,44 L253,44 L254,37 L253,35 L251,35 L249,31 L242,31 L242,29 L237,27 L238,25 L231,24 L228,23 L216,21 Z M177,279 L172,281 L171,285 L168,286 L168,288 L165,289 L162,292 L159,287 L150,280 L146,280 L146,282 L139,282 L140,285 L135,285 L134,289 L132,288 L130,294 L130,304 L132,304 L134,308 L133,315 L135,316 L135,320 L139,321 L147,323 L148,325 L155,317 L159,312 L165,314 L167,319 L171,320 L178,323 L182,324 L188,317 L189,314 L191,315 L197,295 L203,297 L205,295 L204,294 L212,289 L214,294 L212,295 L210,301 L207,303 L206,307 L201,307 L200,311 L196,313 L194,317 L194,325 L196,323 L203,322 L213,322 L222,323 L224,319 L225,318 L227,316 L223,315 L210,311 L218,305 L223,303 L225,301 L224,292 L220,284 L209,281 L209,279 L203,281 L201,284 L199,284 L197,287 L190,288 L188,285 L186,285 L186,282 L180,279 Z M109,280 L106,283 L103,289 L105,289 L106,294 L107,296 L108,319 L112,321 L117,323 L121,320 L123,321 L126,314 L119,311 L119,285 L116,280 Z M210,244 Z M170,286 Z M218,286 L220,287 Z M169,287 Z M204,308 Z M203,309 Z " fill="#F9F9F9" transform="translate(0,0)"/>
<path d="M0,0 L57,0 L60,2 L59,3 L64,5 L64,7 L71,7 L73,11 L75,11 L76,14 L74,33 L73,37 L71,58 L68,72 L68,120 L72,138 L83,136 L111,136 L116,139 L116,141 L121,143 L124,147 L123,150 L125,150 L127,157 L128,165 L128,186 L125,196 L125,200 L119,207 L115,208 L113,210 L106,213 L97,217 L93,218 L73,219 L66,218 L66,220 L53,220 L50,218 L38,218 L38,220 L32,222 L29,225 L23,226 L23,228 L11,230 L-22,239 L-34,241 L-94,242 L-107,240 L-106,238 L-115,237 L-117,235 L-116,232 L-122,230 L-136,222 L-143,216 L-148,209 L-148,207 L-151,208 L-151,204 L-153,204 L-153,202 L-155,202 L-156,195 L-157,190 L-157,176 L-155,176 L-155,166 L-152,164 L-152,162 L-147,160 L-147,156 L-144,153 L-141,153 L-141,151 L-137,149 L-120,149 L-108,152 L-104,154 L-97,154 L-94,111 L-94,64 L-97,47 L-97,35 L-94,28 L-90,23 L-88,22 L-88,19 L-79,16 L-65,11 L-49,6 L-45,5 L-36,4 L-16,1 Z M1,8 L-42,14 L-64,20 L-79,28 L-84,32 L-87,37 L-85,43 L-82,46 L-73,49 L-61,52 L-51,53 L-24,53 L-3,51 L22,47 L41,42 L60,33 L63,28 L65,27 L65,19 L57,13 L41,9 L33,8 Z M-86,55 L-88,56 L-89,60 L-88,76 L-86,99 L-85,112 L-83,117 L-78,122 L-74,125 L-66,127 L-13,127 L6,125 L27,120 L42,112 L49,106 L53,100 L54,97 L54,84 L51,72 L45,62 L39,57 L32,55 L23,55 L23,56 L35,58 L17,58 L17,57 L4,58 L0,59 L-20,60 L-36,60 L-53,58 L-67,58 L-87,59 L-87,57 L-71,57 L-71,56 Z M55,109 L45,115 L40,120 L36,122 L37,128 L47,134 L47,136 L52,137 L52,140 L57,141 L58,138 L58,121 L56,109 Z M8,128 L-12,132 L-11,137 L-2,142 L3,146 L6,146 L11,141 L19,130 L15,128 Z M25,129 L17,139 L11,150 L12,153 L13,158 L24,167 L31,172 L36,167 L42,158 L48,150 L46,143 L41,142 L40,138 L37,138 L35,138 L35,136 L37,135 L32,133 L29,130 Z M-79,132 L-83,134 L-85,138 L-85,144 L-81,142 L-71,135 L-71,133 L-73,132 Z M-31,133 L-51,134 L-50,142 L-42,151 L-39,152 L-33,145 L-33,143 L-31,143 L-27,135 L-27,133 Z M-61,134 L-61,136 L-66,136 L-67,139 L-71,140 L-78,145 L-80,149 L-85,154 L-84,160 L-78,167 L-74,173 L-68,180 L-65,181 L-58,175 L-57,171 L-53,169 L-48,164 L-45,159 L-46,154 L-53,144 L-56,140 L-58,140 L-59,136 Z M-23,137 L-24,140 L-23,141 L-26,144 L-26,146 L-28,146 L-31,150 L-31,152 L-33,152 L-34,156 L-36,156 L-36,162 L-26,173 L-18,180 L-15,180 L-12,175 L-11,174 L-7,169 L0,159 L1,159 L2,153 L-4,146 L-10,141 L-14,141 L-15,139 Z M87,145 L79,148 L78,151 L70,157 L61,165 L56,171 L53,173 L42,183 L36,186 L31,191 L13,203 L-6,213 L-30,223 L-44,227 L-54,227 L-59,229 L-60,231 L-54,233 L-45,234 L-45,232 L-32,230 L-25,228 L-25,226 L-18,225 L1,218 L15,213 L39,200 L53,191 L66,181 L76,177 L86,173 L93,174 L96,176 L98,187 L97,193 L89,202 L90,205 L97,203 L104,197 L111,187 L114,176 L114,159 L108,151 L102,147 L93,145 Z M-126,162 L-136,169 L-142,178 L-143,180 L-143,195 L-137,205 L-130,213 L-117,221 L-105,226 L-101,227 L-73,227 L-36,218 L-20,212 L5,199 L6,197 L-1,196 L3,194 L9,194 L7,196 L12,195 L15,190 L5,191 L-22,196 L-54,196 L-79,192 L-90,188 L-98,181 L-105,170 L-110,164 L-116,162 Z M4,162 L-4,173 L-8,178 L-11,181 L-10,185 L-12,186 L-1,185 L21,180 L27,177 L24,171 L16,164 Z M-89,164 L-89,172 L-87,177 L-81,181 L-74,183 L-79,173 L-85,165 Z M-44,166 L-55,178 L-61,183 L-62,186 L-55,188 L-26,188 L-20,185 L-26,178 L-37,167 Z M32,220 Z " fill="#F0F0EE" transform="translate(178,24)"/>
<path d="M0,0 L31,0 L56,4 L63,9 L64,17 L59,22 L51,26 L30,33 L13,37 L-4,40 L-24,41 L-47,41 L-60,40 L-75,37 L-83,32 L-85,28 L-82,22 L-78,18 L-71,15 L-53,9 L-44,6 Z M30,6 L31,12 L29,19 L24,21 L13,27 L16,28 L40,22 L52,17 L52,11 L47,8 L35,6 Z " fill="#F5F5F5" transform="translate(178,34)"/>
<path d="M0,0 L9,1 L19,6 L25,16 L25,29 L22,40 L14,51 L6,57 L1,58 L1,54 L8,46 L9,39 L11,39 L8,28 L3,24 L-6,25 L-20,32 L-32,41 L-45,50 L-61,59 L-77,67 L-88,71 L-102,76 L-109,79 L-133,84 L-143,84 L-142,82 L-136,80 L-126,78 L-111,73 L-87,62 L-71,53 L-54,41 L-53,39 L-46,35 L-36,26 L-31,22 L-26,16 L-18,9 L-10,3 L-7,2 Z " fill="#F9F9F9" transform="translate(267,171)"/>
<path d="M0,0 L3,3 L3,6 L6,7 L12,15 L16,22 L15,28 L9,35 L5,36 L3,40 L-2,45 L-5,47 L-11,42 L-17,33 L-24,24 L-24,20 L-19,15 L-17,11 L-9,5 L-6,5 L-5,2 L0,2 Z " fill="#EAEAE4" transform="translate(117,158)"/>
<path d="M0,0 L8,2 L9,4 L14,5 L23,13 L25,17 L24,22 L20,27 L13,37 L11,36 L10,41 L6,44 L-1,37 L-8,31 L-13,24 L-13,19 L-11,19 L-10,15 L-8,15 L-6,11 L-5,9 L-3,9 L-2,5 L0,4 L-1,2 Z " fill="#EBEBE5" transform="translate(155,161)"/>
<path d="M0,0 L6,2 L7,4 L12,6 L10,7 L10,9 L14,9 L16,10 L16,13 L22,15 L23,21 L16,30 L10,40 L6,43 L-3,36 L-12,29 L-13,24 L-14,21 L-8,10 Z " fill="#E6E6E0" transform="translate(203,153)"/>
<path d="M0,0 L6,1 L15,9 L15,26 L13,32 L4,42 L1,45 L1,43 L-7,41 L-12,39 L-11,34 L-8,33 L-8,31 L-3,32 L1,33 L5,32 L7,25 L0,27 L-5,29 L-12,26 L-16,24 L-16,14 L-14,8 L-12,9 L-11,5 L-6,5 L-7,2 L0,2 Z M-4,9 L-7,12 L-5,19 L1,23 L3,24 L6,19 L4,13 L-2,9 Z " fill="#EEE9D8" transform="translate(146,280)"/>
<path d="M0,0 L5,1 L9,4 L9,6 L12,6 L13,9 L19,9 L20,13 L17,27 L14,36 L11,36 L10,40 L4,45 L-5,42 L-9,40 L-11,39 L-14,31 L-14,17 L-8,6 L-6,6 L-5,2 Z M-7,7 Z M-8,8 Z M-4,11 L-7,14 L-8,21 L-6,28 L1,34 L6,36 L9,29 L9,22 L5,14 L0,11 Z " fill="#EDE9D7" transform="translate(177,279)"/>
<path d="M0,0 L2,0 L2,2 L13,5 L17,13 L18,22 L14,25 L10,27 L3,32 L17,36 L20,37 L18,39 L17,40 L15,44 L6,43 L-4,43 L-11,44 L-13,46 L-13,38 L-10,34 L-6,31 L-6,28 L-1,28 L0,23 L3,21 L5,15 L7,15 L5,10 L-3,15 L-2,17 L-5,18 L-11,16 L-11,10 L-14,8 L-9,7 L-8,5 L-5,4 L-2,1 Z M11,7 Z M-3,29 Z M-4,30 Z " fill="#EAE5D2" transform="translate(207,279)"/>
<path d="M0,0 L5,3 L18,16 L15,19 L5,20 L-8,20 L-18,18 L-17,14 L-5,2 Z " fill="#FAFAFA" transform="translate(137,191)"/>
<path d="M0,0 L11,2 L15,7 L19,11 L20,14 L8,19 L-7,22 L-13,22 L-13,17 L-3,5 Z " fill="#F9F9F9" transform="translate(182,186)"/>
<path d="M0,0 L1,0 L1,5 L139,4 L142,16 L142,29 L139,35 L138,33 L140,27 L139,14 L138,8 L2,7 L2,15 L1,15 L0,8 Z " fill="#2E5B3B" transform="translate(90,92)"/>
<path d="M0,0 L3,0 L4,3 L4,24 L1,27 L0,25 L-5,24 L-5,22 L-15,16 L-16,10 L-4,3 Z " fill="#F8F8F8" transform="translate(230,136)"/>
<path d="M0,0 L28,0 L25,3 L20,6 L18,6 L18,4 L-116,4 L-117,2 L0,1 Z " fill="#31613E" transform="translate(156,221)"/>
<path d="M0,0 L7,1 L8,5 L8,31 L15,30 L17,32 L14,38 L11,38 L7,39 L2,35 L1,6 L-2,7 L-3,1 Z " fill="#F5F4EF" transform="translate(109,283)"/>
<path d="M0,0 L6,1 L11,6 L13,11 L13,18 L10,25 L2,21 L-3,15 L-4,7 L-2,1 Z " fill="#FAFAFA" transform="translate(173,290)"/>
<path d="M0,0 L138,0 L138,2 L1,2 L1,17 L0,17 Z " fill="#30603E" transform="translate(92,106)"/>
<path d="M0,0 L10,0 L17,3 L26,15 L27,19 L-14,18 L-14,16 L-15,14 L-9,6 Z M3,1 L-7,6 L-7,7 L18,7 L13,2 Z M-9,8 L-11,12 L21,12 L19,8 Z " fill="#7A9482" transform="translate(52,186)"/>
<path d="M0,0 L3,3 L3,5 L-133,5 L-133,3 L0,2 Z " fill="#31623F" transform="translate(224,89)"/>
<path d="M0,0 L12,2 L15,7 L15,9 L4,14 L-20,20 L-23,19 L-7,10 L-5,10 L-3,3 Z " fill="#FAFAFA" transform="translate(214,42)"/>
<path d="M0,0 L137,0 L137,2 L0,3 Z " fill="#326340" transform="translate(93,120)"/>
<path d="M0,0 L137,0 L137,2 L0,2 Z " fill="#326340" transform="translate(93,111)"/>
<path d="M0,0 L4,0 L2,7 L0,10 L-2,10 L-4,14 L-9,19 L-14,15 L-19,9 L-20,1 Z " fill="#C8CAC3" transform="translate(147,157)"/>
<path d="M0,0 L134,0 L133,3 L0,2 Z " fill="#31623F" transform="translate(94,125)"/>
<path d="M0,0 L57,0 L54,1 L54,3 L42,6 L14,6 L0,1 Z " fill="#6C8874" transform="translate(63,245)"/>
<path d="M0,0 L126,0 L125,2 L0,2 Z " fill="#31623F" transform="translate(95,134)"/>
<path d="M0,0 L2,1 L-9,7 L-11,6 L-119,5 L-120,3 L-4,2 Z " fill="#30603E" transform="translate(216,136)"/>
<path d="M0,0 L3,1 L-13,8 L-19,10 L-24,10 L-20,8 L-105,8 L-107,9 L-111,5 L-9,5 L-9,3 Z " fill="#2E5B3B" transform="translate(161,232)"/>
<path d="M0,0 L130,0 L131,2 L0,3 Z " fill="#8BA693" transform="translate(90,85)"/>
<path d="M0,0 L116,0 L114,2 L4,2 L5,5 L1,3 Z " fill="#31613F" transform="translate(45,232)"/>
<path d="M0,0 L6,0 L6,4 L-2,16 L-6,15 L-18,7 L-18,3 L-8,1 Z " fill="#F9F9F9" transform="translate(186,154)"/>
<path d="M0,0 L2,1 L2,48 L0,80 L-1,80 L-2,65 L-2,49 L-1,2 Z " fill="#B8B185" transform="translate(83,87)"/>
<path d="M0,0 L62,0 L72,2 L72,3 L1,3 Z " fill="#709279" transform="translate(37,217)"/>
<path d="M0,0 L1,0 L2,46 L4,46 L6,59 L6,63 L19,61 L35,61 L40,62 L37,63 L37,65 L16,65 L5,66 L1,53 L0,48 Z " fill="#90926D" transform="translate(245,96)"/>
<path d="M0,0 L15,1 L15,2 L-1,2 L-1,4 L19,3 L33,3 L50,5 L86,5 L86,6 L71,7 L48,7 L-2,6 L-2,13 L-3,13 L-3,5 L-2,1 Z " fill="#22472E" transform="translate(92,79)"/>
<path d="M0,0 L5,1 L5,2 L-15,6 L-22,7 L-46,7 L-54,6 L-54,5 L-48,3 L-17,2 Z " fill="#C6C29D" transform="translate(161,262)"/>
<path d="M0,0 L66,0 L66,1 L58,1 L58,3 L5,3 L0,2 Z " fill="#295236" transform="translate(107,148)"/>
<path d="M0,0 L1,0 L2,9 L130,9 L130,7 L132,7 L132,5 L134,5 L132,9 L128,11 L2,10 L4,19 L1,17 L0,13 Z " fill="#2D5A3A" transform="translate(93,123)"/>
<path d="M0,0 L78,0 L75,2 L63,5 L58,5 L58,4 L2,3 L0,2 Z M3,1 L3,2 L68,2 L68,1 Z " fill="#2D5B3B" transform="translate(59,242)"/>
<path d="M0,0 L2,0 L2,2 L103,2 L103,0 L108,0 L108,2 L81,8 L68,8 L68,7 L89,4 L6,4 L10,7 L5,6 L0,1 Z " fill="#295336" transform="translate(97,142)"/>
<path d="M0,0 L4,2 L6,6 L-43,6 L-43,3 L-1,2 Z " fill="#70917A" transform="translate(79,206)"/>
<path d="M0,0 L2,1 L2,4 L-9,9 L-25,12 L-41,12 L-49,11 L-49,10 L-43,10 L-43,8 L-29,8 L-16,7 L-5,3 Z " fill="#C9C49D" transform="translate(287,234)"/>
<path d="M0,0 L7,0 L7,2 L-37,8 L-58,15 L-66,18 L-71,19 L-67,16 L-54,10 L-30,4 Z " fill="#5B614D" transform="translate(171,33)"/>
<path d="M0,0 L141,0 L141,1 L0,1 Z " fill="#FAFAFA" transform="translate(39,222)"/>
<path d="M0,0 L134,0 L134,2 L0,2 Z " fill="#326240" transform="translate(40,226)"/>
<path d="M0,0 L138,0 L138,1 L0,1 Z " fill="#326340" transform="translate(93,118)"/>
<path d="M0,0 L138,0 L138,1 L0,1 Z " fill="#FAFAFA" transform="translate(93,117)"/>
<path d="M0,0 L138,0 L138,1 L0,1 Z " fill="#326340" transform="translate(93,116)"/>
<path d="M0,0 L138,0 L138,1 L0,1 Z " fill="#FAFAFA" transform="translate(93,115)"/>
<path d="M0,0 L138,0 L138,1 L0,1 Z " fill="#326340" transform="translate(93,114)"/>
<path d="M0,0 L137,0 L137,1 L0,2 Z " fill="#326340" transform="translate(92,104)"/>
<path d="M0,0 L137,0 L137,1 L0,2 Z " fill="#326340" transform="translate(92,100)"/>
<path d="M0,0 L1,2 L-136,2 L-136,1 Z " fill="#31623F" transform="translate(227,94)"/>
<path d="M0,0 L137,0 L137,1 L0,1 Z " fill="#FAFAFA" transform="translate(93,119)"/>
<path d="M0,0 L137,0 L137,1 L0,1 Z " fill="#FAFAFA" transform="translate(93,113)"/>
<path d="M0,0 L137,0 L137,1 L0,1 Z " fill="#FAFAFA" transform="translate(93,110)"/>
<path d="M0,0 L137,0 L137,1 L0,1 Z " fill="#326340" transform="translate(93,109)"/>
<path d="M0,0 L137,0 L137,1 L0,1 Z " fill="#FAFAFA" transform="translate(93,108)"/>
<path d="M0,0 L137,0 L137,1 L0,1 Z " fill="#FAFAFA" transform="translate(92,103)"/>
<path d="M0,0 L137,0 L137,1 L0,1 Z " fill="#326340" transform="translate(92,102)"/>
<path d="M0,0 L136,0 L136,1 L0,1 Z " fill="#FAFAFA" transform="translate(94,122)"/>
<path d="M0,0 L136,0 L136,1 L0,1 Z " fill="#FAFAFA" transform="translate(93,105)"/>
<path d="M0,0 L136,0 L136,1 L0,1 Z " fill="#FAFAFA" transform="translate(93,101)"/>
<path d="M0,0 L136,0 L136,1 L0,1 Z " fill="#FAFAFA" transform="translate(92,99)"/>
<path d="M0,0 L136,0 L136,1 L0,1 Z " fill="#FAFAFA" transform="translate(91,96)"/>
<path d="M0,0 L136,0 L136,1 L0,1 Z " fill="#FAFAFA" transform="translate(91,94)"/>
<path d="M0,0 L32,0 L49,3 L58,6 L64,11 L64,19 L62,15 L61,11 L55,7 L30,3 L-1,2 Z " fill="#555C47" transform="translate(179,32)"/>
<path d="M0,0 L135,0 L135,1 L0,1 Z " fill="#FAFAFA" transform="translate(94,124)"/>
<path d="M0,0 L135,0 L135,1 L0,1 Z " fill="#326340" transform="translate(94,123)"/>
<path d="M0,0 L134,0 L134,1 L0,2 Z " fill="#326340" transform="translate(90,90)"/>
<path d="M0,0 L4,5 L10,12 L20,18 L33,25 L29,27 L13,19 L5,12 L-2,4 L-2,2 L0,2 Z " fill="#B9B896" transform="translate(29,231)"/>
<path d="M0,0 L131,0 L127,2 L1,2 Z " fill="#30603E" transform="translate(41,228)"/>
<path d="M0,0 L134,0 L134,1 L0,1 Z " fill="#FAFAFA" transform="translate(40,225)"/>
<path d="M0,0 L134,0 L134,1 L0,1 Z " fill="#FAFAFA" transform="translate(91,91)"/>
<path d="M0,0 L134,0 L134,1 L0,1 Z " fill="#FAFAFA" transform="translate(90,89)"/>
<path d="M0,0 L133,0 L133,1 L0,1 Z " fill="#FAFAFA" transform="translate(94,127)"/>
<path d="M0,0 L1,0 L1,8 L0,15 L0,55 L-3,55 L-3,4 L-1,4 Z " fill="#E6DBAB" transform="translate(249,87)"/>
<path d="M0,0 L133,0 L133,1 L0,1 Z " fill="#326340" transform="translate(90,88)"/>
<path d="M0,0 L131,0 L131,1 L0,1 Z " fill="#FAFAFA" transform="translate(94,129)"/>
<path d="M0,0 L131,0 L131,1 L0,1 Z " fill="#326340" transform="translate(94,128)"/>
<path d="M0,0 L131,0 L131,1 L0,1 Z " fill="#FAFAFA" transform="translate(91,87)"/>
<path d="M0,0 L9,0 L18,3 L23,8 L22,10 L19,7 L-23,6 L-23,4 L-13,2 L-6,2 L-6,3 L12,3 L0,1 Z " fill="#285235" transform="translate(201,79)"/>
<path d="M0,0 L43,0 L45,3 L0,3 Z " fill="#B7C8BC" transform="translate(36,206)"/>
<path d="M0,0 L39,1 L42,5 L-2,5 L-2,1 Z " fill="#31613F" transform="translate(38,201)"/>
<path d="M0,0 L129,0 L129,1 L0,1 Z " fill="#FAFAFA" transform="translate(43,227)"/>
<path d="M0,0 L125,0 L121,2 L1,2 Z " fill="#30603E" transform="translate(43,230)"/>
<path d="M0,0 L128,0 L128,1 L0,1 Z " fill="#FAFAFA" transform="translate(95,131)"/>
<path d="M0,0 L128,0 L128,1 L0,1 Z " fill="#326340" transform="translate(95,130)"/>
<path d="M0,0 L126,0 L126,1 L0,1 Z " fill="#FAFAFA" transform="translate(95,133)"/>
<path d="M0,0 L125,0 L125,1 L0,1 Z " fill="#FAFAFA" transform="translate(43,229)"/>
<path d="M0,0 L28,0 L30,4 L-2,4 Z " fill="#94AD9B" transform="translate(43,194)"/>
<path d="M0,0 L4,1 L13,14 L15,19 L6,16 L1,11 L0,8 Z " fill="#FAFAFA" transform="translate(89,188)"/>
<path d="M0,0 L2,2 L-3,4 L-5,12 L0,16 L9,19 L19,21 L19,23 L55,24 L55,25 L28,25 L14,23 L-1,19 L-5,17 L-8,11 L-6,6 L-1,1 Z " fill="#455441" transform="translate(99,52)"/>
<path d="M0,0 L120,0 L120,1 L0,1 Z " fill="#FAFAFA" transform="translate(96,136)"/>
<path d="M0,0 L3,3 L-2,8 L-5,15 L-5,27 L-3,36 L-3,43 L-4,45 L-6,45 L-8,30 L-8,10 L-2,2 Z " fill="#C1BC93" transform="translate(87,44)"/>
<path d="M0,0 L119,0 L119,1 L0,1 Z " fill="#FAFAFA" transform="translate(45,231)"/>
<path d="M0,0 L118,0 L118,1 L0,1 Z " fill="#326340" transform="translate(96,137)"/>
<path d="M0,0 L2,0 L3,3 L5,3 L6,6 L7,32 L12,37 L7,35 L3,33 L2,10 L0,6 L0,3 L-2,2 Z " fill="#E2D8B2" transform="translate(105,286)"/>
<path d="M0,0 L116,0 L116,1 L0,1 Z " fill="#FAFAFA" transform="translate(96,138)"/>
<path d="M0,0 L7,1 L24,18 L20,21 L18,22 L-11,22 L-18,20 L-16,16 L-15,19 L-5,20 L8,20 L18,19 L20,17 L6,3 L3,2 L-2,3 Z " fill="#565B46" transform="translate(134,190)"/>
<path d="M0,0 L4,1 L4,3 L-51,3 L-52,1 Z " fill="#92AA99" transform="translate(88,213)"/>
<path d="M0,0 L6,2 L10,8 L8,13 L7,15 L5,14 L-2,9 L-3,3 Z " fill="#F9F9F9" transform="translate(142,289)"/>
<path d="M0,0 L8,0 L8,1 L-7,4 L-22,6 L-35,7 L-68,7 L-79,6 L-79,5 L-43,5 L-23,4 L-6,1 Z " fill="#6A6A53" transform="translate(197,69)"/>
<path d="M0,0 L8,3 L13,1 L20,0 L19,5 L16,8 L12,9 L5,6 L6,9 L2,10 L0,10 L1,3 Z " fill="#F8F7F2" transform="translate(133,305)"/>
<path d="M0,0 L109,0 L109,1 L0,1 Z " fill="#FAFAFA" transform="translate(97,141)"/>
<path d="M0,0 L108,0 L108,1 L0,1 Z " fill="#FAFAFA" transform="translate(49,234)"/>
<path d="M0,0 L3,1 L3,3 L-49,3 L-49,1 Z " fill="#93AB9A" transform="translate(85,211)"/>
<path d="M0,0 L2,0 L2,7 L1,11 L-6,12 L-17,8 L-28,7 L-32,7 L-31,4 L-15,4 L-15,6 L-8,6 L-1,9 L-1,1 Z " fill="#A3A480" transform="translate(80,167)"/>
<path d="M0,0 L25,0 L35,2 L35,3 L30,4 L-15,3 L-15,2 L0,2 Z " fill="#858A70" transform="translate(193,21)"/>
<path d="M0,0 L103,0 L103,1 L0,1 Z " fill="#326340" transform="translate(49,235)"/>
<path d="M0,0 L10,1 L15,6 L-10,6 L-7,3 Z " fill="#8DA794" transform="translate(55,187)"/>
<path d="M0,0 L102,0 L102,1 L0,1 Z " fill="#FAFAFA" transform="translate(50,236)"/>
<path d="M0,0 L23,1 L23,2 L0,4 L-17,7 L-22,7 L-20,3 L-11,1 Z " fill="#9D9E7A" transform="translate(155,23)"/>
<path d="M0,0 L101,0 L101,1 L0,1 Z " fill="#FAFAFA" transform="translate(99,143)"/>
<path d="M0,0 L101,0 L101,1 L0,1 Z " fill="#326340" transform="translate(99,142)"/>
<path d="M0,0 L2,0 L2,15 L1,21 L-1,21 L-2,43 L-4,44 L-6,47 L-4,30 L-3,17 Z " fill="#ACA97F" transform="translate(253,44)"/>
<path d="M0,0 L8,6 L12,12 L8,15 L-1,18 L-22,22 L-27,22 L-25,21 L-26,17 L-24,15 L-24,20 L-3,16 L8,12 L6,7 L0,2 Z " fill="#5E634F" transform="translate(193,188)"/>
<path d="M0,0 L1,0 L2,11 L61,11 L64,13 L2,13 L5,22 L2,19 L0,15 Z " fill="#295236" transform="translate(35,204)"/>
<path d="M0,0 L6,0 L6,1 L-17,7 L-32,13 L-33,9 L-27,7 L-25,7 L-25,5 L-18,3 L-4,1 Z " fill="#A9AA87" transform="translate(126,30)"/>
<path d="M0,0 L6,0 L8,1 L7,4 L-4,12 L-6,12 L-6,6 L-3,1 Z " fill="#FAFAFA" transform="translate(99,156)"/>
<path d="M0,0 L85,0 L85,1 L3,1 L2,3 L0,2 Z " fill="#31613E" transform="translate(56,240)"/>
<path d="M0,0 L88,0 L88,1 L0,1 Z " fill="#FAFAFA" transform="translate(102,145)"/>
<path d="M0,0 L87,0 L87,1 L0,1 Z " fill="#FAFAFA" transform="translate(55,239)"/>
<path d="M0,0 L2,4 L2,26 L1,39 L0,41 L-4,40 L-1,32 L-1,11 L-2,3 L0,3 Z " fill="#A4A37B" transform="translate(306,178)"/>
<path d="M0,0 L83,0 L83,1 L2,2 Z " fill="#326340" transform="translate(103,146)"/>
<path d="M0,0 L1,0 L3,12 L3,29 L2,32 L-3,31 L-2,29 L0,29 L0,3 L-9,8 L-12,8 L-4,2 Z " fill="#505842" transform="translate(233,133)"/>
<path d="M0,0 L11,1 L18,4 L24,9 L27,14 L26,18 L20,8 L11,4 L2,3 L-6,5 L-8,3 Z " fill="#59604D" transform="translate(265,169)"/>
<path d="M0,0 L7,0 L11,2 L3,13 L1,14 L3,9 L6,5 L6,3 L-8,4 L-18,5 L-17,8 L-19,9 L-20,4 Z " fill="#585F4A" transform="translate(186,152)"/>
<path d="M0,0 L5,0 L6,2 L1,3 L10,3 L24,0 L29,0 L25,2 L12,5 L9,5 L8,7 L-4,5 L-6,3 L-4,1 Z " fill="#525D46" transform="translate(124,251)"/>
<path d="M0,0 L78,0 L78,1 L0,1 Z " fill="#FAFAFA" transform="translate(59,241)"/>
<path d="M0,0 L76,0 L76,1 L0,1 Z " fill="#FAFAFA" transform="translate(38,220)"/>
<path d="M0,0 L2,1 L2,3 L-15,8 L-23,9 L-31,11 L-36,11 L-32,9 Z " fill="#BFB98B" transform="translate(192,252)"/>
<path d="M0,0 L74,0 L74,1 L0,1 Z " fill="#326340" transform="translate(38,221)"/>
<path d="M0,0 L11,1 L25,3 L57,4 L57,5 L13,5 L10,3 L0,1 Z " fill="#1B3A26" transform="translate(99,217)"/>
<path d="M0,0 L74,0 L74,1 L0,1 Z " fill="#FAFAFA" transform="translate(106,147)"/>
<path d="M0,0 L2,2 L-17,11 L-27,14 L-35,14 L-32,12 L-16,7 L-3,2 Z " fill="#636956" transform="translate(236,55)"/>
<path d="M0,0 L7,0 L10,5 L10,31 L13,33 L8,34 L7,4 L-2,4 L-3,2 Z " fill="#D9CC9C" transform="translate(109,280)"/>
<path d="M0,0 L5,0 L2,5 L-3,6 L-1,4 L-10,5 L-11,6 L-32,7 L-32,6 L-5,1 Z " fill="#244830" transform="translate(188,214)"/>
<path d="M0,0 L5,1 L10,5 L12,11 L12,16 L10,16 L8,6 L3,3 L-6,4 L-18,10 L-20,9 L-12,4 L-5,1 Z " fill="#555B46" transform="translate(266,194)"/>
<path d="M0,0 L1,2 L-2,8 L-2,25 L-7,22 L-6,18 L-6,3 L-3,4 Z " fill="#FAFAFA" transform="translate(166,288)"/>
<path d="M0,0 L65,0 L65,1 L0,1 Z " fill="#FAFAFA" transform="translate(62,243)"/>
<path d="M0,0 L13,1 L20,4 L22,6 L22,11 L20,9 L18,5 L6,3 L3,8 L1,12 L-1,11 L1,6 Z " fill="#586149" transform="translate(208,40)"/>
</svg>
