<?xml version="1.0" encoding="UTF-8"?>
<svg width="480" height="201" viewBox="0 0 480 201" xmlns="http://www.w3.org/2000/svg">
<rect width="480" height="201" fill="white"/>
<path d="M 274,189 L 210,189 L 207,187 L 207,183 L 216,174 L 233,162 L 232,128 L 231,124 L 221,120 L 208,104 L 202,82 L 199,45 L 202,40 L 244,40 L 248,30 L 255,23 L 263,20 L 271,20 L 280,24 L 286,32 L 289,42 L 286,54 L 272,65 L 271,89 L 267,104 L 263,112 L 248,124 L 249,161 L 264,170 L 275,182 L 276,187 L 274,189 Z" fill="#a4a4a4" stroke="none"/>
<path d="M 247,113 L 229,101 L 231,94 L 244,82 L 251,85 L 261,95 L 260,100 L 247,113 Z" fill="#949494" stroke="none"/>
</svg>