<?xml version="1.0" encoding="UTF-8"?>
<svg width="480" height="658" viewBox="0 0 480 658" xmlns="http://www.w3.org/2000/svg">
<rect width="480" height="658" fill="white"/>
<path d="M 361,529 L 355,529 L 328,491 L 321,489 L 315,484 L 304,466 L 282,439 L 243,383 L 235,390 L 166,486 L 162,490 L 155,492 L 131,526 L 126,528 L 117,524 L 117,519 L 122,509 L 142,482 L 144,472 L 213,379 L 225,362 L 225,359 L 181,300 L 181,291 L 177,285 L 176,294 L 171,306 L 159,319 L 143,327 L 134,328 L 115,335 L 97,348 L 90,364 L 89,377 L 87,380 L 79,379 L 67,371 L 44,344 L 15,323 L 19,299 L 33,273 L 51,257 L 58,255 L 62,250 L 80,241 L 91,230 L 104,206 L 106,192 L 103,188 L 103,176 L 106,173 L 116,172 L 127,184 L 188,268 L 189,275 L 193,281 L 196,283 L 201,283 L 206,289 L 209,296 L 242,339 L 280,286 L 289,282 L 294,275 L 296,267 L 316,239 L 348,198 L 356,184 L 369,172 L 376,172 L 381,178 L 381,184 L 377,189 L 377,200 L 384,216 L 398,237 L 439,262 L 456,281 L 465,301 L 468,323 L 462,330 L 445,340 L 412,375 L 403,380 L 399,381 L 394,378 L 393,364 L 386,349 L 373,336 L 339,326 L 325,319 L 312,305 L 307,284 L 301,293 L 298,305 L 260,355 L 259,364 L 327,454 L 339,472 L 339,481 L 365,515 L 366,524 L 361,529 Z" fill="#909090" stroke="none"/>
<path d="M 314,278 L 310,275 L 313,268 L 321,260 L 359,204 L 370,192 L 372,195 L 371,200 L 314,278 Z" fill="#383838" stroke="none"/>
<path d="M 195,300 L 185,299 L 195,293 L 199,287 L 200,290 L 198,294 L 200,297 L 195,300 Z" fill="#505050" stroke="none"/>
<path d="M 457,309 L 454,305 L 457,292 L 461,302 L 461,306 L 457,309 Z" fill="#464646" stroke="none"/>
</svg>