<?xml version="1.0" encoding="UTF-8"?>
<!-- Generator: visioncortex VTracer 0.6.12 -->
<svg version="1.1" xmlns="http://www.w3.org/2000/svg" width="480" height="658">
<path d="M0,0 L480,0 L480,658 L0,658 Z M109,174 L105,177 L105,187 L107,191 L107,199 L105,209 L94,228 L93,233 L90,233 L85,238 L82,241 L82,243 L77,245 L61,254 L61,257 L53,258 L39,270 L33,277 L27,286 L24,294 L24,299 L21,299 L18,311 L18,323 L23,328 L33,335 L41,342 L46,345 L56,357 L62,365 L71,373 L80,379 L88,380 L90,365 L95,353 L98,347 L103,342 L119,334 L132,330 L134,328 L143,327 L155,321 L161,317 L170,307 L175,296 L176,292 L176,283 L178,283 L180,287 L182,290 L183,301 L188,303 L189,308 L192,311 L195,316 L208,334 L213,340 L215,345 L217,345 L218,348 L220,348 L222,352 L228,361 L224,367 L224,369 L220,371 L213,382 L205,392 L197,403 L191,410 L190,415 L188,415 L175,433 L171,439 L171,442 L168,443 L162,451 L158,458 L158,460 L155,460 L152,464 L152,466 L150,466 L147,472 L145,477 L143,484 L130,502 L123,512 L120,518 L120,525 L122,527 L130,527 L133,521 L138,516 L143,510 L146,504 L152,497 L155,492 L163,489 L163,487 L165,487 L165,485 L170,480 L177,471 L185,459 L198,441 L213,421 L226,403 L239,385 L243,382 L247,386 L248,389 L250,390 L254,397 L267,414 L275,426 L278,429 L285,440 L288,440 L289,444 L299,458 L302,464 L306,466 L307,470 L309,471 L311,476 L314,479 L321,488 L329,490 L337,503 L345,514 L352,525 L355,528 L362,528 L366,525 L366,518 L355,502 L350,500 L349,495 L341,484 L339,484 L339,473 L329,460 L327,454 L322,450 L313,437 L300,420 L292,409 L290,408 L287,402 L277,388 L265,372 L260,367 L259,358 L260,353 L264,352 L272,341 L275,336 L288,319 L289,314 L292,313 L294,310 L299,303 L299,300 L301,300 L302,291 L306,285 L306,283 L309,283 L309,290 L314,304 L318,310 L325,318 L334,323 L338,323 L338,325 L357,331 L371,335 L376,337 L381,342 L383,342 L385,346 L389,351 L395,364 L396,377 L397,380 L404,379 L410,376 L425,362 L433,351 L441,344 L448,337 L459,331 L464,329 L464,325 L468,323 L468,314 L463,295 L460,291 L457,284 L453,279 L451,279 L450,274 L442,267 L431,259 L425,256 L421,253 L412,248 L398,238 L391,228 L382,213 L379,203 L377,201 L377,186 L380,186 L380,177 L375,174 L370,174 L365,179 L361,181 L350,197 L349,200 L344,205 L338,213 L325,231 L322,236 L322,239 L318,240 L307,256 L297,270 L297,277 L295,277 L292,280 L291,285 L283,285 L276,296 L276,300 L272,301 L266,309 L259,320 L259,322 L255,323 L247,335 L244,340 L242,341 L237,335 L235,331 L222,313 L213,301 L209,297 L207,292 L202,285 L195,285 L194,282 L192,282 L191,277 L189,277 L189,271 L179,257 L175,252 L165,238 L161,233 L159,233 L158,228 L146,211 L143,211 L142,207 L130,190 L123,180 L118,175 L117,174 Z " fill="#FCFCFC" transform="translate(0,0)"/>
<path d="M0,0 L3,3 L11,15 L11,17 L15,18 L18,24 L29,40 L34,44 L39,54 L44,58 L49,68 L51,68 L53,72 L56,74 L56,79 L52,78 L53,82 L46,85 L44,89 L36,92 L19,96 L-5,96 L-9,94 L-9,91 L-19,90 L-24,88 L-41,88 L-43,89 L-53,90 L-61,92 L-61,94 L-66,94 L-69,97 L-71,97 L-71,99 L-69,99 L-69,101 L-73,105 L-83,110 L-88,111 L-91,112 L-91,104 L-93,103 L-93,99 L-90,99 L-89,91 L-84,81 L-76,71 L-66,62 L-61,58 L-53,57 L-52,53 L-37,45 L-32,43 L-30,39 L-25,35 L-24,33 L-21,33 L-19,26 L-11,12 L-8,10 L-4,10 L-3,5 Z " fill="#2B5839" transform="translate(114,200)"/>
<path d="M0,0 L2,0 L4,6 L7,13 L10,20 L19,35 L25,43 L41,54 L51,59 L49,60 L49,63 L53,64 L56,67 L59,68 L62,71 L66,72 L66,75 L69,76 L73,80 L74,77 L76,78 L77,82 L75,82 L75,84 L77,84 L81,95 L84,96 L85,102 L86,106 L83,107 L82,112 L77,112 L56,99 L49,97 L43,95 L10,95 L-6,97 L-24,97 L-24,99 L-22,100 L-29,99 L-42,94 L-56,87 L-58,83 L-57,78 L-53,73 L-51,67 L-49,67 L-48,64 L-46,64 L-44,59 L-37,49 L-30,41 L-22,29 L-9,11 L-7,6 L-4,6 L-4,3 Z " fill="#2A5739" transform="translate(374,196)"/>
<path d="M0,0 L6,0 L29,11 L36,13 L45,14 L62,14 L77,12 L81,10 L111,10 L118,12 L141,26 L144,31 L149,34 L151,36 L150,41 L134,53 L129,57 L128,59 L124,61 L118,68 L116,73 L113,74 L106,82 L103,85 L101,85 L101,88 L96,91 L95,93 L88,95 L86,82 L83,72 L76,61 L68,55 L60,50 L54,48 L42,44 L26,39 L20,38 L20,35 L16,34 L8,26 L3,17 L0,6 Z " fill="#F6F5F5" transform="translate(312,282)"/>
<path d="M0,0 L4,0 L2,12 L-7,29 L-14,35 L-22,39 L-31,42 L-34,42 L-34,44 L-44,46 L-61,52 L-69,58 L-75,66 L-77,66 L-78,71 L-82,78 L-84,86 L-85,95 L-92,93 L-101,86 L-110,76 L-117,67 L-126,59 L-131,54 L-136,50 L-141,48 L-142,44 L-149,43 L-150,39 L-142,31 L-138,27 L-132,24 L-129,24 L-127,20 L-119,16 L-105,11 L-81,11 L-64,13 L-61,14 L-37,14 L-16,9 L-12,7 L-11,5 Z " fill="#F6F6F6" transform="translate(170,281)"/>
<path d="M0,0 L2,0 L8,7 L14,9 L16,10 L15,13 L11,12 L9,16 L0,28 L-3,32 L-4,40 L-6,37 L-13,46 L-15,50 L-20,55 L-24,63 L-30,68 L-32,71 L-33,77 L-37,78 L-45,90 L-55,103 L-63,114 L-70,124 L-71,127 L-73,127 L-75,131 L-78,137 L-81,140 L-88,148 L-101,166 L-106,175 L-115,173 L-118,171 L-118,162 L-114,157 L-110,150 L-106,143 L-108,142 L-105,141 L-104,138 L-102,138 L-98,137 L-98,133 L-95,133 L-93,127 L-85,116 L-71,97 L-65,89 L-64,86 L-66,86 L-64,82 L-61,80 L-62,84 L-60,84 L-58,80 L-52,70 L-48,66 L-46,61 L-43,60 L-41,56 L-32,43 L-31,41 L-34,40 L-28,40 L-26,34 L-25,32 L-20,30 L-18,24 L-9,14 L-4,6 L-2,1 Z " fill="#A88E6D" transform="translate(276,301)"/>
<path d="M0,0 L4,2 L11,12 L15,18 L19,23 L21,27 L25,31 L27,38 L31,38 L32,41 L36,43 L37,48 L47,61 L50,66 L53,67 L55,72 L66,87 L69,88 L72,97 L74,97 L73,106 L68,108 L61,108 L56,101 L48,98 L49,96 L51,97 L51,95 L48,93 L44,85 L30,66 L25,61 L23,61 L22,55 L12,41 L10,40 L6,33 L-2,23 L-6,23 L-6,21 L-4,21 L-7,16 L-8,15 L-8,9 L-2,1 Z " fill="#A98E6E" transform="translate(254,366)"/>
<path d="M0,0 L4,0 L3,6 L5,7 L6,10 L15,10 L14,16 L9,19 L10,15 L7,15 L5,20 L-1,27 L-9,40 L-15,47 L-22,57 L-34,73 L-37,79 L-40,84 L-43,84 L-43,86 L-45,86 L-47,91 L-49,96 L-46,97 L-44,102 L-52,101 L-65,97 L-65,90 L-55,76 L-43,59 L-40,59 L-39,54 L-29,40 L-22,31 L-15,21 L-13,20 L-10,14 Z " fill="#30533B" transform="translate(362,180)"/>
<path d="M0,0 L5,5 L17,22 L20,26 L20,29 L23,29 L35,46 L36,51 L40,53 L51,68 L53,78 L59,83 L60,90 L64,90 L64,99 L62,97 L59,100 L56,100 L55,103 L55,101 L52,100 L51,94 L45,87 L42,85 L40,79 L35,73 L33,67 L29,67 L29,63 L25,62 L21,53 L14,43 L10,41 L7,34 L3,29 L-4,19 L-9,13 L-9,8 L-3,6 L0,4 Z " fill="#2E523A" transform="translate(123,182)"/>
<path d="M0,0 L5,1 L10,11 L16,18 L22,27 L27,33 L29,35 L31,35 L34,46 L32,46 L31,50 L29,51 L26,57 L22,55 L14,44 L14,42 L12,42 L11,46 L11,44 L9,44 L8,40 L10,40 L6,32 L-8,14 L-11,9 L-5,8 L-5,6 L-3,6 L-3,4 L-1,3 Z " fill="#A78E6E" transform="translate(206,301)"/>
<path d="M0,0 L3,1 L3,10 L10,15 L8,20 L1,30 L-3,35 L-6,41 L-12,48 L-15,51 L-17,55 L-25,55 L-27,53 L-27,46 L-21,35 L-11,22 L-3,10 L-1,1 Z " fill="#2B2B2B" transform="translate(147,472)"/>
<path d="M0,0 L5,1 L13,12 L13,16 L18,18 L29,34 L29,41 L25,44 L18,44 L11,35 L4,24 L-2,16 L-8,6 L-8,4 Z " fill="#292929" transform="translate(337,484)"/>
<path d="M0,0 L0,3 L-2,8 L-5,8 L-7,15 L-17,28 L-27,43 L-34,51 L-41,61 L-44,66 L-46,66 L-47,70 L-49,72 L-52,77 L-56,83 L-60,82 L-55,72 L-53,72 L-53,70 L-50,70 L-48,65 L-42,55 L-32,42 L-22,28 L-17,22 L-11,11 L-4,3 L-3,1 Z " fill="#173621" transform="translate(372,194)"/>
<path d="M0,0 L7,1 L15,3 L11,8 L7,14 L6,23 L-2,22 L-5,21 L-10,15 L-12,14 L-12,8 L-4,8 L-3,3 Z " fill="#262827" transform="translate(295,277)"/>
<path d="M0,0 L1,4 L-4,8 L-13,12 L-22,13 L-27,16 L-42,21 L-53,27 L-58,32 L-63,33 L-61,32 L-59,28 L-54,22 L-47,17 L-27,10 L-20,10 L-20,8 L-3,2 Z " fill="#7C7C7C" transform="translate(156,315)"/>
<path d="M0,0 L6,3 L10,7 L10,10 L6,8 L3,5 L-2,9 L-14,26 L-28,45 L-39,60 L-42,60 L-40,55 L-37,51 L-35,51 L-34,46 L-21,29 L-11,15 L-3,4 Z " fill="#564B3F" transform="translate(240,377)"/>
<path d="M0,0 L8,0 L12,5 L14,6 L15,12 L10,16 L4,16 L4,22 L2,22 L0,17 L-4,13 L-4,3 Z " fill="#2D302D" transform="translate(109,174)"/>
<path d="M0,0 L2,0 L9,8 L16,17 L16,28 L6,33 L0,33 L-5,29 L-10,21 L-13,18 L-14,15 L-16,14 L-16,10 L-12,11 L-8,17 L-1,17 L4,16 L5,7 L3,7 Z M8,13 L3,19 L-5,22 L-3,28 L0,31 L7,31 L11,29 L11,26 L13,26 L13,17 L10,13 Z " fill="#4B453F" transform="translate(323,456)"/>
<path d="M0,0 L1,0 L2,7 L9,8 L10,12 L15,13 L14,17 L13,20 L8,21 L8,24 L3,24 L3,26 L0,26 L-1,18 L-6,12 L-6,8 L-1,5 Z " fill="#212220" transform="translate(185,274)"/>
<path d="M0,0 L2,0 L1,4 L5,4 L10,10 L16,11 L15,21 L13,21 L13,23 L8,25 L5,24 L6,21 L0,17 L-1,16 L-1,7 L-2,5 Z " fill="#626161" transform="translate(150,466)"/>
<path d="M0,0 L5,0 L16,7 L23,13 L29,23 L33,36 L34,45 L37,46 L35,49 L30,49 L29,46 L28,33 L20,17 L16,13 L16,11 L11,9 L7,5 L1,2 Z " fill="#656465" transform="translate(367,331)"/>
<path d="M0,0 L4,1 L17,19 L29,35 L36,44 L38,45 L39,51 L36,49 L36,47 L34,47 L34,45 L30,44 L18,28 L18,24 L14,23 L5,10 L0,3 Z " fill="#62584C" transform="translate(289,409)"/>
<path d="M0,0 L1,4 L5,6 L8,9 L8,11 L17,13 L16,17 L12,23 L1,18 L1,15 L-2,14 L-2,9 L-5,9 L-3,4 Z " fill="#5B5A59" transform="translate(282,287)"/>
<path d="M0,0 L5,5 L12,14 L16,20 L19,24 L20,28 L24,30 L33,43 L34,49 L30,47 L23,38 L15,26 L15,23 L11,22 L1,6 Z " fill="#173821" transform="translate(114,195)"/>
<path d="M0,0 L1,2 L-11,19 L-20,32 L-29,44 L-32,48 L-35,47 L-33,41 L-39,41 L-42,36 L-38,37 L-29,39 L-25,31 L-11,12 L-7,7 L-5,7 L-3,2 Z " fill="#564B3F" transform="translate(199,436)"/>
<path d="M0,0 L8,1 L10,3 L10,12 L7,12 L6,17 L-2,17 L-3,13 L-6,12 L-5,5 Z " fill="#292B28" transform="translate(370,174)"/>
<path d="M0,0 L3,1 L5,4 L5,13 L3,13 L3,16 L-1,18 L-8,18 L-12,13 L-13,9 L-4,5 Z " fill="#646363" transform="translate(331,469)"/>
<path d="M0,0 L5,2 L13,10 L23,23 L31,30 L36,33 L40,34 L41,26 L42,26 L42,39 L36,38 L25,30 L15,21 L7,10 L0,2 Z " fill="#696869" transform="translate(44,341)"/>
<path d="M0,0 L4,1 L4,5 L8,5 L13,14 L17,18 L18,23 L25,29 L28,34 L27,38 L20,39 L14,42 L10,40 L19,38 L18,34 L22,35 L21,30 L14,24 L8,13 L3,8 L0,2 Z " fill="#1B3724" transform="translate(148,244)"/>
<path d="M0,0 L4,1 L13,11 L25,28 L32,38 L32,41 L28,40 L28,37 L24,37 L20,28 L16,24 L12,18 L8,13 L2,4 Z " fill="#665A4C" transform="translate(257,367)"/>
<path d="M0,0 L0,3 L-11,14 L-16,19 L-24,29 L-37,41 L-43,43 L-42,39 L-39,39 L-37,35 L-33,34 L-33,31 L-25,24 L-21,19 L-18,19 L-16,13 L-9,5 L-6,5 L-5,2 Z " fill="#6D6C6C" transform="translate(446,336)"/>
<path d="M0,0 L2,1 L1,6 L-6,16 L-9,16 L-10,27 L-10,30 L-17,31 L-22,38 L-23,43 L-26,42 L-26,35 L-19,27 L-17,27 L-15,21 L-10,14 L-8,13 L-4,6 Z " fill="#564737" transform="translate(269,337)"/>
<path d="M0,0 L2,4 L6,19 L6,28 L4,28 L4,25 L1,25 L-3,20 L-8,17 L-9,13 L-5,11 L-5,8 L-2,7 L-1,12 L1,12 Z " fill="#4B5B51" transform="translate(462,295)"/>
<path d="M0,0 L5,4 L17,21 L27,34 L25,38 L22,35 L14,25 L8,16 L3,10 L0,3 L-3,1 Z " fill="#655A4D" transform="translate(210,299)"/>
<path d="M0,0 L4,1 L5,11 L9,22 L15,30 L20,35 L23,36 L23,39 L28,40 L28,41 L21,40 L13,34 L6,25 L1,13 L0,9 L0,2 L-2,1 Z " fill="#605F5F" transform="translate(309,281)"/>
<path d="M0,0 L4,0 L5,5 L7,6 L8,9 L16,12 L15,16 L13,14 L7,12 L2,7 L2,5 L-2,6 L-4,13 L-11,22 L-16,28 L-18,28 L-16,22 L-8,10 L-3,4 L0,4 Z " fill="#504539" transform="translate(276,296)"/>
<path d="M0,0 L2,0 L2,10 L-3,23 L-10,32 L-15,37 L-17,37 L-17,32 L-11,27 L-3,11 L-1,1 Z " fill="#686868" transform="translate(174,282)"/>
<path d="M0,0 L4,1 L15,15 L15,18 L19,20 L26,30 L29,35 L28,38 L26,38 L14,21 L2,5 Z " fill="#5C4F42" transform="translate(249,388)"/>
<path d="M0,0 L2,1 L2,9 L5,9 L5,7 L10,7 L10,4 L18,6 L22,9 L16,14 L15,16 L5,15 L5,12 L0,10 Z " fill="#676766" transform="translate(183,291)"/>
<path d="M0,0 L4,2 L4,5 L8,5 L6,10 L-2,21 L-4,24 L-9,23 L-17,13 L-17,11 L-19,11 L-19,6 L-17,6 L-7,20 L-5,20 L-2,14 L0,13 L2,9 L0,4 Z " fill="#554736" transform="translate(237,337)"/>
<path d="M0,0 L5,3 L18,21 L24,30 L25,33 L28,35 L27,38 L22,33 L12,20 L10,17 L10,14 L6,13 L0,3 Z " fill="#564A3C" transform="translate(278,426)"/>
<path d="M0,0 L22,1 L22,2 L2,4 L-21,12 L-23,11 L-23,9 L-18,5 L-13,6 L-13,4 L-10,2 Z " fill="#284132" transform="translate(66,288)"/>
<path d="M0,0 L2,0 L1,4 L-4,11 L-7,17 L-9,19 L-10,28 L-13,28 L-13,26 L-17,26 L-15,19 L-13,16 L-10,16 L-8,10 L-2,2 Z " fill="#5B5045" transform="translate(168,444)"/>
<path d="M0,0 L3,0 L2,5 L-7,16 L-18,31 L-19,31 L-18,23 L-7,10 Z " fill="#605448" transform="translate(209,387)"/>
<path d="M0,0 L16,4 L24,7 L31,10 L32,13 L21,11 L2,5 L2,3 L-2,2 Z " fill="#7F7F7F" transform="translate(336,320)"/>
<path d="M0,0 L17,0 L22,2 L32,4 L32,7 L16,6 L-5,5 L-5,4 L7,3 L-1,2 Z " fill="#435A4B" transform="translate(73,287)"/>
<path d="M0,0 L5,5 L16,19 L22,28 L22,31 L18,29 L8,16 L0,5 L-1,1 Z " fill="#53493B" transform="translate(194,310)"/>
<path d="M0,0 L7,1 L4,5 L1,6 L-16,6 L-23,4 L-23,2 L-5,1 Z " fill="#364F42" transform="translate(373,291)"/>
<path d="M0,0 L33,0 L34,2 L9,3 L5,5 L-7,6 L-5,1 Z " fill="#4C5D53" transform="translate(384,290)"/>
<path d="M0,0 L1,2 L8,2 L15,12 L15,14 L12,14 L12,16 L5,15 L5,13 L1,12 L4,11 L5,7 L6,4 L1,4 Z " fill="#5C5C5C" transform="translate(194,283)"/>
<path d="M0,0 L5,5 L15,19 L15,25 L17,25 L18,30 L13,30 L13,20 L9,20 L6,12 L1,8 L0,6 Z " fill="#525C56" transform="translate(174,252)"/>
<path d="M0,0 L2,0 L1,6 L-6,17 L-7,19 L-10,19 L-10,23 L-16,26 L-15,21 L-3,4 Z " fill="#685D52" transform="translate(188,415)"/>
<path d="M0,0 L3,0 L4,4 L1,5 L1,9 L-11,15 L-17,17 L-19,16 L-11,9 L-1,2 Z " fill="#81807F" transform="translate(463,320)"/>
<path d="M0,0 L5,2 L9,7 L13,16 L14,29 L12,29 L8,18 L9,14 L5,13 L2,2 L0,2 Z " fill="#314337" transform="translate(449,278)"/>
<path d="M0,0 L3,1 L4,6 L6,6 L6,0 L7,0 L8,10 L3,20 L-3,22 L0,9 Z " fill="#4E5F53" transform="translate(107,190)"/>
<path d="M0,0 L9,2 L10,6 L16,8 L25,15 L26,18 L22,19 L12,10 L1,3 Z " fill="#767675" transform="translate(19,323)"/>
<path d="M0,0 L2,2 L2,9 L7,7 L6,11 L-1,18 L-2,21 L-4,21 L-4,9 Z " fill="#343E37" transform="translate(22,302)"/>
<path d="M0,0 L5,0 L19,10 L24,14 L25,20 L21,18 L17,14 L17,11 L11,10 L10,7 L5,6 L4,3 L0,2 Z " fill="#324639" transform="translate(423,257)"/>
<path d="M0,0 L4,1 L-2,14 L-4,24 L-5,32 L-8,31 L-6,11 Z " fill="#504F4F" transform="translate(93,348)"/>
<path d="M0,0 L2,0 L1,6 L-13,24 L-15,25 L-15,20 L-5,7 Z " fill="#55483B" transform="translate(287,313)"/>
<path d="M0,0 L3,1 L1,6 L-4,11 L-9,20 L-12,24 L-14,24 L-12,16 L-6,8 L-4,8 L-2,3 Z " fill="#63564B" transform="translate(228,361)"/>
<path d="M0,0 L4,1 L4,3 L1,4 L-1,8 L-3,8 L-3,10 L-5,10 L-5,12 L-14,14 L-17,11 L-17,8 L-10,9 L-8,10 L-6,6 L-1,2 Z " fill="#3F382F" transform="translate(206,297)"/>
<path d="M0,0 L2,0 L3,3 L0,10 L-5,11 L-7,17 L-8,19 L-12,17 L-2,3 Z " fill="#6E6257" transform="translate(256,322)"/>
</svg>
