<?xml version="1.0" encoding="UTF-8"?>
<svg width="480" height="88" viewBox="0 0 480 88" xmlns="http://www.w3.org/2000/svg">
<rect width="480" height="88" fill="white"/>
<path d="M 0,0 L 479,0 L 479,87 L 0,87 Z" fill="#fafafb" stroke="none"/>
<path d="M 148,10 L 194,10 L 194,81 L 148,81 Z" fill="#b8b8b9" stroke="none"/>
<path d="M 207,23 L 239,23 L 239,84 L 207,84 Z" fill="#f3dc8d" stroke="none"/>
<path d="M 157,20 L 186,20 L 186,56 L 157,56 Z" fill="#ddd49b" stroke="none"/>
<path d="M 26,14 L 66,14 L 66,39 L 26,39 Z" fill="#f9f9f9" stroke="none"/>
<path d="M 323,16 L 335,16 L 335,85 L 323,85 Z" fill="#efca4c" stroke="none"/>
<path d="M 338,14 L 348,14 L 348,85 L 338,85 Z" fill="#e9c855" stroke="none"/>
<path d="M 206,12 L 239,12 L 239,21 L 206,21 Z" fill="#f1f1f1" stroke="none"/>
<path d="M 161,41 L 186,41 L 186,68 L 161,68 Z" fill="#b8b8b9" stroke="none"/>
</svg>