<?xml version="1.0" encoding="UTF-8"?>
<svg width="480" height="201" viewBox="0 0 480 201" xmlns="http://www.w3.org/2000/svg">
<rect width="480" height="201" fill="white"/>
<path d="M 274,187 L 246,155 L 245,126 L 261,111 L 269,89 L 271,62 L 286,47 L 277,26 L 255,26 L 241,42 L 211,42 L 203,63 L 206,90 L 215,111 L 233,123 L 235,151 L 224,170 L 209,184 L 235,187 L 265,187 Z" fill="#fdfdfe" stroke="none"/>
<path d="M 272,186 L 225,185 L 214,181 L 227,170 L 237,157 L 236,134 L 227,119 L 215,107 L 208,90 L 205,69 L 222,63 L 267,64 L 267,86 L 262,105 L 251,118 L 244,135 L 245,158 L 257,170 L 270,181 Z" fill="#edbb7d" stroke="none"/>
<path d="M 268,62 L 204,62 L 203,47 L 208,43 L 263,44 L 267,48 L 268,62 Z" fill="#f7f7f7" stroke="none"/>
<path d="M 271,61 L 267,44 L 248,42 L 252,31 L 260,25 L 265,23 L 276,26 L 280,29 L 285,38 L 284,50 L 281,55 L 273,60 Z" fill="#ea9d3d" stroke="none"/>
<path d="M 247,109 L 233,99 L 243,86 L 245,86 L 254,93 L 257,98 L 248,108 Z" fill="#c8dfe0" stroke="none"/>
<path d="M 228,85 L 219,85 L 218,71 L 220,69 L 235,69 L 236,83 L 235,84 L 229,84 Z" fill="#c8dfe0" stroke="none"/>
</svg>