<?xml version="1.0" encoding="UTF-8"?>
<svg width="480" height="88" viewBox="0 0 480 88" xmlns="http://www.w3.org/2000/svg">
<rect width="480" height="88" fill="white"/>
<path d="M 418,87 L 414,65 L 434,53 L 429,46 L 430,35 L 425,10 L 414,12 L 421,27 L 412,35 L 402,29 L 386,28 L 372,37 L 385,17 L 380,6 L 366,24 L 373,47 L 364,53 L 382,66 L 381,85 L 397,77 L 414,84 Z" fill="#fafafb" stroke="none"/>
<path d="M 167,81 L 158,78 L 164,72 L 158,54 L 149,39 L 147,29 L 150,19 L 156,13 L 164,9 L 175,10 L 183,14 L 189,20 L 192,29 L 193,50 L 191,59 L 187,67 L 181,74 L 174,79 Z" fill="#b8b8b9" stroke="none"/>
<path d="M 239,84 L 215,84 L 211,82 L 218,76 L 222,69 L 222,59 L 219,50 L 212,45 L 206,27 L 214,22 L 238,22 L 238,33 L 235,43 L 225,57 L 225,69 L 230,76 L 237,81 Z" fill="#f3dc8d" stroke="none"/>
<path d="M 177,56 L 168,47 L 159,44 L 157,40 L 156,31 L 160,23 L 169,19 L 174,20 L 181,25 L 186,38 L 181,45 L 179,54 Z" fill="#ddd49b" stroke="none"/>
<path d="M 66,39 L 56,37 L 38,37 L 34,35 L 33,30 L 26,26 L 34,17 L 43,14 L 48,14 L 52,16 L 59,21 L 63,29 L 66,38 Z" fill="#f9f9f9" stroke="none"/>
<path d="M 335,85 L 329,83 L 325,71 L 324,56 L 322,50 L 323,52 L 325,39 L 334,15 L 335,38 L 335,85 Z" fill="#efca4c" stroke="none"/>
<path d="M 340,85 L 338,80 L 339,56 L 337,57 L 339,40 L 337,18 L 340,15 L 346,36 L 348,52 L 347,69 L 343,83 Z" fill="#e9c855" stroke="none"/>
<path d="M 238,21 L 206,21 L 205,14 L 207,11 L 238,12 L 239,19 L 238,21 Z" fill="#f1f1f1" stroke="none"/>
<path d="M 178,68 L 174,66 L 161,49 L 162,45 L 166,47 L 175,56 L 179,56 L 183,43 L 186,41 L 183,62 L 181,66 L 178,68 Z" fill="#b8b8b9" stroke="none"/>
</svg>