<?xml version="1.0" encoding="UTF-8"?>
<!-- Generator: visioncortex VTracer 0.6.12 -->
<svg version="1.1" xmlns="http://www.w3.org/2000/svg" width="291" height="344">
<path d="M0,0 L291,0 L291,344 L0,344 Z M198,21 L186,25 L171,34 L169,39 L165,41 L157,48 L152,54 L152,56 L150,56 L149,60 L149,70 L150,66 L152,66 L150,73 L147,76 L145,77 L146,83 L157,83 L163,87 L173,101 L172,103 L177,105 L179,105 L184,110 L186,109 L187,111 L196,113 L197,117 L201,120 L200,122 L212,126 L216,129 L216,137 L212,139 L194,138 L190,137 L166,136 L167,138 L160,137 L142,137 L139,135 L126,135 L126,136 L80,136 L76,135 L44,133 L30,130 L29,128 L29,130 L26,128 L23,128 L23,119 L22,119 L22,134 L25,149 L26,170 L28,169 L30,179 L31,200 L34,211 L36,212 L39,226 L40,236 L42,239 L45,248 L49,256 L50,254 L52,254 L54,260 L62,275 L72,290 L75,295 L74,297 L79,300 L83,302 L86,305 L85,307 L91,309 L97,311 L101,312 L101,314 L106,316 L105,318 L114,318 L117,317 L117,319 L115,320 L120,323 L121,321 L123,323 L124,316 L127,316 L130,313 L136,312 L146,317 L147,315 L152,316 L147,318 L147,319 L156,319 L155,316 L162,318 L164,316 L163,313 L173,311 L178,309 L179,304 L183,302 L195,293 L200,287 L201,283 L203,283 L206,269 L208,269 L212,253 L214,253 L223,214 L224,200 L225,195 L227,192 L227,149 L224,143 L222,130 L226,129 L222,129 L222,126 L228,124 L239,123 L251,118 L257,114 L264,107 L270,97 L272,89 L270,79 L265,63 L260,55 L258,49 L255,46 L253,43 L247,39 L240,33 L239,29 L238,32 L233,28 L222,24 L222,22 Z " fill="#F8F8F8" transform="translate(0,0)"/>
<path d="M0,0 L5,2 L6,0 L6,2 L20,5 L52,7 L56,8 L102,8 L102,7 L115,7 L119,9 L136,9 L150,10 L158,10 L180,12 L192,12 L194,9 L194,2 L197,2 L197,10 L199,10 L200,19 L200,72 L199,86 L190,125 L188,125 L184,141 L182,141 L179,155 L177,155 L175,161 L166,169 L157,176 L155,176 L154,181 L149,183 L143,184 L139,185 L140,189 L136,190 L131,188 L132,191 L123,191 L127,189 L127,187 L123,188 L121,189 L112,184 L98,186 L93,187 L80,187 L77,186 L77,184 L71,182 L63,176 L61,172 L65,172 L65,170 L63,170 L62,167 L54,169 L46,159 L35,142 L28,128 L28,126 L26,126 L25,128 L18,113 L17,108 L16,105 L14,93 L13,88 L12,77 L10,73 L9,65 L7,48 L4,33 L2,18 L-1,3 Z M59,27 L49,29 L47,34 L46,56 L47,69 L50,74 L63,76 L73,76 L77,75 L88,75 L92,76 L103,76 L112,70 L116,69 L125,70 L128,67 L132,65 L133,61 L123,64 L117,65 L113,64 L111,59 L107,50 L105,42 L105,29 L89,28 L68,28 Z M104,127 L101,129 L107,131 L108,134 L106,135 L110,136 L110,138 L113,139 L114,142 L119,146 L124,148 L128,154 L139,159 L144,158 L152,153 L158,145 L163,141 L164,134 L163,132 L160,133 L160,135 L157,135 L151,142 L148,143 L146,146 L139,149 L134,148 L128,144 L127,142 L122,139 L117,134 L112,133 L112,131 L106,127 Z " fill="#F6F5F3" transform="translate(24,128)"/>
<path d="M0,0 L11,0 L28,2 L39,6 L42,9 L43,6 L45,11 L56,20 L58,20 L60,25 L63,28 L65,34 L70,43 L74,56 L76,66 L74,74 L69,82 L62,90 L57,94 L46,99 L43,100 L32,101 L28,103 L25,103 L25,106 L21,105 L18,102 L11,101 L4,99 L5,97 L0,93 L0,90 L-5,89 L-10,88 L-10,86 L-13,87 L-17,82 L-22,81 L-24,79 L-24,76 L-30,68 L-35,62 L-41,60 L-50,60 L-51,54 L-47,52 L-45,49 L-44,39 L-41,31 L-33,21 L-28,16 L-26,14 L-24,10 L-13,5 Z M18,9 L18,12 L19,17 L16,21 L16,32 L13,35 L8,30 L5,22 L-1,12 L-2,11 L-9,12 L-14,16 L-16,19 L-22,22 L-18,25 L-12,27 L-5,33 L-11,38 L-27,39 L-31,43 L-32,50 L-27,55 L-18,50 L-18,48 L-6,51 L-1,54 L1,60 L-1,63 L-12,62 L-12,64 L-19,62 L-24,62 L-24,66 L-18,74 L-9,82 L-13,84 L-9,86 L-6,84 L1,85 L5,87 L7,87 L9,92 L16,92 L18,87 L15,85 L12,85 L10,87 L5,77 L7,77 L8,72 L9,61 L8,56 L10,52 L15,52 L17,59 L21,63 L25,82 L29,90 L35,93 L37,90 L31,85 L29,82 L29,75 L36,73 L43,78 L45,85 L48,87 L55,86 L60,82 L65,74 L65,72 L67,72 L68,54 L64,47 L47,44 L43,44 L42,40 L40,40 L43,31 L49,29 L47,24 L42,21 L39,22 L31,36 L29,38 L25,39 L23,11 L21,9 Z " fill="#EAE7E3" transform="translate(196,23)"/>
<path d="M0,0 L4,1 L5,2 L7,30 L12,28 L18,18 L22,12 L27,14 L30,17 L31,20 L25,22 L23,31 L24,36 L33,37 L46,40 L49,49 L48,53 L48,63 L42,73 L35,78 L30,78 L27,76 L25,69 L18,64 L18,62 L8,59 L7,43 L4,37 L0,35 L-7,34 L-7,38 L-9,38 L-9,45 L-10,51 L-9,54 L-10,65 L-11,68 L-13,68 L-8,78 L-6,76 L-2,77 L0,78 L-2,83 L-9,83 L-11,78 L-17,77 L-20,75 L-26,76 L-28,77 L-31,74 L-27,73 L-37,64 L-43,56 L-42,53 L-32,54 L-30,55 L-30,53 L-19,54 L-17,50 L-20,44 L-26,41 L-36,39 L-36,41 L-46,46 L-50,41 L-49,34 L-45,30 L-29,29 L-23,24 L-31,17 L-36,16 L-40,13 L-34,10 L-29,5 L-25,2 L-20,2 L-15,10 L-11,17 L-9,23 L-5,26 L-2,23 L-2,12 L1,7 L-1,1 Z M24,42 L22,46 L23,52 L29,59 L30,65 L32,61 L40,62 L41,54 L40,52 L42,51 L36,46 L30,45 L30,43 Z " fill="#F6F5F4" transform="translate(214,32)"/>
<path d="M0,0 L9,1 L37,1 L46,2 L46,15 L50,28 L54,35 L54,37 L59,38 L71,35 L74,35 L73,38 L67,41 L66,43 L55,42 L44,49 L33,49 L29,48 L18,48 L14,49 L4,49 L-9,47 L-12,42 L-13,22 L-12,7 L-10,2 Z " fill="#F9F9F9" transform="translate(83,155)"/>
<path d="M0,0 L5,2 L8,4 L8,6 L13,7 L18,12 L23,15 L26,19 L32,22 L37,21 L43,18 L44,16 L49,13 L53,8 L56,8 L57,5 L60,6 L60,12 L55,17 L49,24 L44,29 L38,32 L32,31 L23,26 L19,20 L13,18 L10,15 L9,12 L6,11 L6,9 L2,8 L4,7 L3,4 L-3,2 Z " fill="#EAE7E2" transform="translate(128,255)"/>
<path d="M0,0 L7,0 L12,3 L15,9 L15,25 L22,26 L24,30 L18,32 L18,39 L23,45 L26,48 L23,50 L17,46 L13,35 L10,20 L5,14 L4,9 L-1,9 Z " fill="#FAFAFA" transform="translate(207,66)"/>
<path d="M0,0 L6,1 L6,3 L14,5 L18,10 L16,10 L17,17 L16,20 L8,19 L6,23 L4,16 L-1,10 L-2,4 Z " fill="#E4E1DA" transform="translate(238,74)"/>
<path d="M0,0 L3,4 L4,6 L4,49 L2,52 L1,49 Z " fill="#CCC7BB" transform="translate(223,143)"/>
<path d="M0,0 L2,1 L4,4 L7,5 L8,2 L8,5 L12,6 L8,6 L8,14 L7,14 L7,6 L4,6 L5,14 L2,17 L-10,17 L-37,15 L-48,13 L-48,12 L-24,13 L-20,14 L-2,15 L2,13 L2,5 L-2,1 Z " fill="#B5AA93" transform="translate(214,124)"/>
<path d="M0,0 L1,0 L3,19 L6,32 L9,53 L10,57 L10,65 L8,68 L8,60 L6,50 L4,51 L3,30 L0,15 Z " fill="#B6AC96" transform="translate(22,119)"/>
<path d="M0,0 L4,1 L0,4 L-2,4 L-3,11 L-5,9 L-7,11 L-11,7 L-9,7 L-9,5 L-12,6 L-21,6 L-18,3 L-4,1 Z " fill="#C9C2B3" transform="translate(126,312)"/>
<path d="M0,0 L5,5 L13,3 L14,7 L16,7 L17,10 L12,9 L17,15 L19,17 L16,18 L12,15 L12,13 L8,9 L4,8 L1,5 L1,3 Z " fill="#CAC4B6" transform="translate(73,291)"/>
<path d="M0,0 L1,2 L-8,13 L-10,22 L-10,24 L-13,24 L-14,28 L-14,18 L-13,14 L-11,14 L-9,9 Z " fill="#EDECE8" transform="translate(163,42)"/>
<path d="M0,0 L1,0 L2,16 L4,23 L5,23 L5,31 L2,30 L-1,19 L-1,3 Z " fill="#C2BAA9" transform="translate(32,181)"/>
<path d="M0,0 L2,4 L12,5 L23,7 L27,14 L26,32 L19,31 L19,30 L25,30 L25,22 L23,21 L25,21 L23,9 L10,7 L1,5 Z " fill="#B4A993" transform="translate(237,63)"/>
<path d="M0,0 L24,1 L24,4 L16,4 L9,3 L-2,3 L-15,8 L-18,8 L-10,3 Z " fill="#B4A891" transform="translate(198,21)"/>
</svg>
