<?xml version="1.0" encoding="UTF-8"?>
<!-- Generator: visioncortex VTracer 0.6.12 -->
<svg version="1.1" xmlns="http://www.w3.org/2000/svg" width="216" height="344">
<path d="M0,0 L216,0 L216,344 L0,344 Z M58,23 L53,25 L51,24 L49,26 L49,29 L44,29 L29,44 L29,46 L27,46 L24,54 L23,72 L26,74 L27,80 L26,82 L29,85 L24,83 L21,83 L22,88 L20,91 L22,100 L28,113 L31,110 L35,117 L41,117 L41,111 L35,109 L39,110 L45,111 L48,112 L51,121 L55,126 L57,126 L58,132 L67,135 L61,138 L59,134 L52,134 L51,140 L47,137 L43,129 L41,130 L43,135 L44,137 L41,138 L39,140 L37,142 L37,146 L39,146 L39,144 L42,144 L42,147 L45,150 L53,163 L62,171 L73,178 L77,180 L85,179 L87,173 L89,173 L93,177 L94,168 L92,153 L90,154 L89,158 L88,158 L87,166 L82,167 L70,160 L66,156 L71,155 L75,159 L81,161 L83,163 L83,156 L82,155 L84,153 L82,149 L85,148 L81,142 L74,131 L59,116 L53,106 L50,94 L50,91 L60,86 L59,84 L59,78 L64,76 L67,74 L68,81 L69,81 L69,75 L79,73 L83,69 L85,65 L85,55 L83,51 L82,53 L81,52 L71,51 L71,53 L67,54 L63,50 L61,54 L59,52 L63,48 L66,46 L68,49 L69,39 L71,31 L70,26 L65,23 Z M148,23 L146,24 L145,29 L145,37 L147,46 L149,46 L143,53 L143,59 L145,58 L145,56 L150,57 L154,49 L155,39 L156,41 L162,39 L170,45 L178,46 L178,43 L180,45 L182,44 L182,42 L180,42 L179,38 L173,33 L172,31 L167,30 L161,26 L156,27 L154,28 L153,31 L151,25 L154,24 Z M99,71 L93,72 L89,78 L86,89 L85,110 L83,119 L83,132 L86,141 L88,143 L89,150 L90,148 L94,149 L100,147 L105,148 L109,151 L111,145 L113,148 L111,151 L111,159 L113,160 L122,161 L124,163 L120,165 L124,168 L121,171 L119,177 L115,180 L128,180 L131,181 L131,183 L127,186 L134,190 L140,188 L139,189 L139,197 L145,197 L148,194 L149,197 L144,199 L137,198 L135,199 L134,193 L131,194 L130,198 L130,209 L129,213 L132,218 L131,227 L132,229 L126,229 L124,222 L119,225 L117,227 L116,225 L114,225 L115,221 L110,219 L110,217 L112,217 L109,206 L105,204 L104,202 L108,201 L110,198 L108,194 L106,183 L105,181 L96,180 L91,190 L94,192 L89,195 L89,197 L83,197 L84,194 L84,187 L79,186 L67,180 L60,176 L58,176 L56,172 L53,169 L50,169 L50,166 L48,166 L47,162 L41,150 L39,146 L37,149 L37,153 L32,154 L32,158 L29,158 L32,167 L38,178 L40,179 L42,178 L41,182 L38,184 L32,176 L28,170 L26,169 L23,170 L24,180 L28,191 L30,195 L32,195 L32,198 L39,204 L40,206 L43,206 L43,208 L46,209 L47,211 L50,212 L53,215 L62,219 L67,220 L66,222 L73,223 L79,224 L83,226 L84,228 L82,229 L87,234 L88,247 L85,261 L84,263 L82,267 L80,271 L78,271 L76,277 L79,278 L76,279 L73,278 L71,276 L69,281 L67,281 L66,284 L64,287 L61,291 L56,302 L55,308 L52,317 L54,319 L56,316 L60,319 L60,317 L63,316 L61,316 L61,310 L64,307 L65,301 L69,299 L76,287 L80,283 L82,282 L82,293 L91,291 L94,299 L101,297 L99,292 L105,293 L105,296 L107,296 L108,299 L113,300 L114,296 L118,301 L114,306 L118,307 L123,298 L123,296 L114,294 L114,292 L107,291 L108,289 L120,291 L126,293 L134,291 L134,293 L131,294 L135,297 L140,298 L140,300 L138,300 L136,306 L133,306 L132,310 L130,310 L128,314 L117,316 L114,313 L108,313 L102,318 L99,319 L95,316 L84,313 L84,315 L80,314 L78,316 L85,319 L92,323 L101,323 L105,322 L123,322 L130,319 L132,318 L139,322 L148,324 L152,323 L150,323 L148,319 L141,315 L140,311 L147,305 L147,307 L161,305 L157,301 L152,284 L150,278 L145,263 L143,263 L141,255 L139,254 L140,240 L142,235 L146,232 L150,230 L149,229 L158,225 L162,225 L171,218 L176,214 L176,212 L178,212 L180,208 L182,207 L183,201 L184,197 L186,197 L187,199 L188,196 L181,196 L180,199 L169,204 L156,209 L159,210 L159,212 L149,212 L146,215 L142,213 L143,211 L146,208 L147,207 L155,205 L167,198 L170,195 L171,189 L173,188 L174,190 L181,179 L182,175 L183,168 L177,169 L173,174 L171,176 L172,177 L169,180 L165,181 L167,184 L163,182 L159,183 L160,180 L165,175 L171,170 L173,165 L173,161 L175,161 L175,153 L168,154 L165,158 L163,163 L160,162 L155,168 L152,170 L152,173 L149,176 L142,177 L140,177 L141,172 L143,173 L145,171 L153,165 L157,161 L160,155 L164,152 L164,150 L167,145 L169,146 L173,139 L175,137 L175,135 L177,133 L176,124 L182,129 L185,125 L185,117 L180,115 L181,112 L183,113 L185,107 L189,108 L191,111 L192,96 L188,95 L189,88 L187,87 L186,83 L190,83 L191,85 L192,82 L183,80 L184,77 L182,73 L177,74 L176,76 L175,80 L175,95 L172,84 L170,87 L171,90 L171,99 L165,109 L163,109 L155,125 L149,135 L148,138 L144,142 L140,147 L138,149 L137,153 L134,154 L132,158 L130,154 L132,152 L130,152 L130,141 L131,127 L131,96 L130,91 L128,92 L125,80 L124,73 L121,71 L117,71 L117,73 L114,72 L112,76 L113,79 L117,84 L118,90 L120,103 L120,107 L118,109 L114,106 L115,104 L110,99 L109,98 L101,99 L101,102 L100,104 L97,104 L97,107 L94,107 L94,98 L96,94 L97,94 L98,84 L102,77 L103,71 Z M112,180 L111,186 L115,200 L118,204 L119,190 L120,185 L121,183 L114,181 Z " fill="#F7F7F7" transform="translate(0,0)"/>
<path d="M0,0 L7,0 L11,8 L20,19 L27,27 L37,33 L45,37 L51,39 L59,39 L61,36 L65,34 L62,31 L67,22 L69,22 L71,28 L70,40 L70,59 L71,72 L73,76 L79,78 L82,73 L87,72 L88,77 L96,73 L101,75 L106,77 L107,71 L115,67 L113,61 L110,58 L108,57 L107,49 L108,47 L111,46 L119,46 L120,49 L116,49 L117,51 L113,53 L115,57 L118,56 L122,54 L128,55 L124,60 L121,63 L122,70 L120,71 L121,73 L114,76 L112,78 L110,90 L110,97 L112,97 L114,105 L116,105 L120,117 L123,126 L128,143 L132,147 L118,149 L118,147 L111,153 L113,158 L119,161 L121,165 L123,166 L114,165 L106,162 L102,160 L98,163 L94,164 L72,163 L73,160 L79,155 L85,155 L88,158 L99,156 L102,152 L104,150 L105,148 L107,148 L109,142 L111,142 L111,140 L106,139 L102,136 L105,135 L105,133 L95,135 L87,132 L79,131 L78,133 L85,134 L85,135 L77,135 L76,138 L76,135 L70,134 L72,139 L65,141 L62,133 L53,135 L53,124 L49,126 L43,136 L39,142 L36,143 L35,149 L32,152 L32,158 L34,159 L31,159 L30,161 L27,158 L24,161 L23,157 L27,148 L28,141 L34,129 L36,128 L37,126 L39,123 L41,120 L43,118 L44,120 L49,121 L50,120 L47,119 L49,113 L54,111 L56,116 L59,118 L64,108 L64,106 L62,104 L65,103 L65,101 L67,101 L68,92 L67,91 L64,95 L62,95 L62,98 L60,98 L59,100 L60,89 L61,83 L60,74 L59,67 L62,67 L60,62 L61,53 L58,47 L53,51 L52,47 L53,44 L37,42 L31,39 L33,38 L30,35 L26,35 L22,33 L16,28 L13,22 L13,20 L10,21 L4,11 L0,2 Z M72,83 L73,96 L75,101 L77,101 L77,93 L79,88 L77,84 Z M77,106 L79,110 L82,112 L79,122 L73,126 L76,128 L85,128 L88,125 L89,117 L86,111 L83,107 Z " fill="#EBE7E6" transform="translate(29,158)"/>
<path d="M0,0 L6,1 L8,5 L8,19 L9,27 L8,39 L7,44 L7,71 L9,71 L8,80 L13,83 L16,88 L17,96 L15,98 L18,98 L20,95 L22,95 L24,101 L23,106 L30,106 L34,104 L36,100 L35,98 L38,97 L43,91 L46,92 L49,85 L54,82 L58,82 L58,90 L56,90 L55,96 L52,99 L46,101 L42,105 L37,106 L35,113 L29,115 L29,116 L19,118 L16,119 L10,115 L14,112 L14,110 L7,109 L-2,109 L3,104 L5,98 L7,97 L3,93 L7,92 L5,90 L-4,89 L-6,88 L-6,80 L-4,76 L-6,74 L-8,80 L-13,76 L-21,77 L-25,78 L-27,77 L-28,79 L-28,71 L-26,72 L-24,67 L-27,59 L-27,49 L-24,46 L-24,40 L-25,40 L-25,27 L-24,27 L-23,36 L-20,36 L-19,32 L-17,33 L-15,30 L-16,28 L-8,27 L-4,32 L-2,34 L-2,36 L2,38 L4,33 L3,32 L1,15 L-3,8 L-5,8 L-4,3 L-2,1 L0,2 Z " fill="#E7E2E1" transform="translate(117,71)"/>
<path d="M0,0 L2,0 L2,6 L2,7 L3,6 L3,0 L5,0 L7,4 L7,17 L3,19 L1,23 L4,23 L6,20 L9,24 L16,23 L22,23 L23,30 L23,34 L19,36 L16,39 L11,41 L3,48 L1,48 L1,54 L2,56 L-8,58 L-11,58 L-10,52 L-18,54 L-16,65 L-16,70 L-18,67 L-20,55 L-20,52 L-22,52 L-22,50 L-28,48 L-31,49 L-32,43 L-35,42 L-34,24 L-32,18 L-30,21 L-31,26 L-29,26 L-27,37 L-23,36 L-25,34 L-24,28 L-22,27 L-20,25 L-19,21 L-17,21 L-16,17 L-12,15 L-5,15 L-6,7 L-3,2 Z " fill="#EAE5E5" transform="translate(58,30)"/>
<path d="M0,0 L2,4 L3,12 L6,13 L4,21 L6,24 L8,24 L8,31 L13,32 L14,36 L13,43 L11,45 L5,40 L6,49 L3,52 L4,54 L0,58 L-3,62 L-4,61 L-8,67 L-7,69 L-12,72 L-15,78 L-24,86 L-27,87 L-29,89 L-29,87 L-31,87 L-34,83 L-37,87 L-41,84 L-37,83 L-39,77 L-37,70 L-33,68 L-33,64 L-28,60 L-24,54 L-22,53 L-20,48 L-11,32 L-8,25 L-5,24 L0,15 L0,6 L-1,3 Z " fill="#EAE5E5" transform="translate(171,84)"/>
<path d="M0,0 L4,5 L7,10 L9,11 L10,9 L10,13 L12,13 L12,15 L16,17 L21,23 L22,28 L27,30 L38,37 L42,38 L45,37 L46,29 L48,29 L49,24 L50,24 L52,39 L51,48 L47,44 L45,44 L43,50 L35,51 L24,45 L13,36 L9,31 L2,19 L0,17 L-1,15 L-3,15 L-3,17 L-5,17 L-4,11 L-1,10 L-1,8 L2,8 L-1,3 Z " fill="#EBE7E7" transform="translate(42,129)"/>
<path d="M0,0 L2,0 L1,6 L9,4 L10,6 L4,9 L6,21 L11,31 L20,41 L28,49 L35,60 L39,66 L36,67 L35,69 L35,67 L30,66 L31,64 L28,59 L26,60 L23,56 L20,54 L21,53 L12,50 L11,44 L7,42 L2,32 L2,30 L-5,28 L-7,27 L-6,25 L-6,15 L-5,13 L-6,10 L-6,2 Z " fill="#E0D7D7" transform="translate(46,82)"/>
<path d="M0,0 L4,1 L10,9 L20,18 L33,26 L41,31 L56,34 L57,32 L58,35 L60,36 L61,40 L61,47 L63,48 L61,48 L64,61 L64,68 L62,70 L60,59 L58,54 L55,51 L57,51 L54,48 L50,46 L43,46 L39,44 L40,43 L38,41 L38,39 L33,34 L31,33 L31,31 L23,29 L15,23 L14,19 L10,17 L7,12 L2,10 L0,3 Z " fill="#DED5D5" transform="translate(27,177)"/>
<path d="M0,0 L2,4 L8,16 L9,20 L11,20 L11,23 L16,24 L19,28 L19,30 L25,32 L35,38 L44,41 L45,41 L45,48 L44,51 L49,51 L49,52 L41,52 L28,47 L19,41 L11,34 L4,25 L-2,17 L-3,13 L-6,12 L-7,8 L-2,7 L-1,2 Z " fill="#DFD7D7" transform="translate(39,146)"/>
<path d="M0,0 L2,4 L-2,7 L-10,14 L-19,20 L-22,23 L-31,22 L-31,24 L-34,24 L-34,34 L-29,36 L-26,42 L-27,45 L-33,48 L-35,48 L-36,54 L-41,53 L-44,51 L-44,49 L-39,48 L-40,42 L-39,37 L-42,32 L-41,28 L-41,15 L-38,12 L-36,16 L-36,18 L-30,17 L-25,18 L-17,12 L-6,4 Z " fill="#E6E0DF" transform="translate(171,181)"/>
<path d="M0,0 L6,0 L3,1 L5,4 L8,5 L11,16 L9,16 L9,18 L14,20 L13,24 L15,24 L16,26 L18,24 L23,21 L26,30 L18,34 L16,34 L15,29 L10,30 L8,35 L5,36 L-1,32 L-1,29 L-3,28 L-1,28 L-3,16 L-2,6 Z " fill="#E7E1E0" transform="translate(101,201)"/>
<path d="M0,0 L7,0 L9,4 L11,3 L17,3 L21,6 L25,10 L27,14 L29,15 L29,17 L31,17 L32,20 L30,21 L31,22 L31,29 L26,26 L21,23 L17,21 L12,22 L7,14 L2,10 L2,8 L0,8 Z " fill="#EAE6E5" transform="translate(52,134)"/>
<path d="M0,0 L4,5 L13,12 L14,10 L20,13 L20,16 L28,19 L40,21 L41,24 L41,28 L41,30 L26,28 L13,20 L4,14 L-4,5 Z " fill="#F4F3F2" transform="translate(42,181)"/>
<path d="M0,0 L1,3 L-7,10 L-10,13 L-11,16 L-6,15 L-3,18 L-14,25 L-20,30 L-22,27 L-25,30 L-31,30 L-31,22 L-28,19 L-28,18 L-18,16 L-16,10 L-11,8 L-9,5 L-4,3 L-1,3 Z " fill="#D7CDCC" transform="translate(170,167)"/>
<path d="M0,0 L6,1 L9,1 L10,4 L9,9 L11,12 L10,16 L12,17 L12,20 L14,24 L14,26 L20,28 L20,34 L14,34 L10,27 L7,30 L0,15 L-1,8 L1,5 Z " fill="#D2C5C5" transform="translate(21,83)"/>
<path d="M0,0 L5,4 L7,8 L9,9 L12,14 L20,19 L26,21 L26,23 L31,25 L35,31 L29,32 L19,27 L18,25 L15,24 L14,22 L11,21 L11,19 L8,19 L2,12 L0,11 L0,8 L-2,8 L-4,4 L-4,1 Z " fill="#E9E3E3" transform="translate(32,187)"/>
<path d="M0,0 L5,2 L5,6 L9,7 L8,15 L12,15 L12,22 L10,22 L9,25 L9,23 L7,23 L7,19 L1,19 L1,22 L3,22 L2,25 L-4,28 L-6,22 L-4,16 L-2,16 L-3,13 L-3,4 Z " fill="#E6E0E0" transform="translate(180,81)"/>
<path d="M0,0 L4,0 L2,4 L-3,9 L-5,13 L-7,13 L-7,15 L-12,16 L-13,17 L-20,17 L-15,18 L-16,22 L-18,22 L-18,24 L-25,26 L-27,20 L-27,18 L-21,14 L-21,11 L-17,11 L-17,9 L-20,8 L-10,4 Z " fill="#E2DBDB" transform="translate(176,201)"/>
<path d="M0,0 L7,0 L9,2 L7,3 L3,2 L1,3 L0,6 L3,5 L5,7 L3,7 L4,14 L-1,16 L1,13 L2,7 L-3,10 L-5,14 L-5,22 L-14,24 L-16,25 L-18,28 L-18,23 L-24,23 L-24,22 L-18,21 L-14,14 L-12,14 L-13,7 L-9,6 L-9,2 L-5,1 L-2,1 Z " fill="#D5CACA" transform="translate(58,23)"/>
<path d="M0,0 L6,3 L6,5 L8,5 L10,17 L11,30 L10,32 L5,31 L5,29 L3,28 L1,22 L1,17 L-1,13 L1,7 L-4,5 Z " fill="#EEECEC" transform="translate(30,77)"/>
<path d="M0,0 L6,1 L3,2 L5,8 L7,12 L7,22 L3,33 L0,34 L-3,33 L-3,36 L-5,36 L-5,30 L1,23 L-1,23 L-3,14 L-3,6 L-2,1 Z " fill="#E4DEDD" transform="translate(148,23)"/>
<path d="M0,0 L2,4 L4,8 L7,5 L7,12 L4,15 L4,25 L7,34 L4,41 L3,37 L0,38 L-3,32 L-4,27 L-4,14 L-3,10 L-1,10 Z " fill="#E6E0E0" transform="translate(87,105)"/>
<path d="M0,0 L5,1 L9,4 L11,8 L15,10 L15,12 L18,15 L18,18 L12,19 L3,13 L-2,15 L-4,9 L-4,2 Z " fill="#E2DADA" transform="translate(158,26)"/>
<path d="M0,0 L2,4 L1,11 L0,13 L-2,13 L-2,15 L-4,16 L-2,20 L-7,31 L-13,27 L-14,19 L-12,17 L-11,13 L-8,1 L-6,4 L-7,10 L-5,10 L-5,7 L-3,7 L-2,4 Z " fill="#D7CCCC" transform="translate(96,246)"/>
<path d="M0,0 L4,0 L1,9 L-1,24 L-3,24 L-3,41 L-6,37 L-7,35 L-7,17 L-4,7 Z " fill="#F1EEEE" transform="translate(95,74)"/>
<path d="M0,0 L7,1 L9,6 L11,16 L12,19 L10,21 L3,21 L3,27 L1,27 L0,30 L0,13 L1,6 Z " fill="#D8CDCC" transform="translate(98,180)"/>
<path d="M0,0 L10,1 L11,2 L13,0 L14,4 L14,14 L10,21 L1,24 L-2,24 L-2,30 L-3,30 L-4,23 L-6,22 L0,18 L2,16 L5,17 L6,14 L10,13 L9,5 L9,2 L3,2 L2,4 L2,2 L0,2 Z " fill="#D0C3C2" transform="translate(71,51)"/>
<path d="M0,0 L8,1 L7,10 L2,16 L3,20 L4,22 L-1,23 L-3,19 L-3,11 L-5,11 L-5,6 L-1,2 Z " fill="#F8F8F8" transform="translate(32,45)"/>
<path d="M0,0 L7,0 L5,3 L5,1 L3,1 L1,9 L1,11 L-2,13 L-3,16 L-5,16 L-7,20 L-20,30 L-22,30 L-23,27 L-21,27 L-20,23 L-24,23 L-25,27 L-25,22 L-18,21 L-14,19 L-12,20 L-12,18 L-9,15 L-7,11 L-2,7 L-1,5 L-3,4 L-1,3 Z " fill="#CEC0BF" transform="translate(181,196)"/>
<path d="M0,0 L7,2 L11,8 L12,16 L9,21 L8,22 L-1,22 L-4,20 L2,16 L5,6 L0,2 Z " fill="#FAFAFA" transform="translate(106,264)"/>
<path d="M0,0 L4,0 L3,7 L0,14 L-5,22 L-6,20 L-11,19 L-8,17 L-6,17 L-8,14 L-12,16 L-14,12 L-10,12 L-7,9 L-8,7 L-3,3 Z " fill="#D2C7C6" transform="translate(179,168)"/>
<path d="M0,0 L4,0 L2,8 L-1,13 L-2,23 L-3,23 L-4,12 L0,3 L-4,4 L-9,15 L-10,20 L-12,40 L-14,44 L-13,18 L-9,5 L-5,1 Z " fill="#B29B9A" transform="translate(99,71)"/>
<path d="M0,0 L2,0 L1,8 L-4,12 L-16,19 L-29,17 L-29,16 L-19,16 L-18,13 L-9,8 L-3,1 Z " fill="#D1C5C4" transform="translate(169,187)"/>
<path d="M0,0 L1,0 L2,8 L-1,11 L-4,16 L-12,16 L-14,21 L-17,21 L-17,17 L-15,17 L-13,13 Z " fill="#F2EFEF" transform="translate(44,29)"/>
<path d="M0,0 L9,2 L10,7 L8,15 L7,25 L4,22 L3,13 L2,5 L-3,5 L-2,1 Z " fill="#D4C8C8" transform="translate(61,24)"/>
<path d="M0,0 L5,5 L11,14 L16,20 L15,22 L7,14 L5,9 L2,9 L3,17 L4,19 L1,20 L-2,11 L-3,1 Z " fill="#BCA8A7" transform="translate(26,169)"/>
<path d="M0,0 L3,2 L9,3 L7,6 L7,16 L6,24 L3,20 L-1,6 Z " fill="#FAFAFA" transform="translate(112,180)"/>
<path d="M0,0 L13,4 L16,6 L21,8 L17,10 L8,10 L-3,4 L-6,3 L-2,1 L0,2 Z " fill="#CEC0BF" transform="translate(84,313)"/>
<path d="M0,0 L1,0 L4,12 L6,11 L6,16 L3,25 L2,37 L1,62 L0,62 L-1,33 L0,30 L1,13 L0,10 Z " fill="#B39D9B" transform="translate(124,80)"/>
<path d="M0,0 L2,0 L2,16 L0,16 L0,26 L-2,26 L-4,20 L-3,9 Z " fill="#EAE5E5" transform="translate(129,96)"/>
<path d="M0,0 L2,0 L4,6 L3,7 L12,9 L10,12 L10,10 L6,10 L5,14 L5,10 L0,9 L-2,12 L-2,24 L-5,22 L-5,3 L-3,2 Z " fill="#C4B3B2" transform="translate(180,73)"/>
<path d="M0,0 L8,0 L17,3 L15,9 L12,14 L8,12 L12,8 L8,3 L6,7 L1,5 Z " fill="#FAFAFA" transform="translate(106,293)"/>
<path d="M0,0 L1,0 L2,22 L1,36 L1,40 L3,41 L-1,42 L-2,38 L-2,26 Z " fill="#B8A3A2" transform="translate(129,112)"/>
<path d="M0,0 L2,1 L3,5 L3,37 L-1,34 L0,25 Z " fill="#FAFAFA" transform="translate(125,117)"/>
<path d="M0,0 L4,1 L4,5 L8,4 L8,12 L4,8 L2,8 L0,14 L-2,13 L-4,16 L-4,8 L0,4 L-2,4 L-2,1 Z " fill="#CFC0C0" transform="translate(183,99)"/>
<path d="M0,0 L3,4 L5,8 L4,17 L5,22 L2,21 L1,10 L-2,9 L-3,4 Z " fill="#FAFAFA" transform="translate(86,203)"/>
<path d="M0,0 L5,1 L7,7 L5,10 L5,18 L3,18 L1,13 Z " fill="#FAFAFA" transform="translate(101,241)"/>
<path d="M0,0 L5,0 L10,5 L13,8 L13,11 L15,11 L15,13 L12,14 L11,13 L11,15 L7,13 L9,13 L8,8 L4,6 L3,5 L0,2 Z " fill="#CABCBB" transform="translate(167,31)"/>
</svg>
