<?xml version="1.0" encoding="UTF-8"?>
<!-- Generator: visioncortex VTracer 0.6.12 -->
<svg version="1.1" xmlns="http://www.w3.org/2000/svg" width="209" height="344">
<path d="M0,0 L209,0 L209,344 L0,344 Z M147,50 L147,54 L154,63 L162,77 L164,77 L162,71 L154,55 Z M165,82 L166,89 L167,94 L163,99 L157,102 L159,108 L159,116 L156,121 L151,122 L148,136 L148,141 L149,139 L151,139 L150,148 L148,152 L146,153 L145,150 L145,154 L147,155 L142,162 L139,160 L136,172 L136,184 L133,189 L132,195 L138,193 L139,188 L141,187 L140,180 L145,180 L145,178 L148,178 L148,176 L150,176 L150,168 L153,160 L156,161 L156,175 L152,185 L152,191 L150,191 L151,195 L153,195 L153,201 L147,201 L150,203 L146,204 L138,203 L136,207 L137,211 L139,213 L145,211 L145,215 L141,216 L144,217 L144,221 L129,222 L121,223 L121,221 L119,221 L116,211 L109,208 L106,208 L106,205 L98,198 L94,194 L89,192 L89,189 L81,182 L78,179 L78,182 L72,183 L70,179 L75,178 L71,174 L71,170 L73,169 L69,165 L72,163 L75,163 L77,165 L78,166 L82,168 L88,167 L88,164 L91,164 L90,162 L87,163 L87,156 L83,151 L81,151 L81,148 L76,143 L72,141 L71,139 L68,139 L68,137 L65,137 L65,135 L62,135 L62,133 L50,130 L39,130 L32,127 L31,131 L35,142 L39,154 L41,158 L43,158 L43,161 L46,164 L57,182 L63,190 L63,194 L68,198 L73,203 L81,209 L86,211 L86,214 L97,217 L105,225 L111,228 L115,227 L114,230 L121,242 L122,243 L123,250 L119,251 L123,252 L122,256 L112,257 L108,259 L120,265 L127,267 L136,270 L142,274 L148,272 L145,263 L145,260 L151,255 L155,246 L156,241 L159,230 L164,223 L164,221 L166,221 L168,217 L170,213 L169,207 L167,207 L169,189 L172,190 L170,196 L173,197 L173,195 L175,195 L175,182 L178,171 L180,170 L179,162 L177,162 L179,151 L180,136 L180,122 L179,109 L177,109 L175,95 L173,95 L171,89 L168,83 Z M27,221 L25,227 L26,236 L32,244 L38,249 L39,246 L41,246 L39,241 L37,239 L36,231 L37,226 L33,225 L33,223 Z M54,240 L46,243 L46,245 L41,246 L42,253 L44,255 L44,252 L44,249 L49,252 L48,256 L48,260 L50,266 L50,275 L52,276 L51,278 L49,280 L47,284 L40,287 L39,292 L36,292 L31,298 L26,302 L25,308 L33,302 L36,300 L38,301 L40,298 L46,297 L50,298 L47,305 L49,305 L49,309 L44,312 L43,317 L46,321 L50,320 L51,322 L64,320 L74,320 L82,315 L81,313 L90,312 L90,314 L97,315 L101,311 L105,310 L105,323 L107,324 L110,321 L116,318 L123,318 L125,317 L125,315 L128,315 L132,310 L133,305 L131,305 L130,297 L137,296 L140,291 L142,290 L142,283 L143,277 L140,278 L140,280 L138,280 L138,282 L136,282 L135,285 L129,287 L128,292 L120,291 L115,297 L109,297 L105,301 L105,305 L94,305 L90,309 L87,309 L85,304 L86,299 L80,295 L73,298 L72,304 L67,303 L66,304 L59,304 L59,294 L57,294 L60,285 L65,279 L64,270 L66,270 L67,272 L68,264 L69,259 L65,255 L64,257 L62,257 L61,255 L61,257 L55,258 L57,251 L60,251 L59,248 L57,248 L56,240 Z " fill="#F9F9F8" transform="translate(0,0)"/>
<path d="M0,0 L3,1 L8,11 L8,13 L10,13 L12,27 L14,27 L15,40 L15,54 L13,76 L12,80 L14,80 L15,89 L13,89 L11,96 L8,93 L6,83 L7,80 L8,62 L8,58 L1,56 L-1,40 L-3,41 L-10,41 L-7,35 L-5,30 L-3,32 L3,25 L4,18 L2,11 L0,4 Z " fill="#E3E4E2" transform="translate(165,82)"/>
<path d="M0,0 L1,0 L1,5 L3,5 L3,15 L10,15 L13,14 L16,15 L17,9 L24,6 L30,10 L29,17 L32,21 L34,20 L38,16 L41,18 L37,21 L35,22 L35,24 L38,25 L34,25 L34,23 L25,24 L26,26 L17,31 L8,31 L-6,33 L-6,31 L-10,32 L-13,28 L-12,23 L-7,19 L-7,15 L-4,13 L-5,10 L-3,4 L0,4 Z " fill="#E1E1DF" transform="translate(56,289)"/>
<path d="M0,0 L7,3 L6,12 L8,12 L11,17 L11,23 L17,23 L21,25 L21,33 L23,37 L26,36 L23,31 L23,29 L30,26 L36,26 L37,29 L34,29 L33,32 L31,34 L38,40 L40,40 L41,43 L39,43 L39,47 L43,51 L38,52 L38,56 L33,57 L37,64 L38,68 L34,67 L33,63 L29,61 L19,45 L13,35 L11,34 L11,31 L9,31 L5,22 L0,6 L-1,2 Z " fill="#E4E5E3" transform="translate(32,127)"/>
<path d="M0,0 L9,1 L10,4 L9,6 L20,8 L24,17 L22,25 L26,30 L21,31 L19,41 L12,41 L0,37 L-3,34 L0,34 L0,32 L5,30 L6,25 L6,18 L9,17 L5,17 L-2,5 L-1,1 Z " fill="#F7F7F7" transform="translate(118,225)"/>
<path d="M0,0 L6,2 L7,6 L6,24 L5,30 L8,38 L8,57 L6,57 L5,59 L3,58 L5,52 L2,51 L1,58 L-2,57 L-2,55 L-5,54 L-5,52 L-3,52 L-2,49 L1,48 L3,41 L-3,39 L-5,38 L-7,48 L-12,47 L-11,41 L-10,38 L-11,24 L-8,21 L-6,16 L-6,11 L-1,9 Z " fill="#E7E7E6" transform="translate(167,138)"/>
<path d="M0,0 L2,0 L2,2 L9,2 L15,1 L15,3 L10,3 L9,6 L11,14 L13,14 L12,19 L8,24 L5,24 L5,26 L-1,27 L-6,28 L-12,31 L-14,33 L-15,30 L-15,19 L-19,18 L-15,16 L-23,15 L-23,14 L-15,14 L-14,9 L-11,6 L-5,6 Z " fill="#E3E4E2" transform="translate(120,291)"/>
<path d="M0,0 L4,2 L9,7 L16,9 L15,4 L21,1 L23,0 L26,1 L26,3 L29,3 L29,5 L32,5 L34,8 L37,9 L42,14 L42,17 L46,19 L45,21 L40,21 L40,23 L43,24 L44,27 L41,29 L35,21 L30,19 L26,18 L23,20 L16,22 L18,28 L20,29 L15,31 L13,26 L14,18 L4,16 L2,8 L0,5 Z " fill="#F3F3F2" transform="translate(39,134)"/>
<path d="M0,0 L3,3 L4,21 L3,24 L-1,26 L-2,33 L-5,40 L-10,37 L-13,45 L-13,53 L-15,53 L-15,55 L-23,56 L-22,45 L-20,37 L-16,32 L-12,28 L-10,24 L-11,16 L-4,12 L-8,7 L-5,1 Z " fill="#F5F5F5" transform="translate(163,123)"/>
<path d="M0,0 L3,2 L1,2 L-1,10 L4,11 L5,3 L6,1 L12,3 L14,4 L13,11 L9,13 L8,15 L6,15 L11,21 L11,32 L13,32 L14,38 L12,42 L10,43 L9,41 L4,48 L0,44 L-3,40 L-3,33 L0,28 L-1,23 L-6,18 L-6,16 L-4,16 L-3,6 Z " fill="#DFDFDE" transform="translate(156,175)"/>
<path d="M0,0 L1,2 L3,2 L4,0 L8,4 L7,9 L6,17 L5,15 L3,15 L4,24 L-1,30 L-3,34 L-5,34 L-5,38 L-8,38 L-9,45 L-8,48 L-14,50 L-11,43 L-15,42 L-16,40 L-21,41 L-24,39 L-19,34 L-13,34 L-11,30 L-8,27 L-6,13 L-5,9 L-6,4 L-3,4 L-3,2 L0,2 Z M-25,40 Z " fill="#E7E7E6" transform="translate(61,255)"/>
<path d="M0,0 L5,2 L13,9 L26,19 L32,23 L36,24 L37,28 L45,35 L48,41 L48,43 L46,43 L46,45 L44,45 L44,40 L42,40 L39,37 L28,29 L22,26 L22,24 L15,25 L8,17 L-2,4 L-2,1 Z " fill="#EFEFEF" transform="translate(67,183)"/>
<path d="M0,0 L5,2 L6,9 L4,15 L-1,20 L0,23 L3,26 L1,30 L-1,29 L-2,32 L-5,35 L-9,33 L-11,29 L-9,23 L-12,14 L-19,14 L-23,12 L-23,10 L-21,10 L-20,4 L-7,3 L-7,11 L-4,16 L-1,11 L-1,1 Z " fill="#EFEFEF" transform="translate(150,219)"/>
<path d="M0,0 L4,4 L3,9 L1,12 L1,19 L6,25 L5,30 L2,36 L1,34 L2,29 L2,25 L-1,24 L-1,22 L-7,23 L-8,20 L-12,19 L-8,19 L-8,15 L-15,17 L-17,14 L-16,9 L-15,7 L-5,8 L-3,7 L-6,5 L0,5 Z " fill="#DADBD9" transform="translate(153,196)"/>
<path d="M0,0 L2,0 L3,8 L6,9 L5,11 L2,12 L1,18 L4,19 L1,19 L3,26 L2,28 L0,28 L-2,35 L-4,35 L-4,24 L-7,19 L-5,15 L-5,12 L-10,9 L-9,14 L-11,15 L-13,10 L-13,6 L-8,5 L-8,3 Z " fill="#D3D4D1" transform="translate(54,240)"/>
<path d="M0,0 L5,5 L11,10 L11,13 L19,17 L17,19 L14,17 L16,22 L20,25 L23,27 L20,28 L4,15 L-4,9 L-9,4 L-7,2 L-6,4 L0,3 Z " fill="#D1D2CE" transform="translate(78,179)"/>
<path d="M0,0 L2,3 L3,8 L5,8 L5,10 L13,9 L24,9 L24,10 L14,10 L13,16 L11,14 L5,14 L1,14 L2,19 L7,27 L7,29 L11,29 L10,31 L8,30 L8,37 L10,38 L7,39 L3,37 L7,37 L6,30 L-1,19 L-2,16 L-1,14 L-3,13 L-1,13 L-6,4 L-7,2 L-1,1 Z " fill="#BCBEB9" transform="translate(116,213)"/>
<path d="M0,0 L9,1 L16,3 L11,8 L8,8 L9,13 L3,13 L-1,8 L-7,4 L-7,9 L-8,9 L-8,2 L-7,1 Z " fill="#D2D3D0" transform="translate(46,130)"/>
<path d="M0,0 L0,3 L-6,3 L-8,10 L-4,15 L-11,18 L-10,26 L-15,34 L-19,33 L-18,29 L-18,32 L-15,29 L-14,27 L-13,18 L-15,18 L-16,20 L-15,11 L-13,1 L-2,1 Z " fill="#C2C3BF" transform="translate(164,121)"/>
<path d="M0,0 L1,2 L0,10 L0,13 L-4,16 L-5,19 L-12,20 L-13,24 L-14,19 L-12,19 L-12,17 L-7,17 L-7,15 L-16,17 L-20,15 L-14,15 L-13,10 L-7,8 L-6,5 L-4,5 L-4,3 L-2,3 L-2,1 Z " fill="#D6D7D4" transform="translate(142,277)"/>
<path d="M0,0 L6,2 L5,11 L7,16 L10,20 L10,22 L8,22 L7,25 L2,21 L0,17 L-4,7 L-4,2 L-1,4 Z " fill="#DFDFDD" transform="translate(31,224)"/>
<path d="M0,0 L7,1 L12,6 L17,11 L18,9 L14,4 L14,3 L22,3 L23,8 L23,12 L27,11 L27,13 L24,13 L24,16 L18,17 L14,15 L13,14 L10,11 L9,4 L7,5 L7,6 L2,6 L5,5 L4,3 L0,1 Z " fill="#C9CAC6" transform="translate(64,151)"/>
<path d="M0,0 L6,2 L14,9 L14,12 L23,14 L24,18 L19,20 L14,18 L9,13 L11,13 L11,11 L9,11 L9,9 L4,8 L0,4 Z " fill="#E7E7E6" transform="translate(92,196)"/>
<path d="M0,0 L3,4 L2,14 L1,19 L6,19 L6,20 L1,20 L2,28 L0,28 L-1,33 L-7,35 L-5,28 L-3,24 L-3,12 Z " fill="#BABCB7" transform="translate(139,160)"/>
<path d="M0,0 L2,2 L3,8 L0,15 L-6,20 L-10,9 L-10,7 L-2,2 Z " fill="#FAFAFA" transform="translate(167,95)"/>
<path d="M0,0 L1,0 L1,6 L-1,6 L-3,11 L-7,17 L-9,26 L-10,28 L-15,28 L-17,24 L-13,19 L-11,19 L-9,14 L-5,6 Z " fill="#E5E5E4" transform="translate(165,215)"/>
<path d="M0,0 L3,1 L1,8 L-1,12 L-8,18 L-9,20 L-14,22 L-14,15 L-13,13 L-8,11 L-6,8 L-4,8 L-4,2 L-1,5 Z " fill="#D7D8D5" transform="translate(152,243)"/>
<path d="M0,0 L3,1 L6,0 L8,2 L6,3 L6,13 L3,19 L-1,15 L-2,9 L-1,5 L-4,4 L0,4 Z " fill="#D2D3D1" transform="translate(144,217)"/>
<path d="M0,0 L3,4 L6,5 L7,3 L10,7 L16,14 L18,18 L25,17 L24,21 L27,22 L26,24 L22,24 L22,21 L17,19 L6,11 L1,5 L-1,4 Z " fill="#C8C9C5" transform="translate(64,190)"/>
<path d="M0,0 L10,5 L18,11 L21,13 L21,15 L23,15 L23,19 L17,17 L9,9 L2,7 L2,5 L-1,4 Z " fill="#D7D8D5" transform="translate(88,208)"/>
<path d="M0,0 L3,2 L3,12 L1,20 L-2,20 L-2,23 L-5,24 L-10,23 L-11,27 L-12,21 L-5,18 L-2,12 L0,12 Z " fill="#BDBFBA" transform="translate(52,266)"/>
<path d="M0,0 L3,3 L5,10 L-1,12 L-7,8 L-13,6 L-13,5 L-4,4 Z " fill="#FAFAFA" transform="translate(143,262)"/>
<path d="M0,0 L8,6 L17,25 L17,27 L15,27 L5,10 L-1,3 Z " fill="#FAFAFA" transform="translate(147,50)"/>
<path d="M0,0 L2,0 L2,2 L8,3 L10,0 L9,5 L3,7 L1,9 L-2,9 L-10,16 L-11,14 L-10,9 L-2,3 Z M0,3 Z " fill="#BBBCB8" transform="translate(36,292)"/>
<path d="M0,0 L3,1 L4,8 L-1,11 L0,13 L-4,11 L-8,6 L-4,3 L0,2 Z " fill="#FAFAFA" transform="translate(70,154)"/>
<path d="M0,0 L8,0 L8,3 L4,3 L2,7 L0,9 L-3,9 L-3,7 L-6,7 L-4,2 Z " fill="#EDEDEC" transform="translate(97,306)"/>
<path d="M0,0 L6,2 L4,3 L4,12 L3,12 L1,6 L2,14 L5,20 L7,22 L4,22 L-1,15 L-2,6 Z " fill="#ACAEA7" transform="translate(27,221)"/>
<path d="M0,0 L8,1 L6,3 L13,6 L27,9 L28,6 L32,7 L29,10 L18,11 L15,9 L8,7 L-2,2 Z " fill="#A3A59F" transform="translate(110,257)"/>
</svg>
