<?xml version="1.0" encoding="UTF-8"?>
<!-- Generator: visioncortex VTracer 0.6.12 -->
<svg version="1.1" xmlns="http://www.w3.org/2000/svg" width="344" height="344">
<path d="M0,0 L344,0 L344,344 L0,344 Z M187,21 L173,22 L168,23 L168,25 L162,27 L151,32 L149,33 L150,35 L147,34 L146,37 L140,39 L138,43 L136,45 L134,44 L131,53 L127,57 L123,59 L126,60 L123,66 L120,64 L118,66 L118,69 L116,69 L116,72 L114,72 L114,75 L112,75 L106,85 L102,87 L99,90 L99,98 L112,98 L113,103 L111,109 L103,110 L98,111 L98,113 L90,110 L82,109 L79,104 L77,102 L78,94 L84,98 L90,99 L96,95 L95,93 L92,93 L90,90 L90,82 L88,82 L88,80 L85,79 L82,76 L76,75 L74,77 L73,81 L74,85 L73,89 L69,88 L60,88 L58,90 L52,91 L57,101 L58,108 L52,108 L52,128 L54,128 L57,139 L55,140 L56,144 L60,145 L55,146 L53,145 L51,149 L51,152 L39,153 L35,154 L35,156 L32,157 L28,161 L25,163 L24,161 L22,163 L20,172 L20,186 L22,187 L23,191 L28,194 L32,193 L30,192 L36,190 L38,192 L38,190 L40,191 L43,199 L45,199 L45,205 L48,206 L52,211 L55,213 L57,213 L59,207 L61,207 L62,204 L66,202 L72,201 L73,198 L83,195 L85,200 L84,204 L80,202 L72,202 L73,205 L73,203 L76,203 L77,212 L75,210 L75,214 L79,225 L84,233 L89,242 L95,249 L99,249 L98,253 L104,255 L107,260 L105,264 L117,275 L119,276 L122,275 L121,280 L126,284 L128,286 L131,289 L134,289 L139,291 L140,293 L135,290 L134,292 L142,298 L144,298 L145,296 L148,299 L150,299 L151,302 L150,303 L155,307 L158,310 L167,313 L166,310 L174,310 L177,314 L184,314 L187,315 L200,316 L207,317 L216,314 L230,307 L239,304 L240,302 L249,298 L249,296 L254,295 L257,292 L260,291 L264,286 L272,279 L278,272 L277,266 L281,260 L285,259 L286,254 L288,254 L288,252 L290,252 L290,249 L292,249 L290,244 L293,244 L294,246 L298,241 L301,231 L302,229 L303,220 L306,220 L310,213 L315,198 L315,196 L318,195 L317,188 L318,184 L320,184 L321,180 L318,175 L307,171 L295,169 L295,167 L289,164 L286,164 L286,162 L283,162 L284,160 L290,158 L290,160 L293,160 L294,163 L297,165 L303,164 L301,163 L302,149 L303,149 L303,139 L300,139 L298,118 L296,113 L294,105 L290,96 L289,86 L287,87 L285,81 L281,80 L273,73 L268,64 L254,50 L253,46 L254,44 L247,40 L244,37 L233,34 L231,30 L224,29 L220,28 L224,26 L214,25 L212,26 L198,22 Z " fill="#F8F8F8" transform="translate(0,0)"/>
<path d="M0,0 L3,1 L3,4 L6,4 L5,9 L8,15 L15,14 L17,6 L19,5 L22,10 L23,12 L20,17 L20,24 L22,27 L18,26 L17,23 L7,23 L2,22 L3,28 L9,31 L8,33 L6,33 L6,38 L7,40 L3,42 L0,46 L-2,46 L-3,51 L-3,59 L1,60 L4,55 L12,55 L16,49 L18,49 L19,44 L20,42 L13,40 L13,38 L22,35 L24,35 L24,33 L26,33 L28,29 L33,29 L32,24 L34,21 L35,15 L30,14 L30,10 L41,8 L46,9 L46,13 L60,13 L66,15 L66,17 L79,17 L80,20 L76,22 L85,24 L89,28 L84,29 L74,24 L68,21 L64,23 L64,21 L46,19 L46,21 L41,23 L46,24 L52,23 L51,29 L67,27 L77,28 L77,30 L80,30 L80,32 L93,34 L90,38 L89,45 L100,45 L104,43 L117,41 L118,40 L115,39 L115,37 L113,36 L115,36 L113,29 L107,28 L101,25 L101,23 L93,22 L90,20 L91,17 L96,15 L102,16 L102,19 L105,21 L106,18 L113,18 L117,20 L117,14 L122,17 L124,23 L119,24 L116,25 L115,27 L118,27 L118,29 L123,30 L127,32 L127,34 L139,36 L150,40 L153,45 L152,49 L150,49 L150,52 L140,53 L141,57 L144,58 L145,63 L144,71 L140,82 L136,86 L135,85 L134,94 L131,102 L129,102 L128,105 L126,99 L120,98 L117,89 L110,89 L111,96 L98,92 L91,90 L91,88 L83,88 L79,90 L81,98 L87,98 L90,105 L93,99 L104,99 L105,101 L99,101 L100,109 L96,119 L90,119 L87,134 L91,136 L91,138 L99,137 L101,135 L102,137 L99,140 L93,144 L90,147 L82,146 L82,148 L79,149 L80,152 L73,152 L74,150 L76,150 L77,145 L79,145 L79,143 L67,145 L65,146 L64,144 L64,136 L61,137 L58,131 L54,135 L51,132 L49,126 L49,130 L49,132 L42,132 L40,133 L34,133 L34,138 L31,139 L30,144 L34,143 L36,141 L42,142 L38,150 L21,149 L20,156 L36,158 L47,157 L52,161 L58,163 L59,166 L58,168 L55,169 L59,172 L53,177 L48,179 L40,179 L31,177 L11,177 L11,179 L8,178 L6,175 L-5,175 L-9,170 L-11,169 L-11,167 L-5,166 L-3,153 L4,155 L5,157 L3,158 L3,160 L7,162 L8,157 L6,152 L11,147 L12,153 L17,154 L19,142 L10,142 L0,140 L-1,135 L-8,135 L-14,132 L-16,125 L-3,125 L-10,121 L-11,115 L-2,111 L7,112 L12,115 L13,121 L19,120 L21,125 L28,124 L32,120 L40,121 L35,126 L43,125 L45,123 L45,118 L40,117 L40,114 L34,116 L31,112 L30,107 L25,102 L23,102 L21,108 L27,110 L27,111 L20,111 L12,106 L12,101 L2,101 L-1,104 L-3,103 L-11,103 L-20,104 L-25,105 L-29,108 L-36,108 L-34,104 L-32,102 L-28,100 L-25,91 L-24,84 L-30,86 L-33,83 L-38,82 L-36,86 L-34,88 L-36,89 L-37,92 L-34,92 L-34,94 L-41,94 L-40,98 L-33,97 L-35,102 L-43,103 L-47,105 L-48,100 L-47,98 L-53,98 L-59,95 L-62,100 L-55,100 L-54,107 L-45,115 L-44,117 L-41,118 L-40,121 L-45,122 L-48,123 L-44,125 L-37,125 L-34,121 L-30,123 L-32,129 L-30,130 L-30,133 L-22,140 L-12,144 L-14,145 L-14,147 L-12,147 L-10,150 L-4,152 L-4,158 L-7,159 L-8,161 L-10,161 L-10,159 L-13,159 L-13,157 L-23,154 L-28,148 L-30,144 L-36,141 L-39,137 L-40,144 L-46,140 L-51,138 L-51,136 L-45,135 L-51,131 L-54,122 L-58,117 L-66,110 L-69,99 L-73,97 L-75,89 L-79,87 L-81,78 L-83,78 L-83,76 L-88,75 L-90,68 L-84,69 L-83,65 L-85,62 L-85,58 L-76,57 L-76,51 L-70,50 L-61,54 L-57,60 L-55,63 L-58,71 L-57,79 L-52,77 L-48,71 L-45,72 L-39,67 L-35,66 L-34,60 L-39,56 L-39,53 L-41,54 L-43,53 L-42,50 L-37,45 L-34,36 L-30,34 L-20,34 L-9,31 L-7,25 L-6,19 L-5,13 L0,15 L1,11 L-1,8 Z M61,50 L59,52 L63,55 L63,61 L73,59 L77,65 L82,65 L84,59 L80,51 L72,55 L67,54 L64,50 Z M46,61 L43,65 L41,72 L39,73 L38,79 L41,86 L35,84 L34,88 L32,88 L31,94 L33,99 L40,105 L53,107 L55,100 L53,97 L65,98 L66,85 L72,83 L69,77 L64,72 L61,72 L61,70 L58,70 L57,65 L55,63 L53,64 L53,66 L49,65 Z M-10,65 L-11,69 L-13,69 L-18,79 L-19,84 L-14,88 L-12,86 L-6,94 L-5,91 L1,96 L7,95 L19,89 L16,85 L7,85 L5,84 L8,83 L7,76 L1,75 L-2,73 L-5,71 L-6,66 L-1,66 L-1,65 Z M-46,78 L-49,81 L-54,87 L-50,89 L-43,89 L-38,91 L-37,87 L-40,81 L-44,80 L-43,78 Z " fill="#F0F0EF" transform="translate(168,135)"/>
<path d="M0,0 L6,1 L6,2 L-2,4 L-4,5 L-1,4 L5,3 L8,5 L21,6 L28,5 L32,9 L38,10 L38,14 L42,13 L47,17 L56,22 L56,24 L60,25 L60,27 L63,27 L63,29 L68,31 L76,46 L80,53 L84,51 L86,58 L85,60 L87,69 L89,71 L92,75 L93,86 L95,96 L97,100 L99,104 L100,113 L102,120 L97,117 L90,116 L89,120 L84,118 L86,115 L76,110 L70,111 L53,108 L53,107 L70,108 L61,106 L51,105 L37,104 L37,102 L28,103 L25,105 L17,104 L15,102 L17,99 L4,98 L0,97 L-1,99 L-9,97 L-19,97 L-19,98 L-29,97 L-31,95 L-28,93 L-33,90 L-34,84 L-32,78 L-37,77 L-40,77 L-44,73 L-48,69 L-49,64 L-48,62 L-32,64 L-33,63 L-42,62 L-55,56 L-60,57 L-62,56 L-60,50 L-56,47 L-56,45 L-55,40 L-52,38 L-50,41 L-43,33 L-41,33 L-39,29 L-36,24 L-32,23 L-27,18 L-33,18 L-29,14 L-18,7 L-8,4 Z " fill="#F8F8F8" transform="translate(184,37)"/>
<path d="M0,0 L11,1 L27,5 L31,4 L37,5 L33,7 L43,9 L46,11 L46,13 L57,16 L60,19 L63,20 L63,22 L50,22 L50,24 L62,29 L63,36 L74,36 L82,44 L87,53 L93,60 L96,71 L97,76 L99,76 L101,88 L99,94 L103,95 L105,100 L106,95 L101,92 L102,84 L103,80 L107,90 L107,92 L110,93 L111,97 L111,117 L108,124 L110,124 L109,130 L107,129 L107,127 L103,125 L100,121 L98,113 L97,106 L94,104 L93,95 L90,83 L82,69 L82,67 L77,70 L75,63 L72,59 L73,57 L76,60 L77,64 L79,63 L75,55 L75,53 L77,52 L68,48 L62,43 L60,38 L56,32 L56,30 L48,29 L41,27 L25,25 L27,23 L17,21 L16,20 L14,22 L8,20 L10,18 L-3,17 L-13,22 L-23,25 L-35,33 L-40,36 L-43,40 L-47,48 L-51,49 L-51,47 L-53,51 L-55,51 L-62,60 L-60,60 L-61,65 L-65,67 L-67,67 L-69,72 L-76,73 L-84,70 L-76,56 L-75,54 L-73,54 L-73,51 L-71,51 L-71,48 L-69,48 L-68,44 L-66,43 L-64,45 L-61,39 L-64,38 L-60,36 L-56,32 L-53,23 L-50,23 L-47,19 L-43,16 L-40,16 L-37,20 L-33,16 L-26,14 L-31,11 L-31,9 L-21,4 L-19,4 L-19,2 L-14,1 Z " fill="#EAEAE8" transform="translate(187,21)"/>
<path d="M0,0 L5,0 L8,3 L14,2 L14,9 L11,18 L7,21 L2,26 L9,25 L14,21 L23,21 L27,20 L35,20 L38,21 L40,18 L50,19 L52,25 L58,28 L63,28 L59,26 L61,20 L64,19 L66,23 L71,25 L69,26 L72,33 L78,32 L78,35 L83,36 L84,41 L81,44 L71,45 L76,41 L77,40 L70,39 L66,43 L59,44 L57,38 L51,39 L49,33 L41,30 L34,31 L27,33 L29,39 L36,43 L36,44 L25,44 L22,43 L24,50 L30,52 L37,53 L38,58 L57,60 L55,72 L50,71 L48,66 L45,71 L47,75 L46,81 L40,78 L42,74 L30,67 L24,65 L24,62 L15,58 L7,51 L6,45 L8,45 L9,42 L15,43 L10,39 L10,37 L5,38 L-6,36 L-13,28 L-17,25 L-17,18 L-24,19 L-25,17 L-21,12 L-15,15 L-8,15 L-9,21 L-6,21 L-5,20 L3,20 L4,16 L-2,16 L-3,12 L4,12 L-1,11 L1,10 L2,5 Z M18,26 L17,35 L18,38 L22,39 L25,32 L25,29 Z " fill="#F5F5F5" transform="translate(130,217)"/>
<path d="M0,0 L2,0 L2,7 L4,12 L1,15 L-3,12 L-3,22 L-7,30 L-13,33 L-18,34 L-28,34 L-32,35 L-33,42 L-38,49 L-41,52 L-36,51 L-36,55 L-31,59 L-33,65 L-41,70 L-44,72 L-46,71 L-50,77 L-55,79 L-57,75 L-56,66 L-54,61 L-59,55 L-59,53 L-68,50 L-75,49 L-75,41 L-77,41 L-80,34 L-75,32 L-59,32 L-58,30 L-57,28 L-51,27 L-50,21 L-45,26 L-36,29 L-33,29 L-33,28 L-26,28 L-26,22 L-25,22 L-25,28 L-18,27 L-17,21 L-24,19 L-26,14 L-23,7 L-20,6 L-18,2 L-11,8 L-8,11 L-7,4 L-4,3 L-4,1 Z " fill="#E7E7E6" transform="translate(166,136)"/>
<path d="M0,0 L3,3 L7,9 L9,11 L9,15 L11,15 L13,20 L15,22 L29,22 L34,24 L32,28 L32,39 L30,43 L24,44 L25,37 L15,30 L10,25 L8,23 L1,24 L-3,23 L-5,19 L-14,24 L-15,26 L-5,26 L7,29 L17,35 L15,46 L10,48 L7,51 L-9,52 L-13,54 L-11,60 L-9,60 L-8,65 L-10,68 L-17,68 L-24,65 L-26,60 L-28,68 L-30,68 L-32,56 L-39,55 L-38,48 L-34,51 L-31,51 L-32,45 L-26,42 L-24,35 L-30,36 L-27,31 L-24,28 L-21,19 L-19,17 L-13,19 L-10,14 L3,15 L-1,5 Z " fill="#F0F0EF" transform="translate(100,117)"/>
<path d="M0,0 L4,1 L8,2 L2,10 L-1,17 L-14,23 L-16,20 L-20,35 L-16,36 L-6,30 L-3,26 L0,18 L2,18 L3,14 L6,17 L6,23 L4,30 L10,31 L14,36 L15,43 L10,43 L8,46 L7,53 L1,51 L-2,45 L-2,40 L-5,40 L-8,43 L-8,45 L-15,45 L-16,47 L-17,45 L-23,47 L-21,49 L-26,48 L-30,46 L-32,41 L-33,41 L-33,25 L-31,18 L-28,16 L-28,19 L-25,16 L-21,12 L-18,11 L-18,9 L-7,7 L-2,7 L-1,2 Z " fill="#E4E3E1" transform="translate(53,145)"/>
<path d="M0,0 L8,2 L12,1 L12,7 L13,1 L25,2 L29,5 L31,13 L35,17 L38,19 L35,30 L28,28 L19,19 L12,19 L8,23 L3,25 L8,26 L6,31 L7,37 L5,37 L3,39 L1,34 L-3,29 L-5,25 L-6,29 L-3,39 L-10,39 L-10,37 L-24,36 L-30,35 L-30,37 L-33,37 L-36,30 L-24,31 L-24,18 L-13,18 L-8,20 L-8,18 L-3,17 L5,16 L7,9 L6,4 L-6,4 L-6,2 Z " fill="#EAEAE8" transform="translate(106,93)"/>
<path d="M0,0 L8,1 L8,3 L20,5 L27,8 L28,11 L26,11 L27,25 L26,27 L26,32 L30,31 L29,26 L34,23 L37,22 L37,20 L45,20 L43,24 L42,22 L39,22 L41,27 L39,27 L39,30 L37,30 L37,32 L35,32 L34,37 L27,38 L24,40 L23,41 L18,46 L18,49 L16,51 L8,51 L4,47 L5,37 L7,32 L13,31 L16,22 L16,14 L21,13 L10,13 L8,19 L5,17 L4,11 L-2,11 L-5,2 Z " fill="#DAD9D6" transform="translate(251,222)"/>
<path d="M0,0 L7,0 L16,9 L23,12 L25,3 L30,1 L34,4 L33,13 L35,17 L38,17 L40,20 L36,21 L41,23 L50,24 L48,26 L45,28 L42,30 L40,36 L37,35 L32,29 L30,28 L31,23 L28,22 L24,24 L24,30 L16,28 L15,23 L12,24 L2,24 L1,21 L3,17 L-1,15 L-1,21 L-5,20 L-7,16 L-6,11 L-6,9 L-10,7 L-8,5 L-3,3 Z " fill="#F1F1F0" transform="translate(118,111)"/>
<path d="M0,0 L5,1 L3,8 L16,8 L17,13 L25,15 L24,9 L30,6 L33,9 L30,15 L27,18 L25,20 L24,25 L25,29 L32,31 L33,34 L31,37 L19,39 L15,41 L10,41 L10,39 L2,36 L-1,31 L-1,26 L-13,20 L-22,18 L-32,17 L-30,13 L-21,9 L-20,14 L-11,14 L-8,13 L-4,19 L5,25 L9,28 L7,35 L13,34 L14,26 L14,19 L16,16 L12,14 L-2,14 L-6,10 L-7,3 L0,6 Z " fill="#F8F8F8" transform="translate(117,126)"/>
<path d="M0,0 L8,0 L6,1 L8,5 L8,8 L13,9 L13,11 L15,11 L19,21 L22,24 L25,31 L28,34 L31,43 L42,53 L44,55 L42,55 L46,64 L52,67 L51,69 L45,69 L46,71 L50,73 L46,74 L37,65 L33,61 L35,57 L32,53 L26,51 L27,47 L22,46 L15,37 L9,25 L6,21 L3,12 L3,8 L5,9 L4,1 L1,1 L0,3 Z " fill="#D8D8D4" transform="translate(72,202)"/>
<path d="M0,0 L3,1 L-1,7 L0,13 L-11,25 L-17,30 L-18,32 L-21,33 L-24,36 L-29,37 L-29,39 L-38,43 L-41,46 L-50,49 L-55,51 L-52,48 L-56,44 L-52,44 L-51,40 L-46,38 L-45,33 L-45,30 L-42,29 L-40,30 L-38,29 L-29,28 L-29,26 L-32,25 L-28,24 L-28,22 L-20,22 L-13,16 L-9,15 L-9,10 L-9,7 L-6,4 L-5,2 L-1,1 Z " fill="#EFEFEE" transform="translate(278,259)"/>
<path d="M0,0 L4,5 L7,5 L7,3 L10,2 L12,6 L12,9 L15,9 L15,11 L18,11 L23,16 L26,22 L20,24 L19,37 L7,36 L9,41 L7,46 L-2,45 L-2,44 L4,44 L-1,37 L0,33 L3,32 L3,30 L11,29 L14,29 L15,20 L16,17 L12,15 L11,20 L4,19 L5,13 L1,12 L4,16 L1,19 L8,21 L4,22 L-2,21 L-2,25 L-4,25 L-5,27 L-7,25 L-5,25 L-8,18 L-7,12 L-5,11 L-2,2 Z " fill="#D8D7D4" transform="translate(214,196)"/>
<path d="M0,0 L8,2 L9,4 L12,5 L12,7 L14,7 L14,15 L17,18 L20,19 L15,23 L12,24 L5,21 L2,19 L1,27 L-2,28 L-7,27 L-7,25 L-11,27 L-17,27 L-20,24 L-24,16 L-17,14 L-16,13 L-7,13 L-3,14 L-2,8 L-3,4 L-2,1 Z " fill="#E7E6E5" transform="translate(76,75)"/>
<path d="M0,0 L10,0 L18,2 L18,4 L23,1 L32,6 L38,9 L45,8 L50,11 L50,14 L52,14 L52,16 L61,18 L67,17 L69,18 L69,20 L73,21 L71,23 L58,25 L54,27 L46,27 L43,26 L43,17 L46,16 L34,13 L34,11 L31,11 L31,9 L21,9 L15,10 L5,10 L6,4 L-3,6 L-6,3 L0,2 Z " fill="#DCDBD9" transform="translate(214,154)"/>
<path d="M0,0 L1,2 L13,0 L13,2 L11,2 L10,7 L8,8 L14,9 L15,7 L16,10 L6,11 L3,12 L1,11 L-1,12 L-1,15 L-2,20 L-8,22 L-8,20 L-14,19 L-19,15 L-30,16 L-46,13 L-45,6 L-33,6 L-24,9 L-22,8 L-17,3 L-9,4 L-6,6 L0,6 L-1,3 Z M-11,10 L-14,13 L-9,18 L-4,20 L-2,14 L-8,10 Z " fill="#D1D0CC" transform="translate(234,278)"/>
<path d="M0,0 L13,1 L20,2 L20,3 L14,4 L11,9 L5,7 L3,9 L1,17 L-5,24 L-4,26 L-8,27 L-12,26 L-16,30 L-15,35 L-15,42 L-11,49 L-12,51 L-13,48 L-16,49 L-19,47 L-18,34 L-23,31 L-21,25 L-18,21 L-16,21 L-16,16 L-11,15 L-11,13 L-8,12 L-6,9 L1,3 L2,1 Z " fill="#D6D5D1" transform="translate(76,128)"/>
<path d="M0,0 L6,0 L8,2 L13,3 L15,5 L15,9 L13,9 L13,11 L2,14 L2,16 L7,17 L9,18 L8,22 L6,22 L6,24 L-2,23 L-3,26 L-6,29 L-4,30 L-7,30 L-8,34 L-10,37 L-15,35 L-15,27 L-13,22 L-11,22 L-10,19 L-7,16 L-5,15 L-6,11 L-3,8 L-5,7 L-4,5 L8,8 L6,4 L0,2 Z " fill="#ECECEA" transform="translate(179,159)"/>
<path d="M0,0 L3,1 L4,3 L16,5 L20,7 L19,13 L8,13 L10,19 L15,18 L13,22 L7,27 L5,30 L2,30 L2,32 L-7,33 L-8,29 L-6,28 L-9,19 L-9,16 L-3,15 L-4,21 L4,23 L7,19 L-1,8 L-4,2 Z " fill="#F2F2F1" transform="translate(63,111)"/>
<path d="M0,0 L2,3 L4,8 L7,8 L10,5 L12,11 L7,16 L4,19 L2,19 L2,21 L-4,25 L-5,28 L-11,27 L-12,25 L-9,19 L-8,18 L-13,17 L-17,20 L-19,19 L-18,14 L-16,13 L-15,8 L-7,6 L0,7 L-2,1 Z " fill="#F9F9F9" transform="translate(217,260)"/>
<path d="M0,0 L3,1 L5,10 L7,15 L13,22 L15,17 L13,17 L13,7 L15,10 L16,1 L17,1 L18,11 L21,11 L21,21 L20,22 L19,35 L21,36 L15,37 L11,34 L11,32 L8,31 L9,28 L7,24 L4,22 L1,22 L-1,2 Z " fill="#CAC9C4" transform="translate(282,128)"/>
<path d="M0,0 L12,1 L14,4 L13,6 L4,7 L2,10 L2,16 L6,21 L6,23 L-4,23 L-12,16 L-13,8 L-12,6 L-10,6 L-9,2 L-5,3 L-5,5 L-1,3 Z " fill="#E6E6E4" transform="translate(212,217)"/>
<path d="M0,0 L9,1 L16,4 L16,6 L9,6 L9,10 L14,11 L14,17 L12,20 L12,25 L5,27 L5,25 L1,24 L-2,20 L-2,13 L1,7 L-1,5 Z " fill="#E5E5E3" transform="translate(189,139)"/>
<path d="M0,0 L9,0 L9,1 L4,1 L6,7 L11,9 L11,10 L17,11 L16,13 L11,13 L9,15 L7,14 L7,16 L5,17 L8,20 L5,23 L6,26 L4,29 L-2,21 L-5,23 L-9,19 L-6,9 L-3,4 L-1,4 Z " fill="#D3D2CE" transform="translate(158,200)"/>
<path d="M0,0 L3,3 L3,6 L6,6 L7,9 L5,9 L5,11 L2,13 L8,22 L13,29 L9,34 L3,32 L1,31 L2,25 L-6,27 L-6,7 L0,7 Z " fill="#E1E0DD" transform="translate(58,101)"/>
<path d="M0,0 L21,2 L37,4 L41,3 L47,6 L43,9 L27,10 L14,9 L14,7 L4,5 L-5,4 L-4,1 Z " fill="#DBDAD7" transform="translate(220,143)"/>
<path d="M0,0 L2,0 L2,2 L6,1 L13,5 L15,9 L23,10 L23,11 L16,12 L16,17 L0,15 L-4,10 L-3,7 L-6,7 L-7,1 Z " fill="#D7D5D2" transform="translate(67,100)"/>
<path d="M0,0 L7,0 L6,3 L17,6 L17,8 L23,10 L29,12 L31,19 L26,19 L25,15 L17,14 L12,16 L11,13 L1,8 L-8,6 L-9,4 L-5,1 Z " fill="#E2E2DF" transform="translate(252,152)"/>
<path d="M0,0 L5,0 L7,3 L7,6 L4,7 L6,8 L15,8 L18,12 L3,19 L-1,18 L-7,11 L-4,8 L-7,5 L-4,4 L-4,2 Z " fill="#F5F5F5" transform="translate(169,212)"/>
<path d="M0,0 L5,5 L10,5 L12,11 L17,13 L20,15 L23,18 L25,23 L18,24 L16,22 L15,24 L11,22 L5,18 L7,16 L12,20 L7,15 L3,14 L1,15 L-2,9 L-3,7 L1,7 L0,6 Z " fill="#CFCECA" transform="translate(129,274)"/>
<path d="M0,0 L2,0 L3,4 L0,6 L-4,15 L-12,21 L-16,23 L-21,22 L-17,5 L-13,8 L-1,2 Z " fill="#F9F9F9" transform="translate(53,159)"/>
<path d="M0,0 L5,2 L9,19 L8,26 L5,29 L-4,32 L-12,29 L-16,23 L-15,14 L-13,14 L-12,24 L-10,26 L-2,29 L-2,22 L0,18 L6,18 L1,6 L-1,1 Z " fill="#F3F3F2" transform="translate(63,171)"/>
<path d="M0,0 L15,0 L23,3 L30,2 L34,0 L41,0 L40,3 L58,3 L76,6 L73,8 L56,7 L39,6 L35,7 L34,9 L43,9 L43,10 L33,10 L33,6 L24,6 L13,2 L8,2 L6,5 L4,1 Z " fill="#969489" transform="translate(181,138)"/>
<path d="M0,0 L6,1 L9,3 L11,1 L11,5 L13,6 L10,7 L8,16 L7,18 L1,19 L1,21 L5,23 L7,26 L10,27 L11,30 L2,27 L-6,21 L-4,20 L-6,19 L-6,16 L-8,15 L-3,13 L-3,11 L-6,10 L-5,8 L-1,9 L-1,11 L4,12 L7,10 L8,4 L2,3 L0,5 Z " fill="#B7B5AE" transform="translate(156,283)"/>
<path d="M0,0 L3,3 L3,6 L8,7 L10,8 L18,8 L21,10 L19,10 L19,16 L16,16 L16,10 L15,11 L15,16 L2,18 L0,14 Z " fill="#E4E3E1" transform="translate(73,176)"/>
<path d="M0,0 L2,0 L1,7 L-4,10 L-6,10 L-4,17 L-9,16 L-11,14 L-14,18 L-14,9 L-15,5 L-10,1 L-5,2 Z " fill="#F8F8F8" transform="translate(74,152)"/>
<path d="M0,0 L7,0 L10,8 L16,10 L18,14 L20,13 L19,18 L7,12 L0,10 L0,15 L6,15 L6,16 L1,16 L1,24 L-1,27 L-1,25 L-3,24 L-1,23 L-1,9 L0,7 Z " fill="#C5C3BE" transform="translate(278,224)"/>
<path d="M0,0 L3,4 L11,18 L14,31 L14,37 L16,37 L16,39 L18,40 L14,42 L14,49 L12,51 L8,38 L8,20 L4,11 L0,3 Z " fill="#A3A299" transform="translate(268,88)"/>
<path d="M0,0 L4,1 L7,5 L14,4 L19,1 L23,9 L21,15 L16,15 L12,9 L2,11 L2,5 L-2,1 Z " fill="#FAFAFA" transform="translate(229,185)"/>
<path d="M0,0 L2,0 L2,9 L5,14 L9,16 L10,24 L3,23 L0,20 L-1,20 L-1,14 L-3,14 L-6,5 L-3,4 L-1,5 L-2,2 Z " fill="#CFCECA" transform="translate(46,185)"/>
<path d="M0,0 L15,0 L18,3 L17,4 L19,9 L24,15 L14,15 L12,8 L-3,3 Z " fill="#CBCAC5" transform="translate(236,42)"/>
<path d="M0,0 L5,2 L3,8 L10,9 L11,4 L16,6 L14,15 L13,19 L5,19 L0,23 L-2,23 L-1,19 L1,16 L10,16 L9,12 L-1,8 L2,4 L-2,1 Z " fill="#F7F7F6" transform="translate(215,207)"/>
<path d="M0,0 L12,0 L20,2 L25,1 L38,3 L37,6 L13,6 L11,8 L11,6 L8,6 L7,3 L0,1 Z " fill="#A8A69E" transform="translate(163,133)"/>
<path d="M0,0 L4,0 L6,13 L0,14 L-9,10 L-9,8 L-7,8 L-6,5 L-3,2 Z " fill="#E0E0DD" transform="translate(228,271)"/>
<path d="M0,0 L4,4 L2,4 L1,8 L7,8 L10,8 L21,13 L30,14 L33,16 L32,23 L31,23 L31,16 L21,16 L15,14 L14,16 L12,12 L10,11 L0,10 L-2,9 L-2,16 L-4,14 L-3,9 L-6,8 L-3,8 L-1,2 Z " fill="#A3A199" transform="translate(121,85)"/>
<path d="M0,0 L9,1 L8,9 L5,12 L0,13 L-4,5 L-3,3 L-1,3 Z " fill="#E6E6E4" transform="translate(176,138)"/>
<path d="M0,0 L1,0 L2,10 L7,21 L7,27 L6,25 L4,24 L2,19 L1,27 L6,29 L5,37 L3,35 L1,30 L-2,29 L-1,21 L-2,15 L-1,13 L-2,1 Z " fill="#9E9C93" transform="translate(288,86)"/>
<path d="M0,0 L5,3 L12,6 L15,8 L12,9 L17,19 L16,21 L13,18 L12,14 L10,15 L14,22 L12,23 L6,13 L1,3 L-1,1 Z " fill="#B5B4AD" transform="translate(250,65)"/>
<path d="M0,0 L7,1 L10,3 L12,2 L16,6 L19,10 L19,12 L21,12 L22,16 L19,16 L19,14 L16,14 L15,12 L12,11 L11,9 L-1,3 Z " fill="#E0DFDD" transform="translate(228,50)"/>
<path d="M0,0 L3,1 L2,2 L7,4 L9,11 L8,13 L3,11 L-4,11 L-8,8 L-3,3 Z " fill="#FAFAFA" transform="translate(122,213)"/>
<path d="M0,0 L1,2 L7,2 L10,2 L15,4 L13,6 L3,7 L1,6 L-12,5 L-20,3 L-16,1 L-6,1 L0,2 Z " fill="#9E9C93" transform="translate(199,310)"/>
<path d="M0,0 L13,0 L18,5 L19,7 L12,6 L10,8 L10,5 L9,3 L7,3 L4,7 L-3,7 L-8,4 L-4,2 Z " fill="#B0AEA7" transform="translate(127,254)"/>
<path d="M0,0 L15,1 L15,2 L9,2 L9,4 L15,5 L17,10 L3,8 L0,6 Z " fill="#BDBCB6" transform="translate(170,157)"/>
<path d="M0,0 L9,0 L3,7 L-1,8 L0,10 L-5,14 L-7,16 L-9,15 L-7,9 L-4,4 Z " fill="#BFBEB9" transform="translate(149,54)"/>
<path d="M0,0 L5,2 L8,3 L11,21 L10,25 L9,19 L7,19 L4,12 L2,3 Z " fill="#BEBDB7" transform="translate(277,78)"/>
<path d="M0,0 L1,3 L5,2 L3,6 L-3,13 L-6,10 L-8,12 L-7,18 L-10,18 L-11,16 L-13,17 L-11,13 L-5,5 L-3,4 Z " fill="#B0AEA7" transform="translate(137,66)"/>
<path d="M0,0 L4,1 L9,4 L5,6 L0,8 L-4,12 L-7,6 L-6,3 L-3,4 L-4,1 Z " fill="#C7C6C1" transform="translate(153,31)"/>
<path d="M0,0 L3,0 L5,9 L7,13 L12,15 L12,8 L15,4 L19,4 L20,0 L22,7 L17,8 L17,6 L15,7 L13,17 L4,15 L2,10 L2,2 L0,2 Z " fill="#858277" transform="translate(48,183)"/>
<path d="M0,0 L8,0 L10,2 L9,3 L12,3 L14,2 L14,4 L19,5 L15,6 L2,5 L-3,4 L-5,4 L-5,5 L-13,5 L-10,3 L-6,1 Z " fill="#9C9A91" transform="translate(190,38)"/>
<path d="M0,0 L1,4 L1,6 L-7,8 L-9,9 L-11,12 L-13,13 L-14,18 L-19,17 L-19,15 L-21,13 L-18,13 L-17,11 L-16,13 L-16,7 L-14,6 L-11,7 L-2,3 Z " fill="#9C9A90" transform="translate(71,195)"/>
<path d="M0,0 L1,3 L-4,8 L1,9 L1,10 L-10,10 L-13,8 L-11,4 L-8,1 L0,2 Z " fill="#C4C3BD" transform="translate(185,181)"/>
<path d="M0,0 L3,4 L3,6 L9,8 L5,10 L1,6 L0,10 L3,11 L-2,12 L0,15 L-2,16 L-7,11 L-8,8 L-6,5 L-2,8 Z " fill="#A4A299" transform="translate(129,270)"/>
<path d="M0,0 L9,2 L18,7 L17,9 L8,8 L6,7 L6,5 L0,5 Z " fill="#F2F2F1" transform="translate(278,234)"/>
<path d="M0,0 L1,0 L2,11 L3,14 L5,11 L6,14 L8,13 L16,13 L16,8 L13,7 L17,7 L17,14 L11,14 L11,16 L1,19 L-1,11 Z " fill="#96948B" transform="translate(72,179)"/>
<path d="M0,0 L7,1 L10,4 L9,6 L4,7 L2,8 L3,14 L-2,14 Z " fill="#FAFAFA" transform="translate(279,240)"/>
<path d="M0,0 L6,0 L7,8 L4,9 L2,13 L1,6 L-1,6 L-2,9 L-2,5 L-4,4 L-3,1 Z " fill="#B5B3AC" transform="translate(311,187)"/>
<path d="M0,0 L11,1 L21,4 L26,12 L28,14 L25,15 L20,7 L17,7 L11,4 L0,4 L0,2 L-2,1 Z " fill="#8C897E" transform="translate(222,47)"/>
<path d="M0,0 L5,1 L9,5 L7,10 L-1,6 L-3,3 Z " fill="#FAFAFA" transform="translate(223,288)"/>
<path d="M0,0 L7,3 L7,6 L4,13 L0,12 L-1,3 Z " fill="#FAFAFA" transform="translate(148,243)"/>
<path d="M0,0 L6,1 L9,4 L10,7 L3,8 L-3,5 L-4,2 Z " fill="#FAFAFA" transform="translate(269,165)"/>
<path d="M0,0 L3,1 L7,9 L9,14 L9,18 L7,18 L6,16 L4,17 L1,10 Z " fill="#D1D0CC" transform="translate(268,94)"/>
<path d="M0,0 L2,1 L0,5 L7,8 L11,10 L8,11 L2,9 L-4,10 L-4,12 L8,12 L8,13 L-5,13 L-5,4 Z " fill="#9A978E" transform="translate(104,85)"/>
</svg>
