<?xml version="1.0" encoding="UTF-8"?>
<!-- Generator: visioncortex VTracer 0.6.12 -->
<svg xmlns:xlink="http://www.w3.org/1999/xlink" xmlns:sodipodi="http://sodipodi.sourceforge.net/DTD/sodipodi-0.0.dtd" xmlns:inkscape="http://www.inkscape.org/namespaces/inkscape" version="1.1" xmlns="http://www.w3.org/2000/svg" width="293" height="344">
<path d="M0,0 L293,0 L293,344 L0,344 Z M126,40 L126,42 L116,43 L106,45 L95,49 L94,54 L106,50 L119,46 L139,43 L156,43 L176,46 L195,52 L200,53 L196,50 L185,46 L170,42 L163,41 Z M138,48 L133,51 L134,71 L136,71 L137,73 L151,72 L151,69 L153,68 L150,66 L143,65 L145,63 L149,62 L151,58 L143,55 L151,53 L151,49 L147,48 Z M170,50 L166,59 L163,72 L169,74 L170,72 L173,73 L174,76 L178,75 L179,73 L180,77 L190,82 L197,82 L203,90 L205,91 L208,81 L209,66 L204,64 L193,71 L187,76 L187,73 L191,59 L191,57 L185,54 L182,55 L179,60 L179,62 L177,62 L177,53 Z M118,52 L109,55 L113,73 L117,77 L120,74 L122,68 L127,65 L129,57 L124,52 Z M93,62 L90,65 L91,79 L94,88 L99,85 L101,80 L110,80 L110,78 L114,76 L104,67 L101,65 L96,62 Z M217,72 L215,78 L214,87 L213,90 L209,91 L208,93 L210,93 L211,96 L215,94 L219,91 L232,87 L229,82 L223,83 L221,76 L219,72 Z M75,74 L69,78 L67,83 L68,91 L76,97 L82,98 L87,95 L87,93 L89,93 L90,86 L88,86 L87,83 L84,84 L82,89 L76,89 L75,84 L76,80 L81,79 L81,77 L83,76 L79,74 Z M241,75 L243,79 L252,89 L256,96 L255,101 L254,103 L264,126 L268,142 L270,158 L270,172 L267,193 L262,210 L255,224 L256,230 L257,232 L252,242 L253,244 L255,245 L258,236 L259,229 L258,224 L266,207 L271,187 L272,179 L272,138 L266,117 L263,109 L261,105 L259,103 L258,105 L259,100 L260,95 L255,86 L250,83 L243,75 Z M135,76 L118,80 L106,85 L95,92 L95,94 L92,95 L86,105 L74,117 L73,122 L73,120 L69,122 L65,128 L61,139 L58,152 L58,180 L64,200 L70,210 L81,221 L83,220 L84,224 L90,233 L94,238 L96,237 L96,235 L101,238 L116,216 L119,213 L125,213 L125,219 L118,230 L111,240 L109,244 L103,241 L101,242 L116,250 L132,254 L137,255 L159,255 L176,251 L193,243 L197,239 L198,238 L201,238 L205,231 L205,229 L208,228 L211,223 L218,217 L223,212 L224,209 L227,208 L229,202 L226,205 L226,202 L228,200 L228,194 L229,194 L229,200 L232,197 L236,183 L237,177 L237,153 L232,134 L230,132 L229,133 L228,131 L226,131 L225,127 L224,126 L224,123 L216,112 L211,108 L204,99 L202,94 L199,93 L199,95 L201,96 L203,102 L203,105 L199,112 L196,117 L196,119 L194,119 L183,134 L176,146 L168,156 L165,159 L162,161 L157,155 L163,143 L170,134 L179,119 L182,114 L187,109 L194,99 L194,93 L192,93 L192,91 L182,86 L188,88 L194,91 L196,90 L180,81 L165,77 L157,76 Z M32,117 L27,130 L24,142 L22,142 L22,174 L25,194 L30,210 L31,216 L35,225 L34,231 L36,231 L37,237 L41,243 L41,240 L38,234 L40,227 L35,215 L31,205 L27,191 L25,175 L25,152 L30,128 L33,121 Z M55,199 L40,207 L39,213 L43,221 L45,221 L46,224 L52,224 L64,216 L65,212 L63,206 L60,200 Z M253,206 L252,210 L250,210 L248,212 L238,208 L232,209 L230,210 L230,212 L246,220 L251,221 L257,211 L258,206 Z M229,217 L221,222 L219,230 L222,236 L226,240 L229,241 L236,241 L241,237 L244,233 L243,225 L241,221 L236,218 Z M66,218 L53,229 L52,233 L54,238 L58,243 L60,242 L55,235 L55,230 L64,223 L71,223 L75,230 L72,229 L74,233 L77,234 L77,228 L72,221 Z M85,237 L74,243 L73,245 L79,243 L85,241 L88,243 L83,259 L83,261 L81,261 L80,254 L74,250 L69,250 L71,246 L65,248 L70,253 L76,254 L79,261 L83,264 L87,256 L90,244 L89,240 L87,237 Z M203,241 L200,244 L202,248 L209,257 L215,262 L218,257 L216,252 L228,252 L228,249 L220,250 L214,249 L213,252 L215,259 L210,254 L204,247 L205,241 Z M43,244 L42,248 L49,256 L55,261 L58,261 L57,263 L66,268 L74,267 L87,275 L108,285 L121,288 L134,290 L159,290 L184,286 L210,274 L220,268 L231,265 L234,262 L224,263 L220,265 L206,273 L193,279 L179,284 L165,287 L147,288 L125,286 L108,282 L86,272 L74,264 L64,263 L53,254 L44,244 Z M195,246 L183,252 L183,257 L188,258 L192,260 L197,269 L200,271 L203,268 L201,262 L198,256 L200,250 L199,246 Z M100,249 L94,253 L91,258 L91,265 L94,270 L97,273 L104,273 L108,271 L109,268 L105,265 L99,265 L99,259 L103,256 L109,261 L113,260 L112,254 L109,250 Z M174,255 L170,258 L169,278 L171,281 L174,279 L174,277 L172,276 L172,264 L173,260 L177,258 L188,272 L181,272 L177,274 L187,276 L191,274 L187,267 L179,257 L177,255 Z M119,256 L116,259 L113,272 L113,277 L118,279 L120,276 L121,273 L125,273 L126,280 L131,282 L134,273 L136,263 L135,258 L129,262 L126,265 L123,261 L122,256 Z M150,259 L147,261 L148,281 L152,283 L155,281 L156,275 L163,273 L166,267 L165,262 L152,259 Z " fill="#F8F8F5" transform="translate(0,0)"/>
<path d="M0,0 L8,0 L14,8 L18,14 L27,20 L38,24 L57,28 L56,39 L62,39 L59,42 L55,43 L56,44 L67,44 L72,47 L81,48 L84,48 L85,54 L71,55 L67,57 L68,59 L57,61 L51,63 L36,64 L31,63 L29,67 L26,70 L27,75 L31,85 L38,95 L38,97 L20,101 L28,105 L24,107 L16,109 L9,109 L12,108 L13,105 L10,104 L9,98 L3,96 L3,95 L-5,94 L-4,96 L-7,96 L-9,90 L-7,88 L-10,85 L-17,83 L-19,83 L-18,79 L-8,79 L-5,77 L-5,75 L-14,78 L-18,78 L-17,68 L-23,68 L-29,75 L-41,93 L-45,89 L-55,76 L-55,75 L-49,74 L-49,71 L-58,71 L-51,72 L-52,74 L-61,74 L-71,64 L-68,63 L-66,62 L-49,61 L-45,59 L-41,59 L-43,56 L-46,58 L-48,60 L-58,61 L-56,59 L-60,58 L-67,58 L-69,59 L-65,61 L-71,62 L-72,57 L-71,55 L-55,53 L-43,53 L-42,50 L-57,50 L-73,52 L-75,48 L-72,47 L-63,47 L-63,45 L-66,44 L-74,44 L-76,45 L-77,41 L-76,40 L-47,40 L-46,36 L-48,29 L-33,25 L-21,22 L-11,16 L-7,13 L-5,3 L-3,5 Z M9,15 L11,19 L17,24 L23,27 L30,26 L28,24 L18,19 L13,15 Z M-14,23 L-19,26 L-32,30 L-39,32 L-38,35 L-27,33 L-35,36 L-36,42 L-25,40 L-7,32 L-2,27 L-1,23 L-9,25 L-15,27 L-21,30 L-11,24 Z M-6,34 L-22,42 L-31,44 L-30,46 L-23,46 L-11,42 L-2,36 L-2,34 Z M11,34 L12,38 L25,43 L30,45 L40,46 L38,43 L25,39 L21,39 L21,37 L17,37 L17,35 Z " fill="#E3E4E8" transform="translate(142,145)"/>
<path d="M0,0 L3,1 L9,4 L14,3 L18,1 L16,5 L11,7 L1,7 L4,10 L6,17 L8,18 L10,20 L10,24 L13,27 L21,40 L33,58 L32,70 L28,73 L15,78 L6,81 L-11,84 L-10,94 L-29,94 L-31,93 L-31,85 L-36,76 L-35,71 L-32,66 L-21,59 L-14,47 L-11,33 L-7,28 L-5,24 L-7,23 L-9,16 L-16,20 L-18,22 L-20,22 L-29,31 L-29,28 L-17,16 L-11,6 Z " fill="#F8F5F0" transform="translate(104,88)"/>
<path d="M0,0 L10,2 L17,1 L19,0 L26,0 L34,11 L40,14 L49,15 L53,12 L51,17 L40,35 L30,49 L27,55 L23,51 L20,47 L12,46 L10,51 L8,53 L5,46 L-6,29 L-14,16 L-14,13 L-6,9 Z " fill="#FAFAFA" transform="translate(130,99)"/>
<path d="M0,0 L1,4 L2,12 L8,21 L14,26 L16,31 L15,41 L18,50 L23,55 L32,61 L34,63 L5,63 L6,51 L-4,51 L-20,47 L-30,43 L-31,41 L-27,39 L-19,28 L-12,17 L-3,4 Z " fill="#FAFAFA" transform="translate(194,119)"/>
<path d="M0,0 L2,0 L5,6 L7,9 L-2,10 L-4,7 L-5,10 L-5,23 L-6,23 L-7,11 L-10,28 L-15,36 L-23,41 L-29,42 L-30,34 L-27,27 L-26,24 L-21,19 L-15,11 L-8,4 L-4,2 Z M-7,23 Z " fill="#F9F7F1" transform="translate(93,104)"/>
<path d="M0,0 L6,3 L11,3 L12,11 L19,25 L23,26 L23,29 L25,30 L10,37 L8,37 L8,35 L10,35 L7,28 L0,17 L0,14 L-2,14 L-5,8 L-4,3 Z " fill="#F6F2E9" transform="translate(172,210)"/>
<path d="M0,0 L4,1 L15,13 L18,13 L22,18 L21,20 L22,21 L23,25 L25,25 L25,30 L20,32 L10,32 L4,28 L2,24 L2,14 L6,10 L4,8 L-3,5 Z " fill="#EBECEC" transform="translate(203,106)"/>
<path d="M0,0 L28,0 L33,2 L32,9 L33,11 L35,10 L38,14 L37,15 L44,18 L44,22 L38,21 L33,16 L27,6 L27,4 L22,4 L18,10 L14,13 L6,12 L-2,7 L-5,6 L-4,1 Z " fill="#F7F8F8" transform="translate(133,80)"/>
<path d="M0,0 L11,0 L16,2 L14,3 L16,9 L18,6 L27,7 L30,10 L32,11 L31,15 L20,17 L8,17 L2,15 L0,10 L-5,10 L-5,8 L2,9 L2,7 L4,7 L4,9 L6,7 L6,5 L-2,5 Z " fill="#EFEFF2" transform="translate(119,232)"/>
<path d="M0,0 L5,1 L8,4 L13,7 L21,14 L17,16 L17,18 L8,18 L5,24 L1,26 L-2,17 L-3,3 Z " fill="#EEBFB3" transform="translate(93,62)"/>
<path d="M0,0 L6,1 L9,6 L9,14 L1,17 L-1,20 L-7,19 L-10,16 L-12,12 L-12,6 Z " fill="#F2D4CF" transform="translate(53,202)"/>
<path d="M0,0 L8,1 L17,4 L17,6 L27,11 L27,13 L29,14 L22,20 L16,23 L12,24 L10,22 L12,22 L11,17 L19,13 L16,12 L10,14 L4,11 L0,2 Z " fill="#F7F6EF" transform="translate(165,80)"/>
<path d="M0,0 L5,1 L8,3 L6,3 L6,5 L1,6 L0,13 L1,15 L7,15 L9,10 L12,9 L13,12 L15,12 L14,19 L12,19 L11,22 L7,24 L1,23 L-7,17 L-8,9 L-5,3 Z " fill="#ECB6A7" transform="translate(75,74)"/>
<path d="M0,0 L6,1 L10,3 L13,12 L10,19 L6,22 L-1,22 L-6,19 L-9,12 L-8,5 L-4,1 Z M0,4 L-5,9 L-1,15 L6,16 L9,12 L7,7 L5,7 L4,5 Z " fill="#F1CEC6" transform="translate(230,219)"/>
<path d="M0,0 L9,0 L11,4 L15,6 L13,10 L5,12 L5,14 L2,13 L1,11 L-2,11 L1,14 L6,16 L5,20 L-1,19 L-7,10 L-9,4 Z " fill="#EEEEF1" transform="translate(192,215)"/>
<path d="M0,0 L6,1 L7,13 L13,5 L17,4 L19,9 L15,21 L12,22 L13,11 L6,21 L3,18 L1,9 L-1,18 L-4,18 L-3,8 Z " fill="#F9F9F8" transform="translate(170,53)"/>
<path d="M0,0 L2,2 L7,21 L7,45 L3,62 L0,68 L-1,64 L1,49 L3,49 L3,27 L0,10 L-1,5 L-3,4 L-1,1 Z " fill="#EDBC84" transform="translate(230,132)"/>
<path d="M0,0 L4,1 L3,5 L-1,7 L-8,6 L-8,9 L-5,11 L-6,14 L-15,15 L-17,13 L-14,10 L-24,10 L-35,12 L-40,10 L-39,8 L-23,6 L-15,3 L-2,1 Z " fill="#F9F9F9" transform="translate(218,202)"/>
<path d="M0,0 L4,1 L0,5 L-3,7 L-2,15 L1,18 L8,21 L4,22 L-3,19 L-6,15 L-8,10 L-7,19 L-2,24 L7,29 L6,31 L-4,27 L-10,19 L-11,9 L-13,10 L-13,22 L-17,21 L-18,12 L-17,8 L-13,7 L-12,5 L-10,5 L-9,8 L-7,5 L-7,3 Z " fill="#838CA4" transform="translate(226,142)"/>
<path d="M0,0 L5,1 L4,6 L3,10 L8,20 L6,24 L3,24 L-2,16 L-4,13 L-10,11 L-12,10 L-11,5 Z " fill="#F0C8BF" transform="translate(195,246)"/>
<path d="M0,0 L5,0 L4,5 L-2,15 L-7,14 L-23,6 L-23,4 L-18,2 L-12,3 L-4,6 L-3,4 L-1,4 Z " fill="#EEBDB2" transform="translate(253,206)"/>
<path d="M0,0 L2,0 L5,5 L6,11 L12,10 L15,15 L0,20 L-4,24 L-7,23 L-7,21 L-9,20 L-7,18 L-4,18 L-1,2 Z " fill="#F1C9C1" transform="translate(217,72)"/>
<path d="M0,0 L4,1 L12,13 L17,16 L28,17 L31,17 L29,21 L25,23 L15,22 L9,18 L6,18 L5,12 L3,6 L-4,6 Z " fill="#F9F9F8" transform="translate(155,88)"/>
<path d="M0,0 L8,0 L12,2 L11,4 L2,5 L0,6 L1,8 L17,6 L33,6 L31,10 L25,11 L14,12 L3,12 L2,14 L-1,11 L-2,9 L-2,2 Z " fill="#7B8199" transform="translate(68,188)"/>
<path d="M0,0 L1,2 L1,25 L4,45 L9,61 L15,74 L16,79 L14,84 L18,91 L17,93 L12,85 L12,81 L10,81 L11,75 L6,64 L5,56 L1,44 L-2,24 L-2,9 L-1,1 Z " fill="#E69667" transform="translate(24,150)"/>
<path d="M0,0 L8,1 L11,3 L11,9 L6,13 L1,16 L-1,21 L-3,19 L-4,4 L-3,1 Z " fill="#F4E1DD" transform="translate(153,260)"/>
<path d="M0,0 L6,2 L7,9 L1,14 L-1,14 L-2,19 L-4,22 L-7,13 L-8,4 L-5,1 Z " fill="#F5E3DF" transform="translate(120,53)"/>
<path d="M0,0 L9,0 L13,2 L13,5 L5,7 L13,10 L11,14 L6,16 L5,17 L12,18 L15,21 L13,21 L13,24 L-1,25 L-3,23 L-4,23 L-5,3 Z M1,2 L-3,3 L-3,18 L0,23 L9,23 L11,21 L10,20 L3,20 L2,14 L7,13 L9,11 L2,10 L2,6 L10,3 L10,2 Z " fill="#E07D61" transform="translate(138,48)"/>
<path d="M0,0 L2,1 L-14,9 L-23,12 L-33,14 L-55,14 L-65,12 L-65,11 L-47,12 L-54,11 L-50,9 L-47,8 L-53,8 L-49,6 L-41,5 L-40,8 L-35,9 L-38,10 L-38,12 L-30,11 L-22,9 L-23,7 L-27,5 L-20,4 L-20,6 L-10,5 Z " fill="#B78675" transform="translate(192,241)"/>
<path d="M0,0 L5,1 L13,14 L13,16 L18,18 L18,21 L14,20 L9,15 L4,8 L4,6 L-1,7 L-4,12 L-4,15 L-9,16 L-9,13 L-15,13 L-23,8 L-22,6 L-12,9 L-7,8 L-3,4 Z " fill="#909AAF" transform="translate(155,83)"/>
<path d="M0,0 L10,0 L22,2 L22,4 L-10,4 L-23,7 L-32,11 L-27,11 L-21,7 L-20,10 L-23,12 L-23,14 L-27,16 L-33,15 L-37,12 L-34,9 L-32,9 L-32,7 L-23,4 L-16,2 Z " fill="#D8CEA2" transform="translate(143,77)"/>
<path d="M0,0 L5,0 L6,4 L3,21 L1,22 L-1,15 L-6,12 L-12,12 L-11,8 Z " fill="#F5E6E3" transform="translate(202,67)"/>
<path d="M0,0 L22,0 L39,3 L51,8 L61,14 L59,15 L42,7 L25,3 L18,2 L8,2 L-13,5 L-19,8 L-24,8 L-24,10 L-38,17 L-40,18 L-39,15 L-25,7 L-14,3 Z " fill="#E38762" transform="translate(135,76)"/>
<path d="M0,0 L3,0 L4,3 L0,5 L-10,5 L-11,8 L-7,7 L2,11 L2,14 L-4,13 L-15,13 L-17,17 L-9,17 L-9,19 L-6,20 L-11,21 L-11,19 L-13,19 L-13,21 L-20,20 L-21,17 L-14,7 L-11,2 L-4,1 Z " fill="#888290" transform="translate(134,220)"/>
<path d="M0,0 L2,0 L5,12 L9,17 L20,22 L20,28 L11,25 L3,19 L0,15 L-1,11 L-1,1 Z " fill="#F9F9F9" transform="translate(213,151)"/>
<path d="M0,0 L6,0 L4,4 L3,8 L3,10 L-3,12 L-5,10 L-1,8 L0,5 L-6,6 L-22,9 L-27,11 L-43,13 L-44,16 L-49,13 L-49,10 L-37,10 L-25,8 L-15,5 L-11,2 L-9,1 Z " fill="#84889C" transform="translate(222,198)"/>
<path d="M0,0 L2,3 L3,6 L8,8 L15,3 L13,17 L11,22 L9,21 L10,14 L8,14 L8,12 L2,12 L0,17 L-4,18 L-3,8 L-1,1 Z " fill="#F9F9F9" transform="translate(119,258)"/>
<path d="M0,0 L7,1 L21,10 L42,19 L63,23 L78,24 L81,26 L65,26 L42,22 L24,14 L11,7 L5,3 L-2,3 L-4,1 Z M81,24 Z " fill="#E2825F" transform="translate(69,264)"/>
<path d="M0,0 L3,4 L6,9 L6,13 L4,13 L4,10 L2,10 L3,17 L1,20 L-1,20 L-5,20 L-8,16 L-7,5 L-2,6 L-1,6 L-2,2 L0,2 Z " fill="#C6CAD2" transform="translate(68,164)"/>
<path d="M0,0 L2,1 L-3,4 L-12,6 L-28,15 L-48,24 L-73,28 L-82,28 L-81,26 L-60,24 L-44,19 L-28,12 L-15,5 L-10,1 L-2,1 Z " fill="#E28462" transform="translate(232,262)"/>
<path d="M0,0 L9,0 L8,2 L0,5 L1,8 L8,9 L5,12 L1,12 L2,18 L9,18 L10,20 L8,21 L-1,21 L-4,16 L-4,1 Z " fill="#F9F9F9" transform="translate(139,50)"/>
<path d="M0,0 L1,2 L-2,7 L-4,7 L-5,10 L-10,15 L-18,22 L-21,27 L-23,27 L-25,33 L-27,36 L-33,36 L-38,33 L-37,31 L-31,33 L-31,31 L-28,30 L-27,26 L-20,21 L-18,16 L-14,14 L-13,9 L-11,9 L-11,7 L-5,6 Z " fill="#E6B786" transform="translate(228,202)"/>
<path d="M0,0 L3,3 L12,3 L8,9 L5,14 L3,25 L-1,32 L-3,31 L-2,26 L-1,24 L-1,2 Z " fill="#9098AE" transform="translate(88,110)"/>
<path d="M0,0 L3,3 L2,6 L-1,5 L-3,10 L-11,20 L-19,22 L-20,19 L-12,15 L-8,11 L-11,12 L-19,13 L-26,10 L-22,9 L-15,9 L-10,7 L-6,4 L-3,5 L-2,1 Z " fill="#8790A7" transform="translate(130,85)"/>
<path d="M0,0 L6,2 L7,0 L12,2 L12,4 L10,4 L10,12 L7,17 L6,21 L4,18 L5,16 L-2,17 L-9,15 L-12,13 L-23,13 L-26,11 L-16,8 L-16,10 L-7,12 L2,13 L6,14 L9,8 L7,8 L5,4 L0,1 Z " fill="#8A93AA" transform="translate(221,177)"/>
<path d="M0,0 L2,4 L4,21 L-4,18 L-7,15 L-8,7 L-2,3 Z " fill="#F9F9F9" transform="translate(230,142)"/>
<path d="M0,0 L2,0 L2,23 L-1,40 L-5,53 L-12,68 L-11,77 L-14,85 L-16,89 L-18,88 L-16,83 L-13,75 L-15,70 L-13,65 L-7,51 L-2,32 L0,16 Z " fill="#E28260" transform="translate(270,156)"/>
<path d="M0,0 L2,0 L3,12 L6,18 L14,22 L22,22 L29,20 L30,24 L22,27 L12,26 L4,20 L-1,12 L-2,3 Z " fill="#F9F9F9" transform="translate(200,118)"/>
<path d="M0,0 L4,1 L8,9 L6,13 L2,8 L2,6 L-7,8 L-14,9 L-23,7 L-23,4 L-26,4 L-26,2 L-22,1 L-15,4 L-8,4 L-8,6 L-6,6 L-5,4 L-3,1 Z " fill="#8891A8" transform="translate(154,93)"/>
<path d="M0,0 L7,1 L5,8 L0,13 L-4,18 L-9,20 L-10,27 L-13,23 L-19,21 L-21,17 L-15,18 L-15,20 L-13,21 L-14,18 L-5,16 L-4,13 L-8,11 L-9,8 L2,7 L2,5 L-2,2 L0,2 Z " fill="#7A839C" transform="translate(210,208)"/>
<path d="M0,0 L5,1 L10,11 L10,16 L-1,24 L-3,25 L-9,25 L-10,22 L-12,22 L-16,14 L-15,8 Z M-2,3 L-14,9 L-14,15 L-11,21 L-6,23 L-2,22 L0,19 L7,17 L7,9 L4,4 Z " fill="#E18166" transform="translate(55,199)"/>
<path d="M0,0 L37,1 L52,4 L68,9 L74,12 L71,13 L60,9 L46,5 L30,3 L13,3 L-7,6 L-11,5 L0,2 Z " fill="#E38B62" transform="translate(126,40)"/>
<path d="M0,0 L8,0 L12,4 L11,7 L7,5 L6,3 L0,5 L-3,11 L-2,16 L6,15 L7,18 L4,21 L-2,19 L-5,16 L-7,10 L-4,3 Z " fill="#F8F5F4" transform="translate(99,251)"/>
<path d="M0,0 L3,1 L-7,7 L-32,13 L-34,13 L-31,21 L-33,24 L-36,23 L-53,22 L-53,21 L-34,21 L-36,11 L-31,9 L-14,6 Z " fill="#818AA3" transform="translate(128,161)"/>
<path d="M0,0 L19,0 L21,1 L19,8 L9,6 L1,5 L-4,3 Z " fill="#F5F4F5" transform="translate(209,184)"/>
<path d="M0,0 L3,1 L5,4 L3,15 L-1,25 L-3,27 L-7,23 L-9,17 L-16,15 L-20,11 L-14,9 L-16,13 L-9,14 L-5,17 L-4,24 L-2,24 L1,13 L3,5 L-2,4 L-10,8 L-12,7 L-2,1 Z " fill="#E38A70" transform="translate(85,237)"/>
<path d="M0,0 L4,1 L11,9 L16,16 L17,20 L11,21 L3,19 L7,17 L14,17 L5,6 L2,3 L-1,5 L-2,9 L-2,21 L0,22 L-1,25 L-4,26 L-5,23 L-4,3 Z " fill="#E3876D" transform="translate(174,255)"/>
<path d="M0,0 L3,1 L-7,7 L3,2 L5,2 L5,4 L-8,11 L-21,14 L-20,12 L-15,10 L-24,12 L-25,9 L-5,3 Z " fill="#F8F7F8" transform="translate(128,168)"/>
<path d="M0,0 L4,2 L6,3 L6,6 L2,6 L1,12 L4,21 L9,28 L2,26 L-3,18 L-4,10 Z " fill="#848EA6" transform="translate(198,113)"/>
<path d="M0,0 L1,4 L2,7 L4,11 L4,18 L1,23 L3,24 L7,29 L6,31 L2,28 L-1,27 L-3,31 L-3,15 Z " fill="#F8F6EE" transform="translate(62,142)"/>
<path d="M0,0 L4,1 L1,4 L-2,5 L4,5 L1,8 L-3,9 L-4,9 L-2,16 L-4,23 L-6,23 L-7,25 L-9,23 L-8,19 L-7,17 L-7,10 L-9,4 Z " fill="#8C95AB" transform="translate(72,143)"/>
<path d="M0,0 L12,2 L13,5 L7,7 L15,17 L17,21 L14,21 L15,24 L11,22 L4,11 L2,8 L2,5 L9,4 L0,2 Z " fill="#AA948B" transform="translate(81,214)"/>
<path d="M0,0 L2,0 L1,5 L9,10 L33,14 L35,16 L21,15 L10,14 L-2,9 L-11,4 L-9,3 L-3,6 Z " fill="#EFC288" transform="translate(112,238)"/>
<path d="M0,0 L2,0 L0,6 L-10,12 L-19,15 L-18,12 L-23,12 L-19,10 Z " fill="#C9CDD6" transform="translate(139,168)"/>
<path d="M0,0 L5,2 L11,5 L20,5 L18,7 L10,8 L1,5 L-1,5 L-3,10 L-7,16 L-14,21 L-16,18 L-16,16 L-9,13 Z " fill="#F9F8F8" transform="translate(129,90)"/>
<path d="M0,0 L2,0 L7,9 L12,17 L12,21 L10,21 L10,23 L4,24 L2,23 L2,21 L-1,22 L1,26 L-5,25 L-9,22 L-3,20 L6,18 L10,18 L0,2 Z " fill="#7B8397" transform="translate(170,224)"/>
<path d="M0,0 L2,1 L1,5 L-8,18 L-12,17 L-12,15 L-7,12 L-6,10 L-15,11 L-20,10 L-19,8 L-17,7 L-12,8 L-9,6 L-1,1 Z " fill="#9F959A" transform="translate(192,95)"/>
<path d="M0,0 L6,0 L11,5 L9,13 L3,17 L1,23 L-2,25 L-5,21 L-9,3 Z M2,1 L-5,3 L-6,10 L-3,22 L-1,23 L1,18 L1,15 L6,13 L9,10 L8,3 Z " fill="#E28468" transform="translate(118,52)"/>
<path d="M0,0 L2,0 L1,9 L9,27 L13,42 L15,41 L14,59 L13,59 L10,40 L5,24 L-3,5 Z " fill="#E17F5F" transform="translate(257,97)"/>
<path d="M0,0 L5,1 L5,3 L7,3 L9,9 L6,12 L-1,11 L-5,5 Z " fill="#F9F9F9" transform="translate(230,223)"/>
<path d="M0,0 L2,2 L5,9 L12,12 L16,13 L15,20 L9,18 L3,14 L0,10 L-1,1 Z " fill="#F8F8F8" transform="translate(218,151)"/>
<path d="M0,0 L5,5 L13,13 L21,19 L26,20 L24,22 L25,24 L19,22 L14,18 L13,17 L7,13 L2,7 L-1,4 Z " fill="#EFBF82" transform="translate(43,244)"/>
<path d="M0,0 L7,4 L11,10 L11,16 L7,14 L7,11 L9,12 L5,5 L-2,5 L-11,12 L-10,19 L-6,25 L-10,23 L-14,17 L-14,12 L-3,2 Z " fill="#E38D72" transform="translate(66,218)"/>
<path d="M0,0 L3,1 L0,2 L0,12 L1,20 L5,15 L13,10 L13,3 L15,3 L16,8 L13,14 L6,16 L4,23 L0,24 L-2,22 L-3,2 Z " fill="#E18065" transform="translate(150,259)"/>
<path d="M0,0 L4,0 L2,4 L-10,10 L-17,12 L-24,12 L-25,10 L-14,7 Z " fill="#F9F9F8" transform="translate(136,179)"/>
<path d="M0,0 L2,1 L1,11 L-2,23 L-6,23 L-8,22 L-9,15 L-14,13 L-13,11 L-7,12 L-7,14 L-5,14 L-5,21 L-3,17 L-1,4 L-7,9 L-9,8 Z " fill="#E17E64" transform="translate(134,258)"/>
<path d="M0,0 L9,1 L12,5 L11,7 L7,3 L-1,3 L-6,8 L-7,14 L-5,20 L3,22 L5,20 L5,17 L9,19 L8,22 L4,24 L-3,24 L-8,19 L-9,16 L-9,9 L-5,3 Z " fill="#E0775D" transform="translate(100,249)"/>
<path d="M0,0 L2,1 L-3,8 L-3,14 L-5,13 L-7,18 L-7,27 L-8,33 L-9,33 L-9,25 L-11,37 L-12,53 L-13,53 L-13,32 L-9,17 L-5,6 Z " fill="#EAAC75" transform="translate(71,120)"/>
<path d="M0,0 L2,0 L1,6 L10,17 L12,18 L10,10 L11,8 L22,9 L25,8 L25,11 L13,11 L15,17 L11,21 L3,13 L-3,5 L-1,1 Z " fill="#E3886D" transform="translate(203,241)"/>
<path d="M0,0 L2,0 L2,4 L6,4 L7,13 L9,14 L13,24 L22,33 L21,35 L9,23 L3,12 Z " fill="#E69A68" transform="translate(60,186)"/>
<path d="M0,0 L3,1 L2,4 L-6,7 L-23,8 L-26,9 L-26,6 L-27,3 L-24,2 L-17,2 L-12,4 L-9,5 L-4,3 L-3,1 Z " fill="#828CA5" transform="translate(99,200)"/>
<path d="M0,0 L11,0 L10,2 L8,2 L8,4 L-2,5 L-9,8 L-14,7 L-14,4 Z " fill="#828BA3" transform="translate(194,211)"/>
<path d="M0,0 L2,2 L6,12 L12,31 L12,40 L10,36 L5,18 L-1,5 Z " fill="#F7EBB6" transform="translate(259,103)"/>
<path d="M0,0 L2,1 L2,13 L-1,22 L-7,30 L-11,29 L-5,22 L-2,14 Z " fill="#949DB2" transform="translate(85,114)"/>
<path d="M0,0 L6,1 L6,3 L10,3 L10,5 L16,6 L27,9 L29,12 L15,10 L3,5 L0,2 Z " fill="#F9F8F8" transform="translate(153,179)"/>
<path d="M0,0 L2,0 L0,10 L28,10 L29,12 L10,13 L6,14 L-1,12 L-2,6 Z " fill="#767F99" transform="translate(199,172)"/>
<path d="M0,0 L2,0 L3,7 L5,7 L5,9 L23,9 L22,11 L-4,12 L-6,14 L-7,10 L0,7 Z " fill="#8D96AB" transform="translate(70,174)"/>
<path d="M0,0 L4,1 L1,4 L-18,11 L-19,7 L-11,3 Z " fill="#EFBF84" transform="translate(113,43)"/>
<path d="M0,0 L1,4 L-2,17 L1,17 L2,8 L4,7 L6,17 L8,19 L11,17 L9,22 L5,21 L5,19 L2,18 L0,20 L-5,18 L-1,2 Z " fill="#E17D61" transform="translate(168,54)"/>
<path d="M0,0 L8,1 L11,4 L7,8 L7,20 L5,22 L3,18 L3,7 L5,7 L5,4 L0,3 Z " fill="#9FA7B9" transform="translate(199,112)"/>
<path d="M0,0 L3,1 L1,6 L-9,13 L-12,16 L-15,15 L-17,9 L-12,10 L-8,8 L-3,3 Z " fill="#AEB5C4" transform="translate(83,141)"/>
<path d="M0,0 L2,1 L2,7 L-1,10 L-8,8 L-5,5 L-7,5 L-11,8 L-18,8 L-14,5 Z " fill="#E9EAEC" transform="translate(127,81)"/>
<path d="M0,0 L9,2 L13,5 L15,11 L15,16 L12,18 L13,12 L11,5 L5,3 L-3,4 L-6,7 L-7,14 L-5,20 L-9,16 L-10,11 L-7,4 Z " fill="#E17B60" transform="translate(229,217)"/>
<path d="M0,0 L4,2 L7,9 L14,17 L19,22 L22,26 L19,27 L7,14 L4,12 L4,9 L2,3 L0,2 Z " fill="#EDB073" transform="translate(199,93)"/>
<path d="M0,0 L3,4 L4,8 L11,10 L18,8 L20,10 L14,14 L10,15 L3,12 L3,9 L0,8 L-1,3 Z " fill="#8992A7" transform="translate(165,83)"/>
<path d="M0,0 L5,1 L0,6 L-4,12 L-10,16 L-15,17 L-16,15 L-7,9 L-2,1 Z " fill="#8E96AB" transform="translate(129,96)"/>
<path d="M0,0 L7,3 L7,12 L9,12 L11,7 L13,4 L19,6 L21,7 L19,16 L18,12 L17,7 L12,10 L7,17 L6,17 L5,5 L-1,4 Z " fill="#E28469" transform="translate(170,50)"/>
<path d="M0,0 L10,3 L26,7 L36,8 L35,11 L20,9 L7,5 L0,1 Z " fill="#8D96AD" transform="translate(164,162)"/>
<path d="M0,0 L3,1 L6,10 L2,8 L0,3 L-3,15 L-3,19 L0,19 L1,15 L2,17 L0,23 L-4,22 L-6,21 L-5,11 L-2,2 Z " fill="#E17F64" transform="translate(119,256)"/>
<path d="M0,0 L5,1 L14,7 L21,10 L21,11 L14,12 L5,7 L0,2 Z " fill="#ACB1C0" transform="translate(151,160)"/>
<path d="M0,0 L1,2 L6,2 L9,7 L14,8 L35,8 L37,10 L29,11 L18,11 L6,8 L2,5 L-1,3 Z " fill="#949BAE" transform="translate(113,240)"/>
<path d="M0,0 L7,4 L17,6 L17,9 L12,10 L3,7 L-2,3 L-1,1 Z " fill="#7B859F" transform="translate(163,105)"/>
<path d="M0,0 L2,4 L8,12 L17,18 L17,20 L8,17 L2,12 L-1,6 Z " fill="#6E7893" transform="translate(210,159)"/>
<path d="M0,0 L1,0 L1,7 L-1,13 L-3,15 L-11,21 L-18,22 L-17,20 L-9,16 L-3,7 Z " fill="#F9F7F1" transform="translate(87,127)"/>
<path d="M0,0 L13,5 L16,6 L16,8 L18,9 L13,12 L11,9 L7,11 L1,3 L-1,1 Z " fill="#B3B8C7" transform="translate(203,139)"/>
<path d="M0,0 L4,1 L6,2 L5,17 L2,27 L0,25 L2,20 L4,3 L-2,5 L-9,10 L-11,8 Z " fill="#E2876B" transform="translate(203,64)"/>
<path d="M0,0 L2,0 L6,4 L8,5 L24,5 L21,8 L17,9 L9,9 L1,5 Z " fill="#818BA3" transform="translate(205,132)"/>
<path d="M0,0 L3,1 L5,4 L10,3 L10,7 L5,8 L0,3 L-4,6 L-4,12 L2,12 L-1,14 L-4,15 L-8,11 L-6,5 L-2,1 Z " fill="#E38970" transform="translate(103,253)"/>
<path d="M0,0 L1,2 L-4,7 L-10,10 L-13,9 L-15,4 L-11,3 L-3,2 Z " fill="#F9F9F9" transform="translate(122,94)"/>
<path d="M0,0 L2,0 L2,2 L0,2 L-1,6 L5,5 L11,9 L12,16 L7,11 L6,9 L-1,9 L-3,8 L-3,2 Z " fill="#E8A38D" transform="translate(191,73)"/>
<path d="M0,0 L1,3 L-1,12 L1,11 L4,3 L5,7 L3,14 L4,13 L5,17 L-1,15 L-3,14 L-3,8 L-5,7 Z " fill="#E1775D" transform="translate(183,63)"/>
<path d="M0,0 L8,0 L7,4 L-4,7 L-7,7 L-6,2 Z " fill="#CFD2DA" transform="translate(113,180)"/>
<path d="M0,0 L2,0 L9,8 L15,12 L19,20 L19,22 L15,21 L9,12 L0,2 Z " fill="#E69367" transform="translate(241,75)"/>
<path d="M0,0 L1,0 L1,18 L3,22 L4,28 L6,28 L4,32 L4,30 L2,30 L2,26 L0,26 L-2,20 L-2,13 L0,13 Z " fill="#E5AE7E" transform="translate(60,160)"/>
<path d="M0,0 L1,4 L-3,15 L-7,33 L-10,33 L-10,25 L-8,25 L-4,9 Z " fill="#E5915B" transform="translate(32,117)"/>
</svg>
