<?xml version="1.0" encoding="UTF-8"?>
<!-- Generator: visioncortex VTracer 0.6.12 -->
<svg xmlns:xlink="http://www.w3.org/1999/xlink" xmlns:sodipodi="http://sodipodi.sourceforge.net/DTD/sodipodi-0.0.dtd" xmlns:inkscape="http://www.inkscape.org/namespaces/inkscape" version="1.1" xmlns="http://www.w3.org/2000/svg" width="328" height="344">
<path d="M0,0 L328,0 L328,344 L0,344 Z M249,21 L227,26 L225,27 L225,30 L216,29 L216,31 L207,33 L204,35 L204,38 L200,37 L196,40 L194,43 L189,46 L187,49 L186,57 L184,57 L183,55 L181,61 L182,71 L186,69 L186,74 L182,75 L174,72 L171,68 L168,61 L167,49 L163,44 L161,44 L159,40 L154,36 L153,39 L153,36 L143,33 L139,32 L140,26 L137,26 L130,31 L120,34 L119,37 L115,36 L113,40 L111,40 L106,46 L102,48 L102,51 L97,52 L95,58 L92,58 L92,69 L94,71 L97,71 L99,76 L103,78 L113,77 L114,80 L119,82 L122,82 L122,84 L120,85 L127,89 L129,89 L129,92 L131,92 L131,99 L130,101 L128,100 L125,106 L126,108 L124,108 L124,111 L122,111 L121,113 L118,114 L116,118 L117,113 L119,112 L123,103 L123,94 L121,97 L120,88 L115,86 L115,88 L91,88 L93,90 L87,94 L85,93 L83,98 L83,104 L84,106 L86,106 L86,108 L99,110 L101,114 L101,120 L97,122 L95,122 L95,131 L97,130 L97,133 L101,137 L103,137 L102,139 L103,204 L102,206 L83,205 L74,208 L69,211 L63,213 L57,213 L56,216 L53,215 L51,219 L49,218 L46,220 L46,259 L48,263 L48,225 L49,229 L57,231 L60,231 L62,247 L65,255 L67,254 L68,246 L68,235 L76,237 L102,239 L104,240 L104,251 L108,256 L110,250 L110,242 L117,241 L129,242 L138,242 L142,243 L151,243 L158,242 L162,243 L189,243 L195,242 L199,245 L202,255 L205,262 L209,264 L210,237 L234,237 L250,235 L257,236 L261,237 L262,244 L265,257 L267,261 L270,261 L271,256 L271,232 L273,227 L277,223 L276,221 L278,221 L278,237 L279,241 L280,267 L281,267 L282,260 L282,247 L281,223 L280,219 L274,216 L262,215 L265,213 L264,212 L257,212 L248,213 L242,209 L236,208 L236,210 L231,210 L230,205 L227,203 L230,201 L229,200 L233,199 L233,196 L236,193 L236,186 L238,180 L243,171 L243,162 L245,162 L245,160 L247,160 L248,154 L250,154 L252,145 L252,140 L254,140 L255,135 L255,122 L250,100 L248,100 L246,92 L244,92 L243,88 L241,88 L240,85 L238,81 L236,81 L236,74 L234,74 L234,61 L233,58 L239,56 L242,55 L242,52 L248,51 L253,48 L257,44 L257,42 L260,42 L263,38 L263,36 L265,36 L266,38 L268,36 L268,29 L270,26 L266,22 L262,21 Z M239,248 L233,253 L232,257 L225,265 L224,269 L222,269 L220,282 L218,282 L217,291 L226,291 L227,294 L231,296 L231,298 L234,299 L241,299 L238,297 L249,296 L254,290 L256,286 L256,276 L253,275 L251,271 L247,271 L247,268 L238,266 L239,261 L243,258 L248,256 L249,248 Z M126,252 L122,254 L119,259 L118,266 L116,266 L117,276 L119,277 L120,281 L123,281 L124,284 L126,285 L137,285 L134,291 L134,294 L127,295 L123,296 L122,304 L130,305 L140,298 L144,294 L147,291 L153,282 L154,276 L154,262 L150,257 L146,256 L146,254 L141,252 Z M92,254 L92,256 L90,256 L89,261 L89,274 L91,284 L85,283 L83,278 L81,280 L82,284 L84,287 L93,288 L94,283 L92,277 L92,261 L93,254 Z M180,255 L177,259 L177,284 L176,289 L178,289 L178,291 L192,291 L191,256 L189,255 Z M266,299 L261,301 L262,309 L264,312 L266,311 L263,303 L269,302 L286,311 L297,311 L305,308 L304,305 L295,308 L288,308 L278,304 L269,299 Z M136,317 L131,319 L97,321 L97,322 L114,323 L132,322 L140,318 Z " fill="#F8F8F8" transform="translate(0,0)"/>
<path d="M0,0 L13,0 L18,2 L21,6 L17,8 L18,11 L14,12 L14,14 L12,16 L5,16 L5,18 L-4,23 L-9,25 L-10,27 L-19,30 L-22,33 L-25,33 L-26,40 L-24,40 L-23,49 L-17,51 L-17,54 L-13,53 L-13,60 L-11,60 L-9,64 L-8,67 L-5,68 L-5,71 L-3,71 L-1,79 L1,79 L6,101 L6,114 L5,119 L3,119 L2,129 L1,133 L-1,133 L-2,139 L-4,139 L-4,141 L-6,141 L-6,150 L-11,159 L-13,165 L-13,172 L-16,176 L-16,178 L-20,179 L-19,181 L-22,182 L-18,185 L-18,189 L-13,189 L-12,187 L-3,190 L-1,192 L15,191 L16,193 L13,194 L20,195 L20,197 L24,197 L26,200 L26,203 L20,205 L19,236 L16,236 L11,214 L11,211 L-26,214 L-30,215 L-40,215 L-41,239 L-43,240 L-46,238 L-48,229 L-51,223 L-56,221 L-60,222 L-87,222 L-96,220 L-116,219 L-131,218 L-138,218 L-141,230 L-142,230 L-144,216 L-160,215 L-170,213 L-182,213 L-182,234 L-184,234 L-187,226 L-189,210 L-192,210 L-192,208 L-197,207 L-198,206 L-198,198 L-196,194 L-193,195 L-192,192 L-183,191 L-179,190 L-164,188 L-151,187 L-144,185 L-141,176 L-138,170 L-137,170 L-137,180 L-136,178 L-137,126 L-150,110 L-153,110 L-154,110 L-154,101 L-149,100 L-148,97 L-149,91 L-150,89 L-163,87 L-163,85 L-165,85 L-166,79 L-165,74 L-163,72 L-160,72 L-156,69 L-158,67 L-134,67 L-134,65 L-129,67 L-128,76 L-126,73 L-126,82 L-130,91 L-132,92 L-133,97 L-135,97 L-135,99 L-142,99 L-141,108 L-132,107 L-140,104 L-141,100 L-132,99 L-125,94 L-119,92 L-116,87 L-112,83 L-110,83 L-109,79 L-107,71 L-109,72 L-110,61 L-109,61 L-110,52 L-112,52 L-112,50 L-118,50 L-121,52 L-127,52 L-126,47 L-133,48 L-142,48 L-143,47 L-144,32 L-149,31 L-147,30 L-146,26 L-141,23 L-138,19 L-136,19 L-134,15 L-129,16 L-119,14 L-115,10 L-112,11 L-112,13 L-101,13 L-96,15 L-96,18 L-94,15 L-88,21 L-88,23 L-86,23 L-82,28 L-81,40 L-77,49 L-74,52 L-66,54 L-63,53 L-63,48 L-65,48 L-67,50 L-68,40 L-66,34 L-65,36 L-63,36 L-62,27 L-60,25 L-55,22 L-51,17 L-47,16 L-45,17 L-44,13 L-38,11 L-33,10 L-33,8 L-24,9 L-24,6 L-12,3 Z M-124,25 L-125,27 L-129,29 L-129,31 L-131,31 L-131,39 L-118,39 L-113,38 L-113,29 L-116,25 Z M-86,34 L-86,54 L-88,65 L-84,66 L-76,65 L-69,65 L-66,62 L-80,62 L-84,63 L-83,55 L-83,41 L-85,34 Z M-40,85 L-37,95 L-35,104 L-35,106 L-33,106 L-33,148 L-35,152 L-35,158 L-32,154 L-30,148 L-30,107 L-32,103 L-35,91 L-39,85 Z M-132,117 L-132,120 L-134,120 L-134,181 L-132,184 L-132,182 L-124,183 L-121,181 L-120,168 L-118,160 L-114,159 L-112,156 L-115,139 L-117,139 L-118,132 L-120,132 L-121,119 L-122,117 Z M-13,117 L-14,120 L-14,126 L-15,130 L-22,132 L-25,141 L-28,154 L-28,158 L-26,158 L-22,149 L-22,138 L-20,134 L-14,134 L-12,135 L-12,117 Z M-101,152 L-101,154 L-105,155 L-107,159 L-106,163 L-102,167 L-94,167 L-94,170 L-97,171 L-93,171 L-93,167 L-90,166 L-93,164 L-102,163 L-104,160 L-98,155 L-99,152 Z M-108,174 L-109,176 L-109,185 L-105,190 L-96,193 L-95,190 L-105,185 L-106,174 Z M-93,192 L-96,194 L-96,195 L-123,195 L-143,196 L-147,200 L-147,202 L-142,207 L-141,209 L-138,208 L-140,201 L-142,200 L-135,199 L-92,199 L-88,197 L-88,194 L-92,192 Z M-131,202 L-136,204 L-135,206 L-131,212 L-117,212 L-110,211 L-106,212 L-78,213 L-69,210 L-67,207 L-73,208 L-110,208 L-124,207 L-131,209 L-131,205 L-129,204 Z " fill="#F3F2F0" transform="translate(249,21)"/>
<path d="M0,0 L22,0 L27,3 L30,7 L30,21 L28,28 L22,38 L17,41 L12,46 L6,50 L-2,49 L-1,41 L6,39 L10,39 L11,35 L13,30 L2,30 L-1,28 L-1,26 L-4,26 L-6,21 L-8,17 L-8,11 L-6,11 L-6,8 L-4,8 L-2,2 Z M11,7 L4,9 L3,14 L5,19 L9,22 L18,22 L20,18 L20,9 L17,9 L17,7 Z " fill="#DFDAD3" transform="translate(124,255)"/>
<path d="M0,0 L7,2 L9,17 L18,17 L20,16 L26,16 L24,22 L32,20 L35,19 L39,20 L39,22 L41,22 L43,26 L43,33 L42,36 L45,41 L43,49 L41,53 L34,59 L32,63 L25,62 L26,57 L28,57 L27,54 L31,49 L32,50 L33,43 L33,41 L31,41 L31,38 L25,36 L22,33 L24,33 L24,31 L18,30 L15,28 L15,26 L5,27 L0,24 L-1,20 L-5,19 L-6,18 L-6,7 L-3,7 L-1,1 Z " fill="#E1DDD6" transform="translate(98,51)"/>
<path d="M0,0 L10,0 L9,8 L1,12 L-1,14 L-1,18 L8,20 L8,23 L13,24 L14,27 L17,28 L17,38 L16,40 L12,41 L7,46 L-2,47 L-12,46 L-13,43 L-22,43 L-21,34 L-19,34 L-17,21 L-15,21 L-13,15 L-6,8 L-5,4 Z M1,25 L-4,26 L-1,27 L-3,38 L-5,39 L-3,40 L6,40 L8,31 L5,25 Z " fill="#E4E0DA" transform="translate(239,248)"/>
<path d="M0,0 L10,0 L11,2 L12,15 L14,15 L15,22 L17,22 L20,40 L17,43 L14,43 L12,51 L11,64 L8,66 L1,65 L0,64 L0,6 L-1,3 Z " fill="#F9F9F8" transform="translate(117,138)"/>
<path d="M0,0 L2,1 L2,7 L-1,9 L-1,7 L-3,7 L-5,11 L-6,13 L-9,13 L-9,15 L-16,21 L-21,23 L-24,24 L-24,26 L-30,28 L-33,29 L-32,36 L-32,46 L-34,46 L-35,43 L-40,41 L-41,32 L-43,32 L-44,27 L-42,24 L-38,23 L-38,21 L-31,19 L-27,19 L-25,15 L-17,12 L-12,10 L-12,8 L-6,7 L-3,6 L-3,4 L0,2 Z " fill="#DFDAD2" transform="translate(266,29)"/>
<path d="M0,0 L7,0 L7,6 L6,8 L6,26 L7,30 L3,32 L-3,31 L-4,26 L-4,8 L-3,1 Z " fill="#F0EDEA" transform="translate(183,257)"/>
<path d="M0,0 L4,0 L6,15 L6,40 L2,54 L0,54 Z " fill="#FAFAFA" transform="translate(105,145)"/>
<path d="M0,0 L8,0 L11,4 L11,13 L6,14 L-7,14 L-7,6 L-5,6 L-4,3 L-1,2 Z " fill="#D7CFC4" transform="translate(125,46)"/>
<path d="M0,0 L6,0 L6,2 L9,3 L9,13 L5,15 L-2,15 L-7,11 L-8,3 L-5,1 Z " fill="#F6F5F3" transform="translate(135,262)"/>
<path d="M0,0 L2,3 L0,4 L0,7 L9,5 L21,6 L58,6 L64,5 L62,8 L53,11 L25,10 L18,9 L14,10 L0,10 L-4,4 L-4,1 Z " fill="#B3A48D" transform="translate(118,223)"/>
<path d="M0,0 L5,5 L9,10 L10,62 L7,65 L7,56 L4,62 L3,58 L6,48 L6,23 L5,8 L1,7 L0,6 Z " fill="#AB9A7F" transform="translate(104,137)"/>
<path d="M0,0 L9,0 L11,1 L12,36 L-2,36 L-2,34 L-4,34 L-3,29 L-3,3 Z M3,2 L0,3 L-1,10 L-1,32 L2,34 L9,33 L10,31 L9,24 L9,8 L10,8 L10,2 Z " fill="#9C896D" transform="translate(180,255)"/>
<path d="M0,0 L16,0 L17,5 L11,3 L-2,4 L-10,5 L-34,5 L-35,32 L-39,30 L-38,28 L-37,28 L-36,7 L-35,4 L-12,1 Z " fill="#A7957A" transform="translate(244,232)"/>
<path d="M0,0 L5,4 L7,12 L10,14 L7,14 L7,69 L12,70 L9,72 L9,76 L7,76 L6,78 L4,76 L5,74 L4,9 L5,7 L3,7 L-1,2 Z " fill="#E8E1D8" transform="translate(98,130)"/>
<path d="M0,0 L4,4 L7,13 L9,22 L10,22 L10,63 L6,73 L5,73 L5,67 L7,63 L7,21 L5,21 L4,14 L0,2 Z " fill="#A89679" transform="translate(209,106)"/>
<path d="M0,0 L10,0 L20,2 L36,4 L39,13 L41,9 L41,17 L39,23 L35,18 L35,7 L33,6 L7,4 L-1,2 L-1,13 L-2,13 L-2,1 Z " fill="#9F8D71" transform="translate(69,233)"/>
<path d="M0,0 L5,1 L4,4 L5,6 L1,5 L0,4 L-6,6 L-22,5 L-22,6 L-42,7 L-49,8 L-47,9 L-45,16 L-48,17 L-52,11 L-54,9 L-52,5 L-50,4 L-30,3 L-3,3 L-3,1 Z " fill="#AC997D" transform="translate(156,213)"/>
<path d="M0,0 L3,3 L3,62 L1,64 L0,61 Z " fill="#A39074" transform="translate(115,141)"/>
<path d="M0,0 L4,0 L7,6 L5,15 L-4,15 L-6,13 L-4,13 L-2,2 L-5,1 Z " fill="#CBC1B3" transform="translate(240,273)"/>
<path d="M0,0 L6,2 L8,3 L9,7 L10,31 L10,44 L9,51 L8,51 L7,25 L6,21 L6,5 L4,5 L5,8 L3,8 L1,2 L-3,1 Z " fill="#E8E2D9" transform="translate(272,216)"/>
<path d="M0,0 L2,2 L3,9 L8,11 L8,12 L2,12 L0,11 L-1,9 L-1,45 L-3,41 L-3,2 Z " fill="#E2DACE" transform="translate(49,218)"/>
<path d="M0,0 L5,1 L18,8 L22,9 L29,9 L39,6 L39,9 L31,12 L20,12 L3,3 L-3,4 L0,13 L-2,13 L-5,6 L-5,2 Z " fill="#F0E9DF" transform="translate(266,299)"/>
<path d="M0,0 L2,1 L3,7 L3,21 L2,29 L6,28 L20,28 L17,31 L6,31 L2,32 L-2,31 L0,20 Z " fill="#A69377" transform="translate(163,55)"/>
<path d="M0,0 L2,1 L-1,4 L-2,10 L-2,32 L-3,37 L-6,37 L-7,33 L-5,33 L-5,6 L-4,2 Z " fill="#B0A087" transform="translate(273,224)"/>
<path d="M0,0 L1,0 L1,18 L-5,17 L-7,17 L-9,21 L-9,32 L-13,41 L-15,41 L-14,34 L-10,17 L-9,15 L-2,13 L-1,3 Z " fill="#B09E85" transform="translate(236,138)"/>
<path d="M0,0 L15,0 L23,1 L43,2 L45,4 L41,5 L32,5 L28,4 L15,4 L5,3 L0,4 Z " fill="#A49277" transform="translate(110,238)"/>
<path d="M0,0 L1,3 L0,7 L0,23 L2,31 L1,34 L-8,33 L-11,29 L-10,24 L-8,28 L-5,30 L-1,30 L-3,20 L-3,7 L-2,2 L0,2 Z " fill="#9E8B6F" transform="translate(92,254)"/>
<path d="M0,0 L17,1 L19,3 L15,4 L-11,6 L-7,2 Z " fill="#D1C9BD" transform="translate(83,205)"/>
<path d="M0,0 L1,2 L7,3 L7,4 L1,6 L-5,10 L-14,10 L-12,14 L-1,16 L-5,18 L-14,18 L-15,9 L-8,9 L-7,7 L-6,8 L-4,3 L-1,2 Z " fill="#9F8E74" transform="translate(122,111)"/>
<path d="M0,0 L2,1 L3,3 L-3,8 L-1,11 L8,12 L11,15 L8,15 L8,19 L4,18 L7,18 L7,15 L-1,15 L-6,10 L-5,5 L-3,2 L0,2 Z " fill="#AE9F88" transform="translate(148,173)"/>
<path d="M0,0 L2,1 L1,7 L5,9 L-1,9 L-2,7 L-6,9 L-8,11 L-19,13 L-18,9 L-6,5 Z " fill="#DED5C9" transform="translate(138,25)"/>
<path d="M0,0 L3,1 L1,6 L-2,9 L-13,10 L-10,12 L-17,12 L-20,11 L-20,9 L-22,8 L-18,7 L-9,7 L-2,4 Z " fill="#AB9A80" transform="translate(251,287)"/>
<path d="M0,0 L15,0 L20,2 L20,3 L-2,3 L-3,6 L-7,11 L-6,5 L-4,2 Z " fill="#A9987F" transform="translate(126,252)"/>
<path d="M0,0 L2,0 L3,11 L13,16 L12,19 L3,16 L-1,11 L-1,2 Z " fill="#AC9B81" transform="translate(141,195)"/>
<path d="M0,0 L4,1 L-4,5 L-30,6 L-39,5 L-39,4 L-5,2 Z " fill="#EFE8DD" transform="translate(136,317)"/>
<path d="M0,0 L1,3 L0,5 L-28,5 L-30,2 L-16,2 L-7,3 Z " fill="#D6CEC1" transform="translate(157,215)"/>
</svg>
