<?xml version="1.0" encoding="UTF-8"?>
<!-- Generator: visioncortex VTracer 0.6.12 -->
<svg xmlns:xlink="http://www.w3.org/1999/xlink" xmlns:sodipodi="http://sodipodi.sourceforge.net/DTD/sodipodi-0.0.dtd" xmlns:inkscape="http://www.inkscape.org/namespaces/inkscape" version="1.1" xmlns="http://www.w3.org/2000/svg" width="440" height="346">
<path d="M0,0 L440,0 L440,346 L0,346 Z M350,20 L344,23 L343,28 L341,31 L340,38 L340,62 L344,70 L352,75 L357,74 L358,70 L358,25 L355,21 Z M98,22 L93,23 L92,25 L92,79 L98,77 L99,74 L103,72 L110,67 L111,64 L112,30 L107,25 Z M55,121 L56,127 L136,127 L135,129 L58,130 L58,131 L391,131 L395,129 L394,127 L392,127 L393,121 Z M278,138 L273,146 L271,150 L271,216 L274,219 L297,220 L300,221 L300,218 L275,217 L274,213 L274,152 L277,143 L282,141 L308,140 L311,138 Z M165,138 L162,139 L132,140 L130,144 L129,220 L128,142 L127,142 L126,239 L126,242 L129,242 L128,247 L116,243 L113,243 L113,228 L107,224 L105,221 L111,218 L112,215 L112,203 L107,200 L98,198 L96,196 L107,195 L111,193 L112,189 L112,155 L94,154 L90,152 L102,147 L100,142 L93,139 L58,139 L54,141 L54,154 L52,154 L52,247 L48,249 L46,252 L47,256 L38,255 L32,260 L28,264 L26,268 L26,269 L20,270 L20,271 L29,272 L31,284 L36,291 L39,294 L40,297 L43,297 L44,296 L50,299 L52,299 L52,301 L46,300 L33,301 L33,304 L28,304 L28,305 L33,305 L34,307 L37,307 L47,308 L38,308 L41,314 L43,318 L45,317 L48,317 L50,317 L50,319 L48,320 L53,320 L54,318 L56,320 L57,318 L59,320 L61,318 L76,317 L87,317 L89,316 L93,317 L103,317 L105,317 L109,318 L107,320 L111,321 L112,317 L114,317 L115,321 L116,319 L117,321 L121,321 L122,319 L124,321 L125,319 L127,321 L135,321 L136,319 L138,321 L139,319 L140,321 L143,320 L142,318 L149,319 L150,323 L151,321 L152,323 L154,322 L163,322 L161,326 L164,326 L165,324 L175,324 L179,322 L179,325 L177,326 L180,326 L181,319 L184,316 L187,317 L194,305 L248,303 L249,306 L249,303 L254,308 L253,310 L255,312 L257,318 L259,318 L260,320 L262,321 L272,322 L273,324 L275,323 L274,321 L279,319 L281,318 L280,321 L284,321 L284,317 L286,317 L288,321 L290,318 L296,319 L308,319 L308,318 L297,318 L297,316 L314,318 L316,320 L317,318 L319,320 L320,318 L322,320 L324,318 L351,317 L373,317 L375,319 L376,318 L378,321 L379,319 L381,321 L381,317 L384,318 L387,321 L389,321 L390,319 L392,321 L392,317 L394,317 L395,319 L395,317 L397,317 L397,315 L401,314 L402,316 L405,311 L405,309 L413,307 L413,304 L417,300 L419,291 L419,282 L418,282 L418,290 L411,290 L412,282 L415,281 L415,279 L417,277 L417,273 L415,268 L411,264 L409,260 L405,259 L403,255 L396,247 L395,155 L394,142 L392,138 L350,138 L343,141 L339,145 L343,150 L342,152 L334,154 L333,157 L333,192 L338,194 L338,196 L353,196 L352,199 L340,200 L336,202 L334,206 L334,216 L338,219 L342,220 L354,220 L352,224 L335,225 L334,230 L352,236 L353,226 L363,225 L367,226 L368,248 L380,253 L386,254 L384,256 L384,260 L376,257 L375,259 L370,258 L368,256 L368,260 L361,260 L359,262 L353,262 L350,260 L348,261 L347,258 L346,260 L340,261 L339,257 L338,259 L335,256 L326,256 L324,259 L322,256 L322,260 L311,260 L311,256 L305,256 L303,258 L301,255 L291,256 L290,256 L288,255 L280,257 L280,259 L277,258 L274,258 L272,261 L266,261 L271,260 L267,258 L259,259 L257,257 L255,262 L246,264 L249,265 L247,271 L246,279 L244,281 L250,280 L250,282 L241,282 L232,281 L230,278 L228,281 L218,281 L215,278 L214,281 L213,278 L212,280 L210,278 L209,280 L207,278 L206,280 L204,278 L204,282 L200,282 L198,278 L194,277 L194,272 L202,272 L202,271 L189,271 L184,269 L183,263 L176,260 L175,230 L174,153 L172,153 L171,146 L169,148 L167,146 L166,140 L168,139 Z M248,142 L249,148 L251,152 L251,177 L250,180 L195,180 L191,176 L191,149 L189,146 L188,153 L188,181 L194,183 L252,183 L254,178 L254,148 L253,143 L251,146 Z M228,191 L224,194 L223,200 L224,216 L228,219 L237,219 L236,214 L236,193 L231,191 Z M211,192 L208,193 L208,214 L210,217 L206,219 L218,219 L221,210 L221,199 L223,198 L220,197 L219,192 Z M311,226 L309,227 L309,239 L311,240 L309,242 L309,245 L317,246 L317,226 Z " fill="#F6F6F6" transform="translate(0,0)"/>
<path d="M0,0 L35,0 L42,3 L44,8 L32,13 L36,15 L54,16 L54,50 L52,55 L49,56 L38,57 L40,59 L51,62 L54,64 L54,76 L52,80 L47,82 L51,87 L54,89 L54,103 L43,100 L33,96 L33,87 L24,86 L20,88 L20,115 L15,119 L13,121 L6,121 L4,119 L2,119 L2,116 L1,119 L-5,118 L-8,116 L-10,117 L-12,112 L-8,108 L-6,108 L-6,15 L-4,15 L-4,2 Z M24,14 L20,15 L20,56 L32,56 L34,50 L34,21 L33,17 L29,16 L29,14 Z " fill="#F5F5F5" transform="translate(58,139)"/>
<path d="M0,0 L42,0 L44,4 L45,17 L46,109 L55,119 L55,120 L46,119 L46,116 L36,117 L19,111 L18,110 L17,88 L8,87 L3,88 L2,98 L-16,92 L-15,87 L2,86 L4,82 L-8,82 L-15,79 L-16,78 L-16,68 L-13,63 L-10,62 L2,61 L5,57 L17,57 L18,16 L9,16 L2,17 L3,54 L4,57 L-12,57 L-17,54 L-17,19 L-16,16 L-8,14 L-7,11 L-11,6 L-4,1 Z " fill="#FAFAFA" transform="translate(350,138)"/>
<path d="M0,0 L31,0 L34,8 L37,11 L37,74 L32,77 L14,77 L13,89 L13,112 L16,113 L17,118 L15,120 L12,118 L11,120 L5,120 L1,119 L-4,120 L-20,120 L-20,117 L-8,118 L-7,114 L-5,114 L-5,108 L-3,105 L-1,101 L1,102 L1,100 L-2,99 L-2,4 Z " fill="#F9F9F9" transform="translate(133,141)"/>
<path d="M0,0 L5,0 L5,3 L2,7 L0,9 L-1,16 L-5,16 L-8,17 L-8,20 L-13,22 L-20,24 L-22,26 L-42,25 L-42,27 L-59,27 L-59,25 L-61,26 L-78,26 L-78,24 L-90,23 L-91,20 L-93,19 L-94,23 L-95,19 L-103,20 L-104,24 L-107,22 L-113,24 L-114,25 L-115,27 L-126,27 L-126,25 L-127,27 L-129,27 L-130,26 L-130,27 L-143,27 L-143,23 L-151,21 L-152,21 L-153,18 L-158,19 L-157,14 L-158,10 L-157,9 L-64,3 L0,3 Z " fill="#659372" transform="translate(412,274)"/>
<path d="M0,0 L155,0 L154,2 L143,3 L157,4 L157,6 L153,6 L152,9 L148,9 L148,11 L145,11 L145,15 L114,15 L113,12 L100,11 L96,11 L93,11 L91,11 L91,9 L82,10 L80,12 L79,11 L42,11 L41,14 L39,15 L19,15 L19,13 L14,11 L10,10 L10,12 L6,11 L5,6 L0,1 Z " fill="#5A8C69" transform="translate(33,286)"/>
<path d="M0,0 L5,0 L5,3 L14,4 L14,6 L18,6 L20,11 L24,14 L24,16 L-140,15 L-139,13 L-135,11 L-129,9 L-119,9 L-117,4 L-114,4 L-111,5 L-111,3 L-101,1 L-101,4 L-100,2 L-90,1 L-87,4 L-86,2 L-80,2 L-80,6 L-69,6 L-68,2 L-67,5 L-64,2 L-56,2 L-53,5 L-51,3 L-51,7 L-45,6 L-43,4 L-43,7 L-40,6 L-38,8 L-31,8 L-29,6 L-23,6 L-22,2 L-20,4 L-16,5 L-14,3 L-7,6 L-6,2 Z " fill="#5B8B69" transform="translate(391,254)"/>
<path d="M0,0 L1,2 L3,2 L4,79 L5,109 L10,114 L9,117 L0,114 L-11,113 L-15,112 L-16,110 L-18,110 L-22,106 L-24,102 L-24,73 L-22,68 L-5,67 L0,66 Z " fill="#F0F0EF" transform="translate(171,151)"/>
<path d="M0,0 L108,0 L110,7 L110,9 L107,9 L107,11 L-34,11 L-33,8 L-29,4 L28,4 L28,2 L14,2 L0,1 Z " fill="#377149" transform="translate(83,274)"/>
<path d="M0,0 L6,1 L9,2 L10,8 L10,11 L30,18 L30,4 L31,4 L31,19 L34,20 L31,20 L31,29 L37,31 L39,32 L39,34 L44,35 L44,36 L33,35 L33,33 L30,33 L29,37 L28,35 L26,37 L25,35 L24,37 L18,37 L18,39 L10,40 L-1,40 L-7,39 L-7,36 L-9,37 L-8,33 L-5,29 L-4,3 Z " fill="#DADEDA" transform="translate(82,224)"/>
<path d="M0,0 L23,0 L81,1 L81,3 L79,4 L-1,4 L78,5 L76,11 L-60,11 L-64,8 L-70,6 L-70,5 L-5,4 L-4,1 Z " fill="#1D3927" transform="translate(111,300)"/>
<path d="M0,0 L18,1 L15,3 L7,3 L7,10 L6,11 L-110,11 L-119,9 L-119,8 L-127,6 L-127,5 L-50,4 L-47,1 Z " fill="#284332" transform="translate(395,300)"/>
<path d="M0,0 L2,3 L4,1 L6,5 L8,5 L9,3 L11,7 L24,8 L33,11 L33,9 L27,7 L31,5 L36,7 L37,14 L-83,13 L-79,7 L-76,5 L-74,3 L-73,4 L-71,2 L-70,6 L-66,7 L-47,7 L-47,5 L-41,5 L-40,2 L-39,3 L-37,1 L-36,3 L-35,1 L-32,2 L-34,2 L-34,5 L-19,5 L-18,3 L-16,2 L-15,4 L-13,2 L-12,4 L-10,2 L-9,4 L-3,5 L-2,1 L-1,3 Z " fill="#5E8C6B" transform="translate(147,256)"/>
<path d="M0,0 L5,0 L8,4 L8,46 L6,52 L1,51 L-6,46 L-9,39 L-9,15 L-7,6 L-2,1 Z " fill="#FAFAFA" transform="translate(349,23)"/>
<path d="M0,0 L7,0 L14,4 L16,8 L16,37 L13,44 L5,50 L0,52 L-1,50 L-1,2 Z " fill="#FAFAFA" transform="translate(94,25)"/>
<path d="M0,0 L96,0 L94,5 L92,7 L91,14 L88,13 L90,13 L90,10 L84,12 L76,12 L75,14 L72,13 L74,10 L65,10 L63,11 L62,9 L60,11 L60,7 L53,6 L54,9 L51,9 L50,7 L48,9 L47,7 L46,9 L37,9 L36,7 L34,9 L33,7 L32,9 L28,9 L27,7 L25,9 L25,5 L23,5 L21,9 L18,7 L20,6 L16,4 L0,2 Z " fill="#3B5243" transform="translate(89,312)"/>
<path d="M0,0 L166,0 L167,3 L162,3 L162,7 L114,7 L114,6 L130,5 L145,5 L145,3 L-1,3 Z " fill="#39734A" transform="translate(250,270)"/>
<path d="M0,0 L5,1 L7,4 L7,37 L6,40 L-2,40 L-6,38 L-7,35 L-7,5 L-4,1 Z " fill="#F7F7F7" transform="translate(360,154)"/>
<path d="M0,0 L116,0 L115,5 L48,5 L48,2 L38,4 L34,5 L30,4 L25,5 L21,5 L18,5 L15,5 L12,5 L5,3 L0,2 Z " fill="#FAFAFA" transform="translate(276,122)"/>
<path d="M0,0 L6,1 L8,2 L9,6 L9,35 L7,40 L-2,40 L-4,36 L-4,2 Z " fill="#F9F9F9" transform="translate(83,154)"/>
<path d="M0,0 L2,2 L37,2 L43,3 L63,3 L61,7 L-14,8 L-13,10 L-32,9 L-36,5 L-37,8 L-37,5 L-64,5 L-64,4 L-38,4 L-37,2 L-37,4 L-35,3 L-26,3 L-18,2 L-16,1 L-16,3 L-5,2 L-2,1 L-2,3 L0,3 Z " fill="#596E5E" transform="translate(285,298)"/>
<path d="M0,0 L39,0 L54,6 L50,8 L21,9 L-5,9 L-3,4 Z " fill="#F8F8F8" transform="translate(200,294)"/>
<path d="M0,0 L5,0 L1,2 L0,4 L38,4 L45,7 L52,7 L52,11 L47,11 L47,9 L41,8 L2,8 L-3,16 L23,16 L23,17 L-4,18 L-11,30 L-14,29 L-14,24 L-11,24 L-11,20 L-9,20 L-10,17 L-6,16 L-6,14 L-20,14 L-20,10 L-17,10 L-17,8 L-13,7 L-12,5 L-8,5 L-8,2 Z " fill="#CBD0CB" transform="translate(198,287)"/>
<path d="M0,0 L146,0 L146,1 L99,4 L-1,3 Z " fill="#356C46" transform="translate(249,274)"/>
<path d="M0,0 L26,0 L29,1 L28,4 L82,5 L82,6 L25,7 L24,8 L137,9 L137,10 L2,10 L0,3 Z " fill="#B5C9BB" transform="translate(29,272)"/>
<path d="M0,0 L9,2 L22,2 L22,3 L14,3 L13,5 L-120,4 L-118,1 Z " fill="#3E774E" transform="translate(180,269)"/>
<path d="M0,0 L338,0 L337,4 L337,1 L2,1 L1,4 Z " fill="#383737" transform="translate(55,121)"/>
<path d="M0,0 L84,0 L82,3 L81,2 L80,4 L1,4 Z " fill="#FAFAFA" transform="translate(57,122)"/>
<path d="M0,0 L2,0 L2,3 L4,3 L5,1 L6,5 L13,5 L14,2 L15,4 L15,7 L15,8 L9,10 L18,11 L18,12 L-29,13 L-32,13 L-30,9 L-26,5 L1,4 Z " fill="#719A7D" transform="translate(58,255)"/>
<path d="M0,0 L37,0 L41,1 L40,6 L51,6 L51,7 L37,7 L33,6 L30,9 L29,5 L27,5 L26,9 L23,8 L24,6 L19,8 L17,9 L18,12 L16,12 L14,10 L5,9 L2,8 L2,6 L0,6 L-1,1 Z " fill="#384F3F" transform="translate(257,312)"/>
<path d="M0,0 L84,0 L84,2 L86,2 L85,5 L81,5 L80,1 L79,5 L67,5 L66,1 L65,5 L53,5 L53,2 L45,2 L35,4 L8,4 L4,4 L0,3 Z " fill="#D0DDD4" transform="translate(192,122)"/>
<path d="M0,0 L3,1 L106,2 L106,3 L-2,4 L155,5 L155,6 L-6,7 L-5,2 Z M-7,7 Z " fill="#FAFAFA" transform="translate(254,264)"/>
<path d="M0,0 L11,0 L13,2 L12,7 L16,8 L16,13 L24,15 L24,17 L14,18 L7,15 L6,11 L0,11 L-7,8 L-11,5 L-10,1 Z " fill="#F0F1F0" transform="translate(243,284)"/>
<path d="M0,0 L9,0 L10,3 L11,0 L44,0 L44,1 L14,2 L14,4 L45,4 L45,5 L26,5 L26,7 L45,6 L45,8 L19,9 L13,8 L-11,8 L-12,4 L-6,3 L-2,2 L0,4 Z " fill="#F7F8F7" transform="translate(308,293)"/>
<path d="M0,0 L27,0 L43,1 L45,4 L41,5 L-5,5 L-5,7 L-11,6 L-13,7 L-13,5 L-18,5 L-18,4 L-13,4 L-13,1 Z " fill="#4E6355" transform="translate(46,300)"/>
<path d="M0,0 L106,0 L106,1 L78,3 L48,3 L25,4 L10,3 L0,1 Z " fill="#1C3826" transform="translate(294,312)"/>
<path d="M0,0 L1,0 L1,9 L-1,18 L-6,23 L-12,25 L-16,28 L-16,21 L-8,20 L-21,19 L-21,17 L-17,14 L-16,11 L-16,8 L-12,7 L-10,6 L0,8 Z " fill="#C2C8C2" transform="translate(418,282)"/>
<path d="M0,0 L86,0 L86,1 L39,4 L23,4 L4,3 L0,3 L-3,2 Z " fill="#306240" transform="translate(247,278)"/>
<path d="M0,0 L2,1 L4,6 L18,7 L18,11 L31,12 L31,13 L-17,13 L-16,10 L-12,10 L-12,8 L-8,8 L-7,6 L-7,8 L0,7 Z " fill="#A8B0A9" transform="translate(215,278)"/>
<path d="M0,0 L6,2 L6,21 L5,24 L-1,25 L-3,22 L-4,14 L-4,4 Z " fill="#F7F7F7" transform="translate(229,192)"/>
<path d="M0,0 L68,0 L71,1 L71,3 L-4,3 L-2,1 Z " fill="#C8C2BF" transform="translate(320,128)"/>
<path d="M0,0 L3,2 L1,2 L3,9 L4,10 L6,8 L7,13 L6,79 L1,81 L-16,81 L-17,86 L-18,115 L-19,115 L-20,87 L-18,80 L0,79 L4,77 L4,14 L0,10 L-1,3 L-33,4 L-33,2 L-3,1 Z " fill="#4E4C4A" transform="translate(165,138)"/>
<path d="M0,0 L94,0 L93,3 L89,2 L85,3 L70,3 L66,2 L62,3 L58,2 L53,3 L49,3 L46,3 L43,3 L40,3 L37,3 L33,2 L28,3 L24,2 L20,3 L16,2 L11,3 L9,3 L1,3 Z " fill="#3F7950" transform="translate(136,127)"/>
<path d="M0,0 L6,1 L7,11 L6,22 L1,23 L-2,21 L-3,18 L-3,1 Z " fill="#F7F7F7" transform="translate(212,193)"/>
<path d="M0,0 L12,0 L12,2 L35,2 L32,6 L31,8 L33,9 L12,9 L15,7 L14,6 L-2,5 Z " fill="#90B19A" transform="translate(75,296)"/>
<path d="M0,0 L129,0 L129,1 L9,2 L17,4 L17,5 L10,6 L-15,5 L-15,4 L3,3 L0,2 Z " fill="#EBE9E9" transform="translate(272,307)"/>
<path d="M0,0 L51,0 L50,4 L37,4 L36,1 L36,4 L23,4 L22,1 L22,4 L12,4 L8,4 L0,4 Z " fill="#C2D3C7" transform="translate(141,122)"/>
<path d="M0,0 L2,0 L3,63 L4,67 L29,68 L29,71 L26,70 L3,69 L0,66 Z " fill="#686260" transform="translate(271,150)"/>
<path d="M0,0 L124,0 L126,4 L125,9 L111,9 L111,8 L123,7 L123,5 L121,4 L123,4 L122,2 L0,1 Z " fill="#FAFAFA" transform="translate(69,273)"/>
<path d="M0,0 L1,2 L147,2 L147,3 L1,4 L1,7 L-1,7 L-1,1 Z M1,5 Z " fill="#FAFAFA" transform="translate(248,271)"/>
<path d="M0,0 L1,2 L7,0 L11,1 L15,0 L19,1 L24,0 L28,0 L31,0 L34,0 L37,0 L40,0 L44,1 L49,0 L53,1 L57,0 L61,1 L66,0 L73,2 L74,0 L79,2 L79,3 L-7,3 L-3,1 L0,2 Z " fill="#C8C2BF" transform="translate(140,128)"/>
<path d="M0,0 L9,1 L14,3 L14,11 L12,14 L8,14 L8,12 L2,10 L0,9 Z " fill="#EFEEED" transform="translate(113,244)"/>
<path d="M0,0 L14,0 L26,2 L28,4 L18,4 L12,3 L12,4 L-2,4 L-15,5 L-17,7 L-18,5 L-20,7 L-21,5 L-23,7 L-27,6 L-25,6 L-25,4 L-27,3 L-26,2 L-16,1 L-5,1 Z " fill="#7E7E75" transform="translate(75,313)"/>
<path d="M0,0 L7,0 L11,1 L11,3 L51,4 L51,5 L37,6 L32,7 L19,7 L7,8 L7,10 L5,10 L1,2 Z " fill="#2D4434" transform="translate(38,308)"/>
<path d="M0,0 L9,0 L9,2 L13,0 L14,3 L16,4 L16,6 L-22,6 L-22,5 L-6,4 L-28,3 L-28,2 L-1,1 Z " fill="#F0F2F0" transform="translate(115,295)"/>
<path d="M0,0 L135,1 L135,2 L-3,2 Z " fill="#E6E8E6" transform="translate(49,310)"/>
<path d="M0,0 L6,0 L6,20 L-2,19 L-2,16 L0,14 L-2,13 L-2,1 Z " fill="#89AC93" transform="translate(311,226)"/>
<path d="M0,0 L139,0 L139,1 L0,1 Z " fill="#FAFAFA" transform="translate(48,285)"/>
<path d="M0,0 L1,3 L4,4 L1,4 L1,6 L3,7 L1,7 L1,9 L3,10 L1,10 L1,20 L3,21 L4,24 L2,24 L0,31 L-1,31 L-2,36 L-3,36 L-3,28 L-2,28 L-1,23 L-4,22 L-4,5 L-2,1 Z " fill="#6E7068" transform="translate(130,219)"/>
<path d="M0,0 L1,2 L3,2 L4,0 L10,0 L10,3 L77,3 L78,1 L78,3 L80,4 L81,6 L74,5 L11,4 L10,6 L10,4 L8,4 L7,6 L3,5 L-2,6 L-3,3 Z " fill="#406049" transform="translate(314,124)"/>
<path d="M0,0 L10,0 L52,3 L52,4 L-3,4 Z " fill="#2E5D3C" transform="translate(59,273)"/>
<path d="M0,0 L3,1 L1,1 L1,4 L13,3 L14,0 L17,1 L15,1 L15,4 L27,3 L28,0 L31,1 L29,1 L29,4 L33,3 L34,1 L40,1 L40,3 L42,3 L43,1 L43,4 L40,5 L38,7 L34,6 L29,7 L25,7 L22,7 L19,7 L16,7 L13,7 L9,6 L4,7 L0,6 L-2,7 L-3,4 L-1,3 Z " fill="#405F49" transform="translate(244,123)"/>
<path d="M0,0 L8,0 L9,5 L12,7 L10,7 L10,18 L7,27 L-5,27 L-1,25 L-3,22 L-3,1 Z M1,1 L-2,2 L-2,19 L0,23 L5,24 L7,23 L8,11 L7,2 Z " fill="#77706C" transform="translate(211,192)"/>
<path d="M0,0 L118,0 L118,1 L0,1 Z " fill="#B5C9BB" transform="translate(62,269)"/>
<path d="M0,0 L58,0 L60,2 L2,2 Z " fill="#6D6663" transform="translate(192,181)"/>
<path d="M0,0 L2,3 L11,4 L40,4 L40,5 L13,7 L-12,7 L-13,3 L-2,3 Z " fill="#1F3C29" transform="translate(230,278)"/>
<path d="M0,0 L1,2 L-112,2 L-112,1 Z " fill="#FAFAFA" transform="translate(401,310)"/>
<path d="M0,0 L7,1 L7,2 L-1,4 L-3,9 L-5,11 L-5,9 L-13,11 L-31,11 L-44,12 L-55,12 L-55,11 L-47,11 L-47,9 L-34,9 L-4,7 L-2,3 Z " fill="#86837B" transform="translate(406,305)"/>
<path d="M0,0 L36,0 L35,2 L12,3 L12,5 L-2,5 L-9,4 L-9,3 L-1,2 Z " fill="#366A45" transform="translate(29,267)"/>
<path d="M0,0 L6,1 L8,2 L8,25 L9,28 L0,28 L-4,25 L-5,8 L-3,2 Z M1,1 L-3,5 L-3,15 L-1,25 L3,26 L6,25 L7,22 L7,3 Z " fill="#5E5958" transform="translate(228,191)"/>
<path d="M0,0 L4,1 L5,5 L9,5 L10,1 L11,3 L13,1 L14,3 L16,1 L17,3 L19,1 L20,8 L13,9 L9,8 L-1,8 L-2,5 Z " fill="#3F734F" transform="translate(195,277)"/>
<path d="M0,0 L9,3 L5,5 L-4,3 L-4,53 L-1,53 L1,54 L-4,57 L-6,57 L-6,3 L-5,1 Z " fill="#484544" transform="translate(98,22)"/>
<path d="M0,0 L2,2 L4,0 L6,0 L7,2 L9,0 L10,2 L12,0 L13,2 L15,0 L16,2 L18,0 L20,0 L22,3 L21,6 L12,6 L8,6 L1,6 L-3,5 L-5,6 L-5,3 L-1,2 Z M22,0 Z " fill="#3C5944" transform="translate(289,124)"/>
<path d="M0,0 Z M-51,0 L-48,0 L-45,0 L-42,0 L-39,0 L-35,1 L-30,0 L-26,1 L-20,2 L-19,0 L-16,0 L-16,2 L-7,1 L-2,0 L-1,3 L-54,3 Z M-1,1 Z " fill="#C8C2BF" transform="translate(317,128)"/>
<path d="M0,0 L3,1 L-2,5 L-4,6 L-29,6 L-29,4 L-8,4 L-30,3 L-30,2 L-2,1 Z " fill="#FAFAFA" transform="translate(399,295)"/>
<path d="M0,0 L10,1 L16,1 L17,3 L0,7 L-4,8 L-16,7 L-14,5 L-3,4 L-3,2 L0,2 Z " fill="#FAFAFA" transform="translate(190,283)"/>
<path d="M0,0 L3,4 L5,1 L6,6 L6,36 L4,40 L2,40 L3,35 L3,10 L0,4 Z " fill="#726B68" transform="translate(248,142)"/>
<path d="M0,0 L33,0 L30,2 L4,3 L-1,5 L-4,14 L-6,10 L-1,1 Z " fill="#6B6563" transform="translate(278,138)"/>
<path d="M0,0 Z M-40,0 L-37,0 L-34,0 L-31,0 L-28,0 L-24,1 L-19,0 L-15,1 L-11,0 L-7,1 L-2,0 L-1,3 L-45,3 L-41,1 Z M-1,1 Z " fill="#C8C2BF" transform="translate(264,128)"/>
<path d="M0,0 L85,0 L85,1 L0,1 Z " fill="#FAFAFA" transform="translate(89,289)"/>
<path d="M0,0 L84,0 L84,1 L0,1 Z " fill="#E6E8E6" transform="translate(103,307)"/>
<path d="M0,0 L78,1 L78,2 L-1,2 Z " fill="#E6E8E6" transform="translate(110,303)"/>
<path d="M0,0 L84,0 L84,1 L0,1 Z " fill="#FAFAFA" transform="translate(249,277)"/>
<path d="M0,0 L5,3 L6,1 L9,1 L9,3 L11,3 L12,1 L12,3 L14,3 L15,1 L15,3 L17,3 L18,1 L20,1 L20,3 L22,3 L23,1 L23,3 L25,3 L26,1 L26,3 L28,3 L29,1 L29,3 L31,3 L32,1 L34,1 L34,3 L36,3 L37,1 L37,3 L39,4 L-14,4 L-14,3 L0,3 Z " fill="#38473C" transform="translate(191,123)"/>
<path d="M0,0 L2,3 L2,30 L6,35 L1,36 L-1,35 L-1,7 Z " fill="#766F6C" transform="translate(189,146)"/>
<path d="M0,0 L79,1 L79,2 L0,2 Z " fill="#38473C" transform="translate(56,125)"/>
<path d="M0,0 L5,1 L8,5 L8,50 L6,54 L6,7 L4,4 L-5,5 L-6,3 Z " fill="#53504E" transform="translate(350,20)"/>
<path d="M0,0 L32,0 L30,4 L28,5 L25,4 L11,3 L11,1 L0,1 Z " fill="#8BAB94" transform="translate(30,269)"/>
<path d="M0,0 L1,0 L1,78 L0,78 Z M-1,78 Z " fill="#6E7068" transform="translate(127,142)"/>
<path d="M0,0 L1,3 L0,77 L-1,77 L-1,2 Z " fill="#6E7068" transform="translate(131,142)"/>
<path d="M0,0 L75,0 L75,1 L0,1 Z " fill="#C8C2BF" transform="translate(58,130)"/>
<path d="M0,0 L18,0 L17,4 L15,5 L0,4 Z " fill="#6E9779" transform="translate(32,281)"/>
<path d="M0,0 L9,1 L9,40 L8,42 L6,41 L7,38 L7,5 L5,2 L-3,3 L-5,6 L-7,6 L-7,2 Z " fill="#615C5A" transform="translate(359,153)"/>
<path d="M0,0 L1,0 L2,33 L13,35 L13,36 L3,37 L1,39 L1,37 L-14,37 L-14,36 L2,36 L0,33 Z " fill="#534F4D" transform="translate(352,159)"/>
<path d="M0,0 L3,0 L4,3 L6,3 L7,1 L7,3 L9,3 L10,1 L10,3 L12,3 L13,1 L18,1 L18,3 L26,3 L26,0 L29,1 L27,1 L27,3 L40,3 L40,4 L-2,4 L0,3 Z M40,0 L43,1 L41,1 L40,3 Z " fill="#38473C" transform="translate(137,123)"/>
<path d="M0,0 L43,0 L43,1 L5,2 L9,4 L8,7 L-1,4 Z " fill="#FAFAFA" transform="translate(260,293)"/>
<path d="M0,0 L4,1 L19,2 L18,6 L5,6 L-1,3 Z " fill="#FAFAFA" transform="translate(129,295)"/>
<path d="M0,0 L3,3 L4,5 L10,6 L10,7 L-15,7 L-11,3 L-2,4 Z " fill="#407750" transform="translate(49,252)"/>
<path d="M0,0 L13,0 L30,2 L26,4 L23,6 L22,4 L20,6 L19,4 L17,6 L15,4 L-2,2 Z " fill="#8D8A82" transform="translate(298,314)"/>
<path d="M0,0 L2,2 L12,1 L14,3 L9,4 L15,5 L15,6 L-3,8 L-8,9 L-11,7 L-2,5 Z " fill="#91998B" transform="translate(257,257)"/>
<path d="M0,0 L5,0 L1,2 L-3,3 L-2,37 L-1,40 L8,41 L8,42 L-4,42 L-4,1 Z " fill="#4A4746" transform="translate(82,153)"/>
<path d="M0,0 L7,0 L6,4 L4,4 L3,7 L-1,6 L-6,7 L-7,1 Z " fill="#6A8A73" transform="translate(237,123)"/>
<path d="M0,0 L17,0 L17,2 L1,3 L-14,3 L-18,1 Z " fill="#B2A9A4" transform="translate(342,314)"/>
<path d="M0,0 L66,0 L66,1 L0,1 Z " fill="#FAFAFA" transform="translate(124,277)"/>
<path d="M0,0 L22,0 L22,2 L20,2 L19,4 L19,2 L17,2 L16,6 L15,4 L13,6 L10,5 L9,3 L6,2 L5,6 L4,4 L2,6 L1,3 L-1,4 L-2,1 Z " fill="#314737" transform="translate(375,315)"/>
<path d="M0,0 L18,0 L23,2 L23,3 L3,3 L3,5 L1,4 L-1,1 Z " fill="#1C3826" transform="translate(254,308)"/>
<path d="M0,0 L5,1 L7,6 L6,38 L3,43 L3,40 L4,36 L4,7 L3,3 L0,2 Z " fill="#736F6D" transform="translate(105,26)"/>
</svg>
