<?xml version="1.0" encoding="UTF-8"?>
<!-- Generator: visioncortex VTracer 0.6.12 -->
<svg xmlns:xlink="http://www.w3.org/1999/xlink" xmlns:sodipodi="http://sodipodi.sourceforge.net/DTD/sodipodi-0.0.dtd" xmlns:inkscape="http://www.inkscape.org/namespaces/inkscape" version="1.1" xmlns="http://www.w3.org/2000/svg" width="294" height="344">
<path d="M0,0 L294,0 L294,344 L0,344 Z M63,20 L61,22 L62,24 L56,26 L46,31 L44,36 L46,36 L48,45 L52,46 L55,55 L58,59 L60,59 L61,66 L58,67 L58,70 L54,71 L54,73 L51,74 L52,78 L49,77 L44,82 L37,92 L36,92 L36,97 L37,98 L34,115 L30,126 L28,131 L28,124 L26,126 L22,141 L21,158 L21,173 L23,188 L24,188 L27,204 L30,212 L32,218 L34,222 L37,229 L35,229 L34,235 L40,246 L44,248 L44,250 L50,252 L53,256 L53,259 L60,261 L59,263 L62,266 L74,270 L76,270 L68,286 L64,292 L55,304 L49,314 L48,319 L50,323 L57,324 L62,317 L66,315 L70,307 L80,291 L87,281 L93,279 L99,282 L101,282 L101,284 L105,285 L105,283 L114,286 L109,286 L113,289 L123,291 L136,292 L159,292 L173,291 L177,289 L175,288 L185,285 L190,286 L194,284 L194,282 L204,280 L217,298 L220,298 L221,302 L227,312 L234,320 L239,323 L244,321 L245,314 L235,299 L230,294 L222,280 L219,276 L222,267 L230,268 L232,266 L231,265 L241,257 L252,246 L259,235 L259,222 L261,219 L263,220 L264,216 L267,215 L270,208 L274,190 L274,182 L275,178 L275,154 L273,141 L271,143 L268,128 L267,120 L263,106 L262,106 L262,97 L259,92 L255,91 L248,81 L245,74 L242,74 L242,71 L239,71 L240,64 L247,57 L248,51 L250,51 L251,46 L255,45 L256,38 L255,33 L251,33 L250,30 L242,28 L241,24 L235,23 L233,27 L228,30 L228,35 L225,36 L221,43 L217,50 L217,52 L203,52 L207,55 L211,57 L182,45 L178,44 L181,42 L172,40 L145,40 L145,38 L138,38 L122,40 L115,42 L111,44 L116,45 L108,47 L101,47 L104,48 L104,50 L99,50 L96,52 L93,51 L86,52 L83,44 L81,44 L80,39 L76,33 L74,32 L72,25 L69,25 L68,21 Z " fill="#F8F8F6" transform="translate(0,0)"/>
<path d="M0,0 L29,0 L42,2 L53,6 L69,11 L81,17 L84,19 L84,21 L95,22 L99,25 L98,27 L102,29 L115,40 L121,49 L125,50 L125,56 L122,56 L123,65 L128,77 L132,89 L134,99 L135,103 L136,124 L135,141 L131,160 L123,178 L122,182 L122,193 L119,200 L110,210 L103,217 L96,222 L97,224 L93,225 L87,224 L73,232 L58,239 L59,241 L53,243 L53,240 L29,245 L20,246 L-2,245 L-18,242 L-30,240 L-30,242 L-34,240 L-34,238 L-51,230 L-60,224 L-68,225 L-73,223 L-76,219 L-76,217 L-82,216 L-82,213 L-86,208 L-90,202 L-96,193 L-97,186 L-99,177 L-103,164 L-108,147 L-110,133 L-110,110 L-106,88 L-104,79 L-102,79 L-100,73 L-97,67 L-97,56 L-94,49 L-87,39 L-81,33 L-81,30 L-76,29 L-72,26 L-62,23 L-46,14 L-40,11 L-31,7 L-15,3 Z M6,5 L1,6 L-1,11 L-1,25 L0,29 L15,28 L14,25 L7,25 L7,19 L8,24 L15,24 L12,21 L12,19 L14,17 L8,13 L6,13 L6,10 L12,9 L14,8 L15,10 L15,8 L17,8 L17,6 L13,5 Z M-18,9 L-20,11 L-23,16 L-21,22 L-22,28 L-21,30 L-26,28 L-32,26 L-33,22 L-36,20 L-41,19 L-43,21 L-43,38 L-41,44 L-38,43 L-34,38 L-30,36 L-22,36 L-23,32 L-17,33 L-15,27 L-15,23 L-5,20 L-6,13 L-9,9 Z M36,8 L34,10 L29,26 L29,28 L35,30 L36,28 L37,32 L44,31 L45,30 L47,36 L51,35 L53,31 L53,23 L55,23 L57,15 L52,12 L49,12 L49,16 L46,16 L43,19 L43,12 L42,9 Z M68,22 L57,30 L57,32 L54,33 L52,38 L57,40 L60,38 L65,39 L66,46 L71,48 L74,36 L75,24 L71,22 Z M83,32 L79,44 L76,51 L79,52 L81,49 L85,48 L85,46 L94,44 L94,41 L86,42 L86,33 Z M6,33 L-10,36 L-25,41 L-29,43 L-29,45 L-34,46 L-40,50 L-44,56 L-44,59 L-46,59 L-50,64 L-47,64 L-48,68 L-49,69 L-51,65 L-55,68 L-56,71 L-60,74 L-60,76 L-62,76 L-67,82 L-66,84 L-66,86 L-69,86 L-74,97 L-76,106 L-76,137 L-72,153 L-64,167 L-56,174 L-54,178 L-47,185 L-39,196 L-29,202 L-18,207 L-9,209 L-9,207 L-2,208 L-4,211 L6,212 L24,212 L40,209 L52,203 L63,197 L61,194 L64,190 L64,188 L58,185 L57,183 L61,182 L62,187 L67,189 L70,189 L77,181 L90,168 L96,158 L97,149 L99,149 L101,142 L101,108 L97,95 L95,85 L91,78 L83,72 L73,61 L71,61 L70,56 L69,54 L67,54 L66,50 L64,50 L62,47 L59,48 L54,45 L55,41 L50,40 L32,35 L23,33 Z M-66,35 L-67,44 L-64,51 L-60,52 L-60,54 L-51,55 L-45,52 L-44,43 L-48,42 L-49,40 L-51,41 L-51,47 L-59,47 L-60,41 L-55,36 L-59,38 L-65,42 L-64,36 L-62,35 Z M102,165 L99,167 L99,170 L106,173 L116,177 L119,171 L121,169 L121,166 L116,166 L115,170 L109,169 L104,167 Z M95,182 L92,184 L93,191 L101,193 L103,188 L101,183 Z M-48,194 L-50,197 L-50,195 L-55,197 L-61,201 L-61,203 L-65,202 L-68,202 L-69,207 L-66,209 L-60,209 L-56,210 L-56,216 L-53,220 L-50,220 L-44,200 L-46,196 Z M63,203 L56,205 L53,208 L53,210 L49,211 L50,214 L56,214 L58,219 L63,227 L67,226 L67,219 L63,210 L65,203 Z M-36,206 L-41,210 L-43,219 L-41,226 L-39,226 L-37,230 L-30,230 L-27,229 L-27,227 L-20,225 L-22,221 L-24,215 L-22,214 L-24,209 L-28,206 Z M-43,62 Z M-44,63 Z M-45,64 Z M-46,65 Z M-52,67 Z M-53,68 Z M-54,69 Z M-51,70 Z M-52,71 Z M-53,72 Z M-54,73 Z M-55,74 Z M-56,75 Z M-57,76 Z M-58,77 Z M-59,78 Z M-60,79 Z M-61,80 Z M-62,81 Z " fill="#F7F0ED" transform="translate(135,43)"/>
<path d="M0,0 L6,2 L13,11 L19,15 L22,16 L26,20 L31,22 L46,25 L53,28 L51,43 L67,44 L72,47 L71,50 L75,49 L82,49 L81,54 L74,55 L69,56 L66,58 L59,57 L58,54 L53,57 L49,58 L41,58 L41,60 L36,61 L36,62 L24,65 L20,71 L26,79 L35,94 L35,95 L27,95 L26,100 L17,100 L17,104 L8,103 L-13,102 L-13,100 L-21,100 L-31,96 L-30,93 L-16,86 L-20,85 L-21,79 L-19,78 L-9,77 L-11,76 L-17,77 L-20,75 L-20,73 L-18,72 L-19,66 L-24,65 L-28,65 L-32,71 L-35,71 L-34,67 L-38,67 L-36,71 L-33,73 L-37,78 L-39,82 L-42,85 L-42,87 L-47,88 L-52,83 L-57,78 L-55,73 L-51,71 L-63,69 L-67,67 L-68,62 L-48,57 L-44,56 L-44,54 L-53,57 L-71,57 L-71,55 L-74,54 L-70,54 L-70,52 L-53,50 L-59,50 L-59,49 L-72,49 L-76,45 L-70,44 L-78,43 L-79,40 L-69,38 L-49,38 L-50,31 L-51,27 L-36,23 L-23,19 L-15,14 L-14,12 L-17,11 L-9,9 L-3,2 Z M-5,11 L-18,21 L-29,26 L-25,29 L-19,27 L-11,23 L-11,21 L-6,19 L-4,15 Z M6,22 L9,26 L11,25 L14,27 L11,29 L25,36 L23,38 L29,39 L34,38 L30,37 L30,34 L35,34 L35,33 L26,30 L21,27 L18,26 L14,23 L12,22 Z M-33,27 L-42,29 L-45,34 L-36,34 L-29,31 L-29,28 Z " fill="#E7E8EA" transform="translate(146,147)"/>
<path d="M0,0 L24,0 L29,1 L33,6 L36,9 L36,11 L45,11 L43,12 L43,14 L51,15 L49,21 L42,30 L38,36 L33,42 L27,52 L23,48 L22,46 L11,45 L11,49 L7,47 L-3,31 L-13,14 L-13,12 L-7,7 L-5,5 L-3,1 Z " fill="#F9F9F9" transform="translate(130,101)"/>
<path d="M0,0 L5,5 L12,16 L17,24 L26,40 L28,43 L31,44 L30,47 L15,52 L4,54 L3,56 L-6,57 L-8,60 L-6,66 L-8,66 L-8,68 L-19,68 L-27,57 L-30,54 L-32,48 L-28,46 L-26,42 L-19,36 L-11,38 L-8,40 L-1,39 L-1,37 L1,37 L1,34 L-9,35 L-14,33 L-13,25 L-11,25 L-8,15 L-4,3 Z " fill="#F5F5F6" transform="translate(101,115)"/>
<path d="M0,0 L1,0 L2,11 L5,15 L10,20 L16,27 L16,44 L18,51 L22,52 L24,56 L28,57 L27,62 L24,63 L6,55 L7,52 L-4,51 L-20,46 L-28,43 L-23,34 L-16,24 L-10,14 L-3,5 Z " fill="#F9F9F9" transform="translate(194,120)"/>
<path d="M0,0 L5,1 L6,5 L9,5 L11,12 L16,17 L18,20 L18,24 L20,24 L23,32 L32,31 L35,31 L36,30 L41,30 L38,32 L32,35 L20,41 L10,47 L-2,51 L-7,54 L-9,53 L-9,51 L-5,50 L-4,47 L-2,45 L-3,39 L-5,39 L-9,33 L-11,26 L-15,25 L-17,16 L-19,16 L-17,11 L-3,4 L-1,4 L-2,1 Z M-11,53 L-9,54 L-9,57 L-11,58 L-12,54 Z " fill="#F7F2E5" transform="translate(63,20)"/>
<path d="M0,0 L6,1 L7,5 L16,8 L16,10 L20,10 L21,17 L20,22 L16,23 L15,28 L13,28 L12,34 L5,41 L4,48 L7,48 L7,51 L10,51 L12,55 L10,57 L0,48 L-2,47 L-3,44 L-8,43 L-14,42 L-16,41 L-16,39 L-20,37 L-23,34 L-32,30 L-28,29 L-18,29 L-16,23 L-11,16 L-9,12 L-7,12 L-7,7 L-2,4 Z " fill="#F8F5EB" transform="translate(235,23)"/>
<path d="M0,0 L21,0 L21,2 L29,2 L38,4 L39,3 L46,3 L52,5 L53,8 L53,10 L56,13 L56,18 L54,19 L54,22 L46,25 L38,25 L35,23 L35,21 L31,20 L26,12 L21,5 L17,6 L16,10 L12,14 L3,15 L-4,10 L-4,7 L-5,11 L-11,13 L-13,13 L-14,15 L-12,16 L-15,21 L-17,21 L-19,25 L-24,28 L-26,28 L-27,22 L-30,22 L-31,20 L-31,14 L-29,10 L-19,6 L-17,6 L-17,4 Z " fill="#EDEAE2" transform="translate(137,79)"/>
<path d="M0,0 L3,1 L5,3 L7,4 L7,7 L9,7 L13,17 L7,17 L5,22 L5,24 L10,25 L12,27 L10,37 L12,38 L10,38 L15,46 L14,48 L12,48 L9,42 L8,37 L8,28 L4,29 L4,31 L2,31 L2,39 L1,39 L1,30 L-1,30 L-3,35 L-14,50 L-20,60 L-26,69 L-30,73 L-38,67 L-43,60 L-49,58 L-55,62 L-54,56 L-43,56 L-38,61 L-31,50 L-25,43 L-21,37 L-15,28 L-14,26 L-22,25 L-22,23 L-8,19 L-5,15 L-3,15 L-1,5 L-3,1 Z " fill="#E4E1D6" transform="translate(195,90)"/>
<path d="M0,0 L3,1 L-1,5 L-3,9 L-3,17 L0,17 L1,23 L5,24 L5,29 L7,29 L19,50 L26,61 L30,66 L29,70 L27,73 L18,74 L8,57 L3,48 L-3,39 L-10,28 L-13,23 L-13,21 L-19,23 L-22,25 L-22,23 L-25,22 L-21,18 L-19,18 L-18,13 L-13,7 L-7,4 L-4,4 L-4,2 Z M5,22 Z " fill="#F6F0DD" transform="translate(110,84)"/>
<path d="M0,0 L6,1 L17,8 L31,15 L30,17 L22,13 L16,15 L2,36 L-4,47 L-8,51 L-12,56 L-16,58 L-21,57 L-23,53 L-22,48 L-16,38 L-6,25 L4,7 L5,4 L-2,2 Z " fill="#F8F8F8" transform="translate(71,266)"/>
<path d="M0,0 Z M-2,1 L0,1 L-1,9 L5,18 L10,27 L15,32 L25,47 L24,54 L19,56 L12,51 L3,39 L0,34 L0,31 L-3,31 L-13,17 L-16,13 L-28,16 L-25,13 L-12,7 Z " fill="#F8F8F8" transform="translate(220,267)"/>
<path d="M0,0 L6,2 L9,3 L10,10 L7,10 L10,13 L18,12 L18,15 L8,16 L3,18 L-5,31 L-1,33 L6,36 L14,37 L14,38 L9,39 L7,40 L7,42 L-5,39 L-22,30 L-28,23 L-28,19 L-24,20 L-22,24 L-15,24 L-15,22 L-17,21 L-14,21 L-12,17 L-10,13 L-7,10 L-11,6 L-11,4 L-7,4 L-8,8 L-5,8 L-3,3 Z " fill="#DBD2C2" transform="translate(119,210)"/>
<path d="M0,0 L5,2 L9,6 L9,8 L11,8 L18,18 L21,24 L21,26 L24,27 L26,30 L19,34 L12,36 L8,35 L9,33 L1,33 L1,32 L8,31 L-1,16 L-7,7 L-5,7 L-3,2 Z " fill="#DEDAD0" transform="translate(172,210)"/>
<path d="M0,0 L4,0 L8,7 L7,10 L2,11 L-1,10 L-2,7 L-2,10 L-5,10 L-6,13 L-8,22 L-8,30 L-11,31 L-12,36 L-21,42 L-22,40 L-27,42 L-28,34 L-24,26 L-23,22 L-15,15 Z " fill="#F3F3F3" transform="translate(93,105)"/>
<path d="M0,0 L2,0 L7,14 L8,18 L8,45 L6,49 L6,36 L3,39 L-3,37 L-7,34 L-9,29 L-15,27 L-16,21 L-10,18 L-7,15 L1,12 L4,12 Z " fill="#F8F7F4" transform="translate(228,133)"/>
<path d="M0,0 L6,1 L7,4 L7,11 L10,8 L13,8 L13,4 L19,5 L21,9 L19,15 L17,15 L17,23 L14,28 L11,28 L9,22 L4,24 L1,24 L0,20 L-1,22 L-7,20 L-4,7 L-2,1 Z " fill="#F0CBC5" transform="translate(171,51)"/>
<path d="M0,0 L7,1 L18,6 L16,7 L16,9 L14,9 L17,12 L30,15 L32,15 L33,13 L31,25 L26,33 L25,30 L23,33 L19,32 L22,32 L23,27 L20,26 L23,26 L24,24 L27,25 L28,20 L17,21 L17,18 L13,16 L-3,14 L-3,9 L-1,9 L-1,2 Z " fill="#CDC9C5" transform="translate(200,176)"/>
<path d="M0,0 L6,1 L7,2 L6,14 L3,26 L-2,24 L-3,17 L-9,16 L-12,18 L-16,15 L-14,10 L-11,10 L-10,7 Z " fill="#F0C6BF" transform="translate(203,65)"/>
<path d="M0,0 L2,0 L3,2 L10,3 L14,0 L18,0 L18,2 L21,2 L20,7 L24,4 L22,9 L18,12 L14,11 L9,13 L8,10 L8,16 L1,15 L3,12 L-11,12 L-8,7 L-13,7 L-15,4 L-3,2 Z " fill="#D7D8DD" transform="translate(202,201)"/>
<path d="M0,0 L4,4 L0,20 L-2,26 L-6,25 L-8,22 L-8,16 L-18,15 L-21,13 L-20,8 L-17,8 L-13,9 L-13,7 L-4,1 L-2,1 L-1,2 Z " fill="#F1CCC6" transform="translate(87,237)"/>
<path d="M0,0 L6,2 L8,3 L9,7 L15,9 L20,11 L19,6 L21,6 L21,13 L18,13 L19,17 L11,17 L6,20 L2,25 L0,25 L-2,19 L-2,2 Z " fill="#F1CDC8" transform="translate(94,62)"/>
<path d="M0,0 L2,1 L5,8 L8,8 L11,12 L14,15 L24,16 L29,15 L28,21 L21,23 L11,22 L3,15 L-2,9 L-6,8 L-6,6 L-12,7 L-8,4 Z " fill="#F5F5F4" transform="translate(159,89)"/>
<path d="M0,0 L6,0 L16,11 L20,14 L20,16 L22,16 L24,22 L15,20 L12,14 L10,14 L12,18 L14,20 L18,22 L5,21 L5,19 L3,19 L3,12 L3,8 L-2,6 L-3,3 Z " fill="#E8E8E8" transform="translate(202,108)"/>
<path d="M0,0 Z M-2,1 L0,1 L3,6 L2,11 L1,12 L3,14 L1,18 L-6,16 L-7,11 L-11,12 L-7,16 L-4,17 L-6,21 L-10,22 L-16,11 L-20,6 L-20,4 L-6,2 Z " fill="#F5F5F2" transform="translate(203,214)"/>
<path d="M0,0 L8,0 L13,5 L14,8 L12,10 L11,13 L8,8 L8,6 L1,9 L0,13 L3,18 L6,19 L5,20 L7,21 L7,18 L10,19 L9,23 L6,24 L-1,24 L-3,20 L-6,19 L-7,10 L-4,3 Z " fill="#EFC4BF" transform="translate(99,249)"/>
<path d="M0,0 L9,0 L13,6 L13,11 L3,14 L2,23 L0,24 L-2,23 L-3,13 L-5,7 L-4,4 L-2,2 Z " fill="#F2D3CD" transform="translate(117,52)"/>
<path d="M0,0 L2,0 L4,14 L6,20 L7,18 L12,19 L12,22 L22,22 L28,20 L30,21 L31,27 L16,28 L9,25 L2,20 L-3,13 L-3,3 Z " fill="#F4F2EF" transform="translate(201,118)"/>
<path d="M0,0 L1,0 L2,11 L6,20 L5,31 L9,32 L9,33 L-1,35 L-6,36 L-5,33 L-5,14 L-3,14 L-1,8 Z " fill="#ACB0BB" transform="translate(68,153)"/>
<path d="M0,0 L4,0 L2,6 L-1,14 L-3,13 L-3,22 L-2,33 L0,36 L-1,38 L-3,38 L-2,42 L-2,57 L-5,60 L-7,51 L-7,20 L-4,8 Z " fill="#EDC383" transform="translate(66,129)"/>
<path d="M0,0 L4,1 L2,1 L1,7 L9,1 L11,2 L6,6 L7,12 L15,12 L15,6 L18,5 L18,7 L22,8 L21,17 L15,20 L6,19 L6,17 L1,15 L-1,9 Z " fill="#EDB8B0" transform="translate(69,78)"/>
<path d="M0,0 L1,0 L1,20 L-1,20 L-1,28 L-10,26 L-17,22 L-19,18 L-21,9 L-16,9 L-14,7 L-11,16 L-5,19 L-1,19 Z " fill="#F3F0E3" transform="translate(234,152)"/>
<path d="M0,0 L2,0 L0,7 L4,16 L4,23 L0,24 L-6,15 L-7,11 L-13,11 L-14,8 L-10,7 L-10,5 L-7,2 Z " fill="#F0C8C3" transform="translate(198,246)"/>
<path d="M0,0 L9,0 L7,2 L3,2 L3,5 L7,7 L11,9 L9,13 L12,16 L5,16 L4,11 L4,17 L11,17 L12,20 L1,21 L-1,20 L-2,16 L-2,4 Z " fill="#F8F8F8" transform="translate(138,51)"/>
<path d="M0,0 L4,2 L2,8 L4,8 L7,4 L10,5 L9,8 L7,9 L10,11 L6,12 L4,14 L2,14 L1,18 L-1,20 L-2,21 L-5,23 L-9,23 L-11,16 L-5,12 L-1,7 L-1,4 Z M-9,16 Z " fill="#959AA9" transform="translate(124,90)"/>
<path d="M0,0 L2,0 L2,2 L7,3 L14,11 L19,15 L24,16 L24,17 L15,18 L13,15 L13,13 L10,12 L7,9 L6,7 L-17,7 L-16,2 L-11,2 L-11,1 Z " fill="#818AA0" transform="translate(151,95)"/>
<path d="M0,0 L2,1 L2,5 L12,4 L7,10 L1,28 L0,30 L-3,30 L-1,5 L1,5 Z " fill="#B8BBC7" transform="translate(90,110)"/>
<path d="M0,0 L2,2 L2,11 L3,11 L8,28 L8,39 L5,35 L2,25 L-3,13 L-4,4 L-2,1 L-1,3 Z " fill="#F1C58A" transform="translate(260,95)"/>
<path d="M0,0 L2,0 L7,8 L10,11 L10,13 L2,16 L3,13 L1,12 L1,15 L-2,14 L-4,13 L-7,6 L-4,1 Z " fill="#F8F8F8" transform="translate(105,255)"/>
<path d="M0,0 L1,0 L5,21 L5,41 L4,46 L4,52 L-1,69 L-2,65 L1,50 L2,27 L1,12 L0,8 Z " fill="#E58E69" transform="translate(268,134)"/>
<path d="M0,0 L2,1 L-6,6 L-15,9 L-27,11 L-51,11 L-55,9 L-52,7 L-29,8 L-29,6 L-17,7 L-5,3 Z " fill="#ECB766" transform="translate(186,244)"/>
<path d="M0,0 L6,0 L12,3 L13,5 L18,7 L24,10 L29,11 L29,12 L24,12 L24,15 L28,16 L21,17 L17,15 L19,14 L5,7 L8,5 L4,3 L2,4 Z " fill="#A0A2B1" transform="translate(152,169)"/>
<path d="M0,0 L4,1 L-3,5 L-21,10 L-29,11 L-26,18 L-27,22 L-47,22 L-47,21 L-29,21 L-29,19 L-31,18 L-29,18 L-32,11 L-28,8 L-24,8 L-25,6 L-4,2 Z " fill="#747F97" transform="translate(124,163)"/>
<path d="M0,0 L1,0 L2,6 L3,6 L3,13 L1,20 L-2,19 L-4,13 L-17,12 L-13,10 L-11,5 L0,8 Z " fill="#C7BAA2" transform="translate(233,172)"/>
<path d="M0,0 L20,3 L17,11 L10,11 L2,5 Z " fill="#F9F8F8" transform="translate(205,128)"/>
<path d="M0,0 L5,0 L5,2 L-6,6 L-19,9 L-25,8 L-28,3 L-27,1 L-22,2 L-4,2 Z " fill="#F4F3F1" transform="translate(97,201)"/>
<path d="M0,0 L17,0 L38,5 L34,8 L17,5 L18,3 L-5,3 L-22,7 L-28,8 L-26,6 L-12,2 Z " fill="#ECAB55" transform="translate(141,76)"/>
<path d="M0,0 L10,2 L11,4 L5,5 L8,7 L22,7 L22,8 L32,8 L28,10 L7,12 L7,10 L3,12 L0,7 L-1,1 Z " fill="#F8F8F8" transform="translate(66,188)"/>
<path d="M0,0 L1,0 L3,13 L3,37 L2,45 L1,52 L-1,62 L-2,62 L-2,47 L-1,45 L-1,38 L0,34 Z " fill="#F6E8B3" transform="translate(272,141)"/>
<path d="M0,0 L2,3 L8,1 L8,3 L11,4 L6,9 L10,8 L10,6 L14,5 L13,9 L7,16 L8,18 L4,19 L4,10 L0,9 L-2,5 L0,5 Z M11,2 Z M-1,9 Z " fill="#C5C7CB" transform="translate(65,143)"/>
<path d="M0,0 L3,0 L3,2 L11,4 L20,5 L17,8 L14,11 L15,15 L17,17 L15,17 L14,19 L5,9 L1,3 Z " fill="#C7BFA8" transform="translate(76,212)"/>
<path d="M0,0 L5,5 L9,13 L7,15 L3,7 L-10,13 L-20,12 L-25,7 L-26,3 L-24,3 L-22,7 L-17,10 L-8,9 L-4,5 L-3,2 Z " fill="#777C92" transform="translate(157,83)"/>
<path d="M0,0 L4,2 L15,14 L21,18 L25,27 L24,31 L24,29 L20,28 L18,20 L16,20 L11,15 L2,5 L-4,4 L-4,3 L1,2 Z " fill="#F1C585" transform="translate(206,104)"/>
<path d="M0,0 L7,0 L7,2 L34,2 L33,5 L-17,4 L-16,2 Z " fill="#F6EABA" transform="translate(138,38)"/>
<path d="M0,0 L3,1 L7,3 L-2,8 L8,8 L4,10 L-6,12 L-8,8 L-13,5 L-11,3 L-6,2 L-6,1 Z " fill="#F9F8F8" transform="translate(187,206)"/>
<path d="M0,0 L1,4 L-2,9 L-6,10 L-6,12 L-18,18 L-24,16 L-21,14 L-10,8 Z " fill="#9FA3B1" transform="translate(141,158)"/>
<path d="M0,0 L3,2 L-4,10 L-9,18 L-10,22 L-10,33 L-16,45 L-17,42 L-14,33 L-12,20 L-13,20 L-13,15 L-10,12 L-5,5 Z " fill="#F0C179" transform="translate(49,77)"/>
<path d="M0,0 L3,1 L3,10 L11,9 L11,12 L2,14 L2,16 L-2,17 L-5,20 L-7,18 L-2,7 Z " fill="#F8F8F8" transform="translate(218,75)"/>
<path d="M0,0 L13,1 L17,2 L50,4 L50,6 L27,6 L9,4 L0,1 Z " fill="#F6E59C" transform="translate(109,286)"/>
<path d="M0,0 L1,0 L2,10 L-6,19 L-7,17 L-11,18 L-11,20 L-15,21 L-13,17 L-11,16 L-11,13 L-5,9 L-4,3 L0,4 Z M-10,14 Z " fill="#A5A9B8" transform="translate(86,131)"/>
<path d="M0,0 L1,3 L0,11 L0,45 L-2,46 L-4,31 L-4,16 L-2,3 Z " fill="#F9F9F8" transform="translate(25,142)"/>
<path d="M0,0 L9,1 L6,3 L23,9 L25,11 L16,9 L5,5 L-8,3 L-40,3 L-41,1 L-1,1 Z " fill="#EDB15C" transform="translate(172,41)"/>
<path d="M0,0 L5,4 L11,4 L13,5 L14,1 L19,1 L18,6 L15,10 L13,12 L1,6 L-3,5 L-3,2 Z " fill="#F8F8F7" transform="translate(237,208)"/>
<path d="M0,0 L2,4 L3,7 L12,10 L12,12 L14,12 L16,16 L15,19 L9,21 L-1,21 L-3,19 L1,18 L8,19 L10,12 L6,11 L6,9 L1,8 L-2,7 L-2,2 L0,2 Z " fill="#7C808C" transform="translate(214,120)"/>
<path d="M0,0 L8,0 L8,2 L10,4 L0,8 L-10,9 L-10,4 L-1,4 L-1,2 L-3,1 Z " fill="#F8F3DD" transform="translate(173,243)"/>
<path d="M0,0 L2,1 L2,6 L4,7 L2,7 L3,13 L7,14 L3,14 L6,23 L9,26 L8,27 L12,30 L10,31 L6,28 L5,25 L2,24 L-1,17 L-1,4 Z " fill="#7B859C" transform="translate(210,147)"/>
<path d="M0,0 L2,3 L5,11 L9,10 L9,12 L12,13 L11,15 L8,15 L7,17 L9,19 L14,22 L14,24 L12,24 L11,26 L5,19 L-1,8 L-2,1 Z " fill="#D6A367" transform="translate(64,188)"/>
<path d="M0,0 L2,1 L2,3 L5,4 L3,4 L3,6 L8,7 L4,10 L-7,15 L-9,15 L-7,10 Z " fill="#F8F8F8" transform="translate(123,226)"/>
<path d="M0,0 L3,1 L-13,6 L-11,8 L-15,9 L-29,9 L-40,8 L-40,7 L-27,6 L-15,3 Z " fill="#F0BE6A" transform="translate(188,282)"/>
<path d="M0,0 L17,4 L22,6 L33,8 L33,10 L35,12 L32,12 L31,21 L30,21 L30,11 L21,8 L6,5 L0,1 Z " fill="#8691A6" transform="translate(168,164)"/>
<path d="M0,0 L5,1 L6,4 L-15,8 L-22,9 L-22,7 L-25,6 L-18,6 L-7,3 L-12,4 L-15,2 Z " fill="#EEB46B" transform="translate(126,41)"/>
<path d="M0,0 L5,5 L9,11 L22,11 L22,13 L-4,14 L0,7 Z " fill="#F8F8F8" transform="translate(73,171)"/>
<path d="M0,0 L4,1 L7,4 L12,5 L12,6 L18,7 L18,8 L6,8 L7,11 L0,10 L1,6 L-4,10 L-6,9 L-2,1 Z " fill="#E6E6E8" transform="translate(130,90)"/>
<path d="M0,0 L7,0 L11,1 L11,3 L9,3 L8,5 L8,3 L-3,3 L-4,7 L-4,23 L-2,24 L-6,24 L-7,20 L-7,6 L-5,1 Z " fill="#E3856F" transform="translate(141,48)"/>
<path d="M0,0 L2,4 L9,25 L14,37 L13,43 L11,43 L11,37 L8,29 L6,27 L3,17 L0,5 Z " fill="#F8F8F8" transform="translate(25,189)"/>
<path d="M0,0 L1,0 L1,7 L3,7 L-1,29 L-2,29 L-2,19 L-4,25 L-5,25 L-5,17 Z " fill="#F2CE84" transform="translate(27,124)"/>
<path d="M0,0 L1,3 L3,3 L8,12 L14,20 L11,22 L9,21 L9,18 L5,17 L-1,6 Z " fill="#EFC38C" transform="translate(35,229)"/>
<path d="M0,0 L8,0 L13,1 L15,7 L12,8 L-1,4 L-2,1 Z " fill="#FAFAFA" transform="translate(216,184)"/>
<path d="M0,0 L1,0 L2,23 L4,37 L11,60 L12,65 L9,61 L2,40 L0,24 Z " fill="#EBA750" transform="translate(24,153)"/>
<path d="M0,0 L2,1 L0,3 L14,3 L11,6 L5,8 L-7,10 L-9,8 L-3,6 L-8,6 L-5,3 Z " fill="#7A849B" transform="translate(192,209)"/>
<path d="M0,0 L6,2 L16,2 L16,7 L12,9 L2,8 Z " fill="#939AAD" transform="translate(86,147)"/>
<path d="M0,0 L23,0 L28,1 L28,2 L1,2 L-10,5 L-16,5 L-16,7 L-27,11 L-25,7 L-10,2 Z " fill="#F8F8F7" transform="translate(136,78)"/>
<path d="M0,0 L6,1 L8,8 L5,11 L-2,9 L-3,2 Z " fill="#F9F9F9" transform="translate(230,225)"/>
<path d="M0,0 L2,1 L1,8 L2,10 L4,11 L-4,19 L-6,21 L-5,17 L-9,14 L-5,13 L-6,7 L-7,5 L0,6 Z " fill="#AF9787" transform="translate(210,211)"/>
<path d="M0,0 L1,2 L-2,11 L-4,11 L-6,15 L-7,12 L-6,10 L-11,12 L-21,11 L-26,7 L-22,6 L-22,8 L-19,9 L-11,9 L-4,6 L-3,3 L-1,3 Z " fill="#777C8C" transform="translate(194,94)"/>
<path d="M0,0 L3,1 L4,11 L8,16 L8,18 L12,20 L18,24 L16,25 L16,27 L12,25 L8,21 L5,16 L3,17 L0,11 Z " fill="#7A849B" transform="translate(195,120)"/>
<path d="M0,0 L2,2 L2,7 L2,11 L5,12 L5,20 L0,25 L-1,1 Z M1,11 Z " fill="#F8F5F0" transform="translate(63,141)"/>
<path d="M0,0 L0,3 L-9,12 L-13,13 L-14,9 L-12,4 L-8,2 L-3,3 Z " fill="#F5E2BA" transform="translate(224,209)"/>
<path d="M0,0 L1,0 L1,15 L-3,23 L-6,23 L-5,16 Z " fill="#F7EFD7" transform="translate(269,193)"/>
<path d="M0,0 L28,1 L31,2 L31,4 L15,4 L2,2 Z " fill="#F8F6F6" transform="translate(126,248)"/>
<path d="M0,0 L2,1 L1,6 L-9,16 L-12,19 L-15,19 L-14,15 L-10,11 L-8,11 L-6,7 L-3,5 L-1,1 Z M0,2 Z M-1,3 Z M-2,4 Z " fill="#F2CD94" transform="translate(83,108)"/>
<path d="M0,0 L18,0 L16,2 L8,4 L7,7 L1,8 Z " fill="#AAADBA" transform="translate(211,145)"/>
<path d="M0,0 L1,3 L-1,9 L-1,15 L-3,17 L-4,16 L-6,19 L-6,32 L-9,35 L-9,22 L-4,9 Z " fill="#EB9F54" transform="translate(265,203)"/>
<path d="M0,0 L1,3 L0,8 L1,12 L-5,11 L-14,19 L-16,18 L-5,6 Z " fill="#F9F9F9" transform="translate(87,141)"/>
<path d="M0,0 L12,1 L21,3 L43,4 L43,5 L32,6 L14,5 L0,1 Z " fill="#E6895D" transform="translate(112,284)"/>
<path d="M0,0 L4,1 L4,4 L-3,7 L-12,7 L-9,2 Z " fill="#999CAB" transform="translate(113,174)"/>
<path d="M0,0 L3,0 L3,12 L2,23 L-1,20 L-2,12 Z " fill="#545B78" transform="translate(86,115)"/>
</svg>
