<?xml version="1.0" encoding="UTF-8"?>
<!-- Generator: visioncortex VTracer 0.6.12 -->
<svg xmlns:xlink="http://www.w3.org/1999/xlink" xmlns:sodipodi="http://sodipodi.sourceforge.net/DTD/sodipodi-0.0.dtd" xmlns:inkscape="http://www.inkscape.org/namespaces/inkscape" version="1.1" xmlns="http://www.w3.org/2000/svg" width="163" height="344">
<path d="M0 0 C53.79 0 107.58 0 163 0 C163 113.52 163 227.04 163 344 C109.21 344 55.42 344 0 344 C0 230.48 0 116.96 0 0 Z " fill="#F4F4F5" transform="translate(0,0)"/>
<path d="M0 0 C6.04500639 -0.77500082 10.11290622 1.77451811 15 5 C17.39763185 7.39763185 17.34280586 8.33273498 17.625 11.625 C17.69976562 12.44226563 17.77453125 13.25953125 17.8515625 14.1015625 C17.87605469 14.41480469 17.87605469 14.41480469 18 16 C18.350625 15.030625 18.70125 14.06125 19.0625 13.0625 C21 10 21 10 24.125 9.125 C28.42143192 8.98640542 32.70215689 8.91228892 37 9 C37 9.99 37 10.98 37 12 C37.928125 12.12375 38.85625 12.2475 39.8125 12.375 C43 13 43 13 46 15 C45.7435918 17.39817079 45.4704516 19.79243728 45.1875 22.1875 C45.11724609 22.86103516 45.04699219 23.53457031 44.97460938 24.22851562 C44.45380471 28.49911385 43.48923123 31.48779704 41 35 C32.31687174 34.2782015 24.85649778 33.58268245 17.171875 29.16015625 C14.99968696 27.99983278 13.15004125 27.43826049 10.75 26.9375 C6.68327186 25.92081796 4.21246512 24.67705426 1 22 C-1.2502479 17.78936664 -1.23831169 14.02874893 -1.1875 9.3125 C-1.18685547 8.63638672 -1.18621094 7.96027344 -1.18554688 7.26367188 C-1.1409337 2.2818674 -1.1409337 2.2818674 0 0 Z " fill="#F9F9F9" transform="translate(62,237)"/>
<path d="M0 0 C2.31 0.66 4.62 1.32 7 2 C7.165 2.99 7.165 2.99 8 8 C8.66 8 9.32 8 10 8 C10 9.65 10 11.3 10 13 C9.175 12.835 9.175 12.835 5 12 C4.67 12.99 4.34 13.98 4 15 C1.06243881 15.0269501 -1.87487555 15.04681474 -4.8125 15.0625 C-5.22918945 15.06668945 -5.22918945 15.06668945 -7.33789062 15.08789062 C-8.14033203 15.09111328 -8.94277344 15.09433594 -9.76953125 15.09765625 C-10.50792236 15.10289307 -11.24631348 15.10812988 -12.00708008 15.11352539 C-14 15 -14 15 -17 14 C-16.79375 14.515625 -16.5875 15.03125 -16.375 15.5625 C-15.84112974 19.03265671 -16.92323239 21.70635791 -18 25 C-17.34 24.67 -16.68 24.34 -16 24 C-15.62599214 21.67284 -15.29235267 19.33882138 -15 17 C-13.06658053 15.06658053 -9.62520879 15.82550867 -7.0625 15.8125 C-5.79535156 15.79832031 -4.52820313 15.78414062 -3.22265625 15.76953125 C0 16 0 16 2 18 C0.68 20.64 -0.64 23.28 -2 26 C-1.01 26.33 -0.02 26.66 1 27 C-15.74473997 27.50627993 -32.44526038 26.8860308 -48 20 C-46.68 19.67 -45.36 19.34 -44 19 C-44.66 18.01 -45.32 17.02 -46 16 C-45.95421984 12.78966594 -45.26202293 9.94849302 -44 7 C-39.05315184 3.70210122 -32.62078853 5.13465261 -27 6 C-25.64207723 6.33948069 -24.28758703 6.69308642 -22.9375 7.0625 C-15.54288928 8.89755964 -7.56018365 8.14679968 0 8 C0 5.36 0 2.72 0 0 Z " fill="#EDECEA" transform="translate(131,214)"/>
<path d="M0 0 C2.0622048 -0.054348 4.12482816 -0.09294961 6.1875 -0.125 C7.33605469 -0.14820313 8.48460938 -0.17140625 9.66796875 -0.1953125 C12.96222999 -0.00221395 15.12012405 0.41001364 18 2 C18.33 2.99 18.66 3.98 19 5 C20.84765625 5.94921875 20.84765625 5.94921875 23.0625 6.6875 C23.79597656 6.93886719 24.52945313 7.19023437 25.28515625 7.44921875 C25.85105469 7.63097656 26.41695312 7.81273437 27 8 C27 9.32 27 10.64 27 12 C27.99 11.67 28.98 11.34 30 11 C30 10.34 30 9.68 30 9 C30.804375 8.87625 31.60875 8.7525 32.4375 8.625 C33.283125 8.41875 34.12875 8.2125 35 8 C35.33 7.34 35.66 6.68 36 6 C36 7.32 36 8.64 36 10 C36.99 10 37.98 10 39 10 C39.33 8.35 39.66 6.7 40 5 C44.94367454 3.79422572 48.20862412 4.3709322 53 6 C53 6.66 53 7.32 53 8 C53.66 8.66 54.32 9.32 55 10 C57 12 57 12 57 14 C54.69 14 52.38 14 50 14 C50 14.99 50 15.98 50 17 C45.09103556 18.14580602 41.10437389 17.69810736 36.265625 16.6015625 C35.90600677 16.52435471 35.90600677 16.52435471 34.08612061 16.13363647 C32.57567784 15.8073787 31.06634162 15.4759596 29.55810547 15.13964844 C27.2453845 14.62397086 24.92984069 14.12312156 22.61328125 13.625 C21.14304463 13.3055356 19.67298575 12.98525184 18.203125 12.6640625 C17.51043518 12.51297028 16.81774536 12.36187805 16.10406494 12.20620728 C11.23680143 11.11840071 11.23680143 11.11840071 9 10 C9 8.68 9 7.36 9 6 C8.5359375 5.9690625 8.5359375 5.9690625 6.1875 5.8125 C3 5 3 5 1.30078125 2.44921875 C0.87152344 1.64097656 0.44226563 0.83273438 0 0 Z " fill="#695D54" transform="translate(72,200)"/>
<path d="M0 0 C1.32 0.33 2.64 0.66 4 1 C4.33 3.97 4.66 6.94 5 10 C6.36125 10.45375 7.7225 10.9075 9.125 11.375 C12.75 12.58333333 16.375 13.79166667 20 15 C18.84941444 20.39795989 17.57578241 25.70987333 16 31 C11.94180817 30.34496718 8.46028718 29.05440879 4.6875 27.4375 C3.61886719 26.98246094 2.55023438 26.52742188 1.44921875 26.05859375 C0.64097656 25.70925781 -0.16726562 25.35992187 -1 25 C-0.67 24.34 -0.34 23.68 0 23 C-0.825 22.525625 -1.65 22.05125 -2.5 21.5625 C-5.28073561 18.712246 -5.36260194 18.26281082 -5.375 14.5 C-5.24321543 11.53991573 -4.7913174 8.85393162 -4 6 C-3.34 6 -2.68 6 -2 6 C-1.855625 5.195625 -1.71125 4.39125 -1.5625 3.5625 C-1 1 -1 1 0 0 Z " fill="#E4E2E0" transform="translate(67,202)"/>
<path d="M0 0 C3.77793373 1.45227022 7.39052133 3.17241586 11 5 C11 5.99 11 6.98 11 8 C13 11 13 11 16 12 C15.34 12 14.68 12 14 12 C13.71125 12.94875 13.4225 13.8975 13.125 14.875 C12 18 12 18 10 20 C10.020625 19.26394531 10.04125 18.52789062 10.0625 17.76953125 C9.898651 10.01742532 9.898651 10.01742532 7.43359375 7.2265625 C2.90074756 4.29928414 -1.79704342 3.22840003 -7 2 C-7.08144943 4.70894767 -7.14070614 7.41541263 -7.1875 10.125 C-7.21263672 10.88554687 -7.23777344 11.64609375 -7.26367188 12.4296875 C-7.32759801 17.37330847 -6.77466576 20.73027904 -4 25 C-0.94553908 26.94374786 1.83418925 27.95307243 5.3125 28.9375 C8.23357737 29.77916636 10.29371886 30.63789983 12.9375 32 C19.51742354 35.07215942 26.8570876 35.33391246 34 36 C36.05137315 32.51783717 36.56818592 29.22724343 37.125 25.25 C37.29257813 24.07953125 37.46015625 22.9090625 37.6328125 21.703125 C37.75398438 20.81109375 37.87515625 19.9190625 38 19 C40.42472438 21.51822275 40.99254989 22.67533206 41.07421875 26.234375 C40.71614583 29.48958333 40.35807292 32.74479167 40 36 C44.29 36.33 48.58 36.66 53 37 C52.67 39.31 52.34 41.62 52 44 C51.34 44 50.68 44 50 44 C49.67 44.99 49.34 45.98 49 47 C49 46.01 49 45.02 49 44 C48.34 44 47.68 44 47 44 C47 43.34 47 42.68 47 42 C45.68 41.67 44.36 41.34 43 41 C42.835 41.33 42.835 41.33 42 43 C42 41.68 42 40.36 42 39 C41.443125 39.08378906 40.88625 39.16757812 40.3125 39.25390625 C31.3183717 40.45413621 24.4700239 39.03642366 16 36 C14.54269716 35.51770836 13.08435492 35.03854626 11.625 34.5625 C4.67540242 32.24596747 -2.20929542 29.74803692 -9 27 C-8.835 26.505 -8.835 26.505 -8 24 C-8.30380131 22.65962929 -8.64027512 21.32645652 -9 20 C-9.07818636 18.48604304 -9.10789909 16.96906493 -9.09765625 15.453125 C-9.09443359 14.60878906 -9.09121094 13.76445312 -9.08789062 12.89453125 C-9.07951172 12.02183594 -9.07113281 11.14914063 -9.0625 10.25 C-9.05798828 9.36183594 -9.05347656 8.47367188 -9.04882812 7.55859375 C-9.037074 5.37232671 -9.02064249 3.18619821 -9 1 C-5.96515505 -0.51742247 -3.27971125 -0.54276912 0 0 Z " fill="#4F4846" transform="translate(69,235)"/>
<path d="M0 0 C0.59329102 0.15823242 0.59329102 0.15823242 3.59570312 0.95898438 C4.72041016 1.26255859 5.84511719 1.56613281 7.00390625 1.87890625 C8.02427979 2.15420166 9.04465332 2.42949707 10.09594727 2.71313477 C12.4375 3.4375 12.4375 3.4375 13.4375 4.4375 C13.47830783 6.43708364 13.48004356 8.43795254 13.4375 10.4375 C8.94007549 11.71746877 5.01045015 11.14910754 0.5 10.3125 C-0.2420166 10.17561768 -0.9840332 10.03873535 -1.74853516 9.89770508 C-8.80228999 8.51421718 -16.28872202 7.01870754 -22.5625 3.4375 C-25.5625 -1.41104772 -25.5625 -1.41104772 -25.5625 -4.5625 C-19.26091785 -7.71329107 -6.43836549 -1.74740194 0 0 Z " fill="#FAFAFA" transform="translate(86.5625,279.5625)"/>
<path d="M0 0 C2.62959989 3.94439983 2.26535386 7.30280106 2.22705078 11.87768555 C2.22734283 12.78520569 2.22763489 13.69272583 2.22793579 14.62774658 C2.22654118 17.63083418 2.21097373 20.63367443 2.1953125 23.63671875 C2.19158284 25.71751266 2.18873565 27.79830832 2.18673706 29.87910461 C2.17909692 35.35853922 2.15944512 40.83786798 2.1373291 46.31726074 C2.1168789 51.90745614 2.10773711 57.49766862 2.09765625 63.08789062 C2.07619963 74.05864028 2.04205905 85.02931134 2 96 C1.71423096 95.35256836 1.42846191 94.70513672 1.1340332 94.03808594 C0.75980225 93.36551758 0.38557129 92.69294922 0 92 C-3.5650434 90.9869822 -7.30734066 91.11809243 -11 91 C-11.99644531 90.92523438 -12.99289063 90.85046875 -14.01953125 90.7734375 C-21.56859011 90.41260198 -27.83899173 91.79205494 -34.91259766 94.22119141 C-39.80708639 95.86126012 -43.83269559 96.2314582 -49 96 C-48.96586242 88.62628201 -46.87106829 84.46691762 -42 79 C-42 82.53379885 -43.26206626 84.31098154 -45.04296875 87.28125 C-46.0844203 89.15161197 -46.66171232 90.88570198 -47 93 C-42.22132753 94.5526037 -38.67010849 93.13905873 -34.125 91.5625 C-22.75431609 87.91432347 -12.88455812 88.67949354 -1 90 C-1 61.62 -1 33.24 -1 4 C-2.32 4.33 -3.64 4.66 -5 5 C-5.33 5.99 -5.66 6.98 -6 8 C-6 6.68 -6 5.36 -6 4 C-4.02 3.34 -2.04 2.68 0 2 C0 1.34 0 0.68 0 0 Z " fill="#272A34" transform="translate(90,23)"/>
<path d="M0 0 C0.33 0 0.66 0 1 0 C1.02313322 11.96076485 1.04092011 23.92152442 1.05181217 35.88230705 C1.05703885 41.43570621 1.06413261 46.9890901 1.07543945 52.54248047 C1.08627595 57.89815547 1.09227846 63.25381577 1.09487724 68.60950089 C1.09673011 70.65650794 1.10034809 72.70351416 1.10573006 74.75051498 C1.11295057 77.6095735 1.11399051 80.4685706 1.11352539 83.32763672 C1.11712067 84.18071411 1.12071594 85.0337915 1.12442017 85.91271973 C1.11405216 91.77189568 1.11405216 91.77189568 0 94 C-0.66 94 -1.32 94 -2 94 C-1.67 101.92 -1.34 109.84 -1 118 C-1.495 118.165 -1.495 118.165 -4 119 C-4.01981934 118.22809326 -4.03963867 117.45618652 -4.06005859 116.66088867 C-4.15521143 113.16941042 -4.26493047 109.67853848 -4.375 106.1875 C-4.4059375 104.97255859 -4.436875 103.75761719 -4.46875 102.50585938 C-4.50742188 101.34248047 -4.54609375 100.17910156 -4.5859375 98.98046875 C-4.6173584 97.90692139 -4.6487793 96.83337402 -4.68115234 95.72729492 C-5 93 -5 93 -7 90 C-7.66 90 -8.32 90 -9 90 C-9.33 100.23 -9.66 110.46 -10 121 C-10.66 121 -11.32 121 -12 121 C-12 110.77 -12 100.54 -12 90 C-14.97 89.01 -17.94 88.02 -21 87 C-21 86.67 -21 86.34 -21 86 C-19.56299124 85.9438912 -18.12526298 85.90630433 -16.6875 85.875 C-16.28724609 85.86339844 -16.28724609 85.86339844 -14.26171875 85.8046875 C-9.4604215 86.09219033 -4.73231334 87.13957939 0 88 C0 58.96 0 29.92 0 0 Z " fill="#FAFAFA" transform="translate(90,27)"/>
<path d="M0 0 C3.96 0 7.92 0 12 0 C13.16807338 4.67229353 12.52104734 6.15835598 10.8125 10.5625 C10.38582031 11.69816406 9.95914063 12.83382813 9.51953125 14.00390625 C7.94899779 17.1005622 7.06045727 18.42255923 4 20 C1.421875 20.29296875 1.421875 20.29296875 -1.25 20.1875 C-2.14203125 20.16042969 -3.0340625 20.13335937 -3.953125 20.10546875 C-4.62859375 20.07066406 -5.3040625 20.03585937 -6 20 C-4.68 19.67 -3.36 19.34 -2 19 C-2.19464844 18.15179688 -2.38929687 17.30359375 -2.58984375 16.4296875 C-3.05048676 12.57783448 -2.51790015 9.87016858 -1.5625 6.125 C-1.27503906 4.97257812 -0.98757812 3.82015625 -0.69140625 2.6328125 C-0.57732422 2.19839844 -0.57732422 2.19839844 0 0 Z " fill="#DAD7D5" transform="translate(111,252)"/>
<path d="M0 0 C1.32 0.66 2.64 1.32 4 2 C4.99 2 5.98 2 7 2 C7 3.32 7 4.64 7 6 C7.66 6 8.32 6 9 6 C9.33 13.59 9.66 21.18 10 29 C9.34 29 8.68 29 8 29 C8 29.99 8 30.98 8 32 C5.03 31.67 2.06 31.34 -1 31 C-0.34 30.67 0.32 30.34 1 30 C0.67 20.1 0.34 10.2 0 0 Z " fill="#766658" transform="translate(77,166)"/>
<path d="M0 0 C1.26714844 -0.01417969 2.53429687 -0.02835938 3.83984375 -0.04296875 C7.0625 0.1875 7.0625 0.1875 9.0625 2.1875 C7.7425 4.8275 6.4225 7.4675 5.0625 10.1875 C6.0525 10.5175 7.0425 10.8475 8.0625 11.1875 C-3.16886083 11.40302718 -13.85081161 11.21312659 -24.9375 9.1875 C-21.73271464 7.05097643 -21.0227708 6.97476232 -17.375 7.125 C-13.13291985 7.28520992 -13.13291985 7.28520992 -10.9375 6.1875 C-10.9375 7.1775 -10.9375 8.1675 -10.9375 9.1875 C-10.2775 8.8575 -9.6175 8.5275 -8.9375 8.1875 C-8.56349214 5.86034 -8.22985267 3.52632138 -7.9375 1.1875 C-6.00408053 -0.74591947 -2.56270879 0.01300867 0 0 Z " fill="#484342" transform="translate(123.9375,229.8125)"/>
<path d="M0 0 C0.33 0 0.66 0 1 0 C2.20054446 13.1165868 3.20110351 26.19739727 3.25 39.375 C3.25451172 39.8793457 3.25451172 39.8793457 3.27734375 42.43164062 C3.27347656 43.36943359 3.26960938 44.30722656 3.265625 45.2734375 C3.26336914 46.09247559 3.26111328 46.91151367 3.25878906 47.75537109 C2.97451383 50.2210565 2.23281842 51.86307393 1 54 C0.2851366 52.70220078 -0.39536298 51.38546663 -1.0625 50.0625 C-1.44535156 49.33160156 -1.82820313 48.60070312 -2.22265625 47.84765625 C-2.99054317 45.03464337 -2.96006806 43.68793251 -2.58203125 40.86914062 C-2.02249674 36.32952483 -1.70263165 31.81253373 -1.46484375 27.24609375 C-1.42186661 26.45977066 -1.37888947 25.67344757 -1.33460999 24.86329651 C-1.19986771 22.38815254 -1.06861976 19.91283824 -0.9375 17.4375 C-0.84593572 15.74412803 -0.75414086 14.05076852 -0.66210938 12.35742188 C-0.43874489 8.23842014 -0.21851077 4.11926195 0 0 Z " fill="#282D38" transform="translate(81,43)"/>
<path d="M0 0 C0.99 0 1.98 0 3 0 C3 0.66 3 1.32 3 2 C3.66 2 4.32 2 5 2 C5.33 8.27 5.66 14.54 6 21 C6.33 21 6.66 21 7 21 C7 22.65 7 24.3 7 26 C6.67 25.01 6.34 24.02 6 23 C3.36 23.66 0.72 24.32 -2 25 C-1.86155153 21.20802551 -1.71299256 17.4165141 -1.5625 13.625 C-1.52318359 12.54476563 -1.48386719 11.46453125 -1.44335938 10.3515625 C-1.40146484 9.3203125 -1.35957031 8.2890625 -1.31640625 7.2265625 C-1.27974854 6.27346191 -1.24309082 5.32036133 -1.20532227 4.33837891 C-1 2 -1 2 0 0 Z " fill="#605752" transform="translate(81,292)"/>
<path d="M0 0 C10.15317287 1.33041575 10.15317287 1.33041575 13.6875 4.125 C14.120625 4.74375 14.55375 5.3625 15 6 C12.36 5.34 9.72 4.68 7 4 C7 5.65 7 7.3 7 9 C3.95038941 10.52480529 1.7117007 9.48319094 -1.5625 8.75 C-2.73941406 8.49734375 -3.91632813 8.2446875 -5.12890625 7.984375 C-5.60263672 7.82195312 -5.60263672 7.82195312 -8 7 C-8.33 6.01 -8.66 5.02 -9 4 C-6.03 4 -3.06 4 0 4 C0 2.68 0 1.36 0 0 Z " fill="#FAFAFA" transform="translate(113,207)"/>
<path d="M0 0 C3.82922673 1.24191137 7.6037868 2.59431831 11.375 4 C18.85984826 6.72084349 26.06246763 8.30179113 34 9 C34 9.33 34 9.66 34 10 C25.5020972 11.65373446 18.92474652 10.52924408 10.87719727 7.8293457 C7.12693277 6.57371391 3.9705286 5.6814253 0 6 C0.99 8.64 1.98 11.28 3 14 C2.34 14 1.68 14 1 14 C-0.75328507 10.97159851 -1.25093193 8.80125633 -1.1875 5.3125 C-1.18105469 4.52488281 -1.17460938 3.73726563 -1.16796875 2.92578125 C-1 1 -1 1 0 0 Z " fill="#58504C" transform="translate(61,269)"/>
<path d="M0 0 C1.32 0.33 2.64 0.66 4 1 C5.03974499 4.41065139 5.11508506 7.52264842 5.09765625 11.078125 C5.09443359 12.23828125 5.09121094 13.3984375 5.08789062 14.59375 C5.07951172 15.8003125 5.07113281 17.006875 5.0625 18.25 C5.05798828 19.47203125 5.05347656 20.6940625 5.04882812 21.953125 C5.03704815 24.96879946 5.02059853 27.98437498 5 31 C5.66 31.33 6.32 31.66 7 32 C6.34 32 5.68 32 5 32 C5.33 32.99 5.66 33.98 6 35 C5.01 35.66 4.02 36.32 3 37 C1.02 36.01 -0.96 35.02 -3 34 C-2.67 33.835 -2.67 33.835 -1 33 C-1.00261841 32.5356958 -1.00261841 32.5356958 -1.01586914 30.18603516 C-1.03289593 26.74576195 -1.04544273 23.30553341 -1.05493164 19.86523438 C-1.05996514 18.37531834 -1.06679242 16.88540726 -1.07543945 15.39550781 C-1.08754805 13.25584696 -1.09323807 11.11625132 -1.09765625 8.9765625 C-1.10289307 7.68830566 -1.10812988 6.40004883 -1.11352539 5.07275391 C-1 2 -1 2 0 0 Z M1 4 C-0.76988265 5.76988265 -0.13029068 8.31965418 -0.1328125 10.71484375 C-0.13410156 11.87564453 -0.13539062 13.03644531 -0.13671875 14.23242188 C-0.13285156 15.45509766 -0.12898438 16.67777344 -0.125 17.9375 C-0.12886719 19.15630859 -0.13273437 20.37511719 -0.13671875 21.63085938 C-0.13542969 22.79294922 -0.13414063 23.95503906 -0.1328125 25.15234375 C-0.13168457 26.22476318 -0.13055664 27.29718262 -0.12939453 28.40209961 C0 31 0 31 1 33 C1.99 32.67 2.98 32.34 4 32 C4 23.09 4 14.18 4 5 C3.01 4.67 2.02 4.34 1 4 Z " fill="#79695D" transform="translate(81,115)"/>
<path d="M0 0 C1.41655793 -0.0272415 2.83327045 -0.04650467 4.25 -0.0625 C4.64445312 -0.06830078 4.64445312 -0.06830078 6.640625 -0.09765625 C8.94788753 -0.00215697 10.83295041 0.19881908 13 1 C13.268125 1.804375 13.53625 2.60875 13.8125 3.4375 C14.204375 4.283125 14.59625 5.12875 15 6 C17.3140622 6.73075648 19.64828869 7.40138258 22 8 C22.33 8.99 22.66 9.98 23 11 C20.68682039 10.69257097 18.37446648 10.37892298 16.0625 10.0625 C15.41861328 9.97548828 15.41861328 9.97548828 12.16015625 9.53515625 C9 9 9 9 8 8 C7.95936168 6.33382885 7.957279 4.66611905 8 3 C5.69 3 3.38 3 1 3 C0.67 2.01 0.34 1.02 0 0 Z " fill="#FAFAFA" transform="translate(75,201)"/>
<path d="M0 0 C2.01541048 1.6543619 2.9189844 2.53329702 3.37231445 5.14477539 C3.3693335 5.95422607 3.36635254 6.76367676 3.36328125 7.59765625 C3.36263672 8.48130859 3.36199219 9.36496094 3.36132812 10.27539062 C3.34521484 11.19513672 3.32910156 12.11488281 3.3125 13.0625 C3.31572266 13.98611328 3.31894531 14.90972656 3.32226562 15.86132812 C3.26705173 22.73294827 3.26705173 22.73294827 1 25 C-1.11780664 21.82329004 -1.24892146 21.03752682 -1.23046875 17.40234375 C-1.22853516 16.51869141 -1.22660156 15.63503906 -1.22460938 14.72460938 C-1.21236328 13.80486328 -1.20011719 12.88511719 -1.1875 11.9375 C-1.18685547 11.01388672 -1.18621094 10.09027344 -1.18554688 9.13867188 C-1.14046308 2.28092617 -1.14046308 2.28092617 0 0 Z " fill="#FAFAFA" transform="translate(82,171)"/>
<path d="M0 0 C0.99 0.165 0.99 0.165 6 1 C4.84941444 6.39795989 3.57578241 11.70987333 2 17 C-2.05819183 16.34496718 -5.53971282 15.05440879 -9.3125 13.4375 C-10.38113281 12.98246094 -11.44976562 12.52742187 -12.55078125 12.05859375 C-13.35902344 11.70925781 -14.16726562 11.35992187 -15 11 C-13.359375 9.8828125 -13.359375 9.8828125 -11 9 C-8.203125 9.6796875 -8.203125 9.6796875 -5.25 10.875 C-4.26515625 11.26429688 -3.2803125 11.65359375 -2.265625 12.0546875 C-1.51796875 12.36664063 -0.7703125 12.67859375 0 13 C0.99 10.36 1.98 7.72 3 5 C2.05125 5.20625 1.1025 5.4125 0.125 5.625 C-0.90625 5.74875 -1.9375 5.8725 -3 6 C-3.66 5.34 -4.32 4.68 -5 4 C-2.36 3.67 0.28 3.34 3 3 C2.01 2.01 1.02 1.02 0 0 Z " fill="#5A514D" transform="translate(81,216)"/>
<path d="M0 0 C0.91007812 0.00902344 1.82015625 0.01804688 2.7578125 0.02734375 C3.45648438 0.03894531 4.15515625 0.05054688 4.875 0.0625 C5.875 3.0625 5.875 3.0625 4.9375 5.25 C4.586875 5.848125 4.23625 6.44625 3.875 7.0625 C2.41757537 7.14346803 0.95887193 7.20167774 -0.5 7.25 C-1.31210938 7.28480469 -2.12421875 7.31960937 -2.9609375 7.35546875 C-3.67507812 7.25878906 -4.38921875 7.16210938 -5.125 7.0625 C-7.125 4.0625 -7.125 4.0625 -7.125 1.0625 C-4.60024538 -0.19987731 -2.81299534 -0.03606404 0 0 Z " fill="#FAFAFA" transform="translate(124.125,230.9375)"/>
<path d="M0 0 C0.66 0.99 1.32 1.98 2 3 C5.52087634 6.87296398 8.29646357 8.51786705 13.3125 9.9375 C17.07821346 11.02253608 20.43187225 12.39798346 24 14 C23.67 14.66 23.34 15.32 23 16 C18.51029161 15.39730913 14.6422596 14.23546811 10.4375 12.5625 C9.34308594 12.13066406 8.24867187 11.69882812 7.12109375 11.25390625 C6.09113281 10.84011719 5.06117187 10.42632812 4 10 C3.04222656 9.61714844 2.08445313 9.23429687 1.09765625 8.83984375 C0.40542969 8.56269531 -0.28679688 8.28554688 -1 8 C-0.67 7.01 -0.34 6.02 0 5 C0 4.67 0 4.34 0 4 C0 2.68 0 1.36 0 0 Z " fill="#615955" transform="translate(61,254)"/>
<path d="M0 0 C2.31 0.66 4.62 1.32 7 2 C6.67 2.66 6.34 3.32 6 4 C4.68 3.67 3.36 3.34 2 3 C2 4.65 2 6.3 2 8 C-8.7113931 13.14064946 -23.89538405 9.92721436 -35 7 C-35.99 6.34 -36.98 5.68 -38 5 C-27.66777156 5.73387791 -27.66777156 5.73387791 -22.9375 7.0625 C-15.54288928 8.89755964 -7.56018365 8.14679968 0 8 C0 5.36 0 2.72 0 0 Z " fill="#756354" transform="translate(131,214)"/>
<path d="M0 0 C0.680625 0.165 1.36125 0.33 2.0625 0.5 C2.0625 1.82 2.0625 3.14 2.0625 4.5 C0.4125 4.83 -1.2375 5.16 -2.9375 5.5 C-2.6075 6.49 -2.2775 7.48 -1.9375 8.5 C-2.2675 8.665 -2.2675 8.665 -3.9375 9.5 C-4.5975 9.17 -5.2575 8.84 -5.9375 8.5 C-5.9375 7.18 -5.9375 5.86 -5.9375 4.5 C-6.5975 4.5 -7.2575 4.5 -7.9375 4.5 C-7.9375 3.84 -7.9375 3.18 -7.9375 2.5 C-9.5875 2.17 -11.2375 1.84 -12.9375 1.5 C-8.65215609 -1.35689594 -4.97351927 -0.84655647 0 0 Z " fill="#D1C8C1" transform="translate(104.9375,203.5)"/>
<path d="M0 0 C2.31 0 4.62 0 7 0 C6.86722656 0.61101562 6.73445313 1.22203125 6.59765625 1.8515625 C4.54695156 12.47930214 4.35438724 23.20703576 4 34 C4.66 34 5.32 34 6 34 C6.66 32.68 7.32 31.36 8 30 C7.34 32.97 6.68 35.94 6 39 C5.34 39 4.68 39 4 39 C3.0558026 35.80688754 2.87117606 32.92936219 2.8671875 29.60546875 C2.86589844 28.56712891 2.86460938 27.52878906 2.86328125 26.45898438 C2.86714844 25.37939453 2.87101562 24.29980469 2.875 23.1875 C2.87113281 22.11951172 2.86726563 21.05152344 2.86328125 19.95117188 C2.86998976 14.52734354 3.03988807 9.34157508 4 4 C2.68 3.34 1.36 2.68 0 2 C0 1.34 0 0.68 0 0 Z " fill="#272B35" transform="translate(27,93)"/>
<path d="M0 0 C1.52519276 0.08937803 3.04681929 0.24537146 4.5625 0.4375 C4.97564453 0.48841797 4.97564453 0.48841797 7.06640625 0.74609375 C7.70449219 0.82988281 8.34257813 0.91367187 9 1 C8.67 3.31 8.34 5.62 8 8 C7.34 8 6.68 8 6 8 C5.67 8.99 5.34 9.98 5 11 C5 10.01 5 9.02 5 8 C4.34 8 3.68 8 3 8 C3 7.34 3 6.68 3 6 C1.68 5.67 0.36 5.34 -1 5 C-1.33 5.66 -1.66 6.32 -2 7 C-1.125 1.125 -1.125 1.125 0 0 Z " fill="#6E6E72" transform="translate(113,271)"/>
<path d="M0 0 C4.34818404 0.38650525 7.83295728 1.27748551 11.875 2.9375 C17.64858333 5.17113489 23.30227083 5.8073183 29.42529297 6.31616211 C31.29002913 6.48277011 33.14682112 6.73405406 35 7 C35.165 7.33 35.165 7.33 36 9 C28.70177256 9.738023 22.2041885 8.54281267 15.1875 6.6875 C14.37563232 6.47456299 13.56376465 6.26162598 12.72729492 6.04223633 C8.195614 4.78978514 4.14526981 3.27622706 0 1 C0 0.67 0 0.34 0 0 Z " fill="#65584E" transform="translate(64,283)"/>
<path d="M0 0 C0.66 0 1.32 0 2 0 C3.34832104 2.69664208 3.16910682 4.86587521 3.1875 7.875 C3.20167969 8.92429687 3.21585937 9.97359375 3.23046875 11.0546875 C3.00504937 13.93547071 2.48964317 15.56240208 1 18 C-1.23157731 14.42771221 -1.23870158 11.46913776 -1.1875 7.3125 C-1.18105469 6.15363281 -1.17460938 4.99476563 -1.16796875 3.80078125 C-1 1 -1 1 0 0 Z " fill="#FAFAFA" transform="translate(82,295)"/>
<path d="M0 0 C0.33 0 0.66 0 1 0 C2.39315424 10.62280106 2.09675083 21.31126627 2 32 C1.34 32 0.68 32 0 32 C-1.13292996 25.08493121 -0.92582433 18.48250905 -0.5625 11.5 C-0.51029297 10.39140625 -0.45808594 9.2828125 -0.40429688 8.140625 C-0.27562072 5.42672797 -0.14070594 2.71329542 0 0 Z " fill="#FAFAFA" transform="translate(81,59)"/>
<path d="M0 0 C2.0622048 -0.054348 4.12482816 -0.09294961 6.1875 -0.125 C7.33605469 -0.14820313 8.48460938 -0.17140625 9.66796875 -0.1953125 C12.96222999 -0.00221395 15.12012405 0.41001364 18 2 C18.33 2.99 18.66 3.98 19 5 C22.5625 6.6875 22.5625 6.6875 26 8 C25.67 8.99 25.34 9.98 25 11 C25 10.34 25 9.68 25 9 C22.69 8.67 20.38 8.34 18 8 C17.34 6.02 16.68 4.04 16 2 C11.71 1.67 7.42 1.34 3 1 C3.33 1.66 3.66 2.32 4 3 C6.32156597 3.40729228 8.6568787 3.74438677 11 4 C10.67 4.99 10.34 5.98 10 7 C10 6.34 10 5.68 10 5 C8.906875 5.103125 7.81375 5.20625 6.6875 5.3125 C6.0790625 5.2609375 6.0790625 5.2609375 3 5 C1.26953125 2.48046875 1.26953125 2.48046875 0 0 Z " fill="#61544B" transform="translate(72,200)"/>
<path d="M0 0 C1.26714844 -0.01417969 2.53429687 -0.02835938 3.83984375 -0.04296875 C7.0625 0.1875 7.0625 0.1875 9.0625 2.1875 C6.3125 8.0625 6.3125 8.0625 4.0625 9.1875 C2.23121229 9.28358608 0.39630041 9.31732579 -1.4375 9.3125 C-2.4171875 9.31507813 -3.396875 9.31765625 -4.40625 9.3203125 C-6.9375 9.1875 -6.9375 9.1875 -8.9375 8.1875 C-7.90055874 0.04010436 -7.90055874 0.04010436 0 0 Z M-6.9375 2.1875 C-6.0625 7.0625 -6.0625 7.0625 -4.9375 8.1875 C-3.41821962 8.25929964 -1.89582518 8.27142007 -0.375 8.25 C0.03814453 8.24548828 0.03814453 8.24548828 2.12890625 8.22265625 C2.44794922 8.21685547 2.44794922 8.21685547 4.0625 8.1875 C4.7225 6.2075 5.3825 4.2275 6.0625 2.1875 C5.0625 1.1875 5.0625 1.1875 2.84765625 1.0546875 C1.94917969 1.05726563 1.05070312 1.05984375 0.125 1.0625 C-0.77089844 1.05992187 -1.66679688 1.05734375 -2.58984375 1.0546875 C-4.9375 1.1875 -4.9375 1.1875 -6.9375 2.1875 Z " fill="#736255" transform="translate(123.9375,229.8125)"/>
<path d="M0 0 C4 1.33333333 8 2.66666667 12 4 C12 4.99 12 5.98 12 7 C6.34979382 6.39891424 1.33835539 4.92471317 -4 3 C-2.68 2.67 -1.36 2.34 0 2 C0 1.34 0 0.68 0 0 Z " fill="#7B7572" transform="translate(87,231)"/>
<path d="M0 0 C1.98 0.66 3.96 1.32 6 2 C5.67 2.99 5.34 3.98 5 5 C3.35 5.33 1.7 5.66 0 6 C0.99 8.64 1.98 11.28 3 14 C2.34 14 1.68 14 1 14 C-0.75328507 10.97159851 -1.25093193 8.80125633 -1.1875 5.3125 C-1.18105469 4.52488281 -1.17460938 3.73726563 -1.16796875 2.92578125 C-1 1 -1 1 0 0 Z " fill="#746D6A" transform="translate(61,269)"/>
<path d="M0 0 C1 2 1 2 0.43359375 4.28515625 C-1.92766643 10.86890521 -4.83691841 16.37983985 -9 22 C-9 17.78470306 -7.05582493 15.03753987 -5.09375 11.375 C-4 9 -4 9 -4 6 C-2.72245446 3.9639118 -1.39300182 1.95890881 0 0 Z " fill="#303642" transform="translate(60,78)"/>
<path d="M0 0 C0.33 0 0.66 0 1 0 C1.03738281 0.90363281 1.07476562 1.80726563 1.11328125 2.73828125 C1.17902344 3.91777344 1.24476562 5.09726562 1.3125 6.3125 C1.37050781 7.48425781 1.42851563 8.65601563 1.48828125 9.86328125 C2.03750493 13.22989666 2.54176504 13.85810627 5 16 C5 16.99 5 17.98 5 19 C3.02 19.66 1.04 20.32 -1 21 C-0.67 14.07 -0.34 7.14 0 0 Z " fill="#7B6D63" transform="translate(80,296)"/>
<path d="M0 0 C0.66 0.33 0.66 0.33 4 2 C4 2.66 4 3.32 4 4 C6 7 6 7 9 8 C8.34 8 7.68 8 7 8 C6.855625 8.474375 6.855625 8.474375 6.125 10.875 C5 14 5 14 3 16 C2.97550781 15.61457031 2.97550781 15.61457031 2.8515625 13.6640625 C2.77679688 12.66117188 2.70203125 11.65828125 2.625 10.625 C2.55539063 9.62726563 2.48578125 8.62953125 2.4140625 7.6015625 C2 5 2 5 0 3 C0 2.01 0 1.02 0 0 Z " fill="#6C5F55" transform="translate(76,239)"/>
<path d="M0 0 C0.71542969 0.0721875 1.43085937 0.144375 2.16796875 0.21875 C9.80033532 0.92965607 17.3373816 1.11123156 25 1 C24.67 1.66 24.34 2.32 24 3 C21.06243881 3.0269501 18.12512445 3.04681474 15.1875 3.0625 C14.35412109 3.07087891 13.52074219 3.07925781 12.66210938 3.08789062 C12.26088867 3.08950195 12.26088867 3.08950195 10.23046875 3.09765625 C9.86127319 3.10027466 9.86127319 3.10027466 7.99291992 3.11352539 C6 3 6 3 3 2 C2.67 2.66 2.34 3.32 2 4 C1.34 2.68 0.68 1.36 0 0 Z " fill="#67584D" transform="translate(111,226)"/>
<path d="M0 0 C3 4 3 4 2.75 7.4375 C2.5025 8.613125 2.255 9.78875 2 11 C1.814375 11.969375 1.62875 12.93875 1.4375 13.9375 C1.293125 14.618125 1.14875 15.29875 1 16 C0.01 15.67 -0.98 15.34 -2 15 C-1.34 10.05 -0.68 5.1 0 0 Z " fill="#89796B" transform="translate(107,254)"/>
<path d="M0 0 C3.43741471 3.58064032 3 6.21023033 3 11 C4.5 13.9375 4.5 13.9375 6 16 C5.34 16.33 4.68 16.66 4 17 C0.70255563 12.63886389 -0.68801877 9.61566222 -1 4 C-0.5625 1.5625 -0.5625 1.5625 0 0 Z " fill="#2E323C" transform="translate(93,158)"/>
<path d="M0 0 C2.94915394 0.67261406 4.94778301 1.41606873 7.5625 2.8125 C-1.84752278 4.14507403 -1.84752278 4.14507403 -6.4375 2.8125 C-4.42568107 -0.14605724 -3.66963596 -0.20016196 0 0 Z " fill="#615B5A" transform="translate(91.4375,243.1875)"/>
<path d="M0 0 C4.3177458 0.50797009 8.03302114 1.19682779 12 3 C11.67 3.66 11.34 4.32 11 5 C7.0507432 4.44894091 3.65079826 3.61064629 0 2 C0 1.34 0 0.68 0 0 Z " fill="#8A827E" transform="translate(73,265)"/>
<path d="M0 0 C0.99 0.165 0.99 0.165 6 1 C5.34 3.97 4.68 6.94 4 10 C3.67 10 3.34 10 3 10 C3 8.35 3 6.7 3 5 C2.05125 5.20625 1.1025 5.4125 0.125 5.625 C-0.90625 5.74875 -1.9375 5.8725 -3 6 C-3.66 5.34 -4.32 4.68 -5 4 C-2.36 3.67 0.28 3.34 3 3 C2.01 2.01 1.02 1.02 0 0 Z " fill="#4C4544" transform="translate(81,216)"/>
<path d="M0 0 C0 0.33 0 0.66 0 1 C-1.65 1.33 -3.3 1.66 -5 2 C-5.66 5.96 -6.32 9.92 -7 14 C-7.33 14 -7.66 14 -8 14 C-8 9.38 -8 4.76 -8 0 C-4.71023192 -1.09658936 -3.28696233 -0.79953138 0 0 Z " fill="#272A34" transform="translate(84,152)"/>
<path d="M0 0 C4.95 0.33 9.9 0.66 15 1 C15 1.33 15 1.66 15 2 C13.06325815 2.19517554 11.12555991 2.38087873 9.1875 2.5625 C8.10855469 2.66691406 7.02960938 2.77132813 5.91796875 2.87890625 C3 3 3 3 0 2 C0 1.34 0 0.68 0 0 Z " fill="#635D5C" transform="translate(80,277)"/>
<path d="M0 0 C2.31 0 4.62 0 7 0 C6.34 3.96 5.68 7.92 5 12 C4.67 12 4.34 12 4 12 C4 9.36 4 6.72 4 4 C2.68 3.34 1.36 2.68 0 2 C0 1.34 0 0.68 0 0 Z " fill="#333A45" transform="translate(27,93)"/>
<path d="M0 0 C2.54055845 0.25552438 5.03852505 0.56707159 7.5625 0.9375 C8.27341797 1.03740234 8.98433594 1.13730469 9.71679688 1.24023438 C11.47856957 1.48853791 13.23938152 1.74364039 15 2 C15 2.33 15 2.66 15 3 C5.60902466 4.51401345 5.60902466 4.51401345 1 2 C0.34 1.67 -0.32 1.34 -1 1 C-0.67 0.67 -0.34 0.34 0 0 Z " fill="#63554B" transform="translate(84,269)"/>
<path d="M0 0 C1.00099189 3.5034716 1.70539953 6.58920093 0 10 C-0.99 10 -1.98 10 -3 10 C-2.835 9.236875 -2.67 8.47375 -2.5 7.6875 C-2 5 -2 5 -2 2 C-1.34 1.34 -0.68 0.68 0 0 Z " fill="#333945" transform="translate(77,33)"/>
<path d="M0 0 C0.825 0.33 0.825 0.33 5 2 C5 2.99 5 3.98 5 5 C3.515 4.67 3.515 4.67 -4 3 C-2.68 2.67 -1.36 2.34 0 2 C0 1.34 0 0.68 0 0 Z " fill="#514C4D" transform="translate(87,231)"/>
<path d="M0 0 C2.31 0.66 4.62 1.32 7 2 C6.67 2.66 6.34 3.32 6 4 C4.68 3.67 3.36 3.34 2 3 C2 4.65 2 6.3 2 8 C0.23537317 4.91190305 0 3.76687864 0 0 Z " fill="#5F554F" transform="translate(131,214)"/>
<path d="M0 0 C1.65 0 3.3 0 5 0 C4.67 0.165 4.67 0.165 3 1 C2.32060826 2.99571323 1.65438441 4.99594773 1 7 C0.34 7.66 -0.32 8.32 -1 9 C-0.67 6.03 -0.34 3.06 0 0 Z " fill="#3F3A3A" transform="translate(80,246)"/>
<path d="M0 0 C2.97 0.99 5.94 1.98 9 3 C9 3.33 9 3.66 9 4 C4.78121808 4.19622241 1.82989106 3.80230168 -2 2 C-1.34 1.34 -0.68 0.68 0 0 Z " fill="#766C65" transform="translate(68,225)"/>
<path d="M0 0 C3.96 0.33 7.92 0.66 12 1 C12 1.33 12 1.66 12 2 C9.03 2 6.06 2 3 2 C2.67 2.66 2.34 3.32 2 4 C1.34 2.68 0.68 1.36 0 0 Z " fill="#756354" transform="translate(111,226)"/>
<path d="M0 0 C1.32 0.33 2.64 0.66 4 1 C4 3.31 4 5.62 4 8 C2 7 2 7 0 4 C-0.66 3.67 -1.32 3.34 -2 3 C-1.34 2.01 -0.68 1.02 0 0 Z " fill="#6B5E55" transform="translate(67,202)"/>
<path d="M0 0 C5.75 -0.125 5.75 -0.125 8 1 C8 1.99 8 2.98 8 4 C2.25 2.25 2.25 2.25 0 0 Z " fill="#817771" transform="translate(68,237)"/>
</svg>
