<?xml version="1.0" encoding="UTF-8"?>
<!-- Generator: visioncortex VTracer 0.6.12 -->
<svg xmlns:xlink="http://www.w3.org/1999/xlink" xmlns:sodipodi="http://sodipodi.sourceforge.net/DTD/sodipodi-0.0.dtd" xmlns:inkscape="http://www.inkscape.org/namespaces/inkscape" version="1.1" xmlns="http://www.w3.org/2000/svg" width="382" height="344">
<path d="M0,0 L382,0 L382,344 L0,344 Z M186,37 L180,40 L180,49 L184,53 L184,55 L182,56 L179,74 L176,83 L176,96 L178,102 L200,102 L200,106 L184,106 L180,108 L204,108 L201,107 L201,102 L208,103 L210,101 L210,85 L206,74 L205,53 L206,44 L203,38 L199,37 Z M154,115 L72,116 L72,117 L53,117 L49,119 L45,122 L41,124 L37,131 L36,137 L34,141 L32,140 L24,159 L24,165 L28,168 L36,167 L34,165 L38,160 L42,163 L67,163 L75,161 L79,163 L112,163 L112,161 L115,163 L145,164 L153,167 L155,174 L156,174 L159,154 L159,118 L157,119 L155,118 L157,116 Z M233,116 L228,118 L227,122 L225,119 L225,136 L227,136 L227,140 L225,140 L224,149 L225,158 L225,168 L228,174 L230,173 L231,167 L235,167 L237,161 L238,164 L272,164 L273,162 L272,160 L274,160 L274,164 L289,165 L300,165 L306,163 L309,161 L312,164 L324,165 L334,165 L341,163 L343,164 L345,162 L350,167 L349,169 L357,172 L360,167 L359,163 L358,164 L358,158 L350,139 L348,140 L346,134 L344,128 L340,124 L338,124 L338,121 L323,117 L306,117 L303,118 L285,119 L285,117 L282,116 Z M173,251 L173,313 L175,317 L176,311 L175,253 Z M178,263 L178,283 L179,287 L191,290 L198,290 L203,289 L206,283 L206,265 L201,263 Z M115,269 L114,271 L115,273 L116,301 L117,299 L119,299 L118,272 Z " fill="#F5F5F5" transform="translate(0,0)"/>
<path d="M0,0 L3,1 L107,1 L109,3 L107,3 L109,7 L112,9 L112,13 L114,13 L127,43 L128,48 L120,46 L118,45 L117,39 L115,39 L110,23 L105,14 L100,9 L93,7 L93,6 L74,5 L10,5 L10,7 L6,8 L6,42 L3,45 L1,44 L1,42 L-2,41 Z " fill="#F2F2F1" transform="translate(229,119)"/>
<path d="M0,0 L73,1 L75,3 L13,4 L-1,7 L-5,11 L-5,16 L-8,17 L-9,20 L-6,25 L-9,25 L-9,27 L-11,26 L-12,25 L-14,34 L-15,38 L-12,41 L-10,42 L16,42 L12,44 L-13,44 L-17,41 L-20,45 L-26,46 L-29,44 L-28,38 L-24,29 L-22,29 L-22,27 L-24,27 L-23,21 L-22,23 L-19,22 L-14,10 L-11,5 L0,1 Z " fill="#D9D6D2" transform="translate(55,119)"/>
<path d="M0,0 L13,2 L17,5 L18,26 L20,39 L20,47 L16,50 L13,49 L-2,48 L-2,46 L13,45 L14,25 L12,25 L7,20 L-2,22 L-4,32 L-5,42 L-6,42 L-6,26 L-5,21 L-7,22 L-7,10 L-6,4 L-3,4 Z M14,48 Z " fill="#D7D1B6" transform="translate(188,51)"/>
<path d="M0,0 L4,2 L7,4 L7,6 L9,6 L9,26 L8,27 L-7,27 L-7,29 L8,29 L9,31 L-14,31 L-15,29 L-15,18 L-13,5 L-9,1 L-10,13 L-7,3 Z M9,29 Z " fill="#F2EFE2" transform="translate(193,70)"/>
<path d="M0,0 L7,0 L9,1 L8,5 L7,6 L8,16 L6,20 L-2,22 L-10,21 L-15,17 L-15,1 L-3,2 L3,2 Z " fill="#F4F4F4" transform="translate(196,265)"/>
<path d="M0,0 L1,0 L2,5 L4,7 L4,16 L7,18 L6,19 L17,20 L17,21 L5,22 L3,20 L1,28 L-2,28 L0,20 L-2,19 L-1,18 L-14,18 L-14,19 L-22,19 L-25,14 L-24,5 L-22,3 L-3,1 Z M-20,11 L-22,14 L-21,15 L-3,15 L-4,11 Z " fill="#CFCBC5" transform="translate(73,125)"/>
<path d="M0,0 L22,0 L25,1 L26,31 L24,31 L24,42 L19,40 L18,4 L3,2 Z " fill="#F8F8F7" transform="translate(130,120)"/>
<path d="M0,0 L13,0 L17,1 L20,7 L20,12 L18,12 L18,15 L10,14 L10,13 L-4,12 L-5,4 L-2,1 Z " fill="#DEDBCD" transform="translate(186,37)"/>
<path d="M0,0 L1,0 L2,9 L4,5 L11,4 L30,4 L37,6 L37,14 L6,14 L3,12 L3,14 L-3,14 L-2,9 L-8,7 L-8,4 L0,4 Z M5,7 L4,10 L7,11 L36,11 L34,8 L32,7 Z " fill="#968C82" transform="translate(109,149)"/>
<path d="M0,0 L3,2 L6,3 L4,7 L2,11 L7,12 L7,14 L4,14 L3,21 L3,24 L7,25 L1,27 L0,25 L-3,25 L-3,23 L-1,23 L0,15 L-7,14 L-7,13 L-2,12 L-2,11 L-30,12 L-31,11 L-31,5 L-28,5 L-28,7 L-3,7 L0,6 L-6,4 L-2,2 Z " fill="#F1F0EE" transform="translate(272,131)"/>
<path d="M0,0 L49,0 L52,1 L52,3 L50,5 L-1,5 L-4,3 L-3,8 L-4,28 L-6,26 L-6,6 L-5,2 Z " fill="#7F766D" transform="translate(233,116)"/>
<path d="M0,0 L13,1 L18,3 L18,12 L17,17 L16,17 L15,6 L12,5 L12,3 L-59,4 L-64,6 L-75,7 L-76,9 L-76,7 L-78,6 L-76,4 L-62,1 Z " fill="#7A7064" transform="translate(130,121)"/>
<path d="M0,0 L3,1 L8,9 L8,14 L5,10 L4,10 L1,11 L0,10 L-13,10 L-15,11 L-13,12 L6,13 L6,17 L-13,16 L-18,14 L-19,7 L-16,6 L-16,4 L-14,3 L0,2 L1,5 L-1,6 L2,7 Z " fill="#8E857B" transform="translate(330,129)"/>
<path d="M0,0 L23,0 L28,2 L28,20 L25,26 L20,27 L7,26 L1,24 L0,20 Z M1,1 L1,19 L4,24 L8,23 L16,24 L24,22 L26,18 L25,6 L27,7 L27,3 L25,2 L18,2 L20,4 L9,4 L11,2 Z " fill="#584F44" transform="translate(178,263)"/>
<path d="M0,0 L2,1 L4,8 L7,6 L26,6 L26,9 L25,15 L21,16 L19,15 L19,17 L2,17 L-1,16 L-1,13 L-5,13 L-4,5 L-2,9 L-1,8 L1,7 L-2,3 L-1,1 Z M1,10 L1,14 L24,14 L24,11 L20,10 Z " fill="#7E7366" transform="translate(47,136)"/>
<path d="M0,0 L8,0 L14,2 L32,3 L29,8 L4,9 L0,13 L0,5 L-2,1 Z " fill="#E9E7E5" transform="translate(111,144)"/>
<path d="M0,0 L23,0 L28,5 L28,10 L18,9 L18,8 L26,7 L26,5 L21,6 L9,7 L7,4 L3,5 L1,4 L-24,4 L-24,1 Z " fill="#AFA9A1" transform="translate(304,126)"/>
<path d="M0,0 L1,0 L2,5 L3,7 L14,8 L31,8 L32,11 L31,14 L3,15 L0,12 Z " fill="#E8E5E2" transform="translate(239,138)"/>
<path d="M0,0 L26,1 L26,2 L5,2 L5,4 L22,4 L33,5 L33,14 L30,16 L26,15 L1,15 L2,13 L27,12 L29,9 L12,8 L6,6 L0,6 L-2,4 Z " fill="#6D6256" transform="translate(113,139)"/>
<path d="M0,0 L14,1 L25,1 L30,3 L30,5 L28,5 L28,7 L-1,7 L-4,3 Z " fill="#F1F0EE" transform="translate(243,155)"/>
<path d="M0,0 L5,0 L7,7 L-22,7 L-25,4 L-22,1 Z " fill="#EAE7E4" transform="translate(101,145)"/>
<path d="M0,0 L64,0 L64,2 L59,3 L6,3 L6,1 L-3,2 Z " fill="#9E9288" transform="translate(239,123)"/>
<path d="M0,0 L2,0 L4,7 L6,9 L3,9 L2,11 L1,13 L1,25 L5,29 L5,31 L3,33 L3,36 L1,34 L-3,33 L-3,5 L-2,1 Z " fill="#A8A19A" transform="translate(237,126)"/>
<path d="M0,0 L1,4 L1,37 L-1,48 L-3,45 L-8,45 L-4,44 L-4,33 L-2,33 L-3,31 L-3,4 L-1,3 Z " fill="#3C352E" transform="translate(158,118)"/>
<path d="M0,0 L3,0 L6,3 L24,4 L27,5 L28,2 L28,10 L4,10 L3,7 L0,6 L-1,1 Z " fill="#6B6156" transform="translate(311,148)"/>
<path d="M0,0 L27,1 L26,7 L25,8 L5,8 L4,6 L0,4 Z " fill="#DEDAD7" transform="translate(78,136)"/>
<path d="M0,0 L71,0 L70,2 L37,2 L33,3 L8,2 L4,1 L4,3 L8,4 L6,5 L4,11 L3,11 L2,2 L-5,3 L-4,1 Z " fill="#2D2720" transform="translate(71,124)"/>
<path d="M0,0 L6,0 L12,2 L12,0 L15,0 L15,2 L18,3 L-3,4 L-3,6 L21,7 L21,5 L24,4 L25,6 L23,10 L-4,10 L-7,9 L-7,4 L-4,1 Z " fill="#A79D94" transform="translate(83,153)"/>
<path d="M0,0 L1,0 L1,15 L3,15 L3,41 L5,42 L5,44 L11,45 L10,48 L6,48 L4,55 L1,51 L0,49 L0,37 L-1,28 L0,21 L2,21 L2,17 L0,17 Z " fill="#4B463E" transform="translate(225,119)"/>
<path d="M0,0 L1,0 L1,5 L-2,7 L1,8 L3,12 L5,14 L1,15 L0,9 L-5,10 L-28,10 L-31,9 L-31,13 L-28,14 L-34,14 L-33,9 L-32,7 L-28,5 L-1,5 Z " fill="#4F463C" transform="translate(308,138)"/>
<path d="M0,0 L6,3 L26,3 L33,6 L32,8 L30,8 L4,7 L4,5 L1,5 L2,12 L0,13 L0,21 L-3,20 L-3,7 L-1,3 L0,2 Z " fill="#4C4339" transform="translate(240,131)"/>
<path d="M0,0 L27,1 L27,3 L31,4 L26,6 L0,6 L-2,9 L-4,9 L-5,6 L-7,4 L-4,4 L-4,2 L0,2 Z " fill="#463E36" transform="translate(114,132)"/>
<path d="M0,0 L1,0 L2,9 L2,24 L1,24 L1,15 L-25,15 L-27,14 L-27,12 L-6,12 L-6,10 L-4,10 L-4,6 L-4,4 L-1,4 Z " fill="#C7C2BD" transform="translate(145,129)"/>
<path d="M0,0 L59,0 L65,1 L64,3 L-9,2 L-9,1 Z " fill="#807163" transform="translate(66,118)"/>
<path d="M0,0 L1,0 L1,7 L-2,31 L1,32 L24,33 L21,34 L21,39 L24,40 L0,40 L4,38 L20,38 L20,34 L-2,34 L-4,28 L-4,15 L-1,6 Z " fill="#645B3B" transform="translate(180,68)"/>
<path d="M0,0 L31,0 L30,6 L3,5 L0,4 Z " fill="#F3F2F1" transform="translate(277,147)"/>
<path d="M0,0 L1,0 L2,31 L7,34 L8,31 L8,45 L6,42 L5,38 L-3,35 L-2,26 L-7,25 L-7,24 L-1,24 L-1,4 Z " fill="#877E74" transform="translate(148,129)"/>
<path d="M0,0 L2,2 L3,64 L1,66 L0,62 Z " fill="#796A5D" transform="translate(173,251)"/>
<path d="M0,0 L2,0 L1,8 L-1,8 L-1,10 L2,10 L1,13 L1,11 L-15,11 L-28,10 L-30,8 L-30,6 L0,6 Z " fill="#4B463E" transform="translate(270,146)"/>
<path d="M0,0 L4,4 L2,6 L-26,6 L-28,2 L-20,1 L0,2 Z " fill="#F5F5F4" transform="translate(303,156)"/>
<path d="M0,0 L27,0 L30,1 L31,4 L2,4 L-1,2 Z " fill="#F7F6F6" transform="translate(114,156)"/>
<path d="M0,0 L3,1 L3,4 L4,6 L4,14 L2,15 L1,9 L-5,10 L-7,9 L-7,11 L-10,11 L-10,9 L-13,9 L-13,11 L-18,11 L-19,10 L-29,10 L-30,13 L-32,13 L-33,17 L-36,17 L-36,12 L-31,10 L-31,7 L-3,7 L0,8 L-2,1 Z " fill="#423B31" transform="translate(108,144)"/>
<path d="M0,0 L27,1 L30,6 L4,5 L0,4 L-1,1 Z " fill="#F8F7F7" transform="translate(277,137)"/>
<path d="M0,0 L11,1 L12,3 L38,3 L37,6 L12,7 L9,7 L5,5 L6,4 L0,1 Z " fill="#E4E0DE" transform="translate(269,126)"/>
<path d="M0,0 L0,3 L-2,5 L-7,6 L-17,6 L-28,4 L-28,2 L-25,1 Z " fill="#5E5750" transform="translate(270,141)"/>
<path d="M0,0 L2,0 L2,2 L7,4 L7,7 L12,8 L8,10 L3,11 L1,10 L1,7 L-15,7 L-15,6 L2,6 L2,3 L-22,3 L-18,1 Z " fill="#9B8F86" transform="translate(103,134)"/>
<path d="M0,0 L25,0 L26,4 L0,4 L-3,2 Z " fill="#FAFAFA" transform="translate(45,156)"/>
<path d="M0,0 L7,1 L7,2 L26,3 L30,4 L30,2 L32,2 L31,6 L4,6 L1,5 L1,3 L-1,2 Z " fill="#EDEBEA" transform="translate(239,126)"/>
<path d="M0,0 L3,4 L6,18 L8,18 L9,24 L6,22 L4,24 L3,23 L-5,23 L-5,22 L2,22 L0,16 L-6,15 L-6,14 L1,14 L0,11 L-2,11 L-1,8 L2,9 Z " fill="#989187" transform="translate(338,140)"/>
<path d="M0,0 L24,0 L25,2 L24,4 L0,4 L-2,2 Z " fill="#FAFAFA" transform="translate(80,156)"/>
<path d="M0,0 L66,0 L80,1 L80,2 L46,2 L0,1 Z " fill="#544B41" transform="translate(237,119)"/>
<path d="M0,0 L24,0 L25,4 L2,4 L-2,1 Z " fill="#FAFAFA" transform="translate(315,158)"/>
<path d="M0,0 L5,0 L6,3 L2,5 L-25,5 L-20,1 Z " fill="#665A4D" transform="translate(301,131)"/>
<path d="M0,0 L1,2 L5,1 L7,3 L9,5 L25,6 L31,7 L31,8 L26,9 L16,9 L4,8 L0,5 L-4,2 Z " fill="#6A5F54" transform="translate(308,156)"/>
<path d="M0,0 L3,2 L5,1 L10,9 L11,15 L12,17 L14,16 L19,28 L19,33 L16,32 L7,12 L7,9 L5,9 L3,5 L-1,1 Z " fill="#79726C" transform="translate(336,123)"/>
<path d="M0,0 L3,2 L-23,3 L-23,4 L-33,3 L-82,2 L-82,1 Z " fill="#60574B" transform="translate(154,115)"/>
<path d="M0,0 L4,0 L4,2 L33,1 L30,4 L28,4 L28,6 L3,5 L2,3 L-2,1 Z " fill="#62564A" transform="translate(241,124)"/>
<path d="M0,0 L20,0 L23,1 L21,7 L18,6 L18,4 L-10,3 L-12,1 Z " fill="#8F8378" transform="translate(286,135)"/>
<path d="M0,0 L30,1 L30,0 L41,0 L37,1 L37,3 L32,4 L32,7 L30,7 L30,3 L4,3 L0,2 Z " fill="#A4998F" transform="translate(75,125)"/>
<path d="M0,0 L2,1 L2,9 L20,9 L24,12 L25,9 L25,16 L21,14 L9,12 L6,14 L4,13 L0,9 Z " fill="#6D643D" transform="translate(180,40)"/>
<path d="M0,0 L4,1 L31,2 L32,4 L5,4 L2,3 L2,5 L-2,5 L-2,7 L-5,6 L-6,4 L-4,4 L-4,1 Z " fill="#A59B91" transform="translate(112,129)"/>
<path d="M0,0 L16,1 L20,2 L20,4 L22,4 L22,6 L1,5 L-2,2 Z " fill="#F7F6F6" transform="translate(316,147)"/>
<path d="M0,0 L19,0 L23,1 L23,4 L0,4 Z " fill="#FAFAFA" transform="translate(48,146)"/>
<path d="M0,0 L4,5 L34,5 L32,8 L27,9 L16,9 L1,8 Z " fill="#655B4F" transform="translate(273,156)"/>
<path d="M0,0 L3,1 L5,6 L3,7 L4,14 L6,16 L1,20 L0,17 L-4,16 L-1,14 L0,7 L-4,6 L-2,5 L-1,1 Z " fill="#FAFAFA" transform="translate(309,129)"/>
<path d="M0,0 L2,3 L2,6 L-22,5 L-24,6 L-26,4 L-23,1 L-4,2 L-2,3 L-1,1 Z " fill="#484038" transform="translate(338,143)"/>
<path d="M0,0 L3,4 L5,8 L4,11 L3,7 L-16,7 L-19,4 L-16,3 L-3,3 L-1,3 Z " fill="#F8F7F7" transform="translate(333,135)"/>
<path d="M0,0 L29,0 L28,3 L2,4 Z " fill="#F4F3F2" transform="translate(76,128)"/>
<path d="M0,0 L13,1 L13,2 L3,3 L3,4 L-6,7 L-9,8 L-14,18 L-17,25 L-19,24 L-16,16 L-14,11 L-11,6 L-4,3 L-4,1 Z " fill="#4E473F" transform="translate(53,117)"/>
<path d="M0,0 L4,1 L7,2 L36,3 L37,1 L38,4 L37,5 L3,5 L2,2 L1,4 L-1,4 Z " fill="#463F34" transform="translate(235,159)"/>
<path d="M0,0 L3,4 L2,6 L3,11 L1,13 L-4,13 L-5,15 L-5,13 L-28,13 L-26,11 L-3,11 L-1,12 L-1,5 Z " fill="#877D72" transform="translate(75,143)"/>
<path d="M0,0 L26,0 L30,2 L30,5 L25,4 L4,3 L4,1 Z " fill="#363029" transform="translate(127,117)"/>
<path d="M0,0 L2,0 L2,3 L8,4 L10,7 L4,8 L-2,7 L-2,5 L-10,5 L-10,4 L-25,3 L-25,2 L-4,2 L0,3 Z " fill="#BFBBB5" transform="translate(307,150)"/>
<path d="M0,0 L2,4 L2,8 L-2,9 L-1,11 L2,12 L28,13 L29,9 L29,14 L13,15 L2,15 L-3,12 L-4,9 Z " fill="#EFEEEC" transform="translate(43,147)"/>
<path d="M0,0 L25,0 L28,3 L1,3 L-2,1 Z " fill="#FAFAFA" transform="translate(115,128)"/>
<path d="M0,0 L21,0 L17,3 L-29,3 L-29,2 L-12,1 L-5,1 Z " fill="#322C24" transform="translate(303,124)"/>
<path d="M0,0 L17,0 L26,2 L22,4 L11,4 L-3,3 L-3,1 Z " fill="#302A23" transform="translate(306,117)"/>
<path d="M0,0 L5,1 L5,3 L8,5 L3,6 L1,4 L-1,6 L-26,7 L-26,5 L-30,4 L-28,3 L-1,3 Z " fill="#7E7165" transform="translate(271,128)"/>
<path d="M0,0 L5,2 L3,7 L-1,4 L-28,4 L-29,1 Z " fill="#877B6E" transform="translate(141,125)"/>
<path d="M0,0 L26,0 L27,2 L25,3 L2,3 L-2,1 Z " fill="#F8F7F7" transform="translate(114,137)"/>
<path d="M0,0 L3,0 L5,7 L5,11 L7,10 L6,15 L3,19 L-4,16 L-3,14 L-6,11 L-4,10 L-4,12 L4,14 L0,4 Z " fill="#685F57" transform="translate(353,153)"/>
<path d="M0,0 L3,4 L5,11 L5,27 L3,29 L-1,29 L0,25 L2,24 L1,8 Z " fill="#A2955E" transform="translate(205,74)"/>
<path d="M0,0 L10,1 L10,2 L2,2 L3,7 L4,7 L5,19 L5,23 L2,22 L0,18 Z " fill="#ADA6A0" transform="translate(179,264)"/>
<path d="M0,0 L9,0 L9,1 L2,1 L3,5 L7,7 L7,8 L30,8 L30,10 L25,11 L14,11 L3,10 L0,6 Z " fill="#383128" transform="translate(76,135)"/>
<path d="M0,0 L16,0 L17,4 L-1,4 L-1,1 Z " fill="#F1EFEE" transform="translate(53,136)"/>
<path d="M0,0 L3,1 L3,3 L1,3 L-2,12 L-3,18 L4,19 L6,22 L-2,23 L-6,20 L-5,11 Z " fill="#49443F" transform="translate(30,145)"/>
<path d="M0,0 L6,1 L30,2 L32,4 L29,5 L29,3 L27,4 L1,4 Z " fill="#2D2720" transform="translate(76,131)"/>
<path d="M0,0 L1,3 L21,4 L21,2 L26,2 L26,4 L29,4 L29,6 L4,6 L-1,9 L-4,9 L-4,7 L0,6 L-2,2 L0,2 Z " fill="#3D372F" transform="translate(45,149)"/>
<path d="M0,0 L2,1 L2,3 L28,4 L29,7 L4,7 L4,5 L-1,4 Z " fill="#908B85" transform="translate(275,138)"/>
<path d="M0,0 L2,1 L-2,4 L-4,3 L-4,6 L-30,6 L-32,4 L-7,3 L-7,5 L-5,5 L-5,2 Z " fill="#74675A" transform="translate(112,127)"/>
<path d="M0,0 L3,3 L4,30 L2,30 L1,32 L0,4 L-1,1 Z " fill="#7A6C5E" transform="translate(115,269)"/>
<path d="M0,0 L9,0 L9,2 L17,3 L17,4 L-11,4 L-9,2 L0,2 Z " fill="#877B70" transform="translate(286,154)"/>
<path d="M0,0 L24,1 L24,2 L30,3 L29,5 L20,4 L20,2 L11,2 L11,4 L4,4 L0,3 Z " fill="#635A4F" transform="translate(275,152)"/>
</svg>
