<?xml version="1.0" encoding="UTF-8"?>
<!-- Generator: visioncortex VTracer 0.6.12 -->
<svg xmlns:xlink="http://www.w3.org/1999/xlink" xmlns:sodipodi="http://sodipodi.sourceforge.net/DTD/sodipodi-0.0.dtd" xmlns:inkscape="http://www.inkscape.org/namespaces/inkscape" version="1.1" xmlns="http://www.w3.org/2000/svg" width="304" height="344">
<path d="M0,0 L304,0 L304,344 L0,344 Z M195,20 L195,22 L185,26 L179,28 L178,30 L173,35 L168,47 L167,57 L169,73 L169,85 L166,92 L159,98 L145,106 L129,114 L121,117 L119,121 L117,123 L115,122 L108,131 L107,134 L105,134 L98,143 L97,146 L95,146 L92,152 L90,152 L88,157 L85,158 L76,169 L67,180 L62,183 L52,185 L48,187 L42,188 L23,188 L22,196 L33,201 L41,202 L44,203 L36,208 L29,209 L29,211 L22,214 L21,218 L25,220 L26,223 L35,224 L40,226 L22,228 L20,230 L22,230 L22,232 L20,234 L23,235 L39,235 L67,231 L77,229 L79,227 L91,224 L117,224 L117,225 L114,226 L112,233 L117,235 L128,231 L135,231 L137,237 L137,254 L136,258 L99,257 L76,255 L52,250 L41,250 L35,252 L33,261 L34,265 L36,266 L37,269 L44,272 L47,272 L47,274 L54,276 L84,281 L91,282 L91,284 L103,286 L110,288 L110,300 L108,306 L104,307 L106,308 L105,311 L107,311 L107,314 L111,315 L124,315 L134,310 L139,312 L147,316 L159,317 L171,314 L176,310 L188,317 L200,317 L206,315 L206,308 L201,303 L200,294 L202,289 L207,287 L221,283 L262,277 L273,273 L277,266 L277,256 L275,257 L275,254 L271,251 L260,251 L254,253 L229,254 L221,255 L182,257 L170,257 L168,255 L167,234 L170,227 L173,224 L195,222 L203,220 L207,218 L213,215 L222,212 L235,204 L243,197 L254,183 L262,165 L263,161 L264,148 L264,133 L260,116 L249,98 L246,90 L245,78 L249,76 L259,77 L268,79 L276,85 L280,83 L283,79 L285,72 L285,64 L282,58 L280,57 L275,53 L255,44 L248,41 L245,36 L243,35 L241,30 L238,27 L228,23 L215,20 Z " fill="#F9F9F9" transform="translate(0,0)"/>
<path d="M0,0 L13,0 L26,3 L32,7 L38,17 L38,27 L33,31 L26,33 L18,34 L17,36 L24,35 L23,41 L14,37 L14,39 L20,41 L22,42 L22,44 L27,46 L31,55 L29,59 L21,59 L24,66 L29,72 L36,84 L40,101 L40,109 L35,128 L27,144 L21,153 L17,151 L15,148 L10,160 L8,160 L6,166 L-1,175 L-4,176 L-6,178 L-20,184 L-33,186 L-50,187 L-50,184 L-42,179 L-35,175 L-34,172 L-31,171 L-30,168 L-41,167 L-42,165 L-38,161 L-35,156 L-27,148 L-19,141 L-11,132 L-6,127 L-5,125 L-7,124 L-10,122 L-11,124 L-15,123 L-17,125 L-18,120 L-19,114 L-19,99 L-16,87 L-8,73 L-7,69 L-16,71 L-20,71 L-20,73 L-26,74 L-28,72 L-27,63 L-25,53 L-26,38 L-27,25 L-24,14 L-19,8 L-8,3 Z " fill="#F6F7F8" transform="translate(204,29)"/>
<path d="M0,0 L11,0 L18,2 L18,37 L15,49 L10,59 L8,61 L3,66 L3,68 L8,63 L6,69 L4,71 L4,74 L0,75 L-6,74 L-11,78 L-22,84 L-24,88 L-19,91 L-14,92 L-12,96 L-14,100 L-11,101 L-13,102 L-16,102 L-19,101 L-15,96 L-22,100 L-39,100 L-73,99 L-69,95 L-58,87 L-54,85 L-52,81 L-52,78 L-65,75 L-70,71 L-71,64 L-64,48 L-57,41 L-48,30 L-37,17 L-32,11 L-24,6 L-17,3 Z M-8,19 L-14,29 L-18,35 L-15,35 L-13,32 L-11,33 L-9,31 L-6,32 L-8,33 L-8,38 L-7,34 L-5,35 L-7,39 L-10,40 L-12,37 L-14,42 L-21,46 L-29,52 L-28,48 L-18,41 L-18,38 L-20,36 L-24,41 L-28,43 L-30,46 L-35,51 L-42,59 L-46,66 L-45,73 L-38,67 L-35,62 L-35,60 L-32,60 L-27,55 L-18,48 L-3,40 L-1,36 L-3,19 Z " fill="#F8F9F9" transform="translate(157,115)"/>
<path d="M0,0 L14,0 L22,5 L18,8 L28,10 L29,11 L37,12 L37,10 L34,9 L38,8 L51,8 L53,7 L64,7 L75,10 L78,12 L79,16 L79,25 L81,26 L79,30 L76,32 L76,40 L81,43 L88,46 L87,49 L94,52 L100,53 L100,54 L92,54 L76,50 L76,46 L67,47 L67,43 L66,52 L61,53 L57,49 L58,42 L59,41 L58,32 L59,24 L57,29 L53,29 L52,25 L40,23 L37,24 L28,22 L31,19 L26,17 L21,18 L9,16 L7,17 L-3,16 L-15,12 L-17,10 L-16,9 L-18,8 L-19,10 L-20,6 L-19,3 L-16,3 L-15,1 L-2,1 Z " fill="#E9EAED" transform="translate(61,258)"/>
<path d="M0,0 L5,2 L12,8 L20,22 L24,38 L24,51 L20,68 L14,80 L10,88 L5,91 L1,97 L-3,98 L-9,101 L-9,83 L-4,85 L4,72 L10,58 L14,42 L14,34 L10,17 L1,2 Z " fill="#F9F9F9" transform="translate(229,96)"/>
<path d="M0,0 L9,0 L10,2 L9,4 L9,30 L10,40 L16,41 L23,40 L24,46 L32,45 L46,45 L45,48 L43,48 L44,51 L4,51 L0,47 L1,24 L1,11 L-1,6 L-3,2 Z " fill="#F9F9F9" transform="translate(144,225)"/>
<path d="M0,0 L12,0 L12,3 L29,4 L33,6 L32,9 L33,11 L27,12 L27,14 L34,12 L39,12 L39,14 L15,20 L11,21 L8,30 L6,29 L7,23 L5,23 L3,18 L-1,15 L1,12 L2,13 L2,10 L6,9 L4,8 L4,6 L6,5 L5,5 L-2,4 Z " fill="#E6E7EB" transform="translate(190,264)"/>
<path d="M0,0 L8,1 L12,2 L19,12 L17,18 L19,18 L20,12 L22,15 L26,26 L28,31 L25,32 L25,27 L21,27 L20,30 L14,32 L8,29 L7,25 L6,27 L0,26 L-1,22 L2,21 L2,10 L5,10 L4,3 L2,3 L2,1 Z " fill="#E3E5E9" transform="translate(175,281)"/>
<path d="M0,0 L9,2 L11,3 L11,5 L7,6 L6,4 L6,6 L8,7 L13,5 L24,12 L27,18 L25,25 L19,22 L15,20 L8,18 L1,18 L-7,21 L-13,21 L-14,16 L-7,11 L-3,5 L-1,1 Z " fill="#F8F8F8" transform="translate(251,51)"/>
<path d="M0,0 L13,0 L20,2 L24,6 L24,11 L15,15 L-3,14 L-8,11 L-9,5 L-4,1 Z " fill="#FAFAFA" transform="translate(147,286)"/>
<path d="M0,0 L16,0 L18,2 L10,8 L-3,15 L-15,17 L-25,16 L-21,12 L-12,6 L-10,6 L-10,4 Z " fill="#F9F9F9" transform="translate(65,201)"/>
<path d="M0,0 L4,2 L3,3 L19,8 L25,8 L28,7 L42,9 L45,8 L45,10 L50,10 L47,13 L48,14 L56,15 L60,14 L70,17 L71,21 L68,21 L65,22 L60,20 L48,18 L48,16 L36,14 L11,10 L4,8 L4,6 L-1,5 L-3,4 L-2,1 Z " fill="#6A7592" transform="translate(43,266)"/>
<path d="M0,0 L3,1 L5,11 L5,25 L4,33 L2,34 L0,45 L-3,54 L-7,58 L-6,54 L-9,53 L-10,49 L-6,42 L-2,29 L0,6 L-1,1 Z " fill="#EBECEF" transform="translate(256,124)"/>
<path d="M0,0 L2,3 L3,8 L19,8 L21,11 L39,13 L40,11 L42,16 L39,15 L39,17 L42,18 L39,21 L39,19 L37,19 L38,23 L32,25 L31,23 L-7,23 L-7,21 L32,20 L32,18 L35,15 L13,16 L13,14 L11,13 L12,10 L2,12 L-1,10 L-2,4 L0,4 Z " fill="#7B85A1" transform="translate(155,255)"/>
<path d="M0,0 L1,0 L2,9 L6,19 L8,19 L9,25 L12,27 L13,31 L12,33 L14,33 L16,40 L16,44 L18,44 L19,51 L18,53 L16,53 L12,37 L6,26 L1,21 L-5,16 L-10,15 L-10,12 L-11,7 L-3,7 L-2,1 Z " fill="#8B94AC" transform="translate(236,81)"/>
<path d="M0,0 L17,0 L21,1 L26,2 L22,4 L6,6 L-4,7 L-8,11 L-11,18 L-11,39 L-14,35 L-16,29 L-16,15 L-14,15 L-13,8 L-14,3 L-9,5 L-9,8 L-5,3 L0,2 Z " fill="#AFB6C6" transform="translate(177,217)"/>
<path d="M0,0 L2,1 L-1,6 L4,8 L9,6 L12,6 L11,10 L3,15 L0,15 L1,17 L-7,21 L-10,22 L-14,22 L-13,19 L-8,18 L-9,11 L-12,11 L-12,9 L-18,11 L-19,9 L-22,8 L-14,4 L-9,5 L-7,8 L-4,7 L-2,2 Z " fill="#E5E6EA" transform="translate(159,191)"/>
<path d="M0,0 L23,3 L24,7 L25,5 L26,9 L24,14 L22,14 L23,23 L24,30 L26,33 L27,42 L24,38 L22,35 L21,35 L20,13 L22,11 L22,9 L18,11 L17,8 L14,8 L5,8 L3,9 L2,15 L0,12 L-4,8 L-4,5 L2,4 L0,3 Z " fill="#7B839D" transform="translate(139,218)"/>
<path d="M0,0 L2,1 L11,1 L13,3 L11,4 L-5,5 L-12,8 L-15,8 L-15,10 L-26,17 L-29,19 L-20,20 L-8,18 L8,10 L7,13 L5,13 L5,15 L-6,21 L-15,23 L-30,23 L-34,22 L-34,17 L-24,12 L-22,12 L-21,10 L-12,4 L-8,2 L-8,1 Z M8,9 Z " fill="#657190" transform="translate(70,197)"/>
<path d="M0,0 L9,1 L7,3 L15,7 L20,8 L18,9 L19,16 L17,13 L12,18 L9,22 L-11,20 L-22,17 L-23,16 L-23,8 L-17,3 L-13,2 L0,2 Z M-12,4 L-19,7 L-21,9 L-20,15 L-15,18 L3,19 L12,15 L11,8 L6,5 L1,4 Z " fill="#667291" transform="translate(159,282)"/>
<path d="M0,0 L3,0 L5,1 L3,5 L1,7 L-6,10 L-11,14 L-8,15 L-7,13 L-6,14 L14,12 L23,9 L31,10 L32,12 L28,14 L32,16 L28,18 L28,17 L17,16 L15,15 L9,15 L3,18 L-18,17 L-15,14 L-19,11 L-14,11 L-11,10 L-10,8 L-7,7 L-6,4 L-1,3 Z M15,13 Z " fill="#7E8AA5" transform="translate(165,201)"/>
<path d="M0,0 L20,0 L25,2 L25,4 L20,5 L6,4 L-11,9 L-13,11 L-18,16 L-22,18 L-23,13 L-19,8 L-14,4 L-6,1 Z " fill="#F0F1F3" transform="translate(200,23)"/>
<path d="M0,0 L1,0 L0,12 L-2,23 L-1,20 L7,18 L8,22 L7,27 L4,27 L-3,31 L-10,29 L-10,22 L-8,20 L-7,16 L-2,5 Z " fill="#D6D8E0" transform="translate(218,181)"/>
<path d="M0,0 L15,0 L28,1 L29,6 L23,8 L22,5 L24,4 L23,3 L-3,3 L-17,7 L-17,8 L-50,12 L-57,11 L-57,10 L-43,8 L-36,8 L-36,6 L-24,2 L-22,3 L-25,5 L-10,2 Z " fill="#6D7896" transform="translate(94,221)"/>
<path d="M0,0 L2,0 L3,4 L8,3 L9,7 L11,12 L13,16 L10,16 L2,16 L0,16 L3,19 L-3,19 L-7,13 L-7,8 L-9,7 L-6,6 L-2,10 L1,11 L-5,7 L-4,2 Z " fill="#F1F1F3" transform="translate(75,180)"/>
<path d="M0,0 L6,2 L4,8 L3,10 L-1,8 L-5,7 L-11,10 L-7,12 L-3,11 L-3,13 L0,13 L2,18 L-2,22 L-6,21 L-7,18 L-15,17 L-18,14 L-17,10 L-1,1 Z " fill="#8891A9" transform="translate(150,189)"/>
<path d="M0,0 L2,1 L4,15 L6,20 L-1,19 L-16,19 L-11,14 L-22,16 L-17,11 L-11,9 L-1,9 L-2,5 L-4,4 Z M-16,15 Z M-18,16 L-16,17 Z " fill="#ECEDEF" transform="translate(167,94)"/>
<path d="M0,0 L18,0 L15,2 L12,3 L16,6 L13,10 L8,8 L3,11 L-5,11 L-12,12 L-14,7 L-6,4 L0,3 Z " fill="#B8BCC9" transform="translate(237,263)"/>
<path d="M0,0 L4,2 L4,5 L4,6 L8,11 L11,18 L11,30 L10,35 L8,36 L7,40 L2,43 L-24,43 L-27,42 L-27,40 L4,40 L5,35 L7,25 L6,16 L2,10 L-3,9 L-2,4 L1,2 Z " fill="#99A1B6" transform="translate(132,219)"/>
<path d="M0,0 L7,0 L6,6 L25,6 L36,3 L40,2 L39,7 L40,11 L32,14 L26,14 L26,12 L15,10 L2,8 L2,3 L0,2 Z " fill="#E7E8EC" transform="translate(30,213)"/>
<path d="M0,0 L2,1 L3,27 L3,39 L10,37 L20,38 L21,41 L16,44 L17,40 L14,39 L13,41 L13,39 L7,39 L7,43 L5,43 L5,51 L3,51 L2,42 L0,47 L-1,47 L0,39 L-1,36 L-1,2 Z " fill="#5B6586" transform="translate(176,116)"/>
<path d="M0,0 L3,1 L7,2 L16,4 L27,10 L30,14 L31,18 L30,27 L27,34 L26,32 L28,23 L26,14 L19,9 L24,14 L18,14 L9,9 L4,11 L1,8 L3,6 L4,9 L8,8 L8,6 L-3,3 Z " fill="#6B7695" transform="translate(254,48)"/>
<path d="M0,0 L30,0 L28,6 L31,5 L30,10 L23,14 L18,14 L20,12 L18,11 L18,8 L17,6 L24,5 L24,3 L13,4 L9,5 L1,5 L-5,2 L-5,1 Z " fill="#E4E6EA" transform="translate(242,259)"/>
<path d="M0,0 L3,0 L5,7 L5,20 L4,45 L6,46 L3,49 L1,48 L-1,51 L-3,41 L-7,38 L-5,38 L-5,35 L1,35 L2,23 L1,8 L0,6 Z " fill="#717B98" transform="translate(141,229)"/>
<path d="M0,0 L2,0 L2,7 L-4,7 L-4,10 L-12,8 L-27,8 L-30,9 L-47,9 L-52,10 L-58,9 L-55,6 L-58,3 L-38,4 L-34,5 L-3,5 L0,4 Z " fill="#FAFAFA" transform="translate(140,257)"/>
<path d="M0,0 L3,3 L4,6 L7,3 L6,10 L6,25 L7,31 L6,36 L-2,38 L-2,25 L0,25 L1,17 L2,10 L0,7 Z " fill="#9CA3B7" transform="translate(180,118)"/>
<path d="M0,0 L4,2 L6,12 L6,14 L-6,15 L-8,14 L-8,12 L-5,10 L-8,9 L-12,11 L-18,10 L-19,6 L-11,6 L-8,4 L-5,4 L-5,2 Z " fill="#CED0D9" transform="translate(64,186)"/>
<path d="M0,0 L2,2 L2,5 L-8,12 L-10,16 L-12,16 L-14,22 L-16,23 L-15,27 L-24,37 L-26,34 L-25,28 L-18,18 L-11,10 L-9,9 L-7,6 L-4,5 Z " fill="#8690A9" transform="translate(137,151)"/>
<path d="M0,0 L3,0 L2,4 L1,5 L-5,19 L-7,23 L-9,17 L-9,23 L-7,28 L-10,41 L-11,41 L-12,34 L-13,15 L-15,10 L-11,9 L-11,11 L-8,10 L-6,13 L-2,4 L-9,4 L-7,2 Z " fill="#F2F3F4" transform="translate(190,102)"/>
<path d="M0,0 L1,0 L1,5 L-2,8 L-3,15 L-7,17 L-10,24 L-16,25 L-22,33 L-24,33 L-26,37 L-31,42 L-35,44 L-33,40 L-29,36 L-26,33 L-24,30 L-22,28 L-19,24 L-17,22 L-13,16 L-9,12 L-7,10 L-3,4 Z " fill="#96A0B7" transform="translate(115,122)"/>
<path d="M0,0 L1,0 L3,14 L9,25 L16,36 L19,47 L19,53 L17,49 L16,42 L10,43 L9,39 L9,37 L7,36 L8,31 L6,31 L5,27 L6,24 L3,23 L1,17 L-1,8 Z " fill="#AFB9CB" transform="translate(244,80)"/>
<path d="M0,0 L2,0 L3,6 L1,16 L3,17 L3,36 L0,45 L-4,48 L-2,49 L-3,53 L-15,54 L-21,57 L-20,54 L-6,45 L-1,39 L0,35 Z " fill="#606A8A" transform="translate(169,50)"/>
<path d="M0,0 L2,0 L3,3 L13,5 L13,7 L29,7 L33,10 L28,11 L27,14 L22,15 L12,21 L12,17 L19,12 L10,10 L6,9 L6,7 L0,5 L-1,1 Z " fill="#717B98" transform="translate(25,191)"/>
<path d="M0,0 L1,2 L-1,5 L-3,5 L-3,7 L-8,12 L-12,16 L-8,15 L-6,11 L-5,13 L-4,21 L-6,21 L-7,17 L-13,19 L-14,22 L-19,21 L-33,28 L-39,29 L-38,32 L-40,32 L-40,29 L-49,29 L-49,28 L-35,27 L-35,25 L-20,19 L-14,14 L-6,4 Z " fill="#616C8B" transform="translate(84,163)"/>
<path d="M0,0 L2,0 L2,21 L-3,37 L-6,42 L-4,45 L-3,42 L-2,42 L-2,47 L-5,51 L-7,51 L-8,47 L-11,52 L-13,48 L-5,32 L-1,15 Z " fill="#687392" transform="translate(253,132)"/>
<path d="M0,0 L3,1 L1,2 L0,6 L-6,14 L-8,19 L-20,32 L-25,44 L-26,44 L-26,38 L-21,26 L-19,25 L-18,22 L-16,22 L-14,15 L-9,14 L-7,8 L-4,5 L-2,6 L-2,1 Z " fill="#757F9C" transform="translate(114,131)"/>
<path d="M0,0 L3,4 L5,8 L6,13 L4,17 L-11,25 L-23,34 L-27,38 L-27,34 L-25,29 L-22,29 L-14,23 L-7,19 L-5,14 L-2,17 L2,14 L2,12 L0,11 L-1,15 L-1,10 L1,9 L-2,7 Z " fill="#626E8D" transform="translate(150,138)"/>
<path d="M0,0 L6,2 L10,5 L20,7 L23,9 L24,13 L21,17 L16,20 L9,25 L7,24 L7,21 L10,21 L10,19 L18,14 L19,10 L15,11 L15,10 L4,9 L1,6 L1,3 Z " fill="#7D88A3" transform="translate(82,184)"/>
<path d="M0,0 L16,1 L23,2 L24,5 L7,3 L1,4 L1,6 L3,6 L5,10 L3,19 L0,18 L-1,15 L-3,14 L-4,7 L-2,1 Z " fill="#7C87A2" transform="translate(37,251)"/>
<path d="M0,0 L1,3 L4,3 L5,1 L5,8 L3,8 L4,14 L5,14 L7,31 L6,32 L10,33 L17,32 L18,34 L15,35 L6,35 L4,33 L4,28 L3,30 L1,30 L0,26 Z " fill="#6A7391" transform="translate(152,229)"/>
<path d="M0,0 L3,1 L2,4 L5,5 L24,8 L26,11 L12,14 L-4,16 L-4,18 L-6,17 L-7,15 L-5,15 L-5,13 L10,11 L1,7 L-5,3 L-3,2 L1,3 Z " fill="#636D8D" transform="translate(30,215)"/>
<path d="M0,0 L2,0 L1,4 L0,5 L32,6 L32,8 L15,8 L13,7 L13,9 L23,9 L23,10 L4,10 L2,11 L4,13 L-1,13 L-7,8 L-8,5 L-3,3 L0,3 Z " fill="#9CA3B8" transform="translate(86,208)"/>
<path d="M0,0 L4,2 L5,13 L9,14 L9,16 L18,16 L17,23 L15,25 L12,22 L10,22 L10,20 L2,20 L0,12 Z " fill="#BEC2CE" transform="translate(169,91)"/>
<path d="M0,0 L1,0 L1,11 L6,7 L8,8 L2,17 L-1,23 L-4,24 L-2,20 L0,14 L-2,11 L-4,20 L-7,20 L-8,35 L-9,35 L-10,21 L-6,10 L-3,3 Z " fill="#707B98" transform="translate(177,30)"/>
<path d="M0,0 L2,1 L2,7 L3,10 L-1,15 L10,16 L11,18 L9,21 L6,21 L7,17 L-2,20 L-7,17 L-4,12 L-8,16 L-10,20 L-12,19 L-9,12 L-13,10 L-13,8 L-5,9 L-3,8 L-3,5 Z " fill="#6A7492" transform="translate(164,180)"/>
<path d="M0,0 L2,1 L1,6 L-2,7 L-2,12 L-4,12 L-6,16 L-13,15 L-16,16 L-25,13 L-23,11 L-24,9 L-10,9 L-6,7 L-2,5 Z " fill="#E9EAEE" transform="translate(175,294)"/>
<path d="M0,0 L11,0 L17,2 L15,10 L10,10 L13,9 L15,3 L1,4 L-9,6 L-21,7 L-22,9 L-24,9 L-24,7 L-35,6 L-34,4 L-28,4 L-26,2 L-15,1 L-4,1 L-4,2 L-18,4 L-5,3 L0,2 Z " fill="#4A5476" transform="translate(212,258)"/>
<path d="M0,0 L0,3 L-11,9 L-20,12 L-20,15 L-16,15 L-16,13 L-12,15 L-16,18 L-23,23 L-25,23 L-23,19 L-22,18 L-25,18 L-26,20 L-28,21 L-31,24 L-34,23 L-31,22 L-30,18 L-26,13 L-22,11 L-5,2 Z " fill="#6A7594" transform="translate(147,105)"/>
<path d="M0,0 L20,0 L35,4 L42,8 L43,11 L38,9 L32,6 L30,7 L29,5 L25,4 L5,4 L-4,6 L-12,10 L-14,13 L-17,15 L-16,8 L-6,4 L0,2 Z " fill="#6C7896" transform="translate(195,20)"/>
<path d="M0,0 L2,0 L3,9 L-1,13 L-10,16 L-31,19 L-38,19 L-35,16 L-32,15 L-13,13 L-7,13 L-7,11 L-2,8 L0,8 L1,3 L-3,5 L-2,1 Z " fill="#7F8BA8" transform="translate(272,261)"/>
<path d="M0,0 L6,4 L6,6 L8,6 L8,10 L10,10 L8,19 L6,23 L3,25 L7,24 L9,18 L11,12 L16,12 L12,17 L8,25 L6,25 L6,27 L-2,28 L-7,27 L-8,29 L-15,29 L-14,26 L-2,24 L3,21 L6,20 L5,10 L0,2 Z " fill="#5C6788" transform="translate(236,36)"/>
<path d="M0,0 L3,1 L2,4 L-3,6 L-5,11 L-4,20 L1,26 L1,32 L-1,33 L-8,33 L-10,31 L-12,30 L-8,26 L-6,26 L-4,29 L-2,29 L-8,17 L-9,10 L-6,6 L-4,2 Z " fill="#7A84A0" transform="translate(205,283)"/>
<path d="M0,0 L11,0 L35,5 L58,7 L95,8 L93,10 L73,10 L42,8 L12,3 L0,1 Z " fill="#BAC8DA" transform="translate(41,250)"/>
<path d="M0,0 L2,0 L4,5 L4,6 L5,8 L9,5 L11,6 L-5,21 L-8,22 L-8,14 L-6,11 L-2,10 L-5,9 Z " fill="#BABFCD" transform="translate(173,166)"/>
<path d="M0,0 L2,0 L3,19 L1,28 L-1,32 L-1,35 L7,35 L7,36 L12,37 L11,40 L11,38 L2,38 L2,36 L-3,35 L-4,24 L-6,22 L-4,22 L-3,20 L-2,22 L-1,15 L-1,1 Z " fill="#606B8C" transform="translate(176,69)"/>
<path d="M0,0 L2,0 L3,4 L3,6 L5,5 L5,17 L1,16 L1,14 L-1,14 L-3,20 L-4,23 L-1,25 L-5,26 L-7,28 L-10,27 L-15,32 L-15,29 L-10,23 L-8,22 L-2,9 Z " fill="#7D87A1" transform="translate(174,152)"/>
<path d="M0,0 L3,1 L-7,8 L-16,12 L-25,12 L-24,17 L-29,17 L-24,20 L-26,22 L-29,21 L-33,17 L-34,15 L-33,13 L-26,10 L-26,8 L-21,7 L-17,10 L-8,4 L-3,3 Z M-19,7 Z " fill="#B2B8C8" transform="translate(55,201)"/>
<path d="M0,0 L3,2 L0,2 Z M-1,2 Z M-2,3 L-1,3 L-1,10 L4,11 L4,13 L0,14 L-2,11 L-3,14 L-9,17 L-18,16 L-13,12 L-18,10 L-14,7 L-11,6 L-11,8 L-6,6 Z " fill="#DDE0E6" transform="translate(209,200)"/>
<path d="M0,0 L19,1 L22,3 L29,7 L26,8 L17,5 L11,4 L-2,4 L-14,9 L-18,11 L-21,10 L-21,7 L-11,3 Z " fill="#6D7997" transform="translate(206,26)"/>
<path d="M0,0 L7,0 L10,2 L-18,4 L-21,6 L-32,8 L-45,7 L-45,6 L-36,5 L-48,5 L-47,3 L-23,2 Z " fill="#A0A8BC" transform="translate(233,255)"/>
<path d="M0,0 L2,2 L1,5 L6,4 L10,4 L10,8 L19,9 L26,11 L34,12 L35,14 L26,14 L20,16 L9,10 L0,10 L0,6 L-2,5 L0,5 Z " fill="#646E8C" transform="translate(127,300)"/>
<path d="M0,0 L2,2 L3,14 L0,20 L-4,20 L-13,14 L-16,13 L-18,9 L-33,9 L-31,7 L-21,6 L-12,9 L-13,11 L-8,14 L-6,13 L0,9 Z " fill="#636D8C" transform="translate(279,64)"/>
<path d="M0,0 L1,4 L-1,6 L2,9 L2,11 L-3,14 L-7,17 L-17,19 L-27,18 L-26,16 L-17,15 L-11,14 L-14,11 L-9,10 L-6,10 L-5,8 L-3,8 L-3,3 Z " fill="#858EA7" transform="translate(176,298)"/>
<path d="M0,0 L9,0 L9,1 L2,2 L2,4 L4,6 L1,9 L2,11 L-15,14 L-24,14 L-21,11 L-14,10 L-9,7 L-5,9 L-3,6 L-10,3 L-10,2 Z " fill="#FAFAFA" transform="translate(255,263)"/>
<path d="M0,0 L2,0 L3,3 L1,3 L-2,9 L-7,15 L-11,17 L-11,21 L-7,23 L-16,24 L-21,20 L-20,17 L-21,16 L-20,13 L-7,13 L-7,11 L-5,11 L-3,5 Z " fill="#A7AEC1" transform="translate(249,50)"/>
<path d="M0,0 L11,0 L15,4 L16,5 L17,5 L17,15 L15,17 L13,7 L-1,7 L-2,2 Z " fill="#9EA8BD" transform="translate(260,251)"/>
<path d="M0,0 L17,1 L17,4 L25,5 L30,3 L33,6 L27,8 L11,8 L7,6 L4,5 L0,3 Z " fill="#E9EAEE" transform="translate(27,191)"/>
<path d="M0,0 L3,4 L9,4 L9,2 L17,0 L22,0 L21,5 L13,21 L9,26 L10,20 L15,10 L14,8 L16,6 L17,7 L18,4 L12,6 L0,6 L-1,2 Z " fill="#717D9B" transform="translate(175,98)"/>
<path d="M0,0 L34,0 L34,3 L32,5 L0,5 L0,3 L19,3 L-1,2 Z " fill="#576181" transform="translate(93,217)"/>
<path d="M0,0 L6,3 L10,0 L13,1 L32,2 L33,4 L13,3 L13,5 L-9,10 L-13,9 L-3,3 Z " fill="#F7F7F7" transform="translate(80,217)"/>
<path d="M0,0 L1,2 L-1,8 L0,21 L1,36 L-1,36 L-1,23 L-5,24 L-5,38 L-6,38 L-7,19 L-6,16 L-5,7 L-3,7 L-1,1 Z " fill="#8590AB" transform="translate(179,46)"/>
<path d="M0,0 L1,0 L2,12 L4,12 L5,8 L5,17 L0,31 L-6,42 L-19,57 L-26,62 L-28,61 L-18,53 L-6,38 L1,23 L2,17 L0,18 Z " fill="#A6B3C9" transform="translate(258,144)"/>
<path d="M0,0 L9,1 L22,3 L44,5 L44,6 L28,6 L20,5 L0,5 L-2,6 L-15,6 L-11,4 L-6,3 L0,2 Z " fill="#636D8D" transform="translate(61,254)"/>
<path d="M0,0 L11,0 L14,1 L15,5 L5,11 L-2,10 L-1,7 L-2,5 L0,5 Z " fill="#E8E9EC" transform="translate(87,193)"/>
<path d="M0,0 L5,3 L3,8 L-2,11 L-2,9 L-4,9 L-4,14 L-10,14 L-12,15 L-14,14 L-15,17 L-19,17 L-19,15 L-13,11 L-9,10 L-7,6 L-3,3 Z " fill="#8992AA" transform="translate(240,181)"/>
<path d="M0,0 L7,0 L17,3 L20,5 L23,8 L22,11 L17,10 L13,6 L10,4 L2,3 L-6,5 L-11,10 L-16,11 L-17,8 L-16,7 L-10,7 L-8,3 Z " fill="#9EA6BA" transform="translate(252,68)"/>
<path d="M0,0 L7,3 L11,5 L10,2 L14,4 L17,8 L17,10 L21,14 L24,18 L24,21 L22,21 L18,14 L9,11 L7,9 L4,6 L-2,4 Z " fill="#ACB2C3" transform="translate(226,25)"/>
<path d="M0,0 L1,0 L1,5 L4,4 L2,9 L-5,18 L-10,20 L-13,22 L-14,23 L-18,27 L-20,27 L-19,20 L-15,18 L-14,16 L-9,17 L-9,12 L-6,13 L-1,8 L-2,2 Z " fill="#F3F4F5" transform="translate(245,178)"/>
<path d="M0,0 L8,1 L11,3 L13,6 L15,10 L11,20 L9,20 L10,14 L4,6 L4,4 L-3,3 L-3,1 Z " fill="#AEB2C1" transform="translate(183,279)"/>
<path d="M0,0 L2,2 L19,3 L20,7 L12,7 L11,8 L19,8 L22,9 L22,11 L10,11 L8,8 L0,5 Z " fill="#BDC2CF" transform="translate(166,256)"/>
<path d="M0,0 L1,2 L0,8 L1,17 L7,26 L7,28 L3,29 L1,25 L-1,22 L-4,15 L-5,12 L-5,2 L-2,2 Z " fill="#F3F3F5" transform="translate(242,78)"/>
<path d="M0,0 L1,0 L0,9 L-4,10 L-7,28 L-10,27 L-9,21 L-10,9 L-11,6 L-10,4 L-2,6 L-1,1 Z " fill="#838CA4" transform="translate(120,281)"/>
<path d="M0,0 L6,0 L3,1 L4,7 L1,7 L1,5 L-15,5 L-32,8 L-37,10 L-38,7 L-27,4 L-23,4 L-22,2 L0,2 Z " fill="#7A85A2" transform="translate(172,111)"/>
<path d="M0,0 L5,1 L9,0 L11,5 L7,10 L1,15 L-3,20 L-8,23 L-13,22 L-11,18 L-9,18 L-9,16 L-2,14 L7,6 L9,6 L8,4 L0,2 Z " fill="#717B98" transform="translate(188,151)"/>
<path d="M0,0 L3,4 L3,6 L9,8 L14,6 L15,4 L19,4 L18,7 L18,5 L16,5 L15,8 L15,9 L16,12 L19,13 L7,13 L-5,6 L-3,4 L0,4 Z " fill="#6D7795" transform="translate(181,304)"/>
<path d="M0,0 L1,2 L7,3 L6,6 L23,7 L21,8 L19,14 L17,13 L18,10 L1,9 L-5,7 L-6,9 L-7,4 L-3,6 L-2,4 L-1,4 Z " fill="#4A5476" transform="translate(144,211)"/>
<path d="M0,0 L3,3 L2,7 L0,7 L-5,19 L-11,28 L-18,33 L-21,32 L-19,28 L-14,26 L-13,23 L-9,19 L-6,13 L-4,13 L-1,2 Z " fill="#7986A3" transform="translate(218,176)"/>
<path d="M0,0 L4,1 L-6,4 L-6,6 L-20,8 L-30,8 L-30,12 L-24,14 L-27,15 L-33,12 L-32,4 L-13,4 L-5,2 Z " fill="#98A6BF" transform="translate(55,184)"/>
<path d="M0,0 L12,0 L10,1 L8,6 L1,12 L-3,11 L-2,4 L0,4 Z " fill="#E8E9ED" transform="translate(183,155)"/>
<path d="M0,0 L3,0 L4,4 L22,4 L37,2 L45,2 L45,3 L17,7 L1,7 L-2,5 L0,4 L0,2 L-2,1 Z " fill="#9BA8C0" transform="translate(22,228)"/>
<path d="M0,0 L15,0 L15,2 L20,3 L21,10 L13,8 L7,5 L2,4 Z " fill="#ECEDF0" transform="translate(159,281)"/>
<path d="M0,0 L1,0 L3,20 L5,22 L17,22 L33,21 L52,21 L52,22 L45,23 L21,24 L3,24 L1,21 L0,13 Z " fill="#B2C1D6" transform="translate(165,235)"/>
<path d="M0,0 L0,3 L-8,10 L-17,17 L-23,20 L-25,20 L-23,15 L-19,14 L-18,12 L-16,12 L-12,8 L-10,4 L-7,4 L-2,1 Z " fill="#6E7998" transform="translate(241,194)"/>
<path d="M0,0 L2,1 L-2,4 L-3,8 L-12,19 L-17,24 L-17,21 L-11,13 L-11,10 L-13,10 L-12,7 L-7,4 L-7,2 L-3,1 Z " fill="#ACB3C5" transform="translate(125,122)"/>
<path d="M0,0 L1,0 L2,13 L4,14 L8,23 L2,24 L-2,22 L0,21 L-2,14 L-2,4 Z " fill="#E8E9ED" transform="translate(159,239)"/>
<path d="M0,0 L6,3 L17,4 L18,8 L1,9 L-2,7 Z " fill="#FAFAFA" transform="translate(141,276)"/>
<path d="M0,0 L7,0 L8,1 L30,1 L30,5 L28,6 L28,4 L-1,4 L-3,5 L0,8 L-6,7 L-11,5 L-7,3 Z " fill="#495476" transform="translate(243,256)"/>
<path d="M0,0 L3,2 L4,8 L2,12 L2,10 L0,10 L0,14 L-3,16 L-34,16 L-38,15 L-38,13 L-30,14 L-6,14 L-1,12 Z " fill="#424D71" transform="translate(140,247)"/>
<path d="M0,0 L18,3 L15,5 L8,5 L4,6 L1,6 L1,8 L-4,7 L-4,4 L-6,4 L-6,2 Z " fill="#D7D9E0" transform="translate(44,253)"/>
<path d="M0,0 L2,4 L-1,8 L-1,11 L1,12 L12,12 L18,9 L22,10 L18,13 L14,15 L1,15 L-3,14 L-3,11 L-5,10 L-4,8 L-6,6 L-2,6 Z " fill="#8591AC" transform="translate(110,300)"/>
<path d="M0,0 L6,1 L7,4 L0,5 L2,8 L3,9 L5,13 L-8,15 L-16,15 L-16,14 L-5,12 L-4,6 L-5,1 Z " fill="#455073" transform="translate(260,261)"/>
<path d="M0,0 L2,4 L5,5 L3,9 L-1,12 L-6,12 L-7,7 L-5,3 Z " fill="#CACDD7" transform="translate(75,211)"/>
<path d="M0,0 L2,3 L4,2 L2,11 L-6,27 L-14,36 L-14,33 L-5,20 L-2,13 L-4,12 L-2,11 Z " fill="#6A7594" transform="translate(257,158)"/>
<path d="M0,0 L14,0 L12,5 L2,5 L-11,4 L-10,2 Z " fill="#FAFAFA" transform="translate(213,261)"/>
<path d="M0,0 L3,1 L3,4 L-7,6 L-12,7 L-33,4 L-33,2 L-20,2 L-10,3 L-8,4 L-1,3 Z " fill="#434E72" transform="translate(235,263)"/>
<path d="M0,0 L2,1 L2,15 L6,15 L7,13 L12,12 L11,15 L7,16 L6,18 L-2,19 L-2,21 L0,22 L-3,22 L-2,11 Z " fill="#636D8D" transform="translate(219,182)"/>
<path d="M0,0 L2,4 L3,11 L5,11 L5,26 L3,34 L1,34 L1,13 Z " fill="#75819F" transform="translate(259,122)"/>
<path d="M0,0 L5,0 L1,6 L-5,10 L-13,12 L-15,10 L-13,3 L-10,4 L-9,6 L-5,5 L-4,3 L0,2 Z " fill="#858EA7" transform="translate(127,222)"/>
<path d="M0,0 L3,0 L2,13 L-2,15 L-3,7 L-5,11 L-10,12 L-4,4 L0,2 Z " fill="#E4E5EA" transform="translate(81,168)"/>
<path d="M0,0 L3,0 L3,2 L12,1 L13,4 L12,8 L14,8 L14,10 L16,10 L16,4 L17,4 L18,11 L15,12 L16,16 L14,16 L14,14 L12,13 L13,11 L8,11 L7,5 L1,3 L-1,1 Z " fill="#606A89" transform="translate(74,194)"/>
<path d="M0,0 L3,1 L2,5 L6,8 L15,8 L15,10 L9,11 L7,16 L4,12 L1,9 L-1,8 L-1,6 L-7,4 L-9,3 L-9,1 L-2,3 L-1,4 Z M15,7 Z " fill="#6C7796" transform="translate(227,65)"/>
<path d="M0,0 L5,0 L5,8 L2,8 L1,5 L0,11 L-4,14 L-5,13 L-9,17 L-9,14 L-3,5 Z " fill="#838EA8" transform="translate(149,134)"/>
<path d="M0,0 L1,0 L3,9 L2,13 L1,17 L2,20 L6,22 L4,23 L-7,23 L-10,21 L-9,17 L-7,16 L-5,21 L-1,19 L-1,1 Z " fill="#4D5779" transform="translate(118,290)"/>
<path d="M0,0 L3,0 L3,3 L5,2 L43,2 L41,4 L0,4 Z " fill="#B0B6C6" transform="translate(145,275)"/>
<path d="M0,0 L2,0 L4,4 L7,7 L2,7 L-1,5 L-1,6 L-8,6 L-7,9 L-12,10 L-14,9 L-13,6 L-8,3 L-8,1 Z " fill="#F7F7F8" transform="translate(135,216)"/>
<path d="M0,0 L1,2 L-1,7 L-3,8 L-4,13 L-6,13 L-10,20 L-12,21 L-13,27 L-15,24 L-16,21 L-11,13 L-6,8 Z " fill="#F7F7F8" transform="translate(99,146)"/>
<path d="M0,0 L2,3 L0,3 L1,7 L3,7 L2,12 L7,13 L5,17 L5,19 L10,18 L9,21 L7,21 L8,27 L7,36 L6,36 L5,26 L4,23 L5,21 L3,21 L1,10 L-1,10 L-1,6 L-3,4 L-2,1 L0,2 Z " fill="#4C5679" transform="translate(249,104)"/>
<path d="M0,0 L8,2 L28,11 L31,14 L27,13 L19,9 L6,7 L4,7 L2,6 L3,4 L1,4 Z " fill="#9DA9BF" transform="translate(249,43)"/>
<path d="M0,0 L11,0 L9,2 L3,4 L6,5 L3,9 L-4,10 L-2,3 L-8,2 L-8,1 Z " fill="#F5F5F6" transform="translate(231,257)"/>
<path d="M0,0 L3,0 L4,2 L2,6 L0,16 L0,22 L-3,22 L-7,19 L-5,18 L-4,15 L-6,14 L-4,14 L-3,7 L-1,7 Z " fill="#5B6586" transform="translate(87,163)"/>
<path d="M0,0 L2,3 L5,2 L6,5 L3,6 L4,8 L4,14 L2,18 L0,18 L-1,20 L-1,12 L0,7 L-3,7 L-3,2 Z " fill="#D8DBE2" transform="translate(156,225)"/>
<path d="M0,0 L3,3 L3,13 L2,19 L0,20 L2,22 L-5,21 L-3,19 Z " fill="#E4E5EA" transform="translate(115,290)"/>
<path d="M0,0 L8,0 L10,4 L18,3 L19,5 L17,6 L22,7 L19,10 L12,10 L10,8 L14,8 L14,6 L7,7 L4,9 L0,8 L2,8 L2,6 L7,4 L5,2 L0,1 Z " fill="#525C7E" transform="translate(215,270)"/>
<path d="M0,0 L15,0 L21,2 L17,3 L12,2 L1,2 L-1,3 L-17,3 L-15,4 L-15,6 L-23,6 L-23,2 L-20,1 L-3,1 Z " fill="#465174" transform="translate(113,264)"/>
<path d="M0,0 Z M-4,1 L0,1 L1,5 L-9,6 L-9,5 L-25,4 L-37,4 L-37,3 L-29,2 Z " fill="#A1ABC0" transform="translate(258,252)"/>
<path d="M0,0 L1,2 L6,2 L10,7 L12,14 L11,26 L10,26 L9,11 L7,5 L0,5 L-11,9 L-13,9 L-13,7 L-2,4 L-1,1 Z " fill="#B9C5D8" transform="translate(128,226)"/>
<path d="M0,0 Z M-6,1 L0,1 L7,3 L7,4 L0,4 L-3,3 L-3,5 L-5,6 L-2,8 L-10,9 L-13,12 L-13,9 L-15,8 L-15,5 L-8,2 Z " fill="#5B6686" transform="translate(180,214)"/>
<path d="M0,0 Z M-2,1 L0,1 L1,6 L-3,6 L-2,8 L-12,11 L-14,10 L-14,12 L-19,13 L-18,9 L-13,6 L-6,3 Z " fill="#D1D3DB" transform="translate(145,108)"/>
<path d="M0,0 L11,0 L14,2 L13,5 L-1,4 L-3,6 L-7,5 L-7,2 Z " fill="#8F98AF" transform="translate(250,72)"/>
<path d="M0,0 L4,1 L6,0 L10,7 L10,9 L14,11 L11,12 L9,11 L8,17 L5,23 L-1,26 L-3,25 L2,22 L4,22 L7,12 L8,9 L6,9 L6,5 L4,5 L4,3 L0,1 Z " fill="#F5F5F6" transform="translate(238,37)"/>
<path d="M0,0 L4,4 L2,11 L0,15 L0,25 L-4,27 L-3,16 L-4,10 L-2,7 L-1,8 Z " fill="#F5F5F6" transform="translate(174,39)"/>
<path d="M0,0 L6,1 L6,3 L-15,6 L-26,6 L-24,4 Z " fill="#FAFAFA" transform="translate(52,226)"/>
<path d="M0,0 L2,2 L-6,7 L-42,7 L-42,5 L-23,5 L-6,4 Z " fill="#75809E" transform="translate(141,210)"/>
<path d="M0,0 L5,0 L0,4 L0,5 L12,5 L12,6 L-4,7 L-11,9 L-15,7 L-9,6 L-11,4 L-2,1 Z M-3,2 Z M-5,3 Z " fill="#586181" transform="translate(154,107)"/>
<path d="M0,0 L16,2 L11,7 L27,10 L26,13 L12,10 L7,8 L9,4 L5,3 L0,1 Z M22,8 Z " fill="#444E72" transform="translate(140,300)"/>
<path d="M0,0 L14,1 L27,2 L27,3 L9,3 L11,5 L9,7 L15,9 L14,11 L12,10 L3,9 L7,5 L1,4 L2,2 Z " fill="#404B6F" transform="translate(75,258)"/>
<path d="M0,0 L5,0 L6,4 L13,8 L11,10 L3,4 L-6,5 L-6,7 L-12,10 L-17,10 L-17,8 L-1,1 Z " fill="#A4A9BB" transform="translate(65,183)"/>
<path d="M0,0 L36,0 L33,2 L30,4 L27,4 L27,2 L15,3 L11,3 L11,1 L0,1 Z " fill="#505A7A" transform="translate(147,279)"/>
<path d="M0,0 L5,2 L10,6 L12,15 L10,19 L9,11 L9,18 L6,18 L5,10 L3,6 L6,5 L0,1 Z " fill="#BAC0CE" transform="translate(271,56)"/>
<path d="M0,0 L13,1 L13,2 L-4,5 L-14,7 L-12,3 Z " fill="#8795B1" transform="translate(221,279)"/>
<path d="M0,0 L3,2 L5,0 L8,2 L7,12 L9,21 L3,19 L6,18 L4,10 L5,3 L1,6 L-3,6 L-2,1 Z " fill="#606A8B" transform="translate(237,76)"/>
<path d="M0,0 L4,3 L11,1 L10,4 L1,8 L-2,9 L-8,9 L-9,7 L-6,6 L-7,4 L0,4 Z " fill="#657090" transform="translate(206,210)"/>
<path d="M0,0 L3,4 L4,20 L3,26 L-2,25 L-1,20 L-1,1 Z " fill="#D9DBE2" transform="translate(172,66)"/>
<path d="M0,0 L6,1 L5,7 L2,7 L1,9 L-2,9 L-2,11 L-4,11 L-6,6 L-1,1 Z " fill="#868DA5" transform="translate(81,204)"/>
</svg>
