<?xml version="1.0" encoding="UTF-8"?>
<!-- Generator: visioncortex VTracer 0.6.12 -->
<svg xmlns:xlink="http://www.w3.org/1999/xlink" xmlns:sodipodi="http://sodipodi.sourceforge.net/DTD/sodipodi-0.0.dtd" xmlns:inkscape="http://www.inkscape.org/namespaces/inkscape" version="1.1" xmlns="http://www.w3.org/2000/svg" width="296" height="344">
<path d="M0,0 L296,0 L296,344 L0,344 Z M145,22 L141,24 L143,26 L142,29 L140,27 L139,33 L135,34 L133,41 L129,40 L127,44 L117,47 L114,50 L101,53 L96,56 L92,60 L90,62 L92,62 L92,64 L86,66 L84,67 L81,66 L71,70 L55,69 L42,66 L42,64 L35,63 L35,65 L32,65 L34,74 L37,79 L39,77 L42,83 L52,85 L52,90 L46,90 L47,95 L53,96 L58,96 L56,101 L44,100 L42,103 L44,104 L39,105 L39,98 L32,95 L25,97 L26,99 L27,100 L25,103 L24,108 L24,101 L22,98 L21,102 L21,121 L24,121 L25,123 L34,123 L41,121 L46,118 L60,115 L63,115 L63,148 L51,149 L48,152 L58,153 L60,159 L61,161 L57,162 L58,163 L52,165 L51,162 L54,161 L41,157 L38,157 L40,162 L44,163 L42,172 L40,183 L39,179 L38,179 L38,203 L41,220 L44,229 L46,227 L50,237 L54,236 L56,240 L59,246 L56,244 L58,249 L64,258 L66,257 L70,260 L70,263 L78,267 L81,273 L83,277 L92,279 L100,276 L102,279 L101,281 L106,286 L112,294 L108,296 L107,307 L108,308 L112,312 L118,313 L125,311 L126,308 L132,307 L134,320 L139,323 L138,319 L143,322 L151,323 L151,321 L153,320 L153,322 L158,320 L161,317 L161,314 L163,314 L164,308 L169,311 L177,312 L179,310 L179,313 L183,312 L184,314 L186,312 L187,300 L182,295 L184,299 L184,302 L181,298 L182,293 L183,290 L181,290 L180,287 L178,289 L183,284 L182,288 L187,287 L189,285 L191,276 L192,281 L194,279 L210,279 L215,275 L218,269 L218,267 L225,267 L226,265 L231,262 L232,257 L236,257 L242,249 L245,248 L251,236 L254,219 L258,201 L258,193 L255,178 L254,176 L256,176 L256,172 L271,171 L274,168 L272,165 L269,166 L273,158 L274,163 L275,163 L276,156 L276,144 L266,141 L252,145 L252,147 L246,147 L244,148 L232,150 L234,145 L233,118 L235,119 L235,117 L247,120 L256,125 L272,125 L272,122 L274,121 L275,118 L275,100 L273,101 L273,97 L269,96 L260,96 L262,99 L262,101 L259,102 L257,106 L252,105 L255,103 L250,102 L254,101 L252,100 L250,88 L248,83 L252,82 L252,78 L257,76 L260,73 L261,70 L261,63 L258,62 L254,64 L256,65 L254,67 L249,66 L244,68 L237,69 L227,69 L227,67 L217,68 L210,65 L205,63 L202,60 L194,56 L179,54 L177,47 L174,48 L173,50 L164,44 L164,42 L167,42 L160,34 L157,33 L157,35 L155,35 L156,30 L152,24 L150,22 Z M25,142 L21,144 L20,148 L23,147 L22,151 L24,151 L24,159 L22,162 L23,167 L25,169 L36,169 L37,165 L34,162 L33,164 L34,167 L32,167 L31,165 L25,165 L28,163 L27,146 L35,145 L33,142 Z " fill="#F8F8F8" transform="translate(0,0)"/>
<path d="M0,0 L3,0 L5,5 L6,14 L5,16 L5,29 L6,31 L8,17 L10,16 L11,21 L11,29 L8,43 L6,43 L5,48 L3,48 L-2,60 L-3,65 L-5,77 L-12,86 L-14,86 L-14,84 L-17,84 L-18,89 L-19,91 L-26,91 L-30,89 L-32,83 L-34,82 L-32,82 L-31,78 L-34,79 L-35,81 L-39,83 L-157,82 L-159,81 L-162,74 L-162,72 L-168,70 L-175,69 L-178,68 L-180,59 L-182,59 L-182,47 L-184,31 L-181,32 L-180,33 L-15,33 L-14,36 L-14,51 L-13,55 L-12,51 L-12,34 L-10,36 L-8,44 L-7,33 L-9,33 L-10,22 L-12,12 L-6,11 L-5,10 L-2,4 Z M-148,39 L-148,41 L-151,41 L-152,45 L-151,77 L-149,76 L-143,77 L-143,43 L-145,39 Z M-128,40 L-128,42 L-130,44 L-127,45 L-125,44 L-125,46 L-129,47 L-133,45 L-134,53 L-131,58 L-129,60 L-118,62 L-118,70 L-120,72 L-118,72 L-118,74 L-120,75 L-116,76 L-110,68 L-108,67 L-107,63 L-107,52 L-109,48 L-111,48 L-111,44 L-116,41 L-124,42 L-124,40 Z M-58,42 Z M-59,43 L-64,46 L-65,49 L-65,67 L-63,73 L-58,75 L-58,77 L-49,77 L-42,71 L-41,65 L-45,56 L-49,54 L-51,53 L-58,53 L-58,43 Z M-83,44 L-85,54 L-93,54 L-92,58 L-88,62 L-85,63 L-85,72 L-92,71 L-96,70 L-94,74 L-90,76 L-85,77 L-80,73 L-78,70 L-76,71 L-76,59 L-75,51 L-74,47 L-78,44 L-82,44 Z " fill="#EDEEF1" transform="translate(247,172)"/>
<path d="M0,0 L3,0 L3,2 L19,2 L23,3 L28,10 L29,17 L27,29 L29,26 L28,23 L34,18 L40,20 L42,17 L44,24 L47,24 L49,15 L53,15 L57,18 L62,17 L64,25 L67,26 L68,29 L70,28 L72,32 L79,34 L80,29 L80,19 L83,19 L83,17 L89,14 L95,19 L94,22 L92,20 L92,29 L91,31 L98,33 L104,29 L106,25 L109,25 L117,32 L123,36 L126,38 L119,37 L119,39 L117,40 L-26,40 L-22,36 L-28,35 L-37,38 L-46,38 L-47,34 L-45,32 L-41,31 L-40,25 L-51,25 L-59,22 L-61,19 L-62,12 L-55,14 L-56,12 L-50,13 L-48,16 L-42,18 L-31,18 L-25,15 L-23,15 L-16,13 L-10,8 L-8,8 L-8,6 L-10,5 Z M-14,22 L-17,28 L-22,30 L-22,32 L-20,32 L-19,35 L-18,33 L-16,33 L-15,30 L-4,31 L-4,33 L3,32 L2,29 L0,29 L-2,27 L-3,29 L-12,28 L-11,24 Z " fill="#E7E9EE" transform="translate(100,56)"/>
<path d="M0,0 L10,0 L15,2 L17,6 L16,84 L14,84 L14,86 L12,86 L11,93 L10,94 L-5,95 L-6,84 L-8,84 L-9,82 L-8,2 L0,2 Z " fill="#F7F8F8" transform="translate(144,102)"/>
<path d="M0,0 L20,0 L21,6 L16,12 L11,22 L11,27 L10,28 L10,36 L13,43 L17,43 L21,49 L23,51 L21,52 L24,54 L24,87 L22,91 L21,89 L20,93 L16,94 L8,94 L5,93 L3,88 L1,86 L1,83 L0,79 L-1,3 Z " fill="#F7F7F7" transform="translate(184,102)"/>
<path d="M0,0 L17,1 L18,3 L20,3 L20,80 L17,87 L16,95 L2,95 L-3,87 L-5,82 L-5,58 L-6,56 L-4,56 L-4,54 L-1,55 L4,51 L6,48 L8,48 L9,40 L8,36 L9,29 L12,33 L11,23 L6,14 L2,9 L-1,6 Z " fill="#F8F8F8" transform="translate(92,101)"/>
<path d="M0,0 L6,1 L10,3 L13,6 L23,10 L33,9 L31,15 L32,16 L34,15 L42,16 L55,13 L62,10 L64,11 L62,16 L58,20 L52,23 L45,23 L43,22 L46,29 L52,32 L50,37 L46,36 L45,33 L43,36 L29,35 L21,29 L14,23 L11,25 L13,27 L5,31 L2,32 L-4,30 L-3,27 L-3,16 L0,19 L-2,15 L-6,13 L-11,15 L-11,17 L-15,17 L-16,20 L-21,18 L-22,25 L-25,25 L-27,19 L-27,10 L-23,4 L-19,1 L-5,1 L0,2 Z " fill="#D6D9E1" transform="translate(194,58)"/>
<path d="M0,0 L1,2 L6,1 L9,3 L10,8 L16,7 L19,10 L18,16 L16,16 L16,42 L17,43 L17,55 L19,55 L22,63 L26,66 L26,70 L28,66 L36,66 L42,68 L44,71 L36,70 L40,74 L43,74 L43,83 L34,87 L29,84 L23,82 L21,83 L13,71 L14,69 L15,69 L11,63 L11,61 L7,62 L4,54 L4,49 L5,46 L4,40 L5,35 L3,35 L2,24 L2,10 L0,9 L2,9 Z " fill="#E2E5EA" transform="translate(43,175)"/>
<path d="M0,0 L6,1 L16,1 L23,0 L26,3 L34,4 L38,2 L39,0 L44,1 L44,10 L41,16 L47,15 L47,19 L34,18 L34,16 L30,14 L29,16 L21,13 L22,11 L24,11 L24,9 L20,9 L20,7 L16,8 L16,11 L14,10 L3,10 L-3,12 L-2,16 L-9,24 L-12,33 L-14,33 L-15,35 L-16,49 L-20,48 L-23,44 L-27,31 L-27,24 L-23,14 L-16,7 L-3,1 Z " fill="#F1F1F4" transform="translate(224,103)"/>
<path d="M0,0 L4,1 L4,4 L12,3 L23,2 L28,3 L50,3 L56,6 L58,10 L64,14 L67,21 L68,24 L68,36 L67,41 L68,43 L67,45 L65,45 L64,47 L56,47 L55,38 L55,22 L50,22 L49,25 L48,23 L47,13 L37,11 L23,11 L12,13 L12,17 L-4,17 L-4,4 L-3,1 Z " fill="#F0F1F3" transform="translate(32,101)"/>
<path d="M0,0 L13,1 L19,4 L24,8 L28,12 L36,17 L32,22 L26,24 L22,31 L11,37 L8,46 L5,47 L4,45 L6,45 L4,37 L1,35 L1,33 L-2,34 L-6,30 L-9,36 L-12,32 L-13,29 L-11,24 L-9,23 L-16,21 L-17,18 L-12,15 L-9,15 L-9,12 L0,12 L-1,19 L3,26 L12,28 L17,22 L18,17 L16,12 L16,15 L11,13 L8,15 L7,14 L4,17 L5,11 L2,11 L-8,11 L-7,8 L-5,8 L-3,4 Z " fill="#F0F1F3" transform="translate(139,34)"/>
<path d="M0,0 L12,1 L12,75 L3,74 L0,72 L-1,3 Z " fill="#F8F8F8" transform="translate(118,107)"/>
<path d="M0,0 L11,0 L12,72 L11,73 L1,73 L0,71 L-1,3 Z " fill="#F9F9F9" transform="translate(166,108)"/>
<path d="M0,0 L5,2 L5,7 L6,8 L7,5 L8,11 L9,9 L12,9 L13,18 L10,19 L9,68 L-3,67 L-3,7 L-1,7 L1,3 Z " fill="#F5F5F6" transform="translate(73,114)"/>
<path d="M0,0 L9,1 L18,4 L18,6 L23,8 L33,18 L34,15 L37,15 L38,22 L36,23 L38,28 L40,30 L40,37 L38,40 L38,46 L34,48 L30,47 L26,45 L22,41 L25,34 L24,29 L19,23 L14,18 L15,16 L17,15 L14,12 L10,9 L10,11 L-1,10 L-4,7 L-2,1 Z " fill="#E2E4E9" transform="translate(87,263)"/>
<path d="M0,0 L2,0 L3,62 L-7,61 L-8,60 L-9,10 L-2,2 Z " fill="#F9F9F9" transform="translate(223,120)"/>
<path d="M0,0 L7,0 L14,5 L16,9 L16,18 L13,19 L14,23 L6,26 L3,26 L-7,21 L-8,16 L-10,16 L-11,11 L-9,5 L-5,3 L-4,1 Z " fill="#F7F8F8" transform="translate(144,293)"/>
<path d="M0,0 L6,0 L10,5 L9,12 L3,14 L-3,12 L-10,13 L-12,19 L-14,24 L-19,26 L-20,24 L-20,22 L-25,28 L-21,25 L-21,28 L-19,29 L-22,36 L-27,31 L-30,27 L-30,20 L-22,16 L-20,12 L-12,6 L-2,3 L-2,1 Z " fill="#CCD0DB" transform="translate(202,262)"/>
<path d="M0,0 L4,1 L4,17 L3,21 L7,20 L8,24 L-3,24 L-6,21 L-9,21 L-10,15 L-6,14 L-5,12 L-20,16 L-23,17 L-23,15 L-29,15 L-29,9 L-27,9 L-27,7 L-12,4 L-5,1 Z " fill="#D3D6E0" transform="translate(266,145)"/>
<path d="M0,0 L4,0 L4,2 L12,1 L17,4 L17,8 L19,8 L21,12 L21,23 L20,27 L16,31 L12,36 L8,34 L10,34 L10,32 L8,31 L10,30 L10,22 L-1,20 L-5,16 L-6,8 L-4,5 L-2,6 L-2,11 L1,11 L2,14 L10,17 L9,4 L0,5 L-2,3 L0,1 Z " fill="#A0A7BC" transform="translate(119,212)"/>
<path d="M0,0 L3,1 L84,2 L88,4 L87,8 L80,7 L4,7 L-2,5 L-5,7 L-14,4 L-10,3 L-6,4 Z " fill="#F4F5F6" transform="translate(105,259)"/>
<path d="M0,0 L1,0 L1,8 L8,8 L12,10 L16,14 L18,23 L15,28 L10,32 L1,32 L1,30 L-4,28 L-5,24 L0,28 L-1,24 L1,12 L3,10 L0,9 Z " fill="#929AB1" transform="translate(188,217)"/>
<path d="M0,0 L63,0 L63,1 L3,2 L2,5 L-3,7 L-9,6 L-15,8 L-16,13 L-14,15 L-3,17 L-4,13 L-1,15 L-1,17 L4,19 L6,21 L5,23 L3,23 L-1,19 L-8,22 L-17,20 L-23,9 L-30,6 L-30,1 L-25,3 L-22,4 L-16,1 L-11,2 L-10,1 Z " fill="#7D87A4" transform="translate(100,257)"/>
<path d="M0,0 L2,0 L3,31 L6,32 L17,33 L18,22 L20,17 L21,17 L22,25 L30,29 L32,26 L36,27 L33,32 L33,35 L25,34 L26,36 L26,47 L22,47 L22,40 L20,39 L20,37 L9,36 L10,38 L0,38 L0,40 L-2,39 L0,31 L-1,6 L-1,5 Z " fill="#E0E2E8" transform="translate(210,150)"/>
<path d="M0,0 L8,0 L13,1 L39,1 L40,4 L40,1 L50,2 L63,2 L78,4 L78,5 L70,5 L71,8 L69,9 L67,6 L53,4 L53,6 L48,7 L43,6 L44,13 L43,10 L41,10 L40,13 L39,8 L26,8 L24,6 L25,10 L25,26 L23,26 L23,18 L22,14 L22,6 L18,7 L18,4 L2,4 L3,2 Z M48,1 Z " fill="#B4B9CA" transform="translate(91,98)"/>
<path d="M0,0 L164,0 L166,2 L-2,2 Z " fill="#A4AECA" transform="translate(67,202)"/>
<path d="M0,0 L2,0 L3,2 L21,5 L23,7 L24,5 L24,7 L42,6 L45,4 L47,1 L49,5 L47,6 L54,6 L54,5 L71,5 L70,7 L74,7 L73,10 L-31,9 L-30,7 L-24,6 L-12,6 L-3,5 L-1,4 Z " fill="#1A2B5A" transform="translate(160,193)"/>
<path d="M0,0 L4,0 L3,5 L5,11 L9,13 L3,12 L-3,8 L-3,6 L-119,7 L-120,6 L-125,7 L-125,3 L-4,4 L0,3 Z " fill="#A3ACC6" transform="translate(212,250)"/>
<path d="M0,0 L6,0 L4,2 L-2,4 L56,4 L60,5 L60,7 L56,9 L4,9 L-3,10 L-7,1 Z " fill="#F7F7F8" transform="translate(119,267)"/>
<path d="M0,0 L5,5 L9,11 L14,16 L12,17 L10,23 L4,25 L-1,25 L-5,21 L-7,12 L-5,8 L-4,10 L-3,18 L-3,8 Z " fill="#E5E6EC" transform="translate(170,286)"/>
<path d="M0,0 L22,1 L24,0 L25,7 L40,7 L40,0 L42,3 L42,10 L23,9 L23,4 L21,4 L20,7 L19,5 L19,8 L22,9 L22,12 L1,12 L1,11 L13,10 L-1,8 L-3,5 L-2,1 Z " fill="#DBDFE8" transform="translate(164,188)"/>
<path d="M0,0 L22,0 L25,1 L26,7 L30,9 L18,12 L14,15 L16,9 L20,8 L20,6 L17,5 L-66,4 L-63,2 L0,1 Z " fill="#9FA9C3" transform="translate(172,257)"/>
<path d="M0,0 L3,3 L8,3 L12,4 L15,4 L16,9 L18,10 L18,13 L21,14 L21,16 L10,17 L10,15 L-3,15 L-3,13 L-5,13 L-6,9 L-4,5 L-1,4 Z " fill="#B4BACC" transform="translate(70,183)"/>
<path d="M0,0 L2,1 L3,24 L0,26 L-1,22 L-1,4 L-166,3 L-167,5 L-167,2 L0,2 Z " fill="#D9DCE6" transform="translate(233,202)"/>
<path d="M0,0 L2,0 L3,25 L10,25 L11,23 L14,23 L13,18 L15,14 L17,18 L16,24 L9,32 L4,34 L3,34 L1,34 L0,53 L-1,53 L-2,24 L-2,10 L0,9 Z " fill="#616D8F" transform="translate(85,123)"/>
<path d="M0,0 L1,0 L2,20 L2,74 L3,77 L6,76 L19,75 L22,80 L-2,80 L-1,76 L-1,3 Z " fill="#F3F3F5" transform="translate(162,108)"/>
<path d="M0,0 L1,0 L2,6 L3,72 L13,72 L17,74 L8,76 L2,76 L0,77 L-1,73 L-1,19 Z " fill="#7480A3" transform="translate(164,109)"/>
<path d="M0,0 L8,1 L4,5 L131,6 L149,7 L145,9 L125,8 L2,8 L0,7 L1,3 L-2,1 Z " fill="#B4BCD0" transform="translate(72,90)"/>
<path d="M0,0 L2,3 L1,7 L-1,7 L0,12 L8,12 L9,13 L16,14 L13,16 L15,18 L10,17 L8,15 L1,16 L-9,16 L-18,14 L-19,11 L-17,9 L-16,6 L-13,6 L-13,4 L-3,4 Z " fill="#A3AABF" transform="translate(239,89)"/>
<path d="M0,0 L2,0 L1,12 L1,18 L-1,17 L-2,8 L-3,14 L-1,21 L-5,22 L-6,15 L-8,15 L-9,17 L-10,11 L-16,7 L-23,6 L-19,3 L-15,1 Z " fill="#9CA4BA" transform="translate(167,287)"/>
<path d="M0,0 L7,1 L4,2 L5,6 L1,7 L2,9 L5,11 L-7,16 L-11,18 L-14,18 L-15,9 L-36,9 L-36,7 L-29,7 L-19,6 L-2,7 L-2,5 L-16,4 L-16,3 L0,2 Z " fill="#8E97B0" transform="translate(219,93)"/>
<path d="M0,0 L42,0 L42,4 L35,6 L0,5 L-3,4 L-3,1 Z " fill="#E7E9EE" transform="translate(129,281)"/>
<path d="M0,0 L1,0 L2,5 L3,56 L4,8 L5,8 L5,65 L2,72 L0,68 Z " fill="#B2BAD0" transform="translate(129,110)"/>
<path d="M0,0 L3,2 L3,4 L13,4 L15,6 L6,6 L4,8 L4,35 L3,39 L3,77 L5,80 L4,82 L10,82 L10,83 L3,83 L2,81 L0,83 L0,23 L1,23 L1,4 Z " fill="#5B678A" transform="translate(114,102)"/>
<path d="M0,0 L1,0 L2,11 L3,6 L4,6 L3,19 L4,54 L6,57 L3,57 L2,55 L2,26 L0,26 L1,33 L0,36 L1,57 L-1,65 L-2,65 L-2,32 L-6,30 L-3,28 L-2,14 L-1,12 Z " fill="#3F4F7A" transform="translate(210,124)"/>
<path d="M0,0 L1,0 L2,5 L2,32 L1,32 L0,17 Z M-3,16 L-1,16 L0,18 L1,33 L0,37 L-2,37 L-3,40 L-3,38 L-5,38 L-6,34 L-15,34 L-11,32 L-12,30 L-6,30 L-6,22 L-8,22 L-8,20 L-12,19 L-3,18 Z " fill="#CACFDC" transform="translate(69,131)"/>
<path d="M0,0 L2,0 L3,5 L-1,5 L1,10 L3,22 L5,24 L-10,23 L-11,18 L-5,16 L-4,12 L-10,9 L-12,5 L-12,2 L-3,2 Z " fill="#A7AEC3" transform="translate(249,78)"/>
<path d="M0,0 L2,0 L3,7 L3,63 L2,72 L0,72 Z " fill="#7481A4" transform="translate(177,110)"/>
<path d="M0,0 L2,3 L3,7 L22,11 L22,16 L20,15 L20,13 L12,14 L8,13 L6,10 L5,14 L1,14 L0,20 L1,24 L-5,24 L-5,17 L-4,11 L-5,7 L-7,6 L-3,3 L-1,3 Z " fill="#F6F7F7" transform="translate(65,174)"/>
<path d="M0,0 L18,0 L17,2 L39,2 L38,5 L-29,6 L-27,3 L-16,2 L-16,1 L-11,1 L-11,3 L0,2 Z " fill="#182959" transform="translate(91,197)"/>
<path d="M0,0 L1,0 L1,8 L-1,12 L2,15 L2,18 L5,18 L5,23 L2,30 L-2,33 L-9,31 L-12,30 L-13,26 L-7,28 L-2,28 L-2,19 L-8,16 L-10,13 L-10,10 L-2,10 Z " fill="#7E89A7" transform="translate(164,216)"/>
<path d="M0,0 L11,0 L13,6 L12,12 L7,15 L7,18 L3,19 L0,16 L0,12 L2,12 L1,9 L-1,8 L-1,2 Z " fill="#C9CDD9" transform="translate(52,165)"/>
<path d="M0,0 L2,1 L1,6 L-4,9 L-5,11 L-12,11 L-14,17 L-19,22 L-20,23 L-36,23 L-38,25 L-38,18 L-29,17 L-23,19 L-19,18 L-19,10 L-18,7 L-20,6 L-17,6 L-17,13 L-15,13 L-14,8 L-9,7 L-2,7 Z " fill="#404F78" transform="translate(230,256)"/>
<path d="M0,0 L5,0 L10,6 L11,10 L10,13 L12,13 L13,11 L18,15 L22,21 L15,19 L10,15 L-1,13 L-2,10 L-2,4 L-4,1 Z " fill="#677393" transform="translate(145,22)"/>
<path d="M0,0 L3,1 L3,8 L0,14 L-3,12 L-1,7 L-8,9 L-13,11 L-22,13 L-31,12 L-33,13 L-33,11 L-37,10 L-34,8 L-14,6 L-7,4 L-4,5 L-2,3 L-4,1 Z " fill="#4B597F" transform="translate(258,62)"/>
<path d="M0,0 Z M-1,1 L0,3 L-1,12 L5,12 L4,15 L0,15 L-1,28 L0,32 L-5,29 L-7,25 L-7,7 L-5,3 Z " fill="#F7F7F7" transform="translate(189,214)"/>
<path d="M0,0 L4,1 L5,4 L5,38 L-1,37 L-3,38 L-3,8 L-2,8 L-1,13 L-1,33 L1,34 L1,2 Z " fill="#1D2E5E" transform="translate(99,211)"/>
<path d="M0,0 L3,1 L3,14 L5,14 L8,7 L9,9 L8,18 L6,19 L6,16 L0,17 L-1,20 L-8,22 L-14,21 L-18,17 L-19,16 L-18,5 L-13,3 L-14,10 L-16,14 L-13,16 L-5,17 L-8,19 L-4,18 L-2,17 L-1,8 L0,8 Z " fill="#3A4974" transform="translate(126,291)"/>
<path d="M0,0 L4,1 L2,1 L2,7 L8,7 L11,7 L22,4 L26,4 L24,8 L24,6 L22,8 L24,10 L21,11 L21,9 L19,9 L17,15 L14,14 L13,9 L13,16 L15,17 L15,19 L11,21 L10,23 L7,23 L5,28 L4,26 L2,25 L5,25 L7,21 L11,13 L6,12 L6,9 L3,10 L-2,7 Z " fill="#4A5983" transform="translate(235,153)"/>
<path d="M0,0 L1,0 L1,7 L7,7 L8,5 L8,7 L16,7 L20,9 L5,10 L5,13 L5,23 L3,23 L5,30 L3,34 L1,35 L0,27 L-1,26 L-1,13 Z " fill="#6D7999" transform="translate(59,191)"/>
<path d="M0,0 L1,0 L3,12 L4,13 L6,9 L6,15 L9,16 L6,18 L3,19 L4,26 L5,26 L5,31 L10,28 L12,29 L11,30 L13,32 L7,33 L6,40 L5,40 L4,34 L2,44 L0,41 Z " fill="#4E5D86" transform="translate(226,135)"/>
<path d="M0,0 L2,0 L3,3 L4,78 L0,77 L-1,73 L1,67 L1,52 L0,52 Z " fill="#1F2F5D" transform="translate(132,108)"/>
<path d="M0,0 L5,4 L7,4 L11,8 L12,16 L10,16 L9,11 L7,14 L1,12 L-3,16 L-5,16 L-3,20 L-7,23 L-6,15 L-5,5 L-3,5 Z " fill="#6B7796" transform="translate(133,63)"/>
<path d="M0,0 L1,4 L-1,15 L-3,24 L-9,34 L-11,30 L-10,22 L-7,13 L-3,2 L-1,3 Z " fill="#737E9C" transform="translate(253,215)"/>
<path d="M0,0 L1,3 L3,4 L-3,11 L-6,19 L-6,26 L-3,37 L-7,39 L-10,34 L-11,30 L-11,22 L-10,18 L-8,12 L-3,3 Z " fill="#3B4A73" transform="translate(204,108)"/>
<path d="M0,0 L1,0 L2,81 L0,78 L-1,74 L-1,5 Z " fill="#5F6B8F" transform="translate(183,106)"/>
<path d="M0,0 L9,3 L17,3 L20,4 L20,10 L14,13 L14,17 L23,17 L25,19 L23,20 L21,19 L9,19 L7,17 L6,13 L12,13 L12,8 L2,6 Z " fill="#77819F" transform="translate(40,77)"/>
<path d="M0,0 L8,0 L10,3 L2,4 L3,21 L0,23 L7,23 L7,25 L9,25 L8,21 L10,20 L12,25 L11,27 L0,27 L-3,23 L-2,17 L-1,15 L-1,9 L-3,9 L-2,5 L-5,6 L-4,1 Z " fill="#354571" transform="translate(25,142)"/>
<path d="M0,0 L1,2 L6,3 L8,4 L30,5 L25,9 L22,9 L22,11 L18,11 L17,14 L13,15 L17,10 L18,8 L12,10 L9,14 L7,14 L6,16 L7,9 L2,9 Z " fill="#CACDD9" transform="translate(122,283)"/>
<path d="M0,0 L14,0 L14,1 L2,1 L2,3 L5,4 L-9,7 L-15,11 L-21,12 L-30,12 L-31,8 L-29,7 L-17,6 L-11,7 L-11,4 L-13,3 Z " fill="#515F85" transform="translate(55,111)"/>
<path d="M0,0 L57,0 L63,2 L63,6 L61,10 L56,12 L58,5 L60,5 L60,3 L-2,3 L-4,1 Z " fill="#36456F" transform="translate(119,269)"/>
<path d="M0,0 L2,3 L2,14 L4,14 L4,25 L2,29 L0,17 L-3,10 L-8,9 L-9,9 L-23,9 L-25,8 L-24,4 L-24,6 L-21,5 L-6,5 L-5,2 L-4,6 L0,6 Z " fill="#677293" transform="translate(236,191)"/>
<path d="M0,0 L2,4 L4,4 L7,0 L6,9 L6,78 L7,85 L4,81 L4,6 L0,8 L0,6 L-11,6 L-13,18 L-14,18 L-14,6 L-9,3 L0,4 Z " fill="#1B2C5C" transform="translate(177,102)"/>
<path d="M0,0 L41,0 L41,2 L26,2 L26,3 L-60,4 L-63,5 L-62,2 L0,1 Z " fill="#192B5C" transform="translate(165,256)"/>
<path d="M0,0 L2,2 L2,25 L4,25 L5,40 L2,42 L-1,33 L-3,20 L-3,13 L-1,11 L0,7 L-2,6 L0,6 Z " fill="#727E9D" transform="translate(44,185)"/>
<path d="M0,0 L7,0 L9,1 L46,1 L50,3 L50,4 L5,5 L4,8 L3,1 Z " fill="#3E4D76" transform="translate(121,277)"/>
<path d="M0,0 L2,1 L2,25 L5,34 L5,39 L2,39 L0,38 L0,35 L-1,31 L1,27 L-4,27 L-1,26 L-3,22 L-3,1 L-1,4 Z " fill="#1C2D5E" transform="translate(86,158)"/>
<path d="M0,0 L16,1 L21,2 L19,8 L1,8 L1,11 L-6,11 L-2,8 L-1,4 Z " fill="#E5E7ED" transform="translate(211,189)"/>
<path d="M0,0 L17,0 L19,1 L29,1 L42,0 L43,5 L41,8 L37,7 L28,7 L23,9 L21,7 L21,4 L14,2 L-1,2 Z " fill="#ECEDF0" transform="translate(140,99)"/>
<path d="M0,0 L4,1 L8,2 L83,2 L83,3 L10,3 L14,11 L13,14 L5,7 L3,6 L3,4 L-1,2 Z " fill="#7D89A9" transform="translate(102,263)"/>
<path d="M0,0 L3,1 L2,2 L7,0 L2,5 L-6,7 L-9,7 L-12,9 L-23,9 L-33,6 L-31,4 L-34,2 L-10,4 Z " fill="#3D4B75" transform="translate(81,66)"/>
<path d="M0,0 L75,0 L73,2 L28,2 L28,4 L11,4 L11,2 L0,2 Z " fill="#536087" transform="translate(112,266)"/>
<path d="M0,0 L15,1 L18,3 L20,10 L22,12 L22,15 L17,14 L14,9 L9,7 L9,5 L-3,5 L-10,4 L-10,3 L0,3 Z " fill="#D2D6DF" transform="translate(73,98)"/>
<path d="M0,0 L2,4 L1,10 L4,11 L4,14 L1,15 L-6,14 L-5,21 L-6,22 L-6,32 L-9,30 L-10,26 L-9,24 L-10,17 L-8,9 L-7,6 L-3,5 L-1,6 L-1,1 Z " fill="#30406C" transform="translate(50,163)"/>
<path d="M0,0 L2,0 L2,3 L7,4 L4,13 L1,16 L-4,16 L-7,14 L-6,6 L-3,4 Z " fill="#EFF0F3" transform="translate(239,162)"/>
<path d="M0,0 L4,3 L4,8 L-1,7 L-3,11 L-8,16 L-10,17 L-10,22 L-17,25 L-15,27 L-12,28 L-9,31 L-13,34 L-14,31 L-19,28 L-21,25 L-20,22 L-18,21 L-20,19 L-13,17 L-10,13 L-7,14 L-5,7 L-1,6 Z " fill="#3A4974" transform="translate(140,27)"/>
<path d="M0,0 L1,3 L3,3 L5,1 L6,11 L5,17 L-4,14 L-5,12 L-7,13 L-8,8 L-10,7 L-6,5 L-6,9 L-3,9 L-2,2 L0,2 Z " fill="#687496" transform="translate(175,74)"/>
<path d="M0,0 L4,4 L3,7 L2,18 L2,27 L-2,23 L0,23 L0,18 L-3,18 L-5,14 L-7,12 L-3,1 Z " fill="#9FA7BC" transform="translate(169,216)"/>
<path d="M0,0 L1,0 L4,14 L6,16 L5,19 L4,23 L5,33 L7,41 L7,50 L5,48 L1,31 L0,24 Z " fill="#E8EBF1" transform="translate(38,179)"/>
<path d="M0,0 L2,1 L6,0 L58,0 L59,2 L51,3 L4,2 L4,7 L-1,2 Z " fill="#8890AB" transform="translate(117,275)"/>
<path d="M0,0 L17,0 L22,2 L23,7 L22,10 L20,9 L20,4 L18,4 L15,9 L12,10 L10,23 L9,23 L8,3 L0,2 Z " fill="#B7BDCC" transform="translate(57,112)"/>
<path d="M0,0 L5,0 L6,3 L7,0 L9,9 L9,18 L6,21 L2,21 L4,15 L5,6 L0,5 L-2,9 L-9,10 L-5,6 L-3,3 L-1,3 Z " fill="#9CA4BD" transform="translate(263,98)"/>
<path d="M0,0 L3,1 L4,4 L12,3 L11,0 L16,1 L15,5 L12,6 L24,7 L24,8 L14,9 L2,9 L-7,8 L-16,7 L-14,4 L-2,5 Z " fill="#57668E" transform="translate(58,96)"/>
<path d="M0,0 L40,0 L55,2 L55,3 L47,4 L37,3 L26,4 L21,3 L20,5 L18,3 L6,4 L6,2 L-2,3 L-2,1 Z " fill="#192B5D" transform="translate(162,97)"/>
<path d="M0,0 L18,1 L16,7 L0,9 L-2,8 L-2,2 Z " fill="#F8F8F9" transform="translate(116,189)"/>
<path d="M0,0 L9,3 L8,7 L7,6 L5,8 L5,5 L-7,6 L-8,8 L-18,10 L-19,9 L-31,9 L-31,8 L-22,7 L-20,6 L-14,6 L-14,4 Z " fill="#42517B" transform="translate(266,141)"/>
<path d="M0,0 L1,0 L2,16 L1,22 L3,22 L6,30 L8,32 L7,36 L5,36 L-1,27 L-2,21 L-4,21 L-5,14 L-2,15 L-1,10 L-2,5 L0,5 Z " fill="#8690AA" transform="translate(64,209)"/>
<path d="M0,0 L45,0 L40,7 L36,8 L36,4 L32,3 L-4,2 Z " fill="#F6F6F7" transform="translate(144,267)"/>
<path d="M0,0 L5,0 L6,1 L7,12 L6,14 L0,13 L-3,11 L-3,8 L-5,8 L-4,3 L-1,3 Z " fill="#F4F5F6" transform="translate(123,215)"/>
<path d="M0,0 L2,1 L2,29 L1,33 L-2,32 L-2,12 L-4,3 L-3,1 Z " fill="#FAFAFA" transform="translate(99,212)"/>
<path d="M0,0 L2,4 L2,9 L4,10 L-1,11 L-3,15 L-8,19 L-9,17 L-13,17 L-12,11 L-4,7 L-2,4 L-2,1 Z " fill="#A8AFC1" transform="translate(176,47)"/>
<path d="M0,0 L2,2 L3,9 L0,14 L-4,18 L-13,16 L-16,12 L-15,8 L-11,10 L-9,11 L-9,13 L-6,13 L-5,9 L0,8 L0,6 L-2,4 Z " fill="#2F3E6B" transform="translate(155,45)"/>
<path d="M0,0 L1,0 L3,12 L3,17 L1,17 L2,81 L0,85 L-1,84 Z " fill="#A0A9C4" transform="translate(112,104)"/>
<path d="M0,0 L47,0 L53,1 L53,2 L44,3 L25,3 L17,2 L18,4 L15,4 L14,6 L11,4 L7,3 L-3,2 Z " fill="#112355" transform="translate(77,97)"/>
<path d="M0,0 L6,1 L9,1 L14,2 L13,5 L22,5 L26,7 L27,9 L11,9 L-1,2 Z " fill="#8C95B0" transform="translate(245,116)"/>
<path d="M0,0 L3,0 L7,4 L15,7 L15,8 L10,8 L9,13 L7,13 L7,6 L5,10 L2,7 L-4,7 L-9,9 L-9,2 L-2,1 L0,2 Z " fill="#E9EAEE" transform="translate(206,256)"/>
<path d="M0,0 L2,4 L4,4 L6,10 L5,25 L3,41 L2,41 L1,29 L1,16 L2,9 L0,8 L2,8 L0,3 Z " fill="#2C3C6A" transform="translate(250,172)"/>
<path d="M0,0 L1,2 L-8,4 L-12,4 L-13,11 L-9,14 L-13,17 L-18,16 L-19,2 L-18,5 L-16,3 L-12,1 Z " fill="#FAFAFA" transform="translate(247,149)"/>
<path d="M0,0 L1,0 L3,6 L4,10 L3,12 L1,12 L0,16 L-5,20 L-7,20 L-7,18 L-9,20 L-13,21 L-20,18 L-18,17 L-17,17 L-19,16 L-18,14 L-11,17 L-11,16 L-3,14 L-3,10 L-1,9 Z " fill="#263664" transform="translate(160,302)"/>
<path d="M0,0 L7,3 L6,10 L4,10 L3,7 L-3,7 L-4,23 L-8,24 L-7,21 L-5,22 L-6,19 L-6,7 L-4,4 L-7,4 L-7,2 Z " fill="#6B789B" transform="translate(32,95)"/>
<path d="M0,0 L9,0 L13,2 L13,5 L15,4 L15,22 L14,25 L11,26 L9,21 L12,20 L10,4 L7,4 L8,2 L2,2 Z " fill="#354571" transform="translate(260,96)"/>
<path d="M0,0 L1,0 L2,42 L14,45 L14,47 L2,46 L-1,41 L-1,4 Z " fill="#576489" transform="translate(117,137)"/>
<path d="M0,0 L7,1 L7,3 L12,4 L10,8 L4,6 L5,14 L2,16 L-2,8 L-3,2 L0,2 Z " fill="#505E84" transform="translate(35,63)"/>
<path d="M0,0 L1,0 L1,15 L0,18 L11,18 L13,20 L8,21 L-2,19 L-5,12 L-6,8 L-3,5 L-1,5 Z " fill="#647196" transform="translate(70,163)"/>
<path d="M0,0 L12,1 L13,6 L-5,5 L-8,4 L-9,12 L-12,11 L-13,8 L-11,4 L-9,5 L-9,3 L-3,2 Z " fill="#46557E" transform="translate(219,185)"/>
<path d="M0,0 L2,4 L2,63 L-11,63 L-9,61 L0,61 Z " fill="#909BBA" transform="translate(225,120)"/>
<path d="M0,0 L1,3 L0,5 L-7,7 L3,8 L3,9 L-14,10 L-13,7 L-19,10 L-21,9 L-17,5 L-12,3 Z " fill="#7580A1" transform="translate(116,49)"/>
<path d="M0,0 L4,1 L1,1 L1,6 L-2,8 L-2,6 L-4,7 L-41,7 L-45,4 L-42,3 L-42,5 L-5,5 L-2,3 L0,2 Z " fill="#4D5B83" transform="translate(171,281)"/>
<path d="M0,0 L7,0 L7,9 L7,11 L17,13 L17,14 L5,14 L3,13 L4,4 L-13,4 L-12,2 L0,2 Z " fill="#8891AA" transform="translate(131,186)"/>
<path d="M0,0 L7,0 L3,2 L4,7 L10,11 L10,16 L8,16 L6,13 L-2,13 L2,12 L2,10 L-9,10 L-8,8 L-1,7 Z " fill="#E5E6EC" transform="translate(117,47)"/>
<path d="M0,0 L7,0 L4,10 L4,37 L1,34 L1,3 L-2,6 L-4,6 L-4,1 Z " fill="#FAFAFA" transform="translate(227,113)"/>
<path d="M0,0 L2,0 L3,75 L0,74 L0,9 L-1,1 Z " fill="#FAFAFA" transform="translate(179,108)"/>
<path d="M0,0 L4,3 L4,5 L7,6 L5,10 L1,10 L0,13 L-3,13 L-3,11 L-7,9 L-9,5 L-5,5 L-2,2 L-1,3 Z " fill="#CED3E0" transform="translate(149,45)"/>
<path d="M0,0 L5,0 L1,1 L1,6 L7,2 L7,31 L5,27 L4,7 L-1,10 L-7,17 L-8,14 L-1,6 L-1,2 L-3,1 Z " fill="#2D3D6A" transform="translate(222,113)"/>
<path d="M0,0 L9,2 L16,4 L12,8 L12,14 L11,12 L5,13 L6,6 L2,5 Z " fill="#AAB1C4" transform="translate(38,157)"/>
<path d="M0,0 L2,1 L4,10 L1,11 L-16,11 L-20,8 L-18,1 L-17,1 L-16,8 L-2,7 Z " fill="#7D87A5" transform="translate(156,188)"/>
<path d="M0,0 L1,0 L1,12 L0,19 L-1,19 L-2,14 L-5,20 L-6,18 L-6,4 L-4,2 L-3,3 Z " fill="#717EA0" transform="translate(275,144)"/>
<path d="M0,0 L2,1 L1,4 L1,78 L-2,78 L-1,1 Z " fill="#546188" transform="translate(161,107)"/>
<path d="M0,0 L2,0 L2,43 L0,42 L-1,6 Z " fill="#A5AECA" transform="translate(213,136)"/>
<path d="M0,0 L5,0 L5,2 L9,2 L9,4 L5,8 L-4,7 L-5,9 L-7,8 L-6,4 L-12,3 L-12,2 L-1,2 L1,2 Z " fill="#919AB4" transform="translate(239,110)"/>
<path d="M0,0 L1,2 L5,1 L3,6 L0,6 L0,8 L-2,9 L1,10 L0,14 L0,11 L-4,11 L-5,13 L-11,8 L-7,5 L-1,2 Z " fill="#7B86A4" transform="translate(162,62)"/>
<path d="M0,0 L5,5 L9,13 L10,23 L9,28 L8,28 L7,21 L6,26 L5,26 L4,14 L1,5 L-1,2 Z " fill="#2B3B6A" transform="translate(95,111)"/>
<path d="M0,0 L1,0 L2,6 L3,61 L2,67 L1,67 L0,10 L-1,3 L-3,1 Z " fill="#0F2052" transform="translate(130,105)"/>
<path d="M0,0 L2,4 L5,10 L5,12 L-1,12 L-1,10 L-16,10 L-18,6 L-17,2 L-14,6 L-14,8 L-3,7 L0,8 L-1,5 Z " fill="#CBD0DF" transform="translate(108,188)"/>
<path d="M0,0 L5,5 L4,17 L1,19 L1,17 L-3,18 L-3,15 L-5,17 L-9,16 L-7,14 L-2,14 L-1,10 L0,8 L3,8 L1,3 Z " fill="#636F8F" transform="translate(182,295)"/>
<path d="M0,0 L2,3 L2,10 L3,5 L4,5 L5,19 L3,19 L2,22 L-1,23 L-1,4 Z " fill="#6C789C" transform="translate(22,98)"/>
<path d="M0,0 L2,4 L2,23 L4,23 L3,30 L2,34 L-1,33 Z " fill="#58658A" transform="translate(64,115)"/>
<path d="M0,0 L3,1 L3,73 L2,73 L1,4 Z " fill="#253667" transform="translate(133,103)"/>
<path d="M0,0 L3,3 L2,6 L11,7 L13,5 L15,8 L17,7 L17,10 L10,11 L10,9 L-1,8 L-2,11 L-4,11 L-6,13 L-6,10 L-8,10 L-8,8 L-2,5 Z " fill="#293A68" transform="translate(86,78)"/>
<path d="M0,0 L8,0 L13,6 L13,12 L18,11 L25,13 L25,14 L15,15 L12,15 L10,11 L11,5 L9,5 L8,7 L8,5 L3,4 L4,2 Z " fill="#1F3162" transform="translate(75,244)"/>
<path d="M0,0 L1,0 L1,42 L0,42 L-1,26 L-3,26 L-1,17 L-3,17 L-2,4 Z " fill="#0E2053" transform="translate(69,121)"/>
<path d="M0,0 L1,4 L1,17 L-4,18 L-4,8 L-9,8 L-5,6 L-5,4 L-2,3 Z " fill="#BDC3D1" transform="translate(167,64)"/>
<path d="M0,0 L65,0 L71,1 L71,2 L0,1 Z " fill="#384875" transform="translate(100,256)"/>
<path d="M0,0 L2,4 L4,1 L4,3 L16,2 L21,3 L21,4 L9,5 L5,7 L4,13 L6,14 L4,14 L3,16 L-1,8 Z " fill="#233465" transform="translate(110,184)"/>
<path d="M0,0 L2,0 L5,4 L8,4 L9,7 L19,7 L17,9 L0,10 Z " fill="#F3F4F7" transform="translate(254,162)"/>
<path d="M0,0 L1,4 L1,10 L-20,10 L-20,8 L-13,6 L-2,5 Z " fill="#9AA3BD" transform="translate(134,190)"/>
<path d="M0,0 L2,1 L3,28 L1,29 L-1,21 L-1,5 Z " fill="#828EAF" transform="translate(231,118)"/>
<path d="M0,0 L6,0 L6,3 L3,5 L4,8 L-5,8 L-7,7 L-6,4 L-3,4 L-4,1 Z " fill="#DCDEE6" transform="translate(67,92)"/>
<path d="M0,0 L4,0 L2,5 L-3,10 L-5,15 L-8,14 L-7,6 L-3,2 Z " fill="#E1E3E8" transform="translate(136,291)"/>
<path d="M0,0 L4,0 L4,5 L19,5 L20,8 L3,8 L2,5 L-1,5 Z " fill="#647092" transform="translate(183,192)"/>
<path d="M0,0 L1,0 L2,25 L2,52 L3,56 L0,55 Z " fill="#BEC4D7" transform="translate(82,128)"/>
<path d="M0,0 L25,0 L30,1 L30,3 L38,2 L38,4 L29,4 L27,3 L6,3 L1,2 L1,5 L-2,4 L0,4 Z " fill="#304070" transform="translate(130,97)"/>
<path d="M0,0 L1,0 L2,11 L6,12 L6,15 L12,17 L10,18 L2,15 L4,20 L-1,16 L-2,9 Z " fill="#979FB6" transform="translate(135,303)"/>
<path d="M0,0 L48,0 L47,4 L42,3 L39,2 L-3,2 Z " fill="#FAFAFA" transform="translate(128,277)"/>
<path d="M0,0 L2,1 L0,4 L-4,4 L-5,6 L-5,4 L-21,4 L-23,5 L-26,10 L-27,10 L-28,3 L-27,1 L-25,1 L-25,3 L-19,2 L-1,2 Z " fill="#273868" transform="translate(185,185)"/>
<path d="M0,0 L1,3 L3,3 L3,12 L2,12 L1,56 L0,56 Z " fill="#14285F" transform="translate(113,121)"/>
<path d="M0,0 L16,2 L18,4 L16,4 L16,6 L-3,5 L1,3 Z " fill="#31406B" transform="translate(178,54)"/>
<path d="M0,0 L2,1 L3,0 L14,1 L16,2 L17,0 L17,3 L19,4 L10,5 L1,6 L-1,5 Z " fill="#F1F2F4" transform="translate(115,182)"/>
<path d="M0,0 L3,2 L4,4 L7,3 L7,11 L9,11 L9,15 L5,15 L2,10 L0,8 Z " fill="#DADCE4" transform="translate(247,161)"/>
<path d="M0,0 L12,0 L10,4 L12,4 L12,12 L10,12 L7,6 L7,4 L-3,3 Z " fill="#384773" transform="translate(51,149)"/>
<path d="M0,0 L1,2 L13,1 L17,1 L14,6 L13,8 L11,9 L10,12 L8,12 L7,5 L8,4 L-1,3 Z " fill="#273764" transform="translate(130,43)"/>
</svg>
