<?xml version="1.0" encoding="UTF-8"?>
<!-- Generator: visioncortex VTracer 0.6.12 -->
<svg xmlns:xlink="http://www.w3.org/1999/xlink" xmlns:sodipodi="http://sodipodi.sourceforge.net/DTD/sodipodi-0.0.dtd" xmlns:inkscape="http://www.inkscape.org/namespaces/inkscape" version="1.1" xmlns="http://www.w3.org/2000/svg" width="235" height="344">
<path d="M0,0 L235,0 L235,344 L0,344 Z " fill="#F6F6F6" transform="translate(0,0)"/>
<path d="M0,0 L12,0 L27,2 L34,5 L39,10 L41,13 L39,15 L37,15 L34,20 L31,30 L28,37 L17,40 L3,41 L-3,41 L4,43 L11,43 L18,41 L27,40 L36,38 L43,40 L43,47 L47,47 L46,50 L46,48 L43,48 L44,55 L39,68 L37,81 L37,88 L40,105 L46,119 L52,127 L54,131 L64,139 L77,145 L81,148 L83,150 L85,149 L89,158 L80,161 L75,163 L65,163 L53,164 L53,166 L63,166 L70,165 L81,164 L85,163 L95,162 L96,167 L97,250 L88,255 L86,257 L93,255 L95,260 L94,268 L100,267 L100,270 L97,270 L99,275 L92,283 L90,283 L88,287 L81,292 L67,297 L64,297 L64,295 L54,299 L35,301 L33,299 L35,294 L-5,294 L-32,293 L-38,291 L-43,291 L-51,288 L-47,287 L-34,288 L-19,289 L-19,291 L39,291 L49,290 L59,288 L66,287 L66,285 L79,280 L82,277 L86,277 L87,273 L89,273 L92,267 L92,261 L91,259 L79,262 L79,263 L62,266 L48,267 L34,270 L26,271 L-14,271 L-37,268 L-37,267 L-52,266 L-57,265 L-53,262 L-49,263 L-48,260 L-55,260 L-57,262 L-64,263 L-76,260 L-73,270 L-70,278 L-66,280 L-68,281 L-77,277 L-82,273 L-83,269 L-81,262 L-83,262 L-85,267 L-86,267 L-89,246 L-89,175 L-87,161 L-81,153 L-77,151 L-75,148 L-73,144 L-69,139 L-71,132 L-68,131 L-63,134 L-63,139 L-58,140 L-57,144 L-51,141 L-48,134 L-45,130 L-44,127 L-42,127 L-42,125 L-46,125 L-46,123 L-49,123 L-53,119 L-58,117 L-56,113 L-55,110 L-53,114 L-53,116 L-48,117 L-40,118 L-38,116 L-35,115 L-35,120 L-32,120 L-31,114 L-28,114 L-25,105 L-30,103 L-32,105 L-30,95 L-27,81 L-28,78 L-36,77 L-46,81 L-54,85 L-55,84 L-55,79 L-49,80 L-45,77 L-49,78 L-50,72 L-57,72 L-58,77 L-62,77 L-65,86 L-66,88 L-69,87 L-70,80 L-68,77 L-65,77 L-63,73 L-57,68 L-49,65 L-42,63 L-41,66 L-43,68 L-43,72 L-37,72 L-37,70 L-29,70 L-27,72 L-25,72 L-25,70 L-23,69 L-24,59 L-26,59 L-29,52 L-29,43 L-32,41 L-33,42 L-33,58 L-35,56 L-36,52 L-36,44 L-34,38 L-32,38 L-30,34 L-27,33 L-26,24 L-27,17 L-26,10 L-20,8 L-18,4 L-9,1 Z M-50,71 Z M-74,147 Z " fill="#EFF1EF" transform="translate(110,21)"/>
<path d="M0,0 L12,0 L27,2 L34,5 L39,10 L41,13 L39,15 L37,15 L34,20 L31,30 L28,37 L17,40 L3,41 L-3,41 L4,43 L11,43 L18,41 L27,40 L36,38 L43,40 L43,47 L47,47 L46,50 L46,48 L43,48 L44,55 L39,68 L37,81 L37,88 L40,105 L46,119 L52,127 L54,131 L64,139 L77,145 L81,148 L86,154 L86,158 L73,161 L59,162 L50,164 L9,164 L-23,163 L-46,161 L-66,158 L-70,155 L-66,150 L-59,146 L-49,142 L-46,137 L-42,136 L-34,128 L-31,123 L-27,113 L-22,102 L-19,83 L-20,73 L-24,62 L-24,59 L-26,59 L-29,52 L-29,43 L-32,41 L-33,42 L-33,58 L-35,56 L-36,52 L-36,44 L-34,38 L-32,38 L-30,34 L-27,33 L-26,24 L-27,17 L-26,10 L-20,8 L-18,4 L-9,1 Z " fill="#F5F7F5" transform="translate(110,21)"/>
<path d="M0,0 L12,0 L27,2 L34,5 L39,10 L41,13 L39,15 L37,15 L34,20 L31,30 L28,37 L17,40 L3,41 L-3,41 L-1,43 L-7,44 L-8,42 L-20,39 L-24,40 L-21,37 L-13,38 L-14,35 L-19,35 L-20,34 L-20,29 L-22,28 L-24,26 L-23,31 L-27,33 L-26,24 L-27,17 L-26,10 L-20,8 L-18,4 L-9,1 Z " fill="#E2E5E2" transform="translate(110,21)"/>
<path d="M0,0 L2,2 L3,10 L2,13 L8,12 L8,15 L5,15 L7,20 L0,28 L-2,28 L-4,32 L-11,37 L-25,42 L-28,42 L-28,40 L-38,44 L-57,46 L-59,44 L-57,39 L-97,39 L-124,38 L-130,36 L-135,36 L-143,33 L-139,32 L-126,33 L-111,34 L-111,36 L-53,36 L-43,35 L-33,33 L-26,32 L-26,30 L-13,25 L-10,22 L-6,22 L-5,18 L-3,18 L0,12 L0,6 L-1,4 L-13,7 L-13,8 L-30,11 L-44,12 L-58,15 L-66,16 L-106,16 L-129,13 L-129,12 L-114,10 L-108,11 L-103,10 L-105,12 L-96,12 L-96,14 L-83,13 L-63,12 L-64,9 L-67,8 L-63,7 L-44,6 L-40,9 L-38,9 L-37,7 L-35,9 L-30,9 L-29,7 L-29,9 L-24,7 L-20,7 L-20,5 L-27,4 L-23,2 L-18,1 L-11,3 L-4,2 Z " fill="#D9DDDA" transform="translate(202,276)"/>
<path d="M0,0 L8,1 L10,7 L5,26 L7,25 L8,27 L12,29 L8,38 L6,40 L4,47 L3,45 L0,44 L0,40 L-4,43 L-12,42 L-18,40 L-19,34 L-21,34 L-25,27 L-25,24 L-22,15 L-19,9 L-4,1 Z " fill="#F5F6F4" transform="translate(74,97)"/>
<path d="M0,0 L3,1 L3,3 L1,5 L1,9 L7,9 L7,7 L15,7 L17,9 L19,9 L19,7 L21,6 L23,3 L26,15 L25,24 L23,39 L15,56 L12,63 L5,71 L0,75 L-2,75 L-2,78 L-11,83 L-19,86 L-25,90 L-23,86 L-16,82 L-15,78 L-17,77 L-14,77 L-13,81 L-7,78 L-4,71 L-1,67 L0,64 L2,64 L2,62 L-2,62 L-2,60 L-5,60 L-9,56 L-14,54 L-12,50 L-11,47 L-9,51 L-9,53 L-4,54 L4,55 L6,53 L9,52 L9,57 L12,57 L13,51 L16,51 L19,42 L14,40 L12,42 L14,32 L17,18 L16,15 L8,14 L-2,18 L-10,22 L-11,21 L-11,16 L-5,17 L-1,14 L-5,15 L-6,9 L-13,9 L-14,14 L-18,14 L-21,23 L-22,25 L-25,24 L-26,17 L-24,14 L-21,14 L-19,10 L-13,5 L-5,2 Z M-6,8 Z " fill="#DCDFDC" transform="translate(66,84)"/>
<path d="M0,0 L3,4 L5,9 L-4,12 L-9,14 L-19,14 L-31,15 L-31,17 L-21,17 L-14,16 L-3,16 L-7,18 L-17,19 L-31,20 L-47,22 L-60,20 L-59,17 L-89,17 L-89,20 L-98,20 L-98,19 L-91,18 L-121,16 L-125,15 L-126,18 L-127,15 L-137,13 L-138,15 L-147,12 L-147,14 L-149,13 L-150,12 L-157,11 L-155,9 L-159,8 L-159,6 L-153,4 L-152,7 L-145,9 L-122,12 L-107,13 L-71,14 L-34,14 L-25,12 L-5,10 L2,9 L0,4 L-1,2 Z M-130,17 L-126,19 L-133,19 Z " fill="#516953" transform="translate(194,170)"/>
<path d="M0,0 L2,2 L3,10 L2,13 L8,12 L8,15 L5,15 L4,18 L4,16 L-2,17 L0,12 L0,6 L-1,4 L-13,7 L-13,8 L-30,11 L-44,12 L-58,15 L-66,16 L-106,16 L-129,13 L-129,12 L-114,10 L-108,11 L-103,10 L-105,12 L-96,12 L-96,14 L-83,13 L-63,12 L-64,9 L-67,8 L-63,7 L-44,6 L-40,9 L-38,9 L-37,7 L-35,9 L-30,9 L-29,7 L-29,9 L-24,7 L-20,7 L-20,5 L-27,4 L-23,2 L-18,1 L-11,3 L-4,2 Z " fill="#A7BEA1" transform="translate(202,276)"/>
<path d="M0,0 L2,3 L4,12 L3,21 L1,36 L-7,53 L-10,60 L-17,68 L-22,72 L-24,72 L-24,75 L-33,80 L-41,83 L-47,87 L-45,83 L-38,79 L-37,75 L-39,74 L-36,74 L-35,78 L-29,75 L-26,68 L-23,64 L-22,61 L-20,61 L-20,59 L-24,59 L-24,57 L-27,57 L-31,53 L-36,51 L-34,47 L-33,44 L-31,48 L-31,50 L-26,51 L-18,52 L-16,50 L-13,49 L-13,54 L-10,54 L-9,48 L-6,48 L-3,39 L-8,37 L-10,39 L-8,29 L-6,20 L-5,20 L-6,28 L-4,28 L-4,30 L0,30 L1,13 L0,5 L-3,4 L-1,3 Z " fill="#C0C7C1" transform="translate(88,87)"/>
<path d="M0,0 L3,1 L5,18 L7,28 L16,45 L19,50 L19,52 L25,54 L30,59 L24,61 L20,62 L3,62 L1,61 L3,57 L9,57 L10,55 L10,46 L9,42 L6,39 L5,36 L7,35 L3,31 L1,17 L0,10 Z " fill="#F8F8F8" transform="translate(131,111)"/>
<path d="M0,0 L23,1 L63,2 L62,7 L57,8 L23,8 L-3,6 L-4,1 Z " fill="#FAFAFA" transform="translate(82,313)"/>
<path d="M0,0 L34,2 L36,5 L36,2 L66,2 L66,4 L71,5 L71,7 L20,7 L-1,5 Z " fill="#D6DAD7" transform="translate(69,185)"/>
<path d="M0,0 L9,1 L21,4 L47,7 L58,8 L58,9 L49,10 L29,7 L29,9 L40,10 L41,12 L18,12 L13,11 L17,8 L21,9 L22,6 L15,6 L13,8 L6,9 L-6,6 L-3,16 L0,24 L4,26 L2,27 L-7,23 L-5,20 L-8,11 L-8,2 L1,4 L3,4 L3,2 Z " fill="#4A5F4E" transform="translate(40,275)"/>
<path d="M0,0 L0,3 L-2,6 L-3,44 L-2,48 L-2,59 L-3,63 L-3,75 L-2,79 L-2,90 L-3,96 L-2,97 L-1,110 L-3,111 L-6,90 L-6,19 L-4,5 Z " fill="#708372" transform="translate(27,177)"/>
<path d="M0,0 L11,0 L32,2 L32,4 L100,4 L100,5 L88,7 L86,11 L86,7 L46,7 L19,6 L13,4 L8,4 L0,1 Z " fill="#384F3B" transform="translate(59,308)"/>
<path d="M0,0 L12,0 L27,2 L34,5 L39,10 L41,13 L39,15 L37,15 L34,20 L31,30 L29,31 L31,21 L33,16 L30,12 L30,10 L25,9 L23,7 L22,6 L21,8 L12,8 L2,7 L2,6 L18,6 L20,5 L21,2 L5,2 L-4,3 L-16,4 L-13,2 Z " fill="#B3BBB5" transform="translate(110,21)"/>
<path d="M0,0 L9,2 L9,9 L13,9 L12,12 L12,10 L9,10 L10,17 L5,30 L3,43 L3,50 L6,67 L12,81 L18,89 L18,91 L15,90 L8,78 L3,66 L2,65 L1,51 L1,38 L2,29 L7,19 L8,4 L1,3 L-7,5 L-21,7 L-33,7 L-35,5 L-23,5 L-16,3 L-7,2 Z " fill="#132D1A" transform="translate(144,59)"/>
<path d="M0,0 L2,3 L4,12 L3,21 L1,36 L-7,53 L-10,60 L-12,63 L-15,63 L-14,61 L-13,58 L-13,55 L-10,54 L-9,48 L-6,48 L-3,39 L-8,37 L-10,39 L-8,29 L-6,20 L-5,20 L-6,28 L-4,28 L-4,30 L0,30 L1,13 L0,5 L-3,4 L-1,3 Z " fill="#8A968D" transform="translate(88,87)"/>
<path d="M0,0 L2,2 L3,10 L2,13 L8,12 L8,15 L5,15 L4,18 L4,16 L-2,17 L0,12 L0,6 L-1,4 L-13,7 L-13,8 L-30,11 L-44,12 L-49,13 L-58,13 L-58,12 L-47,10 L-47,8 L-40,8 L-38,9 L-37,7 L-35,9 L-30,9 L-29,7 L-29,9 L-24,7 L-20,7 L-20,5 L-27,4 L-23,2 L-18,1 L-11,3 L-4,2 Z " fill="#122B18" transform="translate(202,276)"/>
<path d="M0,0 L4,4 L24,7 L24,9 L56,11 L66,12 L65,16 L56,16 L56,15 L63,14 L33,12 L29,11 L28,14 L27,11 L17,9 L16,11 L7,8 L7,10 L5,9 L4,8 L-3,7 L-1,5 L-5,4 L-5,2 Z M24,13 L28,15 L21,15 Z " fill="#122C19" transform="translate(40,174)"/>
<path d="M0,0 L4,3 L4,12 L8,23 L7,25 L1,23 L-4,25 L-4,21 L-2,21 L-2,2 Z " fill="#FAFAFA" transform="translate(78,61)"/>
<path d="M0,0 L6,1 L6,4 L-2,7 L-7,10 L-14,10 L-19,6 L-27,4 L-34,7 L-35,3 L-31,1 L-21,1 L-16,4 L-15,6 L-8,6 Z " fill="#FAFAFA" transform="translate(159,243)"/>
<path d="M0,0 L9,1 L17,7 L21,4 L23,5 L21,9 L25,8 L21,12 L14,13 L4,7 L1,5 L2,4 L-3,2 Z " fill="#8B978E" transform="translate(131,216)"/>
<path d="M0,0 L3,1 L3,3 L-1,5 L-7,5 L-11,7 L-6,8 L-6,9 L-13,9 L-14,14 L-18,14 L-21,23 L-22,25 L-25,24 L-26,17 L-24,14 L-21,14 L-19,10 L-13,5 L-5,2 Z " fill="#939E96" transform="translate(66,84)"/>
<path d="M0,0 L3,4 L5,9 L-4,12 L-9,14 L-19,14 L-31,15 L-31,17 L-21,17 L-14,16 L-3,16 L-7,18 L-17,19 L-35,19 L-36,16 L-34,16 L-34,14 L-25,12 L-5,10 L2,9 L0,4 L-1,2 Z " fill="#495D4E" transform="translate(194,170)"/>
<path d="M0,0 L1,0 L1,55 L0,60 L1,63 L1,72 L-1,76 L-2,57 L-1,34 L-2,25 L-1,20 Z " fill="#19321F" transform="translate(214,200)"/>
<path d="M0,0 L0,3 L-2,6 L-3,44 L-4,51 L-6,52 L-6,19 L-4,5 Z " fill="#2D4531" transform="translate(27,177)"/>
<path d="M0,0 L7,0 L4,1 L4,3 L7,4 L-1,6 L0,8 L-13,9 L-11,7 L-13,3 L-16,2 L-12,1 Z " fill="#5D6E62" transform="translate(151,282)"/>
<path d="M0,0 L30,0 L30,2 L35,3 L35,4 L24,4 L24,2 L22,3 L7,4 L-9,4 L-9,3 L0,3 Z " fill="#FAFAFA" transform="translate(105,187)"/>
<path d="M0,0 L12,0 L27,2 L34,5 L38,8 L37,10 L29,5 L24,4 L21,8 L12,8 L2,7 L2,6 L18,6 L20,5 L21,2 L5,2 L-4,3 L-16,4 L-13,2 Z " fill="#112A17" transform="translate(110,21)"/>
<path d="M0,0 L4,0 L4,2 L8,4 L5,9 L0,10 L-24,10 L-30,8 L-27,5 L-22,7 L-5,7 L4,5 Z " fill="#89A086" transform="translate(156,165)"/>
<path d="M0,0 L1,4 L-2,7 L-18,10 L-31,10 L-29,12 L-35,13 L-36,11 L-48,8 L-52,9 L-49,6 L-41,7 L-42,4 L-37,6 L-29,7 L-12,7 L-1,5 Z " fill="#112A17" transform="translate(138,52)"/>
<path d="M0,0 L7,1 L10,4 L-3,3 L-3,84 L-4,84 L-4,2 L0,2 Z " fill="#112A17" transform="translate(32,182)"/>
<path d="M0,0 L4,2 L5,8 L10,9 L12,13 L3,12 L-3,15 L-6,13 L-5,9 L0,4 Z " fill="#F3F3F3" transform="translate(86,47)"/>
<path d="M0,0 L2,1 L0,3 L0,6 L5,7 L4,15 L3,17 L4,26 L2,23 L0,19 L0,10 L-3,8 L-4,9 L-4,25 L-6,23 L-7,19 L-7,11 L-5,5 L-3,5 L-1,1 Z " fill="#2E4733" transform="translate(81,54)"/>
<path d="M0,0 L2,1 L1,2 L11,3 L11,4 L-40,4 L-52,3 L-53,1 L-44,1 L-33,2 L-17,2 L-2,1 Z " fill="#142D1A" transform="translate(129,188)"/>
<path d="M0,0 L3,0 L5,4 L-16,5 L-23,2 L-23,1 Z " fill="#FAFAFA" transform="translate(135,285)"/>
<path d="M0,0 L3,1 L-5,8 L-13,12 L-26,14 L-33,14 L-31,12 L-16,10 L-16,8 L-3,3 Z " fill="#374F3C" transform="translate(192,298)"/>
<path d="M0,0 L11,0 L32,2 L31,5 L19,6 L13,4 L8,4 L0,1 Z " fill="#879B87" transform="translate(59,308)"/>
<path d="M0,0 L3,4 L5,35 L6,42 L4,41 L1,26 L0,6 L-1,2 Z " fill="#1D3723" transform="translate(133,98)"/>
<path d="M0,0 L2,2 L6,4 L2,13 L-6,13 L-5,8 L-4,6 L-2,6 Z " fill="#D5D9D6" transform="translate(80,122)"/>
<path d="M0,0 L1,2 L5,4 L3,6 L4,10 L8,12 L6,12 L8,15 L8,24 L6,27 L-2,27 L-3,25 L4,24 L6,18 L4,15 L0,7 Z " fill="#607662" transform="translate(134,142)"/>
<path d="M0,0 L4,0 L4,4 L16,4 L17,6 L-6,6 L-11,5 L-7,2 L-1,3 Z " fill="#39523C" transform="translate(64,281)"/>
<path d="M0,0 L20,0 L18,2 L11,3 L-17,3 L-17,2 Z " fill="#5B725B" transform="translate(123,184)"/>
<path d="M0,0 L4,4 L24,7 L24,8 L7,8 L7,10 L5,9 L4,8 L-3,7 L-1,5 L-5,4 L-5,2 Z " fill="#6C826C" transform="translate(40,174)"/>
<path d="M0,0 L8,6 L18,11 L26,15 L26,17 L28,19 L23,18 L16,15 L17,13 L6,9 L5,7 L1,5 Z " fill="#132C19" transform="translate(165,153)"/>
<path d="M0,0 L9,1 L12,2 L11,7 L7,8 L-3,2 Z " fill="#FAFAFA" transform="translate(173,156)"/>
<path d="M0,0 L10,1 L11,5 L-3,5 L-15,4 L-15,3 L-5,2 Z " fill="#596B5E" transform="translate(57,183)"/>
<path d="M0,0 L7,0 L7,1 L-13,3 L-22,5 L-39,5 L-39,3 Z " fill="#B2C6AD" transform="translate(182,180)"/>
<path d="M0,0 L7,0 L7,2 L20,1 L41,1 L39,3 L5,3 L-3,2 Z M41,0 Z " fill="#112B18" transform="translate(99,288)"/>
<path d="M0,0 L14,1 L22,3 L24,4 L24,6 L15,6 L15,4 L5,5 L6,3 L0,1 Z " fill="#EFF0F0" transform="translate(91,284)"/>
<path d="M0,0 L8,0 L11,2 L10,4 L2,3 L-8,7 L-16,11 L-17,10 L-17,5 L-11,6 Z " fill="#253C2B" transform="translate(72,95)"/>
<path d="M0,0 L34,0 L37,2 L13,3 L0,1 Z " fill="#122C19" transform="translate(98,284)"/>
<path d="M0,0 L4,2 L1,2 L5,14 L8,22 L12,24 L10,25 L1,21 L3,18 L0,9 Z " fill="#2F4534" transform="translate(32,277)"/>
<path d="M0,0 L1,2 L-6,17 L-9,24 L-11,27 L-14,27 L-13,25 L-12,22 L-12,19 L-9,18 L-8,12 L-5,12 L-2,3 L-5,1 Z " fill="#112B18" transform="translate(87,123)"/>
<path d="M0,0 L3,1 L3,3 L-1,5 L-7,5 L-11,7 L-6,8 L-6,9 L-13,9 L-14,11 L-14,9 L-19,13 L-21,12 L-13,5 L-5,2 Z " fill="#1C3422" transform="translate(66,84)"/>
<path d="M0,0 L2,3 L4,12 L3,21 L1,36 L0,36 L0,31 L-2,30 L0,30 L1,13 L0,5 L-3,4 L-1,3 Z " fill="#122C19" transform="translate(88,87)"/>
<path d="M0,0 L10,0 L10,1 L-2,3 L-4,7 L-4,3 L-44,3 L-44,2 L-4,1 Z " fill="#152F1C" transform="translate(149,312)"/>
<path d="M0,0 L9,0 L9,4 L-4,4 L-11,3 L-11,1 Z " fill="#FAFAFA" transform="translate(147,186)"/>
<path d="M0,0 L1,4 L3,5 L1,5 L2,15 L3,22 L4,36 L2,32 L-1,13 Z " fill="#1A3220" transform="translate(130,106)"/>
<path d="M0,0 L2,3 L3,6 L-6,11 L-14,14 L-20,18 L-18,14 L-11,10 L-10,6 L-12,5 L-9,5 L-8,9 L-2,6 Z " fill="#324B36" transform="translate(61,156)"/>
<path d="M0,0 L3,3 L5,8 L6,20 L2,30 L0,34 L1,26 L3,20 L3,13 Z " fill="#162F1C" transform="translate(156,55)"/>
<path d="M0,0 L1,0 L1,37 L-1,34 L-2,25 L-1,20 Z " fill="#2C4431" transform="translate(214,200)"/>
<path d="M0,0 L16,1 L17,3 L6,5 L-2,4 L-3,1 Z " fill="#FAFAFA" transform="translate(87,186)"/>
<path d="M0,0 L4,0 L4,2 L8,4 L4,8 L-2,9 L-22,9 L-22,8 L-5,7 L4,5 Z " fill="#102A17" transform="translate(156,165)"/>
<path d="M0,0 L2,4 L7,18 L14,29 L15,32 L12,31 L5,19 L0,7 L-1,6 L-1,1 Z " fill="#19311F" transform="translate(147,118)"/>
<path d="M0,0 L2,3 L3,5 L3,12 L0,11 L-2,27 L-3,27 L-3,12 Z " fill="#8EA789" transform="translate(131,99)"/>
<path d="M0,0 L2,0 L3,3 L-2,3 L-2,11 L-7,12 L-8,7 L-5,1 L0,1 Z " fill="#FAFAFA" transform="translate(43,107)"/>
<path d="M0,0 L1,0 L1,20 L0,25 L-2,23 L-2,13 Z " fill="#FAFAFA" transform="translate(213,200)"/>
<path d="M0,0 L7,1 L6,5 L2,4 L1,5 L-6,5 L-6,1 Z " fill="#D7DCD7" transform="translate(55,280)"/>
<path d="M0,0 L7,3 L8,8 L2,7 L-5,3 L-2,1 L1,4 Z " fill="#45584A" transform="translate(171,248)"/>
<path d="M0,0 L6,0 L4,2 L-15,5 L-20,5 L-20,2 L-11,2 Z " fill="#122C19" transform="translate(164,317)"/>
<path d="M0,0 L6,1 L14,5 L16,6 L15,9 L8,7 L3,3 Z " fill="#FAFAFA" transform="translate(104,245)"/>
<path d="M0,0 L15,0 L11,2 L1,3 L-13,3 L-13,1 L-3,1 Z " fill="#17301D" transform="translate(176,186)"/>
<path d="M0,0 L3,4 L5,9 L-4,12 L-9,14 L-13,14 L-13,12 L-1,9 L2,9 L0,4 L-1,2 Z " fill="#1D3523" transform="translate(194,170)"/>
<path d="M0,0 L2,4 L2,10 L3,11 L4,24 L2,25 L0,13 Z " fill="#1D3523" transform="translate(22,263)"/>
<path d="M0,0 L8,2 L13,6 L22,6 L21,8 L13,9 L4,3 L-2,2 Z " fill="#233A29" transform="translate(132,246)"/>
<path d="M0,0 L7,1 L8,4 L3,5 L-7,3 L-3,1 Z " fill="#132D1A" transform="translate(182,277)"/>
<path d="M0,0 L5,2 L5,4 L8,5 L8,6 L-2,5 L-6,4 L-10,5 L-7,2 L1,3 Z " fill="#4D5F51" transform="translate(96,56)"/>
<path d="M0,0 L6,2 L3,4 L-2,5 L-9,5 L-6,2 Z " fill="#FAFAFA" transform="translate(152,283)"/>
<path d="M0,0 L2,1 L3,6 L10,8 L10,9 L-2,11 Z " fill="#384D3D" transform="translate(29,266)"/>
<path d="M0,0 L2,1 L2,10 L0,13 L-8,13 L-9,11 L-2,10 L0,5 Z " fill="#384F3C" transform="translate(140,156)"/>
<path d="M0,0 L4,5 L9,14 L10,18 L5,13 L0,3 Z " fill="#122C19" transform="translate(139,140)"/>
<path d="M0,0 L2,0 L2,2 L-5,5 L-11,9 L-19,10 L-17,8 L-10,6 L-7,2 Z " fill="#1F3725" transform="translate(101,220)"/>
<path d="M0,0 L1,2 L10,1 L17,6 L16,13 L18,14 L15,14 L14,7 L11,4 L-1,3 Z " fill="#1D3523" transform="translate(184,161)"/>
<path d="M0,0 L4,0 L7,6 L1,8 Z " fill="#818E84" transform="translate(60,91)"/>
<path d="M0,0 L2,3 L1,4 L1,20 L-1,18 L-2,14 L-2,6 Z " fill="#193220" transform="translate(76,59)"/>
<path d="M0,0 L4,1 L1,6 L-2,16 L-4,17 L-2,7 L0,2 Z " fill="#19311F" transform="translate(143,35)"/>
<path d="M0,0 L5,2 L13,4 L15,6 L5,6 L5,4 L1,3 Z " fill="#2E4534" transform="translate(44,302)"/>
<path d="M0,0 L5,2 L3,10 L2,8 L-1,7 L-1,1 Z " fill="#FAFAFA" transform="translate(75,134)"/>
<path d="M0,0 L5,0 L5,2 L-4,3 L-16,4 L-13,2 Z " fill="#19311F" transform="translate(110,21)"/>
<path d="M0,0 L9,1 L14,6 L9,4 L3,2 L-2,3 L-3,1 Z " fill="#1A3320" transform="translate(131,216)"/>
<path d="M0,0 L3,4 L3,17 L1,13 L-1,2 Z " fill="#5B755A" transform="translate(133,98)"/>
<path d="M0,0 L1,3 L0,5 L2,6 L-2,7 L-2,4 L-8,8 L-10,6 Z " fill="#2A4130" transform="translate(127,218)"/>
<path d="M0,0 L5,1 L11,5 L16,6 L14,8 L9,7 L0,1 Z " fill="#223A28" transform="translate(73,217)"/>
<path d="M0,0 L9,0 L9,4 L0,2 Z " fill="#DBDFDC" transform="translate(147,186)"/>
<path d="M0,0 L7,1 L5,4 L-5,4 L-2,2 L0,2 Z " fill="#FAFAFA" transform="translate(47,182)"/>
<path d="M0,0 L2,4 L4,11 L1,9 L-1,12 L-1,6 L0,5 L-5,4 L-4,1 L-4,3 L0,3 Z " fill="#18301E" transform="translate(157,123)"/>
<path d="M0,0 L1,4 L0,15 L-4,12 L-1,2 Z " fill="#223A28" transform="translate(52,112)"/>
<path d="M0,0 L8,1 L13,0 L10,3 L5,4 L-2,3 L-5,2 L-5,1 Z " fill="#132C19" transform="translate(86,286)"/>
<path d="M0,0 L5,2 L9,5 L13,7 L11,8 L1,3 L-3,1 Z " fill="#2B4130" transform="translate(105,247)"/>
<path d="M0,0 L1,3 L1,6 L-1,6 L-2,4 L-5,6 L-10,5 L-12,3 L-4,3 L-2,1 Z " fill="#193220" transform="translate(74,136)"/>
<path d="M0,0 L6,1 L9,0 L9,2 L1,6 L0,5 Z " fill="#3A4F3F" transform="translate(55,100)"/>
<path d="M0,0 L2,3 L3,13 L1,13 L0,5 L-3,4 L-1,3 Z " fill="#344A3A" transform="translate(88,87)"/>
<path d="M0,0 L3,1 L-5,6 L-8,8 L-8,6 L-13,5 L-13,4 L-4,2 Z " fill="#344939" transform="translate(202,271)"/>
<path d="M0,0 Z M-2,1 L0,2 L-3,7 L-9,9 L-6,4 Z " fill="#FAFAFA" transform="translate(159,217)"/>
<path d="M0,0 L4,0 L4,4 L7,4 L7,6 L-1,5 Z " fill="#79877D" transform="translate(69,185)"/>
<path d="M0,0 L1,4 L6,2 L5,5 L0,7 L-3,3 Z " fill="#FAFAFA" transform="translate(60,95)"/>
<path d="M0,0 L2,1 L0,3 L0,6 L3,9 L0,10 L-4,7 L-2,2 Z " fill="#818E84" transform="translate(81,54)"/>
<path d="M0,0 L4,0 L4,4 L7,5 L-2,4 Z " fill="#FAFAFA" transform="translate(64,281)"/>
<path d="M0,0 L3,4 L3,6 L8,7 L4,9 L-2,7 L0,3 Z " fill="#1B3321" transform="translate(54,131)"/>
<path d="M0,0 L11,0 L11,1 L2,3 L-3,3 L-3,1 Z " fill="#7B9278" transform="translate(178,283)"/>
<path d="M0,0 L10,1 L9,4 L0,2 Z " fill="#F0F1F0" transform="translate(69,282)"/>
<path d="M0,0 L5,0 L3,5 L1,8 L-2,8 L-1,6 L0,3 Z " fill="#405A42" transform="translate(75,142)"/>
<path d="M0,0 L5,0 L5,2 L-3,4 L-7,3 Z " fill="#273E2D" transform="translate(140,60)"/>
<path d="M0,0 L3,1 L-4,7 L-8,5 L-1,2 Z " fill="#475F49" transform="translate(192,298)"/>
<path d="M0,0 L6,0 L6,4 L0,3 L-3,1 Z " fill="#FAFAFA" transform="translate(189,276)"/>
<path d="M0,0 L1,3 L-1,5 L-2,11 L-6,9 L-4,5 Z " fill="#253C2B" transform="translate(41,160)"/>
<path d="M0,0 L3,4 L3,7 L-1,7 L-2,3 Z " fill="#FAFAFA" transform="translate(154,119)"/>
<path d="M0,0 L4,1 L4,3 L-5,4 L-2,1 Z " fill="#EFF0F0" transform="translate(59,88)"/>
<path d="M0,0 L10,2 L10,3 L-3,4 Z " fill="#658064" transform="translate(141,287)"/>
<path d="M0,0 L3,1 L0,3 L-6,6 L-8,5 L-3,1 Z " fill="#283F2E" transform="translate(72,246)"/>
<path d="M0,0 L6,0 L10,3 L8,7 L8,5 L6,4 L4,2 Z " fill="#283F2E" transform="translate(159,242)"/>
<path d="M0,0 L10,1 L10,3 L12,5 L7,4 L0,1 Z " fill="#7F957E" transform="translate(181,167)"/>
<path d="M0,0 L8,6 L7,9 L1,5 Z " fill="#435A47" transform="translate(165,153)"/>
<path d="M0,0 L5,1 L7,3 L5,5 L1,4 Z " fill="#3B5040" transform="translate(104,35)"/>
<path d="M0,0 L4,1 L9,9 L5,7 Z " fill="#1D3523" transform="translate(29,298)"/>
<path d="M0,0 L7,0 L8,4 L0,2 Z " fill="#FAFAFA" transform="translate(60,184)"/>
<path d="M0,0 L5,1 L8,5 L2,6 L1,3 L2,2 Z M5,0 Z " fill="#2E4732" transform="translate(101,59)"/>
<path d="M0,0 L2,2 L3,6 L0,6 L-1,4 L-4,3 Z " fill="#2A4130" transform="translate(202,276)"/>
<path d="M0,0 L5,2 L5,4 L-1,4 L-3,2 Z " fill="#6B806B" transform="translate(129,170)"/>
<path d="M0,0 L5,2 L7,4 L-1,4 Z " fill="#FAFAFA" transform="translate(186,159)"/>
<path d="M0,0 L4,2 L2,2 L3,8 L0,5 L-1,1 Z " fill="#354B3A" transform="translate(40,152)"/>
<path d="M0,0 L2,4 L3,11 L-1,6 L-1,1 Z " fill="#243C29" transform="translate(147,118)"/>
<path d="M0,0 L2,4 L3,8 L-1,8 L-1,1 Z " fill="#FAFAFA" transform="translate(92,47)"/>
<path d="M0,0 L2,0 L1,7 L-1,9 L-2,4 Z " fill="#FAFAFA" transform="translate(27,283)"/>
<path d="M0,0 L9,0 L10,2 L5,3 L0,1 Z " fill="#FAFAFA" transform="translate(180,279)"/>
<path d="M0,0 L6,2 L4,4 L-1,5 Z " fill="#FAFAFA" transform="translate(128,218)"/>
<path d="M0,0 L2,2 L2,9 L-1,8 Z " fill="#FAFAFA" transform="translate(132,102)"/>
<path d="M0,0 L3,1 L3,3 L-1,5 L-4,5 L-4,3 Z " fill="#415546" transform="translate(66,84)"/>
<path d="M0,0 L3,1 L2,6 L-2,4 Z " fill="#FAFAFA" transform="translate(118,48)"/>
<path d="M0,0 L7,0 L6,3 L-3,2 Z " fill="#203826" transform="translate(99,288)"/>
<path d="M0,0 L7,6 L5,7 L1,5 Z " fill="#3A4F3F" transform="translate(149,158)"/>
<path d="M0,0 L6,2 L8,4 L-4,2 Z " fill="#1E3624" transform="translate(177,154)"/>
<path d="M0,0 L3,1 L5,8 L0,3 Z " fill="#405645" transform="translate(144,150)"/>
<path d="M0,0 L4,1 L3,9 L1,6 Z " fill="#2A4130" transform="translate(33,137)"/>
<path d="M0,0 L3,1 L4,5 L0,6 L-1,1 Z " fill="#FAFAFA" transform="translate(147,35)"/>
<path d="M0,0 L9,1 L13,3 L8,4 L0,1 Z " fill="#122C19" transform="translate(59,308)"/>
<path d="M0,0 L4,0 L4,2 L8,4 L6,5 L1,2 Z " fill="#4B634E" transform="translate(156,165)"/>
</svg>
