<?xml version="1.0" encoding="UTF-8"?>
<!-- Generator: visioncortex VTracer 0.6.12 -->
<svg xmlns:xlink="http://www.w3.org/1999/xlink" xmlns:sodipodi="http://sodipodi.sourceforge.net/DTD/sodipodi-0.0.dtd" xmlns:inkscape="http://www.inkscape.org/namespaces/inkscape" version="1.1" xmlns="http://www.w3.org/2000/svg" width="296" height="344">
<path d="M0,0 L296,0 L296,344 L0,344 Z M134,23 L124,25 L124,27 L119,28 L120,25 L115,24 L108,25 L103,27 L106,28 L110,27 L107,30 L92,34 L81,43 L77,45 L77,43 L71,44 L70,47 L67,48 L66,53 L63,54 L61,59 L59,59 L55,68 L54,76 L49,78 L47,74 L44,79 L41,82 L40,85 L35,90 L32,96 L32,105 L35,104 L32,110 L30,111 L29,105 L27,108 L24,120 L21,145 L22,155 L25,162 L29,165 L29,160 L31,163 L30,168 L33,177 L35,178 L36,174 L37,180 L36,184 L44,200 L50,207 L65,216 L68,219 L70,219 L74,223 L81,223 L83,206 L84,209 L88,212 L88,229 L90,231 L96,224 L100,225 L97,231 L99,238 L104,240 L115,240 L119,239 L122,234 L121,228 L123,228 L127,222 L128,213 L130,213 L131,211 L132,214 L131,218 L131,227 L134,233 L140,233 L138,236 L143,237 L178,237 L185,238 L185,236 L195,237 L199,238 L203,236 L204,230 L201,227 L198,219 L207,222 L209,226 L208,228 L215,232 L217,232 L219,237 L222,235 L228,236 L229,230 L227,230 L227,224 L231,224 L232,228 L236,222 L246,211 L248,205 L249,204 L251,206 L255,201 L253,197 L256,195 L257,197 L261,193 L265,184 L261,185 L263,183 L268,182 L273,159 L274,151 L274,142 L273,142 L272,145 L274,132 L274,125 L268,108 L266,108 L262,90 L260,87 L258,88 L252,79 L251,75 L251,71 L247,67 L246,69 L236,70 L238,68 L233,68 L223,74 L226,75 L229,74 L229,76 L226,77 L220,77 L218,78 L217,73 L223,69 L221,68 L222,62 L225,55 L226,58 L231,58 L232,56 L232,50 L227,41 L226,43 L224,43 L224,41 L222,41 L220,36 L211,30 L208,30 L210,34 L212,36 L207,31 L206,29 L204,29 L204,26 L200,27 L201,29 L192,27 L185,27 L185,25 L189,24 L183,23 L182,25 L184,25 L183,27 L172,26 L169,27 L155,28 L152,30 L151,27 L142,26 L141,23 Z M58,221 L59,226 L62,227 L64,231 L64,235 L59,236 L59,237 L66,238 L70,235 L69,226 L67,226 L67,224 Z M26,248 L25,250 L28,255 L31,255 L31,253 L34,255 L62,256 L62,257 L87,257 L90,256 L104,256 L110,255 L110,254 L88,253 L44,253 L44,252 L28,250 Z M201,252 L192,253 L149,253 L152,255 L158,256 L206,255 L206,254 L223,254 L223,255 L236,255 L238,254 L238,252 Z M93,274 L93,322 L102,322 L102,278 L100,274 L100,279 L98,279 L97,277 L95,278 L94,274 Z M214,274 L209,279 L206,285 L203,288 L199,293 L196,295 L193,298 L193,300 L190,301 L191,307 L204,307 L209,309 L213,313 L214,313 L214,307 L219,306 L218,301 L216,301 L216,284 L215,274 Z M129,275 L123,277 L122,279 L119,283 L118,285 L118,294 L123,300 L132,303 L139,303 L138,306 L142,307 L140,296 L143,296 L143,298 L146,298 L147,300 L147,286 L145,285 L142,278 L139,277 L139,276 Z M162,276 L155,279 L154,283 L156,285 L164,283 L171,284 L174,295 L175,293 L177,294 L178,299 L181,297 L182,287 L180,281 L177,278 L171,276 Z M170,300 L169,303 L168,306 L164,308 L159,316 L158,321 L177,322 L178,320 L183,322 L185,323 L184,316 L177,314 L176,315 L172,315 L176,313 L172,312 L174,307 L176,302 L175,300 Z M137,307 L132,313 L127,317 L130,319 L131,321 L137,316 L142,309 L141,307 Z " fill="#F4F4F4" transform="translate(0,0)"/>
<path d="M0,0 L31,2 L31,0 L36,2 L38,6 L40,7 L37,4 L37,2 L42,3 L50,9 L52,15 L49,14 L54,18 L56,22 L56,30 L54,27 L50,36 L50,40 L52,41 L48,44 L46,46 L47,50 L49,49 L56,49 L58,47 L59,45 L55,47 L52,46 L62,40 L67,40 L66,42 L75,41 L76,39 L81,44 L80,49 L87,61 L87,59 L90,60 L95,78 L98,89 L95,86 L97,92 L99,100 L99,105 L98,106 L97,120 L97,129 L95,138 L95,146 L96,151 L95,155 L91,155 L90,157 L94,156 L88,168 L85,169 L85,166 L82,170 L84,173 L79,178 L79,175 L76,179 L74,184 L65,192 L63,188 L61,188 L60,175 L59,178 L60,180 L60,188 L56,188 L55,190 L55,200 L54,204 L51,205 L51,203 L49,203 L49,201 L44,201 L39,197 L34,193 L27,191 L31,201 L33,202 L32,208 L28,210 L19,208 L4,206 L-17,206 L-29,207 L-31,205 L-37,205 L-40,199 L-40,190 L-39,185 L-40,183 L-41,185 L-43,185 L-46,194 L-49,195 L-57,195 L-59,193 L-60,185 L-64,183 L-68,179 L-71,174 L-78,165 L-81,157 L-85,147 L-85,152 L-88,148 L-95,147 L-100,143 L-100,141 L-98,141 L-97,137 L-93,142 L-92,140 L-95,133 L-96,128 L-98,123 L-100,113 L-99,105 L-96,104 L-96,106 L-88,106 L-88,104 L-83,105 L-82,102 L-95,99 L-98,90 L-98,78 L-99,74 L-96,71 L-96,73 L-93,72 L-90,65 L-92,66 L-90,60 L-90,57 L-91,50 L-97,52 L-101,51 L-88,45 L-87,47 L-82,49 L-82,51 L-85,51 L-85,53 L-81,52 L-82,48 L-85,45 L-82,44 L-80,40 L-72,35 L-71,33 L-73,31 L-67,24 L-66,27 L-66,29 L-59,19 L-58,15 L-53,13 L-54,16 L-44,13 L-39,8 L-33,7 L-31,9 L-15,5 L-6,2 L0,1 Z M-15,48 L-13,56 L-6,61 L-3,62 L-3,59 L-5,57 L-3,56 L-7,52 L-12,50 L-8,49 L-8,48 Z M4,63 L-1,64 L-5,75 L-11,78 L-15,81 L-18,84 L-18,88 L-20,88 L-21,86 L-26,94 L-26,98 L-28,100 L-29,98 L-31,102 L-33,110 L-35,110 L-33,105 L-41,109 L-45,113 L-44,116 L-42,116 L-44,120 L-39,119 L-41,118 L-41,116 L-33,117 L-27,124 L-17,132 L-15,136 L-13,140 L-8,142 L-6,141 L-6,136 L-2,140 L-3,145 L1,147 L1,149 L-1,150 L3,154 L5,153 L11,160 L18,165 L20,165 L18,160 L11,150 L11,145 L13,141 L11,140 L10,140 L10,138 L15,140 L21,135 L21,132 L25,131 L25,126 L23,126 L26,121 L27,127 L34,123 L37,117 L37,115 L42,112 L41,110 L38,111 L42,107 L42,101 L47,101 L46,104 L50,102 L48,99 L41,98 L41,96 L38,95 L35,96 L35,91 L33,90 L33,93 L30,93 L31,87 L28,86 L23,87 L24,83 L22,83 L20,78 L18,78 L18,76 L16,76 L16,73 L8,66 L6,63 Z " fill="#F7F7F7" transform="translate(171,28)"/>
<path d="M0,0 L8,1 L7,4 L-4,6 L-10,8 L-21,11 L-33,18 L-46,33 L-50,36 L-49,38 L-55,40 L-56,44 L-59,45 L-63,49 L-68,52 L-63,52 L-62,58 L-68,66 L-69,71 L-71,73 L-73,83 L-75,99 L-75,101 L-74,106 L-74,120 L-72,132 L-70,141 L-70,144 L-64,148 L-62,154 L-54,170 L-50,175 L-45,177 L-42,182 L-37,186 L-32,190 L-30,190 L-31,194 L-22,205 L-20,207 L-24,212 L-27,213 L-38,213 L-43,211 L-45,204 L-42,198 L-46,197 L-52,204 L-54,202 L-54,185 L-58,181 L-59,179 L-61,194 L-64,195 L-69,192 L-72,188 L-76,186 L-83,178 L-87,174 L-87,170 L-75,171 L-75,167 L-90,166 L-96,164 L-101,158 L-103,154 L-106,142 L-109,136 L-113,131 L-114,128 L-114,121 L-105,120 L-105,119 L-110,118 L-113,115 L-113,103 L-111,90 L-108,83 L-107,77 L-110,78 L-110,72 L-107,68 L-106,75 L-103,72 L-99,63 L-96,56 L-96,52 L-95,49 L-92,51 L-84,44 L-75,30 L-71,25 L-66,22 L-64,22 L-65,19 L-60,17 L-57,17 L-55,13 L-48,8 L-32,4 L-29,3 L-18,2 L-6,2 Z M-53,39 Z M-54,40 Z " fill="#F4F4F4" transform="translate(142,27)"/>
<path d="M0,0 L6,4 L12,12 L19,17 L19,19 L26,23 L28,23 L31,26 L35,27 L33,29 L33,30 L32,36 L28,43 L30,50 L25,50 L22,48 L12,61 L5,65 L1,71 L-3,69 L-10,62 L-4,55 L4,49 L12,38 L9,39 L7,44 L6,44 L6,38 L2,32 L0,26 L0,24 L-7,18 L-10,12 L-2,3 Z " fill="#F1F1F1" transform="translate(175,99)"/>
<path d="M0,0 L6,3 L12,11 L19,18 L22,21 L22,24 L24,19 L27,20 L25,25 L17,34 L13,35 L6,41 L-2,41 L-15,26 L-18,24 L-18,22 L-20,22 L-20,11 L-17,9 L-17,12 L-12,7 L-4,1 Z " fill="#E7E7E7" transform="translate(160,117)"/>
<path d="M0,0 L1,0 L2,13 L2,23 L-2,23 L-4,31 L-8,32 L-10,31 L-17,31 L-19,26 L-16,25 L-19,23 L-18,20 L-13,17 L-11,14 L-8,11 L-3,2 Z " fill="#BDBDBD" transform="translate(214,274)"/>
<path d="M0,0 L1,2 L5,1 L8,3 L13,2 L14,6 L16,7 L16,21 L15,19 L12,18 L14,18 L14,11 L13,12 L9,16 L-1,20 L-7,19 L-7,12 L-9,3 L-8,1 L-6,1 L-5,3 L-1,1 Z " fill="#C7C7C7" transform="translate(131,279)"/>
<path d="M0,0 L1,4 L-3,3 L-1,7 L1,9 L1,12 L3,15 L7,15 L10,21 L14,23 L20,30 L23,35 L28,39 L29,43 L26,44 L23,40 L21,41 L14,33 L12,30 L7,27 L1,18 L-5,6 L-5,2 L0,2 Z " fill="#7B7B7B" transform="translate(83,174)"/>
<path d="M0,0 L1,0 L1,15 L6,14 L4,15 L5,18 L8,15 L10,16 L3,23 L1,27 L0,23 L-4,23 L-4,29 L-2,30 L-3,35 L-10,34 L-12,36 L-14,31 L-18,30 L-23,26 L-20,23 L-19,26 L-11,28 L-11,30 L-6,31 L-6,17 L-4,13 L-4,15 L0,15 L-1,6 L-3,9 L-2,4 Z " fill="#595959" transform="translate(231,201)"/>
<path d="M0,0 L2,3 L2,6 L5,3 L7,1 L6,8 L4,12 L2,25 L1,37 L4,38 L1,39 L-2,36 L-3,39 L-5,39 L-4,28 L-4,15 Z " fill="#727272" transform="translate(28,105)"/>
<path d="M0,0 L2,2 L3,44 L-1,43 L-2,41 L-2,2 Z " fill="#FAFAFA" transform="translate(97,277)"/>
<path d="M0,0 L2,1 L1,3 L3,4 L0,4 L0,8 L2,6 L3,8 L1,11 L2,18 L10,29 L10,31 L5,29 L-1,24 L-5,18 L-5,20 L-9,18 L-11,15 L-9,15 L-9,13 L-3,14 L-3,16 L-1,16 L-3,8 L-7,9 L-9,7 L-5,7 Z " fill="#626262" transform="translate(181,162)"/>
<path d="M0,0 L3,1 L4,4 L-1,11 L-2,8 L-2,6 L-7,12 L-5,14 L-10,19 L-16,23 L-19,26 L-15,30 L-16,33 L-20,34 L-20,32 L-17,32 L-20,29 L-22,28 L-22,34 L-23,34 L-24,25 L-22,23 L-20,23 L-19,19 L-15,17 L-10,12 Z M-17,19 Z M-18,20 Z " fill="#555555" transform="translate(106,47)"/>
<path d="M0,0 L5,0 L4,5 L-1,10 L-10,24 L-16,31 L-17,28 L-14,19 L-12,15 L-10,15 L-8,10 L-4,8 L-3,3 L0,2 Z " fill="#8A8A8A" transform="translate(71,44)"/>
<path d="M0,0 L1,0 L1,9 L-2,27 L-5,40 L-7,36 L-8,32 L-8,24 L-5,11 L-4,6 L-2,3 L-1,5 Z " fill="#545454" transform="translate(273,142)"/>
<path d="M0,0 L37,0 L37,2 L35,3 L22,3 L20,2 L5,2 L5,3 L-44,4 L-52,2 L-52,1 L-4,1 Z " fill="#111111" transform="translate(201,252)"/>
<path d="M0,0 L0,3 L1,8 L-2,12 L-6,23 L-10,29 L-12,28 L-13,23 L-15,25 L-14,20 L-9,12 L-7,11 L-5,6 L-3,5 Z " fill="#717171" transform="translate(47,74)"/>
<path d="M0,0 L2,1 L2,3 L23,6 L23,10 L14,10 L11,9 L13,14 L19,21 L17,24 L9,21 L5,18 L5,16 L8,16 L10,19 L12,18 L12,20 L14,19 L9,12 L10,7 L1,6 L-1,4 Z " fill="#5B5B5B" transform="translate(44,188)"/>
<path d="M0,0 L2,1 L2,8 L1,13 L-7,15 L-15,21 L-17,20 L-15,16 L-11,9 L-10,11 L-8,11 L-8,6 L-2,2 Z " fill="#7F7F7F" transform="translate(161,105)"/>
<path d="M0,0 L3,1 L10,9 L12,10 L12,13 L14,13 L14,15 L17,16 L18,20 L20,21 L19,25 L15,23 L8,17 L8,9 L1,7 L-5,7 L-3,4 L-3,1 Z " fill="#A2A2A2" transform="translate(175,91)"/>
<path d="M0,0 L3,2 L8,3 L7,6 L1,9 L0,3 L-3,8 L-1,8 L-1,13 L-5,14 L-6,18 L-12,22 L-13,19 L-15,19 L-13,14 L-9,12 Z " fill="#7D7D7D" transform="translate(197,146)"/>
<path d="M0,0 L21,0 L36,2 L36,3 L31,3 L31,5 L24,4 L-11,4 L-16,3 L-16,2 Z " fill="#969695" transform="translate(154,233)"/>
<path d="M0,0 L8,1 L9,4 L10,3 L21,3 L17,5 L15,5 L15,7 L6,10 L-3,12 L-8,12 L-5,10 L-11,10 L-11,8 L-6,8 L-5,6 L6,4 L7,2 L0,1 Z " fill="#616161" transform="translate(143,26)"/>
<path d="M0,0 L5,4 L9,15 L11,23 L14,29 L12,30 L10,27 L17,40 L16,42 L10,33 L6,24 L7,17 L6,14 L4,18 L1,11 L0,6 L1,3 Z " fill="#363636" transform="translate(30,160)"/>
<path d="M0,0 L5,4 L13,14 L19,16 L18,23 L16,23 L18,27 L13,25 L9,15 L1,7 L-1,3 Z " fill="#909090" transform="translate(145,143)"/>
<path d="M0,0 L3,2 L0,5 L-2,6 L-2,8 L6,5 L7,3 L14,3 L17,2 L22,4 L23,11 L21,10 L16,8 L15,10 L-4,9 L-3,4 Z " fill="#737373" transform="translate(162,312)"/>
<path d="M0,0 L3,4 L7,11 L16,13 L17,20 L21,26 L16,26 L14,22 L9,21 L1,5 Z " fill="#DADADA" transform="translate(38,182)"/>
<path d="M0,0 L2,1 L4,14 L3,19 L10,19 L10,21 L17,21 L16,24 L9,24 L1,20 L-3,15 L-3,6 Z " fill="#4B4B4B" transform="translate(121,279)"/>
<path d="M0,0 L3,0 L6,2 L4,2 L4,15 L3,15 L4,27 L6,34 L5,38 L3,37 L-1,16 L-1,2 Z " fill="#313131" transform="translate(68,131)"/>
<path d="M0,0 L5,0 L5,2 L2,4 L4,6 L-6,9 L-11,10 L-11,7 L-15,11 L-13,12 L-15,12 L-16,15 L-19,14 L-20,11 L-10,4 Z " fill="#535353" transform="translate(127,35)"/>
<path d="M0,0 L6,1 L2,2 L2,4 L11,4 L18,6 L17,3 L21,3 L21,5 L19,5 L19,7 L1,7 L-11,6 L-11,7 L-21,9 L-25,8 L-23,7 L-28,6 L-28,5 L-14,4 L-10,3 L0,4 L1,2 L-1,1 Z " fill="#101010" transform="translate(183,23)"/>
<path d="M0,0 L5,2 L5,7 L14,17 L14,20 L4,12 L-2,5 L-10,4 L-10,6 L-8,7 L-13,8 L-11,4 L-13,4 L-12,1 L0,2 Z " fill="#D3D3D3" transform="translate(140,140)"/>
<path d="M0,0 L1,0 L1,13 L3,21 L16,25 L15,29 L5,26 L0,23 L-2,17 L-4,13 L-4,6 L-2,10 L-1,1 Z " fill="#2C2C2C" transform="translate(73,105)"/>
<path d="M0,0 L3,3 L6,11 L9,19 L8,23 L4,16 L0,15 L-3,9 L-5,3 L0,4 Z " fill="#CECECE" transform="translate(85,174)"/>
<path d="M0,0 L12,0 L26,1 L26,2 L18,3 L3,3 L3,4 L-22,4 L-19,1 Z " fill="#555555" transform="translate(84,253)"/>
<path d="M0,0 L2,1 L3,5 L3,46 L5,47 L0,48 Z " fill="#181818" transform="translate(93,274)"/>
<path d="M0,0 L2,0 L6,5 L7,14 L6,19 L3,21 L2,14 L0,14 L-1,9 L-1,1 Z " fill="#7E7E7E" transform="translate(175,278)"/>
<path d="M0,0 L2,2 L1,16 L0,20 L5,20 L7,29 L6,30 L5,34 L0,28 L-2,18 Z " fill="#3E3E3E" transform="translate(23,131)"/>
<path d="M0,0 L2,4 L2,7 L7,9 L13,12 L12,14 L3,14 L4,11 L-2,12 L-2,10 L-4,10 L-6,5 L-3,4 Z " fill="#DBDBDB" transform="translate(71,121)"/>
<path d="M0,0 L1,4 L3,4 L5,13 L7,16 L8,21 L10,27 L8,29 L4,24 L1,16 L0,9 Z " fill="#A3A3A3" transform="translate(70,142)"/>
<path d="M0,0 L4,2 L4,6 L6,6 L7,11 L2,12 L2,18 L-2,16 L-3,10 Z " fill="#FAFAFA" transform="translate(212,295)"/>
<path d="M0,0 L2,4 L2,48 L-2,47 L0,47 L-1,44 L-1,5 Z " fill="#1E1E1E" transform="translate(100,274)"/>
<path d="M0,0 L10,1 L11,3 L14,4 L14,6 L10,7 L9,9 L7,6 L2,5 L2,7 L-3,8 L-4,5 L-6,4 L-6,2 Z " fill="#656565" transform="translate(129,275)"/>
<path d="M0,0 L9,3 L9,5 L11,6 L12,15 L6,17 L1,16 L1,15 L7,13 L4,8 L4,6 L0,4 Z " fill="#606060" transform="translate(58,221)"/>
<path d="M0,0 L7,0 L9,4 L1,7 L-15,6 L-15,5 L-10,4 L-10,2 Z " fill="#4D4D4D" transform="translate(134,23)"/>
<path d="M0,0 L3,3 L1,5 L5,6 L6,4 L8,3 L9,6 L13,8 L13,13 L5,8 L4,11 L-1,15 L-6,20 L-4,15 L-2,13 L-3,8 Z " fill="#353535" transform="translate(170,92)"/>
<path d="M0,0 L2,0 L4,6 L5,8 L3,13 L3,14 L4,16 L0,23 L-2,23 L-5,17 L-3,13 L1,7 Z " fill="#888888" transform="translate(78,78)"/>
<path d="M0,0 L2,3 L7,17 L7,24 L5,28 L5,16 L3,16 L4,18 L4,36 L3,36 L2,20 L0,12 L-2,8 L-1,4 L1,7 Z " fill="#232323" transform="translate(267,108)"/>
<path d="M0,0 L4,2 L6,1 L6,3 L8,3 L9,1 L14,10 L14,16 L12,18 L9,18 L7,6 L3,4 Z " fill="#555555" transform="translate(218,40)"/>
<path d="M0,0 L1,4 L-3,10 L-5,10 L-4,15 L-8,13 L-16,3 L-14,1 L-12,4 L-2,4 Z " fill="#6A6A6A" transform="translate(126,218)"/>
<path d="M0,0 L1,3 L-17,8 L-23,13 L-24,15 L-31,18 L-31,20 L-36,23 L-38,22 L-34,20 L-33,15 L-35,14 L-32,14 L-32,16 L-24,11 L-17,5 L-2,1 Z " fill="#393939" transform="translate(109,29)"/>
<path d="M0,0 L4,5 L12,12 L10,13 L13,19 L15,24 L8,18 L1,10 L3,9 L6,9 L1,5 Z " fill="#4D4D4D" transform="translate(165,112)"/>
<path d="M0,0 L1,2 L6,2 L4,4 L1,4 L4,8 L10,9 L11,7 L12,9 L15,9 L16,13 L10,11 L-3,11 L-4,5 L-1,4 Z " fill="#3D3D3D" transform="translate(194,296)"/>
<path d="M0,0 L1,4 L11,6 L11,9 L2,9 L1,13 L-3,12 L-2,5 Z " fill="#FAFAFA" transform="translate(26,139)"/>
<path d="M0,0 L5,1 L2,6 L-4,13 L-7,14 L-8,11 L-10,9 L-2,3 Z " fill="#F9F9F9" transform="translate(137,307)"/>
<path d="M0,0 L2,2 L18,4 L18,5 L32,5 L39,6 L39,7 L8,7 L5,5 L5,7 L1,6 L-1,1 Z " fill="#181818" transform="translate(26,248)"/>
<path d="M0,0 L1,4 L-3,9 L-1,16 L5,21 L2,22 L-6,17 L-6,5 Z " fill="#FAFAFA" transform="translate(168,101)"/>
<path d="M0,0 L5,1 L4,5 L3,4 L1,14 L1,20 L-1,19 L-1,27 L-4,30 L-3,14 Z " fill="#6D6D6D" transform="translate(71,96)"/>
<path d="M0,0 L7,0 L5,2 L3,2 L9,5 L12,9 L10,10 L12,11 L11,14 L4,10 L1,6 Z " fill="#888888" transform="translate(156,76)"/>
<path d="M0,0 L2,1 L1,8 L-4,7 L-2,18 L-6,16 L-6,11 L-9,12 L-13,11 L-13,9 L-4,5 L-2,5 Z " fill="#FAFAFA" transform="translate(144,289)"/>
<path d="M0,0 L5,0 L6,4 L2,10 L2,12 L6,14 L-1,15 L-1,10 L-5,7 L-2,6 L-1,3 Z " fill="#818181" transform="translate(170,300)"/>
<path d="M0,0 L7,2 L14,3 L18,4 L19,14 L21,15 L19,15 L18,17 L15,6 L8,5 L-1,7 L-2,3 Z " fill="#3E3E3E" transform="translate(156,278)"/>
<path d="M0,0 L9,0 L13,3 L12,6 L-4,4 L-5,2 Z " fill="#FAFAFA" transform="translate(162,276)"/>
<path d="M0,0 L0,3 L-1,5 L1,5 L3,1 L3,6 L5,7 L3,7 L3,9 L-7,9 L-11,7 Z " fill="#494949" transform="translate(137,133)"/>
<path d="M0,0 L4,1 L6,4 L11,7 L14,11 L20,12 L20,14 L13,14 L8,9 L6,10 L1,5 L-2,2 L0,1 Z " fill="#4D4D4D" transform="translate(61,209)"/>
<path d="M0,0 L8,0 L10,2 L9,5 L14,5 L14,6 L0,7 L0,3 L-7,4 L-5,2 Z " fill="#646464" transform="translate(110,24)"/>
<path d="M0,0 L2,4 L2,10 L0,10 L0,8 L-8,7 L-10,3 L-10,1 L-1,2 Z " fill="#C5C5C5" transform="translate(178,168)"/>
<path d="M0,0 L3,2 L2,7 L5,7 L6,4 L7,7 L7,10 L11,9 L13,10 L13,12 L6,12 L4,8 L1,9 L-7,4 L-5,2 Z " fill="#444444" transform="translate(199,114)"/>
<path d="M0,0 L3,3 L2,8 L0,11 L2,13 L6,11 L5,14 L1,16 L-1,22 L-3,21 L-5,14 L0,6 L1,2 L-1,1 Z " fill="#424242" transform="translate(207,127)"/>
<path d="M0,0 L10,1 L12,4 L8,6 L9,3 L4,3 L4,9 L0,13 L-3,12 L0,8 Z " fill="#888888" transform="translate(209,126)"/>
<path d="M0,0 L5,1 L6,4 L5,10 L-4,12 L-2,7 L0,6 L-1,2 Z " fill="#E5E5E5" transform="translate(164,308)"/>
<path d="M0,0 L2,2 L-6,8 L-8,11 L-1,17 L-3,19 L-9,14 L-9,19 L-14,16 L-11,11 L-10,9 L-14,8 L-7,6 Z " fill="#494949" transform="translate(174,150)"/>
<path d="M0,0 L2,0 L3,7 L2,21 L0,21 L0,28 L-2,29 L-3,22 L-2,10 L0,9 Z " fill="#ADADAC" transform="translate(270,124)"/>
</svg>
