<?xml version="1.0" encoding="UTF-8"?>
<!-- Generator: visioncortex VTracer 0.6.12 -->
<svg xmlns:xlink="http://www.w3.org/1999/xlink" xmlns:sodipodi="http://sodipodi.sourceforge.net/DTD/sodipodi-0.0.dtd" xmlns:inkscape="http://www.inkscape.org/namespaces/inkscape" version="1.1" xmlns="http://www.w3.org/2000/svg" width="363" height="344">
<path d="M0,0 L363,0 L363,344 L0,344 Z M299,53 L291,58 L289,62 L287,62 L284,68 L284,72 L289,73 L287,72 L287,70 L291,71 L291,73 L294,74 L302,60 L301,53 Z M310,80 L305,82 L301,89 L300,92 L297,96 L289,112 L281,128 L274,142 L274,149 L278,151 L288,137 L293,133 L300,117 L305,112 L308,104 L316,89 L315,87 L314,84 L313,80 Z M221,98 L203,104 L198,103 L200,100 L188,100 L171,108 L147,118 L123,126 L96,133 L88,134 L68,135 L69,143 L66,154 L66,160 L69,162 L70,158 L81,156 L82,165 L85,174 L85,190 L86,193 L90,192 L93,187 L87,187 L86,184 L97,185 L107,178 L121,169 L125,164 L126,160 L146,162 L153,162 L162,159 L176,152 L185,146 L191,138 L207,121 L215,115 L221,113 L231,113 L235,115 L244,114 L240,108 L236,104 L234,104 L230,100 L226,98 Z M223,117 L221,118 L221,120 L214,122 L204,130 L200,135 L198,136 L199,144 L192,145 L189,149 L186,152 L181,157 L179,161 L179,171 L181,170 L184,177 L187,181 L190,182 L190,184 L197,187 L207,196 L215,201 L219,199 L224,196 L225,190 L222,188 L218,181 L212,174 L204,168 L212,166 L211,164 L213,163 L213,161 L215,161 L218,154 L218,152 L220,152 L221,152 L218,163 L220,172 L227,184 L229,185 L233,188 L235,188 L242,175 L246,165 L248,159 L250,159 L254,149 L254,140 L251,139 L250,135 L242,126 L240,126 L239,122 L232,118 Z M169,176 L163,184 L160,193 L161,198 L166,201 L182,205 L192,211 L199,220 L202,225 L209,227 L214,221 L215,211 L212,204 L204,198 L198,194 L191,191 L191,188 L186,185 L178,179 L177,176 Z M153,202 L150,204 L142,209 L134,218 L125,220 L115,224 L102,226 L98,227 L95,232 L95,240 L102,240 L104,245 L109,247 L120,246 L128,243 L135,240 L152,236 L152,233 L168,229 L172,227 L172,225 L181,222 L186,216 L182,210 L168,205 L168,204 Z M189,223 L181,226 L171,233 L171,236 L165,237 L145,243 L132,246 L119,249 L115,251 L116,254 L114,254 L114,258 L127,258 L151,252 L158,250 L169,249 L183,243 L183,241 L190,240 L194,239 L194,237 L198,236 L198,228 L197,225 L192,223 Z M83,227 L66,235 L59,238 L41,240 L35,252 L30,266 L29,271 L29,282 L36,282 L42,279 L42,276 L51,276 L52,279 L50,279 L51,285 L55,283 L55,286 L58,285 L59,280 L71,270 L82,266 L97,261 L106,261 L108,255 L103,251 L94,251 L93,248 L96,249 L98,246 L92,243 L91,241 L90,230 L85,227 Z M60,230 L58,231 L58,233 L55,232 L42,232 L39,234 L42,235 L54,236 L63,233 L68,231 L65,230 Z M155,254 L131,258 L116,261 L116,262 L128,263 L128,261 L137,261 L160,257 L163,254 Z M166,300 L168,312 L151,312 L152,315 L169,314 L173,311 L173,307 L171,307 L170,309 L169,306 L171,306 L170,301 Z M307,83 Z M306,84 Z M313,88 Z " fill="#F3F3F4" transform="translate(0,0)"/>
<path d="M0,0 L9,1 L17,6 L17,9 L21,11 L28,19 L28,22 L31,23 L31,32 L27,42 L25,42 L23,48 L18,60 L12,71 L6,69 L5,67 L1,62 L-4,53 L-5,46 L-2,33 L-3,35 L-5,35 L-7,42 L-8,44 L-10,44 L-10,46 L-12,47 L-11,49 L-19,51 L-8,60 L-2,68 L0,72 L2,73 L0,80 L-5,83 L-8,84 L-17,78 L-27,69 L-33,67 L-34,64 L-37,64 L-41,55 L-42,53 L-44,54 L-44,44 L-38,35 L-34,33 L-32,29 L-28,28 L-24,27 L-25,19 L-20,14 L-11,6 L-4,3 L-2,3 L-2,1 Z " fill="#E2E4E8" transform="translate(223,117)"/>
<path d="M0,0 L15,2 L18,4 L30,9 L33,15 L26,21 L19,23 L19,25 L13,28 L-1,31 L-1,33 L-21,37 L-30,41 L-46,44 L-50,42 L-51,38 L-58,38 L-58,30 L-55,25 L-51,24 L-38,22 L-28,18 L-19,16 L-9,5 L0,1 Z " fill="#F7F8F8" transform="translate(153,202)"/>
<path d="M0,0 L6,1 L8,2 L9,10 L8,14 L5,14 L5,16 L-2,18 L-6,18 L-6,20 L-18,25 L-36,26 L-62,33 L-73,33 L-74,27 L-59,24 L-50,21 L-33,17 L-22,13 L-18,13 L-18,10 L-7,2 Z " fill="#D1D5DB" transform="translate(189,223)"/>
<path d="M0,0 L3,0 L4,7 L-2,18 L-9,29 L-14,40 L-18,51 L-30,68 L-32,71 L-36,69 L-36,62 L-28,46 L-20,30 L-12,14 L-10,12 L-8,8 L-4,1 Z M-3,3 Z M-4,4 Z " fill="#B5BBC3" transform="translate(310,80)"/>
<path d="M0,0 L4,1 L-1,7 L81,7 L81,5 L85,5 L85,3 L90,3 L85,7 L72,13 L67,14 L51,13 L44,12 L44,11 L69,12 L69,10 L-3,9 L-5,12 L-5,8 L-12,9 L-16,10 L-17,14 L-20,12 L-20,6 L-8,5 L-8,6 L-3,7 L-3,5 L-6,3 L-3,3 L-3,1 Z " fill="#8B414B" transform="translate(86,148)"/>
<path d="M0,0 L21,0 L21,6 L20,7 L34,7 L35,10 L31,13 L26,13 L26,14 L18,15 L17,14 L10,14 L8,13 L-4,12 L-3,5 Z " fill="#CA9BA0" transform="translate(34,262)"/>
<path d="M0,0 L49,0 L53,2 L36,5 L25,9 L23,9 L23,7 L-2,7 Z " fill="#BA848A" transform="translate(36,250)"/>
<path d="M0,0 L26,0 L27,3 L24,6 L28,6 L28,8 L26,8 L27,10 L28,9 L41,9 L42,11 L36,14 L35,13 L19,13 L21,11 L22,5 L19,8 L19,9 L-1,10 L-3,14 L-2,5 Z " fill="#B5757C" transform="translate(33,257)"/>
<path d="M0,0 L3,1 L0,3 L62,4 L63,4 L67,4 L69,8 L60,9 L56,7 L46,7 L37,10 L37,7 L-9,7 L-11,5 Z " fill="#A4676F" transform="translate(175,106)"/>
<path d="M0,0 L35,0 L35,3 L25,10 L1,10 L1,8 L-1,8 L-1,3 L1,3 Z " fill="#CFA9AD" transform="translate(86,166)"/>
<path d="M0,0 L3,1 L-2,6 L-2,4 L-117,4 L-118,2 L0,2 Z " fill="#B14B54" transform="translate(188,137)"/>
<path d="M0,0 L6,2 L6,14 L4,16 L-36,15 L-36,14 L-21,13 L-21,12 L-16,11 L-15,7 Z " fill="#CAA1A5" transform="translate(83,227)"/>
<path d="M0,0 L32,0 L32,2 L3,2 L1,8 L-2,9 L-37,9 L-39,11 L-41,7 L-41,2 L-40,4 L0,4 Z " fill="#B67178" transform="translate(123,158)"/>
<path d="M0,0 L55,1 L51,6 L-1,5 Z " fill="#D39FA4" transform="translate(38,245)"/>
<path d="M0,0 L111,1 L109,3 L15,3 L12,4 L13,8 L12,10 L5,10 L3,9 L-4,9 L-3,2 Z " fill="#B9646B" transform="translate(71,145)"/>
<path d="M0,0 L7,0 L12,4 L10,10 L1,10 L-4,12 L-7,11 L-5,11 L-5,9 L-19,8 L-21,6 Z " fill="#9C6C74" transform="translate(96,251)"/>
<path d="M0,0 L6,0 L6,2 L86,2 L86,5 L83,7 L83,5 L-3,4 L-3,1 Z " fill="#AD4B54" transform="translate(108,130)"/>
<path d="M0,0 L91,0 L87,3 L-1,2 Z " fill="#B14B54" transform="translate(90,148)"/>
<path d="M0,0 L2,1 L3,7 L-5,21 L-8,20 L-8,18 L-12,17 L-12,19 L-10,20 L-15,19 L-14,12 L-11,9 L-8,6 L-4,3 Z " fill="#9F626B" transform="translate(299,53)"/>
<path d="M0,0 L4,1 L4,2 L61,3 L61,1 L64,2 L58,9 L55,13 L53,13 L54,8 L57,8 L57,6 L-5,5 L-5,2 Z " fill="#A44952" transform="translate(141,120)"/>
<path d="M0,0 L5,3 L12,7 L9,9 L6,7 L-26,7 L-24,9 L-30,8 L-33,5 L-32,4 L-1,3 Z M-24,9 L9,9 L9,10 L-8,11 L-8,14 L-24,10 Z " fill="#90404A" transform="translate(194,192)"/>
<path d="M0,0 L53,1 L52,4 L-3,4 Z " fill="#E3BFC2" transform="translate(152,117)"/>
<path d="M0,0 L1,0 L2,11 L5,14 L9,17 L6,19 L4,18 L5,21 L0,21 L1,17 L-50,16 L-49,11 L-47,13 L-2,13 L-1,11 Z " fill="#95424C" transform="translate(89,230)"/>
<path d="M0,0 L5,0 L4,2 L89,3 L90,5 L-31,5 L-30,11 L-33,7 L-33,3 L-13,2 Z M86,5 Z " fill="#883C46" transform="translate(101,132)"/>
<path d="M0,0 L16,0 L16,7 L11,13 L4,11 L-1,3 Z M13,1 Z " fill="#B6848A" transform="translate(198,214)"/>
<path d="M0,0 L77,1 L77,2 L41,2 L41,6 L2,6 L1,2 L0,4 Z " fill="#F9F7F7" transform="translate(82,156)"/>
<path d="M0,0 L48,1 L48,4 L-5,4 Z " fill="#E1BABE" transform="translate(164,112)"/>
<path d="M0,0 L1,2 L-9,21 L-10,25 L-15,30 L-22,46 L-24,46 L-21,37 L-17,26 L-11,15 L-4,4 Z M-25,46 Z M-26,47 Z " fill="#F8F8F8" transform="translate(315,87)"/>
<path d="M0,0 L14,1 L16,4 L21,4 L24,4 L27,7 L27,9 L29,11 L-2,12 L-4,15 L-3,6 Z M-2,7 L-2,10 L26,10 L24,7 Z " fill="#9E444D" transform="translate(164,182)"/>
<path d="M0,0 L3,1 L0,3 L51,4 L46,9 L43,10 L43,7 L-7,6 L-9,4 Z " fill="#A24B55" transform="translate(161,112)"/>
<path d="M0,0 L2,0 L1,3 L52,4 L52,6 L-8,6 L-6,2 Z " fill="#CC9A9F" transform="translate(150,117)"/>
<path d="M0,0 L118,1 L118,2 L1,2 Z " fill="#B75059" transform="translate(69,136)"/>
<path d="M0,0 L2,3 L0,4 Z M114,-1 L117,-1 L115,4 L112,4 L113,2 L2,2 L2,1 L114,1 Z " fill="#AA4A54" transform="translate(69,143)"/>
<path d="M0,0 L2,0 L1,3 L-4,5 L9,5 L13,3 L21,2 L28,0 L27,3 L48,3 L49,5 L13,5 L12,8 L-11,8 L-10,6 L-8,6 L-8,4 Z " fill="#8A3F49" transform="translate(186,101)"/>
<path d="M0,0 L4,5 L2,6 L-38,5 L-37,2 L0,2 Z M1,6 L3,8 L-3,8 Z " fill="#C37C83" transform="translate(236,104)"/>
<path d="M0,0 L4,0 L4,2 L-17,8 L-24,12 L-32,12 L-31,9 L-24,5 L-7,1 Z " fill="#FAFAFA" transform="translate(89,251)"/>
<path d="M0,0 L8,0 L5,3 L-18,7 L-27,7 L-27,9 L-39,8 L-35,6 L-7,1 Z " fill="#A1A1A4" transform="translate(155,254)"/>
<path d="M0,0 L118,0 L118,1 L0,1 Z " fill="#FAFAFA" transform="translate(70,138)"/>
<path d="M0,0 L112,1 L112,2 L1,3 L-1,4 Z " fill="#B74F58" transform="translate(71,141)"/>
<path d="M0,0 L4,1 L6,2 L5,7 L-16,8 L-19,5 L-23,2 L-1,1 Z " fill="#BD767D" transform="translate(204,200)"/>
<path d="M0,0 L114,0 L114,1 L0,1 Z " fill="#FAFAFA" transform="translate(72,141)"/>
<path d="M0,0 L16,0 L16,1 L1,3 L-21,9 L-26,10 L-39,10 L-39,6 L-37,6 L-37,8 L-22,6 Z " fill="#4D596D" transform="translate(153,248)"/>
<path d="M0,0 L111,0 L111,1 L0,1 Z " fill="#FAFAFA" transform="translate(72,143)"/>
<path d="M0,0 L3,2 L2,9 L-15,9 L-16,6 L-20,4 L-21,2 L0,2 Z " fill="#E0C5C8" transform="translate(210,203)"/>
<path d="M0,0 L110,0 L110,1 L0,1 Z " fill="#FAFAFA" transform="translate(72,145)"/>
<path d="M0,0 L5,0 L11,3 L12,7 L-11,7 L-8,5 L-7,2 Z " fill="#BC868C" transform="translate(221,98)"/>
<path d="M0,0 L109,0 L109,1 L0,1 Z " fill="#FAFAFA" transform="translate(71,147)"/>
<path d="M0,0 L102,0 L102,1 L0,1 Z " fill="#FAFAFA" transform="translate(86,136)"/>
<path d="M0,0 L32,0 L35,3 L-1,4 Z " fill="#E3C1C4" transform="translate(162,193)"/>
<path d="M0,0 L34,0 L36,3 L3,3 Z " fill="#E0B9BC" transform="translate(167,198)"/>
<path d="M0,0 L2,0 L2,2 L20,3 L20,6 L-23,7 L-25,5 L-7,3 Z " fill="#88424C" transform="translate(66,235)"/>
<path d="M0,0 L4,1 L2,2 L75,3 L75,4 L-5,4 L-7,2 Z " fill="#A2454F" transform="translate(119,127)"/>
<path d="M0,0 L2,1 L0,3 L19,4 L15,6 L8,8 L-9,8 L-11,9 L-11,6 L-9,6 L-9,4 L-2,1 Z " fill="#8E545D" transform="translate(70,259)"/>
<path d="M0,0 L46,1 L46,3 L0,3 Z " fill="#D7A4A8" transform="translate(41,241)"/>
<path d="M0,0 L17,0 L16,3 L11,6 L-1,6 L-1,1 Z " fill="#C8989D" transform="translate(88,177)"/>
<path d="M0,0 L92,0 L90,2 L0,1 Z " fill="#FAFAFA" transform="translate(100,134)"/>
<path d="M0,0 L1,3 L13,3 L13,7 L9,10 L7,11 L0,11 Z " fill="#9C6870" transform="translate(29,271)"/>
<path d="M0,0 L4,1 L3,2 L65,3 L65,4 L-10,4 L-6,2 Z " fill="#9D434D" transform="translate(133,123)"/>
<path d="M0,0 L21,1 L19,2 L19,4 L17,5 L-5,5 Z " fill="#CE989D" transform="translate(72,258)"/>
<path d="M0,0 L2,4 L2,10 L-1,8 L-15,8 L-17,9 L-21,4 L-24,1 L-3,1 L-3,2 L-18,3 L-18,5 L-1,5 Z M-2,8 Z " fill="#903F49" transform="translate(213,207)"/>
<path d="M0,0 L86,0 L86,1 L0,1 Z " fill="#FAFAFA" transform="translate(88,150)"/>
<path d="M0,0 L84,0 L84,1 L0,1 Z " fill="#FAFAFA" transform="translate(87,152)"/>
<path d="M0,0 L84,0 L84,1 L0,1 Z " fill="#B64D56" transform="translate(87,151)"/>
<path d="M0,0 L1,2 L23,2 L19,4 L2,4 L1,9 L12,9 L11,11 L0,10 L1,13 L7,13 L4,18 L0,19 L-1,16 Z " fill="#733A45" transform="translate(86,174)"/>
<path d="M0,0 L81,1 L81,2 L-1,2 Z " fill="#B64D56" transform="translate(86,152)"/>
<path d="M0,0 L82,0 L82,1 L0,1 Z " fill="#FAFAFA" transform="translate(85,154)"/>
<path d="M0,0 L12,0 L8,6 L7,7 L-7,7 L-5,4 L-1,3 Z " fill="#C08D92" transform="translate(188,100)"/>
<path d="M0,0 L9,0 L9,3 L4,7 L3,12 L1,11 L0,10 L-3,11 L-4,5 L-2,5 Z " fill="#8E515A" transform="translate(54,274)"/>
<path d="M0,0 L39,0 L39,3 L0,4 Z " fill="#B64D56" transform="translate(83,158)"/>
<path d="M0,0 L80,0 L80,1 L0,1 Z " fill="#FAFAFA" transform="translate(114,131)"/>
<path d="M0,0 L26,0 L28,3 L0,3 Z " fill="#E2BEC1" transform="translate(162,189)"/>
<path d="M0,0 L4,1 L5,6 L3,6 L4,9 L5,7 L7,7 L7,12 L3,14 L-14,15 L-15,12 L2,12 Z " fill="#A5A4A7" transform="translate(166,300)"/>
<path d="M0,0 L74,1 L74,2 L-3,2 Z " fill="#FAFAFA" transform="translate(121,128)"/>
<path d="M0,0 L5,0 L1,2 L-16,6 L-23,10 L-32,12 L-38,12 L-38,10 L-21,6 L-15,3 Z " fill="#506077" transform="translate(147,235)"/>
<path d="M0,0 L72,1 L72,2 L-1,2 Z " fill="#B64D56" transform="translate(123,127)"/>
<path d="M0,0 L72,0 L72,1 L0,1 Z " fill="#FAFAFA" transform="translate(126,127)"/>
<path d="M0,0 L8,0 L6,2 L-1,5 L-11,6 L-20,5 L-21,3 L-18,2 L-5,2 L-2,3 L-2,1 Z " fill="#B2B1B3" transform="translate(60,230)"/>
<path d="M0,0 L5,4 L5,6 L-16,6 L-14,1 Z " fill="#EAD3D5" transform="translate(180,181)"/>
<path d="M0,0 L67,0 L67,1 L0,1 Z " fill="#FAFAFA" transform="translate(132,125)"/>
<path d="M0,0 L33,0 L31,3 L1,4 Z " fill="#B74F58" transform="translate(85,167)"/>
<path d="M0,0 L8,0 L10,4 L11,6 L-4,6 L-1,1 Z " fill="#9F5D65" transform="translate(169,176)"/>
<path d="M0,0 L65,0 L65,1 L0,1 Z " fill="#FAFAFA" transform="translate(173,109)"/>
</svg>
