<?xml version="1.0" encoding="UTF-8"?>
<!-- Generator: visioncortex VTracer 0.6.12 -->
<svg xmlns:xlink="http://www.w3.org/1999/xlink" xmlns:sodipodi="http://sodipodi.sourceforge.net/DTD/sodipodi-0.0.dtd" xmlns:inkscape="http://www.inkscape.org/namespaces/inkscape" version="1.1" xmlns="http://www.w3.org/2000/svg" width="282" height="344">
<path d="M0,0 L282,0 L282,344 L0,344 Z M161,25 L158,37 L156,37 L154,43 L153,48 L151,48 L150,51 L149,47 L148,50 L148,69 L144,66 L142,67 L141,73 L138,71 L134,72 L135,80 L124,79 L124,89 L123,95 L115,94 L116,100 L118,98 L117,101 L116,103 L110,103 L112,110 L115,111 L115,113 L109,113 L107,118 L109,129 L105,131 L103,134 L105,134 L103,138 L102,136 L100,136 L100,130 L93,129 L88,130 L88,132 L83,133 L70,141 L70,144 L65,149 L63,153 L57,157 L59,158 L58,162 L54,163 L52,162 L52,164 L49,163 L44,171 L42,173 L38,178 L33,181 L28,187 L25,188 L23,187 L21,192 L22,204 L22,207 L25,208 L26,213 L31,218 L42,227 L53,234 L60,240 L64,242 L65,242 L71,249 L83,262 L87,264 L86,266 L88,268 L90,272 L93,275 L95,274 L94,278 L100,287 L108,302 L112,314 L117,324 L121,322 L122,322 L129,321 L133,318 L134,315 L138,314 L141,310 L141,308 L145,309 L153,301 L159,291 L162,279 L162,273 L164,270 L166,265 L169,263 L169,261 L173,260 L174,259 L176,259 L176,257 L179,257 L179,255 L182,255 L182,253 L186,252 L188,250 L189,243 L185,240 L184,236 L175,231 L170,224 L169,220 L167,218 L163,213 L159,205 L151,194 L150,189 L152,179 L156,179 L159,174 L159,171 L162,170 L168,159 L168,157 L172,155 L175,154 L186,162 L194,168 L204,173 L214,174 L215,168 L218,168 L224,159 L230,154 L230,152 L234,151 L234,147 L237,147 L237,145 L241,146 L243,144 L243,135 L239,125 L232,107 L230,103 L229,100 L228,98 L226,99 L227,94 L225,92 L224,93 L223,88 L218,84 L216,79 L229,75 L236,71 L236,69 L239,69 L239,67 L243,66 L247,61 L247,54 L241,55 L230,55 L212,52 L204,52 L204,54 L198,56 L198,58 L190,59 L179,60 L178,58 L176,60 L172,58 L170,49 L169,32 L167,32 L165,28 Z M139,69 Z M138,70 Z M102,134 Z M255,156 L255,164 L253,164 L255,160 L253,159 L249,163 L244,164 L237,164 L231,169 L225,173 L227,179 L231,181 L230,184 L237,188 L241,188 L241,190 L251,189 L249,186 L252,184 L252,187 L257,182 L262,173 L262,164 L258,157 L260,156 Z M162,210 Z " fill="#F9F9F9" transform="translate(0,0)"/>
<path d="M0,0 L11,1 L15,2 L26,2 L32,1 L32,8 L27,14 L24,14 L24,16 L21,16 L20,19 L14,21 L18,16 L9,21 L0,21 L0,23 L-9,23 L-4,28 L-4,30 L1,32 L2,29 L7,34 L9,37 L9,40 L11,39 L12,44 L10,45 L12,50 L15,57 L17,66 L21,72 L25,82 L24,87 L22,94 L19,94 L18,99 L14,100 L10,100 L4,107 L3,111 L-4,115 L-11,115 L-21,111 L-26,107 L-29,106 L-31,102 L-38,99 L-42,100 L-45,104 L-47,104 L-49,110 L-54,118 L-56,118 L-57,123 L-59,126 L-67,128 L-69,130 L-72,126 L-73,123 L-82,117 L-89,111 L-87,109 L-98,102 L-102,99 L-105,99 L-107,94 L-110,92 L-111,87 L-110,85 L-110,81 L-112,80 L-107,76 L-106,73 L-108,65 L-106,60 L-100,60 L-100,58 L-103,57 L-105,50 L-99,50 L-97,48 L-97,45 L-99,47 L-100,41 L-92,42 L-91,34 L-91,26 L-84,27 L-79,28 L-79,21 L-72,20 L-69,23 L-65,31 L-65,34 L-67,35 L-58,37 L-49,37 L-39,34 L-38,30 L-34,19 L-33,10 L-32,8 L-22,5 L-11,3 L-1,2 L5,4 L15,6 L15,4 L4,3 L0,2 Z M-24,44 L-26,46 L-23,49 L-19,52 L-18,58 L-21,59 L-22,55 L-28,55 L-32,58 L-34,57 L-33,62 L-33,65 L-30,68 L-14,73 L-6,75 L-3,73 L-3,71 L-1,71 L-1,61 L-3,57 L-3,59 L-5,59 L-6,54 L-7,49 L-9,47 L-10,45 Z M-113,81 Z " fill="#F3F3F2" transform="translate(215,53)"/>
<path d="M0,0 L3,1 L2,9 L4,14 L9,19 L13,21 L14,24 L12,24 L14,26 L18,28 L23,34 L28,36 L33,40 L37,44 L41,46 L43,50 L47,54 L50,59 L52,63 L56,67 L57,67 L61,67 L68,77 L73,87 L75,87 L77,92 L80,97 L82,100 L91,105 L93,110 L96,112 L95,119 L92,122 L89,122 L89,124 L86,124 L86,126 L83,126 L83,128 L77,128 L72,133 L66,145 L65,145 L64,160 L61,164 L59,164 L50,176 L48,176 L47,180 L44,183 L40,185 L39,188 L34,190 L29,191 L29,188 L24,186 L21,176 L16,168 L14,163 L13,161 L10,162 L4,151 L1,146 L2,143 L-1,144 L-4,140 L-5,137 L-7,134 L-7,132 L-11,124 L-16,120 L-18,115 L-20,115 L-20,113 L-25,111 L-28,110 L-31,110 L-39,104 L-41,103 L-43,98 L-58,87 L-62,84 L-66,83 L-68,81 L-68,77 L-72,75 L-71,71 L-72,59 L-69,56 L-67,57 L-62,53 L-58,48 L-53,45 L-51,41 L-48,39 L-44,32 L-41,33 L-40,31 L-37,31 L-35,31 L-34,27 L-36,26 L-30,22 L-25,18 L-20,13 L-14,9 L-4,2 Z M-4,12 L-12,17 L-20,24 L-21,26 L-23,29 L-28,34 L-36,44 L-37,46 L-41,51 L-46,56 L-59,67 L-63,72 L-58,80 L-51,86 L-49,86 L-49,84 L-39,85 L-39,87 L-46,87 L-46,89 L-40,91 L-28,77 L-25,75 L-19,74 L-23,80 L-33,87 L-35,94 L-30,100 L-26,102 L-10,86 L-6,81 L-4,82 L2,72 L6,67 L8,70 L14,60 L16,57 L16,55 L24,49 L24,47 L27,46 L27,40 L24,37 L16,38 L13,38 L12,43 L9,46 L5,49 L7,50 L16,51 L16,53 L5,52 L2,49 L-1,53 L-3,56 L-5,59 L-10,58 L-1,47 L8,39 L14,35 L11,29 L5,24 L1,23 L2,20 L-2,16 L-2,19 L-10,18 L-3,14 Z M31,53 L30,55 L26,59 L26,61 L22,59 L18,64 L15,71 L12,75 L9,80 L10,77 L5,79 L3,84 L2,86 L0,85 L-2,87 L-2,92 L-6,93 L-15,104 L-19,106 L-17,106 L-17,111 L-15,109 L-12,112 L-8,109 L-4,108 L-3,105 L0,104 L1,100 L2,98 L6,102 L10,93 L11,88 L13,89 L17,85 L20,83 L23,76 L27,70 L35,63 L39,58 L38,53 Z M50,72 L42,77 L37,82 L27,92 L18,103 L9,113 L-1,122 L0,127 L6,139 L14,141 L14,139 L21,139 L23,132 L25,130 L25,128 L29,125 L28,127 L33,125 L37,120 L40,114 L47,106 L50,100 L56,92 L59,88 L61,89 L64,83 L59,81 L57,76 L52,72 Z M75,104 L67,109 L60,117 L52,128 L51,132 L60,133 L60,134 L49,134 L41,148 L37,153 L26,161 L23,166 L24,172 L29,181 L32,182 L44,174 L53,165 L58,157 L64,133 L68,128 L86,116 L86,114 L84,114 L82,110 Z M69,79 Z " fill="#EBEAE9" transform="translate(93,131)"/>
<path d="M0,0 L4,2 L8,10 L7,14 L2,19 L-3,24 L-6,25 L-7,29 L-14,36 L-18,39 L-18,42 L-25,48 L-30,53 L-41,62 L-41,68 L-44,67 L-50,55 L-51,50 L-34,34 L-25,23 L-16,13 L-9,7 L-4,2 Z " fill="#F8F5F5" transform="translate(143,203)"/>
<path d="M0,0 L6,5 L8,28 L11,38 L11,49 L9,53 L0,55 L-5,52 L-8,49 L-9,45 L-9,23 L-7,18 L-5,12 L-3,12 Z " fill="#F9F9F9" transform="translate(161,25)"/>
<path d="M0,0 L7,0 L8,5 L-2,16 L-5,19 L-10,26 L-12,31 L-17,34 L-19,36 L-20,37 L-22,41 L-25,49 L-29,45 L-31,50 L-32,52 L-34,52 L-36,56 L-40,57 L-44,59 L-46,56 L-48,58 L-48,53 L-50,52 L-45,50 L-36,39 L-33,38 L-32,34 L-30,32 L-29,33 L-26,27 L-23,24 L-21,25 L-19,21 L-15,17 L-12,9 L-8,6 L-5,8 L-5,5 L-1,2 Z " fill="#B4B4AE" transform="translate(124,184)"/>
<path d="M0,0 L1,4 L2,1 L3,1 L4,23 L6,29 L11,31 L15,32 L24,30 L23,14 L25,11 L27,13 L30,11 L30,13 L38,13 L34,14 L33,25 L29,36 L27,39 L29,40 L21,43 L17,44 L8,44 L-2,42 L-1,40 L1,40 L-4,29 L-4,27 L-13,27 L-13,34 L-16,33 L-14,33 L-15,24 L-11,25 L-8,26 L-7,20 L-4,19 L-1,22 L-1,3 Z M-10,22 Z M-11,23 Z " fill="#BAB9B2" transform="translate(149,47)"/>
<path d="M0,0 L8,0 L10,2 L10,7 L12,7 L13,9 L15,7 L16,10 L15,12 L17,14 L15,14 L19,18 L21,23 L24,23 L39,33 L38,35 L43,40 L47,42 L50,45 L54,49 L56,53 L60,50 L62,50 L60,62 L63,69 L61,70 L60,72 L57,69 L57,67 L54,67 L50,58 L48,54 L43,50 L43,48 L38,46 L34,41 L27,37 L24,35 L19,34 L22,32 L19,29 L15,28 L16,25 L15,23 L10,20 L10,18 L6,16 L4,11 L5,3 L-1,4 L-2,1 Z " fill="#B3B3AC" transform="translate(90,129)"/>
<path d="M0,0 L5,0 L3,1 L6,5 L5,16 L1,21 L-1,21 L-3,25 L-6,31 L-4,33 L-14,34 L-14,32 L-20,31 L-25,27 L-25,24 L-28,23 L-30,17 L-26,15 L-24,16 L-15,11 L-6,11 L0,9 Z " fill="#DFDFDC" transform="translate(255,156)"/>
<path d="M0,0 L5,5 L5,7 L10,9 L7,15 L4,15 L-1,21 L-4,26 L-10,36 L-16,43 L-20,50 L-24,53 L-26,52 L-27,52 L-30,55 L-29,57 L-31,58 L-33,65 L-40,65 L-41,67 L-45,66 L-46,60 L-32,48 L-29,45 L-22,39 L-22,36 L-11,26 L-10,23 L-6,20 L-4,17 L0,13 L3,11 L2,5 Z " fill="#C3BAB5" transform="translate(147,205)"/>
<path d="M0,0 L7,0 L14,1 L15,3 L18,6 L18,10 L19,15 L21,15 L22,13 L23,17 L23,27 L21,27 L20,30 L17,31 L10,29 L0,26 L-7,23 L-10,19 L-10,17 L-9,13 L-6,13 L-2,14 L-1,16 L13,17 L9,10 L7,9 L7,7 L0,5 L-2,1 Z " fill="#D1D1CB" transform="translate(191,97)"/>
<path d="M0,0 L2,1 L36,1 L38,6 L30,11 L30,9 L-5,10 L-9,15 L24,16 L22,18 L-11,17 L-11,14 Z " fill="#7AA1AE" transform="translate(69,160)"/>
<path d="M0,0 L2,1 L-3,6 L31,7 L31,9 L38,9 L37,11 L29,11 L27,14 L33,14 L33,16 L31,16 L30,18 L30,16 L24,16 L24,14 L-11,15 L-13,16 L-14,13 L-6,5 Z " fill="#7BA1AD" transform="translate(44,189)"/>
<path d="M0,0 L3,0 L2,4 L-1,10 L-3,7 L-8,13 L-11,16 L-27,16 L-27,14 L-26,13 L-32,13 L-29,8 L-21,8 L-16,3 L-14,1 L-1,1 Z " fill="#9EB8C0" transform="translate(102,191)"/>
<path d="M0,0 L1,3 L13,3 L11,7 L7,24 L5,23 L-11,23 L-10,19 L-4,8 L7,8 L7,7 L-2,6 Z " fill="#7B9DA8" transform="translate(146,257)"/>
<path d="M0,0 L23,0 L22,5 L18,11 L17,9 L-8,9 L-11,11 L-9,7 Z " fill="#88A8B2" transform="translate(128,285)"/>
<path d="M0,0 L36,0 L34,4 L30,9 L30,6 L-2,6 L-2,3 Z " fill="#8AAEB9" transform="translate(55,177)"/>
<path d="M0,0 L25,0 L24,4 L17,10 L16,8 L4,9 L2,10 L-1,4 Z " fill="#8DADB7" transform="translate(117,297)"/>
<path d="M0,0 L0,3 L10,4 L8,9 L-2,19 L-8,15 L-10,13 L-9,9 L-6,7 L-5,4 Z " fill="#799DA8" transform="translate(69,214)"/>
<path d="M0,0 L34,0 L35,1 L41,1 L40,3 L33,4 L31,5 L-3,4 Z " fill="#A1C0CA" transform="translate(46,189)"/>
<path d="M0,0 L7,0 L4,6 L-4,6 L-4,4 L-39,4 L-37,1 L-1,1 Z " fill="#A2BFC8" transform="translate(79,192)"/>
<path d="M0,0 L5,1 L6,7 L5,10 L3,10 L2,13 L-7,19 L-18,18 L-17,16 L-5,16 L-5,14 L-14,13 L-16,11 L-10,8 L-7,5 L-7,7 L3,7 L3,5 L1,3 Z " fill="#5F808A" transform="translate(114,168)"/>
<path d="M0,0 L24,0 L21,5 L15,12 L9,10 L9,8 L16,8 L16,6 L6,5 L6,7 L2,5 L-2,1 Z " fill="#6B919D" transform="translate(38,210)"/>
<path d="M0,0 L16,0 L15,5 L9,9 L-4,9 L-3,4 Z " fill="#90AEB8" transform="translate(151,251)"/>
<path d="M0,0 L35,0 L35,3 L33,4 L-2,4 Z " fill="#A8C4CD" transform="translate(64,169)"/>
<path d="M0,0 L3,3 L2,5 L12,6 L12,8 L14,9 L10,13 L6,13 L-7,13 L-11,15 L-8,10 L-6,10 L-4,4 L-2,3 Z " fill="#698288" transform="translate(95,180)"/>
<path d="M0,0 L4,2 L-1,7 L-7,15 L-8,17 L-11,17 L-13,22 L-22,19 L-36,12 L-40,8 L-35,9 L-30,13 L-22,16 L-15,16 L-11,15 L-10,13 L-8,11 L-6,7 Z " fill="#68685E" transform="translate(226,151)"/>
<path d="M0,0 L32,0 L31,5 L-3,4 Z " fill="#A9C5CE" transform="translate(53,183)"/>
<path d="M0,0 L31,0 L29,4 L1,5 L-1,1 Z " fill="#A1BDC6" transform="translate(34,206)"/>
<path d="M0,0 L29,0 L31,4 L-2,4 Z " fill="#A7C3CC" transform="translate(73,158)"/>
<path d="M0,0 L2,1 L-3,5 L-6,8 L-17,11 L-17,17 L-24,15 L-24,12 L-25,10 L-29,8 L-22,7 L-18,8 L-19,5 L-9,5 Z " fill="#8E8D82" transform="translate(233,68)"/>
<path d="M0,0 L1,0 L1,7 L-1,8 L-21,8 L-19,4 L-16,1 L0,2 Z " fill="#88ABB6" transform="translate(151,278)"/>
<path d="M0,0 L11,0 L10,5 L4,12 L3,10 L-7,9 L-1,1 Z " fill="#95B3BB" transform="translate(75,209)"/>
<path d="M0,0 L1,2 L-6,6 L2,7 L3,4 L5,8 L4,9 L-10,10 L-12,12 L6,13 L7,11 L12,14 L12,15 L-16,15 L-15,11 L-7,4 Z M-18,14 L-16,16 L-18,16 Z " fill="#517C8A" transform="translate(89,143)"/>
<path d="M0,0 L4,0 L8,11 L12,17 L14,25 L18,28 L14,32 L11,28 L6,17 L2,6 Z " fill="#919081" transform="translate(104,292)"/>
<path d="M0,0 L7,0 L17,5 L17,9 L27,15 L44,22 L40,23 L32,21 L21,15 L7,4 L2,3 Z " fill="#C6C4B1" transform="translate(170,151)"/>
<path d="M0,0 L35,0 L34,4 L-1,4 Z " fill="#8DB1BC" transform="translate(33,203)"/>
<path d="M0,0 L1,2 L-3,9 L-7,7 L-7,6 L-17,6 L-22,11 L-26,14 L-28,14 L-29,18 L-34,21 L-32,14 L-22,7 L-19,3 L-15,2 L-1,3 Z " fill="#435659" transform="translate(92,204)"/>
<path d="M0,0 L35,0 L33,3 L-2,3 Z " fill="#8FB4BF" transform="translate(61,173)"/>
<path d="M0,0 L2,0 L1,9 L-4,19 L-13,29 L-15,30 L-18,28 L-14,24 L-6,14 L-4,14 Z " fill="#A8A796" transform="translate(159,279)"/>
<path d="M0,0 L7,3 L11,8 L13,12 L17,15 L18,19 L16,21 L9,14 L2,6 L-2,1 Z " fill="#939285" transform="translate(67,241)"/>
<path d="M0,0 L12,0 L15,3 L15,6 L-4,6 L-2,2 Z " fill="#A3BEC7" transform="translate(162,240)"/>
<path d="M0,0 L3,0 L8,10 L9,14 L9,23 L5,25 L3,24 L5,14 L0,2 Z " fill="#A4A395" transform="translate(234,121)"/>
<path d="M0,0 L2,0 L1,3 L-5,6 L-23,5 L-20,1 Z " fill="#78A0AD" transform="translate(177,245)"/>
<path d="M0,0 L2,2 L0,5 L2,6 L-4,9 L-13,9 L-23,14 L-24,11 L-18,7 L-15,5 L-6,5 L-1,2 Z " fill="#ACAA9B" transform="translate(253,159)"/>
<path d="M0,0 L4,2 L-6,9 L-15,15 L-19,19 L-20,16 L-15,12 L-15,9 Z " fill="#78786B" transform="translate(85,132)"/>
<path d="M0,0 L25,1 L24,5 L22,6 L22,4 L-4,4 Z " fill="#5C92A3" transform="translate(120,293)"/>
<path d="M0,0 L5,5 L-6,6 L-13,14 L4,15 L4,17 L-1,19 L-2,17 L-16,16 L-12,9 L-4,2 Z " fill="#50737E" transform="translate(168,235)"/>
<path d="M0,0 L2,2 L1,3 L33,4 L31,8 L30,6 L-4,6 Z M2,0 Z " fill="#588A9A" transform="translate(50,183)"/>
<path d="M0,0 L4,0 L5,0 L7,6 L9,10 L-6,9 L-10,5 L-9,3 L-3,3 L-2,7 L1,6 Z " fill="#61615B" transform="translate(196,105)"/>
<path d="M0,0 L1,2 L4,1 L4,6 L6,6 L11,20 L11,24 L7,23 L5,20 L3,11 L-1,3 Z " fill="#929181" transform="translate(225,97)"/>
<path d="M0,0 L6,4 L20,14 L22,16 L21,19 L7,9 L0,3 Z " fill="#A8A695" transform="translate(30,214)"/>
<path d="M0,0 L2,1 L3,17 L6,26 L6,45 L4,45 L4,31 L1,21 L0,12 Z " fill="#1F1F1A" transform="translate(167,32)"/>
<path d="M0,0 L4,2 L0,3 Z M-3,3 L0,3 L0,5 L-4,9 L-6,15 L-7,16 L-7,21 L-10,21 L-11,29 L-13,31 L-12,17 L-9,13 Z " fill="#888778" transform="translate(169,258)"/>
<path d="M0,0 L12,0 L12,3 L3,8 L-1,4 Z " fill="#7A97A0" transform="translate(121,305)"/>
<path d="M0,0 L2,1 L2,5 L-17,5 L-14,1 Z " fill="#A9C5CE" transform="translate(93,151)"/>
<path d="M0,0 L8,0 L11,1 L11,3 L20,4 L26,5 L26,7 L14,6 L10,4 L0,5 L-6,6 L-6,4 L0,2 Z " fill="#6D6D62" transform="translate(204,52)"/>
<path d="M0,0 L9,1 L12,5 L11,8 L0,8 Z " fill="#799198" transform="translate(106,168)"/>
<path d="M0,0 L2,0 L2,9 L-4,19 L-8,23 L-8,20 L-9,17 L-4,12 L-1,8 Z " fill="#A9A896" transform="translate(260,164)"/>
</svg>
