<?xml version="1.0" encoding="UTF-8"?>
<!-- Generator: visioncortex VTracer 0.6.12 -->
<svg xmlns:xlink="http://www.w3.org/1999/xlink" xmlns:sodipodi="http://sodipodi.sourceforge.net/DTD/sodipodi-0.0.dtd" xmlns:inkscape="http://www.inkscape.org/namespaces/inkscape" version="1.1" xmlns="http://www.w3.org/2000/svg" width="348" height="344">
<path d="M0,0 L348,0 L348,344 L0,344 Z M172,51 L170,58 L165,60 L164,67 L162,67 L153,84 L153,86 L165,88 L150,90 L148,94 L147,98 L144,99 L138,110 L138,114 L132,115 L131,121 L135,125 L140,126 L128,131 L126,135 L123,137 L121,136 L117,138 L117,133 L114,136 L105,149 L100,159 L97,161 L100,163 L103,172 L107,173 L106,184 L109,190 L115,194 L117,196 L120,196 L120,199 L122,200 L121,203 L110,194 L107,190 L103,190 L103,192 L101,192 L98,197 L96,198 L96,194 L93,193 L89,197 L83,197 L80,196 L80,198 L68,194 L67,192 L60,193 L60,190 L65,188 L63,186 L49,186 L45,188 L46,193 L44,193 L43,191 L44,202 L28,207 L25,209 L25,211 L22,212 L28,219 L31,220 L31,227 L28,229 L28,231 L23,232 L24,238 L30,240 L39,240 L49,238 L55,238 L58,241 L63,249 L66,252 L72,250 L81,245 L89,245 L91,247 L90,251 L89,254 L80,257 L70,263 L66,265 L60,264 L56,262 L49,260 L47,256 L43,255 L35,259 L34,263 L33,271 L40,279 L46,280 L46,282 L59,284 L79,277 L92,271 L92,269 L102,266 L118,258 L120,257 L120,255 L132,254 L136,256 L136,254 L138,254 L139,256 L147,248 L147,246 L151,245 L157,241 L157,239 L161,241 L160,263 L162,259 L161,255 L163,255 L164,257 L164,254 L166,254 L169,247 L173,243 L178,244 L184,256 L185,253 L187,253 L188,246 L187,243 L191,239 L191,241 L194,241 L194,243 L203,250 L214,258 L220,254 L226,256 L233,256 L233,259 L243,263 L250,265 L252,268 L266,273 L269,274 L270,277 L278,279 L287,282 L299,282 L307,280 L314,274 L316,265 L313,259 L310,256 L306,255 L299,255 L290,261 L286,262 L274,259 L259,251 L258,248 L261,245 L269,246 L284,253 L288,250 L290,245 L290,241 L296,239 L310,240 L310,241 L318,241 L327,238 L324,231 L318,226 L316,222 L321,221 L327,216 L327,210 L318,206 L304,203 L307,195 L306,190 L301,187 L289,186 L283,187 L283,184 L290,172 L291,168 L291,151 L277,151 L268,154 L255,161 L248,162 L248,160 L246,160 L244,155 L235,140 L233,140 L232,135 L225,122 L219,112 L212,102 L203,85 L198,78 L196,73 L192,67 L189,61 L187,60 L188,64 L184,63 L183,66 L177,53 Z M68,157 L64,159 L63,167 L67,175 L72,181 L79,175 L84,169 L85,164 L82,161 L76,158 Z M96,167 L88,174 L79,182 L77,186 L75,188 L77,192 L86,193 L96,187 L100,179 L98,169 Z M113,272 L111,276 L111,279 L105,280 L99,282 L100,286 L107,289 L110,289 L110,317 L111,321 L120,322 L120,274 L116,272 Z M232,272 L223,276 L219,283 L218,292 L217,301 L219,310 L221,310 L223,316 L224,318 L241,321 L246,316 L249,313 L249,311 L251,311 L253,307 L254,294 L251,281 L248,277 L246,277 L244,273 L243,272 Z M148,276 L141,280 L139,285 L136,285 L137,291 L139,291 L139,294 L141,294 L140,300 L138,302 L138,304 L137,309 L141,316 L146,318 L152,318 L158,315 L160,306 L157,298 L144,295 L146,293 L150,294 L158,290 L158,281 L153,277 Z M194,276 L181,280 L183,281 L181,290 L184,297 L190,300 L190,302 L197,303 L199,301 L203,302 L204,304 L208,298 L209,296 L206,294 L206,286 L204,281 L201,277 Z M202,304 L199,312 L195,316 L187,317 L180,313 L178,311 L177,314 L179,318 L195,322 L199,320 L203,313 L206,310 L203,304 Z M150,92 Z M149,93 Z M117,192 Z " fill="#F5F5F5" transform="translate(0,0)"/>
<path d="M0,0 L2,0 L8,13 L8,17 L-1,19 L-3,19 L-3,23 L13,25 L18,31 L23,41 L24,45 L26,47 L-16,48 L-18,49 L-16,50 L-16,52 L21,52 L30,55 L34,59 L35,64 L34,69 L32,69 L32,66 L13,65 L1,65 L-2,67 L1,68 L34,70 L41,73 L44,78 L44,83 L40,82 L40,79 L34,78 L16,78 L14,79 L19,81 L45,84 L52,88 L60,101 L61,103 L63,103 L63,105 L69,106 L71,109 L74,106 L76,107 L76,109 L74,109 L76,114 L72,124 L74,124 L76,129 L79,133 L73,134 L71,134 L71,136 L65,135 L64,132 L64,117 L62,117 L62,115 L60,115 L60,113 L26,112 L29,111 L31,105 L27,103 L17,102 L17,100 L-15,100 L-26,102 L-50,104 L-59,106 L-64,105 L-61,96 L-55,93 L-49,91 L-28,90 L-19,88 L-20,83 L-23,77 L-23,74 L-20,74 L-21,69 L-40,69 L-43,65 L-42,60 L-36,59 L-35,53 L-29,43 L-27,43 L-25,39 L-23,37 L-8,35 L-5,34 L-6,32 L-17,31 L-19,30 L-17,24 L-11,12 L-8,7 L-3,6 L-3,4 L-1,4 Z M3,88 L0,89 L0,93 L25,95 L31,96 L29,91 L23,89 Z " fill="#EEEEEF" transform="translate(174,55)"/>
<path d="M0,0 L5,1 L10,7 L16,12 L24,13 L24,18 L21,17 L22,20 L28,21 L29,19 L32,20 L34,14 L36,11 L39,17 L41,18 L41,21 L43,21 L44,23 L50,23 L54,25 L65,26 L65,27 L62,28 L69,30 L70,28 L70,31 L66,32 L63,32 L64,35 L59,38 L54,43 L49,45 L49,47 L42,50 L35,53 L33,53 L32,55 L29,53 L29,51 L25,49 L19,46 L16,47 L5,49 L5,51 L-2,52 L-7,49 L-9,46 L-19,47 L-24,50 L-38,51 L-40,46 L-40,42 L-43,41 L-43,39 L-49,39 L-49,41 L-63,44 L-67,44 L-66,40 L-58,34 L-57,30 L-64,27 L-67,25 L-65,25 L-66,22 L-59,20 L-52,20 L-46,19 L-46,13 L-47,8 L-52,7 L-51,5 L-42,5 L-23,8 L-22,6 L-20,7 L-14,7 L-9,3 L-7,4 L-7,8 L-3,4 L-2,2 L0,2 Z M-25,18 L-24,22 L-35,25 L-35,28 L-29,30 L-29,36 L-25,37 L-20,34 L-20,32 L-8,30 L-4,31 L0,29 L1,35 L4,36 L15,37 L28,38 L35,39 L29,32 L27,31 L19,31 L23,33 L26,33 L24,35 L13,34 L13,32 L15,32 L15,30 L6,27 L-9,26 L-15,24 L-17,20 L-22,18 Z " fill="#DFE2E0" transform="translate(103,190)"/>
<path d="M0,0 L5,1 L8,10 L10,9 L8,5 L10,3 L14,9 L14,11 L20,10 L17,13 L27,9 L30,9 L30,7 L27,6 L23,5 L23,3 L36,3 L35,5 L50,3 L55,4 L56,2 L58,8 L56,10 L55,11 L53,13 L50,13 L51,18 L63,20 L74,23 L71,26 L63,30 L65,34 L71,39 L71,42 L65,43 L50,39 L49,44 L45,45 L45,47 L42,47 L42,49 L35,50 L30,49 L23,45 L16,45 L11,51 L4,52 L1,51 L1,49 L-4,48 L-11,45 L-20,46 L-19,49 L-26,55 L-46,46 L-49,44 L-51,43 L-51,41 L-59,35 L-57,29 L-50,26 L-46,26 L-44,22 L-39,19 L-38,17 L-36,17 L-35,14 L-30,14 L-30,16 L-26,18 L-21,19 L-14,17 L-9,12 L-2,6 L0,1 Z M-6,23 L-8,28 L-21,29 L-33,35 L-29,38 L-17,37 L-14,35 L-4,34 L0,34 L-1,37 L1,37 L2,34 L6,34 L6,32 L21,31 L19,33 L28,36 L31,35 L27,32 L28,30 L30,30 L30,28 L35,27 L31,25 L24,24 L9,25 L8,26 L2,25 L0,23 L0,25 Z M-19,47 Z M-27,55 Z " fill="#E8EBE9" transform="translate(242,191)"/>
<path d="M0,0 L19,1 L25,3 L25,1 L43,0 L58,1 L55,3 L57,4 L56,8 L55,10 L82,13 L87,15 L88,35 L83,39 L80,39 L78,33 L76,33 L73,26 L73,29 L64,27 L61,28 L61,23 L63,22 L61,20 L60,23 L59,37 L58,41 L39,40 L34,35 L32,30 L33,24 L34,22 L32,17 L22,16 L17,18 L14,23 L13,35 L8,39 L-10,41 L-12,41 L-14,20 L-16,20 L-25,25 L-29,35 L-31,35 L-31,37 L-35,36 L-39,31 L-38,15 L-20,11 L-4,10 L20,9 L49,9 L47,8 L-11,8 L-12,5 L-8,1 Z " fill="#F5F5F5" transform="translate(148,156)"/>
<path d="M0,0 L8,1 L12,5 L13,11 L11,11 L12,19 L17,24 L19,25 L32,27 L34,27 L38,26 L40,24 L43,30 L36,33 L32,38 L30,38 L30,40 L21,46 L14,49 L10,47 L8,51 L3,54 L-2,55 L-2,53 L-9,50 L-9,49 L3,50 L2,49 L-8,48 L-18,43 L-23,43 L-24,38 L-24,32 L-26,31 L-24,27 L-14,25 L-13,22 L-10,20 L-9,8 L-6,3 L-4,1 Z M13,45 L14,47 L19,46 L19,45 Z " fill="#E1E2E3" transform="translate(170,171)"/>
<path d="M0,0 L12,1 L17,4 L18,9 L15,17 L32,21 L38,24 L38,30 L30,36 L27,36 L30,41 L35,45 L38,52 L29,55 L21,55 L20,54 L7,53 L1,55 L0,61 L-3,66 L-6,67 L-20,60 L-24,58 L-24,52 L-28,51 L-32,52 L-33,56 L-39,59 L-45,58 L-46,56 L-38,56 L-33,51 L-31,49 L-24,49 L-15,54 L-5,54 L-5,52 L-2,52 L-2,50 L2,48 L3,46 L12,47 L17,48 L28,50 L27,45 L21,41 L18,41 L15,36 L15,34 L22,31 L26,29 L21,27 L10,25 L3,23 L3,18 L7,16 L8,13 L10,13 L8,9 L0,9 L-13,11 L-12,9 L-17,8 L-13,4 L-11,5 L-11,7 L-9,7 L-9,5 L-2,3 L-2,1 Z " fill="#ABAFB1" transform="translate(289,186)"/>
<path d="M0,0 L14,0 L16,2 L11,4 L11,7 L16,7 L18,6 L19,8 L29,11 L29,12 L22,12 L12,10 L3,10 L7,12 L9,18 L8,23 L-1,25 L-8,26 L-11,27 L-10,30 L-3,33 L-2,37 L-10,44 L-12,44 L-13,48 L0,45 L5,45 L5,43 L11,42 L12,45 L14,46 L16,55 L27,53 L29,58 L33,56 L41,57 L45,62 L43,66 L40,66 L42,64 L41,60 L40,59 L32,59 L19,66 L15,64 L13,60 L9,52 L9,50 L-1,51 L-6,52 L-18,52 L-24,50 L-23,45 L-21,45 L-20,42 L-18,41 L-18,34 L-21,33 L-26,28 L-26,25 L-24,25 L-23,22 L-13,18 L-5,16 L-6,5 L-5,7 L-3,7 L-4,2 Z " fill="#AAAFB1" transform="translate(49,186)"/>
<path d="M0,0 L2,0 L2,2 L5,2 L12,13 L20,28 L26,37 L34,50 L39,60 L39,63 L41,63 L47,73 L52,81 L52,83 L54,84 L50,88 L49,84 L43,83 L43,81 L39,80 L33,69 L31,62 L25,61 L23,53 L19,49 L15,48 L14,39 L10,32 L7,30 L1,29 L3,26 L7,26 L6,21 L3,18 L-3,5 L0,3 Z " fill="#C7C9CC" transform="translate(194,77)"/>
<path d="M0,0 L2,1 L1,4 L3,4 L5,10 L9,11 L10,14 L6,19 L5,23 L3,23 L2,26 L2,24 L0,24 L1,30 L-1,32 L-1,23 L0,10 L-4,8 L-5,11 L-11,15 L-14,15 L-16,19 L-23,25 L-23,23 L-25,23 L-25,25 L-29,23 L-39,24 L-41,23 L-39,19 L-36,17 L-39,13 L-45,14 L-55,18 L-59,21 L-63,22 L-63,19 L-65,19 L-66,9 L-69,4 L-66,5 L-63,9 L-56,10 L-53,10 L-53,8 L-47,6 L-45,5 L-41,4 L-36,5 L-29,10 L-26,13 L-14,7 L-4,3 Z " fill="#B7BBBC" transform="translate(161,231)"/>
<path d="M0,0 L14,0 L14,17 L10,27 L5,35 L10,37 L8,39 L3,40 L3,42 L1,42 L-6,34 L-13,28 L-13,26 L-15,25 L-15,22 L-18,23 L-22,19 L-27,19 L-28,30 L-29,28 L-31,28 L-28,16 L-29,13 L-27,13 L-27,11 L-18,8 L-5,1 Z M-1,7 L-11,11 L-14,13 L-13,18 L-7,26 L-3,29 L2,28 L8,19 L9,11 L6,8 Z " fill="#91959A" transform="translate(277,151)"/>
<path d="M0,0 L8,1 L11,6 L13,14 L16,13 L18,19 L17,21 L14,21 L13,30 L10,36 L3,38 L-4,35 L-7,29 L-8,25 L-8,13 L-5,5 Z " fill="#F0F0F0" transform="translate(233,278)"/>
<path d="M0,0 L5,2 L5,8 L-1,10 L-3,13 L1,17 L15,24 L28,26 L36,20 L38,19 L45,19 L50,21 L54,26 L55,32 L52,39 L42,44 L26,44 L24,40 L37,41 L43,39 L48,36 L50,36 L49,28 L43,23 L42,27 L40,27 L40,25 L33,29 L26,32 L16,30 L-8,19 L-12,17 L-12,15 L-10,14 L-20,7 L-17,7 L-11,8 L-5,6 L-4,2 Z " fill="#BFC1C4" transform="translate(261,236)"/>
<path d="M0,0 L3,2 L7,5 L23,13 L43,22 L54,23 L62,20 L67,16 L67,18 L71,15 L71,17 L73,17 L75,23 L73,27 L66,31 L55,31 L34,24 L10,13 L4,14 L-3,8 L-3,6 L-7,2 Z " fill="#F5F5F5" transform="translate(234,245)"/>
<path d="M0,0 L7,0 L6,4 L-18,15 L-30,21 L-45,27 L-54,30 L-61,31 L-70,29 L-76,24 L-75,17 L-71,16 L-60,18 L-60,20 L-58,21 L-59,22 L-49,23 L-36,18 L-21,10 Z " fill="#F5F5F5" transform="translate(115,246)"/>
<path d="M0,0 Z M-3,1 L0,1 L0,3 L2,4 L0,4 L0,6 L-16,14 L-26,18 L-28,18 L-28,20 L-46,28 L-61,33 L-74,31 L-74,29 L-81,27 L-85,19 L-85,14 L-83,16 L-80,22 L-77,22 L-74,25 L-67,27 L-57,26 L-43,20 L-32,16 L-16,8 Z " fill="#BFC1C4" transform="translate(120,251)"/>
<path d="M0,0 L4,1 L6,5 L6,8 L8,8 L10,14 L15,13 L15,20 L10,25 L4,25 L4,27 L-2,27 L-8,16 L-8,11 L-9,10 L-9,4 L-6,1 L2,3 L2,1 Z " fill="#D6D7D9" transform="translate(218,181)"/>
<path d="M0,0 L7,1 L5,3 L8,9 L8,17 L4,22 L1,24 L-6,23 L-11,20 L-13,11 L-11,5 L-13,4 Z " fill="#C4C6C9" transform="translate(194,276)"/>
<path d="M0,0 L11,0 L14,3 L14,5 L17,6 L20,12 L22,22 L21,35 L18,39 L19,32 L20,26 L18,25 L17,20 L14,20 L14,25 L13,25 L11,12 L9,7 L1,7 L-5,11 L-7,15 L-8,23 L-10,23 L-11,19 L-13,20 L-13,11 L-9,4 Z " fill="#8F9398" transform="translate(232,272)"/>
<path d="M0,0 L4,1 L8,4 L10,4 L14,11 L24,20 L23,23 L21,24 L12,24 L2,20 L-4,15 L-4,8 L-2,1 Z " fill="#EDEDEF" transform="translate(252,169)"/>
<path d="M0,0 L7,1 L13,4 L14,7 L16,7 L17,12 L15,18 L9,21 L-1,20 L-5,15 L-6,8 L-4,6 L-5,4 Z " fill="#C7C9CC" transform="translate(143,297)"/>
<path d="M0,0 L7,1 L10,4 L9,12 L2,22 L-3,21 L-9,16 L-13,9 L-12,5 L-4,1 Z " fill="#F8F9F9" transform="translate(276,158)"/>
<path d="M0,0 L10,2 L16,5 L17,10 L13,16 L5,24 L0,19 L-4,13 L-5,6 L-3,1 Z " fill="#F8F9F9" transform="translate(68,157)"/>
<path d="M0,0 L3,4 L4,12 L-1,21 L-10,26 L-19,25 L-21,20 L-18,17 L-13,12 L-2,1 Z " fill="#F7F7F8" transform="translate(96,167)"/>
<path d="M0,0 L14,0 L19,9 L19,11 L-7,11 L-7,14 L-19,14 L-19,10 L-17,10 L-17,8 L-13,7 L-11,7 L-8,3 L-6,1 Z " fill="#E4E5E6" transform="translate(136,129)"/>
<path d="M0,0 L5,1 L8,5 L9,18 L-5,26 L-18,32 L-29,33 L-30,30 L-39,28 L-40,27 L-50,26 L-49,23 L-42,22 L-38,26 L-30,28 L-25,30 L-19,29 L-10,23 L4,16 L5,12 L2,9 L-6,8 L-11,10 L-12,6 L-4,1 Z " fill="#FAFAFA" transform="translate(88,235)"/>
<path d="M0,0 L5,1 L10,6 L10,14 L2,18 L-3,17 L-4,19 L9,22 L10,28 L5,24 L0,22 L-6,22 L-7,18 L-9,18 L-9,15 L-11,15 L-12,9 L-9,9 L-7,4 Z " fill="#A5A8AD" transform="translate(148,276)"/>
<path d="M0,0 Z M13,0 L18,2 L19,5 L22,6 L21,8 L18,8 L20,13 L15,18 L12,13 L12,11 L8,10 L6,14 L10,17 L9,19 L6,17 L0,18 L0,16 L-4,15 L-5,9 L-5,8 L-7,7 L-4,2 L0,1 L4,2 L8,1 L12,2 Z " fill="#C3C5C7" transform="translate(170,226)"/>
<path d="M0,0 L2,0 L4,4 L4,21 L2,27 L-2,28 L-2,23 L-8,23 L-8,21 L-10,20 L-10,17 L-15,16 L-13,12 L-9,12 L-9,7 L-3,3 Z " fill="#F1F1F1" transform="translate(130,179)"/>
<path d="M0,0 L2,0 L2,46 L-3,45 L-3,15 L-7,13 L-14,11 L-13,7 L-4,3 Z " fill="#EEEEEF" transform="translate(116,274)"/>
<path d="M0,0 L2,0 L2,5 L13,4 L17,2 L35,2 L38,4 L37,5 L25,6 L23,4 L23,6 L21,7 L11,8 L0,12 L-2,17 L-4,17 L-4,19 L-6,21 L-6,22 L-11,22 L-10,16 L-2,2 Z " fill="#F2F2F3" transform="translate(114,139)"/>
<path d="M0,0 L9,1 L13,4 L28,11 L26,18 L24,18 L23,20 L15,16 L6,9 L6,7 L3,7 L0,2 Z " fill="#B6BABC" transform="translate(188,234)"/>
<path d="M0,0 L2,0 L1,9 L-2,17 L-6,19 L-9,23 L-26,20 L-30,12 L-31,6 L-29,4 L-26,2 L-23,14 L-16,19 L-9,18 L-5,10 L-3,1 Z " fill="#FAFAFA" transform="translate(250,298)"/>
<path d="M0,0 L1,2 L7,1 L12,0 L24,0 L26,2 L11,4 L9,7 L12,8 L12,14 L11,16 L9,16 L9,13 L6,12 L4,8 L2,9 L0,15 L-10,16 L-12,14 L-11,12 L-9,12 L-8,8 L-14,8 L-13,6 L-7,7 L-7,12 L-3,11 L-2,5 L0,5 Z " fill="#686E71" transform="translate(135,195)"/>
<path d="M0,0 L4,1 L9,4 L13,5 L28,6 L37,9 L37,11 L35,12 L28,12 L28,14 L24,15 L22,11 L22,8 L17,10 L11,9 L-1,9 L-2,4 Z " fill="#F8F8F8" transform="translate(81,211)"/>
<path d="M0,0 L12,0 L33,1 L31,2 L31,5 L34,4 L34,6 L40,7 L42,11 L33,7 L0,5 L-5,3 L-2,1 Z " fill="#585E66" transform="translate(175,119)"/>
<path d="M0,0 L3,2 L1,2 L0,6 L3,7 L1,8 L2,10 L-11,13 L-11,14 L-23,15 L-27,12 L-15,6 L-2,5 Z " fill="#7F8887" transform="translate(236,214)"/>
<path d="M0,0 L7,1 L16,5 L16,7 L13,8 L7,5 L3,5 L12,10 L8,11 L6,12 L1,13 L6,17 L3,18 L-3,15 L-2,11 L-1,10 L-4,9 L-9,13 L-12,12 L-5,5 L-5,2 L0,1 Z M-4,3 Z " fill="#6C7176" transform="translate(227,235)"/>
<path d="M0,0 L5,0 L8,6 L2,9 L-1,8 L3,7 L4,3 L-5,5 L-32,18 L-48,26 L-58,27 L-64,25 L-63,22 L-60,22 L-59,24 L-48,23 L-31,15 L-22,10 L-20,6 L-19,9 L-14,7 L-14,5 L-6,3 Z " fill="#3F4346" transform="translate(118,243)"/>
<path d="M0,0 L1,4 L10,3 L25,1 L30,1 L27,6 L24,6 L25,4 L6,6 L2,6 L0,12 L-2,12 L-3,16 L-8,15 L-11,5 L-4,4 L0,2 Z " fill="#888C92" transform="translate(110,156)"/>
<path d="M0,0 L5,2 L2,5 L5,8 L13,13 L18,17 L14,18 L10,15 L10,13 L3,13 L-3,11 L-9,15 L-17,9 L-15,8 L-12,10 L-9,9 L-8,5 L-2,2 Z " fill="#9EA1A5" transform="translate(223,243)"/>
<path d="M0,0 L3,1 L2,3 L6,6 L-10,9 L-24,11 L-22,5 L-21,3 L-17,2 L-4,1 Z " fill="#FAFAFA" transform="translate(133,159)"/>
<path d="M0,0 L2,2 L2,8 L8,9 L9,13 L4,11 L-5,9 L-24,7 L-30,5 L-27,2 L-9,2 L-3,4 L-2,7 L1,8 Z " fill="#696F76" transform="translate(217,130)"/>
<path d="M0,0 L3,1 L-14,10 L-30,18 L-45,23 L-55,27 L-65,26 L-71,23 L-70,21 L-66,23 L-58,24 L-47,21 L-34,16 L-20,10 L-4,2 Z " fill="#404446" transform="translate(114,252)"/>
<path d="M0,0 L6,1 L21,9 L39,15 L45,18 L45,21 L36,18 L26,15 L14,10 L10,8 L8,5 L0,3 L-2,1 Z " fill="#F8F8F8" transform="translate(241,259)"/>
<path d="M0,0 L5,1 L8,4 L9,13 L10,17 L12,19 L8,24 L6,26 L6,24 L2,23 L0,25 L-7,24 L-6,22 L1,19 L4,15 L4,7 L2,1 Z " fill="#FAFAFA" transform="translate(197,278)"/>
<path d="M0,0 L5,2 L12,18 L12,24 L13,28 L15,29 L-1,28 L-2,26 L-1,23 L8,21 L10,21 L5,8 L4,4 L2,5 L1,8 L-1,8 L-1,10 L-8,13 L-6,8 L-1,6 Z " fill="#50575F" transform="translate(172,51)"/>
<path d="M0,0 L4,2 L5,5 L4,7 L-2,8 L-38,8 L-38,10 L-29,9 L4,10 L9,15 L-2,12 L-24,12 L-39,11 L-39,9 L-42,8 L-39,6 L1,5 Z " fill="#333F41" transform="translate(197,96)"/>
<path d="M0,0 L2,0 L2,2 L4,2 L5,8 L10,13 L11,17 L8,20 L13,29 L13,31 L15,32 L12,33 L5,20 L3,16 L1,16 L-1,12 Z " fill="#A9ADB0" transform="translate(184,63)"/>
<path d="M0,0 L10,4 L21,6 L17,7 L11,6 L11,8 L17,8 L18,12 L7,16 L2,17 L6,14 L2,14 L1,8 L3,8 L5,4 L-1,2 Z " fill="#71767C" transform="translate(254,188)"/>
<path d="M0,0 L5,1 L8,2 L9,5 L3,3 L4,6 L2,7 L2,11 L14,11 L10,13 L5,14 L4,17 L-2,19 L-4,17 L-4,12 L-10,10 L-10,7 L1,4 Z " fill="#697273" transform="translate(78,208)"/>
<path d="M0,0 L4,0 L7,6 L9,5 L9,7 L13,7 L13,5 L22,3 L20,7 L16,9 L8,10 L3,6 L3,4 L-2,5 L-3,7 L-5,7 L-6,10 L-12,14 L-13,16 L-24,20 L-27,19 L-18,15 L-11,10 L-12,8 L-9,7 L-7,3 L-6,6 L-1,1 Z " fill="#495356" transform="translate(209,201)"/>
<path d="M0,0 L20,1 L27,4 L28,8 L14,6 L-3,5 L-3,1 Z " fill="#656B72" transform="translate(177,143)"/>
<path d="M0,0 L44,0 L48,3 L4,3 L0,2 Z " fill="#1A222C" transform="translate(151,163)"/>
<path d="M0,0 L3,4 L4,7 L-1,12 L-3,16 L-8,18 L-23,14 L-25,8 L-23,7 L-18,12 L-11,13 L-5,11 L-1,4 Z " fill="#FAFAFA" transform="translate(202,304)"/>
<path d="M0,0 L2,2 L9,3 L9,2 L20,1 L23,3 L13,5 L5,9 L-4,10 L-6,8 L-6,4 L-5,2 L0,2 Z " fill="#A3A6AA" transform="translate(242,214)"/>
<path d="M0,0 L6,0 L6,2 L12,4 L34,14 L44,16 L51,13 L55,10 L57,10 L56,13 L49,17 L39,18 L30,15 L12,7 L0,1 Z " fill="#3E4244" transform="translate(243,251)"/>
<path d="M0,0 L5,0 L6,1 L6,50 L-1,49 L-1,21 L0,21 L0,47 L4,47 L4,5 L5,2 L-2,6 Z " fill="#202934" transform="translate(113,272)"/>
<path d="M0,0 L6,1 L4,3 L12,4 L15,7 L15,11 L13,11 L13,39 L11,35 L11,7 L4,6 L0,2 Z " fill="#61615E" transform="translate(99,282)"/>
<path d="M0,0 L9,1 L23,10 L24,12 L13,12 L7,9 L9,6 L0,1 Z " fill="#CDCECF" transform="translate(228,239)"/>
<path d="M0,0 L4,2 L7,8 L10,11 L9,18 L7,18 L6,21 L1,8 L-3,4 Z " fill="#B8BBBE" transform="translate(178,235)"/>
<path d="M0,0 L31,0 L31,3 L-5,3 L-5,1 Z M32,0 Z " fill="#F7F8F7" transform="translate(164,103)"/>
<path d="M0,0 L5,2 L3,3 L-4,4 L-5,6 L5,6 L6,8 L-2,8 L-3,15 L0,18 L-4,18 L-7,12 L-6,20 L-10,16 L-9,5 L-2,1 Z " fill="#42474D" transform="translate(43,255)"/>
<path d="M0,0 L3,2 L4,17 L5,20 L3,26 L2,26 L1,9 L0,5 L-6,10 L-8,12 L-10,12 L-11,19 L-13,17 L-12,11 L-9,6 L-2,2 L0,2 Z " fill="#434A52" transform="translate(132,174)"/>
<path d="M0,0 L15,0 L19,1 L19,3 L21,3 L21,5 L23,5 L23,20 L22,26 L18,27 L20,22 L20,4 L4,2 Z " fill="#373C3F" transform="translate(215,167)"/>
<path d="M0,0 L6,0 L6,1 L0,2 Z M-3,2 L0,3 L-1,5 L2,6 L0,11 L2,14 L-3,13 L-7,12 L-14,13 L-13,9 L-6,6 Z " fill="#858B8E" transform="translate(183,216)"/>
<path d="M0,0 L9,0 L9,2 L15,4 L13,9 L10,10 L8,7 L8,11 L8,14 L6,15 L2,4 Z " fill="#8F9597" transform="translate(244,188)"/>
<path d="M0,0 L8,0 L16,7 L12,8 L6,7 L-4,6 L-13,4 L-13,2 L-6,2 L6,4 L7,2 L0,1 Z " fill="#4F5A5B" transform="translate(122,221)"/>
<path d="M0,0 L2,0 L2,3 L6,4 L5,8 L-2,16 L-6,17 L-6,13 L-4,12 L-5,8 L0,6 Z " fill="#909798" transform="translate(237,187)"/>
<path d="M0,0 L2,0 L2,5 L6,9 L-3,7 L-6,5 L-4,4 L-19,5 L-20,7 L-23,7 L-24,10 L-26,9 L-25,7 L-29,6 L-24,6 L-23,3 L-23,5 L-17,2 L-4,1 Z " fill="#414A50" transform="translate(267,218)"/>
<path d="M0,0 L9,1 L10,6 L6,7 L-12,7 L-10,5 L-4,3 L-9,2 L-9,1 Z " fill="#545A62" transform="translate(144,123)"/>
<path d="M0,0 L6,2 L31,13 L47,18 L43,20 L27,14 L16,10 L3,3 L-1,1 Z " fill="#3F4345" transform="translate(242,257)"/>
<path d="M0,0 L1,2 L4,3 L0,4 L1,10 L0,16 L3,17 L1,17 L0,22 L-5,23 L-6,26 L-7,24 L-20,22 L-20,21 L-4,21 L-3,18 L-2,4 Z " fill="#3F4346" transform="translate(209,175)"/>
<path d="M0,0 L1,3 L-7,18 L7,19 L8,23 L-12,26 L-14,27 L-12,23 L3,21 L-9,19 L-7,13 Z " fill="#222A31" transform="translate(162,67)"/>
<path d="M0,0 L1,0 L1,48 L0,48 L-1,41 L-1,4 Z " fill="#BBCAB9" transform="translate(119,274)"/>
<path d="M0,0 L2,1 L1,5 L7,6 L19,6 L30,4 L34,5 L39,15 L37,16 L33,8 L31,7 L22,8 L15,9 L6,9 L0,7 L-1,1 Z " fill="#19222D" transform="translate(24,231)"/>
<path d="M0,0 L1,0 L1,5 L3,6 L1,6 L1,10 L11,10 L11,11 L0,11 L0,6 L-5,11 L-13,27 L-18,29 L-19,27 L-16,26 L-8,11 L-2,3 Z " fill="#222A34" transform="translate(116,133)"/>
<path d="M0,0 L0,3 L-2,10 L-2,22 L1,31 L8,34 L14,33 L13,36 L6,37 L-2,31 L-5,19 L-4,6 Z " fill="#1C252F" transform="translate(228,281)"/>
<path d="M0,0 L28,0 L32,2 L25,3 L14,3 L14,5 L-4,3 L-3,1 Z " fill="#3E4245" transform="translate(159,154)"/>
<path d="M0,0 L12,0 L16,2 L-11,4 L-26,7 L-29,6 L-16,3 Z " fill="#121B25" transform="translate(139,164)"/>
<path d="M0,0 L27,0 L27,4 L17,6 L6,6 L8,5 L8,3 L14,4 L22,3 L20,2 L0,2 Z " fill="#161F29" transform="translate(129,140)"/>
<path d="M0,0 L1,0 L2,13 L-1,15 L-1,21 L-3,19 L-4,7 L-3,3 Z " fill="#85898F" transform="translate(221,289)"/>
<path d="M0,0 L4,2 L7,5 L7,13 L-1,18 L-12,19 L-15,17 L-4,16 L1,13 L3,11 L4,7 L3,3 L1,3 Z " fill="#3F4347" transform="translate(304,259)"/>
<path d="M0,0 L3,3 L-1,6 L0,8 L-2,10 L0,11 L-3,14 L-3,12 L-7,13 L-6,9 L-12,13 L-15,12 L-9,8 L-9,6 L-2,2 L0,2 Z " fill="#495356" transform="translate(167,223)"/>
<path d="M0,0 L8,1 L17,5 L18,3 L21,4 L34,4 L40,1 L42,2 L36,6 L23,7 L14,6 L7,3 L0,1 Z " fill="#141D27" transform="translate(269,275)"/>
<path d="M0,0 L9,1 L11,3 L6,4 L6,6 L3,5 L3,3 L-3,5 L-12,5 L-9,2 L-1,1 Z M2,5 Z " fill="#ECEDED" transform="translate(266,215)"/>
<path d="M0,0 L2,2 L2,19 L5,24 L1,22 L-2,16 L-1,5 L-3,4 L-1,4 Z " fill="#5F656E" transform="translate(108,168)"/>
<path d="M0,0 L8,5 L8,10 L-6,9 L-11,7 L-17,6 L-17,4 L-9,5 L0,7 L4,7 L3,4 L0,2 Z " fill="#2E393E" transform="translate(309,226)"/>
<path d="M0,0 L4,4 L8,12 L11,16 L10,19 L9,17 L6,16 L1,11 L1,5 L-1,4 L1,4 Z " fill="#73787F" transform="translate(187,60)"/>
</svg>
