<?xml version="1.0" encoding="UTF-8"?>
<!-- Generator: visioncortex VTracer 0.6.12 -->
<svg xmlns:xlink="http://www.w3.org/1999/xlink" xmlns:sodipodi="http://sodipodi.sourceforge.net/DTD/sodipodi-0.0.dtd" xmlns:inkscape="http://www.inkscape.org/namespaces/inkscape" version="1.1" xmlns="http://www.w3.org/2000/svg" width="372" height="344">
<path d="M0,0 L372,0 L372,344 L0,344 Z M41,25 L31,29 L27,36 L29,28 L25,32 L24,37 L26,41 L26,53 L32,60 L42,66 L40,69 L42,70 L44,73 L45,70 L44,67 L48,68 L46,75 L51,89 L55,100 L58,111 L56,112 L58,116 L60,113 L62,121 L58,123 L61,123 L61,125 L59,125 L58,131 L61,135 L70,138 L76,139 L78,139 L78,141 L70,139 L68,138 L58,138 L55,143 L55,151 L52,157 L50,159 L51,164 L51,168 L49,163 L48,163 L48,168 L51,172 L51,170 L54,173 L50,175 L49,179 L49,187 L52,191 L63,191 L63,193 L57,193 L58,201 L59,201 L59,195 L63,203 L69,205 L61,204 L65,208 L75,211 L77,216 L79,214 L87,219 L87,221 L94,221 L95,228 L98,237 L102,249 L105,252 L104,257 L107,264 L109,263 L111,269 L110,272 L113,280 L115,279 L115,274 L118,284 L117,292 L119,292 L119,300 L122,307 L125,305 L127,313 L129,316 L127,317 L128,319 L132,318 L133,316 L132,315 L134,312 L136,316 L137,312 L132,296 L123,271 L116,250 L115,243 L119,237 L123,232 L134,225 L138,224 L151,224 L160,226 L173,226 L182,223 L192,216 L200,208 L207,199 L217,192 L234,185 L250,182 L274,180 L284,176 L285,172 L283,166 L267,156 L257,150 L243,144 L237,143 L236,138 L241,136 L250,130 L255,125 L256,122 L260,121 L272,113 L268,112 L266,113 L267,108 L270,108 L271,111 L272,107 L261,102 L249,98 L230,91 L210,84 L189,74 L185,71 L180,70 L175,66 L175,63 L167,57 L155,51 L137,49 L120,49 L107,50 L91,54 L89,55 L79,55 L77,54 L77,52 L80,51 L78,51 L76,47 L74,44 L68,44 L68,46 L65,45 L61,32 L55,28 L47,25 Z M282,115 L268,122 L262,127 L263,131 L257,134 L254,134 L254,137 L258,140 L254,139 L256,143 L272,152 L289,161 L298,165 L304,165 L307,162 L306,160 L313,158 L315,159 L325,154 L335,146 L340,139 L338,136 L336,138 L336,135 L339,132 L314,128 L303,124 L289,116 Z M132,233 L128,236 L118,240 L116,242 L117,249 L123,252 L124,263 L130,266 L128,270 L130,279 L136,281 L139,288 L142,292 L151,294 L155,297 L160,292 L161,289 L158,282 L153,281 L146,279 L147,275 L151,274 L153,275 L154,269 L150,262 L148,261 L149,251 L145,250 L145,248 L143,247 L141,243 L141,248 L139,248 L138,240 L140,240 L141,242 L142,238 L141,234 Z " fill="#F8F8F8" transform="translate(0,0)"/>
<path d="M0,0 L31,0 L48,3 L59,9 L71,18 L72,21 L80,25 L89,30 L100,34 L125,44 L146,51 L159,57 L158,62 L164,61 L160,65 L151,71 L148,71 L146,75 L140,78 L129,84 L129,86 L123,89 L126,92 L140,98 L148,101 L167,113 L171,115 L174,116 L175,123 L166,126 L160,127 L137,129 L124,132 L123,135 L107,142 L98,149 L89,160 L85,164 L82,165 L70,170 L61,173 L30,173 L22,176 L17,177 L15,179 L13,178 L12,181 L8,181 L8,183 L6,183 L5,177 L6,171 L9,167 L11,161 L12,145 L12,122 L10,107 L8,106 L7,102 L7,84 L5,73 L3,69 L2,59 L-6,43 L-10,41 L-13,37 L-16,32 L-18,23 L-18,9 L-17,6 L-12,4 L-9,2 L-1,1 Z M36,15 L32,17 L34,17 L34,19 L28,19 L22,29 L22,38 L25,39 L29,44 L39,48 L41,48 L40,52 L30,56 L27,60 L30,64 L31,62 L30,60 L43,53 L43,47 L41,42 L46,38 L50,34 L47,40 L48,49 L57,48 L54,46 L49,45 L53,38 L54,28 L49,20 L46,17 Z M63,45 L63,49 L54,55 L53,63 L61,80 L69,100 L73,107 L74,104 L70,92 L57,62 L55,56 L61,54 L67,51 L66,46 Z M45,62 L43,64 L47,69 L51,82 L55,90 L59,101 L65,115 L65,117 L57,116 L43,109 L36,100 L36,96 L38,94 L36,94 L36,88 L24,85 L18,86 L18,95 L19,103 L20,113 L24,111 L23,109 L22,105 L28,107 L33,110 L37,118 L39,122 L54,133 L62,137 L79,140 L83,140 L87,133 L92,123 L96,112 L98,99 L98,84 L105,84 L105,78 L104,78 L104,83 L101,83 L100,73 L95,68 L90,69 L86,73 L86,79 L81,81 L80,79 L79,82 L87,82 L86,90 L82,102 L80,109 L73,109 L72,112 L66,114 L65,107 L62,99 L59,92 L52,73 L46,62 Z " fill="#F3F1EC" transform="translate(108,51)"/>
<path d="M0,0 L7,6 L10,11 L15,21 L20,35 L23,56 L24,69 L27,85 L28,99 L28,115 L25,129 L20,145 L18,146 L15,139 L12,130 L6,112 L3,104 L-2,87 L-3,90 L-7,81 L-6,78 L-8,73 L-9,77 L-12,76 L-13,69 L-12,67 L-12,55 L-7,49 L-6,45 L-4,45 L-4,42 L-6,42 L-5,37 L-8,36 L-4,27 L-3,25 L-4,22 L0,19 L-1,17 L1,17 L-2,8 L-3,7 L-3,2 Z " fill="#EDEDF0" transform="translate(91,85)"/>
<path d="M0,0 L5,1 L18,9 L29,13 L46,16 L53,18 L53,22 L56,19 L57,23 L49,32 L35,41 L30,42 L27,42 L22,43 L21,46 L17,47 L-2,37 L-11,32 L-16,31 L-16,29 L-24,25 L-29,20 L-29,17 L-26,17 L-20,14 L-18,10 L-9,5 Z " fill="#EFEDE7" transform="translate(283,117)"/>
<path d="M0,0 L6,1 L9,5 L10,14 L6,15 L4,36 L1,48 L-3,56 L-7,66 L-9,69 L-19,69 L-32,65 L-44,58 L-50,53 L-53,53 L-56,45 L-61,40 L-67,37 L-67,35 L-69,35 L-70,23 L-67,22 L-60,22 L-57,23 L-56,33 L-56,35 L-50,42 L-37,50 L-27,53 L-26,50 L-24,50 L-23,46 L-19,44 L-18,41 L-11,42 L-5,32 L-3,25 L-3,15 L-5,5 Z " fill="#F8F8F9" transform="translate(199,119)"/>
<path d="M0,0 L12,0 L14,11 L14,19 L12,19 L11,24 L7,27 L16,30 L20,28 L19,31 L17,32 L5,32 L-1,30 L-1,28 L-5,26 L-8,20 L-8,8 L-4,3 Z " fill="#F9F6EB" transform="translate(36,29)"/>
<path d="M0,0 L2,0 L4,4 L4,11 L6,11 L12,30 L19,51 L23,63 L29,68 L28,71 L33,71 L30,81 L29,84 L27,80 L27,76 L25,80 L23,73 L21,73 L20,79 L18,76 L17,70 L17,66 L14,55 L10,43 L6,30 L2,19 L0,13 L-2,13 L-2,2 Z " fill="#EDE6CA" transform="translate(83,166)"/>
<path d="M0,0 L5,0 L1,2 L2,4 L-7,5 L-7,22 L-4,33 L-1,36 L-4,37 L-6,34 L-10,34 L-11,39 L-15,41 L-30,41 L-31,37 L-25,37 L-31,36 L-31,35 L-16,34 L-14,28 L-19,26 L-21,25 L-23,26 L-31,26 L-30,22 L-15,17 L-14,12 L-15,12 L-15,6 L-23,5 L-22,2 L-19,3 L-9,3 Z " fill="#ACA8A5" transform="translate(98,52)"/>
<path d="M0,0 L3,3 L4,13 L4,17 L6,8 L7,12 L16,11 L16,9 L18,9 L22,14 L22,16 L24,17 L21,17 L21,19 L19,19 L19,22 L24,22 L24,25 L18,27 L16,31 L11,36 L9,34 L8,39 L7,39 L6,32 L-3,26 L1,24 L1,19 L-1,18 L0,15 Z " fill="#E2DFD5" transform="translate(56,35)"/>
<path d="M0,0 L2,4 L2,8 L4,8 L4,3 L6,7 L8,8 L8,10 L12,11 L12,17 L10,21 L13,22 L17,29 L16,35 L14,34 L10,35 L9,37 L8,34 L10,34 L9,31 L9,29 L8,27 L-1,28 L-5,35 L-3,35 L-3,37 L0,38 L-1,41 L-7,39 L-9,30 L-7,26 L-13,23 L-14,11 L-12,11 L-11,23 L-3,23 L-3,21 L3,17 L3,16 L-7,15 L-7,14 L-2,13 L-1,6 L-2,3 Z " fill="#A39F9E" transform="translate(137,240)"/>
<path d="M0,0 L2,0 L7,10 L7,16 L5,20 L0,22 L0,24 L-7,26 L-16,25 L-19,22 L-22,16 L-22,22 L-23,22 L-24,14 L-18,14 L-18,11 L2,12 L0,4 Z " fill="#B7B4B1" transform="translate(81,179)"/>
<path d="M0,0 L1,3 L2,8 L5,14 L6,17 L8,17 L13,31 L14,37 L12,37 L13,43 L10,42 L8,38 L6,37 L5,35 L4,40 L1,36 L0,29 L1,28 L-2,20 L-5,16 L-1,15 L-4,4 L-2,4 Z " fill="#B1AB9D" transform="translate(110,240)"/>
<path d="M0,0 L6,0 L5,2 L3,1 L5,5 L6,13 L5,15 L-2,18 L-18,18 L-21,18 L-23,16 L-23,10 L-20,7 L-21,13 L-17,7 L-6,7 L-6,5 L3,6 Z " fill="#DAD7D0" transform="translate(73,170)"/>
<path d="M0,0 L2,0 L6,5 L6,7 L8,7 L12,23 L13,32 L15,32 L13,36 L11,39 L8,39 L3,23 L-2,11 L-3,5 Z " fill="#BFB9A8" transform="translate(49,68)"/>
<path d="M0,0 L3,1 L3,5 L5,5 L5,7 L8,8 L5,8 L5,14 L7,15 L6,17 L13,16 L17,17 L17,19 L26,18 L24,24 L26,24 L26,27 L23,28 L22,30 L20,30 L18,25 L7,23 L0,22 L0,20 L-3,19 L1,18 L-1,10 L-4,13 L-5,8 L-3,8 L-3,1 L-1,3 Z " fill="#A7A29A" transform="translate(61,103)"/>
<path d="M0,0 L10,0 L14,2 L14,4 L20,4 L19,10 L17,13 L-2,14 L-3,5 Z " fill="#E2DEC9" transform="translate(58,138)"/>
<path d="M0,0 L9,0 L20,2 L24,10 L21,13 L13,14 L4,10 L1,10 L-1,4 Z " fill="#DBD7CF" transform="translate(59,125)"/>
<path d="M0,0 L3,2 L1,3 L1,8 L3,10 L4,20 L0,24 L1,29 L-3,33 L-4,26 L-22,25 L-24,24 L-26,9 L-24,11 L-21,21 L-23,21 L-23,23 L-15,20 L-12,18 L-2,17 L0,16 L-1,10 L-5,8 L-1,7 L-2,3 Z " fill="#636072" transform="translate(88,84)"/>
<path d="M0,0 L6,0 L10,2 L12,1 L12,9 L6,13 L-7,13 L-10,10 L-9,3 L-8,2 L0,1 Z " fill="#E8E3D1" transform="translate(63,158)"/>
<path d="M0,0 L5,2 L10,6 L10,13 L12,13 L11,19 L10,24 L13,27 L13,38 L11,37 L10,35 L9,39 L7,34 L6,24 L1,9 L-2,1 Z " fill="#F6F6F6" transform="translate(53,61)"/>
<path d="M0,0 L16,1 L18,5 L17,9 L15,10 L5,11 L1,14 L-6,15 L-5,12 L-6,7 L-2,8 L-3,2 Z " fill="#F3F1E5" transform="translate(71,92)"/>
<path d="M0,0 L17,2 L18,11 L15,14 L11,14 L11,12 L0,12 L-1,3 Z " fill="#F2EFDE" transform="translate(67,108)"/>
<path d="M0,0 L3,2 L4,6 L-6,11 L-8,11 L-6,17 L9,52 L11,62 L8,59 L1,43 L-8,22 L-10,16 L-8,9 L0,4 Z " fill="#4C495E" transform="translate(171,96)"/>
<path d="M0,0 L3,0 L5,4 L4,11 L-3,14 L-11,17 L-14,20 L-16,16 L-16,11 L-13,11 L-8,7 L-3,2 L0,2 Z " fill="#F6F4E8" transform="translate(80,58)"/>
<path d="M0,0 L1,0 L1,10 L-1,19 L-3,18 L-5,23 L-5,32 L-3,32 L-3,30 L1,29 L2,27 L5,26 L8,26 L2,33 L-3,39 L-4,43 L-2,51 L-3,55 L-5,55 L-7,43 L-4,36 L-8,35 L-10,29 L-7,22 Z " fill="#5A5664" transform="translate(119,202)"/>
<path d="M0,0 L5,1 L7,2 L8,11 L6,15 L0,15 L-4,13 L-7,13 L-6,3 L-4,1 Z " fill="#F6F3E5" transform="translate(146,74)"/>
<path d="M0,0 L2,0 L7,19 L10,22 L11,28 L10,30 L10,36 L7,36 L6,32 L4,32 L2,23 L-2,10 L-1,6 L1,6 Z " fill="#EFE9CC" transform="translate(122,277)"/>
<path d="M0,0 L15,0 L20,4 L24,17 L27,18 L28,16 L31,18 L25,20 L22,19 L19,26 L18,26 L18,14 L15,6 L14,6 L14,8 L11,7 L10,20 L9,20 L7,8 L7,1 L0,1 Z " fill="#948D7E" transform="translate(41,28)"/>
<path d="M0,0 L7,2 L24,11 L37,16 L51,21 L65,26 L68,27 L68,29 L59,28 L39,20 L22,13 L12,9 L3,4 L0,2 Z " fill="#4A4654" transform="translate(179,70)"/>
<path d="M0,0 L5,0 L8,5 L5,12 L0,15 L-3,15 L-3,12 L-8,12 L-6,11 L-6,9 L-8,9 L-7,5 L-4,1 Z " fill="#EEECE6" transform="translate(140,266)"/>
<path d="M0,0 L4,1 L0,6 L-2,15 L1,21 L11,25 L13,23 L15,30 L15,34 L2,41 L3,44 L1,45 L-1,40 L4,36 L12,33 L13,29 L3,26 L-2,22 L-5,19 L-6,19 L-6,10 Z " fill="#4C4755" transform="translate(136,70)"/>
<path d="M0,0 L2,0 L6,7 L8,8 L8,10 L26,12 L25,14 L29,23 L28,26 L27,24 L25,25 L24,19 L17,18 L18,22 L16,24 L15,21 L13,19 L15,17 L4,10 L0,5 Z " fill="#676475" transform="translate(27,49)"/>
<path d="M0,0 L4,1 L7,4 L6,10 L5,11 L-12,10 L-11,3 L-10,2 Z " fill="#F8F5E4" transform="translate(77,76)"/>
<path d="M0,0 L7,0 L11,4 L13,8 L13,13 L8,19 L3,21 L-5,18 L-8,13 L-7,4 Z M2,2 L-3,4 L-5,11 L-4,16 L-2,15 L2,17 L8,17 L10,13 L9,4 L5,2 Z " fill="#4B4758" transform="translate(144,72)"/>
<path d="M0,0 L17,0 L35,2 L50,10 L56,15 L53,17 L44,10 L36,6 L19,3 L-12,3 L-14,4 L-17,2 L-13,1 Z " fill="#3A354A" transform="translate(120,49)"/>
<path d="M0,0 L6,1 L4,8 L4,10 L2,11 L-13,11 L-13,4 L-2,1 Z " fill="#F5F1E2" transform="translate(132,237)"/>
<path d="M0,0 L11,2 L15,4 L15,9 L17,10 L15,11 L13,15 L13,6 L0,6 L1,9 L1,18 L3,19 L1,20 L2,24 L3,26 L-1,28 L-2,18 L-3,10 L-3,1 Z " fill="#544F5A" transform="translate(129,136)"/>
<path d="M0,0 L3,3 L10,18 L16,36 L19,41 L21,48 L21,52 L23,53 L22,56 L20,55 L17,46 L11,32 L7,21 L4,14 L1,5 L-2,1 Z " fill="#474252" transform="translate(153,113)"/>
<path d="M0,0 L1,0 L1,6 L-6,6 L-6,21 L-8,34 L-12,45 L-18,57 L-21,58 L-19,52 L-14,40 L-11,32 L-9,19 L-8,7 L-7,5 L-3,4 L0,5 Z " fill="#433F50" transform="translate(212,129)"/>
<path d="M0,0 L1,2 L10,4 L13,5 L16,12 L14,16 L10,20 L6,17 L2,15 L6,15 L7,13 L7,15 L11,15 L11,8 L5,8 L-1,4 L-5,5 L-3,10 L-4,12 L-2,13 L-5,13 L-8,8 L-8,4 Z " fill="#4B4863" transform="translate(145,277)"/>
<path d="M0,0 L10,2 L16,9 L18,13 L17,23 L13,30 L18,31 L21,33 L12,34 L11,25 L14,16 L12,9 L8,5 L-4,2 Z " fill="#535063" transform="translate(144,66)"/>
<path d="M0,0 L15,7 L16,9 L21,11 L45,23 L48,24 L52,21 L53,24 L50,26 L41,25 L33,21 L14,11 L2,4 Z " fill="#484458" transform="translate(254,139)"/>
<path d="M0,0 L2,4 L6,17 L13,38 L12,43 L14,47 L14,53 L11,49 L8,38 L6,33 L6,29 L3,28 L6,28 L-1,6 L-1,3 Z " fill="#413D59" transform="translate(88,192)"/>
<path d="M0,0 L6,4 L12,4 L13,7 L12,12 L1,13 L-2,12 L-3,5 L-4,2 Z " fill="#D8D3C3" transform="translate(144,280)"/>
<path d="M0,0 L9,1 L10,7 L8,9 L8,7 L6,7 L6,5 L0,5 L-9,8 L-13,8 L-13,15 L-9,14 L1,15 L-1,17 L-12,18 L-15,16 L-16,9 L-13,6 L-3,2 Z " fill="#58535E" transform="translate(132,233)"/>
<path d="M0,0 L1,3 L-1,7 L5,9 L6,19 L6,22 L3,22 L2,19 L-5,15 L-7,17 L-9,12 L-16,10 L-12,9 L-6,10 L-7,13 L-1,11 L-4,8 L-2,4 L-3,2 Z " fill="#726D71" transform="translate(84,199)"/>
<path d="M0,0 L9,2 L25,11 L25,13 L19,12 L4,3 L-1,4 L-17,13 L-20,13 L-15,8 L-7,3 Z " fill="#514E61" transform="translate(282,115)"/>
<path d="M0,0 L11,2 L7,4 L-1,5 L-1,6 L-10,7 L-12,13 L-10,14 L-11,15 L-7,16 L2,16 L2,17 L-11,18 L-14,16 L-15,18 L-17,14 L-17,9 L-15,12 L-14,12 L-14,6 L-15,4 L-11,1 L-1,1 Z " fill="#4E4A5E" transform="translate(65,154)"/>
<path d="M0,0 L2,3 L4,12 L3,16 L3,14 L-2,15 L0,20 L-15,20 L-12,18 L-8,17 L-16,16 L-16,15 L-7,14 L-2,11 L-2,5 L-9,2 L-6,1 Z " fill="#F6F6F6" transform="translate(76,156)"/>
<path d="M0,0 L2,3 L10,24 L13,35 L12,39 L10,35 L8,38 L9,39 L8,42 L3,42 L3,40 L5,38 L2,34 L4,32 L6,34 L7,30 L8,25 L7,22 L5,23 L0,5 Z " fill="#524C52" transform="translate(124,277)"/>
<path d="M0,0 L10,1 L13,4 L0,4 L-6,6 L-11,11 L-12,12 L-14,28 L-15,28 L-15,14 L-17,12 L-16,7 L-12,3 L-14,11 L-10,4 Z " fill="#403D54" transform="translate(41,25)"/>
<path d="M0,0 L0,3 L-9,9 L-14,11 L-13,16 L-4,18 L0,21 L-5,22 L-21,14 L-17,11 L-15,9 L-11,6 L-2,1 Z " fill="#4B4960" transform="translate(250,127)"/>
<path d="M0,0 L1,0 L4,23 L4,54 L1,54 L1,34 L-1,13 Z " fill="#464152" transform="translate(117,150)"/>
<path d="M0,0 L3,2 L4,6 L4,14 L2,20 L2,23 L-7,22 L-7,20 L-4,17 L-3,14 L0,14 Z " fill="#E8E7E3" transform="translate(51,34)"/>
<path d="M0,0 L6,4 L17,11 L28,15 L32,16 L43,16 L44,18 L43,20 L26,18 L16,14 L6,7 L0,2 Z " fill="#413C4D" transform="translate(148,171)"/>
<path d="M0,0 L6,1 L17,7 L31,16 L34,18 L33,20 L26,17 L13,9 L3,3 L-1,1 Z M31,20 L33,21 Z " fill="#433F55" transform="translate(249,148)"/>
<path d="M0,0 L2,4 L3,7 L3,17 L0,26 L-5,35 L-11,34 L-11,33 L-6,33 L-3,24 L1,9 L1,6 L-7,6 L-5,3 L-5,5 L0,3 Z " fill="#454156" transform="translate(194,127)"/>
<path d="M0,0 L3,3 L5,13 L8,23 L9,28 L7,28 L5,30 L2,23 L2,15 L0,15 L1,7 Z " fill="#605D6D" transform="translate(117,277)"/>
<path d="M0,0 L3,1 L-1,5 L-8,10 L-16,12 L-29,12 L-33,10 L-15,8 L-1,2 Z " fill="#444054" transform="translate(189,214)"/>
<path d="M0,0 L14,0 L12,2 L8,3 L11,5 L9,6 L0,6 L-3,13 L-5,9 L-3,5 L-5,5 L-5,2 Z " fill="#827C7A" transform="translate(56,172)"/>
<path d="M0,0 L3,3 L3,18 L3,22 L4,25 L2,27 L0,27 L-4,28 L-12,25 L-10,23 L-1,24 L-1,21 L0,16 Z " fill="#AEA070" transform="translate(54,32)"/>
<path d="M0,0 L10,0 L12,2 L5,7 L4,9 L-4,8 L-3,3 L-1,3 Z " fill="#F9F6EA" transform="translate(130,255)"/>
<path d="M0,0 L2,3 L1,5 L1,11 L3,13 L5,12 L21,12 L27,10 L26,13 L24,14 L29,15 L25,17 L13,16 L2,16 L-1,12 L-1,4 Z " fill="#343150" transform="translate(50,175)"/>
<path d="M0,0 L5,5 L10,10 L22,16 L30,18 L29,21 L17,18 L5,10 L-2,2 Z " fill="#4A465A" transform="translate(143,151)"/>
<path d="M0,0 L2,1 L0,5 L4,8 L-1,10 L-4,10 L-5,8 L-18,5 L-20,2 L-7,4 L-7,2 Z " fill="#BEBDC5" transform="translate(81,202)"/>
<path d="M0,0 L2,2 L9,26 L12,34 L10,34 L9,36 L2,15 L1,8 L-1,8 Z " fill="#433E4E" transform="translate(88,169)"/>
<path d="M0,0 L2,1 L8,19 L8,23 L4,22 L3,20 L3,11 L-3,9 Z " fill="#FAFAFA" transform="translate(86,197)"/>
<path d="M0,0 L8,1 L23,1 L21,5 L13,5 L9,5 L-1,5 Z " fill="#C4C4D1" transform="translate(55,151)"/>
<path d="M0,0 L3,0 L7,5 L13,18 L14,25 L12,28 L6,11 L1,3 Z " fill="#535065" transform="translate(98,92)"/>
<path d="M0,0 L8,0 L14,4 L17,11 L16,16 L15,16 L12,7 L9,4 L2,4 L-4,7 L-6,7 L-4,3 Z M-7,7 Z " fill="#FAFAFA" transform="translate(142,69)"/>
<path d="M0,0 L2,0 L8,16 L11,28 L8,30 L3,14 L0,5 Z " fill="#595564" transform="translate(98,203)"/>
<path d="M0,0 L16,0 L21,1 L21,2 L-2,4 L-14,6 L-17,4 Z " fill="#595566" transform="translate(245,179)"/>
<path d="M0,0 L1,3 L-1,7 L1,8 L-6,8 L-7,12 L-11,14 L-11,5 L-13,4 L-3,2 Z " fill="#F9F8F4" transform="translate(136,246)"/>
<path d="M0,0 L2,0 L3,7 L-4,11 L-8,12 L-21,12 L-30,11 L-30,10 L-14,9 L0,6 Z " fill="#393549" transform="translate(282,168)"/>
<path d="M0,0 L12,2 L32,5 L31,7 L22,7 L5,4 L-2,2 Z " fill="#332F44" transform="translate(307,127)"/>
<path d="M0,0 L3,1 L7,15 L7,20 L-4,19 L1,14 L2,10 Z " fill="#FAFAFA" transform="translate(76,171)"/>
<path d="M0,0 L3,4 L3,7 L5,6 L6,2 L10,10 L9,13 L8,11 L5,14 L4,25 L2,22 L2,14 L-1,1 Z " fill="#726C72" transform="translate(77,154)"/>
<path d="M0,0 L2,4 L-3,9 L-4,10 L-4,23 L-6,24 L-6,22 L-12,23 L-23,23 L-24,21 L-9,21 L-6,12 L-12,12 L-12,11 L-6,11 L-4,7 L-2,3 Z " fill="#36324F" transform="translate(84,130)"/>
<path d="M0,0 L2,0 L4,10 L5,16 L2,17 L4,19 L5,22 L3,25 L0,18 L1,13 L-2,10 L-1,2 Z " fill="#5F5A68" transform="translate(104,239)"/>
<path d="M0,0 L2,3 L0,10 L11,10 L10,13 L5,14 L2,13 L4,18 L5,25 L1,23 L0,12 L-3,9 L-2,4 Z " fill="#332F4A" transform="translate(65,76)"/>
<path d="M0,0 L1,0 L1,9 L4,14 L12,17 L11,20 L1,16 L-2,12 L-3,6 L-1,1 Z " fill="#FAFAFA" transform="translate(136,76)"/>
<path d="M0,0 L3,4 L5,15 L5,37 L3,34 L1,13 Z " fill="#4E4A59" transform="translate(111,120)"/>
<path d="M0,0 L11,3 L23,8 L25,9 L23,13 L23,10 L16,9 L2,3 L-2,1 Z " fill="#3D394D" transform="translate(247,98)"/>
</svg>
