<?xml version="1.0" encoding="UTF-8"?>
<!-- Generator: visioncortex VTracer 0.6.12 -->
<svg xmlns:xlink="http://www.w3.org/1999/xlink" xmlns:sodipodi="http://sodipodi.sourceforge.net/DTD/sodipodi-0.0.dtd" xmlns:inkscape="http://www.inkscape.org/namespaces/inkscape" version="1.1" xmlns="http://www.w3.org/2000/svg" width="293" height="344">
<path d="M0,0 L293,0 L293,344 L0,344 Z " fill="#F6F6F6" transform="translate(0,0)"/>
<path d="M0,0 L9,0 L22,7 L22,10 L23,13 L20,15 L24,17 L36,18 L39,15 L34,15 L33,13 L40,13 L39,8 L37,9 L37,4 L42,6 L42,3 L50,3 L47,0 L55,0 L63,3 L69,4 L69,5 L63,6 L69,10 L72,17 L73,24 L77,26 L85,26 L85,29 L89,31 L95,32 L101,23 L100,16 L107,16 L112,20 L111,21 L116,23 L121,28 L128,34 L133,41 L132,48 L131,44 L129,40 L124,33 L122,32 L124,37 L127,39 L128,45 L123,57 L121,61 L117,62 L118,65 L122,64 L124,62 L123,70 L119,81 L116,91 L115,89 L110,90 L104,86 L102,87 L99,82 L79,78 L77,77 L77,84 L74,85 L74,93 L75,94 L77,91 L84,94 L82,96 L76,96 L76,107 L73,107 L72,105 L70,106 L70,90 L67,83 L65,81 L66,79 L62,80 L55,76 L55,71 L52,72 L52,70 L43,69 L33,63 L27,64 L21,69 L20,67 L16,69 L11,69 L10,72 L10,70 L4,72 L2,70 L0,71 L0,69 L-4,69 L-4,72 L-6,71 L-10,68 L-16,68 L-21,70 L-22,78 L-25,86 L-25,114 L-28,116 L-28,93 L-29,88 L-30,93 L-32,89 L-32,86 L-45,83 L-45,81 L-49,82 L-50,79 L-54,79 L-56,85 L-59,96 L-59,103 L-58,103 L-58,121 L-59,128 L-58,134 L-47,138 L-49,140 L-58,143 L-60,145 L-61,153 L-64,154 L-63,148 L-66,148 L-66,153 L-68,149 L-69,127 L-70,124 L-69,121 L-67,121 L-67,129 L-62,129 L-61,111 L-62,107 L-65,111 L-64,106 L-70,107 L-70,105 L-73,106 L-73,99 L-78,81 L-79,77 L-81,66 L-84,50 L-84,42 L-80,35 L-77,35 L-77,33 L-74,33 L-73,30 L-59,21 L-54,22 L-54,20 L-56,19 L-51,17 L-43,17 L-41,19 L-44,22 L-50,24 L-51,29 L-49,34 L-49,31 L-43,30 L-43,28 L-37,25 L-31,25 L-32,28 L-27,27 L-28,25 L-24,24 L-25,12 L-27,11 L-23,11 L-24,5 L-14,2 Z " fill="#E7E7E7" transform="translate(126,24)"/>
<path d="M0,0 L2,4 L3,22 L6,32 L4,32 L4,35 L-2,40 L-6,44 L-13,43 L-12,50 L-9,53 L-1,54 L-1,55 L-11,55 L-15,54 L-18,43 L-41,43 L-44,42 L-45,40 L-49,39 L-50,45 L-60,45 L-62,54 L-60,54 L-58,56 L-43,54 L-27,54 L-21,53 L-25,56 L-28,57 L-27,63 L-30,63 L-31,60 L-36,62 L-37,64 L-44,65 L-71,66 L-71,69 L-71,105 L-67,106 L-24,106 L-23,107 L-7,107 L-7,108 L-12,109 L-3,111 L2,113 L4,116 L-3,119 L-3,123 L0,127 L0,129 L20,129 L20,130 L27,130 L31,129 L41,129 L39,131 L51,131 L52,132 L60,131 L61,134 L57,135 L1,134 L-7,133 L-16,134 L-70,134 L-76,132 L-72,128 L-72,122 L-77,121 L-79,120 L-90,121 L-97,122 L-94,128 L-91,129 L-91,127 L-74,127 L-75,129 L-78,130 L-79,132 L-84,134 L-104,134 L-121,136 L-138,136 L-141,134 L-141,132 L-131,131 L-127,133 L-128,129 L-127,113 L-125,114 L-123,108 L-118,106 L-116,107 L-118,102 L-120,98 L-120,85 L-118,83 L-115,63 L-114,56 L-115,52 L-114,49 L-114,45 L-112,45 L-111,43 L-108,42 L-105,42 L-102,33 L-97,35 L-88,36 L-66,36 L-58,34 L-30,34 L-20,36 L-20,37 L-12,37 L-13,34 L-8,33 L-1,32 L-1,19 Z " fill="#F2F2F2" transform="translate(169,187)"/>
<path d="M0,0 L9,0 L22,7 L22,10 L23,13 L20,15 L24,17 L36,18 L39,15 L34,15 L33,13 L40,13 L39,8 L37,9 L37,4 L42,6 L42,3 L50,3 L47,0 L55,0 L63,3 L69,4 L69,5 L63,6 L69,10 L72,17 L73,24 L77,26 L85,26 L85,29 L89,31 L95,32 L101,23 L100,16 L107,16 L112,20 L111,21 L116,23 L121,28 L128,34 L133,41 L132,48 L131,44 L129,40 L124,33 L122,32 L124,37 L127,39 L128,45 L126,49 L124,49 L121,58 L120,60 L115,59 L113,58 L112,62 L107,59 L99,57 L92,54 L83,51 L72,48 L62,47 L54,45 L54,43 L47,43 L45,41 L49,38 L21,35 L13,35 L6,36 L2,35 L0,41 L2,42 L-7,43 L-10,43 L-11,44 L-23,45 L-32,47 L-36,50 L-41,51 L-44,50 L-44,47 L-35,44 L-46,47 L-51,49 L-60,52 L-58,52 L-51,51 L-50,54 L-60,59 L-62,59 L-62,61 L-70,64 L-71,62 L-66,60 L-65,56 L-73,58 L-76,56 L-81,56 L-81,62 L-82,62 L-84,50 L-84,42 L-80,35 L-77,35 L-77,33 L-74,33 L-73,30 L-59,21 L-54,22 L-54,20 L-56,19 L-51,17 L-43,17 L-41,19 L-44,22 L-50,24 L-51,29 L-49,34 L-49,31 L-43,30 L-43,28 L-37,25 L-31,25 L-32,28 L-27,27 L-28,25 L-24,24 L-25,12 L-27,11 L-23,11 L-24,5 L-14,2 Z " fill="#EDEDED" transform="translate(126,24)"/>
<path d="M0,0 L8,1 L20,3 L18,5 L14,5 L14,8 L27,7 L27,9 L33,8 L42,9 L45,12 L43,12 L44,16 L44,30 L43,38 L43,48 L38,53 L37,54 L29,54 L29,51 L19,52 L-6,52 L-7,51 L-50,51 L-55,49 L-55,11 L-57,10 L-54,9 L-27,8 L-23,7 L-20,8 L-18,4 L-14,3 L-11,7 L-10,5 L0,6 Z " fill="#F5F5F5" transform="translate(152,243)"/>
<path d="M0,0 L1,0 L3,10 L4,10 L4,26 L3,30 L2,43 L19,46 L18,49 L21,49 L20,48 L21,32 L23,35 L23,38 L27,37 L27,39 L25,40 L26,43 L31,45 L27,47 L23,47 L23,50 L43,50 L41,49 L40,44 L40,31 L39,27 L41,18 L38,17 L40,17 L39,8 L37,6 L40,5 L43,8 L43,44 L47,45 L90,45 L91,46 L107,46 L107,47 L102,48 L111,50 L116,52 L118,55 L111,58 L111,62 L114,66 L114,68 L134,68 L134,69 L141,69 L145,68 L155,68 L153,70 L165,70 L166,71 L174,70 L175,73 L171,74 L115,73 L107,72 L98,73 L44,73 L38,71 L42,67 L42,61 L37,60 L35,59 L24,60 L17,61 L20,67 L23,68 L23,66 L40,66 L39,68 L36,69 L35,71 L30,73 L10,73 L-7,75 L-24,75 L-27,73 L-27,71 L-17,70 L-13,72 L-14,68 L-13,52 L-11,53 L-9,47 L-4,45 L-2,46 L-4,41 L-6,37 L-6,24 L-4,22 L-1,2 Z " fill="#E9E9E9" transform="translate(55,248)"/>
<path d="M0,0 L2,4 L3,22 L6,32 L4,32 L4,35 L-2,40 L-6,44 L-13,43 L-12,50 L-9,53 L-1,54 L-1,55 L-11,55 L-15,54 L-18,43 L-41,43 L-44,42 L-45,40 L-49,39 L-50,45 L-60,45 L-62,54 L-60,54 L-58,56 L-43,54 L-27,54 L-21,53 L-25,56 L-28,57 L-27,63 L-30,63 L-31,60 L-36,62 L-37,64 L-44,65 L-74,66 L-73,64 L-69,62 L-69,60 L-72,61 L-81,61 L-82,58 L-69,55 L-66,54 L-68,49 L-68,46 L-73,45 L-74,41 L-78,40 L-78,39 L-90,39 L-92,40 L-94,48 L-89,48 L-89,49 L-109,51 L-110,58 L-112,58 L-113,61 L-115,52 L-114,49 L-114,45 L-112,45 L-111,43 L-108,42 L-105,42 L-102,33 L-97,35 L-88,36 L-66,36 L-58,34 L-30,34 L-20,36 L-20,37 L-12,37 L-13,34 L-8,33 L-1,32 L-1,19 Z " fill="#D8D8D8" transform="translate(169,187)"/>
<path d="M0,0 L9,0 L9,1 L20,1 L20,3 L14,8 L15,12 L15,19 L16,20 L15,31 L16,31 L16,51 L20,52 L14,53 L-2,52 L-2,49 L3,47 L0,45 L-1,41 L2,41 L-2,40 L-3,42 L-4,31 L-5,27 L-5,10 L-6,8 L-13,7 L-17,5 L-17,3 L-7,4 L-7,2 L-18,2 L-18,1 Z " fill="#DFDFDF" transform="translate(80,246)"/>
<path d="M0,0 L2,0 L4,4 L4,9 L7,9 L8,2 L10,3 L9,11 L11,14 L17,13 L18,8 L21,7 L19,14 L18,26 L16,31 L21,32 L20,26 L24,17 L25,10 L26,10 L27,19 L23,29 L22,34 L22,41 L23,41 L23,59 L22,66 L23,72 L34,76 L32,78 L23,81 L21,83 L20,91 L17,92 L18,86 L15,86 L15,91 L13,87 L12,65 L11,62 L12,59 L14,59 L14,67 L19,67 L20,49 L19,45 L16,49 L17,44 L11,45 L11,43 L8,44 L8,37 L3,19 L2,15 L0,4 Z " fill="#F7F7F7" transform="translate(45,86)"/>
<path d="M0,0 L1,0 L2,17 L5,41 L6,57 L9,69 L10,78 L9,81 L16,82 L20,85 L10,86 L8,87 L20,87 L25,89 L25,90 L-2,90 L-2,88 L-6,87 L-4,87 L-3,85 L-3,87 L1,86 L3,85 L1,83 L-10,83 L-10,85 L-16,83 L-16,85 L-20,84 L-22,86 L-21,79 L-24,78 L-22,77 L-26,76 L-27,78 L-26,73 L-12,79 L1,77 L5,75 L5,72 L3,65 L0,66 L-2,68 L-4,67 L-3,60 L-6,60 L-6,62 L-8,62 L-8,68 L-18,67 L-23,66 L-23,64 L-27,65 L-28,63 L-24,62 L-22,63 L-15,63 L-8,59 L-7,41 L-4,40 L-1,37 L1,37 L1,32 L-1,31 L1,31 L0,28 L2,28 L0,23 L-1,4 Z " fill="#B8B8B8" transform="translate(242,232)"/>
<path d="M0,0 L9,0 L10,2 L12,0 L16,0 L15,6 L17,7 L7,7 L5,16 L7,16 L9,18 L24,16 L40,16 L46,15 L42,18 L39,19 L40,25 L37,25 L36,22 L31,24 L30,26 L23,27 L-7,28 L-6,26 L-2,24 L-2,22 L-5,23 L-14,23 L-15,20 L-2,17 L1,16 L-1,11 L-1,8 L-6,7 L-7,3 L-11,2 L-11,1 Z " fill="#929292" transform="translate(102,225)"/>
<path d="M0,0 L7,1 L14,14 L16,17 L16,35 L8,40 L1,40 L-4,37 L-2,36 L-3,4 L-3,1 Z " fill="#F7F7F7" transform="translate(219,256)"/>
<path d="M0,0 L1,0 L3,10 L4,10 L4,26 L3,30 L2,43 L19,46 L18,49 L21,49 L20,48 L21,32 L23,35 L23,38 L27,37 L27,39 L25,40 L26,43 L31,45 L27,47 L23,47 L23,50 L35,50 L35,52 L-4,52 L-6,54 L-8,52 L-4,48 L-8,48 L-9,50 L-9,47 L-4,45 L-2,46 L-4,41 L-6,37 L-6,24 L-4,22 L-1,2 Z " fill="#515151" transform="translate(55,248)"/>
<path d="M0,0 L6,2 L6,4 L22,4 L32,5 L32,12 L31,15 L21,17 L7,17 L-9,19 L-10,16 L-12,16 L-11,9 L-10,7 L-2,6 L0,5 Z " fill="#ECECEC" transform="translate(119,225)"/>
<path d="M0,0 L4,1 L3,6 L8,7 L10,9 L6,13 L4,13 L7,20 L8,14 L9,14 L10,25 L10,60 L8,62 L4,40 L3,36 L2,40 L-3,40 L-4,42 L-4,27 L-2,12 L-1,8 L-2,1 Z " fill="#E6E6E6" transform="translate(230,115)"/>
<path d="M0,0 L2,3 L0,3 L0,5 L-2,5 L-4,9 L-7,13 L-3,18 L-5,19 L-8,18 L-7,24 L2,25 L4,17 L7,18 L7,20 L11,20 L11,23 L7,23 L7,29 L8,25 L11,26 L9,26 L9,33 L6,34 L6,42 L7,43 L9,40 L16,43 L14,45 L8,45 L8,56 L5,56 L4,54 L2,55 L2,39 L-1,32 L-3,30 L-2,28 L-6,29 L-13,25 L-13,20 L-16,21 L-16,19 L-25,18 L-29,15 L-28,13 L-26,13 L-26,15 L-18,16 L-15,16 L-15,13 L-11,9 L-9,6 L-7,6 L-6,4 L-4,5 L-5,2 Z " fill="#ADADAD" transform="translate(194,75)"/>
<path d="M0,0 L8,0 L36,3 L39,5 L33,7 L34,9 L25,10 L-11,10 L-16,9 L-13,7 L-13,3 L-11,3 L-11,1 L-4,1 Z " fill="#D9D9D9" transform="translate(139,58)"/>
<path d="M0,0 L2,0 L4,4 L4,9 L7,9 L8,2 L10,3 L9,11 L11,14 L17,13 L18,8 L21,7 L19,14 L18,26 L16,31 L21,32 L20,26 L24,17 L25,10 L26,10 L27,19 L23,29 L22,34 L15,34 L13,35 L10,33 L12,26 L8,25 L10,35 L10,43 L8,44 L8,37 L3,19 L2,15 L0,4 Z " fill="#9A9A9A" transform="translate(45,86)"/>
<path d="M0,0 L9,0 L9,2 L14,3 L17,10 L27,10 L32,9 L33,11 L36,13 L31,13 L30,16 L30,14 L24,16 L22,14 L20,15 L20,13 L16,13 L16,16 L14,15 L10,12 L4,12 L-1,14 L-2,22 L-5,30 L-5,58 L-8,60 L-8,28 L-3,17 L-5,12 L-1,12 L-3,5 L0,1 Z " fill="#D5D5D5" transform="translate(106,80)"/>
<path d="M0,0 L14,6 L27,4 L31,2 L34,2 L34,9 L40,8 L46,11 L46,12 L36,13 L34,14 L46,14 L51,16 L51,17 L24,17 L24,15 L20,14 L22,14 L23,12 L23,14 L27,13 L29,12 L27,10 L16,10 L16,12 L10,10 L10,12 L6,11 L4,13 L5,6 L2,5 L4,4 L0,3 L-1,5 Z " fill="#BCBCBC" transform="translate(216,305)"/>
<path d="M0,0 L5,1 L5,3 L9,5 L11,14 L15,13 L18,9 L19,12 L18,14 L20,14 L20,8 L23,7 L19,23 L17,26 L17,24 L12,25 L6,21 L4,22 L1,17 L-2,15 L1,15 L1,13 L4,13 L2,6 L-5,8 L-6,5 L-3,1 Z M17,14 Z M16,15 Z M15,16 Z " fill="#B2B2B2" transform="translate(224,89)"/>
<path d="M0,0 L4,2 L0,2 L3,8 L6,9 L6,7 L23,7 L22,9 L19,10 L18,12 L13,14 L-7,13 L-7,9 L-14,9 L-18,7 L-18,4 L-11,1 Z " fill="#A8A8A8" transform="translate(72,307)"/>
<path d="M0,0 L1,0 L0,15 L0,30 L2,37 L2,41 L0,41 L-1,43 L-4,39 L-4,37 L-6,37 L-6,43 L-3,46 L-5,50 L-6,48 L-8,51 L-8,24 L-7,23 L-7,12 L-6,2 L-5,2 L-3,12 L-3,6 L-1,6 L-1,4 L-3,3 Z " fill="#C2C2C2" transform="translate(64,178)"/>
<path d="M0,0 L7,3 L7,5 L10,4 L12,1 L13,5 L15,5 L15,13 L13,18 L4,20 L5,16 L-20,15 L-20,14 L-27,12 L-28,14 L-29,11 L6,11 L8,12 L8,6 L-4,4 L0,3 Z " fill="#B1B1B1" transform="translate(218,231)"/>
<path d="M0,0 L10,3 L8,13 L13,13 L13,14 L-7,16 L-8,23 L-10,23 L-11,26 L-13,17 L-12,14 L-12,10 L-10,10 L-9,8 L-6,7 L-3,7 Z " fill="#BEBEBE" transform="translate(67,222)"/>
<path d="M0,0 L5,2 L19,3 L36,8 L48,14 L52,16 L48,17 L40,12 L33,11 L36,15 L28,13 L14,9 L4,8 L-4,6 L-1,2 L-3,1 Z M25,6 Z " fill="#3C3C3C" transform="translate(184,63)"/>
<path d="M0,0 L2,2 L3,9 L17,10 L26,13 L28,15 L27,19 L15,20 L13,18 L15,18 L15,16 L19,15 L1,11 L1,17 L6,17 L6,18 L-5,18 L-10,17 L-11,12 L-3,8 L-1,8 Z " fill="#F8F8F8" transform="translate(151,232)"/>
<path d="M0,0 L15,0 L17,2 L12,3 L11,5 L23,5 L31,6 L31,7 L22,8 L-32,8 L-36,6 L-30,5 L3,5 L-12,3 L-10,1 Z " fill="#2C2C2C" transform="translate(131,313)"/>
<path d="M0,0 L3,1 L4,3 L4,39 L8,40 L51,40 L52,42 L40,44 L17,44 L17,43 L7,43 L7,41 L2,43 L1,39 L1,26 L0,22 L2,13 L-1,12 L1,12 L0,3 L-2,1 Z " fill="#8A8A8A" transform="translate(94,253)"/>
<path d="M0,0 L2,1 L3,4 L3,25 L2,27 L1,30 L-1,30 L-2,32 L-8,30 L-10,29 L-11,25 L-11,11 L-10,15 L-2,17 L-1,14 L0,14 L0,9 L-1,7 Z " fill="#CACACA" transform="translate(116,165)"/>
<path d="M0,0 L2,1 L-1,3 Z M-4,3 L5,4 L5,5 L-1,5 L-1,7 L1,8 L-2,10 L-1,23 L0,25 L10,24 L9,30 L11,31 L3,34 L2,32 L7,30 L8,26 L0,28 L-3,26 L-8,26 L-8,32 L-9,32 L-11,20 L-11,12 L-7,5 L-4,5 Z " fill="#A2A2A2" transform="translate(53,54)"/>
<path d="M0,0 L4,3 L5,10 L6,11 L13,12 L13,9 L17,9 L17,7 L19,7 L21,0 L22,3 L21,11 L20,21 L19,26 L17,22 L17,19 L4,16 L4,14 L0,15 L-1,12 L-5,11 L-1,11 L-1,6 L-3,6 L-2,2 L0,2 Z " fill="#929292" transform="translate(77,91)"/>
<path d="M0,0 L4,1 L-3,4 L-2,10 L-5,10 L-6,7 L-11,9 L-12,11 L-19,12 L-49,13 L-48,11 L-44,9 L-44,7 L-47,6 L-43,6 L-43,9 L-29,8 L-24,10 L-23,8 L-17,8 L-15,4 L-29,3 L-29,2 L-11,1 L-2,1 Z " fill="#7E7E7E" transform="translate(144,240)"/>
<path d="M0,0 L4,1 L3,8 L6,8 L13,8 L14,16 L15,16 L15,34 L14,41 L13,45 L9,45 L9,43 L11,42 L12,24 L11,20 L8,24 L9,19 L3,20 L0,8 Z " fill="#D8D8D8" transform="translate(53,111)"/>
<path d="M0,0 L5,2 L14,3 L36,3 L44,1 L72,1 L82,3 L78,5 L57,5 L53,6 L52,10 L50,9 L51,5 L46,7 L44,8 L41,6 L10,6 L2,3 Z " fill="#6C6C6C" transform="translate(67,220)"/>
<path d="M0,0 L2,4 L3,22 L6,32 L4,32 L4,35 L-2,40 L-6,44 L-13,43 L-14,41 L-8,39 L-9,34 L-4,32 L-1,32 L-1,19 Z " fill="#CECECE" transform="translate(169,187)"/>
<path d="M0,0 L2,3 L0,3 L0,5 L-2,5 L-4,9 L-7,13 L-3,18 L-5,19 L-8,18 L-7,24 L-4,24 L-3,27 L-13,25 L-13,20 L-16,21 L-16,19 L-25,18 L-29,15 L-28,13 L-26,13 L-26,15 L-18,16 L-15,16 L-15,13 L-11,9 L-9,6 L-7,6 L-6,4 L-4,5 L-5,2 Z " fill="#BBBBBB" transform="translate(194,75)"/>
<path d="M0,0 L9,0 L22,7 L22,10 L23,13 L21,13 L21,11 L11,10 L5,7 L5,9 L9,10 L9,16 L7,18 L3,7 L-2,5 L-3,7 L-6,6 L-7,4 L-14,3 L-14,2 Z " fill="#C8C8C8" transform="translate(126,24)"/>
<path d="M0,0 L10,0 L8,2 L20,2 L21,3 L29,2 L30,5 L26,6 L-30,5 L-38,3 L-38,2 L-4,1 Z " fill="#2F2F2F" transform="translate(200,316)"/>
<path d="M0,0 L8,0 L10,2 L7,5 L1,7 L-1,10 L-6,10 L-17,17 L-23,17 L-18,10 L-8,4 L-3,5 L-3,3 L-5,2 Z " fill="#D0D0D0" transform="translate(75,41)"/>
<path d="M0,0 Z M-1,1 Z M-2,2 L2,7 L4,11 L24,11 L23,13 L-13,14 L-17,14 L-17,12 L-10,12 L-11,6 L-4,4 Z " fill="#DFDFDF" transform="translate(165,305)"/>
<path d="M0,0 L8,3 L12,1 L28,1 L24,7 L18,7 L14,8 L10,7 L-2,7 L-2,4 L-6,5 L-13,5 L-9,3 L-2,1 Z " fill="#F1F1F1" transform="translate(103,242)"/>
<path d="M0,0 L7,0 L12,4 L11,5 L16,7 L21,12 L28,18 L33,25 L32,32 L31,28 L29,24 L24,17 L22,16 L20,18 L19,15 L13,13 L5,8 L5,6 L2,7 Z " fill="#979797" transform="translate(226,40)"/>
<path d="M0,0 L8,0 L11,3 L6,6 L5,6 L5,8 L33,8 L33,9 L-8,9 L-6,6 L-9,6 L-14,6 L-15,4 L-13,1 L-9,3 L-9,1 L-5,2 L-3,3 L-3,1 Z " fill="#BEBEBE" transform="translate(235,314)"/>
<path d="M0,0 L8,1 L20,3 L18,5 L14,5 L14,8 L27,7 L27,9 L24,11 L16,11 L5,8 L5,10 L-4,9 L-8,7 L-6,6 L0,6 Z " fill="#C2C2C2" transform="translate(152,243)"/>
<path d="M0,0 L1,2 L6,3 L7,8 L5,8 L5,10 L8,11 L3,14 L-1,17 L-2,15 L-3,16 L-11,16 L-9,15 L-9,13 L-6,11 L-4,4 Z " fill="#BBBBBB" transform="translate(148,76)"/>
<path d="M0,0 L12,1 L15,4 L13,4 L14,8 L14,22 L13,30 L13,40 L8,45 L7,46 L-1,46 L1,44 L9,42 L10,40 L10,10 L12,3 L8,4 L-3,2 Z " fill="#262626" transform="translate(182,251)"/>
<path d="M0,0 L2,0 L2,3 L4,3 L5,6 L3,7 L12,7 L16,6 L20,7 L20,11 L2,11 L-12,9 L-8,7 L-3,8 L-6,4 Z " fill="#222222" transform="translate(138,271)"/>
<path d="M0,0 L7,0 L7,2 L13,1 L33,1 L40,2 L47,3 L43,5 L2,5 L-3,4 L0,2 Z " fill="#666666" transform="translate(126,63)"/>
<path d="M0,0 L2,2 L4,7 L14,7 L19,6 L20,8 L23,10 L18,10 L17,13 L17,11 L11,13 L9,11 L7,12 L7,10 L3,10 L3,13 L1,12 L-3,9 L-9,8 L-7,2 L-1,2 Z " fill="#666666" transform="translate(119,83)"/>
<path d="M0,0 L9,1 L8,5 L14,5 L18,10 L18,12 L-1,13 L3,9 L3,3 L-2,2 Z " fill="#CDCDCD" transform="translate(94,306)"/>
<path d="M0,0 L8,0 L8,1 L3,2 L12,4 L17,6 L19,9 L10,13 L8,14 L10,10 L11,9 L5,7 L-11,6 L-16,5 L-16,4 L-4,3 L-8,1 Z " fill="#2A2A2A" transform="translate(154,294)"/>
<path d="M0,0 L5,1 L8,2 L14,1 L13,6 L9,8 L9,10 L6,11 L5,16 L2,16 L0,7 L-2,7 L-2,1 Z " fill="#E3E3E3" transform="translate(47,79)"/>
<path d="M0,0 L4,2 L10,10 L11,13 L7,23 L1,34 L-4,35 L-4,31 L0,30 L2,25 L6,14 L5,8 L0,3 Z " fill="#FAFAFA" transform="translate(247,55)"/>
<path d="M0,0 L2,2 L5,21 L4,24 L6,25 L3,25 L2,18 L-1,16 L-1,12 L-2,8 L-5,9 L-7,11 L-9,10 L-9,2 L-3,1 L0,2 Z " fill="#8D8D8D" transform="translate(247,289)"/>
<path d="M0,0 L9,4 L9,5 L1,7 L2,9 L2,41 L0,41 L0,26 L-2,28 L-2,21 L0,12 L-1,9 L-2,19 L-3,19 L-3,5 L0,6 Z " fill="#6F6F6F" transform="translate(215,251)"/>
<path d="M0,0 L1,0 L3,19 L23,20 L23,21 L6,23 L-11,23 L-14,21 L-14,19 L-4,18 L0,20 L-1,16 Z " fill="#393939" transform="translate(42,300)"/>
<path d="M0,0 L4,3 L4,10 L0,19 L0,25 L-6,25 L-4,19 L-3,7 Z " fill="#FAFAFA" transform="translate(66,93)"/>
<path d="M0,0 L9,2 L14,3 L16,4 L15,8 L17,9 L17,11 L8,13 L3,11 L3,5 L4,3 L0,2 Z " fill="#E8E8E8" transform="translate(131,31)"/>
<path d="M0,0 L35,0 L36,2 L32,2 L32,4 L9,4 L9,3 L2,1 L1,3 Z " fill="#5F5F5F" transform="translate(189,242)"/>
<path d="M0,0 L8,0 L7,5 L6,9 L-20,9 L-25,5 L-22,4 L-22,6 L-16,5 L-9,4 L3,5 L6,2 L1,2 Z " fill="#888888" transform="translate(159,37)"/>
<path d="M0,0 L6,0 L5,3 L3,3 L3,5 L5,7 L-3,10 L-10,13 L-12,10 L-12,6 L-6,5 L-6,3 Z " fill="#CCCCCC" transform="translate(89,49)"/>
<path d="M0,0 L29,0 L30,2 L18,4 L-5,4 L-4,1 Z " fill="#6D6D6D" transform="translate(116,293)"/>
<path d="M0,0 L5,1 L5,2 L-9,4 L-9,7 L-4,8 L-8,10 L-13,10 L-13,12 L-19,15 L-23,14 L-16,11 L-16,8 L-23,10 L-25,12 L-25,10 L-27,9 L-21,6 L-12,4 L-5,1 Z " fill="#727272" transform="translate(91,67)"/>
<path d="M0,0 L1,4 L-1,10 L-1,22 L0,26 L4,28 L12,29 L8,31 L0,31 L-3,28 L-5,20 L-5,10 L-1,1 Z " fill="#F1F1F1" transform="translate(57,266)"/>
<path d="M0,0 L1,0 L2,11 L2,46 L0,48 L-4,26 L-4,21 L-2,25 L-1,26 L-1,7 Z " fill="#474747" transform="translate(238,129)"/>
<path d="M0,0 L7,0 L6,2 L4,2 L3,10 L0,18 L0,46 L-3,48 L-3,16 L2,5 Z " fill="#3E3E3E" transform="translate(101,92)"/>
<path d="M0,0 L3,1 L0,6 L1,18 L3,19 L0,20 L-2,23 L-5,23 L-5,6 L-4,3 L-2,3 L-2,1 Z " fill="#989898" transform="translate(49,295)"/>
<path d="M0,0 L2,0 L2,8 L5,9 L2,9 L3,25 L6,25 L7,18 L17,17 L16,15 L22,17 L20,19 L11,22 L9,24 L8,32 L5,33 L6,27 L3,27 L3,32 L1,28 L0,6 L-1,3 Z " fill="#4B4B4B" transform="translate(57,145)"/>
<path d="M0,0 L5,5 L7,11 L9,8 L16,11 L14,13 L8,13 L8,24 L5,24 L4,22 L2,23 L2,7 Z " fill="#373737" transform="translate(194,107)"/>
<path d="M0,0 L2,3 L2,6 L6,5 L6,7 L4,8 L5,11 L10,13 L6,15 L2,15 L2,18 L14,18 L14,20 L-3,20 L0,17 L-1,16 Z " fill="#838383" transform="translate(76,280)"/>
<path d="M0,0 L4,0 L4,3 L18,2 L23,4 L24,2 L31,2 L31,5 L28,6 L-2,7 L-1,5 L3,3 L3,1 Z " fill="#515151" transform="translate(97,246)"/>
<path d="M0,0 L2,4 L1,8 L0,21 L17,24 L16,27 L13,28 L-2,28 L-3,24 L-2,26 L8,26 L0,23 L-2,18 L-2,5 Z " fill="#3E3E3E" transform="translate(57,270)"/>
<path d="M0,0 L1,2 L11,4 L11,8 L-11,8 L-7,5 L-5,1 L-2,1 Z " fill="#FAFAFA" transform="translate(54,312)"/>
<path d="M0,0 L2,0 L2,2 L9,2 L11,1 L20,2 L31,3 L34,12 L36,14 L44,15 L44,16 L34,16 L30,15 L27,4 L4,4 L1,3 Z " fill="#565656" transform="translate(124,226)"/>
<path d="M0,0 L1,0 L2,17 L5,41 L5,52 L1,51 L3,51 L2,49 L2,37 L1,32 L-1,31 L1,31 L0,28 L2,28 L0,23 L-1,4 Z " fill="#303030" transform="translate(242,232)"/>
<path d="M0,0 L5,2 L14,3 L54,4 L57,6 L53,6 L52,10 L50,9 L51,5 L46,7 L44,8 L41,6 L10,6 L2,3 Z " fill="#363636" transform="translate(67,220)"/>
<path d="M0,0 L1,3 L0,11 L-1,21 L-2,26 L-4,22 L-4,19 L-6,19 L-6,17 L-9,16 L-7,14 L-3,14 L-8,13 L-4,7 L-2,7 Z " fill="#A0A0A0" transform="translate(98,91)"/>
<path d="M0,0 L15,0 L17,2 L12,3 L11,6 L4,6 L4,4 L-12,3 L-10,1 Z " fill="#7E7E7E" transform="translate(131,313)"/>
<path d="M0,0 L8,1 L22,8 L26,10 L22,11 L14,6 L7,5 L10,9 L2,7 L-1,4 Z " fill="#A9A9A9" transform="translate(210,69)"/>
<path d="M0,0 L1,0 L0,15 L0,25 L-2,24 L-4,18 L-6,19 L-7,12 L-6,2 L-5,2 L-3,12 L-3,6 L-1,6 L-1,4 L-3,3 Z " fill="#242424" transform="translate(64,178)"/>
<path d="M0,0 L2,1 L3,7 L-1,7 L1,11 L-4,22 L-5,22 L-6,11 L-2,1 Z " fill="#FAFAFA" transform="translate(103,86)"/>
<path d="M0,0 L5,0 L4,3 L-11,6 L-15,9 L-20,10 L-23,9 L-23,6 L-16,4 L-7,2 Z " fill="#F5F5F5" transform="translate(105,65)"/>
<path d="M0,0 L8,0 L36,3 L39,5 L33,6 L26,4 L19,4 L14,3 L-2,3 L-12,5 L-13,3 L-11,3 L-11,1 L-4,1 Z " fill="#616161" transform="translate(139,58)"/>
<path d="M0,0 L1,0 L2,7 L3,7 L3,25 L2,32 L1,36 L-3,36 L-3,34 L-1,33 L0,15 L-2,2 L0,2 Z " fill="#787878" transform="translate(65,120)"/>
<path d="M0,0 L8,1 L18,8 L23,9 L22,13 L17,10 L9,8 L1,2 Z " fill="#FAFAFA" transform="translate(216,73)"/>
<path d="M0,0 L16,0 L16,2 L7,4 L2,5 L-4,5 L-5,4 L-10,4 L-9,2 Z " fill="#CFCFCF" transform="translate(137,60)"/>
<path d="M0,0 L2,4 L3,19 L1,29 L-1,34 L-4,35 L-7,34 L-6,38 L-8,39 L-9,34 L-4,32 L-1,32 L-1,19 Z " fill="#3B3B3B" transform="translate(169,187)"/>
<path d="M0,0 L4,2 L6,4 L14,4 L13,7 L6,8 L-3,6 L-7,3 Z " fill="#FAFAFA" transform="translate(151,35)"/>
<path d="M0,0 L2,3 L3,14 L3,18 L1,18 L1,24 L4,27 L2,31 L1,29 L-1,32 L-1,5 L0,4 Z " fill="#494949" transform="translate(57,197)"/>
<path d="M0,0 L8,1 L47,2 L47,3 L-5,3 L-9,1 Z " fill="#A5A5A5" transform="translate(162,319)"/>
<path d="M0,0 L2,1 L3,5 L1,14 L3,18 L2,33 L0,32 L-2,15 Z " fill="#ECECEC" transform="translate(213,259)"/>
<path d="M0,0 L7,2 L5,12 L2,9 L2,17 L0,17 L-1,15 L-1,6 L-2,2 Z " fill="#FAFAFA" transform="translate(111,160)"/>
<path d="M0,0 L8,0 L7,5 L6,7 L8,7 L8,12 L3,13 L3,6 L-1,4 Z " fill="#C5C5C5" transform="translate(68,90)"/>
<path d="M0,0 L2,1 L3,4 L3,25 L2,27 L1,30 L-1,28 L0,9 L-1,7 Z " fill="#262626" transform="translate(116,165)"/>
<path d="M0,0 L4,1 L4,10 L5,21 L4,30 L6,31 L5,33 L5,39 L4,39 L2,29 L3,27 L1,26 L2,25 L2,9 L0,8 Z " fill="#313131" transform="translate(235,179)"/>
<path d="M0,0 L2,1 L1,19 L0,27 L3,27 L4,24 L4,28 L-1,28 L-2,30 L-2,15 Z " fill="#454545" transform="translate(228,127)"/>
<path d="M0,0 L2,1 L3,0 L8,1 L7,4 L9,5 L0,6 L-3,6 L-4,7 L-9,7 L-7,2 Z " fill="#F4F4F4" transform="translate(119,61)"/>
<path d="M0,0 L1,2 L6,1 L8,2 L24,2 L29,4 L29,5 L2,5 L2,3 L-2,2 L0,2 Z " fill="#262626" transform="translate(238,317)"/>
<path d="M0,0 L2,4 L4,6 L2,6 L4,14 L2,24 L0,21 L-1,17 L-1,4 Z " fill="#5F5F5F" transform="translate(76,256)"/>
<path d="M0,0 L4,0 L5,8 L5,16 L3,17 L2,13 L0,13 Z " fill="#C7C7C7" transform="translate(233,188)"/>
<path d="M0,0 L2,0 L4,7 L1,7 L1,9 L-8,7 L-9,4 L-5,4 L-5,2 Z " fill="#F1F1F1" transform="translate(224,95)"/>
<path d="M0,0 L7,0 L7,2 L13,1 L33,1 L40,2 L47,3 L43,5 L34,4 L2,3 L0,2 Z " fill="#2C2C2C" transform="translate(126,63)"/>
<path d="M0,0 L1,0 L1,18 L0,18 L1,25 L2,30 L4,31 L1,31 L-2,24 L-3,22 L-3,6 L-1,7 Z " fill="#2F2F2F" transform="translate(184,186)"/>
<path d="M0,0 L5,2 L16,3 L16,5 L7,5 L5,7 L3,4 L2,13 L0,16 L-1,11 L-1,3 Z " fill="#FAFAFA" transform="translate(57,245)"/>
<path d="M0,0 L8,0 L16,3 L22,4 L22,5 L16,6 L13,7 L-1,5 L3,2 Z " fill="#565656" transform="translate(173,24)"/>
<path d="M0,0 L14,2 L14,7 L2,7 L3,5 L-1,4 L-2,1 Z " fill="#8A8A8A" transform="translate(189,226)"/>
<path d="M0,0 L1,2 L0,7 L-7,9 L-11,11 L-11,9 L-18,8 L-17,4 L-13,5 L-5,5 Z " fill="#FAFAFA" transform="translate(194,291)"/>
<path d="M0,0 L20,0 L28,1 L28,2 L19,3 L-5,3 L-5,1 Z " fill="#4A4A4A" transform="translate(134,318)"/>
<path d="M0,0 L3,0 L2,6 L4,6 L3,12 L1,12 L2,19 L-1,16 L-2,1 Z " fill="#EEEEEE" transform="translate(60,172)"/>
<path d="M0,0 L7,1 L7,3 L35,3 L35,4 L-6,4 L-4,2 Z " fill="#9B9B9B" transform="translate(233,319)"/>
<path d="M0,0 L4,0 L3,6 L5,7 L-7,8 L-6,2 L-1,1 Z " fill="#BBBBBB" transform="translate(114,225)"/>
<path d="M0,0 L5,4 L0,4 L-1,7 L-1,5 L-7,7 L-9,5 L-11,6 L-11,4 L-15,4 L-14,1 L-4,1 Z " fill="#666666" transform="translate(137,89)"/>
<path d="M0,0 L10,3 L11,6 L1,5 L1,8 L-4,6 L-4,2 Z " fill="#FAFAFA" transform="translate(167,22)"/>
<path d="M0,0 L4,1 L11,1 L17,0 L18,6 L8,5 L3,4 L3,2 L-1,3 L-2,1 Z " fill="#8B8B8B" transform="translate(216,294)"/>
<path d="M0,0 L17,0 L19,4 L13,4 L8,5 L5,4 L5,2 L0,1 Z " fill="#EFEFEF" transform="translate(121,224)"/>
<path d="M0,0 L4,1 L4,3 L9,4 L8,2 L17,5 L18,9 L16,11 L11,8 L1,5 Z " fill="#565656" transform="translate(197,132)"/>
<path d="M0,0 L4,2 L-2,7 L-9,11 L-9,8 L-9,5 L-5,3 L0,2 Z " fill="#5B5B5B" transform="translate(91,116)"/>
<path d="M0,0 L1,0 L2,9 L-2,19 L-3,24 L-11,23 L-10,21 L-4,22 L-5,16 L-1,7 Z " fill="#4C4C4C" transform="translate(70,96)"/>
<path d="M0,0 L21,3 L24,5 L24,7 L13,5 L0,3 Z " fill="#FAFAFA" transform="translate(184,65)"/>
<path d="M0,0 L9,4 L9,5 L1,7 L1,12 L-1,9 L-2,19 L-3,19 L-3,5 L0,6 Z " fill="#2F2F2F" transform="translate(215,251)"/>
<path d="M0,0 L3,1 L5,7 L4,9 L-2,7 L-4,6 L-4,2 Z " fill="#919191" transform="translate(110,188)"/>
<path d="M0,0 L7,4 L15,14 L14,21 L13,17 L11,13 L6,6 L4,5 L2,7 L1,4 L-2,2 L0,2 Z " fill="#404040" transform="translate(244,51)"/>
<path d="M0,0 L2,2 L5,13 L-1,14 L-2,11 L-1,7 L-1,1 Z " fill="#FAFAFA" transform="translate(91,283)"/>
<path d="M0,0 L5,1 L1,2 L1,5 L-3,7 L-10,6 L-11,4 Z " fill="#FAFAFA" transform="translate(203,212)"/>
<path d="M0,0 L10,0 L17,1 L15,4 L5,3 L-6,3 L-2,1 Z " fill="#FAFAFA" transform="translate(252,317)"/>
<path d="M0,0 L3,0 L3,17 L0,19 Z " fill="#929292" transform="translate(98,121)"/>
<path d="M0,0 L6,1 L3,4 L0,4 L-2,5 L-3,7 L-6,6 L-7,4 L-14,3 L-14,2 Z " fill="#474747" transform="translate(126,24)"/>
<path d="M0,0 L5,2 L6,4 L-3,8 L-5,9 L-3,5 L-2,4 L-8,2 L-8,1 Z " fill="#787878" transform="translate(167,299)"/>
<path d="M0,0 L6,4 L5,6 L-2,7 L-9,6 L-6,4 L-1,1 Z " fill="#FAFAFA" transform="translate(180,223)"/>
<path d="M0,0 L2,0 L2,8 L5,9 L2,9 L3,25 L6,27 L3,27 L3,32 L1,28 L0,6 L-1,3 Z " fill="#282828" transform="translate(57,145)"/>
<path d="M0,0 L2,0 L2,12 L-3,17 L-4,18 L-12,18 L-10,16 L-2,14 L-1,12 L-1,1 Z " fill="#313131" transform="translate(193,279)"/>
<path d="M0,0 L4,1 L1,1 L1,5 L7,5 L7,8 L5,8 L5,10 L-4,9 L-8,7 L-6,6 L0,6 Z " fill="#3D3D3D" transform="translate(152,243)"/>
<path d="M0,0 L1,0 L1,16 L-2,12 L-3,4 L-2,1 Z " fill="#FAFAFA" transform="translate(241,237)"/>
<path d="M0,0 L3,1 L3,6 L-5,8 L-7,2 Z " fill="#626262" transform="translate(109,27)"/>
<path d="M0,0 L14,6 L22,5 L23,7 L12,8 L4,4 L0,3 L-1,5 Z " fill="#313131" transform="translate(216,305)"/>
<path d="M0,0 L2,0 L2,3 L4,3 L5,6 L-2,8 L-2,6 L-6,4 Z " fill="#CCCCCC" transform="translate(138,271)"/>
<path d="M0,0 L2,0 L4,2 L4,14 L2,11 L-1,12 L-1,4 Z " fill="#959595" transform="translate(55,256)"/>
<path d="M0,0 L9,1 L6,3 L0,4 L-10,4 L-9,2 Z M9,0 Z " fill="#FAFAFA" transform="translate(153,61)"/>
<path d="M0,0 L2,3 L2,6 L0,6 L-1,10 L-5,11 L-6,6 L-2,3 Z " fill="#343434" transform="translate(139,120)"/>
<path d="M0,0 L6,2 L10,5 L10,7 L11,10 L9,10 L9,8 L2,6 Z " fill="#5A5A5A" transform="translate(138,27)"/>
<path d="M0,0 L5,0 L1,1 L1,4 L13,4 L13,6 L-4,6 L-1,2 Z " fill="#7E7E7E" transform="translate(77,294)"/>
<path d="M0,0 L12,1 L15,4 L13,4 L14,8 L12,8 L12,3 L8,4 L-3,2 Z M11,8 Z " fill="#303030" transform="translate(182,251)"/>
<path d="M0,0 L3,0 L5,6 L5,15 L3,12 L0,5 L-1,1 Z " fill="#9B9B9B" transform="translate(234,207)"/>
<path d="M0,0 L5,2 L6,4 L6,9 L0,8 L-1,2 Z " fill="#FAFAFA" transform="translate(59,145)"/>
<path d="M0,0 L7,0 L8,2 L12,3 L11,5 L4,6 L-5,6 L-3,4 L2,4 L2,2 Z " fill="#2F2F2F" transform="translate(126,108)"/>
<path d="M0,0 L17,1 L26,3 L22,5 L10,3 L1,2 Z " fill="#313131" transform="translate(152,59)"/>
<path d="M0,0 L1,0 L2,14 L16,16 L16,17 L5,18 L5,16 L0,18 L-1,14 Z " fill="#323232" transform="translate(96,278)"/>
<path d="M0,0 L4,1 L4,3 L8,12 L10,12 L11,17 L9,18 L3,8 L1,3 L-1,1 Z " fill="#363636" transform="translate(225,255)"/>
<path d="M0,0 L1,0 L2,9 L3,6 L6,7 L5,13 L1,14 L0,13 Z " fill="#FAFAFA" transform="translate(59,157)"/>
<path d="M0,0 L4,0 L5,3 L-1,6 L-6,6 L-6,4 L-4,4 L-3,1 Z " fill="#E5E5E5" transform="translate(71,75)"/>
<path d="M0,0 L5,0 L4,3 L-4,5 L-11,5 L-7,2 Z " fill="#FAFAFA" transform="translate(105,65)"/>
<path d="M0,0 L16,0 L16,2 L12,3 L4,3 L0,2 Z " fill="#C1C1C1" transform="translate(137,60)"/>
<path d="M0,0 L4,1 L6,3 L1,6 L-2,5 L-6,6 L-3,1 Z " fill="#EAEAEA" transform="translate(240,314)"/>
<path d="M0,0 L6,0 L9,2 L8,7 L4,6 L2,8 L3,1 Z " fill="#9B9B9B" transform="translate(218,310)"/>
<path d="M0,0 L3,1 L4,3 L-14,3 L-16,1 Z " fill="#6C6C6C" transform="translate(154,279)"/>
<path d="M0,0 L2,1 L3,6 L-1,7 L-7,5 L-4,2 Z " fill="#FAFAFA" transform="translate(219,50)"/>
<path d="M0,0 L7,3 L7,5 L9,5 L10,12 L8,10 L8,6 L-4,4 L0,3 Z " fill="#414141" transform="translate(218,231)"/>
<path d="M0,0 L5,2 L6,5 L4,9 L-1,7 Z " fill="#696969" transform="translate(196,78)"/>
<path d="M0,0 L9,3 L14,6 L18,8 L14,9 L6,4 L-2,3 L-6,1 Z " fill="#2F2F2F" transform="translate(218,71)"/>
<path d="M0,0 L14,0 L14,2 L10,2 L9,5 L12,6 L8,6 L8,2 L3,3 L-5,2 L-5,1 Z " fill="#303030" transform="translate(167,294)"/>
<path d="M0,0 L16,1 L18,3 L-2,3 L-3,1 Z " fill="#363636" transform="translate(169,228)"/>
<path d="M0,0 L2,0 L-2,16 L-4,19 L-4,17 L-6,16 L-2,7 Z " fill="#464646" transform="translate(245,96)"/>
<path d="M0,0 L4,2 L6,7 L2,11 L0,7 Z " fill="#FAFAFA" transform="translate(50,100)"/>
<path d="M0,0 L7,1 L9,2 L8,5 L-1,4 L-3,2 Z " fill="#FAFAFA" transform="translate(174,63)"/>
<path d="M0,0 L1,2 L7,1 L14,0 L21,1 L21,2 L10,3 L10,4 L3,5 L-2,1 Z " fill="#303030" transform="translate(136,41)"/>
<path d="M0,0 L10,1 L12,3 L-2,3 L-6,1 Z " fill="#FAFAFA" transform="translate(140,295)"/>
<path d="M0,0 L9,1 L16,0 L16,2 L13,4 L5,4 L-4,2 Z " fill="#484848" transform="translate(163,250)"/>
<path d="M0,0 L6,0 L3,3 L0,5 L-5,6 L-5,1 Z " fill="#474747" transform="translate(127,127)"/>
<path d="M0,0 L3,0 L4,7 L4,12 L1,9 L-2,1 Z " fill="#FAFAFA" transform="translate(229,255)"/>
<path d="M0,0 L4,1 L4,7 L0,10 L-2,1 Z " fill="#636363" transform="translate(230,115)"/>
<path d="M0,0 L6,0 L7,1 L13,0 L11,4 L3,4 L0,2 Z " fill="#F4F4F4" transform="translate(168,88)"/>
<path d="M0,0 L1,4 L-1,10 L-6,8 L-5,3 L-1,2 Z " fill="#5E5E5E" transform="translate(249,86)"/>
<path d="M0,0 L5,1 L3,10 L0,8 Z " fill="#A6A6A6" transform="translate(79,270)"/>
<path d="M0,0 L1,4 L-2,11 L-3,13 L-5,13 L-3,4 Z " fill="#E8E8E8" transform="translate(57,266)"/>
<path d="M0,0 L2,0 L3,4 L5,4 L7,6 L11,7 L6,9 L0,6 Z " fill="#959595" transform="translate(104,237)"/>
<path d="M0,0 L3,0 L6,8 L0,6 L-1,1 Z " fill="#FAFAFA" transform="translate(242,297)"/>
<path d="M0,0 L1,2 L11,2 L17,1 L19,3 L16,4 L1,4 Z " fill="#313131" transform="translate(54,294)"/>
<path d="M0,0 L2,4 L0,19 L-2,18 L-2,5 Z " fill="#313131" transform="translate(57,270)"/>
<path d="M0,0 L3,0 L3,2 L-3,7 L-7,5 L-4,1 Z " fill="#EDEDED" transform="translate(97,247)"/>
<path d="M0,0 L2,2 L1,6 L-4,8 L-7,7 L-5,7 L-4,2 Z " fill="#6F6F6F" transform="translate(96,133)"/>
<path d="M0,0 L2,0 L4,4 L4,9 L6,10 L4,11 L2,15 L0,4 Z " fill="#4B4B4B" transform="translate(45,86)"/>
<path d="M0,0 L2,0 L2,2 L10,3 L13,4 L13,6 L15,7 L12,8 L12,6 L3,5 L-1,2 Z " fill="#434343" transform="translate(166,88)"/>
<path d="M0,0 L1,2 L-1,11 L-4,8 L-5,3 Z " fill="#FAFAFA" transform="translate(239,125)"/>
<path d="M0,0 L3,1 L1,1 L-1,5 L-1,3 L-13,5 L-15,3 Z " fill="#363636" transform="translate(111,62)"/>
<path d="M0,0 L4,2 L-4,5 L-11,8 L-13,5 L-3,2 Z " fill="#383838" transform="translate(90,54)"/>
<path d="M0,0 L3,2 L1,2 L1,4 L5,5 L5,11 L3,13 L-1,2 Z " fill="#3D3D3D" transform="translate(130,29)"/>
<path d="M0,0 L13,1 L9,4 L-4,2 Z " fill="#FAFAFA" transform="translate(157,295)"/>
<path d="M0,0 L2,4 L2,7 L4,7 L4,9 L2,9 L2,17 L0,13 Z " fill="#9D9D9D" transform="translate(49,272)"/>
<path d="M0,0 L9,1 L10,1 L12,2 L11,5 L4,4 L0,2 Z " fill="#303030" transform="translate(63,249)"/>
<path d="M0,0 L2,2 L3,5 L3,13 L1,12 L-1,6 Z " fill="#818181" transform="translate(119,83)"/>
<path d="M0,0 L4,1 L1,1 L0,10 L-2,7 L-3,5 L-5,6 L-5,1 L0,3 Z " fill="#393939" transform="translate(168,27)"/>
<path d="M0,0 L2,3 L3,9 L1,16 L0,16 L-1,5 L0,4 Z " fill="#626262" transform="translate(57,197)"/>
<path d="M0,0 L2,2 L2,12 L0,11 L-1,3 L-3,3 L-2,1 Z " fill="#4C4C4C" transform="translate(62,191)"/>
<path d="M0,0 L1,0 L2,11 L-1,11 L-2,9 L-2,1 Z " fill="#6E6E6E" transform="translate(200,120)"/>
<path d="M0,0 L4,2 L6,11 L8,13 L5,14 L2,7 Z " fill="#383838" transform="translate(229,92)"/>
<path d="M0,0 L1,2 L3,3 L0,5 L0,18 L-2,14 L-3,5 Z " fill="#383838" transform="translate(51,59)"/>
<path d="M0,0 L7,1 L3,4 L-3,5 Z " fill="#FAFAFA" transform="translate(242,305)"/>
<path d="M0,0 L5,2 L14,3 L15,5 L10,6 L2,3 Z " fill="#313131" transform="translate(67,220)"/>
<path d="M0,0 L2,3 L3,9 L0,9 L-1,11 L-2,3 Z " fill="#DCDCDC" transform="translate(60,194)"/>
<path d="M0,0 L4,1 L4,8 L2,10 L0,8 Z " fill="#3E3E3E" transform="translate(235,179)"/>
<path d="M0,0 L2,4 L4,3 L4,11 L0,9 L-1,11 Z " fill="#464646" transform="translate(221,179)"/>
<path d="M0,0 L1,0 L1,9 L0,12 L-5,13 L-4,10 L-2,9 Z " fill="#FAFAFA" transform="translate(97,108)"/>
<path d="M0,0 L3,0 L2,7 L-2,8 L-2,1 Z " fill="#CBCBCB" transform="translate(60,172)"/>
<path d="M0,0 L1,0 L2,14 L-3,14 L-3,12 L-1,11 Z " fill="#393939" transform="translate(65,142)"/>
<path d="M0,0 L3,1 L0,4 L-6,4 L-7,1 Z " fill="#303030" transform="translate(35,318)"/>
<path d="M0,0 L1,0 L1,18 L0,18 L0,12 L-2,12 L-2,8 L0,8 Z " fill="#525252" transform="translate(184,186)"/>
<path d="M0,0 L3,1 L-1,4 L-10,9 L-12,8 L-3,2 Z " fill="#383838" transform="translate(67,45)"/>
<path d="M0,0 L3,4 L2,8 L-3,8 Z " fill="#FAFAFA" transform="translate(164,30)"/>
<path d="M0,0 L1,0 L0,11 L-2,12 L-3,6 L-1,6 L-1,4 L-3,3 Z " fill="#303030" transform="translate(64,178)"/>
<path d="M0,0 L1,0 L2,5 L3,9 L1,9 L0,12 L-2,3 Z " fill="#2B2B2B" transform="translate(56,236)"/>
<path d="M0,0 L2,0 L2,2 L7,1 L7,3 L3,5 L-1,4 L-4,3 Z " fill="#4A4A4A" transform="translate(159,226)"/>
<path d="M0,0 L6,5 L2,8 L0,8 Z " fill="#FAFAFA" transform="translate(106,182)"/>
<path d="M0,0 L6,0 L11,3 L12,5 L3,3 Z " fill="#4A4A4A" transform="translate(227,82)"/>
<path d="M0,0 L8,1 L4,3 L-4,3 L-3,1 Z " fill="#FAFAFA" transform="translate(192,315)"/>
<path d="M0,0 L9,1 L7,3 L4,3 L3,6 L3,3 L-2,2 Z " fill="#3A3A3A" transform="translate(94,306)"/>
<path d="M0,0 L1,0 L2,10 L-2,9 L0,9 L-1,7 L-1,1 Z " fill="#434343" transform="translate(245,274)"/>
<path d="M0,0 L2,1 L2,13 L-1,12 L1,12 L0,3 L-2,1 Z " fill="#303030" transform="translate(94,253)"/>
<path d="M0,0 L1,0 L2,6 L4,6 L4,10 L2,10 L2,13 L0,12 Z " fill="#242424" transform="translate(56,205)"/>
<path d="M0,0 L1,4 L6,5 L3,6 L1,14 L0,14 Z " fill="#3B3B3B" transform="translate(105,176)"/>
<path d="M0,0 L8,3 L6,5 L1,5 Z " fill="#646464" transform="translate(202,115)"/>
<path d="M0,0 L2,0 L1,4 L4,5 L-2,7 L-2,2 Z " fill="#FAFAFA" transform="translate(64,77)"/>
<path d="M0,0 L5,0 L5,2 L-2,4 L-4,6 L-4,4 L-6,3 Z " fill="#434343" transform="translate(70,73)"/>
<path d="M0,0 L6,5 L7,11 L5,13 L3,6 L-1,1 Z " fill="#3A3A3A" transform="translate(247,58)"/>
<path d="M0,0 L3,0 L4,4 L2,12 L0,8 L2,1 Z " fill="#3A3A3A" transform="translate(141,94)"/>
<path d="M0,0 L3,0 L3,3 L5,4 L1,5 L-5,2 L-5,1 Z " fill="#4B4B4B" transform="translate(208,50)"/>
<path d="M0,0 L9,1 L5,3 L-1,3 Z " fill="#FAFAFA" transform="translate(143,315)"/>
<path d="M0,0 L6,2 L4,4 L-4,5 L-3,3 L1,2 Z " fill="#3B3B3B" transform="translate(73,160)"/>
<path d="M0,0 L4,1 L4,3 L9,5 L5,6 L1,5 Z " fill="#3B3B3B" transform="translate(197,132)"/>
<path d="M0,0 L4,2 L5,5 L0,6 Z " fill="#FAFAFA" transform="translate(45,80)"/>
<path d="M0,0 L3,1 L0,6 L-6,5 L-6,4 L-1,3 L-2,1 Z " fill="#434343" transform="translate(100,48)"/>
<path d="M0,0 L1,0 L2,16 L-1,16 Z " fill="#484848" transform="translate(96,278)"/>
<path d="M0,0 L7,0 L8,4 L4,3 L0,2 Z " fill="#292929" transform="translate(150,277)"/>
<path d="M0,0 L2,2 L0,11 L-1,11 L-1,2 Z " fill="#2F2F2F" transform="translate(52,268)"/>
<path d="M0,0 L3,1 L4,4 L1,5 L-3,2 Z " fill="#FAFAFA" transform="translate(136,246)"/>
<path d="M0,0 L11,1 L11,2 L6,3 L4,5 L4,3 L0,3 Z " fill="#303030" transform="translate(122,90)"/>
<path d="M0,0 L0,3 L3,9 L0,9 L-2,6 L-1,1 Z " fill="#FAFAFA" transform="translate(199,40)"/>
<path d="M0,0 L5,0 L6,2 L6,9 L4,8 L4,2 L2,2 L1,4 Z " fill="#3A3A3A" transform="translate(198,31)"/>
<path d="M0,0 L3,1 L-2,6 L-3,3 Z " fill="#FAFAFA" transform="translate(49,295)"/>
<path d="M0,0 L3,0 L2,9 L1,9 L-1,1 Z " fill="#FAFAFA" transform="translate(93,266)"/>
<path d="M0,0 L5,1 L5,4 L1,5 Z " fill="#7A7A7A" transform="translate(133,126)"/>
<path d="M0,0 L1,2 L3,2 L3,10 L2,10 L1,5 L-2,5 Z " fill="#3C3C3C" transform="translate(139,104)"/>
<path d="M0,0 L2,0 L0,5 L-4,8 L-6,6 L-3,5 Z " fill="#464646" transform="translate(185,81)"/>
<path d="M0,0 L1,2 L4,3 L-1,4 L-1,10 L-2,10 L-2,1 Z " fill="#464646" transform="translate(46,76)"/>
<path d="M0,0 L9,1 L9,2 L-1,4 L-2,2 L0,2 Z " fill="#454545" transform="translate(128,59)"/>
<path d="M0,0 L6,1 L6,4 L2,5 Z " fill="#FAFAFA" transform="translate(241,283)"/>
<path d="M0,0 L5,1 L8,3 L1,4 Z M1,2 Z " fill="#757575" transform="translate(216,253)"/>
<path d="M0,0 L8,1 L7,3 L1,4 Z " fill="#FAFAFA" transform="translate(191,243)"/>
<path d="M0,0 L10,4 L6,6 L0,2 Z " fill="#3D3D3D" transform="translate(226,74)"/>
<path d="M0,0 L6,0 L6,3 L7,6 L5,6 L5,4 L1,3 Z " fill="#727272" transform="translate(142,31)"/>
<path d="M0,0 L7,1 L5,3 L-3,2 Z " fill="#484848" transform="translate(93,296)"/>
<path d="M0,0 L2,0 L2,2 L-4,6 L-6,4 Z " fill="#3D3D3D" transform="translate(138,271)"/>
<path d="M0,0 L2,1 L1,6 L-3,4 Z " fill="#FAFAFA" transform="translate(80,256)"/>
<path d="M0,0 L1,0 L3,8 L2,12 L-1,6 Z " fill="#3D3D3D" transform="translate(62,203)"/>
<path d="M0,0 L2,0 L2,3 L-2,4 L-3,6 L-4,3 Z " fill="#FAFAFA" transform="translate(222,192)"/>
<path d="M0,0 L2,4 L4,6 L2,6 L1,10 L0,9 Z " fill="#2E2E2E" transform="translate(60,157)"/>
<path d="M0,0 L1,0 L2,9 L1,11 L-1,11 Z " fill="#535353" transform="translate(70,96)"/>
<path d="M0,0 L2,0 L0,9 L-2,9 L-1,1 Z M-3,9 Z " fill="#303030" transform="translate(245,96)"/>
</svg>
