<?xml version="1.0" encoding="UTF-8"?>
<!-- Generator: visioncortex VTracer 0.6.12 -->
<svg xmlns:xlink="http://www.w3.org/1999/xlink" xmlns:sodipodi="http://sodipodi.sourceforge.net/DTD/sodipodi-0.0.dtd" xmlns:inkscape="http://www.inkscape.org/namespaces/inkscape" version="1.1" xmlns="http://www.w3.org/2000/svg" width="252" height="344">
<path d="M0,0 L252,0 L252,344 L0,344 Z M164,25 L151,32 L146,38 L147,41 L153,43 L157,41 L166,41 L175,44 L173,49 L171,53 L168,55 L167,59 L163,59 L163,57 L156,55 L153,54 L151,48 L150,46 L148,46 L148,44 L145,42 L140,43 L140,45 L135,46 L131,49 L133,50 L129,52 L129,55 L125,55 L125,65 L128,70 L134,68 L140,67 L144,68 L142,73 L141,74 L143,78 L145,77 L147,81 L150,79 L150,77 L166,75 L164,73 L170,73 L178,68 L187,68 L177,71 L163,79 L157,86 L155,88 L153,89 L153,92 L151,93 L155,95 L162,94 L168,96 L171,93 L171,91 L180,91 L180,89 L190,90 L190,92 L181,92 L184,97 L189,101 L192,95 L192,91 L201,92 L206,97 L211,98 L211,89 L206,70 L203,56 L199,52 L197,51 L204,47 L200,43 L180,44 L180,42 L198,41 L196,39 L194,32 L186,27 L177,25 Z M121,52 L119,57 L119,64 L122,72 L126,73 L123,63 L123,54 Z M212,73 L210,75 L219,95 L221,100 L223,98 L222,91 L214,75 Z M196,97 L192,104 L188,106 L183,100 L179,98 L175,99 L177,100 L176,118 L174,120 L174,132 L170,137 L166,149 L158,166 L151,175 L150,180 L147,180 L140,188 L139,189 L139,197 L152,197 L170,192 L170,189 L177,188 L187,183 L196,176 L196,173 L199,173 L201,169 L206,164 L212,155 L216,144 L217,140 L216,130 L218,130 L218,123 L215,112 L213,108 L210,105 L210,108 L207,101 L205,101 L205,99 Z M139,99 L129,103 L127,105 L124,107 L115,113 L115,117 L111,117 L104,125 L97,133 L94,139 L100,140 L100,142 L93,142 L87,145 L86,147 L83,150 L82,153 L78,158 L73,166 L72,173 L80,177 L70,177 L64,184 L59,195 L56,209 L56,213 L51,213 L54,192 L52,192 L51,190 L47,210 L46,226 L44,235 L46,237 L50,228 L50,225 L60,226 L67,218 L72,214 L72,212 L81,212 L81,217 L85,218 L92,213 L105,213 L109,210 L103,210 L103,207 L111,208 L114,208 L122,201 L132,192 L142,179 L151,162 L158,148 L164,130 L165,125 L165,114 L161,105 L156,100 L152,99 Z M167,198 L156,203 L151,204 L132,203 L122,210 L122,213 L120,212 L119,217 L121,219 L123,223 L126,230 L129,242 L132,242 L136,236 L140,221 L155,216 L166,208 L171,202 L171,200 L169,200 L169,198 Z M188,204 L183,208 L179,212 L176,213 L172,217 L166,219 L161,222 L162,230 L167,231 L170,228 L176,225 L185,214 L185,212 L188,211 L189,204 Z M94,218 L83,226 L78,227 L77,220 L70,220 L71,222 L64,230 L61,231 L62,237 L66,236 L65,241 L62,240 L50,240 L48,244 L45,248 L44,255 L50,258 L43,260 L39,261 L30,280 L30,289 L32,290 L42,290 L52,288 L63,280 L71,275 L77,268 L77,266 L79,265 L77,260 L82,259 L82,257 L85,258 L87,255 L86,253 L89,254 L92,248 L88,242 L92,243 L95,244 L99,235 L101,228 L100,223 L96,218 Z M144,225 L139,231 L140,248 L142,258 L141,266 L132,267 L128,269 L128,271 L123,272 L120,274 L120,283 L122,289 L127,284 L133,279 L133,277 L146,277 L148,283 L153,289 L156,290 L159,280 L160,277 L172,276 L182,280 L184,282 L189,283 L190,281 L190,272 L184,268 L166,267 L160,265 L155,259 L153,259 L154,256 L154,233 L152,226 Z M43,235 Z M196,272 L195,275 L193,273 L192,285 L192,307 L194,311 L196,307 L197,284 L197,272 Z M166,280 L162,286 L161,295 L154,295 L148,290 L147,288 L133,287 L134,286 L143,285 L142,282 L135,283 L127,290 L126,294 L126,302 L129,309 L133,313 L142,315 L163,315 L163,313 L177,314 L185,311 L187,309 L187,298 L185,293 L179,284 L168,280 Z M54,293 L47,296 L28,298 L32,300 L47,300 L54,297 L56,293 Z M173,320 L165,321 L147,321 L150,323 L167,323 L203,322 L203,321 L180,320 Z M144,72 Z M198,169 Z " fill="#F5F4F4" transform="translate(0,0)"/>
<path d="M0,0 L9,2 L9,4 L11,4 L14,11 L15,8 L18,14 L20,17 L22,26 L22,33 L20,33 L21,44 L17,56 L11,66 L6,72 L4,72 L3,76 L-1,77 L0,79 L-12,88 L-21,92 L-26,92 L-26,94 L-34,94 L-56,99 L-57,92 L-50,85 L-48,83 L-46,83 L-44,77 L-37,67 L-29,50 L-25,38 L-22,35 L-22,23 L-20,21 L-19,3 L-21,2 L-17,1 L-11,5 L-7,9 L-2,4 Z M2,72 Z " fill="#F8F8F8" transform="translate(196,97)"/>
<path d="M0,0 L8,1 L10,8 L10,31 L9,34 L13,36 L18,41 L22,42 L40,43 L46,47 L46,56 L44,58 L39,57 L36,54 L28,51 L16,52 L14,57 L12,65 L7,62 L2,54 L1,52 L-11,52 L-11,54 L-17,59 L-22,64 L-24,58 L-24,49 L-20,46 L-16,46 L-16,44 L-7,41 L-3,41 L-2,33 L-4,23 L-5,6 Z " fill="#DAD6CA" transform="translate(144,225)"/>
<path d="M0,0 L24,0 L23,6 L15,16 L13,17 L13,15 L-56,15 L-54,9 L-49,4 L-39,4 L-42,2 L0,3 Z M5,2 L3,3 L-35,3 L-36,5 L20,5 L20,3 L22,2 Z M-49,7 L-49,8 L18,8 L18,7 Z M-53,10 L-54,13 L15,13 L16,10 Z " fill="#967758" transform="translate(119,173)"/>
<path d="M0,0 L45,1 L45,11 L-9,12 L45,13 L45,14 L-12,14 L-10,10 L-6,6 L-3,6 L-3,2 Z " fill="#C5B3A1" transform="translate(118,111)"/>
<path d="M0,0 L19,0 L19,1 L12,3 L12,12 L58,12 L58,13 L40,14 L40,23 L9,22 L9,21 L3,21 L0,16 L-1,12 L-1,4 Z " fill="#B6A28F" transform="translate(127,290)"/>
<path d="M0,0 L4,1 L6,2 L6,4 L8,4 L11,10 L11,12 L21,15 L21,17 L27,17 L27,19 L35,24 L33,28 L28,31 L22,31 L24,33 L8,35 L8,37 L4,39 L3,35 L0,36 L-1,32 L0,31 L2,26 L-2,24 L18,24 L9,18 L6,14 L6,11 L4,11 L4,7 L2,7 L1,2 L-2,3 L-2,1 Z M2,30 Z " fill="#D4D1CA" transform="translate(142,42)"/>
<path d="M0,0 L54,1 L54,8 L51,11 L49,10 L-17,10 L-20,10 L-18,5 L-16,4 L-14,2 L-1,2 Z M-15,6 L-15,7 L51,7 L51,6 Z " fill="#B39B83" transform="translate(103,142)"/>
<path d="M0,0 L42,0 L45,5 L41,10 L39,9 L40,12 L37,14 L31,13 L28,11 L2,10 L3,13 L-3,11 L-1,2 Z " fill="#D3978B" transform="translate(47,244)"/>
<path d="M0,0 L2,0 L3,5 L5,5 L5,9 L7,9 L11,16 L20,21 L19,23 L-5,23 L-11,26 L-14,25 L-16,19 L-16,11 L-12,11 L-11,8 L-8,6 L-10,4 Z " fill="#E7E4DA" transform="translate(141,44)"/>
<path d="M0,0 L1,3 L66,3 L66,1 L69,2 L64,7 L60,10 L60,8 L38,9 L15,9 L15,10 L-2,11 L-2,4 Z " fill="#A98F75" transform="translate(61,191)"/>
<path d="M0,0 L36,1 L36,8 L33,14 L29,12 L23,13 L5,12 L4,7 L0,7 L-1,1 Z " fill="#D29A8F" transform="translate(62,230)"/>
<path d="M0,0 L4,1 L0,3 L26,4 L27,0 L29,7 L28,12 L-15,12 L-15,8 Z " fill="#B39F8B" transform="translate(179,70)"/>
<path d="M0,0 L1,3 L46,2 L48,10 L48,19 L42,17 L36,11 L29,11 L29,7 L-4,8 L-7,10 L-8,8 L-3,4 Z " fill="#A38C75" transform="translate(163,79)"/>
<path d="M0,0 L3,1 L7,6 L6,13 L4,17 L4,13 L-30,13 L-24,6 L-24,3 L-24,2 L-17,2 L-16,9 L-9,7 Z " fill="#BA7B6D" transform="translate(94,218)"/>
<path d="M0,0 L2,0 L1,6 L-4,15 L-5,13 L-21,13 L-23,11 L-20,8 L-27,7 L-29,5 L-29,2 L0,2 Z " fill="#AF9982" transform="translate(148,160)"/>
<path d="M0,0 L4,0 L4,2 L40,2 L40,4 L38,5 L37,9 L32,13 L31,11 L32,9 L-2,9 L-4,10 L-2,4 Z " fill="#CC8C7F" transform="translate(39,261)"/>
<path d="M0,0 L60,0 L60,3 L35,3 L35,5 L-3,5 Z " fill="#C6B5A4" transform="translate(102,127)"/>
<path d="M0,0 L34,0 L35,11 L13,11 L13,10 L22,9 L34,9 L34,6 L16,7 L5,7 L-1,3 Z " fill="#AD9680" transform="translate(170,59)"/>
<path d="M0,0 L21,0 L19,5 L26,5 L27,8 L16,9 L9,14 L5,13 L5,8 L-4,8 L-2,3 Z " fill="#A89480" transform="translate(76,204)"/>
<path d="M0,0 L1,3 L-1,8 L-3,8 L-5,13 L-13,22 L-21,26 L-25,27 L-27,22 L-27,18 L-21,14 L-16,13 L-11,8 L-7,7 L-2,2 Z " fill="#F9F9F8" transform="translate(188,204)"/>
<path d="M0,0 L13,0 L11,5 L3,10 L-22,9 L-22,11 L-14,12 L-14,13 L-6,13 L-4,15 L-16,16 L-22,16 L-24,15 L-24,6 L-7,5 L-2,1 Z " fill="#BC8173" transform="translate(54,274)"/>
<path d="M0,0 L38,0 L36,4 L19,5 L16,6 L7,6 L1,8 L-3,6 L-4,3 Z " fill="#B19D8B" transform="translate(150,35)"/>
<path d="M0,0 L2,0 L2,2 L4,3 L2,7 L-5,13 L-6,11 L-40,11 L-39,9 L-16,8 L-16,6 L-7,3 Z " fill="#A6917C" transform="translate(167,198)"/>
<path d="M0,0 L12,0 L12,12 L9,19 L5,23 L3,20 L2,15 L2,5 L-1,1 Z " fill="#A8937F" transform="translate(125,220)"/>
<path d="M0,0 Z M-2,1 L26,2 L26,6 L-20,6 L-19,2 Z " fill="#CBBAA9" transform="translate(159,296)"/>
<path d="M0,0 L25,0 L24,9 L23,11 L7,11 L9,10 L8,4 L9,3 L1,2 L0,4 Z " fill="#A89079" transform="translate(137,130)"/>
<path d="M0,0 L1,3 L-3,10 L-4,7 L-76,8 L-74,3 L-72,1 L-71,3 L-72,5 L-3,4 Z M-71,1 Z " fill="#947556" transform="translate(154,152)"/>
<path d="M0,0 L1,0 L2,5 L4,7 L-14,8 L-14,10 L7,9 L8,12 L-15,13 L-20,18 L-22,17 L-19,12 L-19,10 L-25,8 L-25,6 L-27,5 L-8,4 L-4,1 Z " fill="#8D735A" transform="translate(194,34)"/>
<path d="M0,0 L41,0 L41,4 L-2,4 Z " fill="#C4B3A2" transform="translate(122,108)"/>
<path d="M0,0 L2,2 L2,13 L0,20 L-1,17 L-3,16 L-60,15 L-57,12 L0,13 Z " fill="#8E7053" transform="translate(163,112)"/>
<path d="M0,0 L13,0 L22,2 L24,4 L23,6 L-8,6 L-8,4 Z " fill="#A4917E" transform="translate(164,25)"/>
<path d="M0,0 L21,0 L23,7 L0,7 L1,3 Z " fill="#DFA69B" transform="translate(53,255)"/>
<path d="M0,0 L70,1 L69,5 L67,5 L67,3 L0,3 Z " fill="#9C7C5D" transform="translate(62,188)"/>
<path d="M0,0 L1,4 L30,4 L30,6 L20,9 L18,15 L17,15 L16,9 L5,9 L6,11 L15,12 L15,13 L7,13 L7,18 L5,14 L2,10 L1,7 L-1,4 Z " fill="#947D67" transform="translate(120,212)"/>
<path d="M0,0 L39,0 L39,1 L18,1 L16,6 L13,9 L-1,8 L-1,3 Z " fill="#CCBBAA" transform="translate(60,199)"/>
<path d="M0,0 L33,0 L32,4 L27,5 L-2,4 Z " fill="#C3B2A1" transform="translate(123,212)"/>
<path d="M0,0 L69,0 L69,2 L-1,2 Z " fill="#A07F5E" transform="translate(83,154)"/>
<path d="M0,0 L34,0 L34,4 L-1,4 Z " fill="#CDBCAC" transform="translate(99,132)"/>
<path d="M0,0 L36,0 L36,3 L38,4 L5,4 L2,3 L2,1 Z " fill="#CDBCAC" transform="translate(98,137)"/>
<path d="M0,0 L20,0 L19,7 L8,7 L8,9 L3,9 L2,1 Z " fill="#C4B09C" transform="translate(165,303)"/>
<path d="M0,0 L1,0 L1,12 L0,35 L-2,39 L-4,35 L-4,13 L-3,1 L-1,3 Z " fill="#AA9E87" transform="translate(196,272)"/>
<path d="M0,0 L1,3 L-1,6 L39,6 L39,3 L42,3 L45,10 L42,11 L42,8 L40,8 L39,12 L38,8 L-2,9 L-4,11 L-3,5 Z " fill="#85694E" transform="translate(77,159)"/>
<path d="M0,0 L14,0 L13,7 L11,9 L-2,9 Z " fill="#C1AF9C" transform="translate(59,207)"/>
<path d="M0,0 L26,0 L33,4 L33,5 L28,6 L29,9 L-6,9 L-6,6 L1,4 Z M4,1 L4,5 L4,8 L27,8 L25,1 Z " fill="#A55E4E" transform="translate(49,254)"/>
<path d="M0,0 L40,0 L40,3 L-1,3 Z M-2,3 Z " fill="#DACFC3" transform="translate(75,167)"/>
<path d="M0,0 L39,0 L39,3 L-1,3 Z " fill="#BEA892" transform="translate(77,162)"/>
<path d="M0,0 L33,0 L32,4 L21,3 L21,5 L13,5 L13,3 L-2,3 Z " fill="#B39D88" transform="translate(159,86)"/>
<path d="M0,0 L2,1 L24,0 L36,1 L36,5 L31,7 L32,4 L20,4 L12,8 L12,3 L0,3 L-1,5 Z " fill="#9D5C4D" transform="translate(34,271)"/>
<path d="M0,0 L22,0 L20,2 L12,6 L-5,6 L-3,2 Z " fill="#CDBDAD" transform="translate(179,46)"/>
<path d="M0,0 L41,0 L41,3 L7,3 L-1,2 Z M6,3 Z " fill="#BBA58E" transform="translate(78,173)"/>
<path d="M0,0 L2,2 L-5,6 L-1,8 L1,11 L0,14 L0,12 L-34,12 L-34,9 L-31,8 L-30,9 L-5,9 L-11,7 L-8,4 Z " fill="#82664C" transform="translate(202,45)"/>
<path d="M0,0 L35,0 L35,3 L30,5 L30,3 L-2,3 Z " fill="#B6A08B" transform="translate(126,209)"/>
<path d="M0,0 L1,2 L3,2 L1,15 L-1,15 L-2,40 L-5,47 L-7,43 L-5,36 L-4,20 Z M-8,45 Z " fill="#D0CBC1" transform="translate(51,190)"/>
<path d="M0,0 L30,0 L32,2 L32,5 L11,5 L0,2 Z " fill="#7F634A" transform="translate(131,310)"/>
<path d="M0,0 L2,1 L1,5 L19,5 L22,7 L-16,7 L-16,3 L-4,3 L-1,4 Z " fill="#AE5B4A" transform="translate(66,237)"/>
<path d="M0,0 L1,0 L1,10 L-1,16 L11,16 L5,23 L2,26 L-1,26 L-3,21 L-3,14 Z " fill="#806B58" transform="translate(58,200)"/>
<path d="M0,0 L1,2 L38,1 L39,4 L2,4 L0,6 L-11,5 L-9,3 L-2,3 L-2,1 Z " fill="#876B4F" transform="translate(102,139)"/>
<path d="M0,0 L54,0 L54,2 L-1,2 Z " fill="#A07F5E" transform="translate(109,122)"/>
<path d="M0,0 L4,1 L-4,5 L20,5 L22,1 L27,6 L27,8 L-11,8 L-9,6 L-6,3 Z " fill="#8B6E52" transform="translate(135,100)"/>
<path d="M0,0 L4,1 L7,3 L7,6 L4,5 L-35,5 L-39,8 L-37,4 L-33,1 L0,2 Z " fill="#8B6E51" transform="translate(187,29)"/>
<path d="M0,0 L3,0 L3,5 L15,6 L15,8 L10,10 L10,9 L2,8 L2,11 L8,11 L4,14 L2,14 L1,10 L-6,10 L-6,9 L0,9 L1,2 L-2,2 L-3,4 L-3,2 L-21,2 L-20,6 L-24,5 L-23,1 Z " fill="#795F46" transform="translate(101,199)"/>
<path d="M0,0 L37,0 L34,1 L34,3 L15,3 L-2,4 Z " fill="#E9C4BD" transform="translate(37,269)"/>
<path d="M0,0 L5,0 L6,3 L-3,4 L-4,5 L10,6 L14,12 L11,12 L3,11 L3,19 L2,19 L1,11 L3,9 L-9,8 L-4,2 Z " fill="#7D6249" transform="translate(137,282)"/>
<path d="M0,0 L17,0 L16,4 L12,7 L0,6 L-1,2 Z " fill="#C1B09F" transform="translate(104,199)"/>
<path d="M0,0 L44,0 L45,2 L6,3 L5,5 L0,3 Z " fill="#98795A" transform="translate(72,170)"/>
<path d="M0,0 L22,0 L22,4 L-5,4 L-3,1 Z " fill="#C7B5A2" transform="translate(183,70)"/>
<path d="M0,0 L24,1 L24,4 L21,6 L5,6 L1,4 Z " fill="#CE8B7E" transform="translate(31,282)"/>
<path d="M0,0 L19,0 L17,5 L13,7 L9,5 L0,6 L-2,3 L0,3 Z " fill="#9F8D7C" transform="translate(153,89)"/>
<path d="M0,0 L12,0 L12,5 L26,5 L26,6 L-3,6 L-2,2 L0,2 Z " fill="#DDB1A8" transform="translate(34,274)"/>
<path d="M0,0 L12,0 L11,8 L-1,8 L-1,2 Z " fill="#C2AD99" transform="translate(163,288)"/>
<path d="M0,0 L2,0 L3,2 L4,0 L11,0 L11,3 L9,4 L10,6 L-40,6 L-40,5 L0,5 Z " fill="#D3C9C1" transform="translate(117,167)"/>
<path d="M0,0 L17,0 L15,1 L15,3 L-41,3 L-41,2 L-2,1 Z " fill="#E9E2DC" transform="translate(124,175)"/>
<path d="M0,0 L4,5 L11,20 L10,27 L8,25 L3,13 L-2,2 Z " fill="#BCB7AE" transform="translate(212,73)"/>
<path d="M0,0 L1,0 L1,8 L6,8 L6,16 L7,20 L0,20 L-1,23 L-1,8 Z " fill="#9A8571" transform="translate(50,205)"/>
<path d="M0,0 L22,0 L21,7 L15,7 L17,3 L1,4 Z " fill="#C1AD99" transform="translate(80,201)"/>
<path d="M0,0 L8,1 L4,3 L-10,7 L-23,7 L-22,3 L-21,5 Z " fill="#A8A197" transform="translate(162,190)"/>
<path d="M0,0 L4,3 L5,7 L5,18 L-1,22 L-11,23 L-15,22 L-15,17 L-14,21 L-9,21 L-9,19 L2,19 L2,5 Z " fill="#6A5442" transform="translate(182,291)"/>
<path d="M0,0 L1,0 L1,5 L9,5 L11,9 L-15,9 L-15,6 L-13,6 L-13,1 L-12,1 L-12,7 L0,7 Z " fill="#967C62" transform="translate(174,289)"/>
<path d="M0,0 L40,0 L38,3 L-1,2 Z " fill="#CBBBAA" transform="translate(152,33)"/>
<path d="M0,0 L16,0 L19,9 L11,9 L11,3 L0,3 Z " fill="#C8BAAD" transform="translate(164,285)"/>
<path d="M0,0 L24,0 L26,3 L-2,3 Z " fill="#DCD1C6" transform="translate(132,103)"/>
<path d="M0,0 L6,0 L7,2 L-1,2 L-2,8 L-5,12 L-12,4 L-12,3 L-3,3 L-3,1 Z " fill="#957F6A" transform="translate(193,89)"/>
<path d="M0,0 L4,1 L7,2 L7,4 L20,5 L19,12 L18,12 L18,7 L2,7 L1,4 L-4,3 L0,2 Z " fill="#866B50" transform="translate(139,136)"/>
<path d="M0,0 L25,0 L25,1 L11,2 L11,6 L6,6 L4,4 L4,6 L0,6 L-1,1 Z " fill="#CCBFB2" transform="translate(135,132)"/>
<path d="M0,0 L35,0 L35,2 L2,3 L0,2 Z M1,3 Z " fill="#C9B7A5" transform="translate(167,57)"/>
<path d="M0,0 L69,1 L69,2 L-1,2 Z " fill="#A07F5E" transform="translate(79,159)"/>
<path d="M0,0 L13,0 L17,1 L17,4 L-4,4 L-3,2 L0,2 Z " fill="#8A7057" transform="translate(139,99)"/>
<path d="M0,0 L20,0 L25,2 L25,3 L-1,3 Z " fill="#C0AC97" transform="translate(173,52)"/>
<path d="M0,0 L16,0 L30,1 L30,2 L-6,3 L-23,3 L-26,1 L-8,1 Z " fill="#847A62" transform="translate(173,320)"/>
<path d="M0,0 L8,0 L14,2 L19,3 L17,5 L0,5 Z " fill="#AA947F" transform="translate(140,293)"/>
<path d="M0,0 L70,0 L70,1 L0,1 Z " fill="#FAFAFA" transform="translate(78,161)"/>
<path d="M0,0 L70,0 L70,1 L0,1 Z " fill="#FAFAFA" transform="translate(80,159)"/>
<path d="M0,0 L69,0 L69,1 L0,1 Z " fill="#FAFAFA" transform="translate(65,185)"/>
<path d="M0,0 L69,0 L69,1 L0,1 Z " fill="#A07F5E" transform="translate(65,184)"/>
<path d="M0,0 L69,0 L69,1 L0,1 Z " fill="#FAFAFA" transform="translate(66,183)"/>
<path d="M0,0 L69,0 L69,1 L0,1 Z " fill="#FAFAFA" transform="translate(82,156)"/>
<path d="M0,0 L69,0 L69,1 L0,1 Z " fill="#FAFAFA" transform="translate(84,153)"/>
<path d="M0,0 L68,0 L68,1 L0,1 Z " fill="#FAFAFA" transform="translate(64,188)"/>
<path d="M0,0 L1,2 L0,4 L35,4 L35,0 L37,1 L38,8 L36,8 L36,5 L2,6 L2,8 L-4,7 Z " fill="#7B6046" transform="translate(98,132)"/>
<path d="M0,0 L9,2 L13,5 L10,7 L-2,8 L-4,10 L-3,4 Z " fill="#7B6148" transform="translate(166,280)"/>
<path d="M0,0 L67,0 L67,1 L0,1 Z " fill="#FAFAFA" transform="translate(70,180)"/>
<path d="M0,0 L67,0 L67,1 L0,1 Z " fill="#A07F5E" transform="translate(85,152)"/>
<path d="M0,0 L67,0 L67,1 L0,1 Z " fill="#FAFAFA" transform="translate(86,151)"/>
<path d="M0,0 L2,1 L-3,6 L-7,7 L-22,7 L-26,5 L-7,3 Z " fill="#B9B3A9" transform="translate(54,293)"/>
<path d="M0,0 L19,2 L19,3 L-4,5 L-9,9 L-10,7 Z " fill="#725A45" transform="translate(132,203)"/>
<path d="M0,0 L65,1 L65,2 L0,2 Z " fill="#A07F5E" transform="translate(62,191)"/>
<path d="M0,0 L66,0 L66,1 L0,1 Z " fill="#FAFAFA" transform="translate(63,191)"/>
<path d="M0,0 L66,0 L66,1 L0,1 Z " fill="#FAFAFA" transform="translate(88,148)"/>
<path d="M0,0 L65,0 L65,1 L0,1 Z " fill="#FAFAFA" transform="translate(62,193)"/>
<path d="M0,0 L18,0 L18,3 L5,4 L1,3 L-10,3 L-9,1 Z " fill="#B4A69A" transform="translate(186,65)"/>
<path d="M0,0 L2,2 L2,11 L5,21 L1,20 L-2,12 L-2,5 Z " fill="#BBB5AC" transform="translate(121,52)"/>
</svg>
