<?xml version="1.0" encoding="UTF-8"?>
<!-- Generator: visioncortex VTracer 0.6.12 -->
<svg xmlns:xlink="http://www.w3.org/1999/xlink" xmlns:sodipodi="http://sodipodi.sourceforge.net/DTD/sodipodi-0.0.dtd" xmlns:inkscape="http://www.inkscape.org/namespaces/inkscape" version="1.1" xmlns="http://www.w3.org/2000/svg" width="312" height="342">
<path d="M0,0 L312,0 L312,342 L0,342 Z M108,39 L103,43 L102,52 L104,68 L106,89 L112,99 L113,102 L104,99 L102,105 L107,111 L114,112 L113,126 L115,131 L115,138 L120,141 L122,141 L123,137 L121,137 L119,133 L117,134 L118,130 L116,126 L116,114 L115,110 L107,109 L105,103 L113,105 L116,101 L109,87 L108,83 L107,67 L105,55 L105,43 L110,41 Z M55,54 L53,64 L56,69 L57,67 L56,63 L63,61 L65,62 L66,59 L63,59 L63,57 L67,58 L68,56 L66,55 Z M69,63 L67,69 L64,68 L65,71 L67,70 L68,74 L65,74 L63,79 L66,77 L69,77 L68,85 L66,89 L67,94 L73,107 L74,105 L77,104 L80,96 L80,86 L75,79 L72,72 L73,68 Z M33,75 L30,77 L30,80 L32,80 L32,82 L40,86 L46,87 L52,84 L57,84 L54,91 L51,97 L51,99 L49,99 L46,102 L45,106 L41,104 L31,108 L29,110 L25,114 L23,121 L24,127 L30,126 L30,124 L39,122 L50,116 L49,126 L52,134 L59,142 L61,138 L62,126 L59,118 L53,108 L54,99 L59,88 L59,85 L61,85 L63,79 L60,78 L53,80 L52,78 L52,80 Z M240,171 L230,175 L233,176 L235,180 L258,190 L264,191 L264,188 L254,179 L245,173 L245,171 Z M143,181 L142,189 L144,189 L145,193 L145,204 L138,215 L128,217 L116,217 L109,220 L108,223 L120,230 L122,230 L123,237 L125,234 L133,238 L143,240 L171,240 L175,238 L177,236 L166,232 L154,226 L152,222 L156,218 L156,216 L158,216 L160,208 L160,198 L163,194 L163,187 L155,184 Z M196,220 L195,223 L212,234 L219,236 L219,238 L224,239 L247,239 L247,238 L261,238 L264,235 L267,232 L265,228 L259,225 L254,224 L235,223 L235,226 L233,222 L225,223 L214,220 Z M64,223 L53,226 L51,232 L59,236 L63,237 L88,237 L85,232 L81,230 L79,228 L74,224 Z M167,254 L165,260 L166,264 L171,266 L172,314 L174,319 L181,319 L181,256 L177,254 Z M87,255 L84,258 L84,261 L91,263 L92,265 L92,318 L100,319 L100,259 L98,255 L96,255 Z M126,267 L124,271 L125,281 L127,286 L138,286 L139,279 L141,275 L140,270 L134,267 Z M212,287 L210,291 L208,291 L209,301 L212,307 L216,309 L217,312 L219,311 L220,306 L222,306 L225,300 L225,290 L222,289 L221,287 Z " fill="#F5F5F4" transform="translate(0,0)"/>
<path d="M0,0 L16,4 L20,6 L20,13 L17,17 L17,27 L15,35 L13,35 L12,39 L9,42 L13,46 L27,53 L34,55 L32,58 L25,59 L0,59 L-12,56 L-18,53 L-20,56 L-21,49 L-26,47 L-35,42 L-34,39 L-27,36 L-12,36 L-4,33 L2,23 L2,12 L1,8 L-1,8 Z " fill="#DEDDD7" transform="translate(143,181)"/>
<path d="M0,0 L1,2 L-5,16 L-6,25 L2,39 L3,48 L1,59 L-5,54 L-9,47 L-10,38 L-9,33 L-22,40 L-29,42 L-33,42 L-31,38 L-17,27 L-13,26 L-11,21 L-3,5 Z " fill="#F9F9F9" transform="translate(59,83)"/>
<path d="M0,0 L18,0 L29,3 L38,2 L39,6 L42,7 L45,12 L44,16 L42,17 L23,17 L11,11 L-1,3 Z " fill="#F7F7F7" transform="translate(196,220)"/>
<path d="M0,0 L10,0 L13,1 L12,5 L13,8 L13,62 L11,64 L8,63 L7,60 L6,10 L2,8 L1,4 L8,3 L8,1 L0,1 Z " fill="#F8F7F7" transform="translate(167,254)"/>
<path d="M0,0 L10,1 L15,5 L23,11 L24,14 L-1,14 L-12,10 L-13,7 L-11,3 Z " fill="#F8F8F8" transform="translate(64,223)"/>
<path d="M0,0 L7,1 L9,5 L9,58 L3,60 L3,8 L2,6 L-2,4 L-3,1 Z " fill="#F8F8F8" transform="translate(89,257)"/>
<path d="M0,0 L9,0 L12,3 L13,3 L13,13 L10,19 L8,19 L7,24 L4,25 L4,22 L2,22 L-3,14 L-4,4 L-2,4 Z " fill="#F9F9F8" transform="translate(212,287)"/>
<path d="M0,0 L19,1 L28,4 L31,7 L32,10 L26,14 L24,15 L10,13 L7,8 L7,6 L2,4 Z " fill="#FAFAFA" transform="translate(235,223)"/>
<path d="M0,0 L5,0 L5,2 L14,8 L21,15 L25,19 L21,20 L1,12 L-7,7 L-7,5 L-10,4 Z " fill="#D1CCBF" transform="translate(240,171)"/>
<path d="M0,0 L4,4 L7,9 L7,19 L4,28 L1,28 L0,30 L-7,15 L-6,10 L-2,2 Z " fill="#F8F8F8" transform="translate(73,77)"/>
<path d="M0,0 L8,0 L14,3 L15,8 L13,12 L12,19 L1,19 L-1,14 L-2,4 Z " fill="#F9F9F8" transform="translate(126,267)"/>
<path d="M0,0 L1,3 L-3,10 L-14,17 L-22,24 L-23,26 L-19,27 L-25,28 L-26,22 L-24,15 L-21,12 L-18,9 L-8,5 L-4,7 L-3,3 Z " fill="#B5B0A2" transform="translate(49,99)"/>
<path d="M0,0 L9,0 L12,0 L13,4 L13,64 L5,63 L7,61 L10,60 L10,7 L9,4 L2,3 L0,4 L1,7 L-3,5 L-3,2 Z " fill="#C0BAA9" transform="translate(87,255)"/>
<path d="M0,0 L2,2 L-3,4 L-3,16 L-1,28 L0,44 L4,55 L8,63 L5,66 L-3,64 L-1,70 L7,71 L7,72 L-1,72 L-6,66 L-4,60 L5,63 L0,53 L-2,50 L-5,17 L-6,8 L-4,3 Z " fill="#696247" transform="translate(108,39)"/>
<path d="M0,0 L9,0 L9,2 L2,3 L5,8 L7,9 L8,12 L9,62 L15,62 L15,64 L8,64 L6,59 L5,11 L-1,8 Z " fill="#A29B85" transform="translate(166,255)"/>
<path d="M0,0 L19,5 L20,3 L20,5 L28,3 L30,4 L28,10 L26,9 L24,11 L24,9 L17,9 L15,7 L-2,3 L-3,5 L-3,2 Z " fill="#757460" transform="translate(33,75)"/>
<path d="M0,0 L13,2 L20,4 L15,9 L7,7 L1,4 Z " fill="#FAFAFA" transform="translate(31,78)"/>
<path d="M0,0 L11,1 L13,3 L10,4 L8,3 L8,5 L11,6 L9,8 L7,8 L1,9 L2,15 L-1,12 L-2,7 Z " fill="#F9F9F6" transform="translate(55,54)"/>
<path d="M0,0 L4,1 L7,7 L11,9 L9,11 L-14,11 L-19,10 L-19,9 L0,8 L2,7 L1,2 Z " fill="#A29C88" transform="translate(238,228)"/>
<path d="M0,0 L4,0 L5,3 L5,15 L7,20 L6,23 L9,22 L10,26 L12,27 L11,30 L5,28 L4,23 L3,17 L2,10 L3,1 Z " fill="#716B51" transform="translate(111,111)"/>
<path d="M0,0 L4,5 L3,10 L5,14 L1,17 L0,14 L-4,15 L-6,16 L-4,11 L-1,11 L-2,7 L-5,8 L-4,5 L-2,6 Z " fill="#7C7A67" transform="translate(69,63)"/>
<path d="M0,0 L1,0 L1,61 L-1,62 L-1,6 L-2,2 L0,2 Z " fill="#9B937C" transform="translate(180,256)"/>
</svg>
