<?xml version="1.0" encoding="UTF-8"?>
<!-- Generator: visioncortex VTracer 0.6.12 -->
<svg xmlns:xlink="http://www.w3.org/1999/xlink" xmlns:sodipodi="http://sodipodi.sourceforge.net/DTD/sodipodi-0.0.dtd" xmlns:inkscape="http://www.inkscape.org/namespaces/inkscape" version="1.1" xmlns="http://www.w3.org/2000/svg" width="252" height="344">
<path d="M0,0 L252,0 L252,344 L0,344 Z M117,22 L109,29 L106,35 L105,46 L106,51 L102,55 L102,64 L103,66 L106,66 L105,69 L104,79 L98,94 L97,99 L94,100 L89,106 L86,109 L92,110 L91,112 L85,115 L82,118 L77,118 L81,117 L80,115 L75,116 L59,124 L48,130 L41,138 L40,140 L40,147 L43,152 L53,154 L52,156 L52,258 L49,261 L46,274 L40,286 L39,290 L39,303 L38,307 L41,306 L42,308 L44,307 L44,311 L41,313 L48,314 L49,311 L46,311 L47,287 L46,284 L192,284 L191,281 L199,277 L199,269 L195,265 L196,263 L167,263 L164,264 L163,258 L165,257 L61,257 L60,163 L64,157 L67,155 L139,154 L158,156 L169,160 L172,159 L170,158 L174,159 L180,163 L182,163 L181,165 L178,165 L184,172 L188,178 L191,187 L193,192 L195,218 L196,218 L197,199 L200,206 L202,231 L203,231 L203,155 L209,153 L214,151 L217,145 L216,138 L208,131 L194,124 L179,119 L176,120 L177,117 L166,111 L159,106 L157,103 L155,107 L153,108 L154,105 L152,101 L156,102 L154,98 L147,86 L146,89 L151,98 L145,96 L142,86 L137,76 L137,68 L139,65 L139,56 L137,55 L136,48 L140,43 L140,41 L142,42 L144,46 L143,33 L139,28 L138,27 L134,24 L127,22 Z M125,159 L124,163 L124,173 L127,173 L129,173 L130,170 L130,160 Z M37,307 L32,311 L23,315 L23,321 L28,323 L61,323 L64,322 L142,322 L142,321 L89,320 L28,320 L27,318 L24,320 L25,316 L30,315 L39,315 L39,314 L33,313 L37,311 L38,307 Z " fill="#F6F6F6" transform="translate(0,0)"/>
<path d="M0,0 L4,1 L4,3 L7,4 L8,12 L10,12 L11,17 L6,18 L7,24 L15,22 L15,19 L18,20 L19,24 L21,24 L23,30 L29,32 L24,23 L25,20 L33,33 L34,36 L29,35 L29,38 L28,42 L38,49 L44,51 L48,56 L52,57 L52,59 L61,62 L67,65 L76,68 L82,70 L83,73 L82,74 L86,76 L85,79 L71,78 L71,75 L62,74 L61,71 L40,61 L33,58 L37,66 L37,69 L27,70 L13,70 L11,71 L-28,69 L-44,69 L-42,71 L-49,72 L-52,73 L-55,72 L-56,75 L-61,75 L-61,77 L-70,78 L-71,71 L-52,61 L-48,58 L-46,59 L-44,58 L-45,56 L-33,49 L-29,47 L-23,43 L-16,45 L-16,49 L-14,49 L-12,47 L-10,47 L-7,38 L-5,33 L-4,37 L-4,30 L-8,34 L-13,34 L-16,27 L-12,17 L-10,9 L-6,5 L-4,1 Z M8,30 L8,39 L14,51 L16,50 L15,38 L13,32 L10,30 Z " fill="#F1F2F2" transform="translate(122,66)"/>
<path d="M0,0 L4,1 L10,2 L36,2 L36,0 L119,1 L122,4 L122,12 L115,13 L-21,13 L-11,15 L-14,17 L-16,18 L-31,19 L-30,23 L-31,46 L-28,47 L-29,49 L-36,48 L-33,46 L-33,41 L-36,43 L-36,23 L-30,11 L-28,7 L-27,3 L-4,1 Z " fill="#EAEAEA" transform="translate(77,265)"/>
<path d="M0,0 L21,0 L23,1 L23,3 L21,3 L21,7 L19,8 L20,28 L19,37 L16,40 L11,39 L9,32 L4,23 L1,21 L1,16 L-4,15 L-9,11 L-12,11 L-10,13 L-15,12 L-24,9 L-23,2 L0,1 Z " fill="#EDEDED" transform="translate(182,147)"/>
<path d="M0,0 L99,0 L99,5 L92,6 L83,5 L71,4 L33,4 L6,5 L0,14 L-1,18 L-1,109 L-3,109 L-4,107 L-5,5 L-10,3 L-9,1 Z " fill="#FAFAFA" transform="translate(59,148)"/>
<path d="M0,0 L4,4 L3,7 L6,4 L8,2 L10,6 L24,15 L27,17 L26,19 L30,18 L51,26 L61,32 L66,37 L67,44 L64,50 L55,54 L51,52 L55,48 L60,43 L60,40 L54,37 L54,35 L48,34 L35,29 L24,24 L24,22 L19,21 L16,18 L16,16 L10,15 L2,9 L-3,8 L0,7 L-1,1 Z " fill="#9FA0A0" transform="translate(150,101)"/>
<path d="M0,0 L138,0 L141,2 L137,3 L111,4 L12,4 L0,1 Z " fill="#4C4E4D" transform="translate(54,277)"/>
<path d="M0,0 L2,0 L2,2 L8,2 L3,8 L6,13 L8,10 L9,19 L7,20 L5,24 L4,23 L1,35 L-8,51 L-11,56 L-15,59 L-17,58 L-16,56 L-22,55 L-20,53 L-15,48 L-13,45 L-11,45 L-10,40 L-4,25 L-3,14 L-2,12 L-5,12 L-5,2 Z " fill="#A0A1A1" transform="translate(108,54)"/>
<path d="M0,0 L24,0 L24,7 L22,10 L23,19 L28,29 L27,33 L25,29 L23,28 L23,31 L14,34 L14,27 L18,25 L15,21 L14,13 L12,14 L10,10 L4,10 L4,12 L0,12 L-4,5 Z " fill="#CCCFCE" transform="translate(114,57)"/>
<path d="M0,0 L3,1 L-5,7 L-10,10 L-7,11 L-12,14 L-14,13 L-18,15 L-35,24 L-37,24 L-35,32 L-40,33 L-41,35 L-38,36 L-39,38 L-44,37 L-47,31 L-47,25 L-39,16 L-23,8 L-10,2 L-7,2 L-7,4 L-11,5 L-6,5 Z " fill="#A1A2A2" transform="translate(88,113)"/>
<path d="M0,0 L11,2 L13,4 L14,18 L13,25 L8,24 L9,22 L-4,21 L-8,17 L-9,8 L-7,8 L-5,3 Z " fill="#E3E4E4" transform="translate(122,30)"/>
<path d="M0,0 L132,0 L133,3 L-8,3 L-4,1 Z " fill="#FAFAFA" transform="translate(61,142)"/>
<path d="M0,0 L101,0 L99,1 L98,4 L97,2 L89,4 L45,4 L34,3 L33,6 L33,4 L25,4 L25,3 L-4,3 L-4,1 Z " fill="#4A4C4B" transform="translate(64,257)"/>
<path d="M0,0 L127,0 L127,2 L145,2 L145,3 L104,3 L104,8 L103,9 L84,8 L75,6 L75,5 L93,6 L101,7 L103,7 L103,2 L4,2 Z " fill="#282928" transform="translate(55,146)"/>
<path d="M0,0 L1,2 L0,4 L1,99 L-3,98 L-3,7 Z " fill="#393B3B" transform="translate(60,159)"/>
<path d="M0,0 L5,2 L7,5 L2,11 L-2,10 L-23,9 L-146,9 L-146,11 L-156,11 L-158,10 L-157,7 L2,6 L3,4 L-2,2 Z " fill="#727674" transform="translate(205,138)"/>
<path d="M0,0 L2,0 L2,76 L1,76 L-1,51 L-4,44 L-5,63 L-6,63 L-7,48 L-7,33 L-1,31 L0,14 Z " fill="#828382" transform="translate(201,155)"/>
<path d="M0,0 L12,0 L15,2 L11,3 L13,5 L11,6 L13,8 L1,8 L-1,7 L0,10 L-2,12 L-3,21 L-4,25 L-8,19 L-10,18 L-9,25 L-9,33 L-14,34 L-14,42 L-15,42 L-15,33 L-11,29 L-12,19 L-10,11 L-6,5 Z " fill="#6C6C6C" transform="translate(117,22)"/>
<path d="M0,0 L2,2 L3,5 L8,5 L13,1 L13,9 L11,11 L11,6 L8,17 L4,21 L-2,23 L0,18 L-7,16 L-13,20 L-11,16 L-8,14 L-2,2 Z " fill="#C7CACA" transform="translate(106,94)"/>
<path d="M0,0 L1,2 L-2,5 L-4,6 L2,7 L2,8 L-9,8 L-12,9 L-13,13 L-9,11 L-9,13 L66,13 L105,14 L105,15 L27,15 L24,16 L-9,16 L-14,14 L-14,8 L-5,4 Z " fill="#1D1D1D" transform="translate(37,307)"/>
<path d="M0,0 L30,0 L30,1 L22,2 L21,4 L23,6 L-42,6 L-42,5 L-37,4 L-37,1 L-33,2 L-15,3 L5,3 L-3,2 Z " fill="#939695" transform="translate(103,136)"/>
<path d="M0,0 L2,3 L2,99 L4,99 L5,102 L-1,106 L-3,111 L-4,109 L-2,104 L0,100 Z " fill="#393B3B" transform="translate(52,156)"/>
<path d="M0,0 L1,3 L4,2 L33,2 L32,5 L-51,5 L-61,3 L-57,1 L-49,2 L-7,2 L0,3 Z " fill="#323534" transform="translate(163,261)"/>
<path d="M0,0 L6,0 L10,3 L11,4 L15,9 L16,22 L14,18 L12,17 L10,22 L8,23 L7,21 L6,10 L-3,7 L-8,8 L-12,12 L-14,14 L-13,9 L-12,5 L0,5 L-3,3 Z " fill="#A5A6A6" transform="translate(128,24)"/>
<path d="M0,0 L2,3 L2,6 L-50,6 L-55,5 L-64,6 L-63,2 L-8,2 Z " fill="#EAEAEA" transform="translate(161,258)"/>
<path d="M0,0 L99,0 L101,2 L-1,2 Z " fill="#F7F7F7" transform="translate(66,281)"/>
<path d="M0,0 L6,2 L5,5 L10,4 L14,7 L-53,7 L-56,5 L-40,3 L-29,3 L-29,4 L3,4 L0,2 Z " fill="#6D706F" transform="translate(179,135)"/>
<path d="M0,0 L7,2 L7,3 L-2,5 L20,6 L20,7 L-16,7 L-20,6 L-27,7 L-35,7 L-34,4 L-25,3 L-25,2 L0,2 Z " fill="#383A39" transform="translate(159,133)"/>
<path d="M0,0 L3,1 L106,1 L123,2 L124,0 L124,2 L128,1 L129,3 L-7,3 L-7,2 Z " fill="#141414" transform="translate(63,281)"/>
<path d="M0,0 L2,4 L5,10 L12,12 L15,15 L15,115 L14,115 L13,14 L3,12 L0,7 Z " fill="#1D1D1D" transform="translate(40,140)"/>
<path d="M0,0 L10,0 L13,2 L12,5 L-13,5 L-29,7 L-27,2 L-20,3 L-20,1 Z " fill="#E5E5E5" transform="translate(84,259)"/>
<path d="M0,0 L4,3 L17,4 L21,8 L22,5 L23,8 L25,9 L25,18 L22,21 L22,18 L23,17 L24,10 L2,10 L-2,8 L3,6 L0,2 Z " fill="#4E4F4F" transform="translate(114,47)"/>
<path d="M0,0 L10,3 L24,10 L22,13 L22,11 L16,10 L15,11 L6,11 L2,6 Z " fill="#8A8A8A" transform="translate(155,124)"/>
<path d="M0,0 L26,0 L31,1 L31,2 L6,3 L2,4 L-17,5 L-18,7 L-19,4 L-16,1 L-15,2 Z " fill="#282929" transform="translate(71,263)"/>
<path d="M0,0 L12,0 L16,1 L40,2 L40,3 L18,4 L1,4 L-11,3 L-10,1 Z " fill="#232423" transform="translate(83,136)"/>
<path d="M0,0 L8,2 L8,4 L12,5 L11,7 L-16,6 L-12,3 L-1,1 Z " fill="#F7F7F7" transform="translate(171,133)"/>
<path d="M0,0 L4,2 L10,11 L12,13 L3,16 L3,14 L1,14 Z " fill="#F0F0F0" transform="translate(107,40)"/>
<path d="M0,0 L5,1 L6,6 L8,14 L8,21 L5,20 L0,9 Z " fill="#9AA09E" transform="translate(130,96)"/>
<path d="M0,0 L36,0 L38,2 L-3,2 Z " fill="#787C7A" transform="translate(96,152)"/>
<path d="M0,0 L7,0 L4,2 L1,3 L-25,4 L-31,8 L-29,4 L-27,1 Z " fill="#363837" transform="translate(92,151)"/>
<path d="M0,0 L6,0 L5,4 L-16,4 L-20,3 L-20,1 Z " fill="#E7E7E7" transform="translate(185,279)"/>
<path d="M0,0 L1,0 L2,5 L7,10 L9,14 L11,16 L9,16 L12,23 L14,25 L12,25 L11,29 L6,17 L4,12 L-2,4 L-4,1 L-1,2 Z " fill="#2B2B2B" transform="translate(182,163)"/>
<path d="M0,0 L4,0 L4,2 L13,3 L13,4 L4,5 L1,4 L0,6 L-2,6 L-4,11 L-6,11 L-7,8 L-5,3 Z " fill="#C3C3C3" transform="translate(56,258)"/>
<path d="M0,0 L16,0 L37,1 L37,2 L25,3 L21,4 L17,3 L2,3 L-4,2 Z " fill="#A8B0AD" transform="translate(78,134)"/>
<path d="M0,0 L10,1 L11,3 L-19,4 L-22,2 L-18,1 Z " fill="#808583" transform="translate(102,264)"/>
<path d="M0,0 L2,1 L2,6 L0,6 L-1,12 L-6,21 L-7,39 L-10,40 L-9,31 L-9,23 L-6,16 L-1,5 Z " fill="#393B3B" transform="translate(48,267)"/>
<path d="M0,0 L5,1 L5,11 L4,14 L0,14 L-1,14 L-1,4 Z " fill="#5B5E5D" transform="translate(125,159)"/>
</svg>
