<?xml version="1.0" encoding="UTF-8"?>
<!-- Generator: visioncortex VTracer 0.6.12 -->
<svg xmlns:xlink="http://www.w3.org/1999/xlink" xmlns:sodipodi="http://sodipodi.sourceforge.net/DTD/sodipodi-0.0.dtd" xmlns:inkscape="http://www.inkscape.org/namespaces/inkscape" version="1.1" xmlns="http://www.w3.org/2000/svg" width="294" height="344">
<path d="M0,0 L294,0 L294,344 L0,344 Z M60,22 L60,24 L55,26 L49,30 L46,33 L43,34 L44,38 L46,39 L47,43 L49,43 L51,49 L54,50 L54,54 L57,54 L57,58 L60,59 L63,65 L59,67 L55,71 L53,73 L55,75 L47,83 L42,82 L40,88 L38,93 L36,97 L34,96 L34,110 L35,110 L36,103 L37,107 L30,121 L29,131 L25,131 L22,143 L22,148 L23,152 L23,177 L22,177 L22,188 L25,204 L26,206 L28,206 L30,215 L32,213 L37,226 L36,234 L43,246 L43,249 L48,253 L50,255 L51,256 L56,261 L64,267 L75,267 L77,271 L74,275 L74,277 L72,277 L65,289 L65,291 L63,291 L54,305 L54,307 L52,307 L48,317 L49,321 L55,323 L61,320 L64,315 L64,312 L66,312 L76,296 L81,288 L81,286 L83,286 L86,281 L87,277 L100,282 L104,284 L116,286 L127,288 L131,289 L160,290 L160,291 L175,290 L187,287 L191,284 L190,283 L201,278 L205,278 L207,283 L212,291 L214,291 L215,295 L217,295 L219,301 L221,301 L221,304 L223,304 L223,307 L225,307 L227,311 L233,321 L241,323 L244,319 L242,310 L240,306 L238,306 L236,301 L229,293 L222,281 L218,276 L218,269 L226,268 L230,267 L230,264 L235,262 L244,254 L246,252 L249,252 L251,247 L255,245 L255,242 L257,242 L261,233 L261,228 L260,230 L258,230 L258,224 L260,219 L262,220 L264,210 L268,199 L269,195 L272,180 L272,159 L271,145 L268,131 L268,125 L266,125 L257,105 L259,105 L260,108 L262,102 L263,100 L260,97 L254,85 L251,85 L249,81 L241,74 L239,72 L239,69 L237,65 L246,53 L255,36 L250,32 L240,26 L235,25 L231,27 L224,39 L218,47 L215,56 L209,55 L200,52 L200,50 L193,49 L190,48 L191,46 L180,42 L167,40 L135,41 L127,42 L131,40 L121,40 L115,42 L106,45 L87,51 L87,53 L85,52 L84,47 L82,47 L82,43 L80,43 L80,39 L77,39 L74,29 L72,27 L70,23 L68,22 Z M269,132 L271,144 L272,151 L273,182 L275,178 L275,148 L272,134 L270,134 Z " fill="#F8F8F6" transform="translate(0,0)"/>
<path d="M0,0 L30,0 L47,3 L65,9 L82,18 L87,20 L98,22 L100,23 L100,25 L105,24 L108,28 L108,30 L115,37 L118,40 L121,47 L125,55 L126,59 L124,62 L124,64 L126,64 L128,68 L131,80 L135,91 L138,107 L138,140 L136,147 L136,156 L131,169 L130,177 L128,176 L126,181 L126,187 L128,187 L129,185 L128,192 L125,199 L123,199 L122,203 L119,204 L117,209 L114,209 L109,213 L100,221 L87,224 L81,228 L73,231 L61,237 L49,241 L36,244 L31,245 L2,245 L-20,240 L-34,235 L-50,227 L-58,222 L-70,223 L-81,214 L-81,211 L-83,212 L-87,207 L-89,205 L-89,203 L-96,191 L-95,183 L-99,173 L-101,163 L-105,152 L-107,140 L-107,108 L-104,91 L-99,75 L-93,63 L-95,55 L-92,48 L-92,43 L-89,39 L-85,40 L-77,32 L-79,29 L-73,25 L-73,23 L-70,24 L-71,26 L-66,24 L-60,25 L-60,23 L-57,23 L-56,20 L-49,18 L-48,16 L-35,10 L-18,3 L-9,1 Z M8,33 L-10,36 L-23,41 L-34,47 L-39,52 L-39,56 L-41,56 L-41,59 L-45,61 L-54,70 L-53,72 L-50,70 L-55,75 L-58,75 L-60,77 L-58,78 L-62,81 L-63,79 L-70,93 L-74,110 L-74,134 L-70,152 L-67,156 L-65,155 L-65,153 L-61,156 L-62,161 L-60,165 L-63,162 L-65,157 L-67,157 L-65,163 L-61,168 L-56,172 L-50,179 L-45,184 L-41,191 L-39,191 L-37,195 L-27,201 L-15,207 L6,212 L21,212 L42,208 L52,204 L68,195 L74,186 L81,179 L79,176 L80,175 L81,177 L90,169 L95,164 L99,153 L100,142 L102,146 L105,132 L105,109 L100,91 L93,78 L90,77 L83,69 L75,60 L73,59 L68,49 L53,40 L29,33 Z M98,180 L93,185 L95,196 L103,196 L102,193 L98,191 L104,193 L105,186 L103,182 Z M81,191 L71,197 L69,201 L70,205 L73,208 L73,205 L79,206 L81,202 L78,202 L78,200 L94,204 L88,196 L85,191 Z M-12,212 L-16,217 L-18,223 L-18,233 L-15,236 L-12,235 L-12,230 L-7,230 L-6,233 L-9,234 L-6,234 L-6,236 L-1,239 L3,226 L4,216 L-1,215 L-4,219 L-4,222 L-6,221 L-9,216 L-10,212 Z M40,212 L38,215 L37,223 L37,236 L41,238 L45,231 L39,233 L39,218 L41,218 L42,212 Z " fill="#F6ECE9" transform="translate(132,43)"/>
<path d="M0,0 L9,0 L9,2 L11,2 L14,7 L14,10 L16,11 L17,14 L21,16 L29,21 L43,25 L53,26 L56,28 L56,36 L55,39 L61,39 L61,41 L54,43 L55,44 L65,44 L71,46 L67,48 L59,49 L67,49 L72,54 L71,56 L61,56 L51,60 L36,62 L35,65 L30,66 L28,66 L25,68 L27,78 L28,81 L31,82 L31,85 L33,85 L37,94 L37,97 L23,100 L21,102 L23,104 L21,105 L15,105 L15,103 L3,101 L-6,104 L-16,103 L-26,99 L-28,98 L-26,94 L-23,95 L-16,95 L-15,94 L-24,91 L-22,86 L-15,86 L-11,87 L-10,86 L-17,85 L-17,84 L-11,84 L-8,85 L-13,83 L-20,83 L-18,79 L-6,80 L-5,76 L-13,75 L-17,67 L-24,64 L-35,82 L-39,88 L-45,88 L-52,80 L-55,77 L-53,75 L-57,76 L-59,72 L-52,71 L-61,70 L-66,65 L-70,61 L-68,60 L-65,61 L-49,61 L-45,58 L-45,56 L-52,58 L-70,58 L-68,54 L-58,54 L-54,52 L-44,53 L-42,49 L-67,51 L-73,51 L-75,49 L-74,45 L-68,44 L-66,46 L-62,47 L-62,45 L-72,44 L-76,44 L-76,40 L-45,39 L-47,33 L-47,29 L-49,28 L-22,23 L-22,21 L-24,20 L-8,14 L-3,8 L-1,1 Z M-15,23 L-26,27 L-33,29 L-33,30 L-27,30 L-27,33 L-21,31 L-12,27 Z M31,27 L32,32 L23,28 L20,29 L26,31 L26,33 L19,32 L24,36 L26,37 L20,36 L14,34 L14,38 L24,43 L36,46 L41,46 L40,44 L38,44 L38,42 L36,41 L47,40 L43,37 L36,34 L38,32 L36,31 L36,29 L42,29 L42,28 Z M-2,31 L-2,33 L-7,34 L-25,41 L-30,43 L-32,47 L-25,48 L-11,43 L-5,40 L-5,38 L-1,38 L0,35 Z " fill="#E9EAED" transform="translate(142,145)"/>
<path d="M0,0 L4,4 L11,16 L22,34 L27,42 L31,44 L30,47 L20,51 L19,53 L6,56 L4,55 L-10,58 L-6,65 L-7,69 L-8,70 L-27,70 L-29,69 L-29,60 L-31,57 L-33,53 L-34,50 L-32,50 L-31,44 L-26,39 L-24,38 L-15,38 L-7,41 L-1,38 L-1,35 L-2,38 L-5,40 L-12,39 L-14,38 L-15,37 L-23,37 L-18,32 L-15,33 L-14,29 L-10,21 L-6,5 L-5,3 L-1,2 Z M7,44 L7,46 L-2,46 L-1,50 L5,53 L10,51 L12,46 L13,44 Z " fill="#F3F4F5" transform="translate(101,114)"/>
<path d="M0,0 L9,2 L14,10 L20,14 L32,17 L30,22 L18,40 L12,48 L9,56 L7,53 L5,48 L3,48 L3,46 L-6,47 L-8,53 L-11,50 L-20,34 L-30,19 L-32,14 L-24,10 L-22,5 L-20,5 L-18,1 L-3,2 Z " fill="#F9F9F9" transform="translate(148,99)"/>
<path d="M0,0 L2,1 L5,12 L15,25 L17,29 L17,41 L20,49 L24,51 L28,56 L32,59 L31,60 L14,61 L14,62 L7,61 L8,53 L7,50 L4,49 L-7,48 L-17,46 L-18,44 L-26,40 L-19,28 L-13,19 L-5,8 Z " fill="#F9F9F9" transform="translate(192,121)"/>
<path d="M0,0 L8,0 L10,1 L12,5 L15,9 L17,17 L20,17 L20,21 L22,21 L22,25 L24,25 L24,32 L34,30 L31,33 L25,38 L17,42 L15,44 L12,44 L12,46 L6,46 L1,47 L3,43 L0,37 L-3,36 L-3,32 L-6,32 L-6,28 L-9,27 L-11,21 L-13,21 L-14,17 L-17,14 L-17,12 L-12,9 L-7,5 L-2,2 L0,2 Z M34,29 Z " fill="#F8F5EC" transform="translate(60,22)"/>
<path d="M0,0 L12,7 L15,14 L22,20 L29,28 L31,31 L28,32 L18,21 L11,19 L10,23 L11,26 L14,27 L11,28 L11,30 L9,31 L8,38 L9,38 L9,43 L7,46 L4,39 L3,34 L-1,39 L-5,45 L-11,54 L-18,64 L-23,73 L-12,77 L-12,80 L-19,79 L-27,74 L-31,71 L-31,69 L-33,68 L-32,61 L-28,55 L-18,41 L-10,28 L-13,28 L-13,26 L-7,25 L-1,17 L4,10 L4,7 L2,6 L2,4 L0,4 L0,2 L-2,1 Z " fill="#EBE7D8" transform="translate(190,88)"/>
<path d="M0,0 L29,0 L47,5 L57,10 L57,14 L59,14 L59,16 L62,17 L61,21 L58,24 L59,19 L52,24 L43,25 L36,22 L33,19 L33,17 L31,17 L30,19 L26,11 L27,10 L25,9 L25,7 L21,7 L17,13 L10,16 L3,13 L-1,9 L-4,8 L-4,10 L-10,13 L-16,15 L-26,16 L-28,15 L-26,11 L-22,8 L-18,5 L-5,1 Z " fill="#E7E5E0" transform="translate(133,78)"/>
<path d="M0,0 L5,0 L2,2 L-3,5 L-4,7 L8,6 L11,5 L11,7 L3,9 L-4,9 L-2,10 L0,16 L5,25 L5,27 L8,28 L15,40 L22,51 L31,66 L27,72 L23,74 L23,72 L18,70 L7,52 L-4,34 L-9,27 L-9,24 L-12,23 L-15,19 L-19,20 L-25,27 L-28,27 L-31,29 L-29,25 L-20,16 L-18,16 L-18,13 L-16,13 L-15,7 L-9,3 Z " fill="#F6EEDA" transform="translate(109,86)"/>
<path d="M0,0 L5,1 L17,8 L20,11 L10,30 L2,40 L0,44 L-3,43 L-3,41 L-16,39 L-27,32 L-31,29 L-26,30 L-20,31 L-17,22 L-6,6 L-4,2 Z " fill="#F8F8F8" transform="translate(235,25)"/>
<path d="M0,0 L5,2 L31,14 L27,15 L14,9 L10,8 L9,12 L6,17 L4,17 L2,22 L-8,38 L-11,43 L-13,43 L-14,48 L-18,52 L-24,54 L-29,51 L-27,42 L-25,38 L-23,38 L-21,33 L-14,22 L-12,22 L-10,16 L-5,8 L-3,8 L-1,3 Z " fill="#F8F8F8" transform="translate(77,269)"/>
<path d="M0,0 L8,0 L8,2 L0,4 L-4,4 L-4,11 L5,24 L10,32 L16,39 L16,41 L18,41 L22,52 L20,57 L17,58 L11,56 L5,46 L3,42 L1,42 L1,39 L-1,39 L-1,36 L-3,36 L-5,30 L-7,30 L-8,26 L-10,26 L-16,16 L-17,13 L-19,13 L-19,11 L-3,1 Z " fill="#F8F8F8" transform="translate(222,265)"/>
<path d="M0,0 L8,4 L11,11 L20,12 L18,17 L6,17 L6,19 L14,20 L17,22 L16,24 L14,23 L13,25 L9,24 L2,24 L0,28 L10,30 L8,33 L1,33 L-3,33 L-5,33 L-4,37 L3,40 L0,41 L-15,35 L-24,29 L-26,22 L-21,24 L-15,25 L-13,20 L-6,9 Z " fill="#CFCDC8" transform="translate(118,208)"/>
<path d="M0,0 L1,2 L5,3 L16,4 L20,2 L31,2 L31,3 L21,5 L24,7 L21,8 L13,8 L17,19 L20,26 L27,26 L27,21 L29,23 L30,28 L20,34 L12,37 L8,35 L9,30 L7,30 L4,24 L4,21 L2,21 L1,18 L-3,14 L-5,4 Z " fill="#DCDAD2" transform="translate(171,209)"/>
<path d="M0,0 L4,1 L9,6 L9,10 L6,10 L5,12 L5,10 L-5,10 L-5,20 L-3,20 L-2,27 L-6,38 L-7,35 L-7,29 L-7,27 L-10,34 L-13,39 L-17,40 L-20,39 L-20,41 L-28,42 L-26,33 L-19,19 L-17,17 L-19,15 L-15,13 L-13,13 L-9,9 L-7,9 L-5,5 Z " fill="#F4F1E9" transform="translate(91,104)"/>
<path d="M0,0 L2,0 L5,8 L6,10 L8,9 L10,5 L11,3 L16,4 L15,14 L12,22 L11,27 L6,24 L6,22 L3,21 L6,21 L5,18 L0,18 L0,24 L-5,23 L-6,21 L-6,11 L-3,3 Z " fill="#EFC6BD" transform="translate(120,255)"/>
<path d="M0,0 L11,2 L16,1 L21,2 L23,4 L24,9 L24,19 L21,19 L24,20 L24,28 L14,24 L9,15 L8,8 L10,5 L5,6 L0,1 Z " fill="#ECECEF" transform="translate(209,144)"/>
<path d="M0,0 L4,0 L3,6 L6,14 L9,19 L17,22 L18,23 L19,8 L21,12 L21,25 L18,33 L17,31 L9,29 L9,27 L4,26 L4,24 L-1,20 L-4,11 L-3,1 Z " fill="#DFE1E2" transform="translate(215,149)"/>
<path d="M0,0 L3,0 L5,8 L13,10 L14,8 L19,20 L13,23 L2,23 L-2,20 L0,20 L-6,12 L-5,9 L1,9 L0,7 Z " fill="#C4C7CB" transform="translate(211,118)"/>
<path d="M0,0 L10,0 L9,2 L7,2 L10,9 L11,11 L5,14 L-5,13 L-4,16 L1,18 L1,22 L-4,22 L-10,14 L-12,9 L-12,5 L-4,4 L-8,2 Z " fill="#E9EBEE" transform="translate(196,212)"/>
<path d="M0,0 L1,3 L1,6 L3,10 L6,9 L8,17 L14,18 L14,20 L27,20 L25,24 L11,26 L11,24 L6,22 L1,20 L-3,14 L-3,12 L-10,13 L-7,12 L-7,10 L-2,11 L-2,9 L-11,9 L-8,6 L-6,6 L-5,1 Z " fill="#EBEBEE" transform="translate(160,86)"/>
<path d="M0,0 L7,1 L17,12 L21,13 L24,16 L30,29 L31,37 L29,34 L24,21 L15,20 L12,13 L11,13 L11,20 L4,21 L3,17 L5,11 L5,9 L10,10 L9,8 L-2,5 Z " fill="#F8F8F4" transform="translate(201,107)"/>
<path d="M0,0 L7,1 L5,5 L-5,8 L2,12 L-1,17 L-3,18 L-2,14 L-12,13 L-10,11 L-13,10 L-24,10 L-28,12 L-37,10 L-36,8 L-16,4 L-14,3 L-3,2 Z " fill="#F9F8F7" transform="translate(215,202)"/>
<path d="M0,0 L5,1 L10,9 L13,13 L-3,9 L-3,11 L0,12 L-2,15 L-8,14 L-9,17 L-12,13 L-12,8 L-4,2 Z " fill="#ECB5AA" transform="translate(213,234)"/>
<path d="M0,0 L2,1 L2,12 L5,19 L9,18 L12,23 L23,23 L29,21 L29,27 L19,28 L10,28 L10,26 L5,24 L0,18 L-3,17 L-4,12 L-4,10 L-3,2 Z " fill="#ECECEC" transform="translate(201,117)"/>
<path d="M0,0 L2,1 L0,11 L-5,19 L-12,24 L-12,22 L-16,21 L-20,18 L-17,16 L-9,14 L-7,11 L-16,10 L-13,7 L-3,6 L-2,1 Z " fill="#C3B6A4" transform="translate(229,192)"/>
<path d="M0,0 L2,4 L1,7 L-3,7 L-3,9 L-19,16 L-26,17 L-30,15 L-27,11 L-7,4 L-4,2 L0,2 Z " fill="#B6BAC5" transform="translate(140,176)"/>
<path d="M0,0 L4,5 L11,10 L10,12 L14,17 L12,17 L12,27 L15,36 L21,40 L22,42 L25,43 L27,45 L32,47 L30,50 L29,48 L23,48 L19,44 L17,42 L14,38 L12,39 L8,29 L8,17 L2,7 L-2,3 L-1,1 Z " fill="#768099" transform="translate(200,133)"/>
<path d="M0,0 L21,0 L45,7 L60,16 L60,19 L49,12 L34,6 L22,3 L-7,3 L-23,7 L-35,13 L-39,12 L-24,5 L-8,1 Z " fill="#E89552" transform="translate(140,76)"/>
<path d="M0,0 L11,1 L11,2 L5,2 L5,4 L7,6 L5,7 L16,12 L16,13 L5,14 L7,16 L-1,15 L-6,12 L-5,10 L-12,6 L-8,5 L-5,6 L-5,4 L-11,2 L-8,1 L1,5 Z " fill="#9FA4B4" transform="translate(173,172)"/>
<path d="M0,0 L1,0 L2,15 L6,19 L7,26 L10,25 L10,27 L3,28 L4,32 L14,32 L19,34 L19,36 L10,36 L13,34 L7,34 L8,40 L6,40 L5,42 L5,40 L3,40 L1,34 L0,26 Z " fill="#D6D1B6" transform="translate(61,156)"/>
<path d="M0,0 L3,1 L4,5 L0,4 L-16,4 L-16,6 L-7,9 L-7,11 L-1,12 L-1,14 L-13,11 L-22,10 L-30,10 L-33,7 L-22,5 L-21,2 L-24,1 Z " fill="#CBCFD7" transform="translate(227,180)"/>
<path d="M0,0 L4,2 L13,6 L23,7 L32,4 L41,6 L44,7 L44,9 L50,9 L50,10 L43,11 L23,11 L4,6 L-1,4 Z " fill="#9A9CAB" transform="translate(113,241)"/>
<path d="M0,0 L5,0 L4,3 L1,3 L0,8 L-4,10 L4,11 L4,13 L-1,12 L-1,14 L-5,16 L-5,17 L-13,17 L-11,13 L-7,13 L-7,10 L-11,12 L-20,9 L-25,7 L-29,8 L-27,4 L-25,4 L-25,2 L-21,3 L-21,5 L-17,7 L-11,9 L-4,6 Z " fill="#7E879E" transform="translate(154,84)"/>
<path d="M0,0 L2,0 L5,7 L7,8 L8,6 L8,8 L12,10 L16,14 L25,15 L30,15 L28,17 L18,17 L20,20 L26,19 L23,23 L30,29 L30,31 L28,32 L28,34 L26,34 L20,24 L12,17 L8,12 L3,8 L0,2 Z " fill="#C09D7E" transform="translate(65,200)"/>
<path d="M0,0 L6,0 L3,5 L-7,5 L-11,7 L-21,7 L-23,10 L-2,9 L-2,11 L-23,11 L-24,13 L-25,10 L-24,5 L-26,3 Z " fill="#9099AC" transform="translate(95,193)"/>
<path d="M0,0 L10,0 L6,2 L1,2 L1,4 L-9,6 L-12,9 L-31,17 L-33,16 L-29,13 L-37,14 L-36,12 L-34,13 L-34,11 L-13,4 L-1,1 Z M-27,11 Z " fill="#F3D191" transform="translate(121,40)"/>
<path d="M0,0 L1,3 L-4,13 L-8,30 L-8,52 L-5,72 L-4,77 L-7,73 L-11,55 L-11,31 L-6,11 Z " fill="#E58D5A" transform="translate(69,122)"/>
<path d="M0,0 L6,0 L4,2 L-19,7 L-17,17 L-19,18 L-48,18 L-49,22 L-50,17 L-43,16 L-42,5 L-41,5 L-41,13 L-42,16 L-21,16 L-20,12 L-23,7 L-23,5 L-8,1 L-6,2 Z " fill="#7A869E" transform="translate(114,167)"/>
<path d="M0,0 L6,3 L7,11 L5,13 L-2,11 L5,14 L5,16 L-3,16 L-5,5 Z " fill="#F9F9F9" transform="translate(230,223)"/>
<path d="M0,0 L2,1 L-8,7 L-19,12 L-18,14 L-29,18 L-42,20 L-49,20 L-49,19 L-37,16 L-28,14 L-28,12 L-9,5 Z " fill="#F0C284" transform="translate(209,271)"/>
<path d="M0,0 L3,3 L9,16 L13,31 L13,54 L10,68 L7,64 L8,60 L10,57 L11,53 L11,40 L8,23 L4,10 L0,2 Z " fill="#E8A25B" transform="translate(224,121)"/>
<path d="M0,0 L2,1 L0,7 L-5,10 L-6,13 L-11,15 L-15,8 L-15,3 L-5,3 Z " fill="#EBE9E1" transform="translate(122,93)"/>
<path d="M0,0 L3,0 L8,8 L10,7 L10,9 L15,11 L18,13 L31,12 L29,16 L18,17 L11,14 L5,9 L3,3 L-4,2 Z " fill="#7D879E" transform="translate(154,98)"/>
<path d="M0,0 L17,0 L21,2 L21,8 L17,10 L17,17 L16,15 L3,18 L3,15 L5,14 L13,14 L13,12 L3,9 L1,7 L10,9 L16,11 L16,9 L10,8 L10,7 L19,6 L18,3 L15,2 L3,2 L3,4 L0,3 Z " fill="#737D93" transform="translate(210,183)"/>
<path d="M0,0 L9,2 L10,6 L14,7 L3,6 L-1,5 L-3,11 L-5,10 L-6,14 L-13,18 L-16,17 L-12,14 L-8,10 L-5,6 L-4,2 Z " fill="#8B94A9" transform="translate(131,95)"/>
<path d="M0,0 L10,0 L8,5 L10,7 L1,16 L0,13 L-13,13 L-13,9 L-2,10 L3,7 L0,2 Z " fill="#A99D96" transform="translate(203,215)"/>
<path d="M0,0 L1,2 L-4,12 L-7,14 L-6,11 L-18,10 L-18,8 L-24,7 L-26,3 L-23,3 L-16,6 L-7,5 Z " fill="#858695" transform="translate(192,96)"/>
<path d="M0,0 L6,0 L6,2 L8,4 L6,4 L3,20 L0,26 L-5,28 L0,14 L1,12 Z M4,2 L5,4 Z " fill="#ADB4C3" transform="translate(89,115)"/>
<path d="M0,0 L1,0 L4,15 L4,18 L6,18 L11,32 L10,36 L8,38 L6,29 L4,29 L2,22 L0,11 Z " fill="#F4D891" transform="translate(22,177)"/>
<path d="M0,0 L5,1 L16,8 L37,17 L53,21 L51,23 L41,21 L30,17 L9,7 L4,3 L-7,3 L-4,1 Z " fill="#E99549" transform="translate(71,264)"/>
<path d="M0,0 L9,3 L18,4 L27,6 L43,7 L44,10 L29,10 L8,5 L0,1 Z " fill="#EDAE69" transform="translate(109,245)"/>
<path d="M0,0 L2,0 L3,2 L8,4 L6,10 L3,9 L2,14 L4,13 L3,18 L1,22 L-1,22 L-1,1 Z " fill="#E2E0D8" transform="translate(63,148)"/>
<path d="M0,0 L12,0 L23,4 L22,6 L29,8 L32,9 L36,12 L47,18 L49,21 L44,19 L29,11 L17,6 L17,4 L9,3 L0,1 Z " fill="#F2C77F" transform="translate(168,42)"/>
<path d="M0,0 L2,4 L2,8 L-8,11 L-17,9 L-14,5 L-6,3 L0,3 Z " fill="#BCBEC1" transform="translate(179,239)"/>
<path d="M0,0 L1,0 L1,6 L0,12 L-1,18 L-3,18 L-6,22 L-9,22 L-9,24 L-18,24 L-15,22 L-12,20 L-14,18 L-7,17 L-6,13 L-4,12 L-1,1 Z " fill="#AEB1BE" transform="translate(85,125)"/>
<path d="M0,0 L4,2 L4,7 L2,7 L0,13 L-5,16 L-7,15 L-7,13 L-2,9 L0,9 L-1,5 L-6,8 L-14,8 L-20,6 L-17,5 L-3,4 L-3,2 L0,2 Z " fill="#6A748F" transform="translate(123,89)"/>
<path d="M0,0 L6,2 L16,7 L26,10 L27,12 L17,11 L3,6 L-1,3 Z " fill="#F8F7F7" transform="translate(156,179)"/>
<path d="M0,0 L3,1 L-1,4 L5,5 L5,8 L2,10 L-2,20 L-4,20 L-5,18 L-7,19 L-5,13 L-2,12 L0,8 L-5,6 L-6,8 L-6,4 L-8,4 L-8,2 Z " fill="#6C758E" transform="translate(71,144)"/>
<path d="M0,0 L0,3 L-1,6 L-5,7 L-8,9 L-1,10 L-1,8 L1,9 L0,11 L9,12 L12,11 L11,8 L13,8 L14,12 L6,15 L-1,12 L-10,12 L-15,13 L-13,9 L-11,9 L-11,6 L-7,4 L-4,1 Z " fill="#8D96AA" transform="translate(87,141)"/>
<path d="M0,0 L9,1 L10,4 L5,3 L5,5 L7,6 L5,7 L4,12 L6,19 L7,22 L5,24 L3,22 L1,16 L1,5 L0,3 L2,2 Z " fill="#7F889F" transform="translate(201,113)"/>
<path d="M0,0 L19,3 L20,8 L18,12 L20,13 L18,13 L18,15 L25,16 L26,19 L22,19 L22,17 L16,17 L16,10 L17,6 L0,3 L-3,1 Z " fill="#828DA4" transform="translate(181,167)"/>
<path d="M0,0 L10,1 L16,3 L14,6 L6,6 L-3,4 L-3,3 L-10,3 L-11,1 Z " fill="#C9CFD8" transform="translate(209,192)"/>
<path d="M0,0 L5,5 L6,15 L4,18 L2,18 L-1,9 L-4,6 L-2,6 Z " fill="#9CA2B3" transform="translate(66,164)"/>
<path d="M0,0 L4,5 L7,12 L10,15 L8,19 L6,23 L6,20 L4,20 L3,22 L2,18 L4,17 L1,8 L-3,1 Z " fill="#F0C57E" transform="translate(253,85)"/>
<path d="M0,0 L15,0 L12,1 L12,3 L-3,6 L-2,8 L-7,8 L-7,3 Z " fill="#A5AAB6" transform="translate(182,205)"/>
<path d="M0,0 L3,3 L1,7 L-4,11 L-3,13 L-8,15 L-11,17 L-13,14 L-12,10 L-4,6 L-2,6 Z " fill="#F1EFE8" transform="translate(125,96)"/>
<path d="M0,0 L1,3 L3,3 L4,7 L4,34 L3,34 L3,23 L-4,22 L0,20 L2,21 L2,12 L0,6 L-5,5 L-12,6 L-15,4 L-1,2 Z " fill="#C1B98C" transform="translate(230,141)"/>
<path d="M0,0 L2,1 L-1,7 L1,15 L-6,29 L-9,40 L-10,40 L-9,30 L-2,16 L-3,12 L-4,19 L-5,19 L-5,5 L-3,6 Z " fill="#ECA54F" transform="translate(39,91)"/>
<path d="M0,0 L3,1 L-1,3 L-13,5 L-48,5 L-55,3 L-55,2 L-45,3 L-16,3 Z " fill="#E48C62" transform="translate(179,284)"/>
<path d="M0,0 L10,0 L14,2 L15,6 L5,6 L-2,3 L-2,1 Z " fill="#F7F7F8" transform="translate(215,184)"/>
<path d="M0,0 L1,0 L2,8 L2,29 L-1,44 L-3,43 L-2,36 L-1,32 Z " fill="#E17A5A" transform="translate(270,151)"/>
<path d="M0,0 L9,1 L13,0 L12,4 L7,5 L6,3 L1,2 L2,4 L3,15 L0,15 L0,11 L-2,11 L-3,6 L-2,1 Z M5,4 Z " fill="#68738E" transform="translate(88,113)"/>
<path d="M0,0 L9,4 L15,5 L18,4 L18,7 L14,7 L14,9 L17,10 L12,10 L11,7 L2,6 L-3,7 L-1,1 Z " fill="#F0F1F3" transform="translate(129,90)"/>
<path d="M0,0 L18,0 L26,1 L26,2 L-3,3 L-17,5 L-24,6 L-23,4 Z " fill="#E58E5B" transform="translate(135,41)"/>
<path d="M0,0 L10,1 L12,3 L9,5 L-2,6 L-9,7 L-10,4 Z " fill="#949BAE" transform="translate(203,200)"/>
<path d="M0,0 L2,0 L2,2 L4,3 L-2,6 L-18,6 L-23,4 L-23,3 L-2,3 L-2,1 Z " fill="#CACCD3" transform="translate(95,201)"/>
<path d="M0,0 L1,0 L2,32 L3,44 L1,41 L0,37 L-1,24 L-1,1 Z " fill="#E6935D" transform="translate(24,151)"/>
<path d="M0,0 L1,2 L3,2 L6,18 L6,46 L4,50 L3,19 L0,3 Z " fill="#F5E4A2" transform="translate(269,132)"/>
<path d="M0,0 L1,2 L-5,16 L-8,32 L-9,50 L-10,50 L-10,28 L-6,11 L-1,1 Z " fill="#F9F9F9" transform="translate(70,124)"/>
<path d="M0,0 L2,1 L-6,5 L-24,9 L-31,9 L-31,7 L-27,6 L-20,6 L-20,4 L-14,3 L-10,4 Z " fill="#DFBE7E" transform="translate(183,245)"/>
<path d="M0,0 L3,4 L6,11 L8,11 L9,21 L11,31 L11,37 L9,36 L5,16 L0,3 Z " fill="#E48E60" transform="translate(260,114)"/>
<path d="M0,0 L3,4 L-10,10 L-12,10 L-12,7 L-18,7 L-15,5 L-2,1 Z " fill="#979AAB" transform="translate(127,168)"/>
<path d="M0,0 L14,1 L13,3 L25,6 L25,8 L15,6 L2,4 L1,3 L-7,2 L-7,1 Z " fill="#ECAA5D" transform="translate(160,40)"/>
<path d="M0,0 L6,0 L4,5 L0,9 L-6,7 L-8,6 L-9,2 L0,2 Z " fill="#9A9FB1" transform="translate(108,158)"/>
<path d="M0,0 L4,0 L2,12 L1,20 L-1,20 L-3,17 L-2,8 Z " fill="#EDB56E" transform="translate(25,131)"/>
<path d="M0,0 L11,0 L12,2 L10,8 L7,7 L7,4 L6,8 L0,8 L-1,10 L-3,7 L-2,3 L0,6 L5,7 L5,3 L0,2 Z " fill="#B5B2A2" transform="translate(192,227)"/>
<path d="M0,0 L2,1 L1,6 L-1,6 L-1,21 L5,19 L1,26 L-3,24 L-3,11 L-2,3 Z " fill="#E27B67" transform="translate(172,255)"/>
</svg>
