<?xml version="1.0" encoding="UTF-8"?>
<!-- Generator: visioncortex VTracer 0.6.12 -->
<svg xmlns:xlink="http://www.w3.org/1999/xlink" xmlns:sodipodi="http://sodipodi.sourceforge.net/DTD/sodipodi-0.0.dtd" xmlns:inkscape="http://www.inkscape.org/namespaces/inkscape" version="1.1" xmlns="http://www.w3.org/2000/svg" width="313" height="344">
<path d="M0,0 L313,0 L313,344 L0,344 Z M100,20 L93,23 L92,27 L79,27 L74,29 L69,36 L68,43 L70,49 L79,49 L85,44 L88,37 L97,34 L221,34 L226,36 L231,47 L234,47 L244,48 L248,46 L246,37 L242,30 L237,27 L224,26 L221,25 L219,20 L218,22 L217,20 Z M94,46 L88,48 L87,57 L84,59 L37,60 L34,61 L32,64 L32,72 L36,76 L40,71 L46,68 L56,67 L64,71 L66,73 L66,82 L67,84 L63,85 L36,84 L32,85 L29,89 L32,92 L33,88 L35,87 L67,87 L69,83 L69,72 L64,67 L60,65 L46,65 L36,71 L35,70 L35,65 L38,63 L71,62 L88,61 L90,53 L90,50 L94,49 L222,49 L225,51 L227,60 L230,61 L276,62 L278,63 L279,69 L274,67 L271,66 L273,70 L279,75 L282,69 L282,60 L270,59 L247,59 L229,58 L229,50 L224,46 Z M260,63 L251,66 L246,73 L246,82 L249,87 L280,88 L280,91 L248,93 L249,95 L272,95 L281,93 L284,88 L284,84 L251,84 L249,83 L249,74 L251,68 L256,66 L267,64 L267,63 Z M88,73 L84,74 L84,84 L87,84 L88,88 L86,94 L84,94 L84,177 L74,176 L70,180 L69,95 L67,95 L67,93 L43,92 L33,91 L33,94 L37,95 L65,95 L66,98 L66,180 L63,191 L61,201 L56,210 L58,219 L56,223 L57,229 L59,234 L58,239 L23,240 L20,242 L21,252 L22,253 L20,255 L28,257 L68,257 L73,258 L111,257 L113,261 L122,258 L127,256 L131,261 L138,263 L141,257 L146,255 L150,259 L160,259 L169,258 L173,255 L177,256 L180,260 L196,260 L202,261 L211,258 L224,259 L232,261 L235,260 L236,258 L240,257 L292,257 L290,254 L238,255 L242,253 L241,252 L243,251 L244,244 L252,234 L253,224 L255,224 L256,219 L254,213 L258,203 L254,199 L252,199 L251,194 L248,197 L249,188 L249,97 L247,95 L246,98 L245,183 L240,178 L232,178 L232,95 L228,91 L231,78 L230,74 L228,73 Z " fill="#F8F8F8" transform="translate(0,0)"/>
<path d="M0,0 L140,0 L144,3 L142,12 L141,16 L144,21 L143,103 L141,105 L130,107 L126,109 L122,111 L118,105 L116,103 L115,23 L116,19 L111,18 L30,18 L28,31 L27,99 L26,102 L23,102 L23,104 L19,105 L19,108 L15,107 L10,105 L-2,102 L-3,100 L-3,19 L-1,19 L1,12 L-2,8 L-1,2 Z " fill="#F8F7F5" transform="translate(87,75)"/>
<path d="M0,0 L5,2 L15,1 L26,5 L29,6 L29,8 L36,2 L44,1 L52,3 L60,4 L65,8 L69,4 L84,3 L92,2 L99,5 L108,4 L118,2 L122,4 L130,4 L135,9 L139,6 L148,3 L158,3 L164,2 L169,8 L170,12 L168,14 L165,14 L166,18 L167,15 L171,15 L172,13 L171,20 L177,24 L178,26 L176,27 L176,29 L171,30 L169,34 L162,43 L149,49 L145,40 L139,36 L136,34 L132,38 L127,47 L124,47 L115,48 L112,49 L108,41 L101,35 L99,35 L95,40 L90,42 L88,49 L82,46 L74,47 L68,40 L65,34 L65,32 L60,35 L55,43 L54,45 L41,46 L36,42 L33,37 L27,35 L19,40 L16,47 L9,44 L3,47 L3,42 L-10,41 L-6,35 L-10,26 L-9,21 L-8,14 L-7,9 L-3,3 Z " fill="#E1E3E0" transform="translate(75,178)"/>
<path d="M0,0 L4,5 L7,11 L3,15 L15,17 L16,21 L22,18 L27,21 L31,14 L39,9 L45,11 L51,19 L57,20 L66,20 L68,14 L74,7 L77,7 L83,18 L86,21 L94,20 L99,23 L102,17 L109,12 L111,9 L116,11 L123,19 L125,23 L127,22 L136,21 L139,20 L146,9 L149,8 L155,13 L159,17 L162,23 L174,17 L183,5 L189,3 L188,13 L185,14 L184,17 L182,17 L183,23 L187,28 L186,33 L181,38 L180,48 L178,49 L179,51 L172,53 L170,55 L161,52 L147,50 L144,53 L135,54 L128,52 L124,53 L117,53 L113,50 L108,50 L102,53 L104,55 L97,56 L87,56 L87,54 L92,53 L95,53 L88,51 L85,51 L84,49 L78,51 L73,56 L76,57 L75,60 L68,58 L63,53 L52,58 L50,58 L48,54 L46,54 L46,52 L51,51 L51,56 L61,51 L66,52 L71,57 L71,55 L69,55 L65,49 L59,51 L53,53 L52,49 L46,50 L44,52 L28,53 L16,53 L5,49 L1,35 L4,29 L-1,28 L-2,27 L-2,16 L-1,16 L-1,11 L-2,11 L-2,3 Z " fill="#F1F2F0" transform="translate(63,203)"/>
<path d="M0,0 L78,0 L81,1 L83,4 L84,81 L86,85 L87,87 L80,88 L74,85 L62,88 L53,87 L49,85 L42,86 L26,86 L21,91 L18,87 L5,85 L-8,85 L-5,84 L-4,13 L-2,3 Z M13,16 L11,21 L11,31 L15,34 L23,34 L24,31 L24,19 L21,16 Z M35,16 L31,18 L30,22 L30,30 L33,33 L35,34 L46,34 L49,29 L49,21 L45,16 Z M60,16 L56,17 L55,20 L55,30 L58,34 L69,34 L70,19 L69,16 Z M16,40 L12,41 L11,44 L11,56 L15,58 L23,58 L24,55 L24,43 L20,40 Z M35,40 L30,44 L30,54 L32,58 L48,58 L49,55 L49,42 L44,40 Z M59,40 L56,41 L55,45 L55,55 L60,58 L68,58 L70,53 L69,43 L65,40 Z " fill="#F4F3EE" transform="translate(118,93)"/>
<path d="M0,0 L114,0 L121,6 L135,7 L140,10 L144,17 L144,22 L142,24 L135,24 L130,20 L127,14 L127,12 L122,11 L-9,11 L-14,13 L-20,24 L-27,25 L-31,21 L-29,15 L-25,8 L-9,6 L-6,4 L-5,2 Z " fill="#F9F9F8" transform="translate(101,22)"/>
<path d="M0,0 L2,2 L3,9 L2,13 L6,14 L-36,14 L-40,10 L-40,4 L-35,1 L-1,1 Z " fill="#F9F9F8" transform="translate(62,240)"/>
<path d="M0,0 L9,0 L14,2 L14,15 L13,18 L-3,18 L-5,14 L-5,4 Z " fill="#FAFAFA" transform="translate(153,133)"/>
<path d="M0,0 L130,0 L135,4 L135,12 L138,12 L138,14 L133,14 L131,5 L128,3 L0,3 L-4,4 Z " fill="#D4C996" transform="translate(94,46)"/>
<path d="M0,0 L140,0 L143,3 L141,4 L139,3 L-1,2 L-2,11 L-4,11 L-4,1 Z " fill="#D3C794" transform="translate(88,73)"/>
<path d="M0,0 L117,0 L115,2 L-1,3 L-2,5 L-3,6 L-5,8 L-8,9 L-24,10 L-24,12 L-27,11 L-25,8 L-21,7 L-8,7 L-6,2 Z " fill="#D4C897" transform="translate(100,20)"/>
<path d="M0,0 L10,0 L14,5 L14,13 L11,18 L0,18 L-4,16 L-5,14 L-5,6 L-3,1 Z " fill="#FAFAFA" transform="translate(153,109)"/>
<path d="M0,0 L1,0 L1,83 L9,83 L15,90 L17,94 L17,99 L11,98 L11,103 L9,101 L9,97 L13,95 L11,89 L8,86 L-2,84 L-3,81 L-1,81 L-1,1 Z " fill="#B5B185" transform="translate(231,95)"/>
<path d="M0,0 L9,0 L10,7 L9,18 L-2,18 L-5,14 L-5,4 L-4,1 Z " fill="#F9F9F9" transform="translate(178,109)"/>
<path d="M0,0 L6,0 L10,3 L11,13 L9,18 L1,18 L-4,15 L-4,5 L-3,1 Z " fill="#FAFAFA" transform="translate(177,133)"/>
<path d="M0,0 L8,0 L11,3 L11,15 L10,18 L2,18 L-2,15 L-2,5 Z " fill="#FAFAFA" transform="translate(131,109)"/>
<path d="M0,0 L5,1 L8,3 L8,15 L7,18 L-1,18 L-5,16 L-5,4 L-4,1 Z " fill="#FAFAFA" transform="translate(134,133)"/>
<path d="M0,0 L1,0 L1,87 L-1,92 L-2,101 L-3,101 L-4,92 L-2,85 L-1,2 Z " fill="#D4C998" transform="translate(68,95)"/>
<path d="M0,0 L2,1 L0,6 L-2,14 L-19,15 L-52,16 L-55,18 L-55,23 L-52,23 L-44,18 L-34,18 L-38,20 L-46,22 L-51,25 L-55,29 L-58,25 L-58,17 L-56,14 L-53,13 L-6,12 L-3,10 L-2,1 Z " fill="#CEC393" transform="translate(90,47)"/>
<path d="M0,0 L2,3 L2,96 L-1,92 L-1,3 Z " fill="#D2C794" transform="translate(247,95)"/>
<path d="M0,0 L129,0 L131,2 L-1,2 Z " fill="#D4C894" transform="translate(94,32)"/>
<path d="M0,0 L1,0 L2,8 L2,76 L0,79 Z " fill="#D3C793" transform="translate(201,98)"/>
<path d="M0,0 L7,0 L7,1 L-6,4 L-9,5 L-11,11 L-11,20 L-9,21 L24,21 L24,25 L-11,24 L-14,19 L-14,10 L-9,3 Z " fill="#D0C597" transform="translate(260,63)"/>
<path d="M0,0 L5,0 L9,3 L16,3 L22,2 L27,4 L38,3 L39,0 L56,3 L58,5 L55,5 L49,4 L40,4 L33,7 L27,7 L25,6 L10,6 L4,3 L-1,5 L-4,6 L-8,3 Z " fill="#5E6E56" transform="translate(171,252)"/>
<path d="M0,0 L38,0 L50,1 L50,10 L47,16 L40,10 L39,7 L43,9 L47,10 L46,4 L44,3 L-2,2 Z " fill="#D0C598" transform="translate(232,59)"/>
<path d="M0,0 L2,2 L3,5 L6,6 L19,7 L25,11 L29,20 L30,26 L24,28 L16,27 L13,27 L7,15 L8,13 L11,16 L16,24 L18,25 L25,25 L26,24 L25,17 L21,11 L18,10 L4,9 L-3,3 L0,2 Z " fill="#CFC496" transform="translate(218,20)"/>
<path d="M0,0 L6,1 L12,5 L13,7 L13,18 L11,22 L-21,22 L-23,23 L-25,27 L-27,23 L-24,20 L-20,19 L8,20 L11,19 L10,16 L10,8 L5,4 L0,2 Z " fill="#C7BE93" transform="translate(56,65)"/>
<path d="M0,0 L13,3 L18,6 L18,3 L26,0 L35,0 L48,2 L50,6 L47,6 L31,3 L23,4 L18,9 L13,7 L0,2 Z " fill="#56674E" transform="translate(88,177)"/>
<path d="M0,0 L51,0 L57,3 L53,4 L48,3 L8,3 L0,1 Z " fill="#DACFA3" transform="translate(20,254)"/>
<path d="M0,0 L2,4 L3,11 L1,16 L1,21 L-6,30 L-8,27 L-3,23 L-2,16 L-5,15 L-7,9 L-6,7 L-4,7 L-3,3 L0,3 Z " fill="#9CA695" transform="translate(251,213)"/>
<path d="M0,0 L1,0 L2,7 L3,7 L3,14 L2,14 L2,24 L7,26 L5,33 L7,38 L6,47 L4,47 L4,40 L2,35 L1,33 L4,28 L1,29 L-1,28 L-2,19 L-1,16 L-1,5 Z " fill="#64735C" transform="translate(60,206)"/>
<path d="M0,0 L2,3 L5,0 L6,5 L11,7 L12,10 L8,19 L10,28 L8,30 L6,23 L6,19 L4,19 L5,12 L3,10 L6,9 L2,6 L-1,4 Z " fill="#ACAE90" transform="translate(246,194)"/>
<path d="M0,0 L2,2 L-2,10 L-1,14 L4,15 L8,15 L10,10 L14,3 L21,1 L17,5 L14,7 L11,14 L6,18 L-3,18 L-5,9 L-2,2 Z " fill="#C7BE97" transform="translate(73,31)"/>
<path d="M0,0 L10,1 L13,0 L13,4 L6,5 L1,3 L-4,9 L-6,13 L-6,21 L-8,25 L-7,32 L-12,28 L-10,21 L-9,20 L-8,11 L-5,5 Z " fill="#5D6D56" transform="translate(74,176)"/>
<path d="M0,0 L12,0 L21,3 L22,6 L7,3 L-3,4 L-8,6 L-14,5 L-30,5 L-32,2 L-14,2 L-10,3 L-4,2 Z " fill="#D9CFA2" transform="translate(210,255)"/>
<path d="M0,0 L82,0 L87,2 L87,6 L83,4 L83,2 L1,2 Z " fill="#D2C793" transform="translate(116,92)"/>
<path d="M0,0 L6,1 L12,3 L21,2 L29,0 L35,3 L35,5 L27,4 L16,7 L7,6 L1,3 Z " fill="#6C7B65" transform="translate(163,177)"/>
<path d="M0,0 L4,0 L2,5 L1,8 L-33,8 L-37,10 L-37,16 L-34,19 L-34,21 L-38,19 L-39,18 L-40,7 L-37,6 L-2,5 Z " fill="#CAC198" transform="translate(60,234)"/>
<path d="M0,0 L21,0 L18,3 L15,4 L0,5 L-5,9 L-7,5 L-4,5 Z " fill="#63725D" transform="translate(144,178)"/>
<path d="M0,0 L10,1 L34,2 L35,6 L32,6 L32,4 L4,4 L0,2 Z " fill="#CFC497" transform="translate(33,91)"/>
<path d="M0,0 L3,1 L55,0 L56,3 L4,3 L0,4 L-1,6 L-7,5 L-7,3 L-2,2 Z " fill="#B7B285" transform="translate(236,254)"/>
<path d="M0,0 L3,1 L4,5 L14,0 L17,1 L20,5 L20,7 L22,7 L22,9 L18,7 L16,4 L10,5 L4,8 L2,8 L1,4 L-3,4 L-4,6 L-10,5 L-10,4 L-4,2 Z " fill="#51624A" transform="translate(112,251)"/>
<path d="M0,0 L2,0 L1,9 L-1,15 L-3,15 L-3,31 L-5,38 L-7,35 L-6,30 L-5,25 L-7,19 L-1,8 Z " fill="#CDC499" transform="translate(63,191)"/>
<path d="M0,0 L3,1 L3,3 L8,2 L15,4 L13,6 L7,6 L3,7 L0,4 L-5,7 L-8,10 L-10,7 L-3,1 Z " fill="#637158" transform="translate(145,251)"/>
<path d="M0,0 L8,1 L5,3 L-5,3 L-16,7 L-19,9 L-23,4 L-31,4 L-30,2 L-22,1 L-18,6 L-13,2 L-6,1 Z " fill="#53664A" transform="translate(228,179)"/>
<path d="M0,0 L3,0 L1,5 L-8,7 L-32,7 L-32,5 L-11,4 L0,3 Z " fill="#CCC292" transform="translate(280,88)"/>
<path d="M0,0 L2,0 L2,3 L13,6 L36,6 L37,8 L11,9 L5,6 L2,6 L2,4 L0,4 Z " fill="#5B6C52" transform="translate(66,249)"/>
</svg>
