<?xml version="1.0" encoding="UTF-8"?>
<!-- Generator: visioncortex VTracer 0.6.12 -->
<svg xmlns:xlink="http://www.w3.org/1999/xlink" xmlns:sodipodi="http://sodipodi.sourceforge.net/DTD/sodipodi-0.0.dtd" xmlns:inkscape="http://www.inkscape.org/namespaces/inkscape" version="1.1" xmlns="http://www.w3.org/2000/svg" width="250" height="344">
<path d="M0,0 L250,0 L250,344 L0,344 Z M126,20 L121,22 L118,25 L102,33 L89,46 L82,61 L80,70 L79,81 L71,85 L71,87 L67,89 L67,91 L64,90 L59,98 L61,104 L67,111 L68,121 L64,132 L60,138 L58,141 L51,152 L45,154 L42,160 L43,165 L49,174 L49,185 L46,208 L46,224 L49,240 L53,252 L54,257 L48,266 L47,267 L47,275 L56,278 L59,278 L54,287 L45,301 L45,303 L27,299 L23,299 L20,305 L21,313 L24,316 L27,317 L45,317 L56,304 L62,295 L62,293 L66,292 L68,306 L72,312 L88,319 L104,322 L120,324 L169,324 L189,321 L202,317 L208,313 L211,305 L211,296 L215,291 L216,286 L216,277 L224,276 L227,269 L220,257 L223,248 L226,239 L228,224 L228,200 L223,179 L224,174 L230,164 L228,155 L222,152 L216,142 L211,134 L208,127 L208,114 L210,109 L213,106 L213,98 L208,92 L198,87 L196,87 L201,77 L210,63 L221,46 L223,40 L221,34 L213,33 L208,38 L198,53 L193,61 L193,63 L190,63 L182,47 L175,38 L165,30 L143,20 Z " fill="#F8F8F8" transform="translate(0,0)"/>
<path d="M0,0 L16,0 L23,5 L33,9 L42,14 L49,21 L56,32 L61,45 L66,42 L77,25 L82,16 L87,13 L92,15 L92,22 L82,38 L69,58 L67,66 L80,73 L84,79 L81,86 L78,90 L77,100 L81,113 L87,123 L92,131 L99,135 L100,142 L94,152 L93,157 L97,173 L98,180 L98,208 L92,229 L90,233 L91,237 L96,245 L95,251 L93,253 L86,254 L86,265 L83,272 L82,273 L81,283 L76,291 L80,289 L78,293 L75,294 L73,293 L63,297 L38,300 L-8,300 L-29,298 L-46,293 L-56,288 L-59,282 L-61,266 L-62,269 L-66,270 L-67,269 L-74,280 L-80,289 L-83,292 L-87,293 L-100,293 L-105,290 L-106,283 L-104,281 L-105,277 L-96,278 L-83,281 L-81,275 L-79,272 L-75,272 L-73,267 L-66,255 L-78,253 L-79,252 L-79,245 L-73,238 L-72,232 L-76,221 L-79,209 L-80,186 L-76,161 L-77,152 L-83,143 L-84,138 L-80,132 L-75,130 L-70,122 L-65,116 L-59,103 L-58,94 L-60,88 L-66,79 L-67,76 L-64,70 L-59,66 L-50,62 L-47,60 L-45,43 L-41,32 L-35,23 L-38,25 L-36,21 L-31,18 L-20,10 L-5,4 Z M8,5 L4,7 L3,24 L5,29 L12,29 L14,24 L15,18 L15,7 Z M-14,11 L-26,19 L-34,28 L-40,40 L-42,52 L-42,60 L-38,74 L-32,84 L-26,91 L-13,99 L-1,102 L9,103 L22,101 L38,93 L47,85 L55,72 L57,62 L57,47 L53,35 L47,25 L39,17 L31,12 L27,14 L28,17 L38,24 L46,34 L49,40 L51,49 L51,61 L48,71 L43,80 L34,89 L22,95 L17,96 L-1,96 L-10,93 L-20,87 L-28,80 L-35,66 L-35,47 L-32,37 L-28,30 L-24,28 L-16,19 L-8,14 L-8,11 Z M-7,18 L-6,22 L-12,23 L-18,27 L-22,29 L-26,33 L-29,38 L-28,43 L-12,40 L-5,35 L-2,30 L-1,21 L-5,18 Z M24,19 L20,20 L18,31 L22,37 L31,41 L45,44 L44,38 L38,29 L31,22 Z M1,43 L-17,46 L-28,50 L-31,52 L-30,62 L-26,73 L-19,82 L-9,88 L-2,90 L19,90 L29,86 L37,80 L43,70 L46,63 L46,54 L40,49 L29,45 L14,43 Z M-48,69 L-59,73 L-60,76 L-58,80 L-40,86 L-39,84 L-47,69 Z M61,71 L53,85 L53,88 L62,87 L71,85 L77,81 L75,76 L66,72 Z M7,114 L1,117 L-3,123 L-2,131 L2,137 L8,139 L14,138 L18,134 L9,133 L6,129 L6,122 L9,119 L17,117 L16,115 Z M76,138 L50,145 L30,148 L-1,148 L-24,146 L-56,139 L-65,140 L-68,149 L-68,155 L-50,173 L-39,182 L-27,192 L-16,200 L-7,207 L6,215 L10,216 L17,212 L18,208 L22,205 L26,204 L30,199 L35,198 L46,189 L56,181 L62,176 L67,171 L75,164 L82,157 L85,152 L82,143 L79,138 Z M85,160 L78,167 L78,170 L67,179 L55,190 L51,192 L48,192 L33,205 L17,216 L18,221 L16,222 L32,230 L48,238 L60,243 L71,247 L77,247 L83,239 L89,226 L94,206 L94,179 L90,162 L88,160 Z M-72,162 L-75,179 L-76,186 L-76,203 L-73,219 L-65,237 L-59,244 L-54,246 L-33,239 L-2,224 L2,218 L-2,214 L-9,209 L-11,210 L-7,213 L-11,211 L-23,202 L-30,196 L-30,194 L-34,193 L-47,182 L-58,173 L-69,162 Z M4,224 L-10,232 L-25,239 L-48,248 L-48,251 L-40,256 L-25,261 L-12,263 L8,263 L8,264 L26,264 L49,262 L60,259 L68,254 L67,250 L39,238 L12,224 Z M-54,255 L-57,257 L-56,262 L-51,267 L-44,272 L-49,273 L-53,277 L-52,282 L-48,286 L-37,290 L-16,294 L2,295 L27,295 L46,294 L66,290 L72,287 L74,284 L74,279 L71,277 L65,276 L75,270 L79,266 L80,262 L77,257 L71,258 L60,262 L43,266 L35,267 L-4,267 L-34,263 L-44,259 L-52,255 Z " fill="#E8E5E0" transform="translate(128,22)"/>
<path d="M0,0 L10,1 L39,7 L61,9 L92,9 L120,5 L134,1 L141,1 L145,5 L147,11 L143,17 L131,28 L120,37 L108,48 L98,55 L97,58 L93,59 L88,64 L83,66 L81,70 L71,72 L60,65 L48,56 L36,47 L26,39 L18,32 L6,21 L0,16 L-2,12 L-2,6 Z " fill="#F8F8F7" transform="translate(64,163)"/>
<path d="M0,0 L6,2 L16,7 L39,12 L47,13 L94,13 L111,10 L127,2 L132,3 L134,9 L132,13 L121,20 L119,21 L127,23 L128,24 L128,29 L124,33 L117,36 L100,39 L81,40 L56,40 L38,39 L17,35 L6,31 L2,27 L1,22 L5,18 L10,17 L-1,9 L-3,5 L-2,1 Z " fill="#FAFAFA" transform="translate(74,277)"/>
<path d="M0,0 L4,4 L7,17 L7,44 L0,69 L-6,80 L-8,83 L-19,81 L-35,75 L-63,61 L-66,58 L-62,52 L-46,40 L-36,32 L-27,25 L-17,16 L-3,4 Z " fill="#F9F9F9" transform="translate(213,184)"/>
<path d="M0,0 L4,2 L16,14 L27,23 L38,32 L41,32 L43,36 L53,44 L64,52 L68,54 L69,59 L46,71 L26,79 L17,82 L13,80 L6,71 L0,56 L-2,46 L-2,40 L-4,40 L-2,15 L0,3 Z " fill="#F8F8F7" transform="translate(57,184)"/>
<path d="M0,0 L13,0 L32,3 L42,8 L45,11 L45,20 L38,34 L34,39 L22,46 L18,47 L-3,47 L-14,43 L-23,36 L-29,26 L-32,13 L-32,9 L-25,5 L-8,1 Z " fill="#FAFAFA" transform="translate(129,65)"/>
<path d="M0,0 L6,1 L28,13 L46,21 L56,25 L54,29 L43,33 L30,35 L14,36 L2,36 L-26,34 L-48,28 L-54,25 L-53,22 L-47,21 L-35,16 L-25,12 L-4,1 Z " fill="#F9F9F9" transform="translate(136,248)"/>
<path d="M0,0 L6,0 L5,4 L-4,10 L-11,18 L-15,20 L-19,28 L-21,36 L-21,55 L-13,70 L0,80 L8,84 L13,85 L31,85 L40,82 L49,77 L58,68 L64,55 L65,50 L65,38 L62,27 L56,18 L50,11 L41,5 L42,2 L45,1 L54,7 L62,15 L69,29 L71,36 L71,51 L68,63 L60,75 L49,84 L36,90 L21,92 L5,89 L-3,86 L-13,79 L-22,67 L-26,57 L-28,49 L-28,41 L-26,29 L-20,17 L-11,7 Z " fill="#F8F8F8" transform="translate(114,33)"/>
<path d="M0,0 L5,5 L9,7 L11,16 L5,26 L4,31 L9,52 L9,76 L6,96 L1,107 L3,112 L8,122 L5,128 L1,127 L4,123 L3,117 L-2,110 L-1,105 L5,86 L6,82 L6,54 L3,40 L1,31 L2,26 L8,16 L7,9 L0,5 L-1,1 Z " fill="#A39788" transform="translate(219,148)"/>
<path d="M0,0 L10,3 L15,6 L16,10 L10,14 L-4,17 L-8,17 L-7,12 Z " fill="#FAFAFA" transform="translate(189,93)"/>
<path d="M0,0 L7,2 L7,13 L5,23 L4,24 L-3,24 L-5,19 L-4,2 Z " fill="#FAFAFA" transform="translate(136,27)"/>
<path d="M0,0 L3,1 L1,10 L-1,14 L-11,18 L-20,19 L-18,13 L-10,4 Z " fill="#F9F9F9" transform="translate(122,43)"/>
<path d="M0,0 L9,1 L10,3 L1,6 L-1,8 L-1,15 L2,19 L11,20 L7,24 L1,25 L-6,22 L-9,17 L-10,9 L-5,2 Z " fill="#C0B39F" transform="translate(135,136)"/>
<path d="M0,0 L8,4 L14,9 L19,18 L19,20 L9,18 L2,15 L-2,12 L-2,4 Z " fill="#F8F8F8" transform="translate(151,43)"/>
<path d="M0,0 L2,2 L-5,5 L-17,8 L-32,10 L-81,10 L-97,8 L-97,6 L-81,7 L-35,7 L-10,4 Z " fill="#A09585" transform="translate(201,314)"/>
<path d="M0,0 L17,0 L39,10 L43,14 L41,15 L29,9 L22,6 L18,3 L2,3 L-5,8 L-18,13 L-29,21 L-31,23 L-31,20 L-24,13 L-8,5 L-5,2 Z " fill="#A79C8D" transform="translate(126,20)"/>
<path d="M0,0 L3,3 L9,15 L8,17 L-10,11 L-12,5 L-4,1 Z " fill="#FAFAFA" transform="translate(80,91)"/>
<path d="M0,0 L5,2 L13,8 L10,14 L-9,24 L-25,31 L-43,37 L-48,35 L-48,32 L-43,34 L-29,29 L-14,23 L6,13 L9,12 L8,7 L4,5 Z " fill="#A5998A" transform="translate(117,231)"/>
<path d="M0,0 L9,6 L21,16 L32,24 L49,36 L60,35 L57,38 L51,40 L41,34 L30,27 L21,19 L10,11 L-1,2 Z " fill="#A39788" transform="translate(85,198)"/>
<path d="M0,0 L4,1 L5,5 L-5,11 L-21,14 L-37,15 L-55,15 L-53,13 L-17,10 L-5,7 L0,4 Z " fill="#AAA091" transform="translate(191,271)"/>
<path d="M0,0 L2,1 L3,3 L1,3 L-1,8 L-11,21 L-16,27 L-34,27 L-39,25 L-41,19 L-40,13 L-38,11 L-36,13 L-38,15 L-37,22 L-33,24 L-20,24 L-15,22 L-11,17 L-1,1 Z " fill="#A59A8B" transform="translate(61,290)"/>
<path d="M0,0 L2,3 L4,9 L-2,17 L-12,27 L-18,31 L-23,37 L-31,43 L-44,54 L-47,55 L-47,52 L-36,44 L-23,32 L-10,21 L-2,14 L1,9 L-1,1 Z " fill="#A59A8C" transform="translate(209,165)"/>
<path d="M0,0 L8,1 L10,9 L3,21 L-4,32 L-15,49 L-16,51 L-18,51 L-16,45 L-4,27 L6,11 L6,4 L1,3 L-4,8 L-6,8 L-4,4 Z M-7,8 Z M-8,9 Z " fill="#9E9282" transform="translate(213,33)"/>
<path d="M0,0 L2,2 L0,2 L-2,10 L4,18 L6,21 L7,31 L3,42 L-2,51 L-8,58 L-11,63 L-13,62 L-6,51 L-4,48 L1,40 L4,31 L3,21 L-3,14 L-5,8 Z " fill="#A59A8B" transform="translate(64,90)"/>
<path d="M0,0 L2,1 L2,3 L-26,7 L-57,7 L-65,6 L-65,4 L-24,4 L-4,1 Z " fill="#A79C8E" transform="translate(182,166)"/>
<path d="M0,0 L3,1 L-1,4 L-17,12 L-31,17 L-37,19 L-38,20 L-38,22 L-31,24 L-31,27 L-41,22 L-43,19 L-34,15 L-10,5 Z " fill="#A19585" transform="translate(122,252)"/>
<path d="M0,0 L1,0 L3,23 L8,42 L10,46 L9,52 L6,56 L4,56 L6,51 L7,46 L3,35 L0,23 L-1,16 L-1,1 Z " fill="#A99F91" transform="translate(47,208)"/>
<path d="M0,0 L2,1 L-6,5 L-23,8 L-70,8 L-87,5 L-87,4 L-75,5 L-67,6 L-28,6 L-11,3 Z " fill="#7B623A" transform="translate(191,283)"/>
<path d="M0,0 L4,1 L0,3 L-2,7 L-1,12 L5,21 L6,30 L2,55 L0,55 L0,47 L2,32 L2,21 L-4,12 L-5,7 L-2,1 Z M-1,55 Z " fill="#A89D8F" transform="translate(47,153)"/>
<path d="M0,0 L1,0 L0,9 L-5,25 L-12,38 L-15,41 L-24,40 L-28,38 L-28,36 L-15,39 L-13,34 L-7,22 L-1,1 Z " fill="#A4998A" transform="translate(220,228)"/>
<path d="M0,0 L3,1 L2,5 L10,10 L32,21 L45,26 L46,28 L39,27 L21,19 L5,11 L-2,7 L0,6 L-1,1 Z " fill="#A4998A" transform="translate(146,237)"/>
<path d="M0,0 L5,2 L6,3 L5,12 L0,19 L-5,22 L-21,25 L-22,20 L-16,11 L-14,13 L-19,22 L-4,18 L0,17 L3,6 L3,4 L0,1 Z " fill="#A19485" transform="translate(121,40)"/>
<path d="M0,0 L4,0 L8,14 L9,19 L9,46 L7,46 L6,19 L3,6 L0,3 L-5,9 L-7,7 Z M6,46 Z " fill="#A59A8C" transform="translate(213,182)"/>
<path d="M0,0 L9,1 L27,5 L50,9 L50,10 L36,10 L3,3 L-4,3 L-4,1 Z " fill="#A79C8E" transform="translate(67,161)"/>
<path d="M0,0 L10,2 L18,4 L46,6 L46,7 L41,8 L24,8 L7,5 L0,2 Z " fill="#A69B8C" transform="translate(92,277)"/>
<path d="M0,0 L0,3 L-6,12 L-9,21 L-11,38 L-18,43 L-22,41 L-14,37 L-12,21 L-8,10 L-4,2 Z " fill="#A4998A" transform="translate(93,44)"/>
<path d="M0,0 L2,0 L4,6 L5,16 L7,22 L13,24 L23,28 L39,32 L39,33 L32,33 L20,30 L6,23 L3,18 L1,4 L-1,3 L1,3 Z " fill="#A39889" transform="translate(65,288)"/>
<path d="M0,0 L1,4 L1,17 L8,31 L12,36 L12,39 L10,39 L3,29 L-1,19 L-3,12 L-2,2 Z " fill="#A99E90" transform="translate(207,110)"/>
<path d="M0,0 L3,0 L6,16 L13,33 L17,38 L17,40 L13,38 L5,22 L2,13 Z " fill="#AA9F91" transform="translate(52,224)"/>
<path d="M0,0 L2,3 L1,5 L1,11 L5,17 L13,24 L23,33 L23,35 L19,33 L9,24 L-2,13 L-1,3 Z " fill="#A89E8F" transform="translate(62,164)"/>
<path d="M0,0 L5,2 L24,11 L37,16 L37,18 L30,17 L13,9 L-1,2 Z " fill="#9C8F7F" transform="translate(154,254)"/>
<path d="M0,0 L6,0 L6,2 L2,2 L2,11 L0,17 L-3,21 L-3,30 L-8,38 L-11,38 L-6,30 L-5,20 L-2,16 L-1,12 L-1,1 Z " fill="#A39788" transform="translate(214,275)"/>
<path d="M0,0 L2,2 L0,4 L0,11 L13,13 L8,23 L3,31 L0,30 L8,18 L9,15 L-1,13 L-3,12 L-3,4 Z " fill="#A89D8F" transform="translate(50,263)"/>
<path d="M0,0 L7,6 L12,15 L12,19 L-5,15 L-9,12 L-7,11 L9,16 L3,5 L-1,1 Z " fill="#ACA194" transform="translate(161,47)"/>
<path d="M0,0 L1,2 L-6,14 L-14,25 L-18,27 L-18,24 L-16,24 L-16,22 L-14,22 L-12,17 L-3,3 Z " fill="#ABA092" transform="translate(207,41)"/>
<path d="M0,0 L8,0 L22,7 L22,9 L17,8 L8,3 L0,4 L-5,7 L-8,7 L-8,5 Z " fill="#B1A79A" transform="translate(132,246)"/>
<path d="M0,0 L5,2 L13,11 L21,27 L23,31 L21,31 L20,33 L15,20 L8,9 L0,1 Z " fill="#928572" transform="translate(168,34)"/>
<path d="M0,0 L4,1 L5,6 L3,7 L3,5 L-6,5 L-16,8 L-21,8 L-18,5 Z " fill="#B9B0A5" transform="translate(204,160)"/>
<path d="M0,0 L1,3 L3,4 L1,4 L-1,23 L-2,38 L-4,40 L-4,24 L-1,4 Z " fill="#A89D8E" transform="translate(56,184)"/>
<path d="M0,0 L1,3 L7,5 L15,10 L18,14 L18,22 L13,26 L16,16 L12,11 L-1,4 Z " fill="#A89D8F" transform="translate(195,84)"/>
<path d="M0,0 L2,1 L2,3 L-9,11 L-19,19 L-27,25 L-29,25 L-28,22 L-15,13 Z " fill="#A79D8F" transform="translate(177,213)"/>
<path d="M0,0 L8,4 L9,7 L4,5 L0,3 L-2,6 L-2,14 L1,16 L1,18 L-3,17 L-6,12 L-4,1 Z " fill="#9B8D7D" transform="translate(152,41)"/>
</svg>
