<?xml version="1.0" encoding="UTF-8"?>
<!-- Generator: visioncortex VTracer 0.6.12 -->
<svg xmlns:xlink="http://www.w3.org/1999/xlink" xmlns:sodipodi="http://sodipodi.sourceforge.net/DTD/sodipodi-0.0.dtd" xmlns:inkscape="http://www.inkscape.org/namespaces/inkscape" version="1.1" xmlns="http://www.w3.org/2000/svg" width="322" height="344">
<path d="M0,0 L322,0 L322,344 L0,344 Z M104,20 L102,25 L102,39 L104,51 L105,51 L105,26 L106,24 L109,23 L210,23 L212,26 L211,47 L208,77 L208,86 L210,89 L212,69 L215,38 L215,25 L213,20 L211,21 L106,21 Z M121,33 L116,36 L116,49 L118,77 L120,73 L120,58 L119,38 L122,36 L196,36 L199,37 L199,49 L197,64 L197,80 L195,81 L198,82 L200,70 L202,47 L202,34 L198,33 Z M105,51 L104,54 L104,66 L106,94 L109,97 L111,95 L109,93 L106,51 Z M111,96 L112,100 L116,101 L119,108 L120,108 L119,99 L121,99 L122,101 L122,99 L195,100 L196,103 L196,101 L198,100 L198,98 L117,97 Z M195,108 L195,112 L134,112 L133,114 L134,147 L136,194 L137,198 L137,222 L132,224 L130,228 L140,227 L140,207 L139,178 L138,174 L137,144 L135,117 L137,115 L195,115 L196,108 Z M31,143 L30,148 L26,149 L30,149 L30,192 L31,200 L23,197 L23,201 L25,202 L34,202 L34,200 L32,200 L32,143 Z M65,143 L61,146 L61,148 L59,148 L59,150 L55,151 L55,168 L57,171 L63,173 L63,175 L67,176 L76,176 L76,193 L70,195 L70,193 L66,193 L66,184 L57,183 L56,184 L56,191 L58,191 L60,197 L64,198 L64,200 L68,202 L77,202 L78,198 L83,196 L86,193 L86,154 L83,153 L81,147 L79,147 L79,145 L75,143 Z M237,143 L228,146 L227,148 L222,153 L222,189 L225,196 L230,200 L234,201 L244,201 L251,196 L253,191 L254,191 L254,162 L252,153 L250,149 L248,149 L248,146 L242,143 Z M284,149 L279,151 L276,156 L277,165 L283,168 L291,168 L295,161 L294,153 L288,149 Z M108,172 L108,182 L109,187 L110,207 L111,211 L112,235 L113,235 L113,184 L110,180 L109,173 L112,172 Z M283,173 L277,176 L276,180 L276,192 L282,196 L292,196 L295,190 L295,179 L292,174 Z M196,114 L194,121 L193,142 L192,145 L191,169 L193,172 L190,175 L190,184 L192,180 L192,186 L193,187 L193,221 L191,225 L188,226 L188,228 L194,228 L194,225 L196,225 L196,231 L195,233 L130,233 L118,232 L118,228 L124,228 L127,223 L129,225 L130,222 L128,204 L127,188 L125,183 L120,180 L118,180 L118,222 L116,227 L115,231 L115,233 L118,235 L199,235 L200,230 L200,226 L198,226 L197,220 L196,185 L194,178 L194,174 L200,173 L204,173 L204,171 L206,170 L204,169 L195,169 L194,165 L194,155 L195,148 L197,126 L197,114 Z M189,186 L187,200 L186,214 L186,226 L188,226 L190,201 L191,188 Z M203,180 L202,182 L201,234 L201,278 L197,277 L196,274 L196,246 L193,240 L184,241 L183,245 L182,261 L180,266 L179,267 L138,267 L134,265 L132,254 L131,242 L122,240 L119,245 L118,278 L115,278 L114,237 L112,240 L112,285 L113,287 L148,288 L148,286 L154,286 L152,293 L152,311 L149,312 L151,312 L150,317 L148,317 L149,321 L153,320 L154,318 L168,316 L170,314 L168,313 L166,306 L166,290 L169,288 L202,287 L203,284 L204,239 L204,180 Z " fill="#F8F8F8" transform="translate(0,0)"/>
<path d="M0,0 L9,2 L11,22 L12,25 L16,27 L16,29 L59,29 L59,25 L60,21 L61,5 L62,1 L71,0 L74,6 L74,11 L72,11 L72,35 L68,36 L-1,36 L-1,23 L-2,23 L-2,2 Z " fill="#E7E9E8" transform="translate(122,240)"/>
<path d="M0,0 L10,0 L14,2 L14,4 L16,4 L18,10 L21,11 L21,50 L15,55 L13,55 L12,59 L3,59 L-1,57 L-1,55 L-5,54 L-7,48 L-9,48 L-9,41 L-4,40 L1,41 L1,50 L5,50 L5,52 L11,50 L11,33 L2,33 L-2,32 L-2,30 L-8,28 L-10,25 L-10,8 L-6,7 L-6,5 L-4,5 L-2,1 Z M5,7 L0,10 L-3,13 L-1,23 L7,26 L11,25 L13,11 L9,7 Z " fill="#DCD4D3" transform="translate(65,143)"/>
<path d="M0,0 L8,1 L11,3 L11,6 L13,6 L16,12 L17,19 L17,48 L15,51 L10,56 L7,58 L-3,58 L-10,55 L-14,50 L-15,46 L-15,10 L-12,8 L-10,5 L-7,2 Z M-1,8 L-7,11 L-8,13 L-8,46 L-6,51 L-4,52 L5,52 L9,47 L9,15 L5,9 Z " fill="#DFD4D4" transform="translate(237,143)"/>
<path d="M0,0 L5,4 L8,6 L7,8 L4,9 L-30,10 L-31,9 L-75,9 L-80,6 L-77,3 L-74,3 L-73,1 Z " fill="#F8F9F8" transform="translate(193,276)"/>
<path d="M0,0 L7,2 L10,7 L10,39 L6,43 L-4,41 L-5,36 L-6,7 L-5,3 Z " fill="#F9F9F9" transform="translate(236,151)"/>
<path d="M0,0 L9,1 L12,6 L12,17 L9,23 L-1,23 L-7,19 L-7,7 L-6,3 Z " fill="#E0D8D8" transform="translate(283,173)"/>
<path d="M0,0 L8,1 L9,5 L9,22 L11,27 L7,28 L-1,28 L-3,27 L-2,5 Z " fill="#FAFAFA" transform="translate(155,287)"/>
<path d="M0,0 L77,0 L81,1 L81,14 L78,45 L76,49 L74,47 L76,47 L76,31 L78,16 L78,4 L75,3 L1,3 L-2,5 L-4,16 L-5,16 L-5,3 Z " fill="#A5A5A0" transform="translate(121,33)"/>
<path d="M0,0 L6,1 L10,4 L11,12 L7,19 L-1,19 L-7,16 L-8,7 L-4,1 Z " fill="#E5D4D5" transform="translate(284,149)"/>
<path d="M0,0 L3,3 L5,3 L7,26 L8,38 L6,40 L5,38 L2,43 L-3,42 L-2,36 L-1,2 Z " fill="#D1D7D3" transform="translate(122,185)"/>
<path d="M0,0 L5,1 L8,4 L6,18 L2,19 L-6,16 L-8,6 L-3,1 Z " fill="#F9F9F9" transform="translate(70,150)"/>
<path d="M0,0 L2,1 L107,1 L109,0 L111,5 L111,18 L108,20 L108,6 L106,3 L5,3 L2,4 L1,6 L1,31 L-1,27 L-2,19 L-2,5 Z " fill="#9EA19A" transform="translate(104,20)"/>
<path d="M0,0 L12,2 L12,4 L4,4 L2,5 L3,13 L4,16 L5,56 L2,56 L2,59 L-4,59 L-4,57 L-1,56 L1,52 L1,18 L0,15 L0,11 L-2,15 L-2,6 L1,3 Z " fill="#647C6E" transform="translate(192,169)"/>
<path d="M0,0 L1,0 L0,7 L-58,7 L-60,9 L-60,21 L-61,21 L-62,16 L-62,6 L-61,4 L0,4 Z " fill="#305645" transform="translate(195,108)"/>
<path d="M0,0 L1,0 L2,6 L0,6 L0,10 L12,11 L77,11 L78,5 L79,2 L80,4 L82,4 L82,11 L81,13 L0,13 L-3,11 L-3,6 L-1,4 Z " fill="#325846" transform="translate(118,222)"/>
<path d="M0,0 L1,0 L2,16 L3,16 L3,26 L2,31 L5,30 L75,30 L74,32 L1,32 L0,35 L-3,33 L-1,33 Z " fill="#7E8A81" transform="translate(119,245)"/>
<path d="M0,0 L4,1 L8,4 L7,11 L4,7 L3,41 L1,43 L0,34 Z " fill="#6A7C72" transform="translate(118,180)"/>
<path d="M0,0 L1,0 L2,6 L1,49 L-3,47 L-5,48 L-8,43 L-8,17 L-7,17 L-6,40 L-5,43 L-1,44 L-1,1 Z " fill="#2F5543" transform="translate(202,234)"/>
<path d="M0,0 L1,0 L1,57 L3,57 L3,59 L-6,59 L-8,58 L-7,54 L0,57 L-1,49 L-1,6 L-5,5 L-1,5 Z " fill="#A39A96" transform="translate(31,143)"/>
<path d="M0,0 L2,4 L1,8 L-32,9 L-35,11 L-35,27 L-34,33 L-36,33 L-38,30 L-37,8 L-36,6 L-4,6 L-3,4 L-1,4 Z " fill="#9EA39C" transform="translate(201,279)"/>
<path d="M0,0 L6,1 L87,2 L87,5 L85,5 L84,7 L84,4 L11,3 L10,5 L10,3 L8,3 L9,12 L6,9 L5,5 L1,3 Z " fill="#446354" transform="translate(111,96)"/>
<path d="M0,0 L4,1 L1,1 L2,8 L5,12 L5,63 L4,63 L3,39 L2,35 L1,15 L0,10 Z " fill="#587466" transform="translate(108,172)"/>
<path d="M0,0 L1,0 L1,12 L-1,34 L-2,41 L-2,51 L-1,55 L8,55 L10,57 L0,57 L-5,55 L-4,31 L-3,28 L-2,7 Z " fill="#A0A59D" transform="translate(196,114)"/>
<path d="M0,0 L2,0 L3,29 L3,49 L-7,50 L-5,46 L0,44 Z " fill="#547365" transform="translate(137,178)"/>
<path d="M0,0 L8,0 L11,3 L10,8 L9,4 L0,4 L0,2 L-6,2 L-6,4 L-39,3 L-40,1 Z " fill="#557162" transform="translate(154,284)"/>
<path d="M0,0 L2,0 L3,15 L4,49 L4,65 L2,65 L0,18 Z " fill="#305645" transform="translate(134,129)"/>
<path d="M0,0 L1,0 L2,41 L3,45 L1,45 L5,48 L0,50 L-1,48 L-1,3 Z " fill="#738479" transform="translate(113,237)"/>
<path d="M0,0 L1,0 L0,22 L-2,37 L-3,50 L-5,47 L-5,38 L-2,8 L-1,1 Z " fill="#A7A7A2" transform="translate(213,39)"/>
<path d="M0,0 L1,4 L2,37 L4,36 L4,38 L12,40 L12,41 L3,41 L0,38 L-1,35 L-1,2 Z " fill="#A59A97" transform="translate(230,154)"/>
<path d="M0,0 L1,0 L4,42 L6,45 L3,46 L1,43 L-1,15 L-1,3 Z " fill="#9BA099" transform="translate(105,51)"/>
<path d="M0,0 L1,0 L1,19 L0,21 L14,21 L15,19 L18,22 L12,24 L2,25 L1,28 L-4,27 L-4,24 L-2,24 L-1,19 L-3,18 L0,18 Z " fill="#375C4B" transform="translate(152,293)"/>
<path d="M0,0 L5,2 L5,3 L-36,3 L-41,2 L-41,1 Z " fill="#989B94" transform="translate(179,267)"/>
<path d="M0,0 L2,2 L1,15 L0,31 L-1,40 L-3,40 L-3,28 L-1,5 Z " fill="#989F97" transform="translate(189,186)"/>
<path d="M0,0 L1,0 L1,29 L0,54 L-1,54 L-1,2 Z M-2,54 Z " fill="#2F5543" transform="translate(203,180)"/>
<path d="M0,0 L2,0 L3,16 L3,31 L1,35 L0,22 Z " fill="#B1B1AC" transform="translate(117,42)"/>
</svg>
