<?xml version="1.0" encoding="UTF-8"?>
<!-- Generator: visioncortex VTracer 0.6.12 -->
<svg xmlns:xlink="http://www.w3.org/1999/xlink" xmlns:sodipodi="http://sodipodi.sourceforge.net/DTD/sodipodi-0.0.dtd" xmlns:inkscape="http://www.inkscape.org/namespaces/inkscape" version="1.1" xmlns="http://www.w3.org/2000/svg" width="364" height="344">
<path d="M0,0 L364,0 L364,344 L0,344 Z M202,21 L202,23 L200,23 L199,44 L198,44 L197,26 L193,24 L192,32 L191,33 L188,22 L187,22 L186,35 L185,45 L183,26 L182,26 L181,34 L180,27 L178,31 L178,45 L176,42 L175,24 L172,22 L170,28 L167,28 L166,24 L165,23 L159,23 L159,28 L156,28 L155,35 L149,36 L148,27 L147,29 L139,30 L133,34 L130,34 L130,57 L118,58 L123,64 L131,67 L135,69 L137,68 L134,73 L129,77 L129,75 L124,74 L125,79 L124,80 L124,90 L112,91 L113,102 L117,104 L116,109 L114,110 L114,108 L108,108 L106,107 L107,117 L108,119 L110,119 L109,124 L111,127 L112,130 L101,128 L103,139 L105,141 L106,140 L109,147 L111,148 L112,153 L115,152 L115,155 L115,156 L116,160 L122,162 L123,168 L119,169 L122,174 L130,178 L130,180 L139,181 L137,183 L146,184 L147,188 L143,186 L141,190 L142,191 L141,196 L147,195 L151,193 L152,195 L162,197 L163,204 L161,204 L161,206 L152,205 L148,206 L146,203 L126,197 L121,195 L120,194 L116,192 L112,189 L108,190 L109,186 L108,184 L106,184 L106,182 L103,183 L101,179 L95,171 L92,164 L93,159 L99,152 L99,147 L103,144 L97,144 L97,146 L92,145 L86,149 L86,152 L81,152 L81,154 L78,153 L75,147 L73,135 L73,119 L74,112 L74,111 L78,103 L77,97 L68,96 L68,98 L64,99 L68,78 L71,71 L71,67 L74,64 L75,59 L76,52 L79,49 L79,48 L72,47 L71,50 L72,53 L70,53 L69,51 L67,55 L67,59 L63,61 L58,70 L59,75 L56,74 L52,89 L53,95 L50,94 L48,96 L47,89 L45,89 L46,84 L44,80 L44,59 L41,56 L38,56 L38,62 L36,62 L35,60 L34,64 L34,93 L36,100 L38,100 L37,104 L39,104 L38,111 L39,117 L41,140 L44,149 L48,163 L46,163 L45,161 L44,163 L42,162 L33,157 L28,156 L27,153 L20,152 L22,159 L24,161 L27,161 L27,164 L29,164 L29,169 L40,178 L50,183 L53,183 L57,187 L59,189 L58,194 L56,194 L55,199 L59,203 L64,203 L63,205 L72,208 L80,208 L80,209 L97,210 L110,213 L116,215 L120,216 L123,215 L123,218 L130,217 L129,220 L140,223 L143,221 L142,224 L152,226 L163,226 L163,228 L161,229 L161,231 L158,234 L158,237 L154,236 L154,238 L144,238 L134,240 L134,242 L127,243 L123,247 L124,250 L157,251 L160,252 L161,248 L166,248 L170,244 L170,240 L172,240 L173,242 L173,240 L178,239 L178,237 L187,237 L192,238 L192,240 L197,243 L199,249 L205,252 L239,252 L242,245 L233,241 L219,238 L207,238 L208,234 L201,233 L201,228 L210,225 L219,224 L225,223 L224,219 L232,221 L253,214 L258,212 L261,209 L262,210 L289,209 L298,206 L299,204 L304,203 L308,201 L308,194 L304,190 L303,186 L306,186 L306,184 L311,185 L326,177 L330,173 L336,166 L342,161 L343,153 L334,155 L334,158 L327,159 L325,163 L323,161 L317,161 L317,156 L319,152 L322,143 L323,128 L323,114 L325,114 L326,104 L328,103 L329,98 L330,82 L330,67 L329,62 L325,61 L323,58 L320,59 L318,82 L318,90 L319,93 L313,93 L307,72 L298,55 L291,46 L287,46 L286,50 L284,51 L286,56 L289,64 L292,63 L291,68 L295,78 L298,86 L300,87 L299,95 L298,103 L295,102 L294,99 L293,97 L295,96 L291,93 L288,94 L289,95 L286,96 L285,101 L288,102 L287,105 L290,112 L292,122 L294,122 L294,129 L292,129 L291,146 L289,150 L288,153 L284,154 L284,152 L279,153 L279,151 L272,147 L273,145 L265,146 L263,147 L263,152 L268,154 L267,156 L272,159 L274,159 L275,169 L273,169 L270,174 L266,175 L264,178 L264,181 L259,181 L260,185 L253,187 L249,192 L249,194 L244,196 L239,196 L232,199 L232,201 L227,200 L225,201 L225,203 L220,202 L216,203 L205,203 L197,198 L202,197 L202,199 L209,199 L209,197 L212,193 L217,193 L216,195 L222,197 L224,191 L222,184 L233,180 L235,178 L238,177 L241,176 L247,173 L245,172 L246,166 L241,165 L243,162 L246,162 L250,157 L252,151 L254,145 L257,145 L256,140 L260,139 L261,135 L261,132 L261,130 L255,131 L255,117 L257,117 L257,106 L253,107 L248,109 L249,105 L249,90 L249,87 L247,86 L242,86 L241,77 L233,79 L235,72 L238,73 L241,70 L242,69 L251,64 L251,60 L245,59 L244,48 L245,37 L241,36 L237,32 L229,29 L222,29 L219,28 L217,29 L215,46 L213,46 L214,33 L213,26 L210,26 L206,48 L205,47 L205,27 L203,26 L203,21 Z M136,264 L136,266 L129,268 L130,265 L125,267 L122,270 L121,275 L123,275 L123,277 L126,277 L125,315 L121,316 L118,321 L119,323 L121,320 L122,322 L145,322 L148,321 L147,317 L142,314 L141,266 L139,266 L138,264 Z M183,263 L172,265 L172,267 L168,269 L164,272 L162,271 L160,275 L159,280 L160,283 L158,284 L166,284 L165,282 L169,280 L171,276 L178,275 L178,279 L182,282 L184,282 L184,286 L182,286 L181,293 L182,295 L179,294 L180,298 L177,297 L175,303 L168,306 L166,311 L164,315 L159,316 L159,321 L163,323 L197,323 L200,319 L201,310 L188,310 L180,312 L179,308 L183,306 L187,301 L191,299 L192,297 L195,293 L196,289 L196,284 L198,285 L198,275 L196,275 L195,269 L193,269 L193,267 L189,265 L186,265 L187,263 Z " fill="#F8F8F8" transform="translate(0,0)"/>
<path d="M0,0 L5,1 L12,10 L21,29 L26,47 L32,47 L31,44 L31,36 L33,13 L37,12 L39,16 L42,16 L43,21 L43,36 L42,44 L40,44 L39,51 L35,66 L33,95 L31,103 L33,102 L31,110 L30,111 L30,115 L36,115 L38,117 L40,113 L47,112 L47,109 L52,108 L56,107 L55,115 L47,122 L43,127 L39,131 L24,139 L19,138 L19,140 L16,140 L17,144 L21,148 L21,155 L15,158 L11,159 L9,161 L2,163 L-25,164 L-29,163 L-43,168 L-51,171 L-63,173 L-72,176 L-84,179 L-90,181 L-85,189 L-76,194 L-55,198 L-48,201 L-48,203 L-81,203 L-89,198 L-92,195 L-95,194 L-95,192 L-105,191 L-109,192 L-111,194 L-114,194 L-115,196 L-115,194 L-117,194 L-118,199 L-122,202 L-126,202 L-127,206 L-136,205 L-163,204 L-164,200 L-159,197 L-150,197 L-135,194 L-129,192 L-128,186 L-125,184 L-126,182 L-124,182 L-124,180 L-135,180 L-145,178 L-144,175 L-149,177 L-158,174 L-157,171 L-164,172 L-164,169 L-171,170 L-175,168 L-179,166 L-179,163 L-188,161 L-203,161 L-220,157 L-228,157 L-232,153 L-231,148 L-226,147 L-225,144 L-227,139 L-232,138 L-232,136 L-242,132 L-247,130 L-253,125 L-254,122 L-260,118 L-260,115 L-264,114 L-267,108 L-267,106 L-260,107 L-259,110 L-250,113 L-245,116 L-243,117 L-241,115 L-241,117 L-239,117 L-244,101 L-246,94 L-248,71 L-249,61 L-248,58 L-250,58 L-249,53 L-250,48 L-251,26 L-249,10 L-244,11 L-243,13 L-243,34 L-241,38 L-242,43 L-240,43 L-239,50 L-236,48 L-234,49 L-235,43 L-231,28 L-228,29 L-229,24 L-224,15 L-220,13 L-219,9 L-217,5 L-217,7 L-215,7 L-216,3 L-214,1 L-208,2 L-209,5 L-211,6 L-212,13 L-214,20 L-216,22 L-217,27 L-219,32 L-222,33 L-224,42 L-224,53 L-221,56 L-218,57 L-215,52 L-211,52 L-209,54 L-210,59 L-213,65 L-213,68 L-214,73 L-214,89 L-212,101 L-209,107 L-206,108 L-206,106 L-201,106 L-200,102 L-195,99 L-190,100 L-190,98 L-184,98 L-188,101 L-189,108 L-195,114 L-194,122 L-187,131 L-185,136 L-183,136 L-181,136 L-181,138 L-179,138 L-178,142 L-179,144 L-175,143 L-171,146 L-167,148 L-166,149 L-161,151 L-141,157 L-139,160 L-130,159 L-126,160 L-126,158 L-124,158 L-125,151 L-135,149 L-136,147 L-143,150 L-146,149 L-145,145 L-145,142 L-143,140 L-140,142 L-141,138 L-150,137 L-148,135 L-157,134 L-157,132 L-166,127 L-168,122 L-164,122 L-165,116 L-171,114 L-172,110 L-170,110 L-172,109 L-172,106 L-175,107 L-176,102 L-178,101 L-181,94 L-183,95 L-185,86 L-186,82 L-175,84 L-177,78 L-178,75 L-177,73 L-179,73 L-181,66 L-181,61 L-178,62 L-173,62 L-173,64 L-171,63 L-170,58 L-172,58 L-174,56 L-175,45 L-163,44 L-163,34 L-163,31 L-163,28 L-158,29 L-158,31 L-151,25 L-152,20 L-163,16 L-163,15 L-153,15 L-139,18 L-133,15 L-128,16 L-119,18 L-110,14 L-105,15 L-101,17 L-93,16 L-91,14 L-84,15 L-80,18 L-68,17 L-62,19 L-58,20 L-49,16 L-39,15 L-42,18 L-41,21 L-45,23 L-46,24 L-50,27 L-52,26 L-54,33 L-46,31 L-45,40 L-38,40 L-39,43 L-38,44 L-38,59 L-39,63 L-33,60 L-30,60 L-30,71 L-32,71 L-32,85 L-26,84 L-27,89 L-26,91 L-29,94 L-31,94 L-30,99 L-33,99 L-35,105 L-38,112 L-43,117 L-45,117 L-46,119 L-41,120 L-42,126 L-40,127 L-47,130 L-49,131 L-53,132 L-56,135 L-65,138 L-63,146 L-65,151 L-71,149 L-69,145 L-74,144 L-81,143 L-82,146 L-80,150 L-89,150 L-89,153 L-82,157 L-71,157 L-64,156 L-62,157 L-62,155 L-57,154 L-55,155 L-55,153 L-47,150 L-41,149 L-38,148 L-37,144 L-32,140 L-27,139 L-28,135 L-23,135 L-22,130 L-19,128 L-15,126 L-14,123 L-12,123 L-13,113 L-17,112 L-20,109 L-19,108 L-24,106 L-24,101 L-18,99 L-14,100 L-15,101 L-8,105 L-8,107 L-3,106 L-3,108 L1,107 L3,101 L4,97 L5,83 L7,83 L7,76 L5,76 L2,64 L0,58 L1,56 L-2,55 L-1,50 L2,49 L1,47 L5,48 L8,51 L6,51 L8,53 L8,56 L11,57 L12,49 L13,45 L13,36 L8,23 L6,17 L2,18 L-1,10 L-3,5 L-1,4 Z M-116,36 L-118,41 L-112,51 L-110,52 L-108,48 L-108,42 L-112,40 Z M-130,37 L-134,41 L-134,49 L-130,54 L-127,50 L-126,41 L-128,37 Z M-90,38 L-93,41 L-98,39 L-96,47 L-97,46 L-100,46 L-104,46 L-107,52 L-108,61 L-106,64 L-104,64 L-101,74 L-97,76 L-96,75 L-96,85 L-90,98 L-84,97 L-81,92 L-81,86 L-86,70 L-86,69 L-79,85 L-76,85 L-76,83 L-72,82 L-73,86 L-75,90 L-73,100 L-72,104 L-67,102 L-63,97 L-62,89 L-59,92 L-55,85 L-55,74 L-58,66 L-60,65 L-63,68 L-65,74 L-64,69 L-63,65 L-67,67 L-67,66 L-64,62 L-63,57 L-66,49 L-70,43 L-72,38 L-75,39 L-76,41 L-76,50 L-73,57 L-80,51 L-84,50 L-83,44 L-88,38 Z M-149,42 L-152,44 L-150,53 L-147,57 L-143,47 L-143,45 Z M-122,48 L-125,53 L-126,61 L-123,68 L-117,73 L-116,79 L-108,97 L-105,96 L-103,92 L-102,80 L-106,70 L-108,63 L-113,63 L-116,69 L-114,63 L-115,54 L-117,50 L-119,48 Z M-138,51 L-141,53 L-145,62 L-143,68 L-140,74 L-140,76 L-137,76 L-136,76 L-135,85 L-127,95 L-124,91 L-122,86 L-124,95 L-123,100 L-115,107 L-111,113 L-109,111 L-108,102 L-113,89 L-117,83 L-119,82 L-120,77 L-122,77 L-124,71 L-128,66 L-131,67 L-132,60 L-133,56 L-135,56 L-137,51 Z M-164,56 L-162,65 L-160,65 L-158,74 L-155,77 L-151,68 L-151,62 L-156,59 L-158,59 L-158,57 Z M-149,69 L-152,72 L-156,82 L-154,87 L-151,93 L-157,88 L-159,90 L-161,99 L-160,109 L-157,112 L-151,113 L-148,108 L-148,118 L-146,123 L-141,126 L-137,126 L-134,121 L-133,128 L-128,133 L-126,134 L-118,134 L-117,127 L-114,127 L-112,123 L-112,118 L-114,118 L-116,113 L-123,105 L-125,105 L-126,101 L-129,106 L-127,96 L-134,88 L-138,86 L-140,88 L-140,79 L-142,75 L-144,75 L-145,69 Z M-98,86 L-102,90 L-104,101 L-104,108 L-99,113 L-96,108 L-91,103 L-90,99 L-96,86 Z M-52,87 L-58,96 L-56,105 L-52,109 L-49,106 L-48,96 L-51,87 Z M-82,97 L-86,102 L-83,114 L-78,112 L-76,107 L-77,98 Z M-62,100 L-68,105 L-71,111 L-70,121 L-67,121 L-62,123 L-62,121 L-58,119 L-58,109 L-61,100 Z M-91,108 L-96,115 L-97,121 L-96,125 L-91,123 L-88,121 L-88,112 Z M-107,110 L-111,121 L-113,130 L-112,136 L-106,145 L-103,145 L-96,133 L-98,124 L-103,111 Z M-75,115 L-80,118 L-81,126 L-80,129 L-83,130 L-84,127 L-84,134 L-87,135 L-83,135 L-82,132 L-78,133 L-75,127 L-74,124 L-72,124 L-71,118 L-73,118 L-73,115 Z " fill="#E8ECEA" transform="translate(287,46)"/>
<path d="M0,0 L1,3 L1,5 L3,6 L3,28 L5,23 L8,5 L11,5 L12,17 L11,25 L13,25 L15,8 L18,8 L18,19 L17,35 L21,28 L25,14 L26,14 L25,23 L23,31 L23,38 L30,24 L33,15 L34,15 L33,24 L31,33 L33,36 L37,28 L40,20 L41,20 L40,29 L37,38 L40,39 L40,41 L29,45 L27,46 L21,46 L22,44 L16,43 L5,44 L-1,40 L-6,40 L-8,42 L-16,43 L-22,40 L-28,41 L-34,44 L-43,42 L-48,41 L-54,44 L-68,41 L-64,39 L-59,40 L-60,31 L-64,20 L-65,13 L-61,17 L-57,28 L-53,32 L-56,20 L-56,12 L-54,12 L-54,15 L-47,14 L-46,21 L-45,8 L-43,8 L-41,24 L-37,35 L-36,33 L-37,19 L-37,6 L-32,7 L-30,1 L-27,3 L-26,21 L-24,24 L-24,10 L-22,6 L-21,13 L-20,5 L-19,5 L-17,24 L-16,7 L-15,1 L-13,3 L-11,12 L-10,11 L-9,3 L-5,5 L-4,23 L-3,23 L-2,2 L0,2 Z " fill="#D9DADA" transform="translate(202,21)"/>
<path d="M0,0 L4,1 L3,2 L8,3 L10,4 L10,6 L12,6 L13,12 L15,12 L15,22 L13,21 L13,28 L10,34 L8,35 L7,37 L4,38 L-2,45 L-4,45 L-3,49 L7,47 L18,47 L17,56 L14,60 L-20,60 L-24,57 L-23,52 L-18,51 L-15,43 L-7,39 L-6,34 L-3,35 L-4,31 L-1,32 L-2,27 L-1,23 L1,23 L1,19 L-3,17 L-5,16 L-5,12 L-12,13 L-15,18 L-18,19 L-17,21 L-25,21 L-23,20 L-24,13 L-22,12 L-20,8 L-17,8 L-13,4 L-11,4 L-11,2 Z " fill="#D4D6D5" transform="translate(183,263)"/>
<path d="M0,0 L2,0 L4,2 L4,50 L10,52 L12,53 L12,57 L9,58 L-14,58 L-15,56 L-18,59 L-16,53 L-13,51 L-11,51 L-10,41 L-8,41 L-8,18 L-9,12 L-15,11 L-13,5 L-8,1 L-6,2 L-7,4 L0,2 Z " fill="#D3D7D5" transform="translate(136,264)"/>
<path d="M0,0 L3,4 L2,13 L0,18 L2,18 L3,28 L8,35 L11,35 L14,32 L17,26 L18,29 L16,33 L18,42 L24,47 L29,49 L30,45 L31,48 L29,52 L26,53 L24,55 L20,50 L18,48 L11,45 L9,49 L9,45 L6,51 L0,50 L-4,47 L-5,43 L-5,33 L-8,38 L-10,37 L-7,30 L-5,21 L-6,18 L-3,18 L0,10 Z M0,32 L-3,35 L-4,42 L-3,47 L4,49 L7,44 L6,37 L2,32 Z " fill="#9CB2A2" transform="translate(144,121)"/>
<path d="M0,0 L2,0 L2,2 L6,4 L12,17 L13,24 L7,32 L4,28 L-2,15 L-2,6 Z " fill="#F8F8F8" transform="translate(203,97)"/>
<path d="M0,0 L2,0 L5,10 L7,10 L9,17 L9,23 L6,28 L0,29 L-4,20 L-5,8 Z " fill="#E9EDEA" transform="translate(197,115)"/>
<path d="M0,0 L3,0 L7,13 L8,22 L3,31 L-2,26 L-4,21 L-3,11 Z " fill="#F9F9F9" transform="translate(180,159)"/>
<path d="M0,0 L5,3 L7,5 L9,9 L10,12 L8,21 L6,24 L-1,23 L-3,17 L-2,6 Z " fill="#CCD7CF" transform="translate(129,134)"/>
<path d="M0,0 L3,1 L8,15 L7,25 L5,27 L3,30 L-5,13 L-4,8 Z " fill="#F8F8F8" transform="translate(177,111)"/>
<path d="M0,0 L4,5 L7,11 L6,16 L2,25 L-3,23 L-5,19 L-7,15 L-5,6 L-2,1 Z " fill="#F9F9F9" transform="translate(159,112)"/>
<path d="M0,0 L6,0 L8,1 L7,5 L7,17 L8,31 L6,35 L2,26 L0,17 L0,6 L-2,6 L-2,23 L-3,23 L-3,5 L0,5 Z " fill="#C7C6C8" transform="translate(159,23)"/>
<path d="M0,0 L4,1 L6,2 L8,10 L7,17 L7,19 L9,15 L11,15 L9,20 L7,24 L4,25 L-1,20 L-4,13 L-3,5 Z " fill="#F5F6F5" transform="translate(165,94)"/>
<path d="M0,0 L2,2 L6,14 L11,23 L-3,24 L5,28 L4,31 L-4,27 L-9,25 L-13,20 L-1,19 Z " fill="#CAD2CF" transform="translate(131,38)"/>
<path d="M0,0 L4,2 L8,10 L7,20 L4,26 L0,22 L-4,12 L-3,5 Z " fill="#FAFAFA" transform="translate(185,94)"/>
<path d="M0,0 L2,1 L5,8 L9,15 L10,22 L7,28 L2,25 L-3,12 L-3,3 Z " fill="#F1F3F1" transform="translate(214,84)"/>
<path d="M0,0 L5,5 L9,10 L6,23 L2,21 L-4,13 L-3,7 L-5,7 L-4,2 L-1,2 Z " fill="#F7F7F7" transform="translate(149,132)"/>
<path d="M0,0 L3,0 L8,11 L9,21 L8,24 L5,23 L-2,15 L-3,14 L-3,6 Z " fill="#FAFAFA" transform="translate(168,132)"/>
<path d="M0,0 L5,2 L7,7 L7,14 L3,24 L-1,19 L-5,11 Z " fill="#FAFAFA" transform="translate(138,117)"/>
<path d="M0,0 L7,0 L9,1 L9,10 L7,7 L3,19 L-3,29 L-4,29 L-4,21 L-1,9 L-1,2 Z " fill="#C7C7C8" transform="translate(228,31)"/>
<path d="M0,0 L3,4 L3,8 L7,5 L7,18 L10,25 L9,29 L6,23 L6,19 L2,23 L0,27 L0,37 L-2,35 L-2,25 L-3,26 L-7,24 L-8,20 L-5,23 L-2,18 L-1,13 L1,13 L0,7 L-2,1 Z " fill="#9EB4A5" transform="translate(193,96)"/>
<path d="M0,0 L5,3 L12,12 L12,14 L14,14 L13,17 L12,20 L7,19 L0,13 L-2,4 Z " fill="#F8F9F8" transform="translate(161,150)"/>
<path d="M0,0 L2,4 L1,8 L7,10 L13,20 L16,29 L15,34 L8,44 L5,41 L-2,25 L-3,18 L-3,15 L-6,16 L-4,11 L-1,4 Z M1,9 L-1,15 L-1,24 L7,41 L12,36 L14,33 L12,23 L6,12 L3,11 L3,9 Z " fill="#65886F" transform="translate(202,88)"/>
<path d="M0,0 L3,4 L5,14 L2,21 L-1,25 L-3,25 L-6,14 L-5,9 Z " fill="#FAFAFA" transform="translate(218,125)"/>
<path d="M0,0 L5,1 L12,2 L9,3 L6,17 L3,25 L-1,29 L-1,20 L0,12 Z " fill="#CFCFD0" transform="translate(219,28)"/>
<path d="M0,0 L3,1 L5,13 L8,20 L8,29 L3,24 L-1,15 L-3,8 L-4,14 L-5,14 L-5,2 L-2,2 Z " fill="#C4C4C5" transform="translate(135,32)"/>
<path d="M0,0 L4,5 L4,13 L0,24 L-2,23 L-7,13 L-5,7 L-3,2 Z " fill="#F7F8F7" transform="translate(149,97)"/>
<path d="M0,0 L3,3 L5,9 L5,20 L0,24 L-4,13 L-3,3 Z " fill="#F8F8F8" transform="translate(227,111)"/>
<path d="M0,0 L1,4 L2,9 L1,6 L-1,6 L1,18 L3,27 L-2,24 L-6,15 L-9,8 L-8,3 L0,2 Z " fill="#CBCCCC" transform="translate(147,27)"/>
<path d="M0,0 L5,0 L7,2 L12,7 L14,10 L14,14 L6,14 L0,10 L-2,4 Z " fill="#F7F8F7" transform="translate(155,166)"/>
<path d="M0,0 L2,0 L2,8 L1,13 L-1,15 L-2,24 L-4,24 L-4,45 L-6,58 L-10,60 L-8,51 L-6,22 L-2,7 Z " fill="#B2C1BB" transform="translate(327,90)"/>
<path d="M0,0 L6,1 L6,3 L11,5 L13,6 L12,15 L9,21 L6,18 L4,9 L2,9 Z " fill="#DFE7DF" transform="translate(123,102)"/>
<path d="M0,0 L2,2 L4,9 L3,19 L0,22 L-4,18 L-6,9 Z " fill="#FAFAFA" transform="translate(235,133)"/>
<path d="M0,0 L3,1 L5,4 L8,4 L7,13 L5,10 L0,22 L-3,25 L-5,19 L-2,8 L0,8 Z " fill="#CFCED0" transform="translate(237,33)"/>
<path d="M0,0 L4,1 L11,21 L9,27 L3,36 L-2,31 L-6,24 L-5,15 L-1,2 Z M0,3 L-4,19 L-3,26 L-2,30 L3,34 L8,25 L7,16 L3,3 Z " fill="#63866C" transform="translate(180,156)"/>
<path d="M0,0 L3,4 L5,14 L2,20 L0,23 L-2,23 L-4,19 L-4,9 L-1,1 Z " fill="#FAFAFA" transform="translate(189,134)"/>
<path d="M0,0 L3,1 L4,14 L2,20 L-3,18 L-6,9 L-2,2 Z " fill="#F4F5F4" transform="translate(223,149)"/>
<path d="M0,0 L4,2 L7,8 L6,14 L3,17 L-3,15 L-4,7 L-2,1 Z " fill="#F8F8F8" transform="translate(144,153)"/>
<path d="M0,0 L3,1 L5,4 L4,12 L0,18 L-3,14 L-7,7 L-8,1 L-2,3 Z " fill="#FAFAFA" transform="translate(197,84)"/>
<path d="M0,0 L1,0 L2,5 L7,10 L12,21 L13,30 L11,36 L8,33 L10,33 L10,25 L7,16 L5,9 L2,9 L0,15 L-1,23 L-3,22 L-3,16 L-2,12 L-5,18 L-10,13 L-7,13 L-5,14 L-2,5 Z " fill="#65886E" transform="translate(166,123)"/>
<path d="M0,0 L19,4 L34,4 L43,7 L43,9 L15,7 L11,6 L4,5 L-2,3 Z " fill="#BBC9C4" transform="translate(65,202)"/>
<path d="M0,0 L7,3 L40,4 L40,7 L6,7 L0,4 Z " fill="#BACAC1" transform="translate(199,245)"/>
<path d="M0,0 L5,1 L6,10 L4,15 L-1,17 L-4,5 Z " fill="#FAFAFA" transform="translate(205,143)"/>
<path d="M0,0 L2,0 L2,3 L4,3 L3,9 L1,9 L-1,13 L-3,18 L-7,17 L-8,20 L-12,19 L-9,19 L-9,12 L-8,15 L-5,14 L-6,7 L-5,3 Z " fill="#CDD9CE" transform="translate(212,161)"/>
<path d="M0,0 L7,4 L7,7 L13,11 L18,13 L28,17 L29,19 L32,20 L34,27 L31,30 L29,29 L30,24 L25,20 L23,18 L14,15 L5,8 L0,4 Z " fill="#B1C0BA" transform="translate(29,165)"/>
<path d="M0,0 L1,2 L3,2 L2,19 L3,34 L4,40 L1,40 L-1,33 L-1,4 Z " fill="#BFCDC8" transform="translate(35,60)"/>
<path d="M0,0 L12,0 L29,4 L35,7 L33,11 L32,9 L16,5 L4,3 Z " fill="#ACBDB6" transform="translate(207,238)"/>
<path d="M0,0 L2,2 L0,18 L-1,23 L3,22 L3,20 L12,21 L11,23 L7,22 L5,27 L3,28 L-2,25 L-3,19 L-3,12 Z " fill="#B3C2BC" transform="translate(65,76)"/>
<path d="M0,0 L3,1 L0,4 L-14,9 L-26,13 L-34,11 L-34,10 L-18,7 L-4,1 Z " fill="#B3C2BC" transform="translate(258,208)"/>
<path d="M0,0 L2,0 L3,4 L-7,6 L-14,6 L-21,9 L-21,14 L-14,15 L-15,19 L-20,17 L-24,12 L-25,8 L-13,3 Z " fill="#A2B4AC" transform="translate(222,219)"/>
<path d="M0,0 L3,4 L3,13 L-3,17 L-5,17 L-6,10 L-3,4 Z " fill="#FAFAFA" transform="translate(196,154)"/>
<path d="M0,0 L2,0 L8,13 L6,18 L3,21 L4,13 L1,4 L0,3 L-3,11 L-3,21 L-2,25 L0,26 L-3,26 L-6,22 L-6,12 L-3,2 Z " fill="#698C72" transform="translate(189,132)"/>
<path d="M0,0 L2,0 L4,4 L3,13 L-1,17 L-4,12 L-4,4 Z " fill="#FAFAFA" transform="translate(157,83)"/>
<path d="M0,0 L2,0 L8,10 L12,8 L10,17 L11,26 L8,22 L8,20 L3,25 L0,25 L5,17 L3,7 Z " fill="#FAFAFA" transform="translate(212,103)"/>
<path d="M0,0 L1,0 L1,48 L-1,45 L-1,3 Z " fill="#E6EBEB" transform="translate(140,266)"/>
<path d="M0,0 L4,0 L6,6 L6,35 L5,35 L5,29 L3,29 L3,1 Z " fill="#78867E" transform="translate(123,276)"/>
<path d="M0,0 L7,1 L12,3 L9,5 L5,6 L3,9 L3,11 L-4,11 L-4,9 L-10,9 L-8,7 L0,7 L-2,3 Z " fill="#B1C0B9" transform="translate(206,188)"/>
<path d="M0,0 L2,0 L4,4 L6,1 L9,10 L10,11 L13,8 L11,14 L8,14 L7,13 L5,22 L0,26 L2,22 L4,13 L1,4 L-1,3 Z " fill="#61856B" transform="translate(218,123)"/>
<path d="M0,0 L3,0 L4,3 L1,4 L-3,12 L-2,17 L4,30 L7,26 L8,29 L5,34 L3,34 L-6,14 L-5,9 Z " fill="#64876D" transform="translate(176,109)"/>
<path d="M0,0 L6,5 L8,6 L8,12 L5,16 L-1,7 L-2,4 Z " fill="#FAFAFA" transform="translate(171,82)"/>
<path d="M0,0 L2,4 L2,9 L4,12 L0,22 L1,27 L4,32 L2,33 L-2,26 L-2,18 L-3,20 L-6,19 L-4,19 L-3,14 L-1,8 Z " fill="#668970" transform="translate(153,102)"/>
<path d="M0,0 L2,3 L4,9 L4,19 L0,21 L1,11 L0,4 L-4,6 L-7,13 L-6,19 L-8,21 L-9,11 L-5,4 Z " fill="#66886F" transform="translate(225,146)"/>
<path d="M0,0 L4,0 L5,4 L0,2 L-3,11 L-4,14 L1,24 L2,28 L0,30 L-2,29 L-2,23 L-7,15 L-4,6 L-2,1 Z " fill="#60836B" transform="translate(138,115)"/>
<path d="M0,0 L6,3 L3,13 L1,15 L-3,4 L-2,1 Z " fill="#FAFAFA" transform="translate(138,88)"/>
<path d="M0,0 L3,4 L8,15 L9,24 L5,22 L1,9 L-1,3 Z " fill="#ACBCB5" transform="translate(292,63)"/>
<path d="M0,0 L5,1 L7,0 L9,5 L11,11 L12,15 L10,17 L7,8 L4,3 L2,3 L-1,9 L-1,18 L-4,15 L-3,6 Z " fill="#6C8D75" transform="translate(183,92)"/>
<path d="M0,0 L4,2 L-2,5 L-17,8 L-22,8 L-20,4 L-10,2 L0,2 Z " fill="#A5B7AF" transform="translate(154,236)"/>
<path d="M0,0 L2,2 L3,13 L9,14 L9,18 L4,20 L2,18 L5,16 L-1,14 L-3,13 Z " fill="#B5BFBB" transform="translate(242,46)"/>
<path d="M0,0 L5,4 L8,8 L6,18 L3,23 L-1,22 L-6,15 L-5,13 L1,20 L3,21 L4,14 L5,8 L0,2 Z " fill="#668970" transform="translate(152,134)"/>
</svg>
