<?xml version="1.0" encoding="UTF-8"?>
<!-- Generator: visioncortex VTracer 0.6.12 -->
<svg xmlns:xlink="http://www.w3.org/1999/xlink" xmlns:sodipodi="http://sodipodi.sourceforge.net/DTD/sodipodi-0.0.dtd" xmlns:inkscape="http://www.inkscape.org/namespaces/inkscape" version="1.1" xmlns="http://www.w3.org/2000/svg" width="353" height="344">
<path d="M0,0 L353,0 L353,344 L0,344 Z M113,22 L111,23 L111,25 L109,26 L111,31 L111,33 L108,34 L114,37 L119,37 L121,33 L117,26 L120,27 L121,25 L119,25 L119,23 Z M237,29 L238,31 L234,32 L230,44 L226,54 L226,56 L222,57 L223,61 L221,61 L220,66 L220,73 L218,73 L218,70 L210,68 L207,72 L206,76 L206,79 L210,77 L211,75 L217,75 L217,77 L215,77 L209,93 L209,97 L207,98 L206,100 L208,100 L208,102 L206,102 L205,106 L206,108 L203,107 L198,121 L197,127 L183,128 L164,133 L154,133 L142,130 L140,126 L137,112 L136,108 L134,107 L137,103 L135,98 L132,96 L133,93 L130,78 L125,50 L124,47 L122,48 L123,43 L121,38 L125,39 L127,37 L121,35 L117,39 L114,39 L112,42 L112,59 L113,59 L115,75 L116,98 L116,104 L119,110 L117,110 L119,126 L118,131 L105,133 L90,140 L87,140 L85,138 L83,129 L81,126 L76,126 L76,124 L78,125 L79,122 L70,110 L62,97 L54,84 L48,75 L43,71 L38,73 L38,81 L42,88 L45,95 L56,116 L61,128 L64,129 L63,131 L65,132 L65,137 L67,137 L69,142 L70,144 L69,148 L72,156 L72,164 L68,170 L68,177 L63,182 L64,187 L63,192 L61,192 L62,202 L65,209 L69,214 L79,220 L87,224 L88,225 L86,225 L85,232 L90,242 L92,242 L92,244 L95,245 L94,247 L102,248 L107,253 L107,251 L109,251 L108,249 L104,247 L105,242 L121,238 L122,245 L114,245 L113,247 L124,248 L124,238 L126,238 L128,234 L127,233 L126,224 L124,224 L124,221 L120,217 L115,216 L115,214 L107,213 L108,209 L102,200 L99,191 L107,191 L109,192 L128,192 L129,220 L131,241 L136,258 L144,274 L151,282 L155,287 L163,294 L170,299 L171,301 L173,301 L172,311 L176,316 L197,320 L210,323 L220,322 L234,315 L244,316 L248,318 L258,318 L269,314 L275,313 L287,313 L286,310 L289,310 L290,301 L299,291 L303,284 L302,280 L305,281 L305,272 L308,263 L308,255 L304,238 L295,207 L290,195 L290,193 L326,193 L330,191 L331,183 L326,180 L308,179 L307,173 L310,172 L311,165 L313,162 L311,160 L307,158 L310,156 L313,156 L314,152 L314,147 L316,148 L318,137 L318,125 L317,118 L315,120 L315,114 L312,110 L313,105 L311,105 L311,103 L317,101 L318,99 L316,95 L317,88 L321,83 L323,81 L320,79 L312,89 L311,93 L308,93 L307,99 L309,99 L309,101 L303,99 L298,101 L298,103 L296,104 L298,104 L297,108 L286,121 L283,125 L283,129 L278,129 L277,134 L279,138 L281,138 L281,140 L277,138 L275,134 L269,142 L270,147 L265,149 L261,150 L251,146 L239,140 L219,134 L217,130 L220,114 L219,111 L224,109 L225,98 L228,84 L227,80 L231,81 L237,79 L235,77 L231,75 L233,70 L232,66 L235,61 L236,64 L238,59 L238,52 L239,48 L239,41 L241,41 L244,32 L239,29 Z M170,110 L165,112 L162,118 L163,124 L173,122 L176,119 L178,113 L173,110 Z M124,250 L124,252 L122,252 L122,255 L113,257 L114,260 L114,262 L116,266 L118,274 L121,281 L123,290 L124,303 L125,307 L127,308 L133,308 L135,306 L128,305 L126,306 L129,299 L134,294 L136,294 L133,285 L128,272 L125,265 L124,262 L120,262 L120,259 L124,258 L125,250 Z " fill="#F7F7F7" transform="translate(0,0)"/>
<path d="M0,0 L28,0 L35,3 L39,8 L45,17 L55,32 L59,38 L63,43 L63,45 L66,46 L67,48 L69,47 L76,56 L76,61 L87,72 L95,87 L101,116 L109,132 L113,137 L119,142 L121,145 L122,154 L116,162 L109,170 L108,179 L106,178 L95,179 L90,180 L78,185 L69,185 L58,182 L51,182 L35,190 L24,189 L6,184 L-4,183 L-7,179 L-6,175 L-4,172 L-5,162 L-6,155 L-5,151 L-5,144 L-8,135 L-13,121 L-17,105 L-19,104 L-22,97 L-25,92 L-27,81 L-28,68 L-31,62 L-36,58 L-44,44 L-50,37 L-56,32 L-59,28 L-61,19 L-63,14 L-74,11 L-81,11 L-89,16 L-93,16 L-91,12 L-75,4 L-67,3 L-60,4 L-52,4 L-43,2 L-35,2 L-24,5 L-16,5 Z M34,74 L22,77 L10,82 L10,88 L14,93 L21,90 L33,86 L43,83 L43,76 L39,74 Z " fill="#F3EFEF" transform="translate(181,131)"/>
<path d="M0,0 L5,2 L8,11 L13,19 L17,21 L25,31 L31,41 L39,52 L40,56 L41,71 L45,83 L49,85 L53,92 L54,106 L55,111 L55,106 L57,110 L59,119 L62,127 L62,152 L51,145 L42,136 L33,123 L25,107 L21,92 L19,79 L18,36 L13,32 L-31,31 L-42,30 L-42,24 L-38,17 L-38,12 L-33,14 L-23,8 L-11,3 Z " fill="#F9F9F9" transform="translate(112,147)"/>
<path d="M0,0 L21,6 L40,16 L49,23 L52,24 L54,30 L58,38 L61,51 L69,69 L75,87 L79,105 L82,116 L82,126 L78,132 L70,127 L62,111 L58,102 L56,91 L55,91 L53,81 L54,78 L46,64 L37,54 L35,51 L32,51 L31,47 L26,41 L23,40 L21,35 L18,30 L11,18 L8,17 L6,12 L1,5 Z " fill="#F8F8F8" transform="translate(224,139)"/>
<path d="M0,0 L5,2 L15,9 L17,12 L17,30 L15,43 L16,52 L13,55 L10,55 L8,59 L5,58 L5,56 L-4,57 L-9,61 L-8,68 L-4,70 L0,74 L0,76 L2,77 L-2,78 L-13,78 L-13,81 L-16,81 L-18,73 L-22,66 L-22,58 L-19,52 L-17,52 L-15,46 L-13,45 L-11,40 L-6,37 L-5,33 L-4,33 L-3,28 L-5,27 L0,22 L5,14 L4,5 L-2,2 Z " fill="#E7E4E4" transform="translate(298,102)"/>
<path d="M0,0 L20,0 L29,3 L38,18 L39,23 L23,31 L19,32 L7,24 L1,17 L-2,8 L-1,2 Z " fill="#FAFAFA" transform="translate(66,190)"/>
<path d="M0,0 L9,1 L9,3 L14,4 L18,8 L18,11 L20,11 L21,20 L20,22 L13,24 L7,24 L7,26 L-3,28 L-11,32 L-14,31 L-14,29 L-16,29 L-21,19 L-20,12 L-17,11 L-17,9 Z " fill="#F7F3EF" transform="translate(106,213)"/>
<path d="M0,0 L48,1 L59,3 L63,4 L62,12 L55,11 L51,12 L42,12 L42,11 L4,10 L-2,8 L-1,1 Z " fill="#F5F4F4" transform="translate(67,179)"/>
<path d="M0,0 L3,3 L5,5 L7,8 L9,13 L15,21 L21,32 L28,43 L30,52 L26,54 L21,53 L18,50 L10,34 L0,14 L-3,6 L-4,2 Z " fill="#F9F9F9" transform="translate(44,74)"/>
<path d="M0,0 L41,0 L46,3 L45,11 L41,13 L7,13 L3,14 L-1,7 Z " fill="#FAFAFA" transform="translate(285,180)"/>
<path d="M0,0 L1,4 L0,8 L-4,9 L-4,12 L0,12 L3,21 L7,29 L12,42 L11,44 L7,46 L3,53 L2,56 L5,55 L11,56 L9,58 L3,58 L1,57 L0,53 L-1,40 L-2,33 L-3,30 L-7,22 L-9,15 L-9,12 L-10,10 L-11,7 L-2,5 L-2,2 L0,2 Z " fill="#AAA4A2" transform="translate(124,250)"/>
<path d="M0,0 L9,0 L12,3 L13,1 L18,2 L19,5 L17,7 L16,14 L13,15 L14,21 L27,22 L27,23 L-8,23 L-8,22 L2,21 L4,20 L-2,13 L-4,12 L-6,5 Z " fill="#D5D1D0" transform="translate(294,158)"/>
<path d="M0,0 L4,0 L7,7 L12,28 L12,37 L8,39 L5,39 L4,41 L1,40 L-1,18 L-1,3 Z " fill="#F8F8F8" transform="translate(118,59)"/>
<path d="M0,0 L7,1 L9,2 L9,9 L-1,12 L-19,18 L-21,19 L-24,14 L-24,8 L-12,3 Z " fill="#FAF9F9" transform="translate(215,205)"/>
<path d="M0,0 L2,1 L2,4 L8,3 L12,6 L11,12 L10,17 L3,18 L-3,18 L-5,23 L-10,37 L-11,39 L-15,38 L-14,36 L-12,36 L-11,30 L-6,16 L-4,16 L-4,14 L-10,14 L-14,18 L-16,18 L-14,13 L-12,8 L-9,7 L-3,9 L-3,12 L-1,12 L-1,5 Z " fill="#918484" transform="translate(221,61)"/>
<path d="M0,0 L23,0 L23,2 L30,2 L35,5 L42,8 L61,14 L61,16 L53,15 L42,12 L44,17 L48,23 L45,24 L37,13 L33,7 L26,4 L-2,4 L-15,8 L-19,7 L-19,5 Z " fill="#564543" transform="translate(183,128)"/>
<path d="M0,0 L2,3 L7,3 L10,8 L8,16 L6,16 L4,20 L-3,21 L-7,16 L-7,14 L-9,14 L-9,9 L-11,7 L-9,4 L-1,3 Z " fill="#DFDBD7" transform="translate(74,123)"/>
<path d="M0,0 L3,1 L1,1 L1,3 L16,2 L19,8 L16,11 L18,12 L20,19 L19,24 L17,21 L17,14 L15,15 L5,15 L1,14 L-2,7 L-2,2 L0,2 Z " fill="#D4CDC5" transform="translate(118,96)"/>
<path d="M0,0 L2,2 L4,9 L-4,21 L-6,27 L-9,27 L-13,23 L-15,22 L-14,17 L-5,6 Z " fill="#F7F7F7" transform="translate(300,107)"/>
<path d="M0,0 L4,1 L4,4 L1,4 L-7,14 L-11,19 L-13,24 L-8,26 L-7,29 L-4,29 L-3,26 L-4,32 L-9,37 L-11,37 L-12,39 L-17,37 L-17,33 L-19,33 L-21,29 L-20,24 L-15,24 L-14,19 L0,2 Z " fill="#A79A8E" transform="translate(298,105)"/>
<path d="M0,0 L8,2 L7,10 L4,19 L0,21 L-7,20 L-8,18 L-2,3 Z " fill="#FAFAFA" transform="translate(218,79)"/>
<path d="M0,0 L1,0 L2,43 L5,60 L10,76 L11,80 L9,82 L5,71 L1,58 L-1,37 L-2,9 L-21,9 L-21,8 L-6,6 L-1,8 Z " fill="#302725" transform="translate(130,183)"/>
<path d="M0,0 L3,1 L6,10 L12,19 L10,24 L-9,34 L-17,30 L-28,23 L-33,16 L-35,7 L-35,2 L-33,2 L-29,15 L-25,21 L-16,28 L-11,31 L-6,29 L7,23 L9,23 L3,11 L-1,3 Z " fill="#352D2B" transform="translate(96,190)"/>
<path d="M0,0 L2,4 L2,6 L5,9 L0,23 L-2,25 L-4,27 L-7,24 L-12,13 L-8,12 L-5,11 L-3,6 L-1,6 Z " fill="#E6E4E1" transform="translate(83,133)"/>
<path d="M0,0 L3,3 L-2,8 L-4,12 L-3,18 L-2,21 L-7,24 L-9,24 L-9,26 L-7,27 L-9,30 L-15,28 L-22,23 L-19,21 L-15,20 L-11,22 L-11,20 L-13,20 L-12,14 L-8,14 L-7,9 Z " fill="#998B84" transform="translate(320,79)"/>
<path d="M0,0 L2,0 L4,9 L4,12 L-1,14 L-11,14 L-13,9 L-13,2 L-2,1 Z " fill="#F8F8F8" transform="translate(133,110)"/>
<path d="M0,0 L13,4 L14,8 L12,16 L0,14 L-3,11 Z " fill="#FAFAFA" transform="translate(204,109)"/>
<path d="M0,0 L2,4 L6,7 L11,9 L10,14 L8,14 L7,18 L6,20 L0,18 L0,15 L-4,15 L-6,8 Z " fill="#BAB7B7" transform="translate(275,134)"/>
<path d="M0,0 L5,0 L5,3 L12,4 L11,1 L13,0 L14,10 L11,12 L1,12 L-4,10 L-5,6 L-4,3 L-2,3 L-2,1 Z " fill="#ECE5DD" transform="translate(210,99)"/>
<path d="M0,0 L6,1 L8,5 L5,11 L-4,14 L-7,14 L-8,8 L-5,2 Z " fill="#FAFAFA" transform="translate(170,110)"/>
<path d="M0,0 L1,3 L0,9 L-1,17 L-3,19 L-3,15 L-5,20 L-11,20 L-15,21 L-16,17 L-16,12 L-12,10 L-10,7 L-10,9 L-3,11 L-1,1 Z " fill="#ADA093" transform="translate(238,45)"/>
<path d="M0,0 L9,1 L15,4 L12,5 L2,7 L-12,12 L-18,14 L-15,7 L-12,7 L-2,1 Z " fill="#F6F6F6" transform="translate(102,142)"/>
<path d="M0,0 L5,1 L4,8 L2,11 L1,20 L-7,17 L-8,13 L-2,2 Z " fill="#FAFAFA" transform="translate(235,37)"/>
<path d="M0,0 L3,1 L7,6 L14,12 L22,25 L25,30 L30,34 L31,36 L31,42 L30,39 L28,39 L20,28 L11,14 L0,4 Z " fill="#534140" transform="translate(122,160)"/>
<path d="M0,0 L5,0 L5,2 L7,2 L7,5 L11,6 L9,13 L5,14 L-5,6 L-9,4 L-3,2 Z " fill="#E0D3C5" transform="translate(268,147)"/>
<path d="M0,0 L1,3 L3,3 L4,9 L-2,10 L-15,10 L-16,4 Z " fill="#F4F0EC" transform="translate(137,123)"/>
<path d="M0,0 L2,1 L0,4 L-2,4 L-2,14 L-13,13 L-12,11 L-4,11 L-5,4 L-21,8 L-22,13 L-18,15 L-17,17 L-19,17 L-20,19 L-24,14 L-32,13 L-30,12 L-30,10 L-23,6 L-13,5 L-13,3 Z " fill="#6B5D51" transform="translate(126,234)"/>
<path d="M0,0 L6,2 L3,4 L0,3 L2,10 L1,13 L4,12 L4,14 L-2,15 L-7,14 L-8,24 L-9,24 L-9,7 L-7,4 L-2,3 Z " fill="#746361" transform="translate(121,35)"/>
<path d="M0,0 L1,0 L2,9 L-2,15 L-3,21 L52,22 L50,24 L-6,24 L-8,31 L-10,28 L-8,23 L-5,21 L-5,14 L-1,8 Z " fill="#322826" transform="translate(73,156)"/>
<path d="M0,0 L6,1 L6,3 L8,4 L6,5 L4,4 L8,11 L6,15 L-1,14 L-5,11 L-2,11 L-3,6 L-4,3 L-2,3 L-2,1 Z " fill="#7F6B63" transform="translate(113,22)"/>
<path d="M0,0 L8,3 L16,4 L17,9 L14,22 L10,20 L0,18 L-5,13 Z M1,2 L-2,14 L5,17 L13,18 L15,7 L7,4 Z " fill="#635242" transform="translate(203,107)"/>
<path d="M0,0 L2,4 L5,10 L7,12 L13,27 L20,52 L19,58 L17,54 L13,36 L9,25 L1,7 Z " fill="#2F2625" transform="translate(283,183)"/>
<path d="M0,0 L14,1 L14,2 L3,2 L5,13 L15,13 L20,11 L22,9 L22,16 L20,14 L6,17 L4,17 L3,24 L-2,23 L-2,21 L1,21 L2,12 Z " fill="#726253" transform="translate(117,110)"/>
<path d="M0,0 L3,3 L10,15 L20,31 L29,43 L27,46 L25,43 L23,44 L19,34 L10,20 L4,10 L0,5 Z " fill="#382F2E" transform="translate(50,79)"/>
<path d="M0,0 L2,0 L10,16 L14,20 L20,23 L21,33 L18,32 L15,25 L6,17 L2,10 Z " fill="#5B4A4A" transform="translate(284,248)"/>
<path d="M0,0 L2,4 L14,28 L20,40 L20,42 L22,43 L18,44 L10,26 L0,8 L-1,2 Z " fill="#38302F" transform="translate(43,84)"/>
<path d="M0,0 L2,0 L2,2 L15,1 L18,3 L9,5 L1,5 L-10,4 L-21,8 L-26,9 L-26,7 L-15,2 L-5,1 L0,3 Z " fill="#533A30" transform="translate(120,131)"/>
<path d="M0,0 L4,2 L-2,4 L-4,11 L-7,16 L8,10 L19,7 L22,8 L4,14 L-10,21 L-12,20 L-11,17 L-9,17 L-7,8 L-5,2 L-2,1 Z " fill="#352B2A" transform="translate(92,139)"/>
<path d="M0,0 L5,5 L13,14 L21,28 L21,30 L19,30 L15,25 L9,14 L-2,3 L-1,1 Z " fill="#574746" transform="translate(258,189)"/>
<path d="M0,0 L2,4 L6,26 L8,38 L7,39 L10,41 L-2,42 L1,40 L4,39 L4,30 L0,14 L0,5 L-1,1 Z " fill="#332A28" transform="translate(125,57)"/>
<path d="M0,0 L1,0 L2,5 L2,12 L1,19 L3,32 L0,30 L-4,31 L-5,29 L-10,25 L-8,24 L-2,28 L-2,11 Z " fill="#342120" transform="translate(175,270)"/>
<path d="M0,0 L3,3 L8,24 L12,33 L12,39 L10,39 L6,29 L5,25 L3,24 L1,11 L1,4 Z " fill="#3D2D2B" transform="translate(163,235)"/>
<path d="M0,0 L6,1 L51,2 L51,3 L37,4 L32,4 L31,6 L21,4 L1,3 L0,7 L-2,7 L-2,1 Z " fill="#635C5B" transform="translate(65,187)"/>
<path d="M0,0 L13,0 L15,4 L3,4 L-5,6 L-14,9 L-24,9 L-26,7 L-22,6 L-13,6 L-1,1 Z " fill="#402B2A" transform="translate(272,309)"/>
<path d="M0,0 L6,1 L2,3 L-1,4 L-4,3 L-3,9 L-7,26 L-9,24 L-9,26 L-16,25 L-16,23 L-9,20 L-5,4 L-11,3 L-7,1 Z " fill="#503530" transform="translate(231,77)"/>
<path d="M0,0 L7,0 L16,3 L19,6 L22,13 L23,19 L21,21 L18,15 L17,9 L14,6 L15,5 L11,3 L2,2 L-7,7 L-10,9 L-11,7 L-2,1 Z " fill="#4D2E2E" transform="translate(100,141)"/>
<path d="M0,0 L3,0 L5,20 L8,28 L11,32 L10,34 L8,32 L6,33 L2,22 L1,19 Z " fill="#44302F" transform="translate(151,199)"/>
<path d="M0,0 L3,3 L4,9 L6,7 L8,25 L10,29 L11,40 L9,38 L5,27 Z " fill="#392524" transform="translate(275,216)"/>
<path d="M0,0 L2,0 L11,15 L23,28 L26,30 L26,32 L22,30 L12,21 L6,13 L1,5 Z " fill="#49413F" transform="translate(140,263)"/>
<path d="M0,0 L1,2 L3,2 L3,4 L11,4 L11,10 L10,11 L0,11 Z " fill="#F7F6F4" transform="translate(113,47)"/>
<path d="M0,0 L4,2 L17,4 L18,9 L15,10 L14,9 L7,8 L7,6 L-2,5 Z " fill="#F3EADF" transform="translate(199,122)"/>
<path d="M0,0 L2,4 L3,7 L0,11 L1,16 L2,17 L16,19 L15,21 L6,21 L0,19 L-3,15 L-2,4 L0,4 Z " fill="#554544" transform="translate(175,296)"/>
<path d="M0,0 L1,0 L2,7 L2,19 L0,30 L-3,29 L-4,25 Z " fill="#8F5B5E" transform="translate(316,118)"/>
<path d="M0,0 L2,0 L6,17 L6,26 L3,34 L0,32 L3,27 L3,17 L0,6 Z " fill="#372F2D" transform="translate(302,238)"/>
<path d="M0,0 L3,0 L5,22 L5,34 L3,36 L1,13 Z " fill="#342A28" transform="translate(114,62)"/>
<path d="M0,0 L56,0 L60,4 L58,5 L53,3 L45,2 L0,1 Z " fill="#A79B9A" transform="translate(70,179)"/>
<path d="M0,0 L4,5 L6,4 L11,13 L15,19 L17,23 L15,25 L7,14 L0,3 Z " fill="#4B3938" transform="translate(229,151)"/>
<path d="M0,0 L6,2 L11,5 L17,7 L18,9 L27,15 L32,18 L31,20 L28,20 L23,15 L5,5 L-1,2 Z " fill="#2A201E" transform="translate(244,143)"/>
<path d="M0,0 L5,2 L7,3 L4,12 L3,9 L-2,9 L-5,11 L-4,5 L-3,3 L1,2 Z " fill="#87786B" transform="translate(237,29)"/>
<path d="M0,0 L7,0 L15,2 L15,4 L2,3 L-10,9 L-14,7 Z " fill="#492E2D" transform="translate(232,312)"/>
<path d="M0,0 L9,2 L9,11 L10,18 L8,18 L6,14 L6,11 L2,11 L2,14 L0,14 L0,19 L-1,19 L-2,10 L7,9 L8,3 L0,3 Z " fill="#AC9780" transform="translate(116,48)"/>
<path d="M0,0 L8,1 L21,4 L30,4 L30,6 L20,7 L-2,2 Z " fill="#2C1A19" transform="translate(190,316)"/>
<path d="M0,0 L5,2 L9,7 L7,10 L4,4 L-1,5 L2,11 L2,15 L-1,14 L-3,10 L-3,2 Z " fill="#554E4C" transform="translate(41,71)"/>
<path d="M0,0 L2,2 L-2,4 L-5,4 L0,15 L0,17 L3,18 L1,20 L-3,17 L-3,14 L-5,14 L-8,4 L-5,1 Z " fill="#5B514C" transform="translate(77,142)"/>
<path d="M0,0 L13,3 L23,4 L25,6 L24,7 L16,7 L5,4 L-5,2 L-1,1 Z " fill="#372221" transform="translate(141,130)"/>
</svg>
