<?xml version="1.0" encoding="UTF-8"?>
<!-- Generator: visioncortex VTracer 0.6.12 -->
<svg xmlns:xlink="http://www.w3.org/1999/xlink" xmlns:sodipodi="http://sodipodi.sourceforge.net/DTD/sodipodi-0.0.dtd" xmlns:inkscape="http://www.inkscape.org/namespaces/inkscape" version="1.1" xmlns="http://www.w3.org/2000/svg" width="340" height="344">
<path d="M0,0 L340,0 L340,344 L0,344 Z M269,21 L260,23 L256,26 L256,28 L251,30 L252,33 L248,33 L247,37 L243,39 L241,42 L76,43 L63,44 L55,47 L49,59 L48,66 L45,66 L37,81 L32,90 L29,92 L30,95 L34,94 L35,99 L32,100 L37,101 L40,101 L39,113 L39,189 L35,197 L34,207 L35,212 L33,212 L30,215 L26,218 L26,220 L22,222 L21,225 L27,227 L37,228 L48,228 L57,230 L87,229 L96,231 L106,233 L113,235 L127,236 L157,236 L168,240 L181,247 L189,248 L196,245 L205,240 L204,238 L202,235 L205,232 L211,232 L211,230 L221,231 L225,227 L232,229 L233,229 L237,230 L250,230 L258,229 L258,230 L274,231 L275,230 L305,229 L316,229 L318,228 L318,226 L321,225 L321,219 L306,210 L302,209 L301,196 L303,189 L302,183 L300,179 L299,173 L298,177 L296,177 L296,175 L293,174 L292,163 L295,166 L297,169 L298,165 L298,152 L296,150 L297,142 L297,130 L295,127 L296,100 L296,97 L293,101 L292,111 L292,106 L287,102 L282,100 L279,100 L279,98 L277,96 L288,97 L297,94 L296,88 L293,85 L291,77 L289,72 L294,71 L294,77 L296,79 L295,27 L293,27 L294,22 L289,21 Z M143,256 L137,258 L134,262 L136,262 L134,266 L131,266 L129,271 L132,275 L132,269 L134,268 L135,275 L138,278 L142,279 L143,282 L138,282 L136,278 L134,279 L136,282 L134,282 L130,288 L132,289 L134,301 L136,304 L134,306 L136,307 L138,306 L138,308 L147,309 L147,307 L154,306 L159,301 L159,288 L155,283 L152,281 L156,276 L159,273 L161,269 L161,266 L159,266 L158,260 L152,257 Z M219,266 L214,272 L211,273 L210,271 L206,279 L205,282 L205,293 L208,300 L209,298 L211,298 L211,304 L216,307 L225,307 L226,305 L220,305 L218,304 L216,305 L217,302 L214,296 L214,286 L216,280 L214,280 L213,275 L215,275 L221,266 Z M180,273 L174,275 L174,277 L171,278 L169,280 L167,284 L167,293 L169,291 L169,283 L171,283 L171,290 L172,293 L171,300 L181,304 L186,303 L188,302 L191,306 L191,312 L193,312 L196,307 L195,302 L197,301 L198,303 L200,296 L199,286 L196,281 L193,284 L192,280 L195,278 L189,274 Z M106,274 L109,277 L111,277 L112,281 L113,278 L115,278 L115,302 L116,304 L111,304 L112,300 L112,282 L111,282 L110,298 L109,304 L106,303 L106,307 L124,307 L124,304 L121,305 L119,304 L119,300 L119,278 L115,274 Z M231,278 L229,279 L228,284 L230,288 L230,298 L228,303 L225,304 L227,305 L226,307 L231,306 L237,301 L239,292 L238,284 L233,279 Z " fill="#F8F8F8" transform="translate(0,0)"/>
<path d="M0,0 L7,0 L11,2 L6,3 L13,6 L23,5 L37,5 L38,3 L52,4 L56,3 L62,5 L63,7 L75,9 L75,7 L85,4 L100,5 L100,6 L91,7 L113,8 L128,8 L128,10 L132,9 L160,7 L174,5 L181,6 L186,8 L194,8 L199,13 L203,18 L208,23 L215,37 L215,41 L219,43 L221,47 L221,50 L212,53 L207,53 L207,51 L165,51 L100,50 L99,54 L-16,54 L-24,52 L-26,50 L-26,47 L8,45 L7,42 L2,40 L-6,38 L-15,36 L-18,31 L-18,23 L-15,19 L-5,18 L0,16 L0,12 L2,12 L2,10 L0,8 Z M95,22 L76,23 L77,26 L84,30 L86,30 L84,34 L82,34 L84,38 L84,36 L92,35 L98,37 L115,38 L115,36 L112,36 L114,32 L113,29 L118,24 L115,24 L115,22 Z " fill="#F2F0EF" transform="translate(76,44)"/>
<path d="M0,0 L3,1 L4,3 L10,3 L12,2 L97,2 L101,2 L133,2 L137,1 L159,1 L159,5 L160,2 L165,1 L172,2 L174,0 L204,0 L210,2 L211,6 L218,4 L222,8 L222,10 L221,11 L222,14 L221,19 L212,18 L211,19 L202,19 L192,17 L186,18 L183,25 L181,25 L181,20 L179,20 L180,12 L177,10 L164,9 L161,12 L163,28 L163,35 L162,37 L163,43 L163,81 L159,83 L152,83 L152,86 L141,87 L135,90 L130,88 L130,86 L126,85 L128,85 L128,78 L131,82 L142,84 L143,78 L144,33 L146,33 L144,31 L142,21 L142,17 L133,18 L134,20 L132,21 L130,25 L128,17 L120,17 L110,15 L110,17 L98,18 L100,9 L91,9 L93,16 L89,18 L85,17 L81,11 L78,14 L73,12 L67,12 L66,16 L64,12 L64,20 L65,20 L65,33 L63,33 L64,35 L64,48 L62,51 L60,34 L58,32 L58,26 L60,22 L50,21 L53,18 L36,21 L24,21 L22,27 L21,31 L22,33 L16,35 L15,30 L16,24 L15,21 L15,16 L11,10 L2,9 L1,11 L-1,14 L0,17 L-4,17 L-3,3 Z " fill="#F3F2F1" transform="translate(45,97)"/>
<path d="M0,0 L1,2 L5,2 L5,4 L39,4 L44,3 L67,6 L69,13 L75,13 L79,15 L80,19 L85,20 L85,24 L78,25 L86,25 L90,24 L91,28 L94,27 L94,29 L90,30 L75,29 L65,29 L61,27 L46,25 L43,24 L12,25 L5,23 L-7,23 L-21,21 L-22,19 L-20,17 L-11,11 L-6,8 L-2,3 L0,3 Z " fill="#DAD7D3" transform="translate(43,205)"/>
<path d="M0,0 L2,0 L3,2 L4,15 L5,16 L5,13 L9,12 L18,17 L18,20 L22,23 L22,25 L19,26 L9,26 L9,29 L3,30 L-6,30 L-6,29 L-44,29 L-44,31 L-47,32 L-64,32 L-63,30 L-66,31 L-72,29 L-76,28 L-76,23 L-78,19 L-78,18 L-84,13 L-87,11 L-54,11 L-50,12 L-45,12 L-42,13 L-24,12 L-12,13 L-13,10 L-16,8 L-7,8 L-7,3 L-10,2 L-5,2 L-5,8 L-4,9 L-3,4 L-2,1 Z " fill="#EBE9E6" transform="translate(297,198)"/>
<path d="M0,0 L7,1 L12,0 L17,4 L17,26 L15,37 L16,45 L16,58 L15,62 L7,65 L1,69 L-2,69 L-4,74 L-6,76 L-13,74 L-10,72 L-8,71 L-7,66 L-6,66 L-5,50 L-4,46 L-2,46 L-1,38 L0,35 L0,25 L-1,21 L-1,12 L-4,12 L-4,5 L-2,5 L-3,2 Z " fill="#F3F2F1" transform="translate(127,115)"/>
<path d="M0,0 L31,0 L35,1 L35,3 L43,4 L43,6 L45,6 L43,10 L37,19 L32,22 L26,21 L18,19 L16,16 L16,12 L-1,11 L-11,10 L-13,11 L-46,10 L-46,8 L-52,9 L-53,4 L-52,1 L-33,1 Z " fill="#F5F4F2" transform="translate(94,199)"/>
<path d="M0,0 L3,0 L6,7 L6,18 L5,28 L5,39 L4,39 L4,50 L5,57 L5,83 L2,88 L-7,89 L-8,82 L-12,82 L-12,74 L-10,78 L-10,66 L-12,69 L-12,54 L-11,46 L-10,46 L-8,59 L-8,61 L-7,80 L-7,68 L-8,52 L-8,35 L-7,34 L-7,6 L-4,1 Z " fill="#F5F4F2" transform="translate(53,107)"/>
<path d="M0,0 L10,2 L11,7 L11,72 L9,75 L8,82 L-1,82 L-2,81 L-2,26 L-1,1 Z " fill="#EEEBE7" transform="translate(211,108)"/>
<path d="M0,0 L110,0 L144,1 L147,2 L147,7 L138,8 L135,9 L106,8 L70,8 L64,9 L64,11 L59,10 L57,9 L33,9 L32,8 L9,8 L2,5 Z " fill="#F8F7F6" transform="translate(143,199)"/>
<path d="M0,0 L12,1 L13,2 L13,35 L14,42 L12,42 L13,87 L4,84 L2,81 L1,49 L1,15 L2,4 L0,4 Z " fill="#F9F8F7" transform="translate(277,104)"/>
<path d="M0,0 L3,1 L3,57 L2,78 L-5,81 L-8,80 L-8,23 L-7,5 L-6,1 Z " fill="#F6F5F3" transform="translate(118,108)"/>
<path d="M0,0 L17,0 L35,1 L40,7 L41,17 L17,18 L-5,18 L-6,14 L-8,14 L-6,8 L0,9 L-6,5 L-5,1 Z " fill="#F8F7F5" transform="translate(178,211)"/>
<path d="M0,0 L7,0 L11,7 L10,19 L11,30 L13,30 L14,40 L12,38 L11,60 L7,62 L9,64 L1,65 L-1,64 L-1,3 Z " fill="#F3F2F0" transform="translate(147,116)"/>
<path d="M0,0 L4,1 L5,35 L5,52 L4,67 L-1,68 L-6,65 L-6,28 L-7,22 L-6,5 L-4,1 Z " fill="#F2F0EF" transform="translate(182,113)"/>
<path d="M0,0 L8,1 L10,19 L9,65 L4,67 L0,63 L-1,1 Z " fill="#F7F6F5" transform="translate(163,116)"/>
<path d="M0,0 L2,1 L4,7 L4,15 L4,17 L5,19 L2,22 L-1,22 L-2,25 L-5,24 L-6,21 L-8,20 L-41,20 L-42,17 L-40,10 L-36,9 L-3,8 L-1,12 L0,8 L-13,5 L-9,3 Z " fill="#F7F6F5" transform="translate(273,144)"/>
<path d="M0,0 L7,1 L4,11 L2,13 L5,16 L4,21 L-6,22 L-25,22 L-27,18 L-25,10 L-20,7 L-20,3 L3,3 Z " fill="#F8F7F4" transform="translate(161,208)"/>
<path d="M0,0 L2,4 L5,5 L6,7 L7,21 L3,23 L0,26 L1,28 L-2,31 L0,31 L2,34 L5,34 L6,39 L0,39 L-4,36 L-6,38 L-15,39 L-17,37 L-14,37 L-15,32 L-20,33 L-20,30 L-15,25 L-4,4 L-1,4 Z " fill="#CDC9C4" transform="translate(49,62)"/>
<path d="M0,0 L2,2 L2,16 L1,18 L-13,17 L-32,17 L-35,15 L-36,6 L-34,2 L-2,4 L-1,3 Z " fill="#EEECE9" transform="translate(104,134)"/>
<path d="M0,0 L24,0 L24,4 L26,4 L26,9 L18,9 L19,10 L24,10 L23,18 L19,23 L16,26 L7,26 L7,21 L6,18 L3,17 L2,16 L2,7 L3,4 L-6,3 L-4,1 Z " fill="#E2DEDA" transform="translate(266,23)"/>
<path d="M0,0 L20,0 L18,5 L20,7 L20,10 L9,16 L2,17 L-7,14 L-16,9 L-14,8 L-12,3 L0,2 Z " fill="#D0CCC8" transform="translate(184,231)"/>
<path d="M0,0 L23,2 L27,3 L28,9 L27,14 L6,14 L-1,15 L-6,14 L-8,9 L-8,5 L-6,4 L-5,1 Z " fill="#F8F7F4" transform="translate(75,154)"/>
<path d="M0,0 L12,1 L17,4 L16,11 L13,12 L-7,12 L-10,13 L-18,13 L-22,6 L-18,1 Z " fill="#F9F8F7" transform="translate(253,134)"/>
<path d="M0,0 L2,1 L5,0 L37,0 L38,10 L4,11 L-1,8 L-1,1 Z " fill="#F9F9F8" transform="translate(232,170)"/>
<path d="M0,0 L8,0 L12,8 L13,18 L11,25 L0,26 L-4,21 L-6,11 L-3,4 Z " fill="#F9F8F7" transform="translate(179,275)"/>
<path d="M0,0 L26,0 L29,5 L28,10 L27,11 L-2,11 L-6,11 L-9,10 L-9,5 L-4,3 L-4,1 Z " fill="#F9F8F5" transform="translate(240,117)"/>
<path d="M0,0 L10,0 L12,1 L27,1 L30,0 L32,5 L32,11 L-1,13 L-3,7 Z " fill="#F9F8F6" transform="translate(70,119)"/>
<path d="M0,0 L6,4 L10,9 L10,11 L7,12 L5,11 L6,15 L2,22 L-5,23 L-11,22 L-13,18 L-13,7 L-9,2 L-3,4 L4,8 L0,5 L-2,4 Z " fill="#F6F5F4" transform="translate(148,281)"/>
<path d="M0,0 L2,0 L3,6 L3,12 L-3,14 L-6,12 L-7,13 L-24,13 L-29,11 L-31,9 L-31,2 L-9,2 L-7,6 L-4,8 L-3,6 L-5,5 L-4,2 Z " fill="#F4F3F0" transform="translate(276,183)"/>
<path d="M0,0 L3,0 L4,2 L9,0 L15,1 L35,2 L36,3 L36,10 L35,11 L9,12 L9,13 L3,13 L2,9 Z " fill="#F6F5F3" transform="translate(65,171)"/>
<path d="M0,0 L10,0 L15,2 L14,4 L12,5 L14,5 L17,5 L19,13 L15,17 L13,17 L10,20 L5,19 L5,17 L2,17 L4,19 L0,18 L-2,17 L-3,10 L-5,11 L-5,17 L-8,13 L-6,8 L-2,7 L-1,4 L-3,3 Z " fill="#D3CDC8" transform="translate(137,258)"/>
<path d="M0,0 L8,0 L16,2 L16,4 L22,5 L22,7 L24,8 L23,10 L15,9 L14,27 L12,27 L12,29 L5,33 L1,32 L7,30 L8,26 L7,25 L4,22 L3,13 L2,11 L5,8 L5,1 L0,1 Z " fill="#DAD6D2" transform="translate(263,96)"/>
<path d="M0,0 L4,3 L7,15 L9,18 L5,20 L4,22 L7,23 L4,26 L2,24 L0,22 L0,18 L-6,17 L-26,17 L-28,16 L-28,18 L-43,19 L-43,17 L-34,15 L-37,12 L-38,5 L-35,1 L-35,3 L-23,1 L-3,1 Z M-35,4 L-36,5 L-36,12 L-31,15 L3,14 L2,4 L-30,4 L-34,4 Z " fill="#807262" transform="translate(267,166)"/>
<path d="M0,0 L19,0 L17,1 L19,4 L28,4 L34,2 L32,6 L25,7 L25,9 L33,8 L33,10 L37,11 L37,13 L39,13 L39,15 L22,14 L15,12 L8,13 L7,15 L6,11 L9,10 L10,7 L4,5 L0,2 Z " fill="#9C9187" transform="translate(152,67)"/>
<path d="M0,0 L21,1 L26,2 L27,6 L29,5 L31,11 L28,11 L28,13 L21,13 L22,11 L12,11 L10,10 L2,10 L-1,11 L-2,4 Z " fill="#F3F1EE" transform="translate(153,185)"/>
<path d="M0,0 L2,0 L2,9 L1,13 L2,15 L-2,15 L1,18 L1,21 L-4,22 L-6,23 L-32,23 L-29,21 L-7,21 L-6,14 L-10,12 L-20,11 L-20,9 L-40,9 L-40,8 L-34,7 L-11,7 L-11,6 L-6,5 L-2,1 Z " fill="#D2CDC8" transform="translate(275,124)"/>
<path d="M0,0 L13,0 L19,1 L19,2 L5,3 L5,9 L5,10 L9,15 L4,15 L4,13 L2,14 L-13,14 L-16,7 L-14,2 L-3,1 L0,2 Z " fill="#ECE9E6" transform="translate(239,182)"/>
<path d="M0,0 L2,2 L1,6 L0,30 L2,33 L2,45 L0,49 L-1,35 L-2,32 L-3,37 L-3,45 L-2,56 L-2,78 L-3,85 L-1,86 L-3,86 L-4,88 L-5,82 L-5,46 L-6,42 L-6,9 L-13,7 L-10,5 L-5,7 L-3,9 L-3,16 L-2,4 Z " fill="#655442" transform="translate(295,97)"/>
<path d="M0,0 L16,0 L18,0 L23,0 L24,5 L22,12 L16,13 L16,12 L1,11 L-3,5 Z " fill="#F8F6F2" transform="translate(125,185)"/>
<path d="M0,0 L2,3 L2,36 L8,39 L10,50 L7,53 L-11,51 L-11,42 L-9,39 L-7,42 L0,44 Z " fill="#CCC6BF" transform="translate(289,146)"/>
<path d="M0,0 L4,4 L2,9 L3,16 L15,19 L15,20 L4,21 L3,26 L5,31 L7,34 L-3,35 L-3,37 L-5,37 L-4,28 L-4,4 L-2,4 L-2,1 Z " fill="#F4F3F2" transform="translate(227,148)"/>
<path d="M0,0 L2,2 L1,6 L2,14 L4,15 L30,15 L35,16 L35,17 L24,17 L34,19 L37,23 L36,30 L34,27 L34,22 L7,20 L2,20 L1,24 L-1,24 L1,33 L-5,33 L-3,32 L-5,29 L-8,29 L-6,21 L-3,20 L-2,18 L1,18 L0,15 L-2,14 L-2,5 Z " fill="#7F7062" transform="translate(68,135)"/>
<path d="M0,0 L53,0 L53,3 L59,4 L59,5 L46,4 L24,2 L24,4 L14,6 L14,8 L7,8 L-2,6 L-1,4 L-2,1 Z " fill="#D5D1CD" transform="translate(137,45)"/>
<path d="M0,0 L5,1 L6,4 L0,5 L-1,8 L-27,8 L-32,6 L-36,7 L-36,4 L-38,4 L-38,1 L-10,1 L-9,2 L-8,1 Z " fill="#DBD8D5" transform="translate(237,44)"/>
<path d="M0,0 L36,0 L76,1 L76,2 L71,2 L71,4 L0,4 L5,9 L7,7 L8,10 L7,12 L9,16 L7,20 L3,10 L-1,6 L-8,3 L-6,1 Z " fill="#7B6B5B" transform="translate(213,206)"/>
<path d="M0,0 L8,1 L12,3 L41,3 L41,6 L16,5 L9,7 L7,19 L10,20 L10,23 L7,23 L6,26 L3,26 L3,33 L0,30 L0,25 L1,25 L1,12 L2,11 L0,10 Z " fill="#ECEAE9" transform="translate(59,130)"/>
<path d="M0,0 L8,0 L9,3 L4,8 L2,11 L-1,5 L-8,4 L-8,72 L-11,72 L-12,29 L-11,27 L-13,26 L-11,26 L-12,15 L-13,15 L-14,4 L-9,2 L0,2 Z " fill="#ADA194" transform="translate(155,112)"/>
<path d="M0,0 L2,1 L2,7 L4,8 L5,13 L3,12 L4,24 L4,36 L3,38 L3,52 L2,56 L1,76 L-1,72 L-1,4 Z " fill="#867768" transform="translate(121,109)"/>
<path d="M0,0 L5,1 L4,13 L6,14 L7,18 L2,19 L1,17 L-1,14 L0,12 L-9,16 L-12,18 L-16,14 L-11,8 L-7,6 L-7,4 L-10,6 L-8,2 L-3,1 Z " fill="#F2F0EC" transform="translate(264,26)"/>
<path d="M0,0 L2,0 L3,14 L4,14 L4,33 L9,34 L14,37 L35,38 L34,40 L15,41 L8,42 L6,39 L4,39 L4,42 L2,42 L3,57 L3,68 L1,70 L0,59 Z " fill="#9D9289" transform="translate(221,110)"/>
<path d="M0,0 L164,0 L164,1 L46,2 L41,3 L12,2 L12,4 L6,5 L4,3 L7,2 L0,1 Z " fill="#9B8B7C" transform="translate(76,43)"/>
<path d="M0,0 L5,1 L5,3 L7,3 L7,5 L11,7 L11,12 L7,13 L-8,12 L-12,8 L-13,4 L-11,2 L-2,1 Z " fill="#F8F6F4" transform="translate(195,184)"/>
<path d="M0,0 L9,1 L15,5 L12,7 L8,6 L7,3 L-1,3 L-5,9 L-6,16 L-3,24 L0,27 L10,27 L11,25 L12,27 L11,33 L7,29 L5,31 L-3,30 L-9,27 L-8,19 L-9,12 L-9,10 L-11,10 L-11,18 L-13,20 L-13,11 L-11,7 L-9,5 L-6,4 L-6,2 Z " fill="#706153" transform="translate(180,273)"/>
<path d="M0,0 L7,0 L9,1 L9,3 L11,3 L11,6 L16,4 L20,6 L35,6 L37,8 L14,9 L14,7 L11,8 L-1,8 L-24,7 L-24,4 L-29,3 L-29,2 L-18,2 L3,4 L0,3 Z " fill="#A49789" transform="translate(190,45)"/>
<path d="M0,0 L1,0 L1,12 L3,12 L3,30 L2,39 L-3,40 L-4,36 L-7,36 L-7,33 L-4,33 L-2,22 L-4,19 L-8,18 L-32,17 L-32,16 L-9,15 L-1,16 Z " fill="#D8D4D1" transform="translate(106,136)"/>
<path d="M0,0 L3,3 L2,8 L11,7 L14,3 L15,6 L11,11 L11,18 L10,16 L8,17 L10,22 L10,25 L4,17 L2,16 L-1,12 L-7,11 L-8,6 L-10,2 L-5,1 L-3,3 L0,3 Z " fill="#A59B92" transform="translate(271,41)"/>
<path d="M0,0 L9,0 L13,4 L13,27 L13,30 L16,30 L18,30 L18,33 L0,33 L0,29 L3,30 L4,24 L5,8 L6,8 L6,26 L5,30 L10,30 L9,28 L9,4 L7,4 L5,7 L5,3 L0,1 Z " fill="#726252" transform="translate(106,274)"/>
<path d="M0,0 L1,0 L1,7 L8,9 L9,7 L19,7 L22,9 L23,10 L24,5 L26,4 L25,11 L27,12 L-10,13 L-16,13 L-18,11 L-9,9 L-8,7 L-5,7 L-5,5 L-2,4 Z M27,10 Z " fill="#B0A69E" transform="translate(60,188)"/>
<path d="M0,0 L3,0 L3,2 L14,2 L27,4 L24,6 L14,6 L8,8 L8,5 L5,5 L7,15 L6,20 L3,25 L4,28 L12,30 L8,32 L1,29 L0,19 L2,16 L1,10 L0,8 Z " fill="#7D6E61" transform="translate(60,166)"/>
<path d="M0,0 L2,0 L2,14 L1,17 L3,21 L5,20 L6,24 L1,23 L3,33 L4,39 L1,46 L-1,52 L-3,49 L-2,42 L-2,18 L-3,14 L-3,1 L-1,3 Z " fill="#AAA096" transform="translate(59,143)"/>
<path d="M0,0 L2,1 L2,30 L1,59 L0,59 L-1,30 L-3,30 L-5,19 L-4,12 L-2,2 Z " fill="#716253" transform="translate(161,116)"/>
<path d="M0,0 L7,0 L7,2 L16,3 L16,7 L12,11 L0,11 L-5,9 L-6,5 Z " fill="#F7F5F2" transform="translate(68,185)"/>
<path d="M0,0 L3,4 L6,1 L9,6 L10,16 L8,23 L7,21 L5,22 L6,27 L3,32 L1,31 L1,7 Z " fill="#A1988E" transform="translate(190,280)"/>
<path d="M0,0 L2,0 L2,77 L1,75 L-1,74 L1,74 L0,71 L0,59 L-2,58 L0,54 L-3,51 L0,51 L-2,37 L-3,33 L-5,30 L-1,30 L-3,28 L-1,28 L0,16 L-2,15 L0,15 L-1,8 Z " fill="#6C5B4B" transform="translate(277,108)"/>
<path d="M0,0 L3,0 L3,14 L0,14 L0,16 L-2,16 L1,23 L1,29 L-1,25 L-6,15 L-13,4 L-12,1 L-10,1 L-10,3 L-1,3 Z " fill="#CDC7C0" transform="translate(291,56)"/>
<path d="M0,0 L2,4 L4,12 L5,16 L3,16 L4,25 L3,61 L1,67 L-2,66 L0,66 Z " fill="#938474" transform="translate(186,114)"/>
<path d="M0,0 L2,1 L-4,9 L-6,9 L-7,16 L-5,17 L-7,21 L-7,30 L-11,34 L-14,27 L-14,16 L-10,6 L-8,5 L-8,7 L-4,5 Z " fill="#B0A8A0" transform="translate(219,266)"/>
<path d="M0,0 L5,3 L14,3 L10,5 L2,6 L0,10 L-6,9 L-13,7 L-21,6 L-21,4 L-25,4 L-25,2 L-14,1 L-1,1 Z " fill="#D8D4D1" transform="translate(170,229)"/>
<path d="M0,0 L1,0 L1,8 L2,7 L2,1 L7,0 L9,2 L9,6 L15,6 L17,9 L8,11 L1,12 L2,18 L-5,15 L-4,7 Z " fill="#F8F8F8" transform="translate(55,51)"/>
<path d="M0,0 L11,0 L13,9 L13,22 L11,24 L10,69 L8,68 L9,20 L8,4 L0,3 Z " fill="#857667" transform="translate(163,113)"/>
<path d="M0,0 L3,1 L4,5 L4,43 L2,45 L0,39 Z " fill="#6F6051" transform="translate(173,136)"/>
<path d="M0,0 L2,1 L3,10 L4,22 L6,24 L6,40 L4,41 L2,36 L0,35 L0,20 L-1,14 L-1,6 Z " fill="#C3BDB8" transform="translate(292,128)"/>
<path d="M0,0 L6,2 L8,3 L9,1 L9,3 L15,2 L17,2 L16,6 L12,8 L13,10 L26,12 L29,13 L19,17 L12,17 L10,16 L10,10 L8,15 L-2,15 L-2,14 L5,13 L9,8 L9,6 L0,4 Z M12,15 Z " fill="#8C7E70" transform="translate(75,183)"/>
<path d="M0,0 L4,1 L5,2 L5,7 L7,9 L7,14 L5,13 L5,18 L3,17 L-25,15 L-29,13 L-24,12 L1,13 L2,11 L-1,10 L-18,9 L-18,8 L3,8 L2,2 Z " fill="#998B7D" transform="translate(99,122)"/>
<path d="M0,0 L4,0 L4,13 L0,17 L-7,17 L-9,12 L-8,8 L-5,4 L1,3 L2,2 L-1,1 Z " fill="#EFECE8" transform="translate(290,43)"/>
<path d="M0,0 L3,4 L3,25 L2,82 L13,84 L13,85 L5,85 L1,84 L1,82 L-2,82 L-3,85 L-4,80 L0,80 L0,24 L2,24 L1,13 L0,9 Z " fill="#5C4A39" transform="translate(108,106)"/>
<path d="M0,0 L1,0 L3,7 L5,9 L22,12 L24,14 L20,16 L-5,16 L-3,12 L1,11 L0,7 Z " fill="#F5F4F4" transform="translate(55,72)"/>
<path d="M0,0 L9,3 L31,3 L34,4 L43,4 L43,6 L41,8 L29,9 L29,7 L31,6 L25,5 L24,8 L24,6 L19,6 L19,7 L2,7 L5,6 L5,4 L-3,2 Z " fill="#604F40" transform="translate(144,203)"/>
<path d="M0,0 L32,0 L36,2 L34,2 L34,4 L31,5 L11,5 L-1,2 Z " fill="#AA9E94" transform="translate(233,163)"/>
<path d="M0,0 L5,1 L7,2 L7,4 L22,5 L24,7 L0,7 L-1,11 L-6,13 L-6,15 L-8,15 L-9,20 L-13,18 L-11,14 L-4,4 Z " fill="#D1CBC5" transform="translate(142,205)"/>
<path d="M0,0 L3,0 L47,1 L50,3 L-34,3 L-38,1 L-2,1 Z " fill="#857768" transform="translate(196,197)"/>
<path d="M0,0 L9,0 L15,2 L15,3 L-7,3 L-6,10 L-4,12 L0,13 L17,14 L18,12 L23,14 L35,15 L31,17 L3,17 L-2,18 L-8,11 L-10,12 L-10,7 L-9,3 L-8,2 L0,1 Z " fill="#594735" transform="translate(252,182)"/>
<path d="M0,0 L2,0 L3,4 L1,6 L-1,10 L-6,9 L-6,11 L0,12 L2,17 L-1,19 L-14,17 L-15,14 L-10,9 L-9,7 L-4,7 L-1,6 Z " fill="#F7F5F2" transform="translate(102,177)"/>
<path d="M0,0 L7,0 L7,1 L1,1 L1,4 L8,4 L5,6 L-2,5 L-4,6 L-13,7 L-17,12 L-18,7 L-44,5 L-43,2 L-40,3 L-26,2 L-21,2 L-21,5 L-16,6 L-11,3 L0,3 Z " fill="#746352" transform="translate(197,180)"/>
<path d="M0,0 L1,0 L3,14 L3,35 L1,35 L1,46 L3,47 L3,61 L1,59 L-1,61 L-1,20 Z " fill="#786959" transform="translate(41,126)"/>
<path d="M0,0 L65,0 L66,2 L35,2 L32,3 L10,3 L0,2 Z " fill="#D1C6B8" transform="translate(176,94)"/>
<path d="M0,0 L4,5 L22,6 L19,7 L22,10 L22,14 L17,19 L15,20 L17,15 L15,15 L15,13 L7,12 L3,9 L5,8 L0,4 L-1,1 Z " fill="#958A7F" transform="translate(122,190)"/>
<path d="M0,0 L11,0 L29,1 L25,3 L16,2 L15,4 L15,2 L3,4 L-29,4 L-33,5 L-33,3 L-47,4 L-66,4 L-66,2 L0,2 Z " fill="#4F3B29" transform="translate(175,96)"/>
<path d="M0,0 L4,2 L6,7 L7,20 L1,25 L-4,26 L-3,24 L-5,22 L-2,22 L0,17 Z " fill="#BAB3AD" transform="translate(230,281)"/>
<path d="M0,0 L3,2 L6,2 L6,4 L18,5 L22,10 L25,13 L21,12 L2,11 L1,7 Z " fill="#F7F7F6" transform="translate(103,186)"/>
<path d="M0,0 L2,4 L2,24 L1,26 L1,46 L2,58 L2,70 L0,71 L-1,51 L-1,47 L-2,18 L-1,18 Z " fill="#908172" transform="translate(45,117)"/>
<path d="M0,0 L1,4 L-1,5 L-3,4 L-3,7 L0,7 L1,10 L3,11 L2,14 L2,12 L0,12 L-1,16 L-2,9 L-22,8 L-18,6 L-25,4 L-21,2 L-1,2 Z " fill="#9F9183" transform="translate(102,165)"/>
<path d="M0,0 L29,0 L25,1 L25,4 L1,6 L-4,4 L-4,2 L0,2 Z " fill="#B8B0AA" transform="translate(88,45)"/>
<path d="M0,0 L1,0 L2,27 L7,29 L8,31 L-2,32 L-4,31 L-6,37 L-6,44 L-9,45 L-9,34 L-10,30 L-8,30 L-8,28 L-4,25 L-1,24 Z " fill="#BAB1A8" transform="translate(158,152)"/>
<path d="M0,0 L4,1 L6,5 L13,6 L10,8 L-1,10 L-1,19 L-5,18 L-5,8 L-2,1 Z " fill="#F8F7F6" transform="translate(41,190)"/>
<path d="M0,0 L9,0 L7,10 L1,10 L-2,11 L-7,11 L-9,10 L-13,10 L-13,5 L-12,2 L-9,1 L-5,8 L2,7 Z " fill="#B0A8A0" transform="translate(136,106)"/>
<path d="M0,0 L4,2 L5,4 L1,6 L-9,7 L-11,10 L-11,18 L-9,22 L0,24 L8,26 L11,29 L-10,25 L-14,21 L-16,11 L-14,11 L-14,6 L-5,3 L1,2 Z " fill="#615040" transform="translate(70,57)"/>
<path d="M0,0 L4,1 L4,6 L-5,6 L-7,10 L-3,12 L-9,12 L-11,7 L-16,7 L-16,13 L-10,13 L-10,14 L-17,14 L-18,5 L-16,2 Z " fill="#ABA29A" transform="translate(73,45)"/>
<path d="M0,0 L2,3 L5,1 L5,6 L1,12 L-2,12 L-5,15 L1,17 L3,19 L0,20 L-10,14 L-12,12 L-8,12 L-9,9 L-13,7 L-13,5 L-12,2 L-9,5 L-9,7 L-4,7 L-1,4 Z " fill="#6F5F4F" transform="translate(151,270)"/>
<path d="M0,0 L1,0 L1,5 L5,4 L5,11 L16,13 L16,14 L9,14 L9,17 L4,19 L4,25 L0,26 Z " fill="#E9E7E6" transform="translate(225,117)"/>
<path d="M0,0 L3,1 L0,3 L9,5 L8,9 L4,7 L3,6 L3,7 L-14,7 L-16,6 L-27,6 L-27,4 L-20,3 L-11,2 Z " fill="#7D6F62" transform="translate(96,114)"/>
<path d="M0,0 L107,0 L107,1 L99,2 L100,4 L96,3 L96,2 L5,2 L0,1 Z " fill="#493623" transform="translate(130,44)"/>
<path d="M0,0 L20,0 L20,1 L29,1 L31,3 L2,4 L0,5 L-14,4 L-14,3 L-19,2 L-19,1 Z " fill="#675647" transform="translate(272,226)"/>
<path d="M0,0 L6,0 L7,2 L4,2 L4,8 L11,12 L11,13 L6,13 L3,13 L0,17 L0,15 L-4,16 L-4,14 L-7,13 L-4,9 L-2,3 L0,3 Z " fill="#9B9186" transform="translate(169,208)"/>
<path d="M0,0 L1,2 L-4,10 L-6,14 L-3,15 L-1,11 L0,15 L-1,22 L-3,22 L-3,20 L-7,22 L-17,22 L-15,20 L-8,20 L-8,16 L-16,16 L-13,15 L-14,11 L-9,10 L-4,7 Z " fill="#9B8F82" transform="translate(136,209)"/>
<path d="M0,0 L2,1 L3,1 L5,2 L0,7 L-5,12 L-1,15 L4,11 L10,10 L10,15 L8,15 L8,13 L4,14 L0,19 L-5,19 L-7,14 L-11,14 L-10,11 L-6,7 L-5,5 L-2,4 L-3,2 Z " fill="#91867A" transform="translate(254,28)"/>
<path d="M0,0 L5,0 L8,4 L-28,5 L-26,10 L-28,11 L-29,7 L-31,7 L-29,1 L-3,1 Z " fill="#796A5A" transform="translate(78,86)"/>
<path d="M0,0 L29,0 L30,2 L38,5 L37,13 L35,9 L35,5 L8,5 L-4,7 L-3,4 L1,3 L20,2 L0,1 Z " fill="#564332" transform="translate(235,147)"/>
<path d="M0,0 L1,0 L1,33 L0,39 L-2,39 L-2,37 L-5,38 L-13,38 L-8,33 L-1,32 L-1,15 L-2,7 Z " fill="#FAFAFA" transform="translate(143,145)"/>
<path d="M0,0 L52,1 L52,2 L45,3 L43,4 L38,3 L8,3 L7,5 L-6,4 L-7,8 L-8,6 L-7,2 Z " fill="#61503F" transform="translate(211,95)"/>
<path d="M0,0 L5,0 L5,15 L8,16 L7,22 L7,33 L5,35 L4,46 L3,46 L2,7 L3,1 Z " fill="#BFB7AE" transform="translate(37,100)"/>
<path d="M0,0 L9,1 L15,4 L16,10 L18,10 L17,15 L15,19 L12,18 L11,7 L8,7 L7,9 L4,6 L9,4 L-2,2 Z " fill="#ADA297" transform="translate(143,256)"/>
<path d="M0,0 L2,4 L4,4 L3,0 L11,1 L11,2 L25,3 L23,5 L5,6 L2,11 L5,17 L1,16 L-4,12 L-1,12 L-2,4 Z " fill="#817162" transform="translate(230,130)"/>
<path d="M0,0 L4,1 L34,2 L36,1 L35,4 L32,6 L7,5 L-2,3 L0,2 Z " fill="#70604F" transform="translate(234,126)"/>
<path d="M0,0 L3,0 L7,5 L7,18 L4,21 L-5,23 L-4,20 L-2,20 L0,15 L1,9 L6,9 L2,3 Z " fill="#93877D" transform="translate(152,283)"/>
<path d="M0,0 L4,4 L2,4 L2,6 L6,4 L35,3 L35,5 L31,7 L26,8 L24,7 L23,9 L23,7 L15,8 L10,6 L9,8 L2,8 L-1,8 L0,3 Z " fill="#645443" transform="translate(66,178)"/>
<path d="M0,0 L1,2 L5,2 L4,4 L-1,4 L-3,11 L-4,21 L0,22 L0,13 L2,14 L3,16 L1,16 L2,21 L-2,29 L-4,27 L-10,32 L-14,30 L-8,27 L-7,25 L-5,25 L-6,14 L-2,3 Z " fill="#655445" transform="translate(40,187)"/>
<path d="M0,0 L5,5 L20,6 L21,9 L15,9 L12,9 L-14,9 L-14,7 L-4,5 L-6,7 L-3,6 L-2,3 L-1,6 L1,5 Z " fill="#5A4837" transform="translate(182,190)"/>
<path d="M0,0 L13,1 L17,5 L16,12 L15,39 L14,39 L14,5 L10,3 L1,3 L-2,11 L-4,7 L-3,2 Z " fill="#FAFAFA" transform="translate(209,105)"/>
<path d="M0,0 L6,1 L3,10 L1,9 L2,3 L-37,3 L-35,1 L-6,1 Z " fill="#97887A" transform="translate(290,197)"/>
<path d="M0,0 L1,0 L2,33 L5,35 L3,36 L-2,35 L-3,31 L-3,8 L-1,10 Z " fill="#897B6D" transform="translate(162,146)"/>
<path d="M0,0 L1,0 L1,7 L5,4 L15,4 L22,6 L20,8 L-6,10 L-7,8 L-3,6 L-1,4 Z " fill="#574534" transform="translate(148,190)"/>
<path d="M0,0 L1,0 L1,64 L-1,62 L-2,53 L0,53 L-1,40 L-1,15 L-2,6 L-1,6 Z " fill="#4C3826" transform="translate(208,125)"/>
<path d="M0,0 L3,1 L4,6 L6,9 L5,11 L0,10 L-1,9 L-15,9 L-16,3 L-11,4 L-10,6 L-5,6 Z " fill="#F4F3F3" transform="translate(259,40)"/>
<path d="M0,0 L6,3 L6,9 L3,10 L3,12 L1,13 L-10,13 L-12,11 L-9,11 L-9,8 L4,7 L-1,1 Z " fill="#786A5D" transform="translate(315,216)"/>
<path d="M0,0 L2,0 L4,13 L4,23 L1,34 L-1,32 L-1,20 L0,18 Z " fill="#FAFAFA" transform="translate(124,127)"/>
<path d="M0,0 L20,0 L20,4 L17,3 L7,6 L0,6 L-2,2 L0,2 Z " fill="#BBB4AC" transform="translate(171,66)"/>
<path d="M0,0 L2,1 L2,3 L4,4 L2,9 L2,19 L5,26 L4,28 L7,27 L12,28 L14,29 L13,30 L4,30 L-1,26 L-2,20 L-1,19 L-1,10 L0,6 L-1,3 Z " fill="#615040" transform="translate(212,277)"/>
<path d="M0,0 L12,0 L20,3 L24,5 L7,5 L-7,3 L-7,2 Z " fill="#97897B" transform="translate(188,207)"/>
<path d="M0,0 L3,2 L20,2 L20,4 L25,4 L26,6 L9,6 L-18,5 L-20,3 L-14,3 L-11,3 L0,4 Z " fill="#4E3B29" transform="translate(223,193)"/>
<path d="M0,0 L3,1 L3,3 L5,3 L6,16 L6,18 L3,19 L1,17 L-1,8 L-1,2 Z " fill="#E8E6E5" transform="translate(272,164)"/>
<path d="M0,0 L1,0 L2,7 L6,10 L4,15 L2,11 L0,6 L-3,7 L-26,7 L-31,8 L-32,6 L-23,4 L-10,4 L-6,2 L-6,4 L0,5 Z " fill="#736352" transform="translate(266,111)"/>
<path d="M0,0 L1,4 L0,7 L2,11 L30,11 L35,12 L32,14 L2,14 L-3,10 L-2,9 L-3,6 Z " fill="#6C5B4A" transform="translate(68,120)"/>
<path d="M0,0 L3,0 L3,2 L6,2 L7,7 L-1,8 L-21,8 L-21,11 L-28,11 L-27,8 L-11,6 L-1,6 Z " fill="#A79E95" transform="translate(166,223)"/>
<path d="M0,0 L25,0 L24,2 L-6,3 L-10,4 L-11,13 L-13,13 L-14,6 L-16,5 L-13,5 L-13,3 L-8,1 Z " fill="#B6A99A" transform="translate(243,151)"/>
<path d="M0,0 L26,0 L38,1 L37,3 L11,3 L2,4 L-1,1 Z " fill="#706050" transform="translate(173,229)"/>
<path d="M0,0 L2,1 L1,4 L20,4 L21,6 L12,7 L-6,7 L-8,5 L-1,2 Z " fill="#988B80" transform="translate(104,193)"/>
<path d="M0,0 L14,0 L15,6 L4,6 L-1,4 Z " fill="#F3F2F2" transform="translate(208,191)"/>
<path d="M0,0 L1,0 L1,5 L4,6 L3,10 L4,16 L3,13 L1,13 L1,11 L-8,12 L-13,12 L-14,15 L-12,15 L-12,17 L-15,17 L-15,9 L-2,10 L-2,3 Z " fill="#766657" transform="translate(221,180)"/>
<path d="M0,0 L34,0 L37,2 L25,3 L5,3 L-4,2 Z " fill="#817263" transform="translate(246,94)"/>
<path d="M0,0 L9,1 L11,4 L10,6 L8,6 L9,11 L2,7 L-3,5 Z " fill="#F6F3ED" transform="translate(68,50)"/>
<path d="M0,0 L3,0 L4,52 L2,50 L2,44 L-1,43 L2,43 L1,37 L1,20 L2,16 L-2,15 L1,15 L1,3 Z " fill="#4C3927" transform="translate(292,27)"/>
<path d="M0,0 L22,0 L25,1 L24,6 L21,6 L21,2 L15,2 L14,4 L14,2 L7,3 L-3,3 L-7,4 L-5,6 L-8,7 L-13,7 L-11,3 L-6,1 Z " fill="#594737" transform="translate(269,21)"/>
<path d="M0,0 L3,3 L3,5 L5,6 L4,11 L6,12 L4,23 L4,33 L6,32 L6,35 L4,36 L3,45 L2,45 L1,26 L2,12 L1,4 Z " fill="#513E2D" transform="translate(56,107)"/>
<path d="M0,0 L12,0 L13,7 L11,9 L7,5 L0,6 L-1,1 Z " fill="#BEB8B2" transform="translate(256,97)"/>
<path d="M0,0 L2,1 L11,1 L8,3 L4,3 L1,12 L0,34 L-2,30 L-2,13 L-1,11 L-4,11 L-4,9 L0,9 L-2,5 Z " fill="#675747" transform="translate(45,105)"/>
<path d="M0,0 L9,0 L11,3 L1,2 L0,27 L-1,27 L-1,18 L-3,18 L-4,9 L-1,1 Z " fill="#7F6F5E" transform="translate(210,107)"/>
<path d="M0,0 L4,0 L6,3 L9,12 L9,17 L6,18 L4,10 L2,9 L2,7 L0,7 Z " fill="#DAD6D3" transform="translate(292,175)"/>
<path d="M0,0 L1,0 L1,16 L-5,15 L-4,22 L-8,18 L-12,17 L-12,15 L-7,15 L-4,10 L-3,5 L-1,4 Z " fill="#C0B9B3" transform="translate(108,171)"/>
<path d="M0,0 L5,1 L1,2 L4,6 L2,6 L2,8 L7,7 L16,7 L23,11 L20,12 L13,9 L-6,10 L-5,7 L0,6 L0,4 L-4,3 Z " fill="#5B4939" transform="translate(242,41)"/>
<path d="M0,0 L42,0 L42,2 L23,2 L10,3 L9,1 L2,2 Z " fill="#594736" transform="translate(243,209)"/>
<path d="M0,0 L9,1 L9,2 L4,3 L3,5 L14,4 L14,6 L2,7 L-8,7 L-22,6 L-22,5 L-13,4 L2,5 L-1,4 Z " fill="#4D3A28" transform="translate(135,229)"/>
<path d="M0,0 L10,1 L10,3 L3,4 L3,7 L-1,9 L-1,15 L-3,15 L-4,9 L-5,6 L-2,1 Z " fill="#9A8F85" transform="translate(233,113)"/>
<path d="M0,0 L1,3 L0,14 L-3,14 L-3,16 L-1,17 L-2,20 L-2,18 L-6,20 L-7,16 L-6,13 L-4,13 L-3,5 L-9,6 L-9,4 L-2,3 L0,2 Z " fill="#CCC4BA" transform="translate(293,28)"/>
<path d="M0,0 L4,2 L5,6 L2,10 L2,21 L3,25 L0,23 L-2,11 L-4,9 L1,4 L1,2 Z " fill="#988C80" transform="translate(134,278)"/>
<path d="M0,0 L6,4 L8,11 L7,21 L5,19 L3,6 L-1,3 L0,10 L-3,6 L-2,1 Z " fill="#635141" transform="translate(231,278)"/>
<path d="M0,0 L1,0 L3,8 L5,12 L5,18 L3,23 L4,36 L6,38 L4,38 L4,41 L2,40 L1,27 L0,23 L2,19 L1,12 L-1,4 Z " fill="#5B4A39" transform="translate(298,173)"/>
<path d="M0,0 L2,1 L3,0 L6,1 L1,6 L2,9 L-3,9 L-4,8 L-11,8 L-12,5 L-4,4 Z " fill="#ECE6DE" transform="translate(188,68)"/>
<path d="M0,0 L13,0 L12,2 L6,3 L-6,3 L-8,8 L-12,18 L-14,17 L-11,8 L-7,2 Z " fill="#5B4A39" transform="translate(63,44)"/>
<path d="M0,0 L8,0 L13,1 L14,4 L9,4 L5,5 L-8,4 L-9,2 Z " fill="#827469" transform="translate(122,44)"/>
<path d="M0,0 L9,0 L13,2 L17,1 L18,3 L11,4 L11,6 L2,5 L2,3 L-1,4 L-2,2 Z " fill="#8C7E70" transform="translate(136,303)"/>
<path d="M0,0 L2,4 L5,5 L3,9 L-19,8 L-23,6 L1,6 Z " fill="#B2A597" transform="translate(218,222)"/>
<path d="M0,0 L3,0 L4,9 L5,11 L1,12 L-2,10 L-2,8 L-4,8 L-4,6 L-1,6 L-6,5 L-6,2 L0,2 Z " fill="#E6E3E0" transform="translate(204,179)"/>
<path d="M0,0 L1,0 L1,6 L4,6 L3,2 L7,4 L5,4 L7,8 L6,12 L5,7 L0,7 L-1,9 L-2,8 L-18,7 L-14,4 L-2,4 L-2,6 L0,6 Z " fill="#523F2E" transform="translate(143,178)"/>
<path d="M0,0 L55,1 L55,2 L20,3 L1,3 Z " fill="#4D3927" transform="translate(54,97)"/>
</svg>
