<?xml version="1.0" encoding="UTF-8"?>
<!-- Generator: visioncortex VTracer 0.6.12 -->
<svg xmlns:xlink="http://www.w3.org/1999/xlink" xmlns:sodipodi="http://sodipodi.sourceforge.net/DTD/sodipodi-0.0.dtd" xmlns:inkscape="http://www.inkscape.org/namespaces/inkscape" version="1.1" xmlns="http://www.w3.org/2000/svg" width="280" height="344">
<path d="M0 0 C92.4 0 184.8 0 280 0 C280 113.52 280 227.04 280 344 C187.6 344 95.2 344 0 344 C0 230.48 0 116.96 0 0 Z " fill="#F2F3F2" transform="translate(0,0)"/>
<path d="M0 0 C26.80724378 -0.0466723 53.6144815 -0.08196541 80.4217577 -0.10362434 C92.86818104 -0.11394721 105.31457917 -0.1280268 117.76098633 -0.15087891 C128.6063063 -0.1707819 139.45160802 -0.18370908 150.29694575 -0.18817699 C156.04213672 -0.19078962 161.78727546 -0.19695133 167.53244972 -0.21146011 C172.93564588 -0.22499522 178.3387681 -0.22923092 183.7419796 -0.22621536 C185.72900672 -0.22676735 187.71603621 -0.23076895 189.70304871 -0.23841095 C192.40835108 -0.24830852 195.1133714 -0.24598794 197.81867981 -0.24050903 C198.21507822 -0.24342187 198.21507822 -0.24342187 200.22109443 -0.25816262 C204.02265122 -0.23724062 205.75722078 -0.16185281 209 2 C209.29296875 4.1640625 209.29296875 4.1640625 209.1875 6.625 C209.17396484 7.03363281 209.17396484 7.03363281 209.10546875 9.1015625 C209.07066406 9.72804687 209.03585938 10.35453125 209 11 C209.99 11.33 210.98 11.66 212 12 C212 12.66 212 13.32 212 14 C212.33 14 212.66 14 213 14 C213 15.98 213 17.96 213 20 C140.73 20 68.46 20 -6 20 C-5.67 18.68 -5.34 17.36 -5 16 C-5 16.99 -5 17.98 -5 19 C-4.34 18.67 -3.68 18.34 -3 18 C-0.21609263 17.90411628 2.54270877 17.86989107 5.32681274 17.87974548 C6.19831825 17.87889106 7.06982375 17.87803663 7.96773851 17.87715632 C10.90510792 17.87550152 13.84242096 17.8810229 16.77978516 17.88647461 C18.87857563 17.88675651 20.9773662 17.8865987 23.07615662 17.8860321 C28.7886745 17.88574423 34.50117154 17.89163934 40.21368456 17.89860606 C46.17813036 17.90484127 52.14257659 17.90544353 58.10702515 17.90663147 C69.40819833 17.90974429 80.70936189 17.91795702 92.01053083 17.92798096 C104.87369274 17.93914362 117.7368551 17.94465293 130.60002065 17.94967639 C157.06668578 17.96013967 183.53334235 17.97773816 210 18 C209.50772095 15.53631783 209.50772095 15.53631783 208 13 C205.10326822 12.49614572 202.78113399 12.35876449 199.87646484 12.41891479 C199.02678823 12.41675937 198.17711163 12.41460394 197.30168724 12.4123832 C194.43752228 12.41116664 191.57488267 12.44577507 188.7109375 12.47998047 C186.66465809 12.4862982 184.61837071 12.49037564 182.57208252 12.49237061 C178.15749172 12.50141701 173.74336426 12.52622928 169.32891846 12.5630455 C162.35519461 12.62093269 155.3816412 12.643144 148.40771484 12.66018677 C136.12443665 12.69479891 123.84145952 12.75984455 111.55834961 12.83154297 C93.06090161 12.93928349 74.5633704 13.0237138 56.06569099 13.07891381 C49.12656156 13.10077295 42.18775691 13.13875154 35.2487793 13.18928885 C30.93958166 13.21794834 26.6303984 13.23449063 22.32112885 13.24785614 C20.31591548 13.25670106 18.31071767 13.27077121 16.30558014 13.29032516 C13.57808512 13.31627691 10.85113727 13.32402154 8.12353516 13.32711792 C7.32140783 13.33926704 6.51928051 13.35141617 5.6928463 13.36393344 C3.48892212 13.35517693 3.48892212 13.35517693 0 13 C-2 10 -2 10 -2 6 C-1.38001259 3.98504093 -0.72045764 1.9812585 0 0 Z " fill="#829A8E" transform="translate(38,226)"/>
<path d="M0 0 C1.05445313 -0.00515625 2.10890625 -0.0103125 3.1953125 -0.015625 C5.875 0.25 5.875 0.25 7.875 2.25 C2.925 2.25 -2.025 2.25 -7.125 2.25 C-7.125 2.91 -7.125 3.57 -7.125 4.25 C-6.465 3.92 -5.805 3.59 -5.125 3.25 C-2.96178892 3.10199082 -0.79307763 3.02877979 1.375 3 C2.5403125 2.97421875 3.705625 2.9484375 4.90625 2.921875 C5.39609375 2.97601563 5.39609375 2.97601563 7.875 3.25 C10.47470856 7.14956284 10.12182465 10.37877895 10.05786133 14.89648438 C10.05321869 15.7796785 10.04857605 16.66287262 10.04379272 17.5728302 C10.02538912 20.49665756 9.99186675 23.42007535 9.95703125 26.34375 C9.93847736 28.37251373 9.92039171 30.40128179 9.90275574 32.43005371 C9.86322902 36.68377923 9.81585321 40.93733264 9.76342773 45.19091797 C9.69709719 50.6486399 9.65348977 56.10627479 9.61616993 61.56426239 C9.58446408 65.75418411 9.53907574 69.94387393 9.48969078 74.13362122 C9.46794419 76.14626116 9.45087466 78.15895715 9.43851662 80.17167664 C9.41953334 82.98266788 9.38176959 85.79279772 9.33911133 88.60351562 C9.33740433 89.43893387 9.33569733 90.27435211 9.3339386 91.13508606 C9.21950572 96.81262242 9.21950572 96.81262242 7.52282238 98.96669769 C5.04903925 100.89324732 3.0208599 100.57622645 -0.0625 100.5 C-1.10277344 100.48453125 -2.14304688 100.4690625 -3.21484375 100.453125 C-5.68471578 100.28073125 -7.75127137 99.8862243 -10.125 99.25 C-10.14817523 88.77526983 -10.16594155 78.30054577 -10.17681217 67.82579517 C-10.18202964 62.96189785 -10.18910672 58.09801808 -10.20043945 53.23413086 C-10.21130863 48.53979508 -10.2172854 43.84547617 -10.21987724 39.15112877 C-10.22172421 37.36058982 -10.22533086 35.57005179 -10.23073006 33.77952003 C-10.23799393 31.2707177 -10.23898868 28.761985 -10.23852539 26.25317383 C-10.24212067 25.51374039 -10.24571594 24.77430695 -10.24942017 24.01246643 C-10.24200195 20.29748737 -10.01530053 16.86210716 -9.125 13.25 C-7.805 13.25 -6.485 13.25 -5.125 13.25 C-6.775 12.92 -8.425 12.59 -10.125 12.25 C-10.2328378 10.62644204 -10.31051841 9.00085718 -10.375 7.375 C-10.42140625 6.47007813 -10.4678125 5.56515625 -10.515625 4.6328125 C-10.125 2.25 -10.125 2.25 -8.4921875 0.9453125 C-5.57745507 0.08916997 -3.03718751 -0.01492475 0 0 Z " fill="#F4F4F3" transform="translate(225.125,119.75)"/>
<path d="M0 0 C3.47914843 -0.0294191 6.95826417 -0.04693792 10.4375 -0.0625 C11.41138672 -0.07087891 12.38527344 -0.07925781 13.38867188 -0.08789062 C19.34778969 -0.10782078 25.09067683 0.22390482 31 1 C31 1.33 31 1.66 31 2 C29.35 2.33 27.7 2.66 26 3 C26 3.66 26 4.32 26 5 C26.66 4.34 27.32 3.68 28 3 C28.02696365 4.79158489 28.04637917 6.58328473 28.0625 8.375 C28.07410156 9.37273437 28.08570313 10.37046875 28.09765625 11.3984375 C28 14 28 14 27 16 C29.31 16 31.62 16 34 16 C33.835 15.67 33.835 15.67 33 14 C32.77141886 11.9625237 32.58975722 9.91959697 32.4375 7.875 C32.35371094 6.77929688 32.26992187 5.68359375 32.18359375 4.5546875 C32.12300781 3.71164063 32.06242187 2.86859375 32 2 C32.99 2 33.98 2 35 2 C35.02685095 4.47923801 35.04676547 6.9581884 35.0625 9.4375 C35.07087891 10.14455078 35.07925781 10.85160156 35.08789062 11.58007812 C35.09653588 13.38693559 35.05220011 15.19387603 35 17 C34 18 34 18 30.96484375 18.0625 C29.62233027 18.04643802 28.27987019 18.02535166 26.9375 18 C21.58621582 17.91446499 16.37228972 18.11370718 11.03515625 18.52734375 C-0.46708116 19.34769885 -11.98426951 18.8563797 -23.5 18.5625 C-25.78774596 18.50914197 -28.07550644 18.45640313 -30.36328125 18.40429688 C-35.90904169 18.27665986 -41.45457471 18.14141665 -47 18 C-47 17.67 -47 17.34 -47 17 C-44.36 17 -41.72 17 -39 17 C-39.33 12.05 -39.66 7.1 -40 2 C-41.98 2 -43.96 2 -46 2 C-46 1.67 -46 1.34 -46 1 C-31.81 1 -17.62 1 -3 1 C-3 1.33 -3 1.66 -3 2 C-4.485 2.165 -4.485 2.165 -12 3 C-8.04 3 -4.08 3 0 3 C0 2.01 0 1.02 0 0 Z " fill="#E8EDEA" transform="translate(203,98)"/>
<path d="M0 0 C0.87034819 0.00071251 1.74069637 0.00142502 2.63741875 0.00215912 C3.1371174 0.00140129 3.1371174 0.00140129 5.66589546 -0.00243378 C6.77579716 0.00113632 7.88569885 0.00470642 9.02923393 0.0083847 C9.6127355 0.00839729 9.6127355 0.00839729 12.56560707 0.008461 C15.81024619 0.00998197 19.05483409 0.01625265 22.29946089 0.02490044 C24.36488415 0.02988843 26.43030174 0.03302175 28.49572945 0.03549957 C61.87687774 0.07557432 95.25713754 0.31677009 128.63723397 0.56900024 C136.89471576 0.63130809 145.15221661 0.69090461 153.40971923 0.7503767 C170.28535352 0.87197372 187.1609634 0.99664968 204.03655815 1.12361908 C204.03655815 2.11361908 204.03655815 3.10361908 204.03655815 4.12361908 C200.50166665 6.90279287 196.12808383 6.41273065 191.84887505 6.40209198 C191.43268563 6.40498818 191.43268563 6.40498818 189.32651496 6.41964471 C186.53353453 6.43666859 183.74071911 6.43952327 180.94769096 6.44246674 C178.94712226 6.45176326 176.94655743 6.46193152 174.94599724 6.47290802 C169.5104653 6.50025313 164.07495935 6.51537081 158.63937664 6.52833605 C152.96052183 6.54394684 147.28172024 6.57074359 141.60290337 6.59636688 C130.84722729 6.64319102 120.09154124 6.67991755 109.33581519 6.71303976 C97.09166617 6.75123546 84.84757055 6.8006523 72.60346651 6.85102391 C47.41453661 6.95439784 22.22557243 7.04364049 -2.96344185 7.12361908 C-3.00598541 5.12407162 -3.00424968 3.12320272 -2.96344185 1.12361908 C-1.96344185 0.12361908 -1.96344185 0.12361908 0 0 Z " fill="#F9F9F9" transform="translate(40.96344184875488,226.87638092041016)"/>
<path d="M0 0 C0.95519531 -0.00193359 1.91039062 -0.00386719 2.89453125 -0.00585938 C3.9103125 -0.00134766 4.92609375 0.00316406 5.97265625 0.0078125 C6.49666016 0.0087793 6.49666016 0.0087793 9.1484375 0.01367188 C19.79289947 0.07110602 30.40838382 0.54708489 41.03515625 1.1328125 C40.37515625 1.7928125 39.71515625 2.4528125 39.03515625 3.1328125 C39.69515625 3.7928125 40.35515625 4.4528125 41.03515625 5.1328125 C41.23046875 7.734375 41.23046875 7.734375 41.16015625 10.7578125 C41.14210937 11.76070312 41.1240625 12.76359375 41.10546875 13.796875 C41.08226562 14.56773438 41.0590625 15.33859375 41.03515625 16.1328125 C44.00515625 16.1328125 46.97515625 16.1328125 50.03515625 16.1328125 C50.03515625 12.1728125 50.03515625 8.2128125 50.03515625 4.1328125 C52.0859375 3.90494792 54.13671875 3.67708333 56.1875 3.44921875 C58.03515625 3.1328125 58.03515625 3.1328125 59.03515625 2.1328125 C56.06515625 2.1328125 53.09515625 2.1328125 50.03515625 2.1328125 C50.03515625 1.8028125 50.03515625 1.4728125 50.03515625 1.1328125 C56.08544959 0.9403654 62.13593401 0.76167113 68.18701172 0.59570312 C70.24539068 0.5373094 72.30366668 0.47516068 74.36181641 0.40917969 C77.32044734 0.31498304 80.27918585 0.23430278 83.23828125 0.15625 C84.15820862 0.12405365 85.07813599 0.0918573 86.02593994 0.0586853 C86.88653015 0.03851349 87.74712036 0.01834167 88.63378906 -0.00244141 C89.388797 -0.02464752 90.14380493 -0.04685364 90.92169189 -0.06973267 C93.38282801 0.16613184 94.96426638 0.79231415 97.03515625 2.1328125 C97.03515625 2.7928125 97.03515625 3.4528125 97.03515625 4.1328125 C96.37515625 4.1328125 95.71515625 4.1328125 95.03515625 4.1328125 C94.70515625 4.7928125 94.37515625 5.4528125 94.03515625 6.1328125 C92.05515625 5.4728125 90.07515625 4.8128125 88.03515625 4.1328125 C88.03515625 3.8028125 88.03515625 3.4728125 88.03515625 3.1328125 C86.98714844 3.1328125 85.93914062 3.1328125 84.859375 3.1328125 C69.66015625 3.1328125 69.66015625 3.1328125 64.84765625 2.6328125 C64.39712891 2.58640625 64.39712891 2.58640625 62.1171875 2.3515625 C61.43011719 2.279375 60.74304688 2.2071875 60.03515625 2.1328125 C60.34265996 4.27936751 60.65629285 6.42504535 60.97265625 8.5703125 C61.05966797 9.16779297 61.05966797 9.16779297 61.5 12.19140625 C62.03515625 15.1328125 62.03515625 15.1328125 63.03515625 16.1328125 C72.05921202 16.42868318 72.05921202 16.42868318 75.03515625 15.1328125 C75.64453125 13.06640625 75.64453125 13.06640625 75.78515625 10.5703125 C75.81351563 10.15716797 75.81351563 10.15716797 75.95703125 8.06640625 C75.9828125 7.42832031 76.00859375 6.79023437 76.03515625 6.1328125 C76.36515625 6.1328125 76.69515625 6.1328125 77.03515625 6.1328125 C77.03515625 9.7628125 77.03515625 13.3928125 77.03515625 17.1328125 C89.38384447 16.55334331 89.38384447 16.55334331 95.03515625 13.1328125 C95.69515625 13.1328125 96.35515625 13.1328125 97.03515625 13.1328125 C97.20015625 14.1228125 97.20015625 14.1228125 98.03515625 19.1328125 C61.73515625 18.8028125 25.43515625 18.4728125 -11.96484375 18.1328125 C-11.63484375 17.4728125 -11.30484375 16.8128125 -10.96484375 16.1328125 C-8.2421875 15.71875 -8.2421875 15.71875 -4.90234375 15.5078125 C-3.79761719 15.43304688 -2.69289063 15.35828125 -1.5546875 15.28125 C-0.70003906 15.23226562 0.15460937 15.18328125 1.03515625 15.1328125 C1.03515625 15.7928125 1.03515625 16.4528125 1.03515625 17.1328125 C4.66515625 16.8028125 8.29515625 16.4728125 12.03515625 16.1328125 C12.36515625 12.8328125 12.69515625 9.5328125 13.03515625 6.1328125 C11.22015625 5.9678125 11.22015625 5.9678125 2.03515625 5.1328125 C1.70515625 6.4528125 1.37515625 7.7728125 1.03515625 9.1328125 C1.03515625 7.8128125 1.03515625 6.4928125 1.03515625 5.1328125 C-1.27484375 5.4628125 -3.58484375 5.7928125 -5.96484375 6.1328125 C-5.96484375 5.1428125 -5.96484375 4.1528125 -5.96484375 3.1328125 C-7.96484375 1.9453125 -7.96484375 1.9453125 -9.96484375 1.1328125 C-6.58544625 0.37396463 -3.46119105 0.00465169 0 0 Z " fill="#455447" transform="translate(57.96484375,97.8671875)"/>
<path d="M0 0 C0.103125 0.639375 0.20625 1.27875 0.3125 1.9375 C0.539375 2.618125 0.76625 3.29875 1 4 C1.99 4.33 2.98 4.66 4 5 C4 5.66 4 6.32 4 7 C4.33 7 4.66 7 5 7 C5 8.98 5 10.96 5 13 C-67.27 13 -139.54 13 -214 13 C-213.67 11.68 -213.34 10.36 -213 9 C-213 9.99 -213 10.98 -213 12 C-212.34 11.67 -211.68 11.34 -211 11 C-208.21609263 10.90411628 -205.45729123 10.86989107 -202.67318726 10.87974548 C-201.80168175 10.87889106 -200.93017625 10.87803663 -200.03226149 10.87715632 C-197.09489208 10.87550152 -194.15757904 10.8810229 -191.22021484 10.88647461 C-189.12142437 10.88675651 -187.0226338 10.8865987 -184.92384338 10.8860321 C-179.2113255 10.88574423 -173.49882846 10.89163934 -167.78631544 10.89860606 C-161.82186964 10.90484127 -155.85742341 10.90544353 -149.89297485 10.90663147 C-138.59180167 10.90974429 -127.29063811 10.91795702 -115.98946917 10.92798096 C-103.12630726 10.93914362 -90.2631449 10.94465293 -77.39997935 10.94967639 C-50.93331422 10.96013967 -24.46665765 10.97773816 2 11 C1.50856209 8.53757954 1.50856209 8.53757954 0 6 C-2.89994427 5.48943919 -5.22778449 5.34599466 -8.13699341 5.39872742 C-8.56253728 5.39659135 -8.56253728 5.39659135 -10.71604717 5.38578159 C-13.58482386 5.37750679 -16.45215751 5.40510987 -19.32080078 5.43237305 C-21.37033046 5.43378255 -23.41986267 5.43299346 -25.46939087 5.43016052 C-31.04782622 5.42872115 -36.62572814 5.45819531 -42.2040391 5.49303031 C-48.02832265 5.52420712 -53.85261732 5.52721769 -59.67697144 5.53315735 C-70.71263868 5.54872134 -81.74805937 5.58978443 -92.78361785 5.6399048 C-105.34445455 5.69571878 -117.90530279 5.72326476 -130.46623254 5.74838197 C-156.31095858 5.800698 -182.1554655 5.88868993 -208 6 C-204.16242624 3.45615753 -200.20483202 3.72648944 -195.77435303 3.75949097 C-195.35612184 3.75863654 -195.35612184 3.75863654 -193.23961854 3.75431263 C-190.43277092 3.75101462 -187.62616159 3.76202658 -184.81933594 3.77294922 C-182.80891933 3.77351327 -180.79850231 3.7731969 -178.78808594 3.77206421 C-173.32565113 3.77148944 -167.86330383 3.78326387 -162.4008894 3.79721212 C-156.69404224 3.80969878 -150.98719318 3.81088835 -145.28033447 3.81326294 C-134.47149508 3.81948378 -123.66269605 3.83590279 -112.85387444 3.85596192 C-100.54930559 3.87830211 -88.24473482 3.88930962 -75.94015074 3.89935279 C-50.62674476 3.92026848 -25.31337464 3.95545621 0 4 C0 2.68 0 1.36 0 0 Z " fill="#81998C" transform="translate(246,233)"/>
<path d="M0 0 C0.76376953 -0.00773437 1.52753906 -0.01546875 2.31445312 -0.0234375 C9.50149676 0.00158267 9.50149676 0.00158267 12.5625 2.25 C13.375 4.3125 13.375 4.3125 13.5625 6.25 C13.2325 6.58 12.9025 6.91 12.5625 7.25 C12.47258046 10.12042747 12.44759433 12.96664292 12.46484375 15.8371582 C12.46557388 16.28755966 12.46557388 16.28755966 12.4692688 18.56686401 C12.47308494 20.53014481 12.47921205 22.49342213 12.48733521 24.45668983 C12.50004646 27.56213187 12.50660127 30.66753143 12.51147461 33.772995 C12.52488117 41.48947327 12.54904592 49.20591144 12.57287598 56.92236328 C12.59258727 63.43374083 12.60823904 69.94510331 12.61843872 76.45650291 C12.62493207 79.51874345 12.63744284 82.58092253 12.65014648 85.6431427 C12.65377916 87.52031398 12.65713087 89.39748584 12.66015625 91.2746582 C12.66532257 92.12832474 12.67048889 92.98199127 12.67581177 93.86152649 C12.67588226 94.64809631 12.67595276 95.43466614 12.67602539 96.24507141 C12.678246 96.9258994 12.68046661 97.60672739 12.68275452 98.30818653 C12.55384058 100.38982825 12.1270233 102.24607927 11.5625 104.25 C8.64577116 104.27700675 5.72929323 104.29684237 2.8125 104.3125 C2.4 104.31668945 2.4 104.31668945 0.3125 104.33789062 C-0.08710937 104.33950195 -0.08710937 104.33950195 -2.109375 104.34765625 C-2.8425293 104.35289307 -3.57568359 104.35812988 -4.33105469 104.36352539 C-6.4836849 104.2475109 -8.3689135 103.84073271 -10.4375 103.25 C-10.4375 102.59 -10.4375 101.93 -10.4375 101.25 C-11.0975 100.92 -11.7575 100.59 -12.4375 100.25 C-12.2725 100.085 -12.2725 100.085 -11.4375 99.25 C-11.35819127 96.24677754 -11.34386896 93.26685373 -11.37158203 90.26391602 C-11.37625488 89.32088623 -11.38092773 88.37785645 -11.38574219 87.40625 C-11.39627271 85.35128716 -11.40894435 83.29633446 -11.42346573 81.24139595 C-11.44538146 77.99368746 -11.45952897 74.74603639 -11.47116089 71.49827576 C-11.50486268 62.26170954 -11.54649368 53.02523873 -11.60888672 43.78881836 C-11.64644264 38.1467049 -11.66952984 32.50469032 -11.68319321 26.86247063 C-11.69127339 24.70658551 -11.70491833 22.55071407 -11.72412491 20.39489937 C-11.75047168 17.38496701 -11.75848516 14.37551145 -11.76220703 11.36547852 C-11.7745639 10.46721848 -11.78692078 9.56895844 -11.7996521 8.64347839 C-11.79153442 6.16627502 -11.79153442 6.16627502 -11.4375 2.25 C-7.60155456 -0.30729696 -4.44101901 -0.04474578 0 0 Z M-8.4375 2.25 C-8.1075 3.24 -7.7775 4.23 -7.4375 5.25 C-7.7675 5.415 -7.7675 5.415 -9.4375 6.25 C-9.59929038 9.13596059 -9.62845666 11.92399457 -9.57275391 14.80883789 C-9.56329239 15.70631241 -9.55383087 16.60378693 -9.54408264 17.52845764 C-9.5102673 20.51005838 -9.46219028 23.49125493 -9.4140625 26.47265625 C-9.38790955 28.53387886 -9.36264143 30.59511288 -9.33822632 32.65635681 C-9.27143639 38.09317401 -9.19257401 43.52975273 -9.11126709 48.96636963 C-9.03048218 54.50938736 -8.96101808 60.0525454 -8.890625 65.59570312 C-8.75071527 76.48064456 -8.59701701 87.36532823 -8.4375 98.25 C-2.4975 98.25 3.4425 98.25 9.5625 98.25 C9.69305658 86.30650359 9.82347578 74.36300569 9.95365143 62.41950512 C10.01409913 56.87398879 10.07460765 51.32847314 10.13525391 45.78295898 C10.19375096 40.43376632 10.25208988 35.08457196 10.31031799 29.73537636 C10.3325891 27.69198863 10.3549177 25.64860154 10.37730408 23.60521507 C10.40858818 20.74877456 10.43966998 17.89233192 10.47070312 15.03588867 C10.47537849 14.61114761 10.47537849 14.61114761 10.4990387 12.46170044 C10.53223933 9.39096993 10.5625 6.32093605 10.5625 3.25 C7.36478906 0.9306964 4.3495622 1.01002765 0.5 1.0625 C-0.54285156 1.06894531 -1.58570312 1.07539062 -2.66015625 1.08203125 C-5.4375 1.25 -5.4375 1.25 -8.4375 2.25 Z " fill="#637E71" transform="translate(112.4375,118.75)"/>
<path d="M0 0 C0.6084375 -0.00128906 0.6084375 -0.00128906 3.6875 -0.0078125 C4.780625 0.03601563 5.87375 0.07984375 7 0.125 C7.391875 0.13660156 7.391875 0.13660156 9.375 0.1953125 C9.91125 0.50210938 10.4475 0.80890625 11 1.125 C12.11218908 6.65848254 12.13671402 12.10474597 12.11352539 17.73217773 C12.11367142 18.66954269 12.11381744 19.60690765 12.1139679 20.57267761 C12.11327477 23.65134039 12.10551059 26.72994163 12.09765625 29.80859375 C12.09578994 31.95093248 12.09436704 34.09327165 12.09336853 36.23561096 C12.08956016 41.85962107 12.07974426 47.48360513 12.06866455 53.10760498 C12.05841426 58.85233203 12.05386317 64.59706331 12.04882812 70.34179688 C12.03812044 81.60287599 12.02106425 92.86393583 12 104.125 C8.95809137 104.17921223 5.91716001 104.21877548 2.875 104.25 C2.0190625 104.26675781 1.163125 104.28351563 0.28125 104.30078125 C-4.56587293 104.33806681 -8.44707905 104.02080643 -13 102.125 C-12.67 101.96 -12.67 101.96 -11 101.125 C-11.16487915 100.46557907 -11.3297583 99.80615814 -11.49963379 99.12675476 C-12.11627709 95.42744029 -12.07888172 91.83139772 -12.00585938 88.09692383 C-11.99464554 87.30271027 -11.9834317 86.5084967 -11.97187805 85.69021606 C-11.94693028 83.97035518 -11.91953773 82.25052838 -11.88996887 80.53074074 C-11.84322618 77.80144541 -11.80324175 75.0721242 -11.76501465 72.34269714 C-11.66866826 65.56029364 -11.56111965 58.77807709 -11.45318604 51.99584961 C-11.36236561 46.26736031 -11.27620215 40.53883793 -11.19624329 34.81018639 C-11.15702388 32.13482189 -11.11104883 29.45962919 -11.06481934 26.78437805 C-10.9436259 18.79083947 -11.096913 11.08074294 -12 3.125 C-11 1.125 -11 1.125 -9.375 0.5078125 C-6.22850075 0.0006465 -3.18641926 -0.00675089 0 0 Z M-10 3.125 C-10.390625 5.5078125 -10.390625 5.5078125 -10.25 8.25 C-10.21390625 9.16007813 -10.1778125 10.07015625 -10.140625 11.0078125 C-10.09421875 11.70648438 -10.0478125 12.40515625 -10 13.125 C-9.01 13.455 -8.02 13.785 -7 14.125 C-7.66 14.125 -8.32 14.125 -9 14.125 C-9.92756286 18.82664655 -10.13715503 23.37512636 -10.11352539 28.14990234 C-10.11367142 28.93106415 -10.11381744 29.71222595 -10.1139679 30.51705933 C-10.11327498 33.0817143 -10.10551184 35.64629532 -10.09765625 38.2109375 C-10.09578986 39.99598145 -10.094367 41.78102591 -10.09336853 43.56607056 C-10.08956075 48.25137765 -10.07974538 52.93665346 -10.06866455 57.62194824 C-10.05841297 62.40811744 -10.05386289 67.19429172 -10.04882812 71.98046875 C-10.03812149 81.36199287 -10.02106604 90.74349383 -10 100.125 C-6.5833893 101.04074526 -3.48474697 101.32225283 0.0625 101.375 C1.10535156 101.40078125 2.14820313 101.4265625 3.22265625 101.453125 C6 101.125 6 101.125 7.64782238 99.84169769 C9.99718442 96.85899458 9.45665882 93.12582351 9.46411133 89.47851562 C9.47751556 88.5953215 9.4909198 87.71212738 9.50473022 86.8021698 C9.54516523 83.87850145 9.56407867 80.95513641 9.58203125 78.03125 C9.60395222 76.00247101 9.62688946 73.97370277 9.65080261 71.94494629 C9.69770473 67.69135351 9.73434205 63.43783311 9.76342773 59.18408203 C9.80127506 53.7260291 9.86128091 48.2684984 9.92854786 42.81073761 C9.97830202 38.62101206 10.01796588 34.43123962 10.05438805 30.24137878 C10.07279514 28.22866626 10.09397926 26.21597719 10.11795998 24.20332336 C10.14960944 21.39268075 10.16808608 18.58225959 10.18286133 15.77148438 C10.19468948 14.93606613 10.20651764 14.10064789 10.21870422 13.23991394 C10.22548293 9.33653183 10.21647852 7.44971778 8 4.125 C5.03125 3.796875 5.03125 3.796875 1.5 3.875 C0.91734375 3.88273437 0.91734375 3.88273437 -2.03125 3.921875 C-5 4.125 -5 4.125 -7 5.125 C-7 4.465 -7 3.805 -7 3.125 C-2.05 3.125 2.9 3.125 8 3.125 C6 1.125 6 1.125 3.3203125 0.859375 C2.26585937 0.86453125 1.21140625 0.8696875 0.125 0.875 C-0.92429688 0.86984375 -1.97359375 0.8646875 -3.0546875 0.859375 C-5.98772408 1.12389289 -7.69660048 1.2844846 -10 3.125 Z " fill="#A0AEA4" transform="translate(225,118.875)"/>
<path d="M0 0 C0.33 0.99 0.66 1.98 1 3 C29.50220453 3.15024033 58.00443082 3.29534616 86.50669789 3.4332476 C89.86888602 3.4495193 93.23107393 3.46583494 96.59326172 3.48217773 C97.26263481 3.48543066 97.93200789 3.48868358 98.62166502 3.49203508 C109.47116068 3.54486482 120.32063507 3.60125735 131.1701058 3.6589582 C142.29620018 3.71805124 153.42231006 3.77325937 164.54844105 3.82505554 C170.80052872 3.85428531 177.05259617 3.88530901 183.30465317 3.92053413 C189.18304107 3.95359856 195.06143256 3.98198578 200.9398613 4.00670624 C203.10308198 4.01664222 205.26629544 4.02832181 207.42949677 4.04183006 C210.37152702 4.0599471 213.31351849 4.07192394 216.25558472 4.08229065 C217.12133145 4.08909444 217.98707819 4.09589823 218.87905967 4.10290819 C224.77175758 4.11412121 224.77175758 4.11412121 227 3 C227 3.99 227 4.98 227 6 C151.76 6 76.52 6 -1 6 C-1.33 4.35 -1.66 2.7 -2 1 C-1.34 0.67 -0.68 0.34 0 0 Z " fill="#A0B4A9" transform="translate(28,251)"/>
<path d="M0 0 C0.85108774 -0.00085442 1.70217548 -0.00170885 2.57905376 -0.00258917 C5.44732599 -0.00424383 8.31554048 0.00127721 11.18380737 0.00672913 C13.23333739 0.00701103 15.2828675 0.00685321 17.33239746 0.00628662 C22.91062231 0.00599876 28.48882582 0.01189369 34.06704569 0.01886058 C39.89135538 0.02509597 45.71566551 0.02569806 51.53997803 0.02688599 C62.57553157 0.02999875 73.61107525 0.03821141 84.64662445 0.04823548 C97.20749461 0.0593983 109.76836524 0.06490749 122.32923913 0.06993091 C148.17383376 0.08039406 174.01841962 0.09799246 199.86300659 0.12025452 C199.86300659 0.78025452 199.86300659 1.44025452 199.86300659 2.12025452 C172.6301279 2.29731794 145.39720078 2.46300741 118.16417027 2.61503029 C105.52036709 2.68587908 92.87660684 2.76049745 80.23287964 2.84388733 C69.2169496 2.91653185 58.20100424 2.98220839 47.18498272 3.03939855 C41.34816929 3.06994714 35.51142452 3.10406547 29.67468452 3.14651871 C24.1878169 3.18631731 18.70097801 3.21684229 13.21401596 3.24006844 C11.19388082 3.25028846 9.17375999 3.26397818 7.15367317 3.28129005 C4.40830416 3.30431303 1.6631577 3.31516829 -1.08229065 3.32279968 C-1.48743833 3.327658 -1.48743833 3.327658 -3.53773111 3.35224402 C-5.40575272 3.35096791 -7.27328115 3.24707332 -9.13699341 3.12025452 C-9.46699341 2.46025452 -9.79699341 1.80025452 -10.13699341 1.12025452 C-6.94891264 -0.47378587 -3.50083835 -0.01269134 0 0 Z " fill="#335D4B" transform="translate(46.136993408203125,234.87974548339844)"/>
<path d="M0 0 C4.33333333 0 8.66666667 0 13 0 C13.598125 -0.02320312 13.598125 -0.02320312 16.625 -0.140625 C18.08331317 -0.17788118 19.54164776 -0.21430606 21 -0.25 C21.36867187 -0.26675781 21.36867187 -0.26675781 23.234375 -0.3515625 C25.375 -0.390625 25.375 -0.390625 29 0 C30.5 2.015625 30.5 2.015625 31 4 C30.34 4 29.68 4 29 4 C29.04189453 4.35513672 29.04189453 4.35513672 29.25390625 6.15234375 C29.35574219 7.07144531 29.45757812 7.99054688 29.5625 8.9375 C29.66691406 9.85402344 29.77132812 10.77054688 29.87890625 11.71484375 C29.91886719 12.46894531 29.95882812 13.22304687 30 14 C29 15 29 15 26.453125 15.1328125 C25.39609375 15.13023438 24.3390625 15.12765625 23.25 15.125 C22.20328125 15.12757812 21.1565625 15.13015625 20.078125 15.1328125 C17.26776878 15.01155348 14.73360391 14.63784091 12 14 C12 14.33 12 14.66 12 15 C10.54207116 15.05399736 9.08357288 15.09279177 7.625 15.125 C6.81289062 15.14820312 6.00078125 15.17140625 5.1640625 15.1953125 C3 15 3 15 1 13 C-0.00207388 10.05049953 -0.10806432 7.34837394 -0.0625 4.25 C-0.05347656 3.45078125 -0.04445313 2.6515625 -0.03515625 1.828125 C-0.02355469 1.22484375 -0.01195313 0.6215625 0 0 Z " fill="#EBE8E6" transform="translate(118,100)"/>
<path d="M0 0 C2.75026417 -0.05404449 5.49946203 -0.09369306 8.25 -0.125 C9.02730469 -0.14175781 9.80460937 -0.15851563 10.60546875 -0.17578125 C17.92526465 -0.23834361 17.92526465 -0.23834361 21 2 C22.5303111 4.95131426 21.88409062 6.46363752 21.0625 9.75 C20.8871875 10.28625 20.8871875 10.28625 20 13 C19.67 13 19.34 13 19 13 C19.04125 12.030625 19.0825 11.06125 19.125 10.0625 C19.08375 9.051875 19.0425 8.04125 19 7 C12.21619177 3.60809588 7.18342587 3.60552471 0 6 C0 8.64 0 11.28 0 14 C0.53109375 13.83628906 1.0621875 13.67257813 1.609375 13.50390625 C4.53876764 12.88643623 7.25822936 12.90498075 10.25 12.9375 C11.32765625 12.94652344 12.4053125 12.95554688 13.515625 12.96484375 C14.33546875 12.97644531 15.1553125 12.98804688 16 13 C16 13.99 16 14.98 16 16 C15.31292969 15.98839844 14.62585938 15.97679687 13.91796875 15.96484375 C13.01691406 15.95582031 12.11585937 15.94679687 11.1875 15.9375 C10.29417969 15.92589844 9.40085937 15.91429687 8.48046875 15.90234375 C6 16 6 16 3 17 C2.34 16.67 1.68 16.34 1 16 C1.00222061 16.96386627 1.00444122 17.92773254 1.00672913 18.92080688 C1.02701903 28.01351308 1.04200033 37.10621466 1.05181217 46.19893837 C1.05702613 50.87335785 1.06409678 55.54775902 1.07543945 60.22216797 C1.08632117 64.73496047 1.09228805 69.24773539 1.09487724 73.76054001 C1.09672196 75.48047538 1.10032423 77.20040981 1.10573006 78.92033768 C1.11301062 81.33314326 1.11398798 83.74587657 1.11352539 86.15869141 C1.11712067 86.86647736 1.12071594 87.57426331 1.12442017 88.30349731 C1.11613957 92.30657628 0.77136623 96.07212855 0 100 C0.825 99.835 0.825 99.835 5 99 C5 99.33 5 99.66 5 100 C5.91523437 99.98839844 6.83046875 99.97679687 7.7734375 99.96484375 C8.36769531 99.96033203 8.36769531 99.96033203 11.375 99.9375 C12.55835938 99.92589844 13.74171875 99.91429687 14.9609375 99.90234375 C18 100 18 100 20 101 C20 101.99 20 102.98 20 104 C16.72946483 104.11608726 13.4594582 104.18720711 10.1875 104.25 C9.25873047 104.28351563 8.32996094 104.31703125 7.37304688 104.3515625 C6.92670898 104.35800781 6.92670898 104.35800781 4.66796875 104.390625 C3.84578857 104.41157227 3.0236084 104.43251953 2.17651367 104.45410156 C0 104 0 104 -1.79174805 101.97558594 C-2.19047119 101.32364258 -2.58919434 100.67169922 -3 100 C-2.34 100 -1.68 100 -1 100 C-1.33 67.66 -1.66 35.32 -2 2 C-1.34 2 -0.68 2 0 2 C0 1.34 0 0.68 0 0 Z " fill="#637E71" transform="translate(47,119)"/>
<path d="M0 0 C2.55882304 -0.14790885 5.00771428 -0.18555098 7.5625 -0.125 C8.27341797 -0.11597656 8.98433594 -0.10695313 9.71679688 -0.09765625 C11.47800676 -0.07401585 13.23904452 -0.03814344 15 0 C14.67 0.165 14.67 0.165 13 1 C13.33 1.66 13.66 2.32 14 3 C17.0625 3.125 17.0625 3.125 20 3 C21.28571429 11.57142857 21.28571429 11.57142857 20 15 C19.38125 14.814375 18.7625 14.62875 18.125 14.4375 C16 14 16 14 14 15 C7.34063902 15.5254731 0.56918399 16.05031563 -5 12 C-5.90122672 8.91818277 -5.57584419 7.29801674 -5 4 C-3.0625 2.625 -3.0625 2.625 -1 2 C-0.67 1.34 -0.34 0.68 0 0 Z " fill="#F2F3F1" transform="translate(77,100)"/>
<path d="M0 0 C6.0375061 0.29621242 12.07672561 0.3162832 18 -1 C19.3461063 6.34239802 19.3461063 6.34239802 17.75 9.375 C15.06858633 11.86488412 13.62184834 12.99060179 9.8984375 13.046875 C8.73570312 12.94890625 7.57296875 12.8509375 6.375 12.75 C5.79105469 12.70617187 5.79105469 12.70617187 2.8359375 12.484375 C1.90007812 12.32453125 0.96421875 12.1646875 0 12 C-0.33 11.34 -0.66 10.68 -1 10 C-2.66614608 9.95834635 -4.33385392 9.95834635 -6 10 C-7 9 -7 9 -7.3125 5.0625 C-7.2890625 2.8828125 -7.2890625 2.8828125 -7 1 C-4.26847291 -1.35476473 -3.4468927 -1.14896423 0 0 Z " fill="#E7E9E6" transform="translate(191,103)"/>
<path d="M0 0 C0.95519531 -0.00193359 1.91039062 -0.00386719 2.89453125 -0.00585938 C3.9103125 -0.00134766 4.92609375 0.00316406 5.97265625 0.0078125 C6.49666016 0.0087793 6.49666016 0.0087793 9.1484375 0.01367188 C19.79289947 0.07110602 30.40838382 0.54708489 41.03515625 1.1328125 C40.37515625 1.7928125 39.71515625 2.4528125 39.03515625 3.1328125 C39.69515625 3.7928125 40.35515625 4.4528125 41.03515625 5.1328125 C41.23046875 7.734375 41.23046875 7.734375 41.16015625 10.7578125 C41.14210937 11.76070312 41.1240625 12.76359375 41.10546875 13.796875 C41.08226562 14.56773438 41.0590625 15.33859375 41.03515625 16.1328125 C44.00515625 16.1328125 46.97515625 16.1328125 50.03515625 16.1328125 C50.03515625 12.1728125 50.03515625 8.2128125 50.03515625 4.1328125 C52.34515625 4.1328125 54.65515625 4.1328125 57.03515625 4.1328125 C57.78515625 7.3828125 57.78515625 7.3828125 58.03515625 11.1328125 C56.16015625 13.5078125 56.16015625 13.5078125 54.03515625 15.1328125 C53.70515625 15.4628125 53.37515625 15.7928125 53.03515625 16.1328125 C53.03515625 16.4628125 53.03515625 16.7928125 53.03515625 17.1328125 C48.74515625 17.1328125 44.45515625 17.1328125 40.03515625 17.1328125 C39.03515625 8.5078125 39.03515625 8.5078125 39.03515625 5.1328125 C37.05515625 5.1328125 35.07515625 5.1328125 33.03515625 5.1328125 C33.03515625 7.7728125 33.03515625 10.4128125 33.03515625 13.1328125 C32.70515625 13.1328125 32.37515625 13.1328125 32.03515625 13.1328125 C32.03515625 9.8328125 32.03515625 6.5328125 32.03515625 3.1328125 C27.74515625 2.8028125 23.45515625 2.4728125 19.03515625 2.1328125 C18.70515625 3.1228125 18.37515625 4.1128125 18.03515625 5.1328125 C14.6625671 6.57483076 11.36277677 6.04529712 7.78515625 5.6953125 C6.7075 5.59347656 5.62984375 5.49164063 4.51953125 5.38671875 C3.6996875 5.30292969 2.87984375 5.21914062 2.03515625 5.1328125 C1.70515625 6.4528125 1.37515625 7.7728125 1.03515625 9.1328125 C1.03515625 7.8128125 1.03515625 6.4928125 1.03515625 5.1328125 C-1.27484375 5.4628125 -3.58484375 5.7928125 -5.96484375 6.1328125 C-5.96484375 5.1428125 -5.96484375 4.1528125 -5.96484375 3.1328125 C-7.96484375 1.9453125 -7.96484375 1.9453125 -9.96484375 1.1328125 C-6.58544625 0.37396463 -3.46119105 0.00465169 0 0 Z " fill="#868A81" transform="translate(57.96484375,97.8671875)"/>
<path d="M0 0 C0 0.33 0 0.66 0 1 C-1.65 1.33 -3.3 1.66 -5 2 C-5 2.66 -5 3.32 -5 4 C-4.34 3.34 -3.68 2.68 -3 2 C-2.97303635 3.79158489 -2.95362083 5.58328473 -2.9375 7.375 C-2.92589844 8.37273437 -2.91429687 9.37046875 -2.90234375 10.3984375 C-3 13 -3 13 -4 15 C-1.69 15 0.62 15 3 15 C2.835 14.67 2.835 14.67 2 13 C1.77141886 10.9625237 1.58975722 8.91959697 1.4375 6.875 C1.35371094 5.77929688 1.26992187 4.68359375 1.18359375 3.5546875 C1.12300781 2.71164063 1.06242187 1.86859375 1 1 C1.99 1 2.98 1 4 1 C4.02685095 3.47923801 4.04676547 5.9581884 4.0625 8.4375 C4.07087891 9.14455078 4.07925781 9.85160156 4.08789062 10.58007812 C4.09653588 12.38693559 4.05220011 14.19387603 4 16 C3 17 3 17 -0.03515625 17.0625 C-1.37765194 17.04501428 -2.72010346 17.02391554 -4.0625 17 C-11.31139239 16.9200611 -18.4480338 17.29610631 -25.671875 17.87890625 C-28.46085957 17.98038339 -30.39180168 17.88915852 -33 17 C-28.1745493 14.00039551 -25.59388559 12.69909638 -20 14 C-18.00102872 14.33944795 -16.00124361 14.67421616 -14 15 C-14.02320313 14.31292969 -14.04640625 13.62585938 -14.0703125 12.91796875 C-14.08835938 12.01691406 -14.10640625 11.11585937 -14.125 10.1875 C-14.14820313 9.29417969 -14.17140625 8.40085937 -14.1953125 7.48046875 C-14 5 -14 5 -12 2 C-13.815 1.835 -13.815 1.835 -23 1 C-23 0.67 -23 0.34 -23 0 C-15.16992004 -0.79773542 -7.80363479 -1.14500285 0 0 Z " fill="#F2F1F0" transform="translate(234,99)"/>
<path d="M0 0 C2.39959856 3.59939784 2.29950834 6.2182357 2.30297852 10.37719727 C2.31141785 11.12544769 2.31985718 11.87369812 2.32855225 12.6446228 C2.35434829 15.11855702 2.36647382 17.59237194 2.37890625 20.06640625 C2.39507771 21.78369597 2.41225733 23.50097648 2.43040466 25.21824646 C2.47611606 29.74001815 2.51090985 34.26180208 2.54260254 38.78369141 C2.59445755 46.02557756 2.65953238 53.26732829 2.73081779 60.50904655 C2.75369356 63.04284846 2.76993661 65.57663306 2.78553772 68.11048889 C2.79894158 69.65772696 2.81255614 71.20496322 2.82641602 72.75219727 C2.82902939 73.46030045 2.83164276 74.16840363 2.83433533 74.89796448 C2.88636752 79.77273503 2.88636752 79.77273503 4 82 C6.94140625 82.1953125 6.94140625 82.1953125 10.5625 82.125 C11.76003906 82.10695313 12.95757812 82.08890625 14.19140625 82.0703125 C15.11824219 82.04710937 16.04507813 82.02390625 17 82 C17 82.66 17 83.32 17 84 C17.66 83.835 17.66 83.835 21 83 C20.67 83.99 20.34 84.98 20 86 C13.4 86 6.8 86 0 86 C0 85.34 0 84.68 0 84 C-0.66 83.67 -1.32 83.34 -2 83 C-1.835 82.835 -1.835 82.835 -1 82 C-0.87497358 79.44500691 -0.81395823 76.91569358 -0.79467773 74.35913086 C-0.78477814 73.55919205 -0.77487854 72.75925323 -0.76467896 71.93507385 C-0.73297082 69.27836108 -0.70826992 66.6216304 -0.68359375 63.96484375 C-0.66303225 62.12780785 -0.642036 60.29077676 -0.62062073 58.45375061 C-0.56531696 53.60895682 -0.51594445 48.76411975 -0.46777344 43.91925049 C-0.41761889 38.97933075 -0.36190134 34.03947417 -0.30664062 29.09960938 C-0.19895754 19.39979349 -0.09753527 9.69992286 0 0 Z " fill="#A2B6AB" transform="translate(102,136)"/>
<path d="M0 0 C2.31 0 4.62 0 7 0 C5.125 1.0625 5.125 1.0625 3 2 C2.34 1.67 1.68 1.34 1 1 C1.00222061 2.04791718 1.00444122 3.09583435 1.00672913 4.17550659 C1.02697083 14.03469899 1.04197712 23.89388719 1.05181217 33.75309563 C1.05703837 38.82222228 1.06413128 43.8913322 1.07543945 48.96044922 C1.08627763 53.84928681 1.09227882 58.73810827 1.09487724 63.62695694 C1.09672981 65.49533467 1.10034721 67.36371148 1.10573006 69.23208237 C1.11295281 71.84207846 1.11399041 74.45200729 1.11352539 77.06201172 C1.11712067 77.8402832 1.12071594 78.61855469 1.12442017 79.42041016 C1.11405216 84.77189568 1.11405216 84.77189568 0 87 C2.62506802 87.02690844 5.24986173 87.04679404 7.875 87.0625 C8.24818359 87.06668945 8.24818359 87.06668945 10.13671875 87.08789062 C15.7734375 87.11328125 15.7734375 87.11328125 18 86 C18 86.66 18 87.32 18 88 C18.66 88.33 19.32 88.66 20 89 C16.54254978 89.22527296 13.08412975 89.42733544 9.625 89.625 C9.13257813 89.65722656 9.13257813 89.65722656 6.640625 89.8203125 C5.69960937 89.871875 4.75859375 89.9234375 3.7890625 89.9765625 C2.91975098 90.02893066 2.05043945 90.08129883 1.15478516 90.13525391 C-1 90 -1 90 -3 88 C-2.34 88 -1.68 88 -1 88 C-1.16422455 87.33496964 -1.3284491 86.66993927 -1.49765015 85.98475647 C-2.10411933 82.38136573 -2.09553472 78.88285204 -2.03759766 75.24389648 C-2.02959641 74.47905945 -2.02159515 73.71422241 -2.01335144 72.9262085 C-1.9855584 70.40774264 -1.95004663 67.88945489 -1.9140625 65.37109375 C-1.89228115 63.61662696 -1.87083214 61.86215602 -1.84970093 60.10768127 C-1.80426489 56.43509629 -1.75504992 52.76258671 -1.703125 49.09008789 C-1.63684939 44.38360359 -1.57958552 39.67706128 -1.52509499 34.97042751 C-1.48224591 31.34930092 -1.43482397 27.7282454 -1.38599777 24.1071949 C-1.36310964 22.3716716 -1.34159911 20.63612956 -1.32149124 18.90057182 C-1.29267365 16.4758613 -1.25774991 14.05131351 -1.22119141 11.62670898 C-1.2138649 10.91023697 -1.20653839 10.19376495 -1.19898987 9.45558167 C-1.14329514 6.16866906 -1.00392469 3.14559078 0 0 Z " fill="#61786C" transform="translate(215,132)"/>
<path d="M0 0 C0.33 0 0.66 0 1 0 C0.99888969 0.48708687 0.99888969 0.48708687 0.99327087 2.95204163 C0.97297024 12.14744936 0.95799453 21.34285254 0.94818783 30.53827763 C0.94297658 35.26535542 0.93591091 39.99241507 0.92456055 44.71948242 C0.91366913 49.28415034 0.90770992 53.84880085 0.90512276 58.41348076 C0.90327977 60.15212719 0.89968091 61.89077271 0.89426994 63.6294117 C0.88697647 66.07075155 0.88601255 68.51202009 0.88647461 70.95336914 C0.88287933 71.66691055 0.87928406 72.38045197 0.87557983 73.11561584 C0.88451535 77.49892757 1.33023783 81.67276373 2 86 C2 86.99 2 87.98 2 89 C0.4599774 90.5400226 -0.97283987 90.12965783 -3.11328125 90.1328125 C-3.94923828 90.13410156 -4.78519531 90.13539063 -5.64648438 90.13671875 C-6.52626953 90.13285156 -7.40605469 90.12898438 -8.3125 90.125 C-8.7465918 90.12693359 -8.7465918 90.12693359 -10.94335938 90.13671875 C-11.36327148 90.13607422 -11.36327148 90.13607422 -13.48828125 90.1328125 C-14.25696533 90.13168457 -15.02564941 90.13055664 -15.81762695 90.12939453 C-18.05415097 89.99678935 -19.90244728 89.80013598 -22 89 C-22.33 88.01 -22.66 87.02 -23 86 C-22.34 86 -21.68 86 -21 86 C-20.67 85.01 -20.34 84.02 -20 83 C-20 83.66 -20 84.32 -20 85 C-19.195625 84.979375 -18.39125 84.95875 -17.5625 84.9375 C-15 85 -15 85 -14 86 C-12.07421875 86.16796875 -12.07421875 86.16796875 -9.6875 86.1875 C-8.90761719 86.20167969 -8.12773437 86.21585937 -7.32421875 86.23046875 C-4.55046649 85.95542441 -3.2201297 85.72400369 -1 84 C-0.61521939 81.32651565 -0.50452366 79.06024142 -0.56176758 76.38500977 C-0.56278976 75.59949738 -0.56381195 74.81398499 -0.56486511 74.00466919 C-0.57277001 71.39978337 -0.60878841 68.79604643 -0.64453125 66.19140625 C-0.65452948 64.38542104 -0.66261733 62.57942431 -0.66886902 60.77342224 C-0.68984053 56.01171196 -0.73393196 51.25050036 -0.78363037 46.48901367 C-0.85878404 38.87068746 -0.8968893 31.25206224 -0.93912315 23.63349724 C-0.95685204 20.96834677 -0.98298599 18.30338431 -1.01069641 15.63832092 C-1.02391497 14.00700969 -1.03703764 12.37569767 -1.05004883 10.74438477 C-1.05498856 10.37264381 -1.05498856 10.37264381 -1.07998657 8.4914093 C-1.10011115 5.37276654 -0.99473201 2.98419604 0 0 Z " fill="#919D93" transform="translate(179,133)"/>
<path d="M0 0 C0.66 0.33 1.32 0.66 2 1 C2.16181222 3.76503373 2.19105654 6.42781454 2.13525391 9.19165039 C2.12579239 10.05011063 2.11633087 10.90857086 2.10658264 11.79304504 C2.07276953 14.64479257 2.02469203 17.49611729 1.9765625 20.34765625 C1.95040931 22.31919737 1.92514121 24.29075043 1.90072632 26.26231384 C1.83393868 31.46240272 1.75507585 36.66224218 1.67376709 41.86212158 C1.59297992 47.16384272 1.52351723 52.46571059 1.453125 57.76757812 C1.3132184 68.17856137 1.16056532 78.58931633 1 89 C-1.75366822 86.24633178 -1.28028734 84.62728548 -1.3347168 80.76879883 C-1.35781418 79.45595413 -1.38091156 78.14310944 -1.40470886 76.79048157 C-1.4199274 75.3460021 -1.43475362 73.90151846 -1.44921875 72.45703125 C-1.47049098 70.97123739 -1.49245912 69.48545334 -1.51509094 67.99967957 C-1.56058704 64.87328589 -1.59932623 61.74690362 -1.63305664 58.62036133 C-1.67611156 54.65558665 -1.73288999 50.69116687 -1.7946043 46.72664356 C-1.84137866 43.64903852 -1.88190866 40.57137476 -1.92057228 37.49365807 C-1.93935791 36.03513189 -1.95966874 34.57662438 -1.98166466 33.11814308 C-2.3460525 7.97346593 -2.3460525 7.97346593 0 0 Z " fill="#99AFA3" transform="translate(184,126)"/>
<path d="M0 0 C2.75026417 -0.05404449 5.49946203 -0.09369306 8.25 -0.125 C9.02730469 -0.14175781 9.80460937 -0.15851563 10.60546875 -0.17578125 C17.92526465 -0.23834361 17.92526465 -0.23834361 21 2 C22.5303111 4.95131426 21.88409062 6.46363752 21.0625 9.75 C20.8871875 10.28625 20.8871875 10.28625 20 13 C19.67 13 19.34 13 19 13 C19.04125 12.030625 19.0825 11.06125 19.125 10.0625 C19.08375 9.051875 19.0425 8.04125 19 7 C12.21619177 3.60809588 7.18342587 3.60552471 0 6 C0 8.64 0 11.28 0 14 C0.53109375 13.83628906 1.0621875 13.67257813 1.609375 13.50390625 C4.53876764 12.88643623 7.25822936 12.90498075 10.25 12.9375 C11.32765625 12.94652344 12.4053125 12.95554688 13.515625 12.96484375 C14.33546875 12.97644531 15.1553125 12.98804688 16 13 C16 13.99 16 14.98 16 16 C15.31292969 15.98839844 14.62585938 15.97679687 13.91796875 15.96484375 C13.01691406 15.95582031 12.11585937 15.94679687 11.1875 15.9375 C10.29417969 15.92589844 9.40085937 15.91429687 8.48046875 15.90234375 C6 16 6 16 3 17 C1.66666667 17 0.33333333 17 -1 17 C-1.33 12.05 -1.66 7.1 -2 2 C-1.34 2 -0.68 2 0 2 C0 1.34 0 0.68 0 0 Z " fill="#696159" transform="translate(47,119)"/>
<path d="M0 0 C5.61 0 11.22 0 17 0 C16.67 1.98 16.34 3.96 16 6 C15.175 5.67 15.175 5.67 11 4 C10.9278125 4.45375 10.9278125 4.45375 10.5625 6.75 C10.13590527 9.21476956 9.64925779 11.58847107 9 14 C10.98 13.34 12.96 12.68 15 12 C15.33 12.66 15.66 13.32 16 14 C15.67 14.66 15.34 15.32 15 16 C19.29 16 23.58 16 28 16 C28 15.34 28 14.68 28 14 C28.804375 14.04125 29.60875 14.0825 30.4375 14.125 C30.8603125 14.104375 30.8603125 14.104375 33 14 C33.33 13.34 33.66 12.68 34 12 C34 13.32 34 14.64 34 16 C37.3 16 40.6 16 44 16 C44 16.33 44 16.66 44 17 C29.15 17 14.3 17 -1 17 C-1 16.67 -1 16.34 -1 16 C1.64 16 4.28 16 7 16 C6.67 11.05 6.34 6.1 6 1 C4.02 1 2.04 1 0 1 C0 0.67 0 0.34 0 0 Z " fill="#525A4F" transform="translate(157,99)"/>
<path d="M0 0 C4.95 0.33 9.9 0.66 15 1 C14.67 2.32 14.34 3.64 14 5 C13.34 5 12.68 5 12 5 C11.94622633 6.47877602 11.9073114 7.95809941 11.875 9.4375 C11.86339844 9.84935547 11.86339844 9.84935547 11.8046875 11.93359375 C11.86914062 12.61550781 11.93359375 13.29742187 12 14 C12.66 14.33 13.32 14.66 14 15 C10.79984144 16.06671952 9.11455706 15.94845472 5.8125 15.5625 C4.224375 15.376875 2.63625 15.19125 1 15 C1.66 10.71 2.32 6.42 3 2 C2.01 1.67 1.02 1.34 0 1 C0 0.67 0 0.34 0 0 Z " fill="#F6F8F7" transform="translate(208,99)"/>
<path d="M0 0 C0 0.99 0 1.98 0 3 C-0.66 3 -1.32 3 -2 3 C-2.33 3.66 -2.66 4.32 -3 5 C-4.98 4.34 -6.96 3.68 -9 3 C-9 2.67 -9 2.34 -9 2 C-10.04800781 2 -11.09601563 2 -12.17578125 2 C-27.375 2 -27.375 2 -32.1875 1.5 C-33.08855469 1.4071875 -33.98960938 1.314375 -34.91796875 1.21875 C-35.60503906 1.1465625 -36.29210937 1.074375 -37 1 C-36.69163768 3.12560437 -36.37818386 5.25047065 -36.0625 7.375 C-35.88847656 8.55835937 -35.71445313 9.74171875 -35.53515625 10.9609375 C-35 14 -35 14 -34 16 C-36.31 16 -38.62 16 -41 16 C-40.67 11.71 -40.34 7.42 -40 3 C-40.99 2.67 -41.98 2.34 -43 2 C-41.35 1.67 -39.7 1.34 -38 1 C-40.97 1 -43.94 1 -47 1 C-47 0.67 -47 0.34 -47 0 C-41.11028282 -0.16792948 -35.22042742 -0.32845577 -29.33032227 -0.48217773 C-27.3273376 -0.53548911 -25.32440534 -0.59080963 -23.3215332 -0.64819336 C-20.43973082 -0.73040801 -17.55781614 -0.80535382 -14.67578125 -0.87890625 C-13.78288895 -0.90594131 -12.88999664 -0.93297638 -11.970047 -0.96083069 C-7.82642486 -1.05990505 -4.0420917 -1.08250788 0 0 Z " fill="#365A49" transform="translate(155,99)"/>
<path d="M0 0 C3.63 0 7.26 0 11 0 C10.34 1.32 9.68 2.64 9 4 C8.5859375 6.796875 8.5859375 6.796875 8.375 9.75 C8.30023438 10.73484375 8.22546875 11.7196875 8.1484375 12.734375 C8.09945312 13.48203125 8.05046875 14.2296875 8 15 C5.625 15.125 5.625 15.125 3 15 C0.33684806 12.33684806 0.05573507 10.34655932 -0.09765625 6.640625 C-0.06510417 4.42708333 -0.03255208 2.21354167 0 0 Z " fill="#F6F8F6" transform="translate(118,100)"/>
<path d="M0 0 C2.64 0 5.28 0 8 0 C7.34 0.66 6.68 1.32 6 2 C6.66 2.33 7.32 2.66 8 3 C8.265625 5.25 8.265625 5.25 8.25 8 C8.25257813 8.45375 8.25257813 8.45375 8.265625 10.75 C8.17796875 11.4925 8.0903125 12.235 8 13 C7.34 13.33 6.68 13.66 6 14 C6 10.7 6 7.4 6 4 C3.0625 4.375 3.0625 4.375 0 5 C-0.33 5.66 -0.66 6.32 -1 7 C-1 6.34 -1 5.68 -1 5 C-4.63 5 -8.26 5 -12 5 C-12.33 6.32 -12.66 7.64 -13 9 C-13.226875 8.38125 -13.45375 7.7625 -13.6875 7.125 C-15.46133833 4.25307128 -16.7645246 3.91437348 -20 3 C-22.66641031 2.56961466 -25.31013518 2.27354557 -28 2 C-28 1.67 -28 1.34 -28 1 C-19.75 1 -11.5 1 -3 1 C-3 1.33 -3 1.66 -3 2 C-4.485 2.165 -4.485 2.165 -12 3 C-8.04 3 -4.08 3 0 3 C0 2.01 0 1.02 0 0 Z " fill="#4F4C42" transform="translate(203,98)"/>
<path d="M0 0 C1.32 0.33 2.64 0.66 4 1 C4.33 1.66 4.66 2.32 5 3 C7.5625 3.125 7.5625 3.125 10 3 C10 4.32 10 5.64 10 7 C10.66 7 11.32 7 12 7 C11.67 8.98 11.34 10.96 11 13 C8.36 13.33 5.72 13.66 3 14 C2.01 9.38 1.02 4.76 0 0 Z " fill="#EAE2E3" transform="translate(49,100)"/>
<path d="M0 0 C0.66 0 1.32 0 2 0 C2.33 2.64 2.66 5.28 3 8 C4.98 7.67 6.96 7.34 9 7 C8.67 8.65 8.34 10.3 8 12 C3.545 12.165 3.545 12.165 -19 13 C-16.55871351 9.33807027 -15.20583575 8.98960841 -11 8 C-8.5 8.3125 -8.5 8.3125 -6 9 C-4.00102872 9.33944795 -2.00124361 9.67421616 0 10 C0 6.7 0 3.4 0 0 Z " fill="#5D584F" transform="translate(220,104)"/>
<path d="M0 0 C0.6084375 -0.00128906 0.6084375 -0.00128906 3.6875 -0.0078125 C8.74008208 0.19476744 8.74008208 0.19476744 11 1.125 C12.91271285 7.59879735 11.64707267 14.5049488 11 21.125 C10.67 21.125 10.34 21.125 10 21.125 C9.93941406 20.14917969 9.87882812 19.17335937 9.81640625 18.16796875 C9.73261719 16.89566406 9.64882812 15.62335938 9.5625 14.3125 C9.48128906 13.04792969 9.40007812 11.78335938 9.31640625 10.48046875 C9 7.125 9 7.125 8 4.125 C3.05 4.455 -1.9 4.785 -7 5.125 C-7 4.465 -7 3.805 -7 3.125 C-4.855 2.96 -4.855 2.96 6 2.125 C4.1025 2.104375 2.205 2.08375 0.25 2.0625 C-0.81734375 2.05089844 -1.8846875 2.03929688 -2.984375 2.02734375 C-5.53368501 2.10989913 -7.57933591 2.37882442 -10 3.125 C-9.67 4.115 -9.34 5.105 -9 6.125 C-9.27769908 8.4656065 -9.60539977 10.80124308 -10 13.125 C-10.33 13.125 -10.66 13.125 -11 13.125 C-11.19477739 11.50085622 -11.38059458 9.87563577 -11.5625 8.25 C-11.66691406 7.34507813 -11.77132812 6.44015625 -11.87890625 5.5078125 C-12 3.125 -12 3.125 -11 1.125 C-7.44172202 -0.22646135 -3.76031777 -0.00796677 0 0 Z " fill="#55564C" transform="translate(225,118.875)"/>
<path d="M0 0 C0.33 1.32 0.66 2.64 1 4 C1.99 3.67 2.98 3.34 4 3 C4 3.66 4 4.32 4 5 C8.29 5 12.58 5 17 5 C17 5.66 17 6.32 17 7 C18.32 6.67 19.64 6.34 21 6 C20.67 6.99 20.34 7.98 20 9 C13.4 9 6.8 9 0 9 C0 8.34 0 7.68 0 7 C-0.66 6.67 -1.32 6.34 -2 6 C-1.34 4.02 -0.68 2.04 0 0 Z " fill="#AAA39F" transform="translate(102,213)"/>
<path d="M0 0 C0.76376953 -0.00773437 1.52753906 -0.01546875 2.31445312 -0.0234375 C9.50149676 0.00158267 9.50149676 0.00158267 12.5625 2.25 C13.375 4.3125 13.375 4.3125 13.5625 6.25 C13.2325 6.58 12.9025 6.91 12.5625 7.25 C12.32886119 9.09891946 12.14946365 10.95488031 12 12.8125 C11.91621094 13.82441406 11.83242187 14.83632812 11.74609375 15.87890625 C11.71580078 16.27013672 11.71580078 16.27013672 11.5625 18.25 C11.2325 18.25 10.9025 18.25 10.5625 18.25 C10.39490016 16.1250734 10.22844799 14.00005624 10.0625 11.875 C9.9696875 10.69164062 9.876875 9.50828125 9.78125 8.2890625 C9.66054546 6.61213157 9.5625 4.93126944 9.5625 3.25 C5.94382441 2.0437748 2.63743749 2.14183082 -1.125 2.1875 C-1.82689453 2.19201172 -2.52878906 2.19652344 -3.25195312 2.20117188 C-4.98050538 2.21293073 -6.70901365 2.23086546 -8.4375 2.25 C-8.4375 2.91 -8.4375 3.57 -8.4375 4.25 C-7.7775 4.58 -7.1175 4.91 -6.4375 5.25 C-7.4275 5.58 -8.4175 5.91 -9.4375 6.25 C-9.4375 9.88 -9.4375 13.51 -9.4375 17.25 C-9.7675 17.25 -10.0975 17.25 -10.4375 17.25 C-10.68566929 14.79222702 -10.91169826 12.33582849 -11.125 9.875 C-11.19783203 9.17632812 -11.27066406 8.47765625 -11.34570312 7.7578125 C-11.51171875 5.7265625 -11.51171875 5.7265625 -11.4375 2.25 C-7.60155456 -0.30729696 -4.44101901 -0.04474578 0 0 Z " fill="#4B564A" transform="translate(112.4375,118.75)"/>
<path d="M0 0 C0.33 0.66 0.66 1.32 1 2 C2.65 1.67 4.3 1.34 6 1 C6 1.33 6 1.66 6 2 C6.45761719 1.99419922 6.45761719 1.99419922 8.7734375 1.96484375 C9.36769531 1.96033203 9.36769531 1.96033203 12.375 1.9375 C13.55835938 1.92589844 14.74171875 1.91429687 15.9609375 1.90234375 C19 2 19 2 21 3 C21 3.99 21 4.98 21 6 C17.72946483 6.11608726 14.4594582 6.18720711 11.1875 6.25 C10.25873047 6.28351563 9.32996094 6.31703125 8.37304688 6.3515625 C7.92670898 6.35800781 7.92670898 6.35800781 5.66796875 6.390625 C4.84578857 6.41157227 4.0236084 6.43251953 3.17651367 6.45410156 C1 6 1 6 -0.79174805 3.97558594 C-0.99110962 3.64961426 -0.99110962 3.64961426 -2 2 C-1.34 2 -0.68 2 0 2 C0 1.34 0 0.68 0 0 Z " fill="#8A7773" transform="translate(46,217)"/>
<path d="M0 0 C0.33 0 0.66 0 1 0 C1 3.63 1 7.26 1 11 C13.34868822 10.42053081 13.34868822 10.42053081 19 7 C19.66 7 20.32 7 21 7 C21.33 8.98 21.66 10.96 22 13 C17.38 12.835 17.38 12.835 -6 12 C-5.67 11.01 -5.34 10.02 -5 9 C-3.68 9 -2.36 9 -1 9 C-0.67 6.03 -0.34 3.06 0 0 Z " fill="#5D5B52" transform="translate(134,104)"/>
<path d="M0 0 C1.33670886 7.29113924 1.33670886 7.29113924 -0.1875 10.5 C-2 12 -2 12 -6 12 C-6 8.37 -6 4.74 -6 1 C-3 0 -3 0 0 0 Z " fill="#F6F4F4" transform="translate(209,102)"/>
<path d="M0 0 C1.98 0 3.96 0 6 0 C7.28571429 8.57142857 7.28571429 8.57142857 6 12 C3 10.5 3 10.5 0 8 C-0.55411674 5.15336105 -0.29302268 2.93022681 0 0 Z " fill="#F6F3F3" transform="translate(91,103)"/>
<path d="M0 0 C1.60407328 -0.02708567 3.2082785 -0.04643483 4.8125 -0.0625 C5.70582031 -0.07410156 6.59914062 -0.08570313 7.51953125 -0.09765625 C10 0 10 0 13 1 C13 2.65 13 4.3 13 6 C11.39620659 6.05416188 9.79188594 6.09286638 8.1875 6.125 C7.29417969 6.14820313 6.40085938 6.17140625 5.48046875 6.1953125 C3 6 3 6 0 4 C0 2.66666667 0 1.33333333 0 0 Z " fill="#B7BDB6" transform="translate(219,131)"/>
<path d="M0 0 C0.99 0 1.98 0 3 0 C3.02685095 2.47923801 3.04676547 4.9581884 3.0625 7.4375 C3.07087891 8.14455078 3.07925781 8.85160156 3.08789062 9.58007812 C3.09653588 11.38693559 3.05220011 13.19387603 3 15 C2.67 15.33 2.34 15.66 2 16 C-0.69082872 15.82364548 -3.32851446 15.38164079 -6 15 C-6.24823944 13.04399285 -6.47305296 11.08499981 -6.6875 9.125 C-6.81511719 8.03445312 -6.94273437 6.94390625 -7.07421875 5.8203125 C-7.04972656 4.88960938 -7.02523437 3.95890625 -7 3 C-6.01 2.34 -5.02 1.68 -4 1 C-3.97303635 2.79158489 -3.95362083 4.58328473 -3.9375 6.375 C-3.92589844 7.37273437 -3.91429687 8.37046875 -3.90234375 9.3984375 C-4 12 -4 12 -5 14 C-2.69 14 -0.38 14 2 14 C1.67 13.34 1.34 12.68 1 12 C0.77141886 9.9625237 0.58975722 7.91959697 0.4375 5.875 C0.35371094 4.77929688 0.26992187 3.68359375 0.18359375 2.5546875 C0.12300781 1.71164063 0.06242188 0.86859375 0 0 Z " fill="#829C8F" transform="translate(235,100)"/>
<path d="M0 0 C1.5625 1.5 1.5625 1.5 3 4 C2.96823234 6.77437543 2.50364148 9.25286467 2 12 C0.02 11.34 -1.96 10.68 -4 10 C-4.35233161 4.5388601 -4.35233161 4.5388601 -4 2 C-2 0.5 -2 0.5 0 0 Z " fill="#FAFAFA" transform="translate(76,102)"/>
<path d="M0 0 C1.29411765 7.41176471 1.29411765 7.41176471 0 10 C-2.5 10.1875 -2.5 10.1875 -5 10 C-6 9 -6 9 -6.3125 5.0625 C-6.29296875 2.8828125 -6.29296875 2.8828125 -6 1 C-3.61417387 -0.98818844 -2.81784498 -1.40892249 0 0 Z " fill="#FAFAFA" transform="translate(190,103)"/>
<path d="M0 0 C0.51433594 -0.01289062 0.51433594 -0.01289062 3.1171875 -0.078125 C6.4998189 0.29088933 8.36435854 1.31449492 11.125 3.25 C10.795 3.91 10.465 4.57 10.125 5.25 C7.125 5.25 7.125 5.25 5.125 4.25 C3.12551633 4.20455719 1.12463028 4.21154557 -0.875 4.25 C-6.65277778 4.36111111 -6.65277778 4.36111111 -8.875 3.25 C-8.875 2.59 -8.875 1.93 -8.875 1.25 C-5.71490467 0.19663489 -3.3196864 0.04967112 0 0 Z " fill="#B4A2A0" transform="translate(112.875,119.75)"/>
<path d="M0 0 C0.75 3.25 0.75 3.25 1 7 C-0.9375 9.4375 -0.9375 9.4375 -3 11 C-3.99 10.34 -4.98 9.68 -6 9 C-6.40843923 6.28796348 -6.13336867 3.7562858 -6 1 C-3 0 -3 0 0 0 Z " fill="#FAFAFA" transform="translate(115,102)"/>
<path d="M0 0 C2.00240521 2.25270587 2.94368221 3.60577544 3.375 6.625 C3.25125 7.40875 3.1275 8.1925 3 9 C0 11 0 11 -2.1875 10.625 C-2.785625 10.41875 -3.38375 10.2125 -4 10 C-4.35233161 4.5388601 -4.35233161 4.5388601 -4 2 C-2 0.5 -2 0.5 0 0 Z " fill="#FAFAFA" transform="translate(151,102)"/>
<path d="M0 0 C0.33 0 0.66 0 1 0 C1.04898438 0.71027344 1.09796875 1.42054687 1.1484375 2.15234375 C1.22320312 3.07144531 1.29796875 3.99054688 1.375 4.9375 C1.44460937 5.85402344 1.51421875 6.77054687 1.5859375 7.71484375 C1.72257812 8.46894531 1.85921875 9.22304687 2 10 C2.66 10.33 3.32 10.66 4 11 C0.65613602 12.01085428 -2.3748118 12.11543463 -5.859375 12.09765625 C-6.97441406 12.09443359 -8.08945312 12.09121094 -9.23828125 12.08789062 C-10.39714844 12.07951172 -11.55601563 12.07113281 -12.75 12.0625 C-13.92433594 12.05798828 -15.09867188 12.05347656 -16.30859375 12.04882812 C-19.20578072 12.03705094 -22.10286454 12.02060326 -25 12 C-24.67 11.34 -24.34 10.68 -24 10 C-21.27734375 9.5859375 -21.27734375 9.5859375 -17.9375 9.375 C-16.83277344 9.30023438 -15.72804688 9.22546875 -14.58984375 9.1484375 C-13.73519531 9.09945312 -12.88054688 9.05046875 -12 9 C-12 9.66 -12 10.32 -12 11 C-8.37 10.67 -4.74 10.34 -1 10 C-0.67 6.7 -0.34 3.4 0 0 Z " fill="#817872" transform="translate(71,104)"/>
<path d="M0 0 C2 2 2 2 2.1953125 4.3828125 C2.17210937 5.28773437 2.14890625 6.19265625 2.125 7.125 C2.10695312 8.03507812 2.08890625 8.94515625 2.0703125 9.8828125 C2.04710937 10.58148438 2.02390625 11.28015625 2 12 C0.02 11.34 -1.96 10.68 -4 10 C-4.35233161 4.5388601 -4.35233161 4.5388601 -4 2 C-2 0.5 -2 0.5 0 0 Z " fill="#FAFAFA" transform="translate(132,102)"/>
<path d="M0 0 C0.86882813 0.07863281 1.73765625 0.15726562 2.6328125 0.23828125 C4.875 0.6875 4.875 0.6875 6.875 2.6875 C2.88206063 5.34945958 -0.42763837 5.41669332 -5.125 4.6875 C-7.6875 2.6875 -7.6875 2.6875 -9.125 0.6875 C-5.92357356 -0.30270864 -3.32514399 -0.3325144 0 0 Z " fill="#FAFAFA" transform="translate(58.125,122.3125)"/>
<path d="M0 0 C0.825 0.33 0.825 0.33 5 2 C5.5625 5.4375 5.5625 5.4375 5 9 C2.74640305 11.33130719 1.08784275 11.97071908 -2 13 C-1.34 8.71 -0.68 4.42 0 0 Z " fill="#F7F6F6" transform="translate(167,102)"/>
<path d="M0 0 C5.61 0 11.22 0 17 0 C16.67 1.98 16.34 3.96 16 6 C15.175 5.67 15.175 5.67 11 4 C10.34 5.98 9.68 7.96 9 10 C8.67 10 8.34 10 8 10 C8.33 7.36 8.66 4.72 9 2 C8.34 2 7.68 2 7 2 C6.67 3.32 6.34 4.64 6 6 C6 4.35 6 2.7 6 1 C4.02 1 2.04 1 0 1 C0 0.67 0 0.34 0 0 Z " fill="#595249" transform="translate(157,99)"/>
<path d="M0 0 C0.33 0 0.66 0 1 0 C1.80688405 3.94476647 2.00000429 5.99998285 1 10 C-4.94 10 -10.88 10 -17 10 C-17 9.67 -17 9.34 -17 9 C-14.36 8.835 -14.36 8.835 -1 8 C-1.99 7.67 -2.98 7.34 -4 7 C-4 6.34 -4 5.68 -4 5 C-8.29 5 -12.58 5 -17 5 C-17 4.67 -17 4.34 -17 4 C-11.72 4 -6.44 4 -1 4 C-0.67 2.68 -0.34 1.36 0 0 Z " fill="#514C43" transform="translate(123,213)"/>
<path d="M0 0 C1.18851563 0.00902344 2.37703125 0.01804687 3.6015625 0.02734375 C4.51679688 0.03894531 5.43203125 0.05054687 6.375 0.0625 C6.045 1.3825 5.715 2.7025 5.375 4.0625 C3.79176312 4.089693 2.20838938 4.10898306 0.625 4.125 C0.18414062 4.13080078 0.18414062 4.13080078 -2.046875 4.16015625 C-4.4068838 4.07076198 -6.36998524 3.73162821 -8.625 3.0625 C-8.625 2.4025 -8.625 1.7425 -8.625 1.0625 C-5.74084117 -0.37957941 -3.20778472 -0.03144887 0 0 Z " fill="#FAFAFA" transform="translate(226.625,122.9375)"/>
<path d="M0 0 C0.13277344 0.91523437 0.26554687 1.83046875 0.40234375 2.7734375 C0.57894531 3.96195312 0.75554687 5.15046875 0.9375 6.375 C1.11152344 7.55835937 1.28554687 8.74171875 1.46484375 9.9609375 C2 13 2 13 3 15 C0.69 15 -1.62 15 -4 15 C-3.67 10.71 -3.34 6.42 -3 2 C-3.99 1.67 -4.98 1.34 -6 1 C-1.125 0 -1.125 0 0 0 Z " fill="#6C5751" transform="translate(118,100)"/>
<path d="M0 0 C1.65 0 3.3 0 5 0 C5 0.33 5 0.66 5 1 C8.96 1 12.92 1 17 1 C13 3 13 3 9.4375 3.5 C6 4 6 4 3 6 C2.70703125 8.8203125 2.70703125 8.8203125 2.8125 12.125 C2.82603516 12.67285156 2.82603516 12.67285156 2.89453125 15.4453125 C2.92933594 16.28835937 2.96414062 17.13140625 3 18 C2.67 18 2.34 18 2 18 C1.34 12.06 0.68 6.12 0 0 Z " fill="#514B42" transform="translate(157,120)"/>
<path d="M0 0 C0.66 0.66 1.32 1.32 2 2 C-1.25860909 4.17240606 -1.82050803 4.23564158 -5.5 3.8125 C-6.2734375 3.73644531 -7.046875 3.66039063 -7.84375 3.58203125 C-10.34746175 2.9062105 -11.35166485 1.96003956 -13 0 C-4.16544503 -1.34764398 -4.16544503 -1.34764398 0 0 Z " fill="#FAFAFA" transform="translate(175,123)"/>
<path d="M0 0 C0.33 1.32 0.66 2.64 1 4 C2.89611434 3.85786703 4.79188394 3.71113093 6.6875 3.5625 C7.74324219 3.48128906 8.79898438 3.40007812 9.88671875 3.31640625 C12.65086297 3.03548319 15.28945741 2.59843148 18 2 C18 2.99 18 3.98 18 5 C9.75 5 1.5 5 -7 5 C-6.34 4.01 -5.68 3.02 -5 2 C-3.68 2 -2.36 2 -1 2 C-0.67 1.34 -0.34 0.68 0 0 Z " fill="#53554A" transform="translate(78,111)"/>
<path d="M0 0 C0 0.33 0 0.66 0 1 C-0.391875 1.061875 -0.391875 1.061875 -2.375 1.375 C-5 2 -5 2 -7 4 C-9.625 4.625 -9.625 4.625 -12 5 C-12 4.01 -12 3.02 -12 2 C-15.63 1.67 -19.26 1.34 -23 1 C-23 0.67 -23 0.34 -23 0 C-15.16992004 -0.79773542 -7.80363479 -1.14500285 0 0 Z " fill="#5D6D62" transform="translate(234,99)"/>
<path d="M0 0 C0.96808594 -0.01675781 1.93617187 -0.03351563 2.93359375 -0.05078125 C5.89997041 0.3591341 6.75636292 0.99207304 8.5625 3.3125 C2.71909442 4.55577778 -1.70446495 3.88550962 -7.4375 2.3125 C-4.83563892 -0.28936108 -3.61395645 0.01439823 0 0 Z " fill="#FAFAFA" transform="translate(112.4375,122.6875)"/>
<path d="M0 0 C0.33 0.66 0.66 1.32 1 2 C2.66614608 2.04165365 4.33385392 2.04165365 6 2 C6.33 2.33 6.66 2.66 7 3 C9.35313555 3.07271741 11.70833668 3.08370868 14.0625 3.0625 C15.35285156 3.05347656 16.64320313 3.04445312 17.97265625 3.03515625 C18.97167969 3.02355469 19.97070312 3.01195312 21 3 C20.67 3.66 20.34 4.32 20 5 C17.95874023 5.31884766 17.95874023 5.31884766 15.30859375 5.4140625 C14.83647461 5.43339844 14.83647461 5.43339844 12.44726562 5.53125 C11.9506543 5.54671875 11.9506543 5.54671875 9.4375 5.625 C8.44041016 5.66367188 7.44332031 5.70234375 6.41601562 5.7421875 C3.9441993 5.83680248 1.47239761 5.92233306 -1 6 C-1.33 5.01 -1.66 4.02 -2 3 C-1.34 3 -0.68 3 0 3 C0 2.01 0 1.02 0 0 Z " fill="#634D46" transform="translate(158,216)"/>
<path d="M0 0 C0.66 0 1.32 0 2 0 C2.33 2.64 2.66 5.28 3 8 C4.98 7.67 6.96 7.34 9 7 C8.67 8.65 8.34 10.3 8 12 C5.36 11.67 2.72 11.34 0 11 C0 7.37 0 3.74 0 0 Z " fill="#63403B" transform="translate(220,104)"/>
<path d="M0 0 C1.32 0.66 2.64 1.32 4 2 C3.84144531 2.28101562 3.84144531 2.28101562 3.0390625 3.703125 C1.93125475 6.15196317 1.61024601 8.08387855 1.375 10.75 C1.30023438 11.54921875 1.22546875 12.3484375 1.1484375 13.171875 C1.09945312 13.77515625 1.05046875 14.3784375 1 15 C-0.96177393 12.05733911 -1.36742347 10.87567527 -1.75 7.5 C-1.84796875 6.7265625 -1.9459375 5.953125 -2.046875 5.15625 C-2 3 -2 3 0 0 Z " fill="#C5D3CB" transform="translate(155,99)"/>
<path d="M0 0 C0.33 0.99 0.66 1.98 1 3 C3.62506802 3.02690844 6.24986173 3.04679404 8.875 3.0625 C9.62136719 3.07087891 10.36773437 3.07925781 11.13671875 3.08789062 C16.7734375 3.11328125 16.7734375 3.11328125 19 2 C19 2.66 19 3.32 19 4 C19.66 4.33 20.32 4.66 21 5 C17.54254978 5.22527296 14.08412975 5.42733544 10.625 5.625 C10.13257813 5.65722656 10.13257813 5.65722656 7.640625 5.8203125 C6.69960937 5.871875 5.75859375 5.9234375 4.7890625 5.9765625 C3.91975098 6.02893066 3.05043945 6.08129883 2.15478516 6.13525391 C0 6 0 6 -2 4 C-1.34 4 -0.68 4 0 4 C0 2.68 0 1.36 0 0 Z " fill="#644F48" transform="translate(214,216)"/>
<path d="M0 0 C2.64 0 5.28 0 8 0 C7.34 0.66 6.68 1.32 6 2 C6.66 2.33 7.32 2.66 8 3 C8.265625 5.25 8.265625 5.25 8.25 8 C8.25515625 8.9075 8.2603125 9.815 8.265625 10.75 C8.22179687 11.12125 8.22179687 11.12125 8 13 C7.67 13.165 7.67 13.165 6 14 C6 10.7 6 7.4 6 4 C4.35 4 2.7 4 1 4 C0.67 2.68 0.34 1.36 0 0 Z " fill="#62554D" transform="translate(203,98)"/>
<path d="M0 0 C1.07765625 0.00902344 2.1553125 0.01804688 3.265625 0.02734375 C4.08546875 0.03894531 4.9053125 0.05054688 5.75 0.0625 C5.75 1.0525 5.75 2.0425 5.75 3.0625 C5.06292969 3.05089844 4.37585937 3.03929687 3.66796875 3.02734375 C2.76691406 3.01832031 1.86585937 3.00929687 0.9375 3 C0.04417969 2.98839844 -0.84914063 2.97679687 -1.76953125 2.96484375 C-4.25 3.0625 -4.25 3.0625 -7.25 4.0625 C-8.9375 2.625 -8.9375 2.625 -10.25 1.0625 C-6.78777385 -0.00473961 -3.60960734 -0.03923486 0 0 Z " fill="#989990" transform="translate(57.25,131.9375)"/>
<path d="M0 0 C1.05445313 -0.00515625 2.10890625 -0.0103125 3.1953125 -0.015625 C5.875 0.25 5.875 0.25 7.875 2.25 C2.925 2.25 -2.025 2.25 -7.125 2.25 C-7.455 3.24 -7.785 4.23 -8.125 5.25 C-8.785 4.92 -9.445 4.59 -10.125 4.25 C-10.125 3.59 -10.125 2.93 -10.125 2.25 C-6.85014574 0.00348162 -3.89106352 -0.01912071 0 0 Z " fill="#FAFAFA" transform="translate(225.125,119.75)"/>
<path d="M0 0 C2.5625 -0.125 2.5625 -0.125 5 0 C4.34 0.33 4.34 0.33 1 2 C1.66 5.63 2.32 9.26 3 13 C1.68 13 0.36 13 -1 13 C-1.02696365 11.20841511 -1.04637917 9.41671527 -1.0625 7.625 C-1.07410156 6.62726563 -1.08570312 5.62953125 -1.09765625 4.6015625 C-1 2 -1 2 0 0 Z " fill="#AAA9A2" transform="translate(127,102)"/>
<path d="M0 0 C0.33 1.32 0.66 2.64 1 4 C4.3 4 7.6 4 11 4 C11 4.33 11 4.66 11 5 C5.06 5 -0.88 5 -7 5 C-6.34 4.67 -5.68 4.34 -5 4 C-5 3.34 -5 2.68 -5 2 C-3.35 2 -1.7 2 0 2 C0 1.34 0 0.68 0 0 Z " fill="#544940" transform="translate(190,111)"/>
<path d="M0 0 C0.66 0 1.32 0 2 0 C1.67 2.64 1.34 5.28 1 8 C1.66 8 2.32 8 3 8 C2.34 10.31 1.68 12.62 1 15 C-1.97 15 -4.94 15 -8 15 C-8 14.67 -8 14.34 -8 14 C-5.36 14 -2.72 14 0 14 C0 9.38 0 4.76 0 0 Z " fill="#778B7F" transform="translate(164,101)"/>
<path d="M0 0 C1.32 0.33 2.64 0.66 4 1 C4.22151549 2.79008467 4.42682213 4.58218162 4.625 6.375 C4.74101563 7.37273437 4.85703125 8.37046875 4.9765625 9.3984375 C4.98429687 10.25695312 4.99203125 11.11546875 5 12 C4.34 12.66 3.68 13.32 3 14 C2.01 9.38 1.02 4.76 0 0 Z " fill="#B1BEB5" transform="translate(49,100)"/>
<path d="M0 0 C0.33 0 0.66 0 1 0 C1.02696365 1.79158489 1.04637917 3.58328473 1.0625 5.375 C1.07410156 6.37273437 1.08570313 7.37046875 1.09765625 8.3984375 C1 11 1 11 0 13 C1.65 13 3.3 13 5 13 C5 13.33 5 13.66 5 14 C3.02 14 1.04 14 -1 14 C-1.22142255 12.04310341 -1.4267568 10.08438048 -1.625 8.125 C-1.74101562 7.03445312 -1.85703125 5.94390625 -1.9765625 4.8203125 C-1.98429688 3.88960938 -1.99203125 2.95890625 -2 2 C-1.34 1.34 -0.68 0.68 0 0 Z " fill="#9DA89E" transform="translate(230,101)"/>
<path d="M0 0 C-0.33 0.99 -0.66 1.98 -1 3 C-2.97887605 3.05372514 -4.95815888 3.09266537 -6.9375 3.125 C-8.03964844 3.14820312 -9.14179688 3.17140625 -10.27734375 3.1953125 C-11.17582031 3.13085938 -12.07429687 3.06640625 -13 3 C-13.33 2.34 -13.66 1.68 -14 1 C-12.41693353 0.83081732 -10.83353281 0.66476064 -9.25 0.5 C-8.36828125 0.4071875 -7.4865625 0.314375 -6.578125 0.21875 C-4 0 -4 0 0 0 Z " fill="#DBE4DF" transform="translate(204,99)"/>
<path d="M0 0 C0.99 0.33 1.98 0.66 3 1 C3 1.66 3 2.32 3 3 C2.34 3 1.68 3 1 3 C1.33 6.63 1.66 10.26 2 14 C1.34 14 0.68 14 0 14 C-1.49594333 9.32517708 -1.54799337 4.64398011 0 0 Z " fill="#ACB3AC" transform="translate(183,101)"/>
<path d="M0 0 C0.4021875 0.144375 0.4021875 0.144375 2.4375 0.875 C3.25 3.4375 3.25 3.4375 3.4375 5.875 C3.1075 4.885 2.7775 3.895 2.4375 2.875 C0.4575 2.875 -1.5225 2.875 -3.5625 2.875 C-3.5625 5.515 -3.5625 8.155 -3.5625 10.875 C-3.8925 10.875 -4.2225 10.875 -4.5625 10.875 C-4.61625443 9.22951711 -4.65517937 7.58354339 -4.6875 5.9375 C-4.71070312 5.02097656 -4.73390625 4.10445313 -4.7578125 3.16015625 C-4.69335938 2.40605469 -4.62890625 1.65195313 -4.5625 0.875 C-2.5625 -0.125 -2.5625 -0.125 0 0 Z " fill="#6E413F" transform="translate(94.5625,100.125)"/>
<path d="M0 0 C-0.33 0.99 -0.66 1.98 -1 3 C-7.96077433 4.59755476 -7.96077433 4.59755476 -11.5 2.5625 C-11.995 2.046875 -12.49 1.53125 -13 1 C-8.59085217 -0.10228696 -4.51617599 -0.07654536 0 0 Z " fill="#5B7669" transform="translate(61,98)"/>
<path d="M0 0 C2.75 0.25 2.75 0.25 5 1 C5 1.99 5 2.98 5 4 C4.34 4 3.68 4 3 4 C2.67 4.66 2.34 5.32 2 6 C0.02 5.34 -1.96 4.68 -4 4 C-2.3125 1.9375 -2.3125 1.9375 0 0 Z " fill="#747D73" transform="translate(150,98)"/>
<path d="M0 0 C0.33 0 0.66 0 1 0 C1.33 3.96 1.66 7.92 2 12 C-0.64 12 -3.28 12 -6 12 C-5.67 11.01 -5.34 10.02 -5 9 C-3.68 9 -2.36 9 -1 9 C-0.67 6.03 -0.34 3.06 0 0 Z " fill="#6A3A38" transform="translate(134,104)"/>
<path d="M0 0 C0 0.66 0 1.32 0 2 C0.99 2.33 1.98 2.66 3 3 C-2.28 3 -7.56 3 -13 3 C-12.67 2.34 -12.34 1.68 -12 1 C-10.0390625 0.5859375 -10.0390625 0.5859375 -7.625 0.375 C-7.22925781 0.33761719 -7.22925781 0.33761719 -5.2265625 0.1484375 C-3.48753275 0.03250218 -1.74288998 0 0 0 Z " fill="#4C4D43" transform="translate(59,113)"/>
<path d="M0 0 C0.66 0 1.32 0 2 0 C2.66 1.98 3.32 3.96 4 6 C1.69 6 -0.62 6 -3 6 C-2.67 4.68 -2.34 3.36 -2 2 C-1.34 2 -0.68 2 0 2 C0 1.34 0 0.68 0 0 Z " fill="#A4AFA7" transform="translate(117,109)"/>
<path d="M0 0 C0.33 0 0.66 0 1 0 C1.05410687 1.77049689 1.09284119 3.54146849 1.125 5.3125 C1.14820312 6.29863281 1.17140625 7.28476563 1.1953125 8.30078125 C1 11 1 11 -1 14 C-1.33 10.37 -1.66 6.74 -2 3 C-1.34 3 -0.68 3 0 3 C0 2.01 0 1.02 0 0 Z " fill="#9EAAA0" transform="translate(80,101)"/>
<path d="M0 0 C5.28 0 10.56 0 16 0 C16 0.99 16 1.98 16 3 C15.01 3 14.02 3 13 3 C13 2.34 13 1.68 13 1 C8.71 1 4.42 1 0 1 C0 0.67 0 0.34 0 0 Z " fill="#834F4F" transform="translate(106,217)"/>
<path d="M0 0 C1.45922693 0.11409593 2.91740598 0.24165544 4.375 0.375 C4.78105469 0.40980469 4.78105469 0.40980469 6.8359375 0.5859375 C9 1 9 1 11 3 C9.54257537 3.08096803 8.08387193 3.13917774 6.625 3.1875 C5.81289062 3.22230469 5.00078125 3.25710937 4.1640625 3.29296875 C3.44992188 3.19628906 2.73578125 3.09960938 2 3 C1.34 2.01 0.68 1.02 0 0 Z " fill="#6F897C" transform="translate(210,113)"/>
<path d="M0 0 C0.28875 0.639375 0.5775 1.27875 0.875 1.9375 C2 4 2 4 4 5 C1.03 5 -1.94 5 -5 5 C-4.01 4.01 -3.02 3.02 -2 2 C-1.34 2 -0.68 2 0 2 C0 1.34 0 0.68 0 0 Z " fill="#9EB3A8" transform="translate(62,86)"/>
<path d="M0 0 C0.33 0 0.66 0 1 0 C1 1.65 1 3.3 1 5 C-1.64 5 -4.28 5 -7 5 C-6.34 4.01 -5.68 3.02 -5 2 C-3.68 2 -2.36 2 -1 2 C-0.67 1.34 -0.34 0.68 0 0 Z " fill="#643F3B" transform="translate(78,111)"/>
<path d="M0 0 C2 2 2 2 2.1953125 4.1640625 C2.18371094 4.57011719 2.18371094 4.57011719 2.125 6.625 C2.10695312 7.44226563 2.08890625 8.25953125 2.0703125 9.1015625 C2.04710937 9.72804688 2.02390625 10.35453125 2 11 C-0.30694043 7.53958935 -0.62056512 5.09789669 -1 1 C-0.67 0.67 -0.34 0.34 0 0 Z " fill="#9DA79E" transform="translate(154,103)"/>
<path d="M0 0 C0.33 0.66 0.66 1.32 1 2 C3.0625 2.625 3.0625 2.625 5 3 C4 4 4 4 1.93359375 4.09765625 C1.10988281 4.08605469 0.28617188 4.07445313 -0.5625 4.0625 C-1.38878906 4.05347656 -2.21507812 4.04445313 -3.06640625 4.03515625 C-3.70449219 4.02355469 -4.34257812 4.01195313 -5 4 C-4.34 3.34 -3.68 2.68 -3 2 C-2.01 2 -1.02 2 0 2 C0 1.34 0 0.68 0 0 Z " fill="#96ACA0" transform="translate(221,87)"/>
<path d="M0 0 C3 1 3 1 4.25 3.4375 C5 6 5 6 4 8 C3.34 7.67 2.68 7.34 2 7 C1.26924352 4.6859378 0.59861742 2.35171131 0 0 Z " fill="#517263" transform="translate(164,278)"/>
<path d="M0 0 C0.33 0.99 0.66 1.98 1 3 C1.99 3 2.98 3 4 3 C4 3.66 4 4.32 4 5 C3.01 4.835 3.01 4.835 -2 4 C-2 3.01 -2 2.02 -2 1 C-1.34 0.67 -0.68 0.34 0 0 Z " fill="#A5B9AF" transform="translate(28,251)"/>
<path d="M0 0 C0.33 0.66 0.66 1.32 1 2 C2.65 1.67 4.3 1.34 6 1 C5.67 1.66 5.34 2.32 5 3 C4.01 3 3.02 3 2 3 C2 3.66 2 4.32 2 5 C2.66 5.33 3.32 5.66 4 6 C3.01 6 2.02 6 1 6 C-0.6875 4 -0.6875 4 -2 2 C-1.34 2 -0.68 2 0 2 C0 1.34 0 0.68 0 0 Z " fill="#4F4C42" transform="translate(46,217)"/>
<path d="M0 0 C0.33 1.32 0.66 2.64 1 4 C-2.47823115 5.15941038 -4.45895578 4.70820884 -8 4 C-8 3.67 -8 3.34 -8 3 C-7.525625 2.938125 -7.525625 2.938125 -5.125 2.625 C-2 2 -2 2 0 0 Z " fill="#554840" transform="translate(228,111)"/>
</svg>
