<?xml version="1.0" encoding="UTF-8"?>
<!-- Generator: visioncortex VTracer 0.6.12 -->
<svg xmlns:xlink="http://www.w3.org/1999/xlink" xmlns:sodipodi="http://sodipodi.sourceforge.net/DTD/sodipodi-0.0.dtd" xmlns:inkscape="http://www.inkscape.org/namespaces/inkscape" version="1.1" xmlns="http://www.w3.org/2000/svg" width="244" height="344">
<path d="M0,0 L244,0 L244,344 L0,344 Z M117,20 L112,23 L105,30 L99,28 L93,27 L90,27 L84,28 L83,30 L79,32 L76,41 L72,45 L64,45 L59,46 L57,45 L52,50 L50,56 L48,56 L48,65 L47,68 L38,68 L40,69 L40,71 L35,73 L31,80 L29,80 L29,90 L32,97 L30,97 L29,100 L26,101 L26,103 L22,104 L20,110 L20,307 L21,307 L23,287 L23,257 L24,221 L24,147 L23,143 L21,143 L24,132 L27,128 L35,128 L37,133 L38,129 L37,125 L35,125 L34,121 L31,123 L30,119 L25,118 L25,107 L27,105 L30,109 L34,105 L37,106 L37,104 L35,104 L38,95 L44,93 L42,92 L48,82 L49,80 L51,81 L51,72 L52,68 L63,66 L65,64 L66,63 L71,59 L73,51 L75,47 L91,47 L98,44 L106,36 L116,38 L125,38 L129,39 L137,36 L141,35 L143,41 L148,46 L157,49 L170,48 L172,57 L176,58 L184,64 L182,66 L193,69 L193,79 L194,84 L196,82 L197,86 L196,89 L200,93 L208,95 L208,103 L211,106 L215,105 L216,103 L219,103 L211,95 L213,89 L215,89 L215,80 L212,74 L207,69 L198,69 L198,67 L196,67 L196,58 L194,58 L191,49 L187,45 L178,43 L171,44 L169,42 L167,33 L157,27 L144,28 L139,30 L135,28 L131,23 L128,23 L129,21 L127,20 Z M99,79 L98,87 L100,95 L102,93 L104,94 L103,100 L101,101 L101,104 L105,105 L108,103 L105,100 L111,102 L118,99 L121,103 L124,100 L127,99 L133,103 L132,95 L130,97 L129,94 L132,92 L130,92 L128,86 L125,82 L125,86 L123,86 L122,84 L117,83 L114,86 L118,87 L118,89 L114,89 L113,91 L115,91 L115,93 L110,94 L108,89 L107,83 L105,86 L100,85 L100,79 Z M156,92 L157,97 L159,101 L159,110 L155,120 L148,129 L147,131 L152,129 L158,121 L161,111 L161,97 L160,93 Z M216,105 L214,109 L209,106 L207,110 L207,121 L206,121 L206,142 L208,148 L206,148 L206,204 L207,206 L206,208 L205,261 L204,267 L201,268 L200,270 L195,272 L195,274 L190,276 L169,287 L149,292 L142,293 L139,296 L135,299 L132,308 L130,310 L126,305 L124,301 L124,294 L118,295 L120,296 L120,305 L58,305 L56,306 L57,309 L121,310 L129,312 L132,313 L135,310 L151,310 L151,308 L163,308 L163,309 L209,310 L211,311 L210,308 L209,142 L210,131 L213,128 L221,129 L223,127 L223,118 L220,120 L219,108 L218,105 Z M43,118 L42,120 L46,125 L48,125 L50,131 L55,138 L56,144 L54,148 L52,150 L49,148 L48,155 L46,155 L46,157 L35,158 L35,167 L37,167 L37,169 L46,172 L48,175 L53,173 L61,163 L63,162 L64,164 L67,161 L69,160 L69,158 L71,156 L72,153 L74,152 L72,147 L70,145 L67,145 L67,143 L64,142 L63,140 L59,138 L55,132 L49,124 L45,120 Z M98,127 L99,143 L100,147 L104,151 L108,154 L110,150 L113,150 L113,148 L117,148 L116,142 L115,145 L111,145 L108,146 L109,149 L105,147 L105,139 L103,134 L105,133 L103,131 L101,131 Z M180,132 L178,134 L176,135 L175,138 L172,141 L172,143 L174,143 L175,146 L176,145 L181,150 L185,143 L188,141 L188,139 L185,139 L185,136 L183,136 L182,132 Z M108,164 L104,169 L103,173 L101,174 L103,181 L105,185 L103,190 L100,191 L98,198 L94,200 L98,196 L94,195 L89,196 L75,189 L74,191 L86,198 L89,201 L87,205 L87,210 L82,211 L82,213 L91,212 L102,208 L107,209 L109,210 L109,215 L113,213 L113,211 L115,211 L114,217 L117,217 L118,221 L119,217 L121,216 L122,227 L123,230 L127,232 L130,236 L131,241 L134,239 L135,233 L139,236 L139,244 L135,251 L132,254 L133,256 L138,253 L146,253 L144,252 L143,249 L149,247 L147,243 L140,234 L137,229 L130,231 L128,226 L126,219 L123,213 L122,206 L118,199 L117,192 L114,184 L113,173 L112,166 L110,166 Z M149,230 L148,233 L151,233 L151,235 L161,241 L164,241 L164,231 L155,231 Z M130,257 L126,262 L124,263 L124,269 L122,269 L122,267 L120,267 L122,273 L127,278 L132,280 L131,274 L127,275 L127,268 L131,259 Z M51,151 Z M50,152 Z " fill="#F7F6F5" transform="translate(0,0)"/>
<path d="M0,0 L2,1 L0,2 Z M-1,2 L3,2 L6,8 L6,17 L3,22 L-6,25 L-22,29 L-30,30 L-26,32 L-4,26 L0,26 L0,24 L4,26 L6,29 L5,37 L-2,38 L-48,38 L-67,37 L-66,30 L-58,26 L-42,24 L-28,19 L-14,12 L-8,8 L-6,8 L-6,4 Z " fill="#EEEBE8" transform="translate(201,268)"/>
<path d="M0,0 L4,5 L9,10 L15,18 L17,21 L20,22 L21,24 L24,25 L24,27 L28,28 L31,32 L31,34 L28,37 L28,39 L25,39 L26,33 L20,32 L11,40 L5,50 L8,54 L5,54 L0,50 L2,45 L4,41 L6,41 L8,37 L16,30 L16,28 L14,27 L14,29 L11,28 L13,26 L12,20 L5,9 L5,7 L1,5 L-1,1 Z " fill="#B5A9A2" transform="translate(43,118)"/>
<path d="M0,0 L2,3 L-1,9 L-1,13 L4,11 L6,16 L12,7 L13,4 L11,3 L13,1 L15,6 L10,15 L8,18 L10,19 L4,21 L1,30 L3,30 L2,32 L-1,31 L-5,35 L-7,31 L-9,33 L-10,44 L-11,44 L-12,36 L-13,32 L-11,29 L-8,29 L-8,27 L-5,26 L-4,23 L-2,23 L-5,16 L-5,6 L-3,6 Z " fill="#B9AAA1" transform="translate(34,74)"/>
<path d="M0,0 L4,1 L4,5 L5,3 L7,3 L7,10 L11,12 L13,10 L15,11 L16,18 L19,17 L16,27 L15,23 L12,23 L13,17 L11,17 L11,19 L7,21 L7,16 L3,14 L-2,15 L-15,19 L-20,19 L-19,17 L-15,16 L-5,12 L-4,11 L-10,13 L-5,8 L-1,6 Z " fill="#D3CBC6" transform="translate(102,194)"/>
<path d="M0,0 L4,1 L1,7 L4,9 L4,12 L6,13 L6,15 L1,16 L-7,14 L-16,23 L-18,23 L-17,17 L-20,14 L-19,13 L-18,6 L-12,7 L-8,8 Z " fill="#D1C7C2" transform="translate(113,22)"/>
<path d="M0,0 L4,5 L10,7 L15,5 L20,10 L21,12 L19,13 L18,17 L29,21 L28,17 L30,17 L32,25 L26,26 L17,23 L12,18 L10,12 L2,12 L0,13 L0,7 L0,4 L-1,2 Z " fill="#C8BEB7" transform="translate(131,23)"/>
<path d="M0,0 L6,1 L7,4 L6,11 L2,13 L0,15 L0,13 L-5,18 L-11,23 L-16,20 L-12,12 L-4,3 Z " fill="#E7E4E3" transform="translate(63,149)"/>
<path d="M0,0 L2,1 L6,19 L10,34 L9,37 L7,39 L2,36 L2,23 L-3,25 L-6,25 L-6,23 L-3,22 L-1,16 L-4,11 L-5,5 L-3,5 L-2,3 L0,3 Z " fill="#E2DEDC" transform="translate(106,168)"/>
<path d="M0,0 L3,1 L9,0 L8,3 L1,4 L-3,9 L-4,13 L-1,13 L1,19 L0,20 L3,22 L-5,23 L-6,31 L-6,36 L-10,32 L-10,30 L-17,31 L-17,28 L-19,28 L-20,30 L-22,28 L-17,26 L-17,24 L-19,23 L-10,23 L-9,15 L-8,11 L-6,10 L-5,5 Z " fill="#BCB0A9" transform="translate(57,45)"/>
<path d="M0,0 L2,0 L4,6 L8,7 L15,6 L21,8 L22,10 L25,12 L26,17 L17,11 L16,14 L12,15 L10,20 L6,20 L4,11 L-6,10 L-4,9 L-5,2 Z " fill="#CDC4BF" transform="translate(166,37)"/>
<path d="M0,0 L2,0 L2,3 L6,3 L9,8 L9,12 L4,16 L3,17 L1,19 L-6,19 L-5,15 L-8,11 L-11,11 L-6,3 L-4,1 Z " fill="#D8D4D1" transform="translate(62,47)"/>
<path d="M0,0 L3,4 L5,10 L7,11 L4,13 L5,15 L7,13 L8,21 L1,17 L-3,19 L-5,21 L-8,15 L-4,13 L-4,11 L-7,11 L-9,13 L-12,11 L-10,11 L-10,9 L-12,8 L-8,7 L-7,7 L-7,5 L-11,3 L-8,1 L-2,2 L-2,4 L0,3 Z " fill="#907C71" transform="translate(125,82)"/>
<path d="M0,0 L5,5 L7,9 L6,16 L3,16 L3,19 L0,22 L-6,20 L-8,17 L-7,14 L-5,13 L-7,8 L-5,5 L0,5 Z " fill="#DCD7D4" transform="translate(204,72)"/>
<path d="M0,0 L3,4 L4,8 L4,13 L6,13 L6,16 L11,16 L11,22 L6,23 L3,24 L3,30 L2,30 L1,25 L1,15 L-10,12 L-8,10 L-11,7 L-5,9 L-6,4 L-2,5 Z " fill="#C8BEB8" transform="translate(192,54)"/>
<path d="M0,0 L1,0 L1,100 L0,100 L-1,58 L-3,58 L-2,45 L-1,3 Z " fill="#AC998E" transform="translate(208,207)"/>
<path d="M0,0 L1,0 L2,10 L3,10 L3,58 L2,61 L2,81 L1,81 L0,67 L0,27 L2,27 L0,21 Z " fill="#AF9C90" transform="translate(206,121)"/>
<path d="M0,0 L2,4 L3,8 L7,2 L10,4 L10,6 L14,5 L16,4 L16,13 L12,15 L6,14 L3,17 L1,17 L1,26 L0,26 Z " fill="#CCC4BF" transform="translate(207,114)"/>
<path d="M0,0 L1,0 L1,5 L3,5 L4,11 L-63,10 L-63,8 L-6,7 L0,6 Z " fill="#B7A79D" transform="translate(120,299)"/>
<path d="M0,0 L2,3 L3,45 L5,49 L2,47 L-27,46 L-27,45 L-3,44 L0,43 L0,35 L-3,31 L-8,31 L-4,28 L-1,25 L0,23 L0,14 L-3,9 L-5,8 L-1,3 Z " fill="#FAFAFA" transform="translate(206,262)"/>
<path d="M0,0 L2,4 L2,7 L4,10 L0,14 L-5,15 L-10,12 L-10,10 L-12,10 L-12,4 L-4,1 Z " fill="#EDEBEA" transform="translate(93,30)"/>
<path d="M0,0 L7,0 L10,1 L11,7 L9,12 L0,12 L-3,10 L-3,7 L-6,4 L-4,4 L-4,1 Z " fill="#F1F0F0" transform="translate(119,24)"/>
<path d="M0,0 L1,0 L3,18 L4,22 L4,34 L3,43 L2,43 L1,108 L0,108 Z " fill="#836A5B" transform="translate(20,199)"/>
<path d="M0,0 L2,0 L2,3 L8,2 L9,8 L2,19 L1,19 L0,13 L-5,14 L-6,10 L-3,3 L-3,1 Z " fill="#F3F3F3" transform="translate(38,73)"/>
<path d="M0,0 L1,0 L1,11 L8,12 L9,16 L13,14 L13,18 L15,18 L16,26 L13,23 L13,21 L5,21 L2,25 L-1,24 L-1,3 Z " fill="#D9CEC7" transform="translate(22,107)"/>
<path d="M0,0 L6,2 L11,7 L10,13 L5,11 L6,16 L-1,14 L-5,11 L-3,5 L1,4 Z " fill="#F0EFEE" transform="translate(181,47)"/>
<path d="M0,0 L11,2 L14,5 L15,8 L10,10 L11,14 L4,13 L-1,10 L1,5 L1,3 Z " fill="#FAFAFA" transform="translate(149,30)"/>
<path d="M0,0 L2,0 L4,11 L3,15 L1,15 L-1,12 L-5,19 L-7,15 L-9,9 L-8,3 L-6,1 L-2,4 Z " fill="#F8F8F8" transform="translate(216,105)"/>
<path d="M0,0 L3,4 L6,4 L7,7 L5,7 L7,14 L7,20 L11,22 L10,18 L14,19 L17,18 L18,15 L19,21 L15,21 L14,23 L12,23 L10,27 L6,24 L2,20 L1,16 Z " fill="#897367" transform="translate(98,127)"/>
<path d="M0,0 L1,3 L2,12 L10,12 L16,10 L16,12 L12,14 L-4,14 L-8,22 L-11,19 L-11,17 L-15,17 L-13,12 L-7,12 L-2,6 Z M17,8 Z M16,9 Z " fill="#FAFAFA" transform="translate(79,33)"/>
<path d="M0,0 L4,2 L5,9 L6,20 L9,29 L10,37 L6,34 L2,20 L-1,5 L-3,7 L-4,4 Z " fill="#67554E" transform="translate(108,164)"/>
<path d="M0,0 L1,0 L1,6 L-2,12 L6,20 L3,20 L0,23 L-4,21 L-5,20 L-5,12 L-9,11 L-8,8 L-6,8 L-6,5 L-2,6 Z " fill="#FAFAFA" transform="translate(213,83)"/>
<path d="M0,0 L5,0 L3,10 L10,15 L14,13 L13,16 L8,18 L4,14 L-3,12 L-3,10 L-5,10 L-5,1 Z " fill="#DFD7D3" transform="translate(40,157)"/>
<path d="M0,0 L9,0 L15,7 L17,11 L17,20 L16,20 L15,15 L13,20 L11,19 L12,12 L7,4 L6,8 L1,9 L0,12 L2,17 L0,18 L-3,9 L3,6 L5,7 L4,3 L5,1 L0,1 Z " fill="#907F77" transform="translate(198,69)"/>
<path d="M0,0 L6,4 L8,11 L9,15 L12,21 L13,28 L11,30 L7,24 L5,14 L3,13 L0,3 Z " fill="#7E675B" transform="translate(115,199)"/>
<path d="M0,0 L3,1 L9,8 L9,10 L3,12 L4,15 L6,16 L-2,16 L-8,19 L-6,15 L-2,10 Z " fill="#FAFAFA" transform="translate(140,237)"/>
<path d="M0,0 L50,0 L56,1 L56,2 L-2,3 L-2,1 Z " fill="#806759" transform="translate(58,305)"/>
<path d="M0,0 Z M-2,1 L0,1 L0,3 L-15,12 L-32,19 L-49,22 L-53,21 L-53,20 L-33,16 L-22,12 L-3,2 Z " fill="#FAFAFA" transform="translate(195,273)"/>
<path d="M0,0 L1,0 L2,5 L2,21 L3,26 L1,33 L3,33 L4,37 L4,48 L2,48 L1,52 L0,45 Z " fill="#A99284" transform="translate(20,110)"/>
<path d="M0,0 L10,0 L12,2 L11,3 L16,8 L15,15 L17,14 L20,16 L12,19 L2,17 L2,16 L11,15 L13,11 L11,10 L13,10 L12,5 L-2,5 L-1,3 L-3,1 Z " fill="#7F6C62" transform="translate(117,20)"/>
<path d="M0,0 L1,0 L1,7 L3,7 L2,55 L1,55 L0,44 Z " fill="#BDADA3" transform="translate(20,155)"/>
<path d="M0,0 L3,1 L4,4 L-1,5 L-1,7 L-7,10 L-13,8 L-10,12 L-15,13 L-17,11 L-17,8 L-15,8 L-13,4 L-2,2 Z " fill="#D5CBC4" transform="translate(118,92)"/>
<path d="M0,0 L1,0 L2,24 L2,69 L1,77 L0,77 Z " fill="#FAFAFA" transform="translate(21,218)"/>
<path d="M0,0 L34,0 L40,1 L39,3 L25,4 L25,3 L13,3 L12,5 L-2,4 L2,2 Z " fill="#9B8171" transform="translate(138,305)"/>
<path d="M0,0 L2,0 L2,6 L-1,9 L0,4 L-4,3 L-3,6 L-8,11 L-12,15 L-5,11 L-3,12 L-11,17 L-15,19 L-18,19 L-19,14 L-17,16 L-14,11 L-8,7 L-6,2 Z " fill="#64524B" transform="translate(106,191)"/>
<path d="M0,0 L11,1 L15,1 L15,11 L10,10 L2,5 L2,3 L-1,2 Z " fill="#BFB1A8" transform="translate(149,230)"/>
<path d="M0,0 L1,0 L1,28 L0,31 L-1,73 L-2,73 L-2,29 L-1,25 L-2,25 L-2,9 L-1,9 L-1,1 Z " fill="#806859" transform="translate(208,179)"/>
<path d="M0,0 L6,1 L11,0 L9,1 L9,7 L7,4 L-4,7 L-5,13 L-3,13 L0,16 L3,19 L-5,18 L-7,14 L-7,5 L-3,3 Z " fill="#7B665C" transform="translate(86,27)"/>
<path d="M0,0 L4,0 L4,7 L9,15 L11,16 L15,10 L21,13 L21,14 L15,16 L11,19 L3,15 L3,10 L1,10 L0,2 L-2,1 Z " fill="#FAFAFA" transform="translate(120,294)"/>
<path d="M0,0 L1,0 L1,6 L6,7 L8,4 L10,12 L11,15 L14,16 L5,18 L5,15 L3,14 L1,16 L-1,7 Z " fill="#9B8578" transform="translate(99,79)"/>
<path d="M0,0 L25,0 L24,2 L29,3 L29,4 L-8,4 L-6,2 L-1,1 Z " fill="#886E5E" transform="translate(179,305)"/>
<path d="M0,0 L6,1 L2,3 L-21,9 L-32,7 L-32,6 L-11,3 Z " fill="#B79F90" transform="translate(195,292)"/>
<path d="M0,0 L4,5 L6,4 L9,8 L15,6 L19,12 L18,14 L13,10 L11,17 L9,18 L7,12 L4,8 L1,7 Z " fill="#FAFAFA" transform="translate(122,223)"/>
<path d="M0,0 L3,1 L4,3 L-7,12 L-10,15 L-14,22 L-15,19 L-11,10 L-9,9 L-8,3 L-4,5 L-3,2 L0,2 Z M-6,6 Z M-7,7 Z " fill="#928A89" transform="translate(57,145)"/>
<path d="M0,0 L1,2 L-3,11 L-3,18 L1,17 L2,23 L-3,21 L-8,16 L-10,10 L-8,10 L-8,12 L-6,12 L-6,6 L-1,1 Z " fill="#FAFAFA" transform="translate(130,257)"/>
<path d="M0,0 L14,7 L21,6 L23,8 L18,12 L15,19 L13,18 L12,14 L14,11 L1,3 L-1,1 Z " fill="#B4A297" transform="translate(75,189)"/>
<path d="M0,0 L4,1 L5,5 L5,19 L1,31 L-4,37 L-9,39 L-3,31 L2,22 L3,18 L3,9 L0,4 Z " fill="#FAFAFA" transform="translate(156,92)"/>
<path d="M0,0 L6,2 L12,6 L11,11 L8,11 L7,6 L-5,4 L-6,6 L-9,2 Z " fill="#98887F" transform="translate(155,27)"/>
<path d="M0,0 L3,1 L3,4 L5,4 L5,7 L8,7 L6,11 L5,8 L1,8 L1,6 L-2,7 L-5,14 L-6,11 L-8,11 L-7,7 L-5,6 L-3,3 Z " fill="#D6CDC7" transform="translate(180,132)"/>
<path d="M0,0 L2,1 L2,39 L1,59 L0,59 Z " fill="#927665" transform="translate(22,158)"/>
<path d="M0,0 L3,1 L3,3 L7,3 L4,12 L1,12 L-2,8 L-1,2 Z " fill="#B4B0B0" transform="translate(178,137)"/>
</svg>
