<?xml version="1.0" encoding="UTF-8"?>
<!-- Generator: visioncortex VTracer 0.6.12 -->
<svg xmlns:xlink="http://www.w3.org/1999/xlink" xmlns:sodipodi="http://sodipodi.sourceforge.net/DTD/sodipodi-0.0.dtd" xmlns:inkscape="http://www.inkscape.org/namespaces/inkscape" version="1.1" xmlns="http://www.w3.org/2000/svg" width="187" height="344">
<path d="M0,0 L187,0 L187,344 L0,344 Z M65,20 L61,22 L59,32 L53,37 L52,41 L54,41 L54,43 L47,44 L47,49 L47,53 L45,58 L42,59 L43,62 L44,63 L42,64 L46,67 L47,83 L46,85 L36,86 L31,88 L32,103 L35,114 L36,122 L38,122 L38,124 L44,126 L45,136 L47,195 L46,203 L45,225 L45,249 L44,255 L44,257 L40,257 L39,261 L43,262 L45,260 L48,248 L48,222 L49,207 L50,160 L51,155 L49,145 L51,145 L51,166 L50,209 L49,235 L50,246 L52,246 L53,249 L57,248 L58,245 L62,246 L67,245 L73,246 L94,245 L108,245 L113,247 L122,246 L127,247 L131,239 L127,221 L127,219 L132,239 L137,245 L137,242 L134,235 L124,200 L118,160 L116,139 L113,128 L112,126 L117,125 L121,123 L121,97 L118,88 L116,86 L103,87 L100,79 L99,68 L101,65 L101,57 L94,45 L83,36 L81,36 L80,34 L78,35 L78,24 L76,22 L74,20 Z M142,250 L144,256 L148,263 L149,269 L153,279 L155,290 L159,289 L164,307 L166,308 L163,294 L158,278 L147,256 L143,250 Z M79,255 L82,260 L87,263 L89,264 L85,266 L82,265 L83,270 L87,273 L91,271 L93,265 L87,256 L85,255 Z M114,260 L113,264 L110,263 L107,264 L105,269 L102,271 L98,272 L97,270 L97,272 L95,272 L96,279 L99,281 L100,282 L103,285 L104,288 L97,288 L97,291 L105,295 L111,296 L112,292 L114,294 L113,296 L115,298 L125,299 L125,297 L131,300 L134,299 L132,298 L131,295 L136,296 L137,294 L130,294 L131,288 L126,289 L119,288 L113,289 L114,287 L109,288 L109,293 L104,292 L107,289 L106,286 L112,284 L116,277 L114,277 L114,275 L112,274 L116,268 L115,260 Z M48,280 L49,284 L43,285 L40,286 L45,291 L46,292 L51,292 L52,283 L55,282 L55,280 Z M36,299 L33,303 L34,308 L52,307 L58,309 L59,312 L68,311 L69,309 L72,307 L59,304 L49,300 L46,299 L42,300 L42,302 Z M113,302 L108,304 L98,305 L100,307 L110,307 L111,309 L114,309 L118,313 L124,316 L129,315 L125,314 L125,312 L117,311 L117,307 L119,307 L119,305 L115,302 Z M24,304 L20,317 L21,320 L30,321 L37,320 L37,322 L40,323 L76,323 L90,322 L119,322 L138,324 L161,325 L168,323 L167,319 L167,321 L161,319 L158,320 L152,321 L152,319 L157,319 L157,318 L151,318 L151,322 L148,318 L143,317 L139,318 L138,315 L136,316 L137,317 L135,318 L134,315 L134,319 L123,319 L119,317 L113,317 L112,318 L87,318 L87,319 L71,319 L72,316 L24,316 L25,304 Z " fill="#F5F6F6" transform="translate(0,0)"/>
<path d="M0,0 L19,0 L36,3 L43,5 L45,13 L40,11 L38,11 L43,15 L45,19 L36,17 L37,20 L43,22 L40,25 L42,27 L47,25 L47,23 L50,24 L53,36 L52,41 L50,43 L51,45 L49,46 L35,46 L20,45 L17,46 L-12,46 L-19,47 L-19,50 L-23,51 L-24,48 L-26,48 L-27,30 L-26,11 L-24,11 L-23,2 Z M-2,3 L1,5 L20,8 L30,12 L32,12 L32,6 L30,9 L23,6 L9,3 Z " fill="#EDEEEE" transform="translate(76,198)"/>
<path d="M0,0 L7,3 L22,4 L36,4 L42,6 L45,5 L41,3 L41,0 L49,0 L52,3 L55,3 L58,28 L61,48 L61,52 L52,51 L35,48 L9,50 L-2,50 L-3,47 L-3,18 L-1,10 L-1,2 Z " fill="#F9F9F9" transform="translate(56,149)"/>
<path d="M0,0 L36,0 L51,2 L53,3 L53,8 L52,4 L48,3 L52,10 L53,18 L54,25 L51,28 L46,26 L36,27 L38,28 L38,30 L12,30 L1,28 L1,26 L-1,26 L-2,39 L-3,39 L-4,26 L-6,21 L-9,21 L-9,7 L-7,7 L-6,4 L-2,3 L-1,1 Z " fill="#EEEEED" transform="translate(56,122)"/>
<path d="M0,0 L29,0 L36,1 L38,10 L40,22 L39,23 L21,23 L5,22 L-2,19 L-2,1 Z " fill="#F9F9F9" transform="translate(56,65)"/>
<path d="M0,0 L1,3 L-5,4 L-3,6 L2,5 L7,7 L13,3 L15,8 L22,8 L26,12 L22,11 L22,13 L17,11 L14,10 L14,13 L12,13 L11,15 L1,13 L1,15 L5,16 L4,19 L2,19 L2,22 L4,23 L4,25 L20,25 L33,30 L34,34 L32,41 L31,41 L31,34 L27,33 L-12,32 L-12,50 L-14,51 L-16,32 L-20,28 L-16,27 L-17,24 L-14,18 L-15,15 L-8,10 L-9,6 L-5,2 Z " fill="#F3F4F5" transform="translate(64,32)"/>
<path d="M0,0 L7,1 L11,4 L14,14 L14,19 L17,18 L16,23 L7,26 L3,25 L-1,21 L-3,3 L-3,1 Z " fill="#F5F5F4" transform="translate(70,92)"/>
<path d="M0,0 L1,0 L2,12 L-5,15 L-8,15 L-8,13 L-33,12 L-68,12 L-68,14 L-65,13 L-66,16 L-69,17 L-74,13 L-80,11 L-81,9 L-81,1 L-79,5 L-75,7 L-74,9 L-70,7 L-68,3 L-66,8 L-52,8 L-50,4 L-47,7 L-47,9 L-33,9 L-31,3 L-29,7 L-24,9 L-14,10 L-13,3 L-11,7 L-11,9 L0,11 Z " fill="#F7F7F7" transform="translate(118,110)"/>
<path d="M0,0 L2,0 L4,4 L4,2 L8,4 L10,9 L13,12 L14,18 L1,14 L-5,13 L-13,13 L-18,12 L-18,10 L-21,9 L-20,6 L-18,5 L-17,2 L-7,3 L-2,5 L-3,2 Z " fill="#D4DADD" transform="translate(86,45)"/>
<path d="M0,0 L6,1 L10,7 L12,14 L13,26 L5,26 L0,23 L-3,9 L-3,2 Z " fill="#FAFAFA" transform="translate(52,91)"/>
<path d="M0,0 L6,0 L10,2 L15,21 L14,24 L2,23 L1,21 L3,21 L0,13 L-2,1 Z " fill="#F9F9F9" transform="translate(88,94)"/>
<path d="M0,0 L1,0 L2,8 L-2,14 L0,15 L0,17 L2,18 L-2,24 L-8,24 L-10,23 L-10,21 L-16,21 L-18,19 L-19,12 L-17,12 L-16,10 L-16,12 L-10,10 L-8,8 L-7,4 L-3,3 L-1,4 Z " fill="#B9C3C9" transform="translate(114,260)"/>
<path d="M0,0 L9,0 L11,2 L13,4 L13,15 L16,14 L16,16 L21,18 L24,22 L14,20 L11,16 L7,19 L3,17 L4,6 L2,8 L3,9 L3,16 L1,16 L0,11 L-5,12 L-4,2 Z " fill="#B8C2C6" transform="translate(65,20)"/>
<path d="M0,0 L1,0 L2,6 L2,14 L4,14 L4,16 L20,14 L22,19 L22,30 L21,30 L20,17 L8,19 L-11,19 L-12,25 L-14,22 L-14,20 L-20,19 L-32,19 L-29,31 L-30,35 L-35,19 L-39,17 L-39,15 L-5,16 L1,17 Z " fill="#FAFAFA" transform="translate(96,73)"/>
<path d="M0,0 L4,2 L5,3 L6,14 L6,25 L3,26 L-2,24 L-6,8 L-7,5 L-4,1 Z " fill="#FAFAFA" transform="translate(110,92)"/>
<path d="M0,0 L9,1 L12,1 L11,6 L18,6 L16,8 L12,7 L13,10 L15,12 L10,11 L6,9 L6,11 L-5,10 L-6,7 L-6,3 L-5,1 Z " fill="#B9C3C8" transform="translate(119,288)"/>
<path d="M0,0 L3,3 L15,26 L19,37 L24,56 L23,58 L20,51 L17,39 L13,40 L10,26 L6,17 L5,12 L0,2 Z " fill="#7D8F98" transform="translate(142,250)"/>
<path d="M0,0 L4,2 L11,13 L12,15 L12,23 L10,26 L11,37 L14,45 L27,44 L25,46 L21,47 L11,47 L11,45 L9,45 L7,31 L7,25 L8,20 L10,19 L9,15 L7,16 L3,6 L1,5 L2,10 L-1,6 L-1,3 L-3,3 L-3,1 Z " fill="#70848F" transform="translate(89,42)"/>
<path d="M0,0 L2,3 L6,19 L4,9 L4,3 L6,4 L12,27 L19,50 L21,54 L16,50 L11,32 L9,26 L10,33 L6,29 L5,27 L5,21 L3,20 L0,4 Z " fill="#6E828C" transform="translate(117,191)"/>
<path d="M0,0 L3,4 L6,18 L5,23 L4,25 L-1,23 L-5,5 L-4,1 Z " fill="#FAFAFA" transform="translate(41,92)"/>
<path d="M0,0 L8,0 L10,2 L28,5 L28,6 L13,6 L6,5 L-37,5 L-36,3 L-26,2 L-26,1 L-1,1 Z " fill="#6B818B" transform="translate(113,317)"/>
<path d="M0,0 L2,2 L-2,4 L-5,4 L-2,12 L-1,17 L-1,35 L-3,35 L-4,21 L-6,16 L-8,15 L-9,18 L-10,10 L-13,5 L-13,3 L-9,4 Z " fill="#95A3A9" transform="translate(117,122)"/>
<path d="M0,0 L6,3 L6,1 L12,0 L18,5 L21,6 L20,10 L16,8 L-2,9 L-3,4 Z " fill="#FAFAFA" transform="translate(36,299)"/>
<path d="M0,0 L1,0 L2,12 L4,12 L10,41 L9,44 L5,31 L5,33 L5,35 L-6,33 L-6,32 L3,33 L0,16 L-1,2 Z " fill="#BAC0BF" transform="translate(114,168)"/>
<path d="M0,0 L10,0 L16,2 L17,5 L13,4 L9,2 L1,2 L2,4 L4,22 L8,26 L20,24 L21,22 L20,26 L19,28 L5,28 L0,21 L-1,14 L0,13 L-2,1 Z " fill="#78888E" transform="translate(66,91)"/>
<path d="M0,0 L8,1 L11,5 L13,12 L15,23 L15,29 L14,30 L4,30 L0,29 L-3,24 L-3,22 L0,22 L1,25 L5,27 L13,28 L10,12 L6,4 L-3,3 L-5,3 L-5,1 Z " fill="#808D8F" transform="translate(52,89)"/>
<path d="M0,0 L2,4 L2,45 L-1,57 L-5,59 L-7,58 L-5,54 L-2,54 L-2,48 L-1,43 L-1,22 Z " fill="#778A94" transform="translate(46,203)"/>
<path d="M0,0 L3,1 L7,5 L9,23 L9,8 L10,5 L12,5 L12,25 L8,27 L5,26 L4,8 L0,4 L3,4 L0,2 Z " fill="#778990" transform="translate(42,59)"/>
<path d="M0,0 L1,0 L4,15 L5,19 L6,20 L16,21 L15,10 L19,13 L19,21 L18,24 L8,24 L2,21 L0,15 L-1,15 L-2,6 Z " fill="#79888D" transform="translate(86,96)"/>
<path d="M0,0 L2,0 L2,11 L4,14 L-1,12 L-7,13 L-8,10 L-2,9 L-3,7 L-9,10 L-11,10 L-10,16 L-16,21 L-18,21 L-16,25 L-19,31 L-19,33 L-22,32 L-19,26 L-20,18 L-13,17 L-13,15 L-15,14 L-12,9 L-8,6 L-2,4 L-1,5 L-1,10 L1,10 L0,3 L-2,1 Z " fill="#6C828D" transform="translate(67,26)"/>
<path d="M0,0 L2,3 L4,13 L6,15 L3,16 L1,13 L1,19 L7,20 L11,23 L12,27 L10,27 L10,33 L12,34 L10,34 L10,43 L9,43 L8,34 L7,24 L1,22 L1,20 L-1,20 L-3,6 L-1,4 Z " fill="#859396" transform="translate(37,102)"/>
<path d="M0,0 L18,0 L17,7 L17,11 L19,11 L19,15 L14,13 L12,3 L2,2 L0,2 L-1,12 L-1,18 L-2,18 L-5,6 L-5,3 L-3,3 Z " fill="#C2C5C1" transform="translate(86,93)"/>
<path d="M0,0 L6,0 L11,5 L14,10 L12,16 L8,18 L4,15 L3,10 L8,11 L10,9 L4,6 L0,1 Z " fill="#FAFAFA" transform="translate(79,255)"/>
<path d="M0,0 L3,2 L-5,2 L-5,5 L0,6 L-1,8 L-6,9 L-10,7 L-31,7 L-40,6 L-43,3 L-34,4 L-10,4 L-8,5 L-8,3 L-12,1 Z " fill="#969D9A" transform="translate(102,147)"/>
<path d="M0,0 L35,1 L39,3 L41,17 L41,27 L35,27 L35,26 L40,26 L36,6 L36,3 L33,4 L29,3 L-2,3 L-2,1 Z " fill="#869090" transform="translate(56,63)"/>
<path d="M0,0 L1,0 L2,32 L39,29 L56,32 L56,33 L37,32 L24,32 L17,33 L0,33 Z " fill="#989D96" transform="translate(52,167)"/>
<path d="M0,0 L3,3 L5,10 L5,36 L3,35 L-1,33 L1,33 L1,19 L0,19 L0,7 L1,5 Z " fill="#728691" transform="translate(116,87)"/>
<path d="M0,0 L1,0 L3,21 L6,42 L6,48 L4,48 L1,34 L-1,18 Z " fill="#798C96" transform="translate(116,146)"/>
<path d="M0,0 L6,0 L6,1 L1,1 L1,3 L9,2 L11,1 L16,3 L17,1 L17,5 L10,7 L-13,6 L-11,3 L-4,3 L0,4 Z " fill="#718690" transform="translate(151,318)"/>
<path d="M0,0 L5,0 L5,16 L4,16 L3,5 L-1,3 L-6,5 L-7,8 L-4,17 L-6,18 L-6,14 L-9,15 L-9,6 L-9,4 L-26,4 L-26,2 L-7,1 Z " fill="#7F8C8F" transform="translate(111,90)"/>
<path d="M0,0 L8,5 L10,14 L7,17 L3,19 L1,15 L3,13 L-2,12 L-3,7 L6,9 L2,4 L-2,1 Z " fill="#FAFAFA" transform="translate(114,207)"/>
<path d="M0,0 L4,2 L6,3 L6,5 L4,5 L4,9 L12,10 L12,12 L16,13 L11,14 L2,9 L1,7 L-3,7 L-3,5 L-13,5 L-15,3 L-2,1 Z " fill="#FAFAFA" transform="translate(113,302)"/>
<path d="M0,0 L2,2 L3,0 L5,1 L4,7 L3,14 L2,19 L0,19 L1,57 L-1,61 L-1,18 Z " fill="#75868D" transform="translate(52,148)"/>
<path d="M0,0 L10,0 L9,3 L-8,4 L-23,4 L-23,2 L-25,1 Z " fill="#AEB9BF" transform="translate(62,316)"/>
<path d="M0,0 L3,1 L1,2 L2,20 L0,20 L0,26 L-5,29 L-7,28 L-6,26 L-4,26 L-3,19 L-3,15 L-1,15 L-3,1 Z " fill="#8E9999" transform="translate(49,91)"/>
<path d="M0,0 L7,0 L10,2 L0,3 L1,19 L0,19 L-3,8 L-5,4 L-13,5 L-14,9 L-14,4 L-11,1 Z " fill="#FAFAFA" transform="translate(47,87)"/>
<path d="M0,0 L10,0 L9,3 L-27,3 L-30,1 Z " fill="#6A808A" transform="translate(67,320)"/>
<path d="M0,0 L2,2 L2,7 L1,3 L-1,3 L1,13 L0,18 L-2,18 L-2,23 L-4,23 L-4,3 L-3,1 Z " fill="#8C9DA6" transform="translate(50,142)"/>
<path d="M0,0 L38,0 L55,2 L55,4 L37,2 L17,2 L1,1 L0,4 L-5,3 L-5,1 Z " fill="#687E88" transform="translate(55,121)"/>
<path d="M0,0 L1,0 L1,47 L-1,47 L-1,5 Z " fill="#687E89" transform="translate(48,160)"/>
<path d="M0,0 L1,2 L5,4 L3,6 L4,9 L1,11 L6,12 L6,7 L11,6 L11,9 L9,11 L8,15 L0,13 L-6,10 L-6,7 L1,7 L0,3 L-3,1 Z " fill="#6E838F" transform="translate(103,281)"/>
<path d="M0,0 L2,4 L4,15 L0,23 L-6,22 L-14,23 L-19,21 L-19,20 L-2,19 L-2,17 L-7,16 L-7,15 L1,14 Z " fill="#768991" transform="translate(127,224)"/>
<path d="M0,0 L4,2 L5,6 L7,27 L8,43 L7,43 L3,17 L0,3 Z " fill="#FAFAFA" transform="translate(109,137)"/>
<path d="M0,0 L9,3 L25,4 L44,4 L44,6 L16,6 L-5,4 L-5,2 Z " fill="#98A09D" transform="translate(52,83)"/>
<path d="M0,0 L19,4 L21,6 L17,8 L17,9 L8,10 L6,7 L6,3 L1,2 Z " fill="#8899A3" transform="translate(51,302)"/>
<path d="M0,0 L14,1 L45,1 L42,3 L-1,3 L-4,1 Z " fill="#FAFAFA" transform="translate(25,318)"/>
<path d="M0,0 L1,3 L-10,4 L-12,6 L-11,17 L-9,17 L-10,25 L-11,23 L-13,23 L-15,8 L-15,3 L-8,1 Z " fill="#7C8B8F" transform="translate(46,85)"/>
<path d="M0,0 L2,4 L5,18 L5,30 L3,30 L1,12 L-1,14 L-4,9 L0,5 Z " fill="#849091" transform="translate(109,140)"/>
<path d="M0,0 L11,0 L28,4 L32,6 L34,3 L34,9 L26,7 L17,4 L0,1 Z " fill="#597383" transform="translate(74,201)"/>
<path d="M0,0 L1,3 L0,12 L32,12 L32,13 L15,14 L15,15 L-4,15 L-2,5 Z " fill="#75878F" transform="translate(24,304)"/>
<path d="M0,0 L15,1 L15,2 L-26,4 L-31,3 L-37,4 L-38,2 L-28,1 L-3,1 Z " fill="#637A86" transform="translate(96,242)"/>
<path d="M0,0 L4,1 L8,11 L8,16 L6,16 L3,4 L2,3 L-2,4 L-2,12 L-4,15 L-5,12 L-5,2 Z " fill="#98A1A0" transform="translate(39,90)"/>
<path d="M0,0 L1,3 L3,2 L2,0 L5,1 L5,3 L10,2 L15,3 L16,6 L1,7 L-5,6 L-5,4 L0,4 Z " fill="#ABB7BD" transform="translate(134,315)"/>
<path d="M0,0 L7,0 L7,2 L4,4 L3,12 L-2,12 L-8,7 L-7,5 L-1,5 L1,3 Z " fill="#FAFAFA" transform="translate(48,280)"/>
<path d="M0,0 L1,4 L0,16 L-5,17 L-10,15 L-11,9 L-13,9 L-12,4 L-10,4 L-8,12 L-2,13 L-1,2 Z " fill="#949D9D" transform="translate(117,104)"/>
<path d="M0,0 L7,1 L8,4 L6,6 L6,8 L-4,6 L-11,6 L-13,5 L-13,3 L-3,4 L0,3 Z " fill="#9CABB3" transform="translate(78,42)"/>
</svg>
