<?xml version="1.0" encoding="UTF-8"?>
<!-- Generator: visioncortex VTracer 0.6.12 -->
<svg xmlns:xlink="http://www.w3.org/1999/xlink" xmlns:sodipodi="http://sodipodi.sourceforge.net/DTD/sodipodi-0.0.dtd" xmlns:inkscape="http://www.inkscape.org/namespaces/inkscape" version="1.1" xmlns="http://www.w3.org/2000/svg" width="276" height="344">
<path d="M0,0 L276,0 L276,344 L0,344 Z M191,20 L182,24 L181,30 L189,36 L190,43 L182,46 L178,49 L179,55 L191,61 L197,63 L196,65 L198,65 L200,69 L203,71 L205,71 L211,81 L215,89 L214,91 L217,98 L221,114 L221,128 L219,135 L215,140 L211,141 L208,137 L205,133 L203,133 L201,131 L201,128 L191,122 L177,117 L162,114 L157,111 L161,97 L163,91 L163,81 L160,76 L155,75 L149,82 L146,91 L145,98 L143,98 L141,104 L141,110 L136,111 L120,112 L116,107 L114,107 L112,102 L104,90 L99,81 L94,80 L90,81 L90,90 L94,101 L99,110 L100,115 L91,116 L83,118 L83,119 L89,119 L76,120 L66,123 L56,129 L51,135 L52,138 L48,148 L46,155 L44,156 L47,153 L47,144 L46,144 L45,147 L44,144 L40,136 L40,133 L44,141 L48,139 L45,135 L43,126 L42,108 L43,108 L43,113 L45,113 L46,106 L45,97 L46,92 L44,88 L47,88 L49,83 L49,80 L52,80 L53,82 L57,76 L62,72 L65,69 L72,65 L85,61 L96,61 L97,58 L99,59 L97,55 L89,48 L90,43 L97,39 L95,38 L94,33 L96,32 L93,29 L82,26 L69,26 L52,30 L43,36 L35,44 L29,54 L24,67 L22,79 L20,95 L20,114 L24,134 L27,140 L30,149 L36,159 L41,164 L45,167 L49,166 L52,175 L55,179 L56,178 L57,183 L56,187 L46,186 L41,183 L39,184 L39,182 L36,182 L37,179 L34,176 L32,176 L31,171 L27,167 L24,169 L24,177 L29,188 L31,188 L31,191 L33,191 L33,194 L35,194 L35,196 L38,196 L38,198 L49,203 L65,206 L66,208 L57,206 L49,207 L38,203 L30,196 L29,195 L23,195 L27,205 L30,211 L33,211 L33,213 L37,215 L38,217 L45,219 L44,221 L48,223 L53,223 L53,225 L67,227 L82,229 L85,235 L88,239 L90,238 L94,242 L96,246 L97,249 L99,249 L100,256 L95,259 L93,262 L92,264 L89,268 L89,270 L87,270 L85,276 L83,281 L80,287 L81,305 L82,310 L80,311 L81,316 L83,312 L87,313 L99,292 L104,284 L104,277 L106,277 L107,279 L109,276 L111,276 L111,272 L121,270 L128,275 L134,274 L139,273 L147,269 L154,266 L153,269 L157,268 L157,265 L162,267 L166,269 L167,270 L173,278 L180,289 L183,294 L187,296 L186,299 L192,310 L197,316 L201,319 L204,318 L205,320 L206,318 L206,305 L204,296 L202,298 L201,293 L202,289 L197,274 L196,272 L194,272 L193,268 L186,256 L182,251 L181,254 L183,261 L181,262 L180,258 L178,258 L176,252 L175,251 L179,249 L180,251 L181,248 L179,244 L180,241 L183,241 L188,235 L190,234 L190,231 L192,231 L193,228 L195,227 L196,224 L198,223 L198,219 L203,212 L202,207 L204,205 L202,203 L201,204 L204,201 L209,200 L212,192 L214,193 L216,187 L219,186 L234,185 L243,182 L250,173 L252,167 L254,167 L256,158 L256,154 L254,154 L255,150 L250,150 L248,153 L247,157 L237,164 L238,167 L235,166 L229,169 L222,169 L219,168 L218,161 L224,156 L224,154 L227,154 L227,152 L229,152 L229,149 L231,149 L232,146 L234,145 L237,140 L239,139 L240,136 L242,135 L245,120 L246,116 L246,91 L243,70 L237,51 L234,45 L232,45 L232,42 L230,42 L230,39 L228,38 L225,33 L220,30 L215,25 L208,21 L203,20 Z M235,202 L231,203 L231,205 L224,206 L224,208 L222,209 L211,209 L207,212 L211,213 L222,213 L240,208 L238,206 L240,205 L240,202 Z M195,221 Z M194,222 Z M193,223 Z M192,224 Z M191,225 Z " fill="#F9F8F8" transform="translate(0,0)"/>
<path d="M0,0 L22,0 L38,2 L48,3 L52,2 L61,5 L60,7 L70,11 L80,16 L82,18 L84,17 L87,27 L91,38 L92,44 L92,56 L89,60 L88,65 L89,66 L89,74 L86,82 L85,84 L77,87 L73,85 L77,83 L83,83 L82,72 L78,72 L77,75 L78,78 L73,79 L71,85 L67,88 L65,88 L66,92 L66,98 L63,99 L63,97 L54,99 L55,102 L53,102 L54,106 L46,106 L55,108 L54,110 L52,110 L50,114 L46,113 L45,116 L47,121 L42,122 L35,124 L34,130 L29,134 L30,137 L34,137 L36,134 L40,135 L40,139 L34,140 L34,146 L29,150 L21,152 L15,157 L6,155 L-6,147 L-6,145 L-1,146 L3,148 L5,150 L10,148 L10,147 L10,145 L14,144 L8,144 L6,141 L17,142 L16,140 L2,139 L1,143 L-4,141 L-4,137 L-2,136 L-5,133 L-7,127 L-12,132 L-14,129 L-14,125 L-16,125 L-17,130 L-23,131 L-28,126 L-32,121 L-36,114 L-37,109 L-38,106 L-33,106 L-36,105 L-37,101 L-37,100 L-42,100 L-45,97 L-45,95 L-47,95 L-47,93 L-50,91 L-56,80 L-64,64 L-70,49 L-71,45 L-73,47 L-74,49 L-82,41 L-83,37 L-81,37 L-78,42 L-75,42 L-76,39 L-74,32 L-72,32 L-67,19 L-62,14 L-56,10 L-43,6 L-26,3 Z M8,4 L8,6 L5,7 L6,11 L1,11 L1,13 L7,16 L13,16 L15,17 L20,12 L17,9 L19,6 Z M18,25 L17,27 L18,29 L16,29 L16,31 L13,31 L13,29 L8,28 L6,36 L9,36 L11,39 L16,35 L25,33 L21,30 L19,30 L19,25 Z M79,28 L75,32 L68,33 L72,37 L78,40 L80,40 L84,35 L84,33 L82,32 L81,28 Z " fill="#EBE7E7" transform="translate(122,116)"/>
<path d="M0,0 L2,0 L2,2 L0,3 L-1,6 L-3,7 L-4,10 L-6,10 L-6,13 L-12,18 L-13,20 L-16,20 L-17,23 L-15,28 L-17,30 L-17,28 L-23,30 L-24,33 L-30,35 L-30,41 L-26,42 L-22,46 L-17,49 L-14,52 L-13,57 L-6,68 L-2,75 L-2,77 L0,77 L0,71 L2,73 L3,80 L5,81 L7,75 L9,79 L10,84 L10,97 L8,99 L8,97 L4,98 L-1,93 L-8,82 L-10,76 L-10,74 L-14,72 L-20,61 L-29,50 L-29,47 L-33,47 L-37,44 L-39,45 L-39,48 L-43,47 L-42,45 L-56,51 L-59,51 L-53,46 L-44,43 L-41,41 L-40,35 L-33,33 L-32,29 L-38,28 L-40,26 L-37,20 L-34,18 L-26,18 L-27,23 L-27,25 L-24,20 L-14,14 L-9,8 L-1,1 Z " fill="#D9CFD0" transform="translate(196,221)"/>
<path d="M0,0 L15,0 L21,2 L27,9 L31,11 L35,12 L38,17 L39,22 L33,20 L34,24 L41,29 L40,36 L39,44 L34,43 L31,42 L33,45 L36,47 L31,49 L22,41 L21,37 L21,39 L14,37 L15,30 L18,26 L22,26 L18,25 L17,22 L14,20 L10,17 L2,10 L-1,10 L-4,8 L-5,3 Z " fill="#E5DFDF" transform="translate(188,23)"/>
<path d="M0,0 L7,0 L7,1 L1,2 L8,4 L12,8 L18,12 L20,16 L19,17 L4,20 L-7,24 L-12,28 L-14,30 L-17,31 L-16,35 L-20,41 L-21,38 L-24,39 L-25,45 L-26,47 L-29,47 L-27,53 L-28,59 L-27,68 L-28,72 L-30,72 L-30,66 L-32,67 L-31,59 L-30,54 L-36,55 L-33,48 L-38,49 L-33,44 L-36,38 L-32,40 L-31,41 L-30,34 L-27,34 L-28,31 L-33,28 L-32,26 L-26,27 L-23,28 L-16,22 L-15,20 L-19,22 L-20,19 L-23,18 L-22,13 L-19,10 L-17,5 L-11,4 L-6,1 Z " fill="#E0D9D9" transform="translate(73,41)"/>
<path d="M0,0 L6,0 L13,6 L17,9 L26,12 L36,11 L43,13 L42,11 L26,8 L30,7 L43,8 L47,8 L49,9 L50,12 L53,14 L52,16 L54,16 L54,18 L59,19 L62,21 L63,19 L64,24 L63,26 L66,25 L67,28 L61,27 L64,31 L65,37 L67,41 L67,44 L64,43 L60,37 L58,31 L54,30 L52,24 L47,22 L47,27 L43,25 L29,23 L25,21 L28,24 L32,26 L30,28 L23,27 L21,25 L22,24 L15,22 L13,19 L10,18 L10,16 L7,16 L1,4 Z " fill="#D3C7C7" transform="translate(23,195)"/>
<path d="M0,0 L4,5 L3,7 L6,16 L8,24 L8,28 L10,28 L11,31 L14,32 L21,32 L28,29 L30,30 L29,27 L34,23 L39,20 L41,14 L44,13 L47,14 L46,17 L48,17 L47,26 L46,30 L44,30 L42,36 L35,45 L31,47 L16,47 L16,46 L28,45 L28,43 L34,40 L36,40 L37,37 L31,37 L31,39 L21,41 L21,43 L11,46 L11,49 L8,50 L6,56 L4,55 L0,64 L-2,63 L1,57 L3,45 L1,44 L2,37 L5,37 L5,23 L2,11 L-1,2 Z " fill="#DCD3D3" transform="translate(208,137)"/>
<path d="M0,0 L6,2 L8,6 L8,16 L2,36 L0,36 L3,39 L15,42 L15,43 L6,43 L-9,41 L-24,39 L-24,38 L-14,38 L-10,19 L-7,9 L-3,3 Z " fill="#E5DFDF" transform="translate(155,75)"/>
<path d="M0,0 L4,4 L5,9 L9,11 L10,13 L9,15 L12,15 L12,17 L15,16 L19,19 L29,20 L30,11 L33,15 L41,31 L43,34 L42,38 L39,37 L19,35 L11,31 L11,29 L8,29 L8,27 L6,27 L6,24 L4,24 L4,21 L2,21 L-3,10 L-3,2 Z M25,25 L25,28 L31,28 L31,31 L19,29 L14,28 L17,31 L28,35 L37,35 L37,30 L32,25 Z " fill="#DED6D6" transform="translate(27,167)"/>
<path d="M0,0 L1,0 L2,11 L10,10 L12,14 L17,9 L19,8 L18,16 L16,17 L15,20 L11,23 L10,26 L8,27 L7,30 L5,30 L5,33 L3,33 L3,35 L0,35 L0,37 L-6,42 L-8,46 L-13,28 L-14,24 L-12,24 L-12,22 L-8,20 L-4,14 L-2,14 L-1,5 Z " fill="#E8E3E3" transform="translate(224,119)"/>
<path d="M0,0 Z M-1,1 L0,3 L-2,7 L0,11 L-2,15 L-2,21 L-8,27 L-6,29 L-5,34 L-8,36 L-2,39 L-2,42 L-4,43 L-6,42 L-6,50 L-12,46 L-15,46 L-16,41 L-19,42 L-20,32 L-19,23 L-10,9 L-3,2 Z M-21,29 Z " fill="#DBD3D3" transform="translate(49,33)"/>
<path d="M0,0 L8,2 L13,8 L18,11 L19,14 L21,15 L21,18 L23,18 L23,21 L25,21 L29,29 L34,46 L36,58 L36,63 L33,62 L32,56 L22,56 L16,52 L13,52 L12,50 L7,47 L8,45 L12,47 L14,46 L11,43 L19,44 L24,42 L28,47 L26,48 L28,49 L29,52 L27,40 L22,27 L22,25 L18,23 L16,16 L13,11 L10,10 L9,12 L9,9 L5,8 L0,3 Z " fill="#CEC0C0" transform="translate(209,24)"/>
<path d="M0,0 L4,0 L5,4 L1,5 L1,10 L-1,10 L-3,14 L-3,12 L-5,12 L-5,14 L-7,14 L-7,17 L-9,17 L-10,22 L-18,37 L-23,39 L-23,37 L-25,37 L-27,33 L-27,21 L-25,25 L-23,32 L-21,32 L-22,27 L-20,20 L-20,17 L-13,13 L-12,12 L-20,13 L-21,6 L-16,5 L-11,8 L-11,6 L-7,5 L-2,3 Z " fill="#EFECEC" transform="translate(109,265)"/>
<path d="M0,0 L5,2 L10,7 L20,22 L24,31 L20,32 L25,32 L25,33 L10,35 L1,35 L1,34 L7,32 L8,29 L4,20 L3,17 L1,10 Z " fill="#F9F9F9" transform="translate(94,83)"/>
<path d="M0,0 L1,2 L6,1 L4,7 L-1,6 L-2,16 L0,16 L2,11 L8,16 L7,20 L9,20 L10,18 L13,28 L13,33 L14,38 L9,36 L10,39 L9,41 L13,47 L17,52 L13,50 L6,45 L1,32 L-4,17 L-3,2 L0,2 Z " fill="#D8CDCD" transform="translate(29,113)"/>
<path d="M0,0 L2,0 L1,6 L-4,8 L4,10 L10,17 L16,20 L20,21 L25,20 L29,24 L26,24 L24,23 L23,25 L19,26 L19,24 L15,22 L10,20 L14,24 L22,29 L31,32 L28,33 L22,34 L15,29 L8,30 L5,31 L5,35 L3,34 L4,29 L8,28 L7,24 L3,25 L1,27 L-1,25 L1,25 L-2,20 L-2,16 L-6,14 L-7,8 L-10,7 L-11,1 L-7,5 L-1,4 Z " fill="#B9A6A6" transform="translate(106,241)"/>
<path d="M0,0 L4,2 L6,18 L6,31 L4,36 L0,40 L-6,42 L-5,36 L-4,39 L0,38 L1,33 L-5,31 L-3,30 L-5,25 L-5,20 L0,18 L0,16 L-4,15 L-5,18 L-8,17 L-12,7 L-9,7 L-8,8 L1,8 Z " fill="#CFC2C2" transform="translate(237,81)"/>
<path d="M0,0 L3,1 L4,3 L17,5 L18,10 L24,12 L24,10 L26,11 L25,13 L23,13 L24,19 L26,18 L27,23 L31,25 L34,30 L33,39 L29,37 L21,22 L19,20 L16,20 L13,17 L13,15 L11,14 L11,12 L6,11 L5,7 L-1,3 Z " fill="#D0C4C5" transform="translate(185,50)"/>
<path d="M0,0 L11,0 L23,4 L22,6 L31,7 L33,12 L27,16 L26,18 L24,18 L24,16 L22,15 L23,12 L27,11 L22,11 L20,11 L16,12 L14,10 L14,12 L4,15 L1,17 L0,15 L2,15 L3,8 L-3,6 L0,2 Z " fill="#E6DFDF" transform="translate(59,28)"/>
<path d="M0,0 L4,2 L4,13 L-3,15 L-4,16 L-2,18 L-4,19 L-6,24 L-9,24 L-5,25 L-4,28 L-8,30 L-11,36 L-15,37 L-18,36 L-18,34 L-22,34 L-22,30 L-19,29 L-19,27 L-13,28 L-14,18 L-9,15 L-6,9 L-1,8 L-3,4 L-2,1 Z " fill="#F2F0F0" transform="translate(201,186)"/>
<path d="M0,0 L6,1 L10,10 L11,14 L14,14 L15,12 L19,13 L20,16 L14,17 L16,27 L20,30 L19,35 L14,36 L11,36 L11,34 L9,34 L8,25 L10,22 L6,20 L5,15 L3,11 L6,11 L4,6 L1,6 Z M5,20 Z " fill="#F2F0F0" transform="translate(218,84)"/>
<path d="M0,0 L2,2 L3,9 L0,15 L-3,19 L-3,22 L1,25 L4,24 L2,28 L-4,33 L-10,30 L-12,25 L-14,23 L-8,17 L-8,11 L-5,6 L-2,6 Z " fill="#F9F9F9" transform="translate(54,37)"/>
<path d="M0,0 L2,2 L5,8 L7,10 L5,13 L5,15 L9,17 L10,12 L24,13 L25,16 L15,16 L17,17 L24,17 L22,19 L9,21 L5,18 L0,15 L-1,13 L-4,11 L-7,9 L-12,8 L-13,6 L-7,5 L-6,1 L-3,5 Z " fill="#F5F4F4" transform="translate(114,242)"/>
<path d="M0,0 L3,1 L3,3 L7,2 L10,7 L11,12 L15,14 L16,12 L19,15 L24,30 L23,34 L23,31 L21,31 L18,24 L13,22 L13,20 L8,19 L0,6 L-2,4 L0,4 Z " fill="#DCD3D3" transform="translate(178,259)"/>
<path d="M0,0 L4,1 L1,6 L5,6 L5,8 L12,9 L8,11 L4,15 L-1,22 L-9,24 L-12,18 L-10,14 L-6,15 L-2,11 L-10,9 L-12,7 L-3,7 L-2,1 Z " fill="#CFC4C4" transform="translate(178,214)"/>
<path d="M0,0 L4,1 L10,6 L15,18 L18,30 L17,34 L16,30 L11,29 L15,27 L11,24 L7,26 L1,25 L-3,22 L-2,20 L3,23 L5,22 L6,11 L6,8 L0,4 Z " fill="#F9F9F9" transform="translate(221,43)"/>
<path d="M0,0 L1,4 L-1,12 L-3,27 L-3,35 L-4,37 L-6,37 L-7,32 L-10,29 L-12,34 L-15,33 L-15,22 L-9,24 L-7,18 L-6,17 L-4,3 L-4,1 Z " fill="#F3F1F1" transform="translate(42,96)"/>
<path d="M0,0 L1,4 L-2,15 L-6,16 L14,18 L30,21 L30,22 L17,21 L1,19 L-32,19 L-29,17 L-28,15 L-26,15 L-28,9 L-23,14 L-7,13 L-2,12 L-1,2 Z " fill="#977A7A" transform="translate(143,98)"/>
<path d="M0,0 L2,1 L3,7 L11,6 L6,11 L2,12 L3,17 L1,22 L1,27 L-1,27 L-4,20 L-4,28 L-3,30 L-6,30 L-7,16 L-4,11 L-2,6 Z " fill="#AE9697" transform="translate(87,270)"/>
<path d="M0,0 L3,3 L5,8 L5,11 L3,11 L2,8 L0,14 L0,18 L3,20 L3,24 L-1,25 L1,27 L-5,29 L-6,26 L-6,15 L-3,4 L-1,4 Z " fill="#F5F4F4" transform="translate(30,78)"/>
<path d="M0,0 L8,1 L8,2 L2,4 L5,6 L7,7 L6,14 L8,13 L12,14 L5,18 L-1,16 L2,15 L0,10 L-3,14 L-7,13 L-10,11 L-8,11 L-6,5 L-2,2 L0,2 Z " fill="#C1AEAF" transform="translate(55,29)"/>
<path d="M0,0 L12,0 L21,3 L24,6 L12,4 L-3,4 L-7,6 L-7,11 L-3,13 L0,13 L7,19 L12,22 L15,25 L13,26 L7,23 L1,17 L-1,18 L-6,13 L-10,10 L-9,4 Z " fill="#9D8182" transform="translate(191,20)"/>
<path d="M0,0 L6,0 L11,8 L7,6 L3,4 L5,19 L7,18 L7,24 L11,33 L9,36 L4,36 L8,35 L5,26 L1,18 L-2,10 L-2,1 Z " fill="#A78C8C" transform="translate(92,80)"/>
<path d="M0,0 L1,3 L3,3 L4,1 L6,5 L6,8 L4,9 L7,13 L6,17 L11,18 L10,21 L6,21 L8,25 L8,31 L5,30 L2,14 L0,14 L-3,6 L-4,2 Z M5,17 Z " fill="#D0C3C4" transform="translate(218,87)"/>
<path d="M0,0 L2,1 L3,0 L5,3 L3,4 L4,9 L-3,18 L-10,26 L-11,22 L-11,19 L-9,19 L-7,13 L-3,10 L-3,8 L-7,9 L-7,7 L-9,6 L-3,5 L-2,1 Z " fill="#B8A5A5" transform="translate(199,203)"/>
<path d="M0,0 L11,2 L9,5 L12,8 L7,13 L3,12 L-4,11 L-7,9 L-7,7 L-2,7 L-3,3 L0,2 Z " fill="#CDC1C1" transform="translate(130,120)"/>
<path d="M0,0 L5,2 L14,7 L15,14 L13,15 L6,15 L1,12 L1,10 L-1,10 L-1,7 L1,6 Z " fill="#F9F9F9" transform="translate(223,75)"/>
<path d="M0,0 L5,0 L5,3 L3,4 L5,6 L-13,11 L-24,11 L-28,9 L-22,7 L-13,7 L-11,5 L-9,3 L-4,3 L-4,1 Z " fill="#C2B1B1" transform="translate(235,202)"/>
<path d="M0,0 L11,4 L29,8 L45,16 L47,19 L43,20 L31,14 L25,12 L25,10 L10,6 L1,3 Z " fill="#9D8181" transform="translate(155,111)"/>
<path d="M0,0 L7,6 L14,10 L14,13 L10,12 L3,11 L1,13 L8,16 L9,14 L13,15 L10,19 L-2,16 L-3,11 L-8,14 L-9,17 L-11,16 L-9,12 L0,8 L2,8 L1,3 Z " fill="#F9F9F9" transform="translate(191,36)"/>
<path d="M0,0 L2,0 L2,2 L7,3 L11,11 L13,19 L12,24 L9,22 L8,14 L7,19 L5,19 L1,13 L2,11 L0,8 L-1,4 L1,4 L1,6 L3,6 L5,8 L8,9 L6,5 L-1,2 Z " fill="#A28989" transform="translate(189,279)"/>
<path d="M0,0 L18,3 L21,5 L21,0 L27,2 L29,6 L28,8 L7,8 L3,5 L0,2 Z " fill="#F7F6F6" transform="translate(48,216)"/>
<path d="M0,0 L1,2 L-3,15 L-6,18 L-7,14 L-13,12 L-15,3 L-10,4 L-9,6 L-3,3 Z " fill="#FAFAFA" transform="translate(241,116)"/>
<path d="M0,0 L3,0 L3,3 L-12,8 L-18,12 L-23,22 L-25,34 L-26,34 L-27,25 L-24,17 L-25,15 L-19,8 L-8,2 Z " fill="#9B7F80" transform="translate(76,120)"/>
<path d="M0,0 L2,0 L5,5 L2,6 L-7,6 L-22,11 L-27,14 L-33,19 L-36,19 L-36,16 L-32,14 L-29,11 L-22,7 L-7,3 L0,2 Z " fill="#977B7C" transform="translate(92,55)"/>
<path d="M0,0 L4,2 L10,9 L14,11 L14,13 L16,13 L17,18 L14,19 L14,22 L11,23 L9,15 L3,8 L1,8 L-1,2 Z " fill="#F0EDED" transform="translate(208,63)"/>
<path d="M0,0 L1,3 L1,12 L-1,16 L-3,29 L-4,31 L-4,42 L-3,48 L-3,53 L-5,53 L-6,43 L-6,26 L-3,6 L-1,1 Z " fill="#D2C7C7" transform="translate(29,62)"/>
<path d="M0,0 L3,3 L2,6 L-8,10 L-10,14 L-5,9 L-3,9 L-2,14 L4,14 L6,16 L-2,16 L-4,13 L-6,13 L-5,16 L1,19 L0,22 L-6,20 L-12,17 L-13,11 L-5,6 L-1,5 Z " fill="#9C7F80" transform="translate(191,38)"/>
<path d="M0,0 L4,1 L6,6 L7,11 L7,13 L-2,14 L-2,9 L-4,9 L-5,3 Z " fill="#E1D9DA" transform="translate(100,256)"/>
<path d="M0,0 L3,1 L-1,5 L-7,7 L-7,9 L-12,10 L-9,12 L-24,12 L-24,9 L-14,7 L-14,5 L-4,3 L-4,1 Z " fill="#D2C5C5" transform="translate(243,173)"/>
<path d="M0,0 L2,3 L2,6 L9,6 L8,11 L7,12 L12,12 L10,19 L9,19 L9,14 L7,14 L6,16 L2,16 L-3,14 L-1,13 L-1,11 L-3,10 L-1,8 Z " fill="#B19E9E" transform="translate(31,83)"/>
<path d="M0,0 L13,0 L26,4 L27,7 L25,7 L24,10 L24,7 L14,5 L5,4 L-5,2 L-5,1 Z " fill="#A38787" transform="translate(69,26)"/>
<path d="M0,0 L3,1 L3,7 L4,1 L5,1 L5,10 L2,13 L5,13 L5,15 L2,16 L-1,12 L1,16 L7,23 L3,24 L-1,21 L0,19 L2,20 L-4,13 L-5,10 L-4,6 L1,8 L-1,2 Z " fill="#9D8282" transform="translate(42,143)"/>
<path d="M0,0 L7,0 L12,5 L12,10 L3,10 L-8,6 L-11,3 L-3,5 L6,6 L6,3 L0,3 Z " fill="#CDBCBD" transform="translate(52,192)"/>
<path d="M0,0 L4,2 L-4,12 L-14,18 L-17,23 L-19,22 L-13,13 L-8,10 L-3,2 Z " fill="#FAFAFA" transform="translate(186,224)"/>
<path d="M0,0 L1,0 L1,5 L7,7 L7,8 L-2,10 L-7,14 L-10,10 L-12,11 L-10,3 L-5,4 L-5,6 L-2,6 L-2,4 L0,4 L-1,1 Z " fill="#BAAAAA" transform="translate(140,141)"/>
<path d="M0,0 L1,0 L4,23 L7,30 L8,32 L4,33 L-2,20 L-1,11 Z " fill="#977A7B" transform="translate(40,108)"/>
<path d="M0,0 L2,2 L5,16 L7,17 L5,7 L8,8 L9,13 L8,17 L10,18 L7,18 L9,27 L13,28 L7,29 L5,23 L3,32 L2,32 L2,13 L0,4 Z " fill="#977979" transform="translate(219,101)"/>
<path d="M0,0 L10,0 L8,4 L7,2 L-1,3 L-4,4 L-6,10 L1,13 L0,18 L-1,14 L-5,14 L-8,17 L-13,16 L-13,13 L-8,9 L-6,3 Z " fill="#9D8282" transform="translate(163,237)"/>
<path d="M0,0 L3,1 L-7,7 L-15,16 L-21,26 L-25,38 L-27,38 L-28,41 L-27,33 L-19,17 L-10,7 L-2,1 Z " fill="#997B7C" transform="translate(52,30)"/>
<path d="M0,0 L1,3 L5,2 L6,6 L-19,4 L-23,3 L-23,1 L-3,1 L0,2 Z " fill="#B29B9C" transform="translate(76,222)"/>
<path d="M0,0 L3,1 L3,4 L5,5 L3,9 L1,12 L-5,10 L-11,6 L-11,5 L-2,3 Z " fill="#FAFAFA" transform="translate(201,144)"/>
<path d="M0,0 L2,0 L3,4 L3,29 L0,40 L-2,41 L-1,32 L0,26 Z M-3,41 Z " fill="#FAFAFA" transform="translate(243,87)"/>
<path d="M0,0 L3,3 L7,3 L8,1 L10,2 L17,2 L14,4 L10,4 L10,6 L13,7 L11,8 L11,10 L15,12 L11,13 L9,9 L0,8 L1,6 L-5,6 L-1,4 L1,4 Z " fill="#997D7D" transform="translate(72,36)"/>
<path d="M0,0 L1,0 L0,12 L-3,29 L-3,49 L-5,46 L-5,27 L-3,11 L-2,4 Z " fill="#8F7171" transform="translate(25,68)"/>
<path d="M0,0 L4,5 L12,18 L11,22 L6,20 L3,11 L-1,3 Z " fill="#BCA9A9" transform="translate(182,251)"/>
<path d="M0,0 L7,0 L10,11 L10,33 L7,48 L4,53 L3,51 L7,38 L8,32 L8,19 L6,3 L0,1 Z " fill="#907172" transform="translate(234,80)"/>
<path d="M0,0 L4,0 L6,4 L8,4 L10,10 L12,11 L6,15 L2,5 L0,8 L-2,8 L-2,1 Z " fill="#B7A5A5" transform="translate(29,74)"/>
<path d="M0,0 L3,1 L5,7 L7,8 L5,8 L4,10 L4,7 L-3,8 L-3,6 L-5,6 L-3,10 L1,11 L2,15 L3,17 L-1,15 L-1,13 L-7,11 L-7,5 L-1,2 Z " fill="#A58C8C" transform="translate(173,251)"/>
<path d="M0,0 L2,3 L0,9 L-7,20 L-12,28 L-15,24 L-11,23 L-9,17 L-2,3 L0,3 Z " fill="#9F8686" transform="translate(102,279)"/>
<path d="M0,0 L3,0 L3,2 L5,2 L5,4 L9,5 L6,13 L2,12 L0,16 L-1,11 L1,10 Z " fill="#BFADAD" transform="translate(81,300)"/>
<path d="M0,0 L3,1 L7,6 L10,8 L14,10 L15,14 L10,13 L10,11 L8,11 L8,9 L6,9 L10,15 L10,18 L4,11 L-1,1 Z " fill="#F5F4F4" transform="translate(182,274)"/>
<path d="M0,0 L5,2 L4,8 L-1,9 L-6,8 L-6,2 Z " fill="#F4F2F2" transform="translate(31,106)"/>
<path d="M0,0 L1,2 L3,2 L1,16 L-1,17 L0,11 L-5,10 L-8,11 L-10,9 L-6,8 L-8,5 L-3,5 L-2,1 Z " fill="#C7B9B9" transform="translate(36,97)"/>
<path d="M0,0 L9,1 L11,8 L15,15 L14,17 L5,8 L4,5 L0,3 Z " fill="#F3F2F2" transform="translate(168,257)"/>
<path d="M0,0 L1,2 L3,3 L-4,7 L-5,12 L5,21 L4,23 L0,22 L0,19 L-3,19 L-7,15 L-9,14 L-9,8 L-3,4 L-2,2 L0,2 Z " fill="#A88F8F" transform="translate(94,36)"/>
<path d="M0,0 L10,1 L12,3 L13,0 L13,2 L18,2 L16,4 L13,4 L14,6 L11,7 L11,13 L9,13 L8,7 L10,5 L7,4 L6,7 L-3,3 Z " fill="#AF9898" transform="translate(193,46)"/>
<path d="M0,0 L2,2 L2,5 L4,5 L4,10 L9,8 L11,10 L8,11 L6,13 L6,11 L4,11 L4,13 L-5,10 L-3,4 L-1,4 Z " fill="#B5A2A2" transform="translate(94,260)"/>
<path d="M0,0 L1,0 L5,17 L9,29 L13,38 L12,40 L6,29 L3,20 L-1,4 Z " fill="#98797A" transform="translate(22,116)"/>
<path d="M0,0 L2,3 L7,17 L6,20 L4,21 L-1,9 L-2,2 Z " fill="#A28888" transform="translate(50,158)"/>
<path d="M0,0 L1,0 L2,12 L2,22 L6,24 L4,24 L4,33 L2,32 L0,23 L-1,4 Z " fill="#FAFAFA" transform="translate(22,93)"/>
<path d="M0,0 L9,0 L13,1 L24,1 L24,2 L-1,5 L-12,6 L-8,4 L-3,3 L-8,3 L-4,1 Z " fill="#8F7071" transform="translate(91,116)"/>
<path d="M0,0 L9,1 L19,4 L20,9 L17,10 L16,6 L7,6 L3,4 L6,3 L0,1 Z " fill="#FAFAFA" transform="translate(74,29)"/>
</svg>
