<?xml version="1.0" encoding="UTF-8" standalone="no"?>
<!-- Created with Inkscape (http://www.inkscape.org/) -->

<svg
   version="1.1"
   id="svg1"
   width="1.7009548in"
   height="1.0308073in"
   viewBox="0 0 163.29166 98.957497"
   sodipodi:docname="drink_trace.svg"
   inkscape:version="1.4.3 (1:1.4.3+202512261035+0d15f75042)"
   xmlns:inkscape="http://www.inkscape.org/namespaces/inkscape"
   xmlns:sodipodi="http://sodipodi.sourceforge.net/DTD/sodipodi-0.dtd"
   xmlns:xlink="http://www.w3.org/1999/xlink"
   xmlns="http://www.w3.org/2000/svg"
   xmlns:svg="http://www.w3.org/2000/svg"
   xmlns:inkstitch="http://inkstitch.org/namespace">
  <sodipodi:namedview
     id="namedview1"
     pagecolor="#ffffff"
     bordercolor="#000000"
     borderopacity="0.25"
     inkscape:showpageshadow="2"
     inkscape:pageopacity="0.0"
     inkscape:pagecheckerboard="true"
     inkscape:deskcolor="#d1d1d1"
     inkscape:zoom="5.76"
     inkscape:cx="74.131945"
     inkscape:cy="51.822917"
     inkscape:window-width="1690"
     inkscape:window-height="893"
     inkscape:window-x="92"
     inkscape:window-y="83"
     inkscape:window-maximized="0"
     inkscape:current-layer="g1"
     labelstyle="default"
     inkscape:document-units="in" />
  <metadata
     id="metadata1">
    <inkstitch:min_stitch_len_mm>0.1</inkstitch:min_stitch_len_mm>
    <inkstitch:collapse_len_mm>3</inkstitch:collapse_len_mm>
    <inkstitch:inkstitch_svg_version>3</inkstitch:inkstitch_svg_version>
  </metadata>
  <defs
     id="defs1">
    <linearGradient
       inkscape:collect="always"
       xlink:href="#swatch2063"
       id="linearGradient2063"
       x1="767.24805"
       y1="155.5778"
       x2="788.34381"
       y2="155.5778"
       gradientUnits="userSpaceOnUse"
       gradientTransform="matrix(1.029329,0,0,1.0370039,-529.22129,-43.844612)" />
    <linearGradient
       id="swatch2063"
       inkscape:swatch="solid">
      <stop
         style="stop-color:#000000;stop-opacity:1;"
         offset="0"
         id="stop2063" />
    </linearGradient>
    <symbol
       id="inkstitch_ignore_layer"
       transform="scale(0.25, 0.25)"
       style="opacity:0.7">
      <title
         id="title9694">Ignore entire layer when generating stitch plan</title>
      <path
         inkscape:connector-curvature="0"
         style="opacity:1;vector-effect:none;fill:#fafafa;fill-opacity:1;fill-rule:evenodd;stroke:#ff0000;stroke-width:1.06501234;stroke-linecap:round;stroke-linejoin:miter;stroke-miterlimit:4;stroke-dasharray:3.19503705, 3.19503705;stroke-dashoffset:0;stroke-opacity:1"
         d="M 9.2465269,-4.9265995e-6 C 9.246525,5.1067241 5.1067028,9.2465451 -2.615882e-5,9.2465451 -5.1067554,9.2465451 -9.2465782,5.1067241 -9.2465801,-4.9265995e-6 -9.24658,-2.4523429 -8.2723922,-4.8042399 -6.538327,-6.5383059 c 1.7340653,-1.734065 4.0859624,-2.708252 6.53830084118,-2.708252 5.10673015882,0 9.24655285882,4.139823 9.24655305882,9.2465529734005 0,0 0,0 0,0"
         id="inkstitch_path25368-7" />
      <path
         sodipodi:nodetypes="ccccc"
         inkscape:connector-curvature="0"
         style="color:#000000;fill:#d5d5d5;fill-opacity:1;fill-rule:evenodd;stroke:#5a5a5a;stroke-width:0.63330007;stroke-linecap:square;stroke-linejoin:round;stroke-miterlimit:0;stroke-opacity:1"
         d="M 4,4.452769 1.46667,1.286102 H -5.5 l 2.53333,3.166667 z"
         id="use5800" />
      <path
         sodipodi:nodetypes="ccccc"
         inkscape:connector-curvature="0"
         style="color:#000000;opacity:0.5;fill:#d5d5d5;fill-opacity:1;fill-rule:evenodd;stroke:#858585;stroke-width:0.63339424;stroke-linecap:square;stroke-linejoin:round;stroke-miterlimit:0;stroke-opacity:1"
         d="M 4,2.552769 1.46667,-0.613898 H -5.5 l 2.53333,3.166667 z"
         id="use5864" />
      <g
         id="g5771">
        <path
           sodipodi:nodetypes="ccccccccc"
           inkscape:connector-curvature="0"
           style="fill:#aa0000;fill-rule:evenodd;stroke:#aa0000;stroke-width:1px"
           d="m -1.0666699,-5.0472339 h 4.4333333 l 0.6333333,0.6333333 V 0.01943274 L 3.3666634,0.65276607 H -1.0666699 L -1.7000032,0.01943274 V -4.4139006 Z"
           id="path8011" />
        <path
           inkscape:connector-curvature="0"
           id="path8023"
           d="m -0.43333658,-3.8755672 c 0,0 3.16666668,3.16666661 3.16666668,3.16666661"
           style="fill:none;stroke:#ffffff;stroke-width:1.70000005" />
        <path
           inkscape:connector-curvature="0"
           id="path8025"
           d="m 2.7333301,-3.8755672 c 0,0 -3.16666668,3.16666661 -3.16666668,3.16666661"
           style="fill:none;stroke:#ffffff;stroke-width:1.79999995;stroke-linejoin:round" />
      </g>
    </symbol>
  </defs>
  <g
     inkscape:groupmode="layer"
     inkscape:label="Image"
     id="g1"
     transform="translate(-176.078, -102.691)">
    <path
       d="m 271.36511,106.34334 -2.10352,0.21289 -1.96875,0.60743 -1.79492,0.96093 -1.58008,1.27344 -1.32421,1.55274 -1.03125,1.78711 -0.69532,1.98632 -0.32226,2.14453 c 0.0495,2.8e-4 0.099,0.001 0.14844,0.002 0.0254,1.4e-4 0.0508,-1.4e-4 0.0762,0 l 0.33398,-2.04688 0.6875,-1.89258 1.00781,-1.70117 1.28711,-1.47656 1.5293,-1.21094 1.73438,-0.91211 1.89843,-0.57422 2.02539,-0.20312 2.11328,0.21094 1.97071,0.61523 1.78515,0.97656 1.56055,1.29493 1.29297,1.57226 0.98047,1.80664 0.62891,1.99805 0.23828,2.15039 -0.16797,2.04102 -0.52539,1.92187 -0.84961,1.76172 -1.14258,1.56641 -1.39844,1.33203 -1.625,1.05664 -1.81445,0.74609 -1.97266,0.39649 c 0.003,0.0976 0.005,0.19533 0.008,0.29296 l 2.04883,-0.39257 1.88868,-0.76368 1.68945,-1.09179 1.45898,-1.37891 1.19141,-1.62891 0.88672,-1.83789 0.54883,-2.0039 0.17382,-2.13281 -0.24218,-2.22852 -0.64844,-2.07422 -1.00977,-1.87305 -1.33007,-1.63086 -1.60547,-1.34375 -1.83789,-1.01171 -2.02735,-0.63672 z m 7.86914,3.66407 h 0.13281 a 0.13258252,0.22097087 0 0 1 0,0.002 z"
       style="fill-rule:evenodd;stroke:url(#linearGradient2063);stroke-width:0;stroke-miterlimit:2.2;paint-order:stroke fill markers"
       id="path159" />
    <path
       d="m 271.27331,106.85311 -2.02539,0.20312 -1.89843,0.57422 -1.73438,0.91211 -1.5293,1.21094 -1.28711,1.47656 -1.00781,1.70117 -0.6875,1.89258 -0.33398,2.04688 c 1.24334,0.007 2.48713,0.0145 3.73047,0.0215 1.56249,0.009 3.125,0.0167 4.6875,0.0254 0.59322,-0.10399 1.16734,-0.105 1.61328,0.14844 0.0523,0.0297 0.1019,0.0643 0.14843,0.10156 0.002,0.001 0.004,0.002 0.006,0.004 0.0215,0.0175 0.0423,0.0356 0.0625,0.0547 0.002,0.002 0.004,0.004 0.006,0.006 0.0198,0.0189 0.0402,0.0381 0.0586,0.0586 0.003,0.003 0.005,0.007 0.008,0.01 0.0342,0.0387 0.0645,0.081 0.0937,0.125 0.003,0.004 0.007,0.007 0.01,0.0117 0.003,0.005 0.007,0.0105 0.01,0.0156 0.0107,0.0171 0.0174,0.0369 0.0273,0.0547 0.0178,0.0318 0.0374,0.0617 0.0527,0.0957 h 0.01 v 0.0234 0.002 c 0.027,0.0636 0.0501,0.13019 0.0684,0.20117 1.6e-4,6.2e-4 -1.5e-4,0.001 0,0.002 0.0549,0.21439 0.0697,0.46182 0.0352,0.73828 0.32323,1.60096 0.53692,3.21019 0.68164,4.82422 6e-5,6.4e-4 -6e-5,0.001 0,0.002 l 0.004,0.0254 0.002,0.0254 c 2.3e-4,0.003 -2.3e-4,0.005 0,0.008 v 0.008 c 0.14206,1.60604 0.21753,3.21787 0.26367,4.82813 10e-5,0.003 -9e-5,0.007 0,0.01 l 1.97266,-0.39649 1.81445,-0.74609 1.625,-1.05664 1.39844,-1.33203 1.14258,-1.56641 0.84961,-1.76172 0.52539,-1.92187 0.16797,-2.04102 -0.23828,-2.15039 -0.62891,-1.99805 -0.98047,-1.80664 -1.29297,-1.57226 -1.56055,-1.29493 -1.78515,-0.97656 -1.97071,-0.61523 z m 0.20899,1.99414 -0.88477,7.64844 -4.84179,-5.95313 a 7.5448095,8.6610266 72.737949 0 1 0.80664,-0.47851 7.5448095,8.6610266 72.737949 0 1 0.47851,-0.24414 7.5448095,8.6610266 72.737949 0 1 0.0117,-0.006 l 0.0254,-0.0137 0.0566,-0.0215 a 7.5448095,8.6610266 72.737949 0 1 0.006,-0.002 7.5448095,8.6610266 72.737949 0 1 1.25586,-0.47852 7.5448095,8.6610266 72.737949 0 1 0.0137,-0.006 l 0.084,-0.0312 0.0898,-0.0195 a 7.5448095,8.6610266 72.737949 0 1 0.002,0 7.5448095,8.6610266 72.737949 0 1 1.3086,-0.28125 l 0.0137,-0.002 0.0645,-0.0156 0.0352,-0.002 a 7.5448095,8.6610266 72.737949 0 1 0.5664,-0.0566 7.5448095,8.6610266 72.737949 0 1 0.90821,-0.0371 z m 2.47265,0.64844 a 8.5445842,7.6568955 8.4087005 0 1 0.84961,0.29687 8.5445842,7.6568955 8.4087005 0 1 0.52149,0.21875 l 0.004,0.002 0.0293,0.01 0.0664,0.0371 0.006,0.004 a 8.5445842,7.6568955 8.4087005 0 1 1.10351,0.62109 l 0.10742,0.0605 0.0899,0.0723 0.004,0.004 a 8.5445842,7.6568955 8.4087005 0 1 0.94532,0.75977 8.5445842,7.6568955 8.4087005 0 1 0.008,0.008 l 0.082,0.0664 0.0293,0.0332 a 8.5445842,7.6568955 8.4087005 0 1 0.002,0.002 8.5445842,7.6568955 8.4087005 0 1 0.35938,0.37109 8.5445842,7.6568955 8.4087005 0 1 0.56445,0.66407 l -7.06445,4.09375 z m -10.17968,2.02734 5.10937,4.90039 -6.74805,-0.0586 a 6.747251,7.5021253 0 0 1 0.0566,-0.81641 6.747251,7.5021253 0 0 1 0.0664,-0.47656 6.747251,7.5021253 0 0 1 0,-0.004 l 0.002,-0.0195 0.01,-0.0371 a 6.747251,7.5021253 0 0 1 0.002,-0.008 6.747251,7.5021253 0 0 1 0.28125,-1.125 v -0.002 l 0.0234,-0.0918 0.0371,-0.0859 a 6.747251,7.5021253 0 0 1 0,-0.002 6.747251,7.5021253 0 0 1 0.46094,-1.06055 l 0.004,-0.008 0.01,-0.0254 0.008,-0.0137 a 6.747251,7.5021253 0 0 1 0.006,-0.01 6.747251,7.5021253 0 0 1 0.24024,-0.41406 6.747251,7.5021253 0 0 1 0.43164,-0.64258 z m 15.93945,3.44336 a 6.8592242,9.4455979 3.3970735 0 1 0.13086,0.99219 6.8592242,9.4455979 3.3970735 0 1 0.0488,0.59961 l 0.002,0.008 0.004,0.0332 -0.002,0.0742 v 0.0195 a 6.8592242,9.4455979 3.3970735 0 1 -0.0137,1.42774 6.8592242,9.4455979 3.3970735 0 1 0,0.0234 l -0.002,0.10742 -0.0156,0.10351 v 0.006 a 6.8592242,9.4455979 3.3970735 0 1 -0.19531,1.41602 6.8592242,9.4455979 3.3970735 0 1 -0.002,0.01 l -0.0137,0.0977 -0.01,0.0371 -0.002,0.004 a 6.8592242,9.4455979 3.3970735 0 1 -0.13477,0.57617 6.8592242,9.4455979 3.3970735 0 1 -0.27734,0.96093 l -6.17383,-3.8125 z m -7.1875,4.2168 5.78516,4.90234 a 7.3597095,8.2271328 72.893243 0 1 -0.67188,0.57227 7.3597095,8.2271328 72.893243 0 1 -0.39648,0.29883 7.3597095,8.2271328 72.893243 0 1 -0.01,0.006 l -0.0273,0.0215 -0.0684,0.0391 -0.002,0.002 a 7.3597095,8.2271328 72.893243 0 1 -1.04883,0.61524 7.3597095,8.2271328 72.893243 0 1 -0.008,0.004 l -0.10742,0.0625 -0.11328,0.043 -0.004,0.002 a 7.3597095,8.2271328 72.893243 0 1 -1.10547,0.42968 7.3597095,8.2271328 72.893243 0 1 -0.0254,0.01 l -0.0918,0.0352 -0.041,0.01 a 7.3597095,8.2271328 72.893243 0 1 -0.0137,0.004 7.3597095,8.2271328 72.893243 0 1 -0.48437,0.12695 7.3597095,8.2271328 72.893243 0 1 -0.87696,0.17578 z"
       style="fill:#fce94f;fill-rule:evenodd;stroke:#f18d27;stroke-width:0;stroke-miterlimit:2.2;paint-order:stroke fill markers"
       id="path158" />
    <path
       d="m 263.77527,111.52303 a 6.747251,7.5021253 0 0 0 -1.63868,4.8418 l 6.74805,0.0586 z"
       style="fill:#ffcf5c;stroke:#fab758;stroke-width:0;stroke-miterlimit:2.2;paint-order:stroke fill markers"
       id="path157" />
    <path
       d="m 271.4823,108.84725 a 7.5448095,8.6610266 72.737949 0 0 -5.72656,1.69531 l 4.84179,5.95313 z"
       style="fill:#ffcf5c;stroke:#fab758;stroke-width:0;stroke-miterlimit:2.2;paint-order:stroke fill markers"
       id="path156" />
    <path
       d="m 273.95495,109.49569 -2.29296,7.32422 7.06445,-4.09375 a 8.5445842,7.6568955 8.4087005 0 0 -4.77149,-3.23047 z"
       style="fill:#ffcf5c;stroke:#fab758;stroke-width:0;stroke-miterlimit:2.2;paint-order:stroke fill markers"
       id="path155" />
    <path
       d="m 279.71472,114.96639 -6.65625,2.68359 6.17383,3.8125 a 6.8592242,9.4455979 3.3970735 0 0 0.48242,-6.49609 z"
       style="fill:#ffcf5c;stroke:#fab758;stroke-width:0;stroke-miterlimit:2.2;paint-order:stroke fill markers"
       id="path154" />
    <path
       d="m 272.52722,119.18319 0.68945,7.35937 a 7.3597095,8.2271328 72.893243 0 0 5.09571,-2.45703 z"
       style="fill:#ffcf5c;stroke:#fab758;stroke-width:0;stroke-miterlimit:2.2;paint-order:stroke fill markers"
       id="path153" />
    <path
       d="m 238.14636,125.85897 1.3125,12.00391 3.06641,10.82031 3.81836,5.77344 5.01953,3.28711 1.83398,0.34375 6.49414,-0.20118 5.80469,-3.32226 1.16992,-1.63672 0.79883,-1.16797 0.19336,-0.31445 -0.002,-0.0176 v -0.002 h -0.002 v -0.002 -0.002 -0.004 -0.002 l 0.041,-0.21289 0.002,-0.002 0.16602,-0.47852 0.55468,-1.36523 0.8418,-1.92969 1.48633,-5.79883 0.61914,-10.51758 -0.47266,-5.17383 z m 5.8125,4.04297 0.0996,0.002 c 3.75319,0.0612 7.50853,0.12249 11.26172,0.18359 l 0.0957,0.002 0.002,0.0957 c 0.0659,3.34021 0.13128,6.68128 0.19727,10.02149 l 0.0625,0.125 h -0.16211 c -3.85507,0.007 -7.70942,0.0123 -11.56445,0.0195 h -0.10156 v -0.10157 c 0.0357,-3.41545 0.0737,-6.83064 0.10937,-10.24609 z m 16.79883,8.70898 0.0723,0.0566 c 2.66933,2.06067 5.33851,4.12097 8.00782,6.18164 l 0.0801,0.0645 -7.04101,8.33008 -0.0742,-0.0547 c -2.79067,-2.06068 -5.58042,-4.12097 -8.37109,-6.18164 l -0.0879,-0.0645 0.0723,-0.0801 c 0.0223,-0.025 0.0442,-0.0511 0.0664,-0.0762 l -0.0137,-0.01 -0.0859,-0.0625 0.0703,-0.0781 7.07031,-7.95508 0.0606,-0.0664 0.0703,0.0547 0.0293,0.0234 c 0.004,-0.004 0.008,-0.009 0.0117,-0.0137 z"
       style="baseline-shift:baseline;display:inline;overflow:visible;vector-effect:none;fill:#f18d27;stroke-width:1.02905;enable-background:accumulate;stop-color:#000000;stop-opacity:1"
       id="path152" />
    <path
       d="m 237.54284,124.89217 c 0.0955,1.29527 0.22086,2.58697 0.38282,3.87305 v 0.006 l 0.002,0.008 c 0.215,3.1466 0.53359,6.29904 1.08008,9.40234 l 0.004,0.0215 0.006,0.041 1.02149,4.63672 1.4707,4.51758 0.004,0.0117 0.002,0.008 c 0.22693,0.75906 0.51347,1.49551 0.8457,2.21094 v 0.002 c 0.33074,0.71194 0.70852,1.4042 1.12305,2.07422 4.7e-4,7.6e-4 0.001,0.001 0.002,0.002 0.24148,0.39017 0.49536,0.77408 0.75977,1.15039 0.19237,0.27322 0.38946,0.54241 0.5918,0.80859 5.5e-4,7.3e-4 0.001,0.001 0.002,0.002 v 0.002 c 0.48051,0.63187 0.98813,1.24373 1.51172,1.83593 0.24693,0.20326 0.49656,0.40352 0.75,0.59961 l 0.002,0.002 v 0.002 c 7e-4,5.4e-4 0.003,-5.4e-4 0.004,0 l 0.0117,0.008 2.59179,1.70117 c 0.002,9.6e-4 0.004,0.001 0.006,0.002 0.003,0.002 0.006,0.004 0.01,0.006 0.48807,0.25387 0.98984,0.47439 1.50781,0.65234 l 0.0195,0.006 1.5293,0.38086 h 0.004 c 0.004,6e-4 0.008,0.001 0.0117,0.002 l 0.002,0.002 0.006,0.002 h 0.004 l 0.008,0.002 c 0.091,0.0209 0.17887,0.048 0.26367,0.0781 5.7e-4,2e-4 0.001,-2.1e-4 0.002,0 0.0848,0.0302 0.16572,0.0649 0.24414,0.10351 5.3e-4,2.6e-4 0.001,-2.6e-4 0.002,0 l 6.05079,-0.18945 c 0.32771,-0.35697 0.75937,-0.62519 1.29101,-0.74024 0.0201,-0.008 0.0405,-0.0158 0.0606,-0.0234 0.003,-0.001 0.006,-0.003 0.01,-0.004 l 2.20118,-1.06055 c 0.001,-7.5e-4 0.003,-0.001 0.004,-0.002 0.008,-0.005 0.0156,-0.009 0.0234,-0.0137 0.0118,-0.007 0.0233,-0.0143 0.0352,-0.0215 0.002,-0.002 0.003,-0.002 0.006,-0.004 l 0.006,-0.004 1.9668,-1.46679 c 0.001,-0.001 0.003,-0.003 0.004,-0.004 0.0155,-0.0141 0.0314,-0.0288 0.0469,-0.043 0.59552,-0.5844 1.14528,-1.21116 1.64649,-1.87305 0.23766,-0.32449 0.45172,-0.66525 0.67187,-1.00195 l 0.38477,-0.5625 c 0.0555,-0.0925 0.11018,-0.18574 0.16406,-0.2793 0.20559,-0.36811 0.38364,-0.75091 0.56836,-1.13086 l 0.26562,-0.51953 c 0.0147,-0.0327 0.0344,-0.0629 0.0488,-0.0957 0.30843,-0.70063 0.57433,-1.42186 0.79492,-2.1582 l 0.002,-0.006 0.004,-0.008 c 1.60983,-4.37135 2.09413,-9.08868 2.39453,-13.74023 -0.0686,-3.0481 -0.0678,-6.09958 -0.26367,-9.12695 z m 0.60352,0.9668 32.74609,0.0781 0.47266,5.17383 -0.61914,10.51758 -1.48633,5.79883 -0.8418,1.92969 -0.55468,1.36523 -0.16602,0.47852 -0.002,0.002 -0.041,0.21289 v 0.002 0.004 0.002 0.002 h 0.002 v 0.002 l 0.002,0.0176 -0.19336,0.31445 -0.79883,1.16797 -1.16992,1.63672 -5.80469,3.32226 -6.49414,0.20118 -1.83398,-0.34375 -5.01953,-3.28711 -3.81836,-5.77344 -3.06641,-10.82031 z"
       style="baseline-shift:baseline;display:inline;overflow:visible;vector-effect:none;fill:none;fill-rule:evenodd;enable-background:accumulate;stop-color:#000000;stop-opacity:1"
       id="path151" />
    <path
       d="m 236.77136,116.73592 v 0.24219 c 0.0189,3.95071 0.18486,7.91422 0.67773,11.83398 0.43374,6.34805 1.27751,12.75255 3.60743,18.74219 v 0.002 c 0.93801,3.13628 2.81891,5.87643 4.94531,8.2793 l 0.0117,0.0137 0.0156,0.0117 c 1.93777,1.59687 4.10895,3.08216 6.69727,3.47852 l -0.0176,-0.002 c 0.5566,0.12773 0.94874,0.45933 1.20508,0.90625 0.25634,0.44692 0.36593,1.01125 0.32226,1.56445 l -0.002,0.0156 0.002,0.0156 c 0.32093,6.32184 0.79011,12.64008 0.84571,18.95312 v 0.0117 0.0117 c 0.0713,0.65833 -0.13628,1.21622 -0.51367,1.69336 -0.37739,0.47715 -0.92862,0.86529 -1.51172,1.13086 l -0.01,0.004 -0.008,0.004 c -3.21187,1.811 -6.13726,4.06095 -8.76172,6.64258 -1.2257,1.11788 -2.45203,2.23564 -3.67773,3.35352 l -0.20118,0.18359 0.68164,0.57812 h 33.3711 l 0.0625,-0.14453 c 0.11486,-0.26512 0.0998,-0.54889 0.0137,-0.80273 -0.0861,-0.25384 -0.23771,-0.48918 -0.41211,-0.71094 -0.34879,-0.4435 -0.80188,-0.84306 -1.07031,-1.13281 l -0.002,-0.002 -0.002,-0.004 c -3.52355,-3.56768 -7.56873,-6.56952 -11.95117,-8.99414 -0.86386,-0.61118 -1.17912,-1.46581 -1.31055,-2.45313 -0.13094,-0.9836 -0.0593,-2.07752 -0.14648,-3.08593 v -0.0117 c -0.19933,-5.31415 -0.53406,-10.63252 -0.57813,-15.92969 0.003,-0.58397 0.14946,-1.16823 0.4375,-1.62695 0.28836,-0.45924 0.70715,-0.7951 1.29688,-0.91797 l 0.0176,-0.004 0.0176,-0.006 c 1.68496,-0.62962 3.2107,-1.53317 4.54102,-2.7539 l 0.002,-0.002 0.004,-0.004 c 2.19801,-2.15697 3.77935,-4.86572 4.66406,-7.81055 1.63812,-4.44818 2.12267,-9.21392 2.42383,-13.87891 l 0.002,-0.01 v -0.01 c -0.11685,-5.17418 -0.027,-10.40243 -1.06445,-15.54101 0.0907,-0.72591 -0.15254,-1.25205 -0.5957,-1.50391 -0.44594,-0.25344 -1.02006,-0.25243 -1.61328,-0.14844 -10.72456,-0.0596 -21.44928,-0.1201 -32.17383,-0.17968 z m 0.49414,0.48438 c 10.64647,0.0592 21.29299,0.11665 31.93945,0.17578 h 0.0215 l 0.0215,-0.004 c 0.54436,-0.0978 1.03043,-0.0715 1.31446,0.0899 0.28403,0.16142 0.44085,0.4328 0.35156,1.06445 l -0.006,0.041 0.01,0.041 c 1.03063,5.07736 0.94567,10.28089 1.0625,15.47461 -0.3004,4.65155 -0.7847,9.36888 -2.39453,13.74023 l -0.004,0.008 -0.002,0.006 c -0.86184,2.87681 -2.40464,5.52076 -4.54492,7.62109 -1.27719,1.17045 -2.73916,2.03755 -4.36328,2.64648 -0.70992,0.15362 -1.24291,0.58065 -1.58594,1.12696 -0.34619,0.55132 -0.50853,1.22052 -0.51172,1.88281 v 0.002 0.002 c 0.0443,5.31864 0.37916,10.64522 0.57813,15.95507 l 0.002,0.006 v 0.006 c 0.0839,0.95645 0.008,2.0642 0.14844,3.11914 0.14044,1.05493 0.51776,2.07801 1.51172,2.78125 l 0.01,0.0117 0.0117,0.008 c 4.35341,2.40598 8.36814,5.38686 11.86328,8.92578 0.29873,0.32156 0.73132,0.70632 1.03907,1.09765 0.15472,0.19673 0.27482,0.39407 0.33398,0.56836 0.0404,0.11917 0.0146,0.21344 0,0.3125 h -32.81445 l -0.13086,-0.11133 c 1.15999,-1.05795 2.32048,-2.11587 3.48047,-3.17382 l 0.006,-0.004 0.002,-0.002 c 2.59546,-2.5531 5.48579,-4.77623 8.65625,-6.56446 h 0.002 v -0.002 -0.002 h 0.002 c 0.63189,-0.29049 1.23503,-0.70799 1.66992,-1.25782 0.43826,-0.5541 0.70135,-1.25053 0.61719,-2.03906 -0.0565,-6.32117 -0.52355,-12.63589 -0.84375,-18.9375 0.0481,-0.63689 -0.0762,-1.28479 -0.38672,-1.82617 -0.31254,-0.5449 -0.82452,-0.97857 -1.51367,-1.13672 l -0.0117,-0.002 -0.008,-0.004 c -2.44313,-0.37413 -4.53727,-1.78912 -6.44726,-3.36133 -2.09509,-2.36964 -3.92822,-5.05162 -4.83594,-8.08789 l -0.002,-0.008 -0.004,-0.0117 c -2.30722,-5.92319 -3.14926,-12.28536 -3.58203,-18.61914 l -0.002,-0.008 v -0.006 c -0.48066,-3.81673 -0.63572,-7.683 -0.66016,-11.54492 z"
       style="baseline-shift:baseline;display:inline;overflow:visible;opacity:1;vector-effect:none;enable-background:accumulate;stop-color:#000000;stop-opacity:1"
       id="path150" />
    <path
       d="m 260.63994,139.16643 -6.92773,7.79297 7.96093,5.88281 6.57813,-7.79297 z"
       style="baseline-shift:baseline;display:inline;overflow:visible;vector-effect:none;fill:#d4fbfc;fill-rule:evenodd;enable-background:accumulate;stop-color:#000000;stop-opacity:1"
       id="path149" />
    <path
       d="m 260.58386,138.76828 -0.0606,0.0664 -7.07031,7.95508 -0.0703,0.0781 0.0859,0.0625 8.13086,6.01172 0.0723,0.0527 6.83984,-8.09961 -0.0781,-0.0625 -7.7793,-6.00976 z m 0.0254,0.27539 7.61133,5.88281 -6.57813,7.79297 -7.96093,-5.88281 z"
       style="baseline-shift:baseline;display:inline;overflow:visible;vector-effect:none;fill-rule:evenodd;enable-background:accumulate;stop-color:#000000;stop-opacity:1"
       id="path148" />
    <path
       d="m 244.45886,130.3453 c -0.034,3.25489 -0.0656,6.51074 -0.0996,9.76562 3.67867,-0.007 7.3565,-0.0116 11.03516,-0.0176 -0.0629,-3.19085 -0.12656,-6.38141 -0.18946,-9.57226 -3.58233,-0.0584 -7.16378,-0.11738 -10.74609,-0.17578 z"
       style="baseline-shift:baseline;display:inline;overflow:visible;vector-effect:none;fill:#d4fbfc;enable-background:accumulate;stop-color:#000000;stop-opacity:1"
       id="path147" />
    <path
       d="m 244.26745,130.14803 v 0.0977 c -0.0347,3.32064 -0.0708,6.64225 -0.10546,9.96289 v 0.0976 h 0.0976 c 3.7444,-0.007 7.48994,-0.0129 11.23438,-0.0195 h 0.15625 l -0.0606,-0.12109 c -0.0641,-3.24749 -0.12737,-6.4947 -0.19141,-9.74219 l -0.002,-0.0937 -0.0937,-0.002 c -3.64548,-0.0594 -7.29202,-0.11826 -10.9375,-0.17774 z m 0.19141,0.19727 c 3.58231,0.0584 7.16376,0.11741 10.74609,0.17578 0.0629,3.19085 0.12652,6.38141 0.18946,9.57226 -3.67866,0.006 -7.35649,0.0107 -11.03516,0.0176 0.034,-3.25488 0.0656,-6.51073 0.0996,-9.76562 z"
       style="baseline-shift:baseline;display:inline;overflow:visible;vector-effect:none;enable-background:accumulate;stop-color:#000000;stop-opacity:1"
       id="path146" />
    <path
       d="m 279.23425,110.00741 0.13281,0.002 a 0.13258252,0.22097087 0 0 1 0,-0.002 z"
       style="fill:#fce94f;stroke:#f18d27;stroke-width:0;stroke-miterlimit:2.2;paint-order:stroke fill markers"
       id="path145" />
  </g>
</svg>
