<?xml version="1.0" encoding="UTF-8" standalone="no"?>
<!-- Created with Inkscape (http://www.inkscape.org/) -->

<svg
   version="1.1"
   id="svg1"
   width="261.504"
   height="109.34136"
   viewBox="0 0 261.504 109.34136"
   sodipodi:docname="drink_v2.svg"
   inkscape:version="1.4.3 (1:1.4.3+202512261035+0d15f75042)"
   xmlns:inkscape="http://www.inkscape.org/namespaces/inkscape"
   xmlns:sodipodi="http://sodipodi.sourceforge.net/DTD/sodipodi-0.dtd"
   xmlns:xlink="http://www.w3.org/1999/xlink"
   xmlns="http://www.w3.org/2000/svg"
   xmlns:svg="http://www.w3.org/2000/svg"
   xmlns:inkstitch="http://inkstitch.org/namespace">
  <sodipodi:namedview
     id="namedview1"
     pagecolor="#ffffff"
     bordercolor="#000000"
     borderopacity="0.25"
     inkscape:showpageshadow="2"
     inkscape:pageopacity="0.0"
     inkscape:pagecheckerboard="0"
     inkscape:deskcolor="#d1d1d1"
     inkscape:document-units="in"
     inkscape:zoom="4"
     inkscape:cx="177.875"
     inkscape:cy="51.25"
     inkscape:window-width="1874"
     inkscape:window-height="900"
     inkscape:window-x="36"
     inkscape:window-y="46"
     inkscape:window-maximized="0"
     inkscape:current-layer="g1" />
  <metadata
     id="metadata1870">
    <inkstitch:min_stitch_len_mm>0.25</inkstitch:min_stitch_len_mm>
    <inkstitch:collapse_len_mm>3.0</inkstitch:collapse_len_mm>
    <inkstitch:inkstitch_svg_version>3</inkstitch:inkstitch_svg_version>
  </metadata>
  <defs
     id="defs1">
    <linearGradient
       id="swatch2063"
       inkscape:swatch="solid">
      <stop
         style="stop-color:#000000;stop-opacity:1;"
         offset="0"
         id="stop2063" />
    </linearGradient>
    <inkscape:path-effect
       effect="show_handles"
       id="path-effect2051"
       is_visible="true"
       lpeversion="1"
       nodes="false"
       handles="true"
       original_path="true"
       show_center_node="true"
       original_d="true"
       scale_nodes_and_handles="1" />
  </defs>
  <g
     inkscape:groupmode="layer"
     inkscape:label="Image"
     id="g1"
     transform="translate(-669.248, -279.829)">
    <image
       width="261.504"
       height="109.34136"
       preserveAspectRatio="none"
       xlink:href="drink.jpg"
       id="image1"
       x="670.23077"
       y="279.50171"
       inkscape:transform-center-x="-32.104803"
       inkscape:transform-center-y="183.45602" />
    <g
       id="g1882"
       transform="translate(0.717932, 0.163734)">
      <path
         style="fill:#cce9ec"
         d="m 803.11228,339.67884 c -0.64368,-0.43582 -1.01697,-0.75587 -1.75739,-1.42049 -0.83572,-0.58741 -1.65328,-1.15962 -2.43881,-1.83002 -0.8946,-0.61582 -1.34633,-1.21961 -2.09516,-1.52549 -1.03539,-0.55541 -1.57746,-1.42502 -0.14654,-2.24353 0.60703,-0.88916 1.48277,-1.62312 2.18272,-2.4529 0.94342,-1.12616 2.11053,-2.22111 3.0562,-3.41413 0.96749,0.52747 1.4393,0.88274 2.35839,1.72322 1.12915,0.65969 2.21629,1.57892 3.14319,2.55163 -0.56164,-0.81578 0.97932,0.53065 1.44772,0.87394 1.2542,0.86807 -0.8087,1.30341 -0.68939,2.12597 -0.72105,0.60777 -1.68131,1.71468 -1.90194,2.14107 -1.00832,1.26583 -2.10276,2.4565 -3.15512,3.68478 l -0.004,-0.20269 z m -14.94911,-16.0152 c -0.0782,-1.80496 -0.16327,-3.60961 -0.25159,-5.4141 1.89486,0.38081 0.92931,-0.24295 2.23381,-0.12497 1.63909,0.1349 3.23132,-0.3941 4.89451,-0.26614 1.37158,-0.20695 2.0976,-0.0681 2.00346,1.15006 0.15531,2.13723 0.39174,4.28838 0.7122,6.41189 -1.17315,0.62402 -2.52974,0.27963 -3.80111,0.38515 -0.49541,0.6408 -2.17124,0.14732 -3.12801,0.35484 -1.12265,-0.10785 -3.08745,0.68918 -2.60325,-1.14524 -0.02,-0.45049 -0.04,-0.90099 -0.06,-1.35149 z"
         id="path1888" />
      <path
         style="fill:#fae558"
         d="m 816.21538,312.81078 c -0.48314,-1.46079 -0.32386,-1.51371 1.03933,-1.43869 0.64285,-0.46424 2.86079,-0.7701 2.2483,-1.71865 -1.48781,-1.61015 -2.97561,-3.2203 -4.46341,-4.83045 0.0799,-0.94 -0.24168,-2.39808 -1.48724,-1.94936 -3.04888,0 -6.09775,0 -9.14662,0 -0.43961,-1.76289 0.60252,-3.53917 1.32409,-5.12636 1.46747,-2.27986 3.88059,-3.91595 6.52776,-4.4208 2.29967,-0.23066 4.6951,-0.17485 6.7196,1.08464 1.51202,0.60681 2.51053,2.02956 3.59732,3.16928 1.57485,2.59255 2.18282,5.77279 1.28031,8.70528 -0.67037,1.63109 -1.40452,3.25008 -2.83891,4.35704 -1.20783,1.25882 -2.92986,1.98768 -4.60388,2.36422 l -0.14353,-0.14316 z m 6.177,-5.96031 c 0.38255,-1.03049 0.78681,-2.25817 0.45629,-3.32308 -2.38841,-0.0517 -4.77195,0.10019 -7.15639,0.21412 1.06,1.84713 2.86564,3.36402 4.31731,4.98746 0.72481,1.39428 1.68859,-0.62319 2.16638,-1.30466 0.0721,-0.19128 0.14427,-0.38256 0.21641,-0.57384 z m -2.80817,-4.23843 c 0.94279,-0.287 3.09349,0.41149 3.25225,-0.51518 -0.30565,-1.71597 -0.87282,-3.57346 -2.28265,-4.69847 -1.64184,1.8034 -3.53932,3.50184 -5.02254,5.37038 1.01551,-0.01 2.77365,-0.14484 4.05294,-0.15673 z m -7.02879,-0.36953 c -1.45655,-1.81704 -2.9679,-3.59737 -4.52132,-5.33444 -1.35911,1.18057 -2.52758,2.9626 -2.4346,4.75293 2.32127,0.41989 4.77657,0.75259 7.16953,0.88577 l -0.11648,-0.16591 z m 6.02699,-4.11679 c 1.03717,-0.81416 1.97962,-1.87084 0.17444,-2.39926 -0.93789,-0.66328 -2.18357,-1.08749 -3.28213,-1.13969 -0.56305,0.85833 -0.24128,2.37584 -0.47292,3.48106 -0.10556,1.35646 -0.20482,2.71339 -0.30322,4.07038 1.29311,-1.33895 2.58354,-2.68049 3.88383,-4.01249 z m -4.71287,2.78004 c 0.0549,-2.1526 0.24827,-4.30505 0.43325,-6.44929 -1.96719,-0.32622 -3.8059,0.66943 -5.47524,1.59321 0.93159,1.69872 2.54766,3.14529 3.78928,4.70857 0.55491,0.59873 1.40067,2.01668 1.25271,0.14751 z"
         id="path1887" />
      <path
         style="fill:#f1b02f"
         d="m 816.12226,310.20114 c 0.0452,-1.6013 -0.68183,-3.20419 -0.49548,-4.76063 1.38212,1.50522 2.76424,3.01044 4.14636,4.51566 -0.91125,0.90863 -2.26761,1.41459 -3.54112,1.60692 -0.0366,-0.45398 -0.0732,-0.90797 -0.10976,-1.36195 z m 3.46527,-1.90995 c -1.32761,-1.43736 -2.81928,-2.83954 -3.89516,-4.43792 1.40363,-0.31105 3.28169,-0.22237 4.87001,-0.32588 0.91338,0.1214 2.92631,-0.53036 2.37735,1.06453 -0.13359,1.83865 -0.91983,3.55924 -2.3045,4.78567 -0.34923,-0.36213 -0.69847,-0.72427 -1.0477,-1.0864 z m -4.05643,-5.52242 c 1.48383,-1.86828 3.38026,-3.56716 5.02254,-5.37038 1.51836,1.21832 2.05602,3.24972 2.35019,5.09825 -2.44774,0.0834 -4.96575,0.16846 -7.37273,0.27213 z m -6.84377,-0.63758 c -0.89589,-0.40529 -3.1033,0.23642 -3.09514,-0.95483 0.17141,-1.68726 1.19154,-3.16946 2.44187,-4.26833 1.61884,1.84285 3.25585,3.68274 4.73489,5.63868 -1.37223,0.007 -2.72145,-0.26834 -4.08162,-0.41552 z m 6.09476,-1.13712 c 0.15324,-2.10901 0.32013,-4.21701 0.47954,-6.32556 1.02745,-0.27539 2.22966,0.38519 3.16153,0.84221 1.47633,0.54869 1.87924,1.48404 0.3878,2.38001 -1.37661,1.41014 -2.74378,2.82943 -4.11235,4.24736 0.0278,-0.38134 0.0557,-0.76268 0.0835,-1.14402 z m -2.56349,-0.69521 c -1.10524,-1.41085 -2.58916,-2.70845 -3.39071,-4.24922 1.66855,-0.9198 3.50843,-1.92785 5.47524,-1.59321 -0.19623,2.41866 -0.44732,4.84327 -0.43925,7.27318 -0.58957,0.34125 -1.13819,-1.11142 -1.64528,-1.43075 z"
         id="path1886" />
      <path
         style="fill:#de9953"
         d="m 796.40645,346.35397 c -1.28545,-0.85324 -3.043,-0.71121 -4.32778,-1.67633 -4.6478,-2.66467 -7.27873,-7.71589 -8.79718,-12.68308 -1.76296,-5.51063 -2.20231,-11.3205 -2.76147,-17.04809 10.64322,-0.11301 21.35051,0.0356 32.01833,0.023 1.24898,-0.004 2.863,-0.40108 2.41289,1.42107 0.22143,4.4642 -0.11822,8.98634 -0.96274,13.37885 -0.88733,4.20754 -2.19956,8.5621 -5.11956,11.81816 -1.67213,1.94002 -3.85578,3.35338 -6.30748,4.0995 -0.69171,1.16511 -1.98535,0.88423 -3.14269,0.93077 -0.96047,-0.13476 -2.25183,0.41365 -3.01232,-0.26385 z m 5.23638,-0.30473 c 2.76775,-1.43107 5.86043,-2.66135 7.62946,-5.38782 2.16513,-2.68187 3.33778,-6.0307 4.07142,-9.34923 0.38075,-1.60986 0.81899,-3.21263 0.95204,-4.889 0.37296,-3.63364 0.46665,-7.2903 0.41596,-10.94265 -2.64016,-0.40672 -5.3898,-0.0875 -8.07261,-0.21135 -8.45029,-0.0427 -16.90058,-0.0855 -25.35087,-0.12825 -0.97346,0.59167 -0.0847,2.15646 -0.21916,3.15217 0.60219,3.47646 0.66554,7.02951 1.6042,10.45059 0.76435,3.46465 2.01715,6.87898 3.80466,9.94239 2.0921,3.4028 5.3331,6.34402 9.36468,7.08148 0.96972,0.58044 2.00029,0.69663 3.15409,0.58097 0.87446,-0.10601 1.89336,0.26675 2.64613,-0.2993 z m 1.10309,-5.16962 c -1.60061,-0.71355 -2.78834,-2.17962 -4.28468,-3.11964 -1.21876,-1.24004 -3.14983,-1.96018 -4.01603,-3.44583 -0.28899,-1.93569 1.88421,-2.89032 2.81495,-4.31728 1.3696,-1.50308 2.71554,-3.15189 4.25755,-4.42186 1.65899,-0.41851 2.67402,1.50521 3.98548,2.22613 1.42197,1.25859 3.08238,2.25753 4.54078,3.41925 0.85191,0.88846 0.64528,2.05412 -0.25392,2.81647 -1.92332,2.16793 -3.72301,4.43652 -5.62016,6.61925 -0.51093,0.26049 -0.85123,0.61037 -1.42397,0.22351 z m 0.91401,-0.18472 c 1.84099,-1.7211 3.34525,-3.91828 5.05027,-5.82728 0.63361,-0.95524 2.336,-2.11868 1.29043,-3.27861 -2.42462,-2.06035 -5.08167,-3.8403 -7.56465,-5.83377 -1.45008,-0.29177 -1.98294,1.49764 -2.97532,2.24439 -1.61735,1.76928 -3.2347,3.53857 -4.85205,5.30786 -0.33287,1.66617 1.7074,2.23884 2.68389,3.21259 1.92061,1.33751 3.65167,2.92333 5.56085,4.27164 0.2737,-0.0174 0.55863,0.0606 0.80658,-0.0968 z m -15.83975,-13.28433 c -1.28039,-0.61855 -0.58706,-2.41659 -0.91366,-3.56929 -0.17678,-1.97581 -0.21726,-3.9597 -0.31216,-5.94036 0.95974,-1.3518 2.84256,-0.79592 4.28281,-1.05877 2.19465,-0.0316 4.50742,-0.45962 6.63124,-0.11124 1.08729,0.69456 0.55208,2.27951 0.91428,3.37949 0.24847,1.94285 0.57657,3.95621 0.50312,5.8836 -0.33825,1.22975 -1.99906,0.7171 -2.96434,1.11996 -2.56602,0.52322 -5.20672,0.28788 -7.80876,0.44519 l -0.18509,-0.0827 z m 7.27875,-0.51175 c 1.11105,-0.29043 2.61927,0.0988 3.4734,-0.69403 0.42815,-1.57205 -0.2207,-3.31952 -0.2712,-4.95813 -0.29421,-1.42493 -0.0791,-3.01 -0.76003,-4.31333 -2.20468,-0.43388 -4.50722,0.13354 -6.75124,0.10216 -1.20079,0.14713 -2.7212,-0.056 -3.67492,0.66769 -0.4762,1.30883 0.0341,2.92899 -0.0529,4.36064 0.13597,1.54622 0.0231,3.1952 0.35961,4.67566 1.10082,1.09584 2.96433,0.40345 4.39742,0.48176 1.09637,-0.0633 2.1863,-0.22167 3.27986,-0.32242 z"
         id="path1885" />
      <path
         style="fill:#f18d27"
         d="m 796.6374,346.11605 c -1.51922,-0.68533 -3.31014,-0.84234 -4.7256,-1.85038 -2.78048,-1.68707 -4.8588,-4.31541 -6.33742,-7.17415 -1.83243,-3.76508 -2.92768,-7.80825 -3.64533,-11.91996 -0.3083,-3.25536 -0.86233,-6.48286 -1.10024,-9.74406 1.28016,-0.64241 2.89611,-0.10017 4.31109,-0.26694 9.72832,0.088 19.47998,0.0213 29.19379,0.20552 0.84489,0.53473 0.16132,2.20293 0.37709,3.20419 -0.0858,3.81641 -0.13473,7.71609 -1.06186,11.42688 -0.38917,1.53217 -0.6059,3.11448 -1.23296,4.59849 -1.01863,3.29712 -2.8886,6.46974 -5.63105,8.59879 -1.71829,1.37057 -3.83593,2.03269 -5.70779,3.15437 -1.40962,-0.0861 -2.92524,0.16386 -4.2736,-0.11634 l -0.16602,-0.11634 z m 8.03513,-6.00502 c 1.89144,-2.48506 4.15108,-4.69181 5.95148,-7.24616 0.028,-2.27937 -2.72601,-2.74388 -3.99824,-4.19481 -1.56063,-1.00133 -2.77459,-2.58445 -4.5216,-3.24224 -1.54466,0.34725 -2.28899,2.06699 -3.47707,3.02573 -1.33861,1.64251 -2.93384,3.05926 -4.18193,4.7691 -0.34948,1.25509 0.61987,2.01426 1.55436,2.65491 2.17993,1.52664 4.19806,3.29936 6.33537,4.86082 0.89536,0.57525 1.75524,0.1797 2.33763,-0.62735 z m -9.43541,-12.8769 c 1.19856,-0.42971 2.8737,0.0195 3.70265,-1.04081 0.0893,-3.04178 -0.5768,-5.99897 -0.87701,-9.0142 -1.04082,-1.09731 -2.74391,-0.39296 -4.09673,-0.50626 -2.22818,0.21444 -4.618,0.0377 -6.738,0.59357 -1.19807,0.84349 -0.33144,2.49091 -0.501,3.73488 0.1523,1.98089 0.13701,4.06954 0.53111,5.97385 1.04652,1.11606 2.81318,0.31525 4.17727,0.49593 1.26669,-0.076 2.55664,0.0452 3.80171,-0.23696 z"
         id="path1884" />
      <path
         style="fill:#0e0a08"
         d="m 783.38498,382.06841 c -1.22603,-0.34797 -1.12219,-2.10027 -0.0218,-2.58057 3.48074,-3.13598 6.74114,-6.59557 10.86434,-8.90766 1.24788,-0.81385 3.11423,-1.57626 2.83102,-3.38659 -0.14508,-6.31505 -0.611,-12.62327 -0.83371,-18.93824 -0.18643,-1.52757 -1.93963,-1.25662 -3.0518,-1.72151 -5.09369,-1.97583 -8.40818,-6.80299 -10.22764,-11.77462 -2.86101,-7.28727 -3.1501,-15.22419 -3.88456,-22.93161 -0.14522,-2.85273 -0.37515,-5.70313 -0.30566,-8.56172 0.84794,-0.84637 2.32206,-0.18101 3.43307,-0.39226 7.0198,0 14.03961,0 21.05941,0 0.14208,-3.76655 2.16566,-7.46542 5.53615,-9.26705 1.996,-1.21603 4.42424,-1.43376 6.71276,-1.34733 2.48993,0.48175 5.00214,1.41775 6.62694,3.45702 2.07479,1.91227 3.10848,4.82158 3.03401,7.61717 0.17565,2.36236 -0.79564,4.71672 -2.12991,6.60976 -1.28846,1.31612 -2.49985,2.7406 -4.31716,3.31321 -0.75037,0.84207 -2.96423,0.089 -2.5972,1.59193 0.28174,6.9321 -0.0753,14.01238 -2.39196,20.61151 -1.36763,3.93151 -3.75128,7.67319 -7.37467,9.87577 -0.98652,0.92067 -2.92224,0.77897 -3.48149,2.04686 0.0409,6.68268 0.36928,13.36056 0.72158,20.03281 0.40245,1.74447 2.45523,2.05905 3.71556,3.06023 3.90592,2.41171 7.49616,5.38624 10.5311,8.81948 0.70337,0.78413 1.17967,2.2413 0.13601,2.92877 -11.35521,0.0238 -22.71042,0.0476 -34.06563,0.0714 -0.17292,-0.0756 -0.34583,-0.15117 -0.51875,-0.22676 z m 34.0099,-1.04843 c -0.47884,-1.70354 -2.35575,-2.87019 -3.58119,-4.19455 -3.01093,-2.79487 -6.42202,-5.10784 -10.0128,-7.09221 -2.02789,-1.57267 -1.24828,-4.36368 -1.54366,-6.58262 -0.1703,-4.99708 -0.49574,-10.0052 -0.52862,-14.99703 9.7e-4,-1.22496 0.4532,-2.53334 1.80708,-2.74842 3.84183,-1.42133 6.75216,-4.67659 8.30597,-8.40859 2.3091,-5.07235 3.038,-10.73254 3.20036,-16.25911 -0.0284,-1.95032 -0.0567,-3.90065 -0.0851,-5.85098 -11.52927,-0.0277 -23.05854,-0.0555 -34.58781,-0.0832 0.82184,7.60257 1.34008,15.51694 4.93168,22.42637 1.7994,3.65627 4.7325,7.02814 8.66699,8.37583 1.40405,0.27247 3.29815,0.67169 3.29419,2.44774 0.42564,6.49201 0.71801,13.00287 0.96267,19.49798 0.0805,1.70115 -1.24446,2.81725 -2.644,3.49781 -3.38767,1.89074 -6.29848,4.44446 -9.07229,7.129 -0.96423,0.89579 -1.95479,1.76259 -2.93198,2.64411 1.18904,0.72975 2.78259,0.14843 4.13929,0.33474 9.86393,10e-4 19.72785,0.002 29.59178,0.004 z m -15.78905,-41.28405 c -2.23208,-1.82915 -4.72873,-3.44734 -6.8231,-5.37165 -0.4075,-1.46281 1.41048,-2.39011 2.14642,-3.47908 1.70628,-1.67969 3.0616,-3.77115 5.01826,-5.15708 2.01279,0.87926 3.51879,2.69221 5.3643,3.89967 0.91388,0.78588 2.16039,1.34757 2.88088,2.26381 0.3758,1.50973 -1.44652,2.45229 -2.14164,3.63218 -1.50881,1.6645 -2.78747,3.61205 -4.44131,5.0982 -0.77233,0.59031 -1.36702,-0.58452 -2.00381,-0.88605 z m 4.46034,-3.12902 c 1.14817,-1.37821 2.30858,-2.74628 3.44483,-4.13437 -2.18501,-2.07822 -4.85158,-3.70804 -7.18101,-5.66853 -1.14669,-0.0462 -1.75223,1.65564 -2.66594,2.33669 -1.41601,1.5916 -2.89278,3.13018 -4.25346,4.77008 2.57238,1.91752 5.08703,3.90968 7.60288,5.90029 1.11644,-0.33502 1.68672,-1.83886 2.58374,-2.64348 0.15632,-0.18689 0.31264,-0.37379 0.46896,-0.56068 z m -18.1586,-9.5788 c -0.92701,-0.66846 -0.48642,-2.31261 -0.69539,-3.38727 0.0547,-1.95955 -0.40978,-4.00232 -0.0241,-5.9088 1.25348,-0.66554 2.95159,-0.48148 4.39009,-0.6581 1.90953,-0.0643 3.81905,-0.12869 5.72857,-0.19304 0.94321,1.15324 0.53619,2.88466 0.88858,4.29088 0.10152,1.59823 0.56549,3.30429 0.38198,4.84481 -0.77172,0.97133 -2.39352,0.4772 -3.53209,0.81613 -2.28042,0.25494 -4.65159,0.44168 -6.90761,0.31907 l -0.17855,-0.096 z m 6.22994,-0.9483 c 1.23371,-0.1878 2.52645,-0.11564 3.72212,-0.47098 -0.32037,-2.6321 -0.57266,-5.27205 -0.86438,-7.90745 -2.95845,0.19589 -6.04439,0.0235 -8.91949,0.54761 -0.63472,0.88883 0.006,2.34377 -0.12666,3.45559 0.0569,1.57123 0.18366,3.13794 0.3147,4.70437 1.97192,0.0772 3.91623,-0.10903 5.87371,-0.32914 z m 20.79051,-12.62344 c -0.27229,-3.10286 -0.49303,-6.29904 -1.17196,-9.30056 -3.25777,-0.25987 -6.70815,-0.0579 -10.03999,-0.14018 -7.96628,-0.0266 -15.93255,-0.0531 -23.89882,-0.0797 0.1582,3.347 0.15528,6.7407 0.56178,10.05156 11.5313,0 23.0626,0 34.5939,0 -0.015,-0.17705 -0.0299,-0.35409 -0.0449,-0.53114 z m 2.24651,-0.54693 c 2.24014,-0.59544 4.15153,-2.08936 5.49109,-3.93833 1.56396,-2.47006 2.17111,-5.56298 1.32175,-8.38632 -0.53194,-1.8955 -1.54456,-3.67331 -3.08323,-4.93665 -1.12117,-1.17156 -2.75562,-1.82625 -4.28935,-2.26255 -2.99238,-0.81081 -6.43299,-0.077 -8.76702,1.93833 -1.24745,1.16896 -2.46312,2.36032 -2.99867,4.03157 -0.5084,1.09407 -0.58368,2.3383 -0.7897,3.51814 3.42848,0 6.85695,0 10.28543,0 0.97442,1.36676 0.73431,3.2808 1.13804,4.88767 0.30155,1.79002 0.3926,3.60615 0.59024,5.40905 0.38081,0.0202 0.73389,-0.18398 1.10142,-0.26091 z"
         id="path1883" />
    </g>
  </g>
</svg>
