<?xml version="1.0" encoding="UTF-8"?>
<!-- Generator: visioncortex VTracer 0.6.12 -->
<svg version="1.1" xmlns="http://www.w3.org/2000/svg" width="366" height="351">
<path d="M0,0 L366,0 L366,351 L0,351 Z M46,26 L44,30 L42,46 L39,56 L35,77 L31,88 L28,100 L28,103 L26,103 L23,113 L24,118 L33,119 L35,124 L340,124 L342,119 L350,118 L351,117 L350,110 L341,75 L339,75 L339,68 L336,55 L334,42 L331,28 L329,26 L305,26 L291,33 L290,46 L86,46 L85,34 L75,29 L72,29 L72,27 L70,26 Z M157,132 L158,141 L156,143 L156,170 L157,171 L212,171 L213,170 L213,140 L210,132 Z M102,132 L101,133 L101,242 L87,239 L86,211 L85,210 L66,209 L66,206 L85,205 L86,204 L86,189 L85,188 L67,187 L66,183 L85,183 L86,182 L86,149 L84,147 L65,147 L66,142 L77,141 L78,139 L77,137 L72,134 L71,133 L36,133 L35,134 L34,237 L24,237 L16,242 L8,250 L6,254 L6,267 L9,277 L11,279 L19,279 L20,284 L24,290 L30,292 L40,292 L55,290 L60,289 L77,292 L89,293 L101,293 L104,292 L112,292 L116,294 L129,296 L136,299 L145,298 L151,291 L158,280 L212,279 L214,285 L217,291 L222,296 L233,296 L238,293 L254,291 L263,291 L264,292 L275,292 L305,290 L310,289 L312,291 L323,292 L324,293 L340,293 L342,292 L342,290 L345,289 L348,284 L348,280 L357,280 L361,271 L362,268 L362,255 L356,247 L349,241 L349,237 L341,236 L340,133 L339,132 L299,132 L291,138 L291,141 L305,142 L306,146 L286,146 L285,147 L285,182 L286,183 L306,184 L306,188 L287,189 L286,190 L286,203 L287,204 L306,205 L306,209 L286,210 L285,211 L285,240 L276,240 L270,242 L269,133 L235,133 L232,141 L231,142 L231,203 L232,204 L258,204 L258,210 L232,211 L231,212 L230,242 L215,245 L214,212 L213,211 L156,211 L155,212 L155,248 L148,247 L147,244 L142,244 L141,142 L137,140 L137,132 Z M186,178 L185,184 L183,184 L182,179 L172,179 L171,180 L171,203 L172,204 L198,204 L199,203 L199,180 L198,179 Z M157,180 L156,181 L156,202 L157,203 L166,203 L167,202 L167,181 L166,180 Z M203,180 L203,202 L204,203 L214,203 L214,180 Z " fill="#FBFBFB" transform="translate(0,0)"/>
<path d="M0,0 L2,1 L1,2 L0,15 L0,34 L5,39 L11,44 L12,46 L18,48 L47,47 L49,43 L58,78 L59,85 L58,86 L50,87 L48,92 L45,91 L47,90 L47,86 L-256,86 L-258,90 L-259,87 L-268,86 L-269,81 L-266,71 L-264,71 L-262,60 L-259,50 L-256,47 L-252,48 L-242,47 L-232,46 L-224,47 L-221,47 L-216,42 L-208,35 L-208,2 L-207,2 L-206,14 L-2,14 L-1,1 Z " fill="#8A8A8A" transform="translate(292,32)"/>
<path d="M0,0 L1,0 L2,32 L12,31 L14,29 L15,30 L20,30 L24,28 L35,26 L44,27 L55,36 L59,41 L58,43 L55,49 L47,58 L43,60 L41,63 L34,64 L34,66 L13,66 L10,64 L7,55 L5,55 L2,62 L-3,67 L-7,69 L-16,69 L-22,67 L-28,62 L-29,59 L-35,59 L-46,64 L-74,64 L-81,61 L-85,58 L-88,53 L-92,47 L-92,42 L-94,41 L-90,35 L-86,35 L-86,33 L-83,32 L-71,31 L-64,29 L-48,27 L-38,28 L-34,30 L-31,33 L-27,29 L-12,29 L0,32 Z " fill="#39784D" transform="translate(302,212)"/>
<path d="M0,0 L7,0 L18,3 L26,4 L31,5 L32,8 L44,8 L46,6 L50,5 L70,5 L76,6 L83,5 L95,4 L102,6 L115,8 L116,9 L127,11 L134,15 L135,17 L135,23 L145,23 L145,24 L134,25 L131,30 L128,35 L124,36 L124,38 L115,41 L88,41 L76,36 L74,35 L68,35 L60,41 L55,45 L44,45 L39,39 L38,29 L36,29 L34,34 L27,41 L8,41 L1,36 L-5,33 L-11,25 L-12,22 L-12,14 L-16,15 L-14,11 L-6,3 Z " fill="#39774D" transform="translate(24,237)"/>
<path d="M0,0 L39,0 L40,1 L41,105 L35,107 L24,109 L23,110 L18,110 L17,109 L16,78 L4,78 L7,76 L7,72 L-12,71 L-13,70 L-13,57 L-12,56 L7,55 L7,50 L16,49 L16,14 L9,13 L9,7 L-5,7 L-3,3 Z " fill="#A87D67" transform="translate(299,133)"/>
<path d="M0,0 L32,0 L33,8 L37,10 L37,71 L8,71 L9,77 L15,79 L15,108 L14,109 L0,110 L-1,109 L-1,1 Z " fill="#353635" transform="translate(103,133)"/>
<path d="M0,0 L32,0 L33,1 L33,109 L19,107 L18,106 L18,79 L22,77 L23,71 L-3,71 L-4,70 L-4,9 L-2,7 Z " fill="#343434" transform="translate(235,133)"/>
<path d="M0,0 L35,0 L38,3 L41,4 L42,7 L41,8 L30,9 L29,13 L21,14 L21,49 L30,50 L30,55 L48,56 L49,57 L49,70 L48,71 L29,72 L28,77 L21,78 L20,109 L15,110 L14,109 L-3,106 L-2,104 L-1,1 Z " fill="#A87E67" transform="translate(36,133)"/>
<path d="M0,0 L2,0 L4,6 L8,12 L10,16 L16,20 L20,21 L48,21 L59,16 L65,16 L69,22 L73,25 L78,26 L87,26 L92,23 L95,22 L98,13 L102,13 L105,22 L107,23 L122,23 L128,24 L128,22 L135,20 L139,16 L146,10 L149,6 L151,0 L154,1 L154,14 L150,25 L149,26 L140,26 L139,32 L136,36 L134,36 L134,38 L132,39 L116,39 L115,38 L104,37 L102,35 L86,37 L67,38 L56,38 L55,37 L46,37 L30,39 L25,42 L14,42 L9,37 L3,25 L0,21 L-2,13 L-1,2 Z " fill="#1A3824" transform="translate(208,254)"/>
<path d="M0,0 L3,0 L5,11 L11,19 L17,22 L23,26 L42,26 L49,19 L51,14 L54,15 L55,25 L59,30 L70,30 L78,23 L83,20 L89,20 L95,23 L103,26 L130,26 L135,24 L139,24 L139,22 L143,21 L145,16 L146,13 L150,12 L152,17 L152,24 L140,43 L136,47 L127,48 L120,45 L107,43 L103,41 L95,41 L92,42 L80,42 L64,40 L47,38 L46,39 L31,41 L21,41 L14,38 L10,31 L10,28 L2,28 L-1,24 L-3,16 L-3,3 Z " fill="#183623" transform="translate(9,251)"/>
<path d="M0,0 L49,0 L52,8 L53,10 L53,37 L52,38 L-3,38 L-4,37 L-4,10 L-1,7 Z " fill="#353435" transform="translate(160,133)"/>
<path d="M0,0 L303,0 L304,5 L303,6 L0,6 L-1,1 Z " fill="#3B3B3B" transform="translate(36,117)"/>
<path d="M0,0 L57,0 L58,1 L59,34 L60,36 L56,36 L54,40 L50,50 L45,50 L44,15 L14,15 L13,49 L3,49 L1,41 L-8,37 L-8,36 L-1,37 L-1,1 Z " fill="#AA836F" transform="translate(156,211)"/>
<path d="M0,0 L24,0 L26,2 L30,20 L32,32 L35,49 L34,54 L3,55 L-2,52 L1,51 L1,2 Z " fill="#A67D67" transform="translate(305,26)"/>
<path d="M0,0 L24,0 L26,2 L23,2 L23,52 L26,53 L21,54 L11,53 L-1,55 L-9,55 L-11,54 L-9,41 L-5,23 L-3,13 L-1,1 Z " fill="#A77D67" transform="translate(46,26)"/>
<path d="M0,0 L30,0 L31,1 L31,36 L-1,36 L-1,1 Z " fill="#F9F5F5" transform="translate(170,225)"/>
<path d="M0,0 L28,0 L28,1 L1,1 L2,5 L29,6 L30,41 L33,43 L28,42 L11,39 L7,37 L6,8 L0,6 Z " fill="#8B8C8C" transform="translate(111,204)"/>
<path d="M0,0 L2,1 L-3,7 L11,7 L12,12 L7,15 L7,50 L-11,50 L-12,49 L-12,14 L-11,13 L9,13 L8,9 L-6,8 L-6,5 Z " fill="#908D8E" transform="translate(297,133)"/>
<path d="M0,0 L4,1 L1,2 L0,29 L-1,30 L-21,33 L-22,34 L-28,34 L-28,33 L-23,32 L-22,2 L-21,1 Z " fill="#868887" transform="translate(253,210)"/>
<path d="M0,0 L6,1 L15,6 L16,19 L16,39 L6,48 L3,50 L0,50 Z " fill="#3B3737" transform="translate(69,28)"/>
<path d="M0,0 L4,1 L4,32 L3,50 L-1,49 L-10,42 L-12,39 L-12,20 L-11,7 L-9,4 Z " fill="#3B3738" transform="translate(303,27)"/>
<path d="M0,0 L16,0 L18,2 L18,35 L17,36 L-3,36 L0,34 Z " fill="#8D8D8D" transform="translate(68,147)"/>
<path d="M0,0 L17,0 L16,34 L8,33 L4,32 L-10,31 L-10,30 L-1,30 L-1,1 Z " fill="#8A8C8A" transform="translate(286,210)"/>
<path d="M0,0 L42,0 L44,4 L44,7 L47,8 L48,11 L-5,11 L-2,6 Z " fill="#898A89" transform="translate(163,268)"/>
<path d="M0,0 L16,0 L17,1 L18,29 L23,30 L23,31 L6,32 L2,33 L1,32 Z " fill="#868886" transform="translate(68,211)"/>
<path d="M0,0 L8,0 L9,1 L9,36 L8,37 L-3,37 L-4,36 L-4,2 Z " fill="#3E3735" transform="translate(307,146)"/>
<path d="M0,0 L8,0 L12,2 L12,35 L8,37 L0,37 L-1,36 L-1,1 Z " fill="#3E3735" transform="translate(57,146)"/>
<path d="M0,0 L8,0 L9,1 L9,31 L7,34 L-3,35 L-4,34 L-4,1 Z " fill="#393633" transform="translate(307,210)"/>
<path d="M0,0 L10,0 L10,32 L8,33 L0,33 L-1,32 L-1,1 Z " fill="#373332" transform="translate(58,211)"/>
<path d="M0,0 L1,2 L2,15 L0,12 L-1,9 L-43,9 L-44,14 L-45,14 L-47,5 L-50,3 L-48,1 Z " fill="#383937" transform="translate(206,260)"/>
<path d="M0,0 L303,1 L303,2 L1,2 Z " fill="#8A8A8A" transform="translate(34,122)"/>
<path d="M0,0 L35,0 L35,8 L37,10 L33,9 L33,1 L1,2 L0,111 L-6,112 L-16,109 L-17,108 L-18,80 L-37,79 L-38,78 L-38,73 L-37,72 L-18,71 L-18,58 L-36,57 L-37,52 L-35,55 L-17,56 L-16,57 L-16,72 L-17,73 L-36,74 L-36,77 L-17,78 L-16,79 L-15,107 L-1,110 L-1,1 Z " fill="#D4D3D1" transform="translate(102,132)"/>
<path d="M0,0 L11,0 L11,23 L1,23 L0,22 Z " fill="#3F3F3F" transform="translate(203,180)"/>
<path d="M0,0 L10,0 L10,22 L9,23 L0,23 L-1,22 L-1,1 Z " fill="#393939" transform="translate(173,180)"/>
<path d="M0,0 L9,0 L10,1 L10,22 L9,23 L0,23 L-1,22 L-1,1 Z " fill="#373636" transform="translate(157,180)"/>
<path d="M0,0 L8,0 L9,1 L9,22 L8,23 L-1,23 L-1,1 Z " fill="#363636" transform="translate(189,180)"/>
<path d="M0,0 L12,1 L13,2 L13,25 L12,26 L-14,26 L-15,25 L-15,2 L-14,1 L-4,1 L-4,2 L-13,3 L-13,24 L-4,24 L-3,6 L-1,6 Z M3,2 L2,3 L2,25 L11,25 L12,24 L12,3 L11,2 Z " fill="#C8C8C8" transform="translate(186,178)"/>
<path d="M0,0 L40,0 L41,1 L42,104 L50,105 L49,108 L40,105 L39,2 L0,1 Z " fill="#E7DCD2" transform="translate(299,132)"/>
<path d="M0,0 L26,0 L27,4 L26,5 L1,5 Z " fill="#FAFAFA" transform="translate(112,205)"/>
<path d="M0,0 L2,0 L3,109 L8,108 L6,112 L4,113 L1,111 Z " fill="#8C928F" transform="translate(267,133)"/>
<path d="M0,0 L2,1 L3,103 L8,103 L9,106 L2,105 L1,104 L1,69 L-1,68 L0,63 Z " fill="#D4D3D1" transform="translate(139,141)"/>
<path d="M0,0 L8,0 L8,1 L1,2 L1,33 L11,33 L11,2 L12,2 L12,35 L9,36 L-1,35 L-1,1 Z " fill="#4F4C41" transform="translate(57,210)"/>
<path d="M0,0 L53,0 L56,9 L53,8 L52,2 L3,1 L3,8 L2,8 Z " fill="#D8D7D7" transform="translate(157,132)"/>
</svg>
